<svg xmlns="http://www.w3.org/2000/svg" width="300" height="300"><path fill="#fe7510" d="M0 0h300v300H0z"/><path d="M232 166.42c-3.13 46.9-43.7 82.42-90.6 79.3-46.92-3.12-82.43-43.68-79.3-90.6 3.1-46.92 43.67-82.42 90.6-79.3 46.9 3.12 82.4 43.68 79.3 90.6z" fill="#f0f0f0"/><path d="M201.46 153.83c0 27.63-22.4 50.04-50.04 50.04s-50.04-22.4-50.04-50.04 22.4-50.04 50.04-50.04 50.04 22.4 50.04 50.03z" fill="#f0f0f0"/><path d="M179.3 153.83c0 15.4-12.48 27.87-27.88 27.87-15.4 0-27.88-12.48-27.88-27.87 0-15.4 12.48-27.88 27.88-27.88 15.4 0 27.88 12.48 27.88 27.88z" fill="#f0f0f0"/><path d="M300.1 194.8l-11.58-3.16-8.5-9.9-21.08 1.74-15.62-11.55-4.36 1.33-6.04-7.17-16-11.1-5.82.47-6.87 14.8-3.6 1.98-9.2 22-6.26 25.64 114.92-9.54V194.8z" fill="#463728"/><path d="M109.22 169.2h1.5l-.65-6.6c-.02-.23-.16-.23-.2 0l-.65 6.6z" fill="#503d28"/><path d="M109.63 164.66l-.9 1.2 1-3.42-.8 1.08 1.05-3.5 1.05 3.5-.82-1.08 1.03 3.4-.9-1.18 1.06 3.56-1.42-1.86-1.42 1.86z" fill="#315730"/><path d="M108.44 167.3l.92-2.53h-.58l.77-2.13h-.53l.96-2.63.95 2.64h-.53l.78 2.13h-.58l.92 2.53z" fill="#315730"/><path d="M129.78 163.86h1.5l-.65-6.6c-.02-.24-.16-.24-.18 0l-.67 6.6z" fill="#503d28"/><path d="M130.2 159.3l-.92 1.2 1.02-3.4-.8 1.08 1.04-3.5 1.05 3.5-.83-1.1 1.03 3.42-.9-1.2 1.05 3.58-1.4-1.87-1.43 1.88z" fill="#315730"/><path d="M129 161.96l.92-2.53h-.58l.77-2.14h-.52l.96-2.63.95 2.62h-.54l.78 2.13h-.58l.92 2.53z" fill="#315730"/><path d="M145.16 163.86h1.5l-.65-6.6c0-.24-.15-.24-.17 0l-.67 6.6z" fill="#503d28"/><path d="M145.57 159.3l-.9 1.2 1-3.4-.8 1.08 1.05-3.5 1.05 3.5-.82-1.1 1.03 3.42-.9-1.2 1.05 3.58-1.4-1.87-1.43 1.88z" fill="#315730"/><path d="M144.38 161.96l.92-2.53h-.58l.77-2.14h-.53l.95-2.63.96 2.62h-.53l.77 2.13h-.58l.92 2.53z" fill="#315730"/><path d="M153.3 158.04h1.52l-.66-6.6c-.02-.24-.16-.24-.2 0l-.65 6.6z" fill="#503d28"/><path d="M153.72 153.5l-.9 1.2 1-3.43-.8 1.1 1.04-3.52 1.06 3.5-.82-1.08 1.02 3.42-.9-1.2 1.06 3.56-1.42-1.87-1.4 1.86z" fill="#315730"/><path d="M152.53 156.14l.9-2.53h-.57l.78-2.13h-.53l.96-2.62.96 2.62h-.53l.77 2.14h-.6l.94 2.54z" fill="#315730"/><path d="M138.9 162.3h1.52l-.66-6.58c-.02-.24-.16-.24-.2 0l-.65 6.6z" fill="#503d28"/><path d="M139.3 157.77l-.9 1.2 1.03-3.42-.82 1.08 1.06-3.5 1.05 3.5-.8-1.08 1.02 3.4-.9-1.18 1.06 3.56-1.42-1.86-1.4 1.86z" fill="#315730"/><path d="M138.12 160.4l.92-2.52h-.58l.78-2.14h-.53l.96-2.62.96 2.62h-.53l.77 2.14h-.6l.93 2.53z" fill="#315730"/><path d="M237.44 240.23l-17.94 5.35-26.84-90 17.94-5.35 26.84 90z" fill="#654a2d"/><path d="M214.03 227.36v-6.4l6.78.64v5.12z" fill="#484848"/><path d="M214.77 224.16c-.02-1.24-.28-2.36-.73-3.2-.4.84-.67 1.98-.65 3.22 0 1.24.27 2.37.7 3.22.42-.86.68-2 .67-3.24z" fill="#020201"/><path d="M244 229.85c-5.74 1.56-1.5-10.2-13.5-5.48 7.05-4.97 9.24-2.18 10.7.9.4.2 1.4.13 1.7.02-.47.6-1.06.62-1.3.66.38.2 1.5.07 1.75-.04-.28.3-.56.5-.92.58-.27.1-.6.1-.78.07.24.44 1.86.32 2.1.2-.27.3-.53.45-.8.57-.3.14-.97.28-1 .2.38.54 2.1.82 2.43.57-.3.28-.64.44-1 .54-.36.1-.64.1-.98 0 .37.65.82 1.1 1.6 1.2z" fill="#4c2625"/><path d="M234.37 242.74l.24 1.32-.26-1.32-3.1-15.56c-.27-1.38-.48-2.53-.46-2.53 0 0 .25 1.14.53 2.52l3.07 15.57zM230.3 242.73l.1 1.34s-.08-.6-.15-1.34l-1.5-15.8c-.13-1.4-.23-2.56-.2-2.56 0 0 .13 1.16.26 2.56l1.5 15.8zM225.5 242.53l-.07 1.34s0-.6.05-1.34l.82-15.85c.07-1.4.14-2.57.16-2.57.02 0-.03 1.18-.1 2.58l-.85 15.85zM220.74 241.94l-.28 1.3s.1-.6.25-1.3l3.08-15.58c.27-1.38.5-2.52.53-2.5.02 0-.2 1.14-.46 2.5l-3.1 15.58zM215.3 238.28l-.5 1.07c-.02 0 .2-.5.47-1.08l5.77-12.67c.5-1.12.95-2.05.97-2.04.02 0-.4.94-.9 2.06l-5.8 12.66zM217.5 240.02c-.23.65-.44 1.2-.45 1.2l.43-1.2 5.2-14.18c.46-1.25.85-2.3.87-2.28.02 0-.35 1.05-.82 2.3l-5.22 14.16zM223.1 242.33l-.18 1.33.15-1.33 1.94-15.7c.18-1.4.34-2.55.36-2.55 0 0-.12 1.16-.3 2.55l-1.96 15.7zM227.85 242.55c0 .73-.02 1.34-.02 1.34s-.02-.62-.02-1.35l.04-15.83c0-1.4.02-2.57.04-2.57s.03 1.17.02 2.57l-.05 15.83zM231.86 242.36c.1.72.16 1.33.15 1.33l-.18-1.34-2.06-15.7c-.18-1.38-.32-2.54-.3-2.54 0 0 .18 1.15.36 2.54l2.04 15.7z" fill="#ffefcc"/><path d="M222.62 224.5c1.06.27 2.75-.23 2.05-1.25-.7-1.02-6.52-3.78-13.24-5.14-6.75-1.36-13.8-2.14-17.34-.35 0 0 7.95-.28 16.74 2.3 8.75 2.57 9.6 3.94 11.78 4.44z" fill="#5d00c9"/><path d="M223.78 223.3c1.06-.28 2.75.2 2.07 1.22-.7 1.03-6.47 3.87-13.17 5.32-6.74 1.46-13.8 2.33-17.34.6 0 0 7.97.17 16.72-2.52 8.72-2.7 9.55-4.08 11.72-4.6z" fill="#5d00c9"/><path d="M222.08 222.57c1 0 2.43.66 1.6 1.28-.85.62-6.67 1.56-13 1.3-6.36-.23-12.88-.96-15.68-2.9 0 0 7.1 1.66 15.55 1.4 8.42-.27 9.47-1.12 11.53-1.08z" fill="#5d00c9"/><path d="M240.3 223.7c2.77.2 9.4 2.46 9.4 2.46-4.32-4.92-14.9-5.24-15.97-4.7-1.08.52-.95 2.35-.48 2.5.54.32 4.15-.46 7.06-.26z" fill="#5d00c8"/><path d="M215.85 219.6l18.58 1.88-.55 5.46-11.15-1.13z" fill="#5d00c8"/><path d="M241.1 223.47l-16.97-1.7-.4 4.14 10.16 1.04z" fill="#5d00c8"/><path d="M218.07 220.68s3.4-.75 7.63-.5c4.2.28 9.38 1.58 9.38 1.58s-5.42.87-9.52.6c-4.1-.25-7.5-1.68-7.5-1.68z" fill="#72fe18"/><path d="M233.67 231.08c.07.26.6.44.9.07.32-.37.44-2.1-.22-3.63-.65-1.55-1.6-3-3.03-3.2 0 0 1.6 1.35 2.1 3.56.5 2.2.06 2.7.25 3.2z" fill="#feedca"/><path d="M237.8 222.38c-.24-.02-.43-.15-.42-.27.02-.12.23-.2.47-.18.25.03.44.15.43.28-.02.12-.23.2-.47.18zM235.64 222.63c-.25-.03-.44-.15-.42-.28 0-.12.22-.2.47-.18.23.02.42.15.4.27 0 .13-.2.2-.46.2zM232.94 222.82c-.24-.02-.43-.15-.42-.27 0-.13.22-.2.47-.2.24.04.43.16.4.3 0 .1-.2.2-.46.17z" fill="#72fe18" stroke-width=".2" stroke="#62b663" stroke-linecap="square"/><path d="M229.45 225.76l1.13-.72 3.6 5.68-1.12.72-3.6-5.68z" fill="#5d00c9"/><path d="M239.83 232.58l-.48 1.26-6.3-2.38.48-1.26 6.3 2.38z" fill="#5d00c9"/><path d="M233.68 230.6c.27 0 .62.4.4.84-.25.42-1.8 1.15-3.48 1.1-1.68-.06-3.4-.43-4.1-1.68 0 0 1.85 1 4.1.67 2.23-.33 2.53-.9 3.08-.92z" fill="#feedca"/><path d="M235.07 231.02c-.07.7-.7 1.2-1.4 1.13-.7-.07-1.2-.7-1.12-1.4.07-.68.7-1.2 1.4-1.12.68.07 1.2.7 1.12 1.4zM239.35 233.24v-.75h1.62v.75h-1.62z" fill="#5d00c9"/><path d="M238.92 233.38l.68-.3.67 1.47-.68.3-.68-1.47z" fill="#5d00c9"/><path d="M240.02 235.8c-.06-.02-.08-.15 0-.24.1-.1.46-.16.77-.03.3.13.58.35.58.7 0 0-.24-.37-.7-.45-.45-.07-.56.05-.66 0z" fill="#feedca"/><path d="M240.17 235.54c-.06 0-.1-.13-.04-.23.07-.1.4-.24.73-.17.33.06.64.2.72.56 0 0-.3-.33-.77-.3-.44 0-.53.15-.63.14z" fill="#feedca"/><path d="M239.53 234.68l.74-.14.22 1.24-.75.13-.22-1.22z" fill="#5d00c9"/><path d="M242.24 233.98c.12-.38-.1-.5-.23-.55.14.04.2.17.12.4-.08.24-.22.3-.35.25h-.03c.03.15.2.25.23.26.05.02.16-.04.27-.36zM241.72 233.86c.22-.33.04-.52-.06-.6.1.1.14.23 0 .44-.15.2-.3.2-.4.13-.02 0-.03 0-.04-.02-.02.18.1.32.14.34.04.03.17 0 .36-.28z" fill="#feedca"/><path d="M240.72 233.2l.25-.7 1.53.54-.25.7-1.53-.53z" fill="#5d00c9"/><path d="M217.9 203.35c-.16-.7-.3-1.3-.28-1.32 0 0 .15.6.3 1.3l3.46 15.5c.3 1.37.54 2.52.53 2.52 0 0-.28-1.13-.58-2.5l-3.42-15.5zM221.98 203.26c-.1-.72-.15-1.33-.15-1.33s.1.6.18 1.33l1.88 15.76c.16 1.4.3 2.55.27 2.55-.02 0-.17-1.15-.33-2.55l-1.84-15.76zM226.75 203.35c.02-.73.05-1.34.06-1.34.02 0 0 .62-.02 1.35l-.44 15.86c-.04 1.42-.1 2.58-.1 2.58-.02 0 0-1.16.04-2.57l.47-15.85zM231.54 203.83l.25-1.32-.23 1.34-2.7 15.63c-.25 1.4-.46 2.53-.48 2.53-.02 0 .16-1.15.4-2.54l2.74-15.63zM237.07 207.36c.25-.6.47-1.08.48-1.08l-.45 1.1-5.48 12.8c-.5 1.12-.9 2.06-.92 2.05 0 0 .38-.95.86-2.08l5.5-12.8zM234.8 205.67l.44-1.2s-.17.55-.4 1.2l-4.86 14.3c-.43 1.26-.8 2.3-.82 2.3-.02 0 .33-1.06.76-2.32l4.9-14.28zM229.16 203.5l.15-1.34c.02 0-.03.6-.1 1.33l-1.57 15.74c-.14 1.4-.28 2.56-.3 2.55l.24-2.56 1.6-15.75zM224.42 203.4c-.02-.74-.02-1.35 0-1.35l.03 1.34.34 15.8.02 2.58c-.02 0-.06-1.17-.1-2.57l-.3-15.8zM220.4 203.67l-.18-1.33.23 1.33 2.43 15.64c.2 1.4.38 2.54.36 2.55-.02 0-.2-1.15-.42-2.54l-2.4-15.63z" fill="#ffefcc"/><path d="M227.47 223.57l.03-.35 1.8.18-.05.35-1.78-.18z" fill="#f2f2f2"/><path d="M227.93 223.56h-.03l.06-.24h-.07.02l-.06.22h-.03zM228.06 223.54l-.04.02s-.02 0-.02-.03l.03-.1s0 .02.02.03c0 0 .02.02 0 .04zm0-.07v-.03c-.02 0-.03-.02-.02-.04v-.03c0-.02.03-.03.04-.03.02 0 .03.02.02.03zm-.04.1c.05 0 .1-.07.1-.1 0-.05.02-.13-.04-.14-.05 0-.1.08-.1.1 0 .05-.02.13.04.14zM228.2 223.55c0 .02 0 .03-.02.03s-.02-.02-.02-.03l.03-.1v.03c.02 0 .03.02.02.04zm.03-.06c0-.02 0-.03-.02-.04v-.08l.04-.02c.02 0 .02 0 .02.03zm-.05.1c.05 0 .1-.1.1-.13s.02-.12-.04-.12c-.05 0-.1.07-.1.1 0 .05-.02.13.04.14zM228.37 223.57l-.03.02c-.02 0-.02-.02-.02-.04l.03-.1s0 .02.02.03c0 0 .02.02 0 .03zm.02-.07s-.02 0-.03-.02c0-.02-.02-.03 0-.05v-.03c0-.02.02-.03.03-.02.02 0 .02 0 .02.03zm-.06.1c.05 0 .1-.07.1-.1 0-.05.02-.13-.04-.13-.05 0-.1.07-.1.1 0 .04-.02.13.04.13zM228.53 223.58c0 .02-.02.03-.03.03-.02 0-.03 0-.02-.02l.03-.1.03.03c0 .02.02.03 0 .05zm.02-.06s0-.02-.02-.03c0-.02-.02-.03 0-.05v-.03c0-.02 0-.03.03-.03 0 0 .02 0 .02.02zm-.05.1c.05 0 .1-.08.1-.1 0-.05.02-.13-.04-.14-.05 0-.1.08-.1.1 0 .05-.02.13.04.14zM228.7 223.6s-.03.03-.04.02c-.02 0-.03 0-.02-.03l.03-.1.02.02v.05zm0-.06v-.03c-.02 0-.03-.02-.03-.04v-.03l.05-.02.02.04zm-.04.1c.05 0 .1-.08.1-.12 0-.03 0-.12-.04-.12-.05 0-.1.07-.1.1 0 .05-.02.13.04.13zM228.85 223.62l-.03.02c-.02 0-.03 0-.02-.03l.03-.1c0 .02 0 .03.02.04 0 0 .02.02 0 .04zm.02-.07s0-.02-.02-.03l-.02-.04v-.03c.02-.02.03-.03.05-.03l.02.03zm-.06.1c.07 0 .1-.07.12-.1 0-.05 0-.13-.04-.14-.05 0-.1.1-.1.12 0 .04-.02.12.03.13z" fill="#010201"/><path d="M229.3 224.06l-.2-.02.1-.96.2.02-.1.96zM227.57 223.9l-.2-.03.1-.96.2.03-.1.96zM249.9 225.7c-.55-.07-1 0-1 .13-.02.14.4.3.95.34l.27.02 3.7.13s-2.32-.4-3.65-.6l-.27-.04zM248.53 224.44c-.54.1-.94.3-.9.44.02.14.47.15 1 .03.1 0 .27-.05.27-.05l3.56-1-3.66.53-.27.06zM246.4 223.42c-.5.23-.85.5-.8.63.07.13.52.04 1-.18l.26-.12 3.26-1.73-3.46 1.3-.25.1zM244.37 222.25c-.43.35-.7.7-.6.8.08.12.5-.08.9-.43.1-.06.2-.18.2-.18l2.72-2.5s-1.92 1.35-3 2.14l-.23.17zM241.67 221.68c-.32.45-.48.86-.37.94.1.08.45-.22.77-.66l.15-.22 1.97-3.14-2.36 2.86-.17.22zM239.17 221.4c-.23.5-.3.94-.18 1 .1.05.4-.3.6-.8.06-.1.12-.26.12-.26l1.3-3.46-1.73 3.27c-.05.08-.1.16-.13.25zM196.57 218.32c1.05-.1 1.84-.5 1.8-.95-.03-.44-.9-.72-1.94-.63-.2 0-.5.07-.5.07l-6.97 1.36 7.08.18c.17 0 .34 0 .53-.02zM196.6 223.5c1.04.1 1.9-.17 1.95-.6.04-.45-.77-.88-1.8-1h-.52l-7.08.05 6.93 1.47.5.07zM197.5 231.6c1.07 0 1.9-.33 1.9-.77s-.83-.8-1.87-.82c-.2 0-.52.04-.52.04l-7.04.66 7.03.87c.15 0 .32.03.5.03z" fill="#484848"/><path d="M216.93 223.53c1.72.17 4.2-.25 2.88-.97-1.32-.73-11.02-2.55-21.76-3.32-10.8-.78-21.92-1.1-26.95.3 0 0 12.25-.46 26.5 1.13 14.2 1.6 15.85 2.57 19.33 2.86zM219.7 224.54c1.7-.03 4.16.6 2.77 1.2-1.38.6-11.2 1.62-21.97 1.48-10.82-.13-21.94-.73-26.82-2.57 0 0 12.17 1.5 26.5 1.1 14.28-.38 16.02-1.22 19.5-1.2z" fill="#5d00c9"/><path d="M164.43 221.24c.76-.58 1.97-1.2 3.24-1.67 1.58-.65 3.17-.97 4.05-.9.67.04 1.34.4.3 1.28.27-.53-.46-.57-.72-.55-1.26.06-3.6.83-4.92 1.7-1.48 1.07-1.98 2-3.97 3.1-1.1.64-2.98 1.34-4 1.35 1.8-.37 4.28-1.96 3.78-2.32-.14-.15-.53-.24-1.7.23-.6.24-1.2.68-.7.64.28 0 .7-.23 1.02-.38 0 .23-1.25.8-1.9.93-.74.16-1.1.03-.82-.3.4-.54 1.4-1.07 1.92-1.56.3-.3.13-.48-.46-.38-.37.03-1.08.3-1.23.52.08.07.18.1.63-.04-.07.1-.45.2-.6.23-.52.08-.63-.1-.35-.35.44-.43 1.96-1.06 2.93-1.26.98-.2 1.55-.1 1.6.18.83-.6 2.06-1.22 3.35-1.75-.84.5-1.42 1-1.42 1.3zM165.57 226.47c.77-.58 1.98-1.2 3.24-1.67 1.6-.65 3.18-.97 4.06-.9.67.04 1.34.4.3 1.28.27-.53-.46-.56-.72-.55-1.26.06-3.6.83-4.92 1.72-1.48 1.05-1.98 1.98-3.97 3.1-1.12.62-3 1.32-4 1.33 1.78-.37 4.27-1.96 3.77-2.32-.14-.15-.53-.24-1.7.23-.6.23-1.2.67-.7.63.28 0 .7-.23 1.02-.38 0 .23-1.25.8-1.9.93-.74.16-1.1.03-.82-.3.4-.53 1.42-1.07 1.92-1.56.3-.3.13-.47-.46-.37-.36.03-1.07.3-1.23.52.07.07.17.1.62-.04-.07.1-.45.2-.6.23-.52.08-.63-.1-.35-.35.44-.42 1.96-1.05 2.93-1.25.97-.2 1.54-.1 1.6.18.83-.6 2.05-1.22 3.34-1.75-.85.5-1.43 1-1.43 1.3z" fill="#e90005"/><path d="M170.36 220.05l-.05-1.5 7.5-.22.03 1.5-7.47.22zM170.93 225.2l.15-1.5 7.44.76-.15 1.48-7.44-.75z" fill="#ffb013"/><path d="M229.14 228.8c-1.08.9-2.5.94-3.18.12-.67-.82-.33-2.2.75-3.1 1.1-.88 2.52-.94 3.2-.12.67.83.33 2.2-.76 3.1z" fill="#5d00c9"/><path d="M211.52 232.15c-.9.4-1.88.2-2.18-.5-.3-.68.17-1.56 1.07-1.96.9-.42 1.9-.2 2.2.5.3.67-.18 1.55-1.08 1.95zM212.18 218.76c-.94-.32-1.5-1.15-1.27-1.86.24-.7 1.2-1.02 2.13-.7.94.3 1.5 1.13 1.27 1.84-.24.7-1.2 1.03-2.12.72z" fill="#73ff19" stroke-width=".79" stroke="#3c9444" stroke-linecap="square"/><path d="M185.9 218.94c-.8-.08-1.4-.64-1.34-1.25.06-.6.76-1.04 1.57-.96.8.08 1.4.64 1.34 1.25-.06.6-.76 1.02-1.56.94zM185.24 228.25c-.8-.08-1.4-.64-1.35-1.25.05-.6.75-1.04 1.56-.96.8.1 1.4.64 1.34 1.25-.06.6-.76 1.03-1.56.95z" fill="#73ff19" stroke-width=".53" stroke="#3c9444" stroke-linecap="square"/><path d="M205.66 224.4c-.2-.02-.34-.15-.33-.3.02-.15.2-.26.4-.24.2.02.34.16.32.3 0 .16-.2.26-.4.24zM202.03 226.73c-.2-.02-.34-.16-.33-.3.02-.16.2-.26.4-.24.2 0 .34.14.32.3 0 .14-.2.25-.4.23zM202.5 220.74c-.2-.02-.35-.16-.33-.3 0-.16.2-.27.38-.25.2 0 .35.15.34.3-.03.15-.2.26-.4.24z" fill="#e90005" stroke-width=".27" stroke="#912f33" stroke-linecap="square"/><path d="M230.53 225.47c.2.33.34.63.4.83-.48-.74-.83-1.17-1.16-1.54.33.48 1 1.44.9 1.54h-.02c-.15.07-.75-.94-1.05-1.43.2.45.46.95.94 1.68-.15-.13-.37-.4-.6-.7l-.25-.36c.35.63.87 1.54 1.43 2.3-.18-.3-.54-.92-.37-.85.12.06.4.57.52.8.1.2.2.4.25.54l.08.16c0-.08 0-.2.1-.15.36.6.72 1.06.93 1.22-.56-.65-.77-1.3-1.23-1.98.1.18.17.33.15.4-.27-.25-.58-.92-.58-1.08 0-.02 0-.04.02-.04h.04c.14.07.63.63.74.96-.07 0-.17-.13-.3-.3.44.72.95 1.17 1.3 1.95-.04-.25-.3-.77-.7-1.34-.02-.12.1-.06.16-.03 0 0-.07-.1-.12-.14l-.4-.45c-.16-.2-.5-.67-.5-.8 0-.2.42.4.63.68-.48-.82-1.1-1.67-1.54-2.26.04.04.16.25.23.37z" fill="#73ff19"/><path d="M230.5 223.64c-.06.14-.17.2-.25.3.2-.05.34-.2.5-.44-.07 0-.34-.04-.64.22-.12.1-.55.4-.7.4l.12.04c.37.1.73.12 1.04-.07.32-.2.67-.78.87-.84-.02 0-.64-.2-.93-.1-.27.1-.5.23-.67.62.1-.08.17-.16.26-.22.25-.2.55-.23.87-.2-.45.8-.8.67-1.06.7 0 0 .4-.35.6-.42z" fill="#e90005"/><path d="M221.04 230.48c-1.74.6-6.37.9-6.37.9 3.9 1.9 10.43-.6 10.96-1.2.52-.6-.02-1.68-.35-1.66-.4-.05-2.42 1.34-4.24 1.96z" fill="#ffefcc"/><path d="M223.2 231.38l-.75-1.68 4.2-1.9.75 1.7-4.2 1.88z" fill="#5d00c9"/><path d="M223.98 230.07l-.47-.57 2.86-2.33.47.57-2.85 2.33z" fill="#5d00c9"/><path d="M224.13 256.58l-13.32-2.65 13.3-66.86 13.34 2.66-13.3 66.85z" fill="#654a2d"/><path d="M168 160h-1.5l.65-6.58c.02-.24.16-.24.2 0l.65 6.6z" fill="#503d28"/><path d="M167.6 155.47l.9 1.2-1.02-3.42.82 1.1-1.05-3.52-1.05 3.5.8-1.08-1 3.4.9-1.18-1.07 3.57 1.42-1.87 1.4 1.87z" fill="#315730"/><path d="M168.8 158.1l-.93-2.52h.58l-.78-2.13h.53l-.95-2.62-.96 2.62h.52l-.78 2.13h.6l-.93 2.53z" fill="#315730"/><path d="M224.64 251.15l-205.4 39.17L0 189.4l205.4-39.17 19.24 100.92z" fill="#654a2d"/><path d="M84.6 239.56L78.9 198.8l73.8-10.37 5.72 40.75-73.8 10.38z" fill="#7aa041"/><path d="M150 224.6l2.1-36.17 39.07 2.27-2.1 36.17L150 224.6z" fill="#7aa041"/><path d="M224.64 235.98l1.05-24.2 40.3 1.74-1.05 24.2-40.3-1.74z" fill="#5c8e3c"/><path d="M204.2 150.3l38.27-.07 3.48 1 7.87 6.6-9.38 14.8-2.7 3.9 1.74 4.38-.98 5.66-8.53 15.1-13.24 7.66z" fill="#654a2d"/><path d="M245.3 224.5c.56 0 1.02-2.17 1-4.62-.22-11.18-.74-39.87-1.04-46.58-.32-6.63-1.96-14.2-2.64-17.1-.18-.78-.44-1.2-.7-1.2h-8.13c-.28 0-.54.42-.72 1.2-.7 2.97-2.33 10.54-2.64 17.1-.32 6.7-.83 35.33-1.03 46.58-.04 2.45.43 4.6 1 4.6h14.9z" fill="#2081cf" fill-opacity=".74"/><path d="M300 227.55v-26.8c-12.44-1.55-25.8-1.05-39.17 1.94-23.5 5.25-43.12 16.67-56.62 31.84 18.45 7.57 41.44 9.92 64.8 4.7 11.27-2.53 21.7-6.53 31-11.7z" fill="#5c8e3c"/><path d="M238.06 230.5l-.62-5.77 40.74-4.4.62 5.78-40.74 4.4z" fill="#5c8e3c"/><path d="M178.93 224.8l11.98-34.18 44.23 15.5-12 34.2-44.2-15.5z" fill="#7aa041"/><path d="M231.12 211.77l15.9 3.17-4.1 20.55-15.9-3.17 4.1-20.56zM245.32 245.6l13.64-32.05 24.27 10.33-13.64 32.05-24.28-10.33z" fill="#7aa041"/><path d="M223.4 238.93l10.4-33.24 25.17 7.85-10.4 33.25-25.16-7.87z" fill="#7aa041"/><path d="M173.8 187.9l5.13-2.58 5.14 2.58z" fill="#64615f"/><path d="M178.96 187.9h-.05v-2.58h.06v2.58zM178.2 187.9h-.05v-2.58h.05v2.58zM177.42 187.9h-.06v-2.58h.06v2.58zM176.66 187.88h-.06v-1.47h.06v1.48zM175.84 187.9h-.05v-1.48h.04v1.48zM179.67 187.9h.06v-2.58h-.06v2.58z" fill="#303030"/><path d="M178.93 186.28v.05h.74v-.05h-.74zM178.93 186.72v.06h.8v-.06h-.8zM178.93 187.15v.06h.8v-.05h-.8zM178.9 187.62v.06h.8v-.06h-.8zM178.18 186.06v.06h.74v-.06h-.74zM178.18 186.5v.06h.78v-.06h-.78zM178.18 186.94v.06h.78v-.06h-.78zM178.15 187.4v.07h.8v-.06h-.8zM177.4 186.28v.05h.73v-.05h-.74zM177.4 186.72v.06h.78v-.06h-.8zM177.4 187.15v.06h.78v-.05h-.8zM177.36 187.62v.06h.8v-.06h-.8zM176.63 186.06v.06h.74v-.06h-.74zM176.63 186.5v.06h.78v-.06h-.77zM176.63 186.94v.06h.78v-.06h-.77zM176.6 187.4v.07h.8v-.06h-.8zM175.88 186.28v.05h.74v-.05h-.74zM175.87 186.72v.06h.8v-.06h-.8zM175.87 187.15v.06h.8v-.05h-.8zM175.85 187.62v.06h.78v-.06h-.78zM179.7 186.06v.06h.74v-.06h-.74zM179.7 186.5v.06h.8v-.06h-.8zM179.7 186.94v.06h.8v-.06h-.8zM179.67 187.4v.07h.8v-.06h-.8zM180.5 186.28v.05h.73v-.05h-.74zM180.5 186.72v.06h.77v-.06h-.78zM180.5 187.15v.06h.77v-.05h-.78zM180.46 187.62v.06h.78v-.06h-.78zM181.27 186.06v.06h.74v-.06h-.73zM181.27 186.5v.06h.8v-.06h-.8zM181.27 186.94v.06h.8v-.06h-.8zM181.24 187.4v.07h.8v-.06h-.8z" fill="#303030"/><path d="M180.46 187.9h.06v-2.58h-.06v2.58zM181.22 187.88h.05v-1.47h-.05v1.48zM182.03 187.9h.06v-1.48h-.07v1.48z" fill="#303030"/><path d="M183.53 195.07h-9.2v-6.87h9.2v6.87z" fill="#d7ba9a" stroke-width=".64" stroke="#533d27" stroke-linecap="square"/><path d="M174.34 192v-.73h9.2v.74h-9.2z" fill="#533d27"/><path d="M177.02 191.36h.74v3.7h-.74v-3.7zM176.28 188.3h.74v3.7h-.74v-3.7zM180.9 187.88h.74v3.72h-.74v-3.72zM180.16 191.36h.74v3.7h-.74v-3.7z" fill="#533d27"/><path d="M179.52 190.48h-1.18V189h1.18v1.48zM182.5 193.9h-.86v-1.08h.87v1.08zM182.8 190.34h-.74v-1.08h.74v1.08zM175.84 190.34h-.74v-1.08h.74v1.08zM176.28 193.9h-.87v-1.08h.88v1.08z" stroke-width=".28" stroke="#533e28" stroke-linecap="square"/><path d="M179.6 194.77h-1.34v-.9c0-.52.3-.92.67-.92.38 0 .68.4.68.9v.92z" fill="#4a331d"/><path d="M178.95 194.77h-.04v-1.82h.05v1.82z"/><path d="M178.56 194.03h-.1v-.13h.1zM178.46 194.23h.1v.14h-.1zM178.56 194.23h-.1v-.2h.1v.2zM179.4 194.03h-.1v-.13h.1zM179.3 194.23h.1v.14h-.1z" fill="#302214"/><path d="M262.7 300L36.3 259l12.38-68.38 226.4 41-12.4 68.38z" fill="#8ac04c"/><path d="M179.4 194.23h-.1v-.2h.1v.2z" fill="#302214"/><path d="M173 189l-.6-1.02 6.53-3.76.6 1.02L173 189z" fill="#533e28"/><path d="M184.86 189l.6-1.02-6.52-3.76-.6 1.02 6.52 3.76z" fill="#533e28"/><path d="M178.57 196.43v-.47c0-.2.1-.36.22-.36h.27c.13 0 .23.16.23.36v.47c0 .2-.1.36-.23.36h-.28c-.13 0-.23-.17-.23-.37zM179.6 198.2l-.23-.4c-.1-.2-.1-.38 0-.44l.26-.14c.1-.06.27.03.37.2l.24.4c.1.18.1.37-.02.43l-.24.14c-.1.06-.28-.04-.38-.2zM181.4 198.43l.44.12c.2.05.33.2.3.3l-.07.28c-.03.12-.22.18-.4.13l-.46-.12c-.2-.05-.32-.2-.3-.3l.08-.28c.03-.12.22-.18.4-.13zM183.35 198.7h.48c.2 0 .38.1.38.22v.3c0 .13-.16.23-.37.23h-.48c-.2 0-.38-.1-.38-.23v-.3c0-.12.17-.23.38-.23zM185.48 198.56l.46-.13c.2-.05.4 0 .43.13l.07.3c.04.1-.1.25-.3.3l-.47.13c-.2.04-.4 0-.42-.14l-.08-.28c-.03-.13.1-.27.3-.32zM187.62 197.94l.46-.12c.2-.06.4 0 .43.12l.08.3c.04.1-.1.26-.3.3l-.47.13c-.2.06-.38 0-.4-.12l-.1-.3c-.02-.1.1-.26.32-.3zM189.67 197.3l.43-.26c.18-.1.38-.1.45 0l.15.27c.06.13-.03.3-.22.4l-.42.26c-.18.1-.4.1-.45-.02l-.14-.26c-.07-.1.03-.3.2-.4zM191.32 195.94l.35-.35c.15-.16.35-.2.44-.12l.22.22c.1.1.05.3-.1.44l-.35.34c-.15.15-.35.2-.44.1l-.2-.2c-.1-.1-.06-.3.1-.44z" fill="#64615f"/><path d="M194.7 194.22h-5.26v-11.4h5.25v11.4z" fill="#4d4d4d"/><path d="M188.75 182.98l3.32-1.5 3.3 1.5z" fill="#4e361f"/><path d="M189.77 189.66h-.66v-5.15h.67v5.16zM195.02 189.66h-.66v-5.15h.66v5.16z" fill="#412509"/><path d="M189.77 195.1h-.66v-5.9h.67v5.9zM195.02 195.1h-.66v-5.9h.66v5.9z" fill="#412509"/><path d="M173.44 154.6h-1.5l.65-6.6c0-.24.15-.24.18 0l.66 6.6z" fill="#503d28"/><path d="M173.04 150.05l.9 1.2-1.02-3.42.82 1.1-1.05-3.52-1.06 3.52.8-1.1-1 3.42.9-1.2-1.07 3.58 1.42-1.87 1.4 1.87z" fill="#315730"/><path d="M174.23 152.7l-.92-2.54h.6l-.8-2.13h.54l-.95-2.62-.97 2.63h.53l-.78 2.13h.6l-.93 2.53z" fill="#315730"/><path d="M203.2 150.48h-.28l.04.04-13.1 2-15.25 1.28-43.28 8.25-36.48 4.56-48.44 11.56-39.33 9.56 9.6 2.36 27.24-3.32 32-7.32 18.48.7 30.97-3.27 21.22-6.55 15.23-1.48 21.98-5.44 18.68-4.66 10.05-5.35h2.97l3.15-3.17h-11.66l.47-.4-4.22.65z" fill="#527b29"/><path d="M195.02 184v.67h-5.9V184h5.9z" fill="#412509"/><path d="M192.07 182.63c-1.3 0-2.44.13-3.32.36.87.2 2.04.35 3.32.35 1.27 0 2.43-.13 3.3-.36-.86-.23-2.04-.37-3.3-.37z" fill="#4e361f"/><path d="M192.43 183.35h-.72v-.72h.73v.72z"/><path d="M192.44 182.4c-.05 0-.1.05-.1.1v.06h-.54s-.02 0-.02-.02v-.04c0-.05-.04-.1-.1-.1-.04 0-.1.04-.1.1v.85h.2v-.58s0-.02.02-.02h.53s.02 0 .02.02v.58h.2V182.5c0-.06-.05-.1-.1-.1z" fill="#3e2d1b"/><path d="M194.56 189.2l.46.46-5.44 5.45-.47-.46 5.46-5.45z" fill="#412509"/><path d="M189.58 189.2l-.47.46 5.46 5.45.46-.46-5.44-5.45z" fill="#412509"/><path d="M194.56 184.22l.46.47-5.44 5.43-.47-.47 5.46-5.44z" fill="#412509"/><path d="M189.58 184.22l-.47.47 5.46 5.43.46-.47-5.44-5.44z" fill="#412509"/><path d="M175.1 186.78v-1.47h1.03v1.48h-1.03z" fill="#5d5d5d"/><path d="M175.1 185.3l.14-.58 1 .22-.14.6-1-.23z" fill="#5d5d5d"/><path d="M175.23 184.83l.08-.6 1.02.13-.08.6-1-.13z" fill="#5d5d5d"/><path d="M176.32 184.36h-1.02v-1.03h1.02v1.03z" fill="#5d5d5d"/><path d="M176.46 183.53h-1.37v-.45h1.36v.45z" fill="#5d5d5d"/><path d="M176.15 182.7c.1.07.28 0 .37-.18.05-.08.07-.17.07-.25.13.02.3-.1.4-.28.13-.22.13-.45.02-.54.15-.25.1-.56-.15-.73-.24-.17-.57-.1-.74.13-.05.08-.08.17-.1.26-.2 0-.43.1-.56.28-.16.24-.15.54 0 .76l-.1.1c-.14.2-.1.5.1.63s.48.08.62-.12l.05-.08z" fill="#4b4848" fill-opacity=".41"/><path d="M177.12 180.46c0 .04.03.08.05.1.1.2.26.3.34.24.08-.03.1-.14.05-.26.06.04.1.05.15.02.03 0 .04-.05.05-.1.1.15.26.23.35.18.1-.06.1-.28-.04-.5-.03-.06-.07-.1-.12-.16v-.04c-.04-.07-.15-.07-.24-.02 0 0-.02 0-.03.02-.07-.03-.17-.02-.27.03-.12.07-.2.2-.15.28-.02 0-.03 0-.05.02-.08.05-.12.13-.1.18h.02z" fill="#4b4848" fill-opacity=".28"/><path d="M199.13 154.6h-1.5l.65-6.6c.02-.24.16-.24.2 0l.65 6.6z" fill="#503d28"/><path d="M198.73 150.05l.9 1.2-1.02-3.42.83 1.1-1.05-3.52-1.05 3.52.82-1.1-1.03 3.42.9-1.2-1.06 3.58 1.42-1.87 1.42 1.87z" fill="#315730"/><path d="M199.92 152.7l-.92-2.54h.58l-.77-2.13h.53l-.95-2.62-.96 2.63h.53l-.77 2.13h.58l-.92 2.53z" fill="#315730"/><path d="M111.34 173.04h1.5l-.65-6.6c-.03-.23-.17-.23-.2 0l-.66 6.6z" fill="#503d28"/><path d="M111.75 168.5l-.9 1.2 1-3.42-.8 1.1 1.05-3.52 1.05 3.5-.82-1.08 1.02 3.4-.9-1.18 1.06 3.57-1.4-1.87-1.42 1.87z" fill="#315730"/><path d="M110.56 171.14l.92-2.53h-.58l.77-2.12h-.53l.96-2.62.95 2.62h-.53l.78 2.13h-.58l.92 2.54z" fill="#315730"/><path d="M106.14 175.17h1.5l-.65-6.6c-.03-.23-.17-.23-.2 0l-.66 6.6z" fill="#503d28"/><path d="M106.55 170.63l-.9 1.2 1-3.42-.8 1.1 1.05-3.52 1.05 3.5-.82-1.07 1.03 3.42-.9-1.2 1.05 3.57-1.4-1.87-1.42 1.86z" fill="#315730"/><path d="M105.36 173.27l.92-2.53h-.58l.77-2.13h-.53l.96-2.62.95 2.63h-.53l.78 2.14h-.58l.92 2.53z" fill="#315730"/><path d="M102.26 169.9h1.5l-.65-6.6c0-.23-.15-.23-.18 0l-.66 6.6z" fill="#503d28"/><path d="M102.66 165.37l-.9 1.2 1.02-3.43-.82 1.1 1.05-3.52 1.06 3.5-.82-1.08 1.03 3.42-.9-1.2 1.06 3.57-1.42-1.87-1.4 1.87z" fill="#315730"/><path d="M101.47 168l.92-2.52h-.6l.78-2.14h-.52l.95-2.62.97 2.62h-.53l.77 2.14h-.57l.92 2.53z" fill="#315730"/><path d="M201.5 155.33H200l.65-6.6c.02-.23.16-.23.2 0l.65 6.6z" fill="#503d28"/><path d="M201.1 150.8l.9 1.18-1.02-3.4.82 1.07-1.05-3.5-1.05 3.5.8-1.08-1 3.4.9-1.18-1.07 3.55 1.42-1.86 1.4 1.85z" fill="#315730"/><path d="M202.3 153.43l-.93-2.53h.58l-.78-2.14h.53l-.95-2.62-.96 2.62h.52l-.78 2.14h.6l-.93 2.53z" fill="#315730"/><path d="M197.1 157.44h-1.52l.66-6.6c.02-.23.16-.23.2 0l.65 6.6z" fill="#503d28"/><path d="M196.68 152.9l.9 1.2-1-3.42.8 1.08-1.04-3.5-1.05 3.5.8-1.08-1.02 3.4.9-1.18-1.06 3.56 1.42-1.86 1.4 1.86z" fill="#315730"/><path d="M197.88 155.54l-.92-2.53h.58l-.78-2.13h.53l-.96-2.62-.96 2.62h.53l-.77 2.14h.6l-.93 2.54z" fill="#315730"/><path d="M189.4 160h-1.5l.65-6.58c.02-.24.16-.24.2 0l.65 6.6z" fill="#503d28"/><path d="M189 155.47l.9 1.2-1.02-3.42.82 1.1-1.05-3.52-1.05 3.5.8-1.08-1 3.4.9-1.18-1.07 3.57 1.42-1.87 1.4 1.87z" fill="#315730"/><path d="M190.2 158.1l-.93-2.52h.58l-.78-2.13h.53l-.95-2.62-.96 2.62h.52l-.78 2.13h.6l-.93 2.53z" fill="#315730"/><path d="M185.02 157.44h-1.5l.65-6.6c.02-.23.16-.23.2 0l.65 6.6z" fill="#503d28"/><path d="M184.62 152.9l.9 1.2-1.02-3.42.82 1.08-1.05-3.5-1.05 3.5.8-1.08-1 3.4.9-1.18-1.07 3.56 1.42-1.86 1.4 1.86z" fill="#315730"/><path d="M185.8 155.54l-.9-2.53h.57l-.78-2.13h.52l-.95-2.62-.96 2.62h.54l-.78 2.14h.6l-.93 2.54z" fill="#315730"/><path d="M182.8 162.3h-1.5l.66-6.58c.02-.24.16-.24.2 0l.65 6.6z" fill="#503d28"/><path d="M182.4 157.77l.9 1.2-1-3.42.8 1.08-1.05-3.5-1.05 3.5.82-1.08-1.02 3.4.9-1.18-1.06 3.56 1.4-1.86 1.43 1.86z" fill="#315730"/><path d="M183.6 160.4l-.92-2.52h.58l-.78-2.14h.53l-.94-2.62-.96 2.62h.53l-.78 2.14h.58l-.92 2.53z" fill="#315730"/><path d="M179.73 155.33h-1.5l.65-6.6c.02-.23.16-.23.2 0l.65 6.6z" fill="#503d28"/><path d="M179.32 150.8l.9 1.18-1-3.4.8 1.07-1.04-3.5-1.06 3.5.82-1.08-1.02 3.4.9-1.18-1.06 3.55 1.42-1.86 1.4 1.85z" fill="#315730"/><path d="M180.5 153.43l-.9-2.53h.58l-.78-2.14h.53l-.95-2.62-.96 2.62h.53l-.78 2.14h.6l-.94 2.53z" fill="#315730"/><path d="M178.4 160h-1.52l.66-6.58c.02-.24.16-.24.2 0l.65 6.6z" fill="#503d28"/><path d="M177.98 155.47l.9 1.2-1-3.42.8 1.1-1.04-3.52-1.06 3.5.82-1.08-1.02 3.4.9-1.18-1.06 3.57 1.42-1.87 1.4 1.87z" fill="#315730"/><path d="M179.17 158.1l-.9-2.52h.57l-.78-2.13h.53l-.96-2.62-.96 2.62h.53l-.77 2.13h.6l-.94 2.53z" fill="#315730"/><path d="M171.08 162.3h-1.5l.65-6.58c.02-.24.16-.24.2 0l.65 6.6z" fill="#503d28"/><path d="M170.67 157.77l.9 1.2-1-3.42.8 1.08-1.04-3.5-1.05 3.5.8-1.08-1 3.4.9-1.18-1.07 3.56 1.43-1.86 1.4 1.86z" fill="#315730"/><path d="M171.87 160.4l-.92-2.52h.58l-.78-2.14h.53l-.95-2.62-.96 2.62h.53l-.78 2.14h.6l-.93 2.53z" fill="#315730"/><path d="M168 166.63h-1.5l.65-6.6c.02-.24.16-.24.2 0l.65 6.6z" fill="#503d28"/><path d="M167.6 162.1l.9 1.18-1.02-3.4.82 1.07-1.05-3.5-1.05 3.5.8-1.08-1 3.4.9-1.18-1.07 3.55 1.42-1.87 1.4 1.87z" fill="#315730"/><path d="M168.8 164.73l-.93-2.53h.58l-.78-2.14h.53l-.95-2.62-.96 2.62h.52l-.78 2.14h.6l-.93 2.53z" fill="#315730"/><path d="M161.6 165.98h-1.5l.66-6.6c.02-.23.15-.23.18 0l.67 6.6z" fill="#503d28"/><path d="M161.2 161.44l.9 1.2-1.02-3.42.82 1.08-1.05-3.5-1.05 3.5.82-1.08-1.03 3.4.9-1.18-1.07 3.57 1.42-1.86 1.42 1.87z" fill="#315730"/><path d="M162.4 164.08l-.93-2.53h.58l-.77-2.13h.52l-.95-2.63-.96 2.62h.52l-.77 2.13h.58l-.92 2.53z" fill="#315730"/><path d="M157 162.3h-1.52l.66-6.58c.02-.24.16-.24.2 0l.65 6.6z" fill="#503d28"/><path d="M156.58 157.77l.9 1.2-1-3.42.8 1.08-1.04-3.5-1.06 3.5.82-1.08-1.02 3.4.9-1.18-1.06 3.56 1.42-1.86 1.4 1.86z" fill="#315730"/><path d="M157.77 160.4l-.9-2.52h.57l-.78-2.14h.53l-.96-2.62-.96 2.62h.53l-.77 2.14h.6l-.94 2.53z" fill="#315730"/><path d="M152.4 168.6h1.5l-.65-6.6c-.02-.23-.16-.23-.2 0l-.65 6.6z" fill="#503d28"/><path d="M152.8 164.07l-.9 1.2 1.02-3.43-.8 1.1 1.03-3.52 1.05 3.5-.8-1.08 1 3.42-.9-1.2 1.07 3.57-1.42-1.87-1.4 1.87z" fill="#315730"/><path d="M151.62 166.7l.9-2.52h-.57l.78-2.14h-.53l.95-2.62.96 2.62h-.52l.78 2.14h-.6l.93 2.53z" fill="#315730"/><path d="M149.25 160.72h1.5l-.65-6.6c-.02-.23-.16-.23-.2 0l-.65 6.6z" fill="#503d28"/><path d="M149.65 156.18l-.9 1.2 1.02-3.42-.82 1.08 1.05-3.5 1.05 3.5-.82-1.08 1.03 3.4-.9-1.18 1.06 3.56-1.42-1.87-1.42 1.87z" fill="#315730"/><path d="M148.46 158.82l.92-2.53h-.58l.77-2.15h-.52l.95-2.62.96 2.62h-.53l.77 2.14h-.58l.92 2.52z" fill="#315730"/><path d="M146.85 169.2h1.5l-.65-6.6c-.02-.23-.16-.23-.2 0l-.65 6.6z" fill="#503d28"/><path d="M147.25 164.66l-.9 1.2 1.02-3.42-.82 1.08 1.05-3.5 1.05 3.5-.8-1.08 1 3.4-.9-1.18 1.07 3.56-1.42-1.86-1.4 1.86z" fill="#315730"/><path d="M146.06 167.3l.92-2.53h-.58l.78-2.13h-.53l.95-2.63.96 2.64h-.53l.78 2.13h-.58l.92 2.53z" fill="#315730"/><path d="M142.9 167.23h1.5l-.66-6.6c-.02-.24-.16-.24-.2 0l-.65 6.6z" fill="#503d28"/><path d="M143.3 162.68l-.9 1.2 1-3.42-.8 1.1 1.04-3.52 1.05 3.5-.82-1.08 1.02 3.4-.9-1.18 1.06 3.57-1.42-1.87-1.4 1.87z" fill="#315730"/><path d="M142.1 165.33l.92-2.54h-.58l.78-2.14h-.53l.94-2.62.96 2.62h-.53l.78 2.13h-.6l.93 2.53z" fill="#315730"/><path d="M164.15 159.42h-1.5l.65-6.6c.02-.24.16-.24.2 0l.65 6.6z" fill="#503d28"/><path d="M163.75 154.88l.9 1.2-1.02-3.42.82 1.08-1.05-3.5-1.05 3.5.8-1.08-1 3.4.9-1.18-1.07 3.56 1.42-1.87 1.4 1.87z" fill="#315730"/><path d="M164.94 157.52l-.92-2.53h.58l-.78-2.15h.53l-.95-2.62-.96 2.62h.53l-.78 2.14h.58l-.92 2.52z" fill="#315730"/><path d="M205.2 156.46h-1.5l.66-6.6c.02-.23.16-.23.2 0l.65 6.6z" fill="#503d28"/><path d="M204.8 151.92l.9 1.2-1-3.42.8 1.08-1.04-3.5-1.05 3.5.82-1.08-1.02 3.4.9-1.18-1.06 3.56 1.42-1.86 1.4 1.86z" fill="#315730"/><path d="M206 154.56l-.92-2.53h.58l-.78-2.13h.53l-.94-2.63-.96 2.63h.53l-.78 2.13h.6l-.93 2.53z" fill="#315730"/><path d="M174.85 164.52h-1.5l.65-6.6c.02-.23.16-.23.2 0l.65 6.6z" fill="#503d28"/><path d="M174.45 159.98l.9 1.2-1.02-3.42.82 1.08-1.05-3.5-1.05 3.5.8-1.08-1 3.4.9-1.18-1.07 3.56 1.42-1.86 1.4 1.86z" fill="#315730"/><path d="M175.64 162.62l-.92-2.53h.58l-.77-2.15h.52l-.95-2.62-.96 2.62h.53l-.78 2.14h.58l-.92 2.52z" fill="#315730"/><path d="M192.48 155.33h-1.5l.65-6.6c.02-.23.16-.23.2 0l.65 6.6z" fill="#503d28"/><path d="M192.08 150.8l.9 1.18-1.02-3.4.82 1.07-1.05-3.5-1.05 3.5.8-1.08-1 3.4.9-1.18-1.07 3.55 1.43-1.86 1.4 1.85z" fill="#315730"/><path d="M193.27 153.43l-.92-2.53h.58l-.78-2.14h.53l-.95-2.62-.96 2.62h.53l-.78 2.14h.6l-.93 2.53z" fill="#315730"/><path d="M140.42 171.5h-1.5l.65-6.6c.02-.23.16-.23.2 0l.65 6.6z" fill="#503d28"/><path d="M140 166.96l.92 1.2-1.02-3.42.8 1.08-1.04-3.5-1.05 3.5.83-1.08-1.02 3.4.9-1.18-1.05 3.56 1.4-1.86 1.43 1.86z" fill="#315730"/><path d="M141.2 169.6l-.9-2.53h.56l-.77-2.14h.52l-.96-2.62-.95 2.63h.54l-.78 2.14h.58l-.92 2.53z" fill="#315730"/><path d="M136.16 165.98h-1.5l.65-6.6c.03-.23.17-.23.2 0l.66 6.6z" fill="#503d28"/><path d="M135.76 161.44l.9 1.2-1.02-3.42.82 1.08-1.05-3.5-1.04 3.5.8-1.08-1 3.4.9-1.18L134 165l1.4-1.86 1.42 1.87z" fill="#315730"/><path d="M136.95 164.08l-.92-2.53h.58l-.77-2.13h.53l-.95-2.63-.95 2.62h.53l-.78 2.13h.6l-.93 2.53z" fill="#315730"/><path d="M133.08 173.04h-1.5l.65-6.6c.02-.23.16-.23.2 0l.65 6.6z" fill="#503d28"/><path d="M132.68 168.5l.9 1.2-1.02-3.42.82 1.1-1.05-3.52-1.05 3.5.8-1.08-1 3.4.9-1.18-1.07 3.57 1.43-1.87 1.4 1.87z" fill="#315730"/><path d="M133.87 171.14l-.92-2.53h.58l-.78-2.12h.53l-.95-2.62-.96 2.62h.53l-.78 2.13h.6l-.93 2.54z" fill="#315730"/><path d="M130 169.9h-1.5l.65-6.6c.02-.23.16-.23.2 0l.65 6.6z" fill="#503d28"/><path d="M129.6 165.37l.9 1.2-1.02-3.43.82 1.1-1.05-3.52-1.05 3.5.8-1.08-1 3.42.9-1.2-1.07 3.57 1.42-1.87 1.4 1.87z" fill="#315730"/><path d="M130.8 168l-.93-2.52h.58l-.77-2.14h.52l-.95-2.62-.96 2.62h.52l-.78 2.14h.6l-.93 2.53z" fill="#315730"/><path d="M124.47 174.55h1.5l-.65-6.6c-.02-.23-.16-.23-.2 0l-.65 6.6z" fill="#503d28"/><path d="M124.88 170l-.9 1.2 1-3.4-.8 1.07 1.04-3.5 1.05 3.5-.8-1.08 1 3.4-.9-1.2 1.07 3.57-1.42-1.86-1.4 1.87z" fill="#315730"/><path d="M123.7 172.65l.9-2.53h-.58l.78-2.14h-.53l.95-2.62.96 2.62h-.53l.78 2.14h-.6l.93 2.53z" fill="#315730"/><path d="M122.46 165.36h1.5l-.65-6.6c0-.23-.15-.23-.18 0l-.66 6.6z" fill="#503d28"/><path d="M122.87 160.82l-.9 1.2 1-3.42-.8 1.08 1.04-3.5 1.06 3.5-.8-1.08 1 3.4-.9-1.18 1.07 3.56-1.42-1.86-1.4 1.86z" fill="#315730"/><path d="M121.68 163.46l.9-2.53h-.57l.8-2.13h-.54l.95-2.63.97 2.63h-.53l.78 2.13h-.6l.93 2.53z" fill="#315730"/><path d="M119.38 176.4h1.5l-.65-6.58c-.02-.24-.16-.24-.2 0l-.65 6.6z" fill="#503d28"/><path d="M119.8 171.87l-.92 1.2 1.02-3.42-.8 1.08 1.03-3.5 1.06 3.5-.83-1.08 1.02 3.4-.92-1.18 1.07 3.57-1.42-1.87-1.4 1.87z" fill="#315730"/><path d="M118.6 174.5l.9-2.52h-.57l.78-2.13h-.52l.95-2.62.96 2.62h-.54l.78 2.13h-.6l.94 2.53z" fill="#315730"/><path d="M114.66 171.5h1.5l-.65-6.6c0-.23-.15-.23-.18 0l-.66 6.6z" fill="#503d28"/><path d="M115.06 166.96l-.9 1.2 1.02-3.42-.82 1.08 1.05-3.5 1.06 3.5-.8-1.08 1 3.4-.9-1.18 1.07 3.56-1.42-1.86-1.4 1.86z" fill="#315730"/><path d="M113.87 169.6l.92-2.53h-.6l.8-2.14h-.54l.95-2.62.97 2.63h-.53l.78 2.14h-.6l.93 2.53z" fill="#315730"/><path d="M300.1 246.17V227.2c-18.43-5.45-39.52-9.02-61.74-9.9-34.93-1.36-66.57 3.64-90.9 13.46 23.3 11.27 54.85 19.14 89.57 20.5 22.68.9 44.13-.98 63.06-5.1z" fill="#6ecc44"/><path d="M109.73 242.73l-1.28-10.95 54.92-6.42 1.28 10.95-54.92 6.43z" fill="#6ecc44"/><path d="M233.26 159.43l-.52-8.6 9.8-.58.52 8.6-9.8.58z" fill="#3373a5" fill-opacity=".99"/><path d="M232.7 150.23h9.75l-9.7.68z" fill="#3373a5"/><path d="M0 186.7v69.72l43.31 3.5 5.6-69.3L0 186.7z" fill="#8ac04c"/><path d="M300.1 300H0v-69.5h300.1V300z" fill="#6ecc44"/></svg>