<svg xmlns="http://www.w3.org/2000/svg" width="300" height="300"><path fill="#c4ecff" d="M0 0h300v300H0z"/><path d="M56.8 48.3c0 10-8 18-18 18.2-10 0-18-8-18.2-18 0-10 8-18.2 18-18.2s18 8 18.2 18z" fill="#ffd806"/><path d="M78.4 55c0 21.7-17.5 39.2-39.2 39.2C17.6 94.2 0 76.7 0 55c0-21.6 17.6-39.2 39.2-39.2C61 15.8 78.4 33.4 78.4 55z" fill="#ffd806"/><path d="M55 48.4c.7 9-6 16.8-15 17.5-9 .6-16.7-6-17.4-15-.7-9 6-17 15-17.6 9-.7 16.7 6 17.4 15z" fill="#fafafa"/><path d="M268 174.6c0-17.4-50.6-31.5-113.2-31.5-62.5 0-113.2 14.2-113.2 31.6H268z" fill="#fbfbfb"/><path d="M0 300.3v-131h300v131H0z" fill="#fafafa"/><path d="M300 162.5l-112.3 12H300z" fill="#fafafa"/><path d="M208.5 145c0 1-.7 2-1.5 2s-1.5-1-1.5-2 .7-2 1.5-2 1.5 1 1.5 2zM271 77c0 1.2-.6 2-1.4 2-1 0-1.5-.8-1.5-2 0-1 .7-1.8 1.6-1.8.8 0 1.4 1 1.4 2zM59.7 170.7c0 1-.6 2-1.4 2-.8 0-1.5-1-1.5-2s.7-2 1.5-2 1.4 1 1.4 2zm121-78.4c0 1-.7 2-1.5 2s-1.4-1-1.4-2 .6-2 1.4-2c.8 0 1.5 1 1.5 2zm-96.4 3.9c0 1-.6 2-1.5 2-.8 0-1.4-1-1.4-2s.6-2 1.4-2c1 0 1.5 1 1.5 2zM268 24.4c0 1-.6 2-1.4 2-.8 0-1.4-1-1.4-2s.6-2 1.4-2c.8 0 1.5 1 1.5 2zM113.4 64c0 1-.7 2-1.5 2-1 0-1.5-1-1.5-2s.6-2 1.4-2c.7 0 1.4 1 1.4 2zM41.6 14c0 1-.7 1.8-1.5 1.8-.7 0-1.3-1-1.3-2s.6-2 1.4-2c1 0 1.6 1 1.6 2zm129.6 163.4c-.5 1-1.5 1.4-2.2 1-.7-.4-1-1.5-.3-2.4.5-1 1.5-1.4 2.2-1 .6.4.7 1.5.2 2.4zM233 251c0 1.2-.7 2-1.5 2s-1.5-.8-1.5-2c0-1 .7-1.8 1.5-1.8s1.4.8 1.4 2zm-42.3-52.5c0 1-.7 2-1.5 2s-1.5-1-1.5-2 .7-2 1.5-2 1.5 1 1.5 2zm74.5-23.9c0 1-.7 2-1.5 2s-1.5-1-1.5-2 .7-2 1.5-2 1.5 1 1.5 2z" fill="#fbfbfb"/><path d="M131.3 195.2c-.3.3-.3.8 0 1.2.4.3 1 .3 1.2 0l.5-.5c.4-.5 1-.5 1.5 0 .4.3.4 1 0 1.4l-1.3 1.3c-.4.4-.4 1 0 1.4.4.5 1 .5 1.5 0l2-2h.6c.2.3.2.6 0 .7l-.3.4c-.2.2-.2.5 0 .7h.6l4.2-4.3c.2 0 .2-.4 0-.6 0-.2-.4-.2-.6 0l-.7.8h-.6c-.3-.2-.3-.5 0-.6l1.3-1.5c.8-.8.8-2 0-3-.8-.8-2-.8-3 0v.2h-.7v-.7l.4-.3v-.6h-.6l-6 6.2zm10.1-11.2c-.4 0-.5.6-.3 1 .3.5 1 .6 1.3.4l.6-.4c.4-.3 1 0 1.3.4.3.5 0 1.2-.4 1.4l-1.7 1c-.5.2-.6 1-.3 1.4.2.5 1 .6 1.4.4l2.4-1.5c.2 0 .5 0 .6.3v.6h-.5c-.3.2-.4.5-.3.7 0 .2.4.3.6.2l5.2-3c.2-.3.3-.5.2-.7-.2-.2-.4-.3-.6-.2l-.8.6c-.2.2-.5 0-.6 0v-.7l2-1c1-.7 1.3-2 .7-3-.6-1-2-1.3-3-.7h-.6c0-.3 0-.6.2-.7l.2-.2c.3-.2.3-.4.2-.6 0-.2-.4-.3-.6-.2l-7.4 4.3zm10.9 2.8c-.4.2-.6.8-.3 1.2.2.4.7.5 1.2.3l.5-.4c.5-.3 1.2-.2 1.5.3.3.5 0 1.2-.4 1.5l-1.6 1c-.5.2-.7.8-.4 1.3.3.6 1 .8 1.5.5l2.4-1.4c.2 0 .5 0 .6.2 0 .2 0 .5-.2.6l-.3.2c-.2 0-.2.4 0 .6 0 .2.3.3.5.2l5.2-3c.2-.2.3-.4 0-.6 0-.2-.2-.3-.4-.2l-1 .6c-.2 0-.4 0-.6-.2 0-.2 0-.5.2-.6l1.8-1c1-.6 1.3-2 .7-3-.4-1-1.7-1.2-2.7-.6-.3.2-.6 0-.7 0v-.7l.5-.2c.3 0 .4-.4.3-.6 0-.2-.4-.3-.6-.2l-7.4 4.3zm-10.9 11c-.4.4-.4 1 0 1.3.3.4.8.4 1.2 0l.5-.4c.5-.4 1-.4 1.5 0 .4.4.4 1 0 1.5l-1.2 1.3c-.5.5-.5 1 0 1.5.4.4 1 .4 1.4 0l2-2h.6c.2.2.2.5 0 .6l-.3.4c-.2 0-.2.4 0 .6h.6l4.3-4.3v-.5c-.3-.2-.6-.2-.7 0l-.8.7c0 .2-.4.2-.6 0-.3 0-.3-.4 0-.6l1.4-1.4c.8-.8.8-2 0-3-1-.8-2.2-.8-3 0-.3.3-.5.3-.7 0-.2 0-.2-.3 0-.5l.3-.3c.2-.2.2-.4 0-.6-.2-.2-.4-.2-.6 0l-6 6zm12.6-26.4c-.3.2-.5.8-.2 1.2.2.4.7.5 1 .3l.7-.4c.5-.3 1.2-.2 1.5.3.2.4 0 1-.4 1.4l-1.6 1c-.5.2-.7.8-.4 1.3.3.5 1 .7 1.4.4l2.5-1.3c.2-.2.5 0 .6 0 .2.3 0 .6 0 .7l-.5.2c-.2.2-.2.4 0 .6 0 .2.3.3.5.2l5.2-3c.2 0 .2-.4 0-.6 0-.2-.3-.3-.5-.2l-1 .6s-.3 0-.5-.2c0-.2 0-.5.2-.6l1.8-1c1-.6 1.3-2 .7-3-.6-1-2-1.2-3-.6-.3.2-.5 0-.6 0-.2-.3 0-.6 0-.7h.5c0-.2.2-.5 0-.7 0-.2-.3-.3-.5-.2l-7.4 4.4zm10 5.6c-.6.3-.7.8-.5 1.2.3.4.8.6 1.2.3l.6-.3c.5-.3 1 0 1.4.4.3.5 0 1-.4 1.4l-1.5 1c-.5.2-.7.8-.4 1.3.3.5 1 .7 1.4.4l2.5-1.4c.2 0 .4 0 .6.2 0 .2 0 .4-.3.6l-.4.3c-.2 0-.3.4 0 .6h.4l5.2-3s.2-.4 0-.6c0-.2-.3-.2-.5 0l-1 .4s-.4 0-.5-.2c0-.2 0-.4.2-.5l1.7-1c1-.5 1.3-1.8.7-2.8-.6-1-1.8-1.4-2.8-.8h-.3c-.2.2-.4 0-.6 0 0-.3 0-.5.3-.7l.4-.2c.2 0 .3-.4 0-.6 0-.3-.2-.3-.4-.2l-7 4.2zm2.8-14c-.5.3-.8.7-.6 1.2 0 .4.5.7 1 .6l.7-.2c.4 0 1 .2 1 .8.3.5 0 1-.6 1.2l-1.8.5c-.5.3-.8.8-.7 1.4 0 .5.6 1 1.2.7l2.7-.6c.2 0 .4 0 .5.3 0 .2 0 .5-.4.5h-.3c-.2.2-.4.4-.3.7l.5.2 5.7-1.6c.3 0 .4-.3.3-.5 0 0-.3-.3-.5-.2l-1 .3c-.2 0-.5 0-.5-.3 0-.2 0-.4.3-.5l2-.5c1-.3 1.7-1.5 1.4-2.6-.3-1-1.4-1.6-2.5-1.3h-.2c-.2 0-.5 0-.5-.3 0-.2 0-.5.3-.5l.4-.3c.3 0 .4-.2.3-.5 0-.2-.3-.3-.5-.3l-8.2 2zm9.4 5.6c-.5 0-.8.6-.6 1 0 .5.6.7 1 .6l.7-.2c.5 0 1 .2 1.3.8 0 .5-.2 1-.8 1.3l-1.7.5c-.5.2-.8.8-.7 1.3.2.6.7 1 1.3.8l2.7-.8c.3 0 .5 0 .6.3 0 .4-.2.6-.4.7h-.5l-.2.6c0 .2.3.4.5.3l5.8-1.6c.4 0 .5-.3.4-.5 0-.2-.2-.3-.5-.3l-1 .3c-.3 0-.6 0-.6-.3 0-.2 0-.5.3-.5l2-.6c1-.2 1.7-1.3 1.4-2.4-.2-1-1.3-1.8-2.4-1.5h-.2c-.2.2-.4 0-.5-.2-.2-.2 0-.4.2-.5h.4c.3-.2.4-.4.4-.6 0-.3-.3-.4-.6-.3l-8.2 2.2zm3-10.6c-.5.2-.6.8-.4 1.2.3.4.8.5 1.2.3l.6-.3c.5-.3 1-.2 1.4.3.3.5 0 1.2-.4 1.5l-1.5 1c-.4.2-.6.8-.3 1.3s1 .7 1.4.4l2.6-1.4h.6c0 .3 0 .6-.2.7l-.4.2c-.2.2-.3.4 0 .6 0 .2.2.3.4.2l5.2-3c.2 0 .3-.4.2-.6 0-.2-.4-.3-.6-.2l-1 .6s-.4 0-.5-.2c0-.2 0-.5.2-.6l1.7-1c1-.6 1.4-2 .8-3-.6-1-1.8-1.2-2.8-.6h-.2c-.2.2-.4 0-.6 0 0-.3 0-.6.2-.7l.4-.2c.2 0 .3-.4 0-.6 0-.3-.2-.4-.4-.3l-7.4 4.3zm9 5.2c-.5.2-.6.8-.4 1.2.3.4.8.5 1.2.3l.6-.3c.5-.3 1-.2 1.4.3.3.5 0 1.2-.4 1.5l-1.5 1c-.4.2-.6.8-.3 1.3s1 .7 1.4.4l2.6-1.5c.2-.2.4 0 .6 0 0 .3 0 .6-.2.7l-.4.2c-.2.2-.3.4 0 .6 0 .2.2.3.4.2l5.2-3c.2 0 .3-.4.2-.6 0-.2-.4-.3-.6-.2l-1 .6s-.4 0-.5-.2c0-.2 0-.5.2-.6l1.7-1c1-.6 1.4-2 .8-3-.6-1-1.8-1.2-2.8-.6h-.2c-.2.2-.4 0-.6 0 0-.3 0-.6.2-.7l.4-.3c.2 0 .3-.4 0-.6 0 0-.2-.2-.4 0l-7.4 4.2zm12.4-7.7c-.5 0-.7.6-.6 1 0 .5.6.8 1 .7l.7-.2c.6-.2 1 .2 1.3.7 0 .6-.2 1.2-.8 1.3l-1.7.5c-.6 0-1 .7-.8 1.3.2.5.8.8 1.3.7l2.8-.7c.2 0 .4 0 .5.3 0 .3 0 .5-.3.6h-.5l-.3.6c0 .3.3.4.6.3l5.8-1.5c.2 0 .3-.3.3-.5-.2-.3-.4-.4-.7-.3l-1 .2c-.2 0-.4 0-.5-.3 0 0 0-.3.3-.4l2-.5c1.2-.2 2-1.4 1.6-2.5-.3-1-1.5-1.8-2.6-1.5-.4 0-.6 0-.7-.2 0-.3 0-.5.3-.6h.5c.3 0 .4-.4.4-.6 0-.2-.3-.4-.6-.3l-8.2 2.2zm-9.1-6c-.5 0-.8.6-.6 1 0 .5.5.8 1 .7l.6-.2c.5 0 1 .2 1.3.7 0 .6-.3 1.2-1 1.3l-1.6.5c-.6 0-1 .7-.8 1.3.2.5.7 1 1.3.7l2.6-.7c.3 0 .5 0 .6.3 0 .3 0 .6-.3.6h-.6c-.2.2-.3.4-.3.7l.6.3 5.8-1.6c.3 0 .4-.3.3-.5 0-.2-.2-.4-.5-.3l-1 .2c-.2 0-.5 0-.5-.3 0 0 0-.3.3-.4l2-.5c1-.2 1.7-1.4 1.4-2.5-.3-1-1.4-1.7-2.5-1.4h-.3c-.2.2-.4 0-.5-.2 0-.2 0-.5.3-.5l.4-.2c.2 0 .3-.2.3-.4s-.3-.3-.6-.3L191 150z" fill="#dedede"/><path d="M118.2 242.4c.2 1-.4 2-1.2 2-.8.2-1.5-.6-1.7-1.7 0-1 .5-2 1.3-2 .8-.2 1.5.6 1.6 1.7z" fill="#fbfbfb"/><path d="M90 273.3c-.2.4 0 1 .5 1 .4.3 1 0 1-.4l.4-.7c0-.5.7-.8 1.2-.5.6.2.8.8.6 1.4l-.8 1.6c-.2.5 0 1.2.6 1.4.5.2 1 0 1.4-.6l1-2.5c.2-.2.4-.3.7-.2.2 0 .3.4.2.6l-.3.4c0 .2 0 .5.2.6 0 0 .4 0 .5-.2l2.4-5.6c0-.2 0-.4-.3-.5-.3 0-.5 0-.6.3l-.3 1c0 .2-.4.3-.6.2 0 0-.2-.4 0-.6l.7-2c.5-1 0-2.2-1-2.7s-2.4 0-2.8 1l-.2.2c0 .2-.3.3-.6.2-.2 0-.3-.3-.2-.5l.2-.4c0-.3 0-.5-.2-.6-.2 0-.5 0-.6.2l-3.4 8zm5.3-14.3c-.3.4-.3 1 0 1.3.5.3 1 .2 1.3-.2l.4-.4c.4-.4 1-.5 1.5-.2.5.4.5 1 .2 1.5l-1.2 1.3c-.3.5-.2 1 .2 1.5.5.4 1 .3 1.5-.2l1.7-2.2c0-.2.4-.2.6 0 0 0 .2.4 0 .5l-.3.3v.6c.3 0 .6 0 .7-.2l3.7-4.7c.2 0 .2-.3 0-.5h-.6l-.6 1h-.6c-.2-.2-.2-.4 0-.6l1.2-1.7c.7-1 .6-2.2-.3-3-1-.7-2.2-.5-3 .4-.2.3-.5.3-.6.2 0-.3-.2-.5 0-.7l.3-.4v-.7h-.7l-5.3 6.8zm11.2-1.2c-.3.4-.3 1 0 1.2.5.3 1 .2 1.3 0l.4-.7c.4-.4 1-.5 1.5 0 .4.2.5 1 .2 1.3l-1.3 1.5c-.3.5-.3 1.2.2 1.5.4.4 1 .3 1.4 0l1.7-2.4h.7c.2.2.3.5 0 .7l-.2.3v.6c.3.2.5.2.7 0l3.7-4.7v-.7c-.3-.2-.6-.2-.7 0l-.7 1h-.6c-.2-.2-.2-.5 0-.7l1.2-1.6c.7-1 .6-2.2-.3-3-1-.6-2.3-.5-3 .4h-.2c0 .3-.4.4-.6.2 0 0-.2-.4 0-.6l.3-.4v-.6h-.7l-5.3 6.8zm-6.2 14.2c-.2.5 0 1 .5 1.2.4.2 1 0 1-.4l.4-.7c.2-.4.8-.6 1.4-.4.5.2.7.8.5 1.4l-.6 1.6c-.3.6 0 1.2.5 1.4.4.2 1 0 1.3-.5l1-2.6c.2-.3.5-.4.7-.3.2 0 .3.3.2.5l-.2.4c0 .3 0 .5.2.6.3 0 .5 0 .6-.2l2.4-5.5c0-.2 0-.5-.2-.6-.2-.2-.5 0-.6 0l-.4 1c0 .3-.3.4-.6.3-.2 0-.3-.3-.2-.5l.8-2c.5-1 0-2.2-1-2.7-1-.3-2.3.2-2.8 1.2v.2c-.2.2-.4.3-.6.2-.2 0-.3-.4-.2-.6v-.4c.2-.2 0-.5 0-.6-.3 0-.6 0-.7.2l-3.4 8zm.7-24.3c-.3.5 0 1 .4 1.2.4 0 1-.2 1-.6l.4-.6c.2-.5.8-.8 1.3-.6.7.3 1 1 .7 1.4l-.8 1.7c-.3.5 0 1 .5 1.4.5.2 1 0 1.4-.6l1-2.5c0-.2.3-.3.6-.2.2 0 .3.3.2.6l-.2.3c0 .2 0 .5.2.5s.5 0 .6-.2l2.4-5.5s0-.4-.2-.5c-.3 0-.5 0-.6.3l-.4 1c0 .2-.4.3-.6.2-.2 0-.3-.4-.2-.6l.8-2c.5-1 0-2.2-1-2.6-1-.5-2.4 0-2.8 1v.2c-.2.2-.4.3-.7.2 0 0-.2-.3 0-.5v-.5c.2-.2 0-.4 0-.5-.3 0-.6 0-.7.2l-3.4 7.7zm11-1.3c0 .5 0 1 .6 1.2.4.2 1 0 1-.5l.4-.5c.2-.5.8-.8 1.3-.5.6.2.8.8.6 1.3l-.8 1.7c-.3.5 0 1.2.5 1.4.5.2 1 0 1.4-.6l1.2-2.6c0-.2.4-.3.6-.2.2 0 .3.4.2.6l-.2.4c0 .2 0 .5.2.6.2 0 .5 0 .6-.2l2.4-5.6c0-.2 0-.4-.2-.5-.2 0-.5 0-.6.2l-.4 1c0 .2-.4.3-.6.2-.2 0-.3-.4-.2-.6l.8-1.8c.5-1 0-2.2-1-2.7s-2.4 0-2.8 1v.2c-.2.2-.4.3-.6.2-.3-.2-.4-.4-.3-.6l.3-.4c0-.3 0-.5-.2-.6 0 0-.4 0-.5.2l-3.4 7.8zm-5.8-12.9c-.3.4-.3 1 0 1.2.5.3 1 .3 1.3 0l.4-.6c.3-.4 1-.5 1.4 0 .5.3.5 1 .2 1.4l-1.2 1.4c-.3.4-.2 1 .2 1.5.5.3 1 .2 1.5-.2l1.8-2c.2-.3.5-.3.7-.2 0 .2.2.4 0 .6l-.3.4v.6h.7l3.6-4.8c.2-.2.2-.5 0-.6h-.6l-.7 1h-.6c-.2-.2-.2-.5 0-.6l1.2-1.6c.6-1 .5-2.3-.4-3-1-.7-2.2-.5-3 .4-.2.3-.5.3-.6 0-.2 0-.3-.3 0-.5l.2-.3v-.6c-.3-.2-.6 0-.7 0l-5.3 6.7zm10.8-1.2c-.3.4-.3 1 0 1.2.5.3 1 .2 1.3 0l.4-.7c.4-.4 1-.5 1.5 0 .5.2.5 1 .2 1.3l-1.2 1.6c-.3.4-.2 1 .2 1.4.5.4 1 .3 1.5 0l1.6-2.3c.2-.2.5-.3.7 0 0 0 .2.3 0 .5l-.3.3v.6c.3.3.6.3.7 0l3.8-4.6v-.6c-.3-.2-.6 0-.7 0l-.7 1h-.5c-.2-.2-.2-.5 0-.7l1.2-1.5c.7-1 .6-2.2-.3-3-1-.6-2.2-.5-3 .4-.2.2-.5.3-.6 0-.2 0-.3-.3 0-.5l.2-.3v-.6c-.3-.2-.6-.2-.7 0l-5.3 6.7zm-4-10.3c0 .5 0 1 .5 1.2.5.2 1 0 1.2-.5l.2-.6c.2-.4.8-.7 1.3-.4.6.2.8.8.6 1.3l-1 1.6c0 .5.2 1.2.7 1.4.5.2 1 0 1.4-.6l1.2-2.6c0-.2.3-.3.6-.2.2 0 .3.4.2.6l-.2.4c0 .2 0 .5.2.6.2 0 .5 0 .6-.3l2.4-5.6c0-.2 0-.4-.2-.5-.3-.2-.5 0-.6 0l-.4 1c0 .3-.4.4-.6.3-.2 0-.3-.4-.2-.6l.8-2c.5-1 0-2-1-2.6-1-.4-2.4 0-2.8 1.2-.2.3-.4.4-.7.3-.2 0-.3-.3-.2-.5l.3-.4c0-.3 0-.5-.2-.6 0 0-.4 0-.5.2L113 222zm10.4-1c-.2.3 0 .8.5 1 .3.2.8 0 1-.4l.3-.7c.2-.6.8-.8 1.3-.6.6.2.8.8.6 1.4l-.7 1.6c-.3.6 0 1.2.5 1.4.5.2 1.2 0 1.4-.5l1-2.6c.2-.2.5-.3.7-.3.3 0 .4.4.3.6l-.2.4c0 .2 0 .5.3.6.3 0 .5 0 .6-.2l2.3-5.5c0-.3 0-.5-.2-.6 0 0-.4 0-.5.2l-.4 1s-.3.2-.5 0c-.2 0-.3-.2-.2-.5l.8-1.8c.6-1 0-2.3-1-2.8s-2.2 0-2.7 1c-.2.4-.4.5-.6.4-.3 0-.4-.4-.3-.6l.2-.4c0-.2 0-.5-.2-.6-.2 0-.5 0-.6.2l-3.4 8zm8.9-14.6c-.4.3-.5.8-.3 1.2.2.4.8.5 1.2.3l.6-.4c.5-.3 1 0 1.4.4.3.5 0 1-.4 1.4l-1.6 1c-.5.2-.6.8-.4 1.3.3.5 1 .7 1.5.4l2.4-1.3h.6v.7l-.5.3c-.2 0-.3.3-.2.5 0 .2.4.3.6.2l5.2-3c.2 0 .3-.4.2-.6-.2-.2-.4-.3-.6-.2l-1 .6c-.2 0-.4 0-.5-.2-.2-.2 0-.4 0-.6l2-1c1-.6 1.2-1.8.7-2.8-.6-1-2-1.4-3-.8-.2.2-.5 0-.6 0v-.7h.5c.3-.2.4-.5.3-.7 0-.2-.4-.3-.6-.2l-7.4 4.4zM122 203c-.5.2-.6.8-.4 1.2.3.4.8.5 1.2.3l.6-.3c.5-.3 1-.2 1.4.3.3.5 0 1.2-.4 1.5l-1.5 1c-.6.2-.8.8-.5 1.3.3.5 1 .7 1.4.4l2.4-1.4h.6c0 .3 0 .6-.2.7l-.4.2c-.2.2-.3.4-.2.6.2.2.4.3.6.2l5.2-3c.2 0 .3-.4.2-.6 0-.2-.4-.3-.6-.2l-1 .6s-.4 0-.5-.2c0-.2 0-.5.3-.6l1.7-1c1-.6 1.4-2 .8-3-.6-1-2-1.2-3-.6-.2.2-.5 0-.6 0 0-.3 0-.6.2-.7l.4-.2c.2 0 .3-.4 0-.6 0-.3-.2-.4-.5-.3L122 203z" fill="#dedede"/><path d="M101.4 321.6c.5 1 .4 2-.3 2.4-.6.4-1.6 0-2-1-.7-1-.5-2 .2-2.3.7-.4 1.7 0 2.2 1z" fill="#fbfbfb"/><path d="M87.8 361.2c0 .4.4.8 1 .8.4 0 .7-.4.7-.8v-.7c0-.6.5-1 1-1 .7 0 1 .4 1 1v1.8c0 .6.6 1 1.2 1s1-.4 1-1v-2.8c0-.3.2-.5.5-.5.2 0 .4.2.4.5v.4c0 .2.2.4.4.4s.4-.2.4-.5v-6c0-.3-.2-.5-.4-.5s-.4.2-.4.4v1c0 .2-.2.4-.4.4-.3 0-.5-.2-.5-.4v-2c0-1.2-1-2.2-2-2.2-1.2 0-2.2 1-2.2 2v.3c0 .3 0 .5-.4.5 0 0-.3-.2-.3-.4v-.4c0-.2-.2-.4-.4-.4-.3 0-.5.2-.5.4v8.6zM87 346c0 .5 0 1 .6 1 .5.2 1 0 1-.5l.2-.7c.2-.5.7-.8 1.3-.7.7.3 1 .8.8 1.4l-.4 1.7c-.2.7.2 1.3.7 1.4.7.2 1.2-.2 1.4-.7l.7-2.8c.2-.3.4-.4.7-.4.2 0 .3.3.3.6l-.2.4c0 .2 0 .5.3.5.4.2.6 0 .7-.2l1.5-5.8c0-.2 0-.4-.3-.5-.3 0-.5 0-.6.3l-.3 1c0 .2-.2.4-.4.3-.2 0-.4-.2-.3-.4l.5-2c.3-1-.3-2.2-1.5-2.5-1-.2-2.2.4-2.5 1.5v.2c0 .2-.4.3-.6.3-.2 0-.3-.3-.3-.5v-.5c0-.2 0-.4-.3-.5-.2 0-.4 0-.5.3L87 346zm9.7-5.6c0 .5.2 1 .7 1 .4.2 1 0 1-.5l.2-.8c0-.5.7-1 1.3-.7.4 0 .7.7.6 1.3l-.5 1.7c0 .6.3 1 1 1.3.4 0 1-.2 1-.8l1-2.7c0-.2.2-.4.4-.3.2 0 .4.3.3.5v.5c-.2.2 0 .4.2.5 0 0 .4 0 .4-.3l1.6-5.8c0-.2 0-.5-.3-.5-.3-.2-.5 0-.6.2v1c-.2.2-.4.4-.7.3-.2 0-.3-.3-.3-.5l.6-2c.3-1-.4-2.3-1.5-2.6-1-.3-2.2.4-2.5 1.5 0 .3-.3.4-.5.4-.3 0-.4-.3-.3-.6v-.4c0-.2 0-.5-.2-.5-.2-.2-.5 0-.5.2l-2.3 8.2zm.1 15.6c0 .4.4.8 1 .8.4 0 .7-.4.7-.8v-.7c0-.6.5-1 1-1 .7 0 1 .4 1 1v1.8c0 .7.6 1 1.2 1s1-.3 1-1v-2.7c0-.3.2-.5.5-.5.2 0 .4.2.4.5v.4c0 .3.2.5.4.5s.4-.2.4-.5v-6c0-.2-.2-.4-.4-.4s-.4.2-.4.4v1c0 .3-.2.5-.4.5-.3 0-.5-.2-.5-.4v-2c0-1.2-1-2.2-2-2.2-1.2 0-2.2 1-2.2 2v.3s0 .3-.4.3c0 0-.3-.2-.3-.4v-.6c0-.2-.2-.4-.4-.4-.3 0-.5.2-.5.4v8.6zm-9.2-22.6c0 .5.4 1 1 1 .4 0 .7-.5.7-1v-.7c0-.6.5-1 1-1 .7 0 1 .4 1 1v1.8c0 .6.6 1 1.2 1s1-.4 1-1v-2.8c0-.2.2-.4.5-.4.2 0 .4.2.4.4v.5c0 .2.2.4.4.4.3 0 .4-.2.4-.4v-6c0-.3 0-.5-.4-.5-.2 0-.4.2-.4.5v1c0 .2-.2.4-.4.4-.3 0-.5-.2-.5-.4v-2c0-1.2-1-2-2-2-1.2 0-2.2.8-2.2 2 0 .4 0 .5-.4.5-.3 0-.5 0-.5-.4v-.4c0-.4-.2-.6-.4-.6s-.4.2-.4.5v8.4zm9.8-5.6c0 .4.4.8 1 .8.3 0 .7-.4.7-.8v-.7c0-.5.6-1 1.2-1 .5 0 1 .5 1 1v2c0 .5.5 1 1 1 .6 0 1-.5 1-1v-3c0-.2.3-.4.5-.4.3 0 .5.2.5.5v.5c0 .3.2.4.4.4s.4-.2.4-.5v-6c0-.2-.2-.4-.4-.4s-.4.3-.4.5v1c0 .3-.2.5-.5.5-.2 0-.4-.2-.4-.4v-2c0-1.2-1-2.2-2-2.2-1.2 0-2.2 1-2.2 2v.3c0 .2 0 .4-.3.4-.2 0-.4 0-.4-.3v-.5c0-.2-.2-.4-.5-.4-.2 0-.4.2-.4.4v8.6zm-10.6-9.5c0 .4 0 1 .6 1 .5.2 1 0 1-.6l.2-.6c.2-.5.8-.8 1.3-.7.5.2.8.8.7 1.3l-.5 1.8c-.2.5.2 1 .7 1.3.5 0 1-.2 1.2-.8l.7-2.8c0-.3.2-.4.5-.3.2 0 .3.2.3.4l-.2.4c0 .3 0 .5.4.6.2 0 .4 0 .5-.3l1.5-5.7c0-.3 0-.5-.3-.6-.2 0-.4 0-.5.3l-.3 1c0 .3-.4.4-.6.4-.2 0-.4-.3-.3-.6l.6-2c.3-1-.3-2.2-1.4-2.5-1.2-.3-2.3.4-2.6 1.5 0 .4-.3.5-.6.4-.2 0-.3-.3-.3-.5v-.4c.2-.3 0-.5-.2-.6-.2 0-.4 0-.5.3l-2.2 8.3zm9.4-5.3c0 .3.2.8.6 1 .5 0 1-.2 1-.7l.2-.7c.2-.5.8-.8 1.3-.7.6 0 1 .6.8 1.2l-.4 1.7c-.2.5.2 1 .7 1.2.6.2 1.2-.2 1.3-.7l.7-2.8c0-.2.3-.3.6-.3l.2.6v.4c-.2.2 0 .5.2.5s.4 0 .5-.4l1.4-5.8c0-.2 0-.4-.3-.5 0 0-.3 0-.4.3l-.3 1c0 .3-.3.4-.5.3-.2 0-.3-.4-.3-.6l.5-2c.3-1-.3-2.2-1.4-2.5-1.2-.4-2.3.2-2.6 1.3v.2c0 .2-.3.4-.6.3-.2 0-.3-.3-.3-.5l.3-.5c0-.2 0-.4-.4-.5-.3 0-.5 0-.6.3l-2.2 8.3zm-7.6-8c0 .5.3 1 .8 1s1-.5 1-1v-.7c0-.6.4-1 1-1 .5 0 1 .4 1 1v1.8c0 .7.4 1.2 1 1.2s1-.5 1-1v-3s.3-.3.5-.3c0 0 .3 0 .3.3v.5c0 .2.2.4.5.4.2 0 .4-.2.4-.4v-6c0-.3-.2-.5-.4-.5-.3 0-.5.2-.5.4v1c0 .3-.2.5-.4.5-.3 0-.5-.2-.5-.4v-2c0-1.2-1-2-2-2-1.3 0-2.2.8-2.2 2 0 .3-.2.5-.4.5-.4 0-.6-.2-.6-.4v-.5c0-.3-.2-.5-.4-.5s-.4.2-.4.5v8.5zm9-5.2c0 .5.4 1 .8 1 .5 0 1-.5 1-1v-.7c0-.5.4-1 1-1 .5 0 1 .5 1 1v2c0 .5.4 1 1 1s1-.5 1-1v-3s.3-.3.5-.3c0 0 .3.2.3.4v.6c0 .2.2.4.5.4.2 0 .4-.2.4-.4v-6c0-.3-.2-.5-.4-.5-.3 0-.5.3-.5.5v1c0 .3-.2.5-.4.5-.3 0-.5-.2-.5-.4v-2c0-1.2-1-2-2-2-1.3 0-2.2.8-2.2 2 0 .3-.2.5-.4.5-.4 0-.6 0-.6-.3v-.4c0-.3-.2-.5-.4-.5s-.4.2-.4.5v8.5zm-.6-14.6c0 .4.3 1 .7 1 .5 0 1 0 1-.6l.2-.6c0-.6.7-1 1.2-.8.6.2 1 .7.8 1.3l-.5 1.8c-.2.5.2 1 .7 1.2.6.2 1.2 0 1.3-.7l.7-2.7c0-.2.3-.3.6-.2.2 0 .3.3.3.5v.4c0 .3 0 .5.3.5.2 0 .4 0 .5-.3l1.5-6s0-.3-.3-.4c-.2 0-.4 0-.5.3l-.3 1c0 .2-.3.3-.5.2-.2 0-.4-.3-.3-.5l.5-2c.2-1-.4-2.2-1.5-2.5-1.2-.3-2.3.3-2.6 1.5-.2.3-.4.5-.7.4-.2 0-.3-.2-.3-.4l.2-.5s0-.3-.4-.4c-.2 0-.4 0-.5.3l-2.1 8zm-9.6 4.8c0 .5 0 1 .6 1 .4.3 1 0 1-.5l.2-.6c.2-.7.7-1 1.3-1 .5.3 1 1 .7 1.4l-.4 1.8c-.2.5 0 1 .7 1.2.6.2 1 0 1.3-.7l.7-2.7c0-.3.3-.4.5-.3.3 0 .4.3.3.5v.4c0 .3 0 .5.2.6.3 0 .5 0 .6-.3l1.6-6c0-.2 0-.4-.3-.5-.2 0-.5 0-.5.3l-.3 1c0 .3-.3.4-.5.4-.3 0-.4-.3-.3-.6l.5-2c.3-1-.4-2.2-1.5-2.5-1-.2-2.2.5-2.5 1.6 0 .3-.4.5-.6.4-.2 0-.4-.3-.3-.5v-.4c.2-.2 0-.4-.2-.5 0 0-.4 0-.4.3l-2.2 8.3z" fill="#dedede"/><path d="M47.6 241.5H40v-38.2h7.6v38.2z" fill="#2e1803"/><path d="M46.4 197.4s2.5 2.5 5.6 3.2c-6.2-5.3-7.4-19-7.4-19s2.6 2.7 4.3 3c-5-4.7-5.2-8-5.2-11.6 0 3.6-.2 7-5 11.5 1.7-.2 4.2-3 4.2-3s-1.2 13.7-7.4 19c3-.6 5.6-3 5.6-3s-2.6 14-10.3 20.6c3 0 8.3 0 12.8-2.7 4.6 2.8 10 2.8 13 2.8-7.8-6.6-10.4-20.6-10.4-20.6z" fill="#003413"/><path d="M42 190.3c0 1.3 1 1 1.3 2.7.3 2 1 4.2 2 4.4 1 .3 1.6-.3 1.6-1.7 0-1-1.3-1-1.6-4.2-.2-1.3.7-6-1.2-6.4-1.8 0-2.3 4-2.2 5.3z" fill="#e3e3e3"/><path d="M236.8 290.4H226V237h11v53.4z" fill="#2e1803"/><path d="M235 228.8s3.6 3.5 7.8 4.4c-8.6-7.4-10.2-26.5-10.2-26.5s3.6 3.7 6 4c-7-6.3-7-11-7-16 0 5-.5 9.7-7.3 16 2.5-.2 6-4 6-4s-1.6 19-10.3 26.5c4.2-1 7.8-4.4 7.8-4.4s-3.6 19.5-14.4 29c4.3 0 11.7 0 18-4 6.5 4 13.8 4 18.2 4-11-9.5-14.5-29-14.5-29z" fill="#003413"/><path d="M223.2 246c5-3.2 13.7 2.5 17 6 1.2 1.3.4 3.3-1.6 2.2-3.2-1.7-5.5-1.4-10.5 0-4.8 1.7-7.4-6.7-4.8-8.3z" fill="#e3e3e3"/><path d="M233.4 153.7h-4V134h4v19.7z" fill="#2e1803"/><path d="M232.8 131s1.3 1.3 2.8 1.6c-3-2.7-3.7-9.7-3.7-9.7s1.2 1.3 2 1.4c-2.4-2.4-2.5-4-2.5-6 0 2-.2 3.6-2.7 6 1 0 2.2-1.5 2.2-1.5s-.6 7-3.7 9.6c1.5-.3 2.8-1.6 2.8-1.6s-1.2 7.2-5.2 10.6c1.6 0 4.3 0 6.7-1.4 2.3 1.4 5 1.4 6.6 1.4-4-3.4-5.2-10.6-5.2-10.6z" fill="#003413"/><path d="M233 138h1c.3.2.7.6.8 1 .2.4 0 .6-.5.5l-1-.7c-.3-.2-.5-.2-.6 0 0 0 0 .2.5.7l.6 1s0 .2-.3 0c-.2 0-.5 0-.7-.4l-.4-.8c0-.2-.2-.3-.3-.4v.7h-.5l-.2-.5c0-.2.2-.3.3-.5v-.2c-.2 0-.3-.2-.6 0h-.6c-.3 0-.7-.3-.8-.5 0-.2-.2-.5 0-.5.3 0 .6 0 1 .3l.6.2c.2 0 0-.3-.3-.5l-.6-.5c-.2-.2-.3-.3-.2-.5h.4l.4.5.4.6s.3 0 0-.2c0-.3-.4-.8-.5-1-.2-.4 0-.6.5-.4.3.2.6.6.6 1 .2 0 0 .5.2.8.2.3.5.5.8.5z" fill="#e3e3e3"/><path d="M29.5 179.6h-4v-20.2h4v20.2z" fill="#2e1803"/><path d="M28.8 156.3s1.3 1.3 3 1.6c-3.3-3-4-10-4-10s1.4 1.3 2.3 1.4c-2.5-2.4-2.6-4.2-2.6-6 0 1.8 0 3.6-2.7 6 1 0 2.3-1.5 2.3-1.5s-.6 7-4 10c1.7-.4 3-1.7 3-1.7s-1.3 7.3-5.4 11c1.6 0 4.4 0 6.8-1.6 2.5 1.5 5.3 1.5 7 1.5-4.2-3.6-5.6-11-5.6-11z" fill="#003413"/><path d="M28.5 162.8c.8 1.5 1.2 1.2 1.3 1 0 0 .4 0 .7.4.4.6.6.4.7.4.2-.2 0-.7-.5-1.7-.6-1-1-1.4-.7-1.5.2 0 .2.3.4.2.2 0-.2-.6-.5-1-.4-.6-1.5-2-2-2 0 .2.7 1 .5 1-.3.3-.7-.7-1-.5-.5.3.3 1 .7 1.7.2.4-1-.2.3 1.8zm-2.2-9.8c.4-.7 1-1.2 1.4-1 .4.3.3 1 0 1.8-.6.8-1.8 2.3-2.2 2-.3-.2.3-2 .8-2.7z" fill="#e3e3e3"/></svg>
