<svg xmlns="http://www.w3.org/2000/svg" width="300" height="300"><path fill="#00002c" d="M0 0h300v300H0z"/><path d="M133.44 184.94H113.8v-44.3h19.64v44.3z" fill="#ff49d6"/><path d="M131.87 160.2v.6h-16.5v-.6h-1.57v19.65h19.64V160.2h-1.57zm-3.44 1.26h2.16v2h-2.17v-2zm3.44 14.46v.6h-16.5v-.6h16.5zm-15.22-.66v-2h2.16v2h-2.15zm2.36 0v-2h2.17v2H119zm2.36 0v-2h2.16v2h-2.16zm2.36 0v-2h2.16v2h-2.16zm2.35 0v-2h2.16v2h-2.16zm4.52 0h-2.17v-2h2.16v2zm-15.23-2.68v-.6h16.5v.6h-16.5zm1.28-1.25v-2h2.16v2h-2.15zm2.36 0v-2h2.17v2H119zm2.36 0v-2h2.16v2h-2.16zm2.36 0v-2h2.16v2h-2.16zm2.35 0v-2h2.16v2h-2.16zm4.52 0h-2.17v-2h2.16v2zm-15.23-2.68v-.6h16.5v.6h-16.5zm1.28-1.25v-2h2.16v2h-2.15zm2.36 0v-2h2.17v2H119zm2.36 0v-2h2.16v2h-2.16zm2.36 0v-2h2.16v2h-2.16zm2.35 0v-2h2.16v2h-2.16zm4.52 0h-2.17v-2h2.16v2zm-15.23-2.67v-.6h16.5v.6h-16.5zm10.7-3.27h2.16v2h-2.16v-2zm-2.35 0h2.16v2h-2.16v-2zm-2.36 0h2.16v2h-2.16v-2zm-2.35 0h2.17v2H119v-2zm-2.35 0h2.16v2h-2.15v-2zm-2.36 0h2.15v2h-2.16v-2zm0 3.93h2.15v1.98h-2.16v-2zm0 3.92h2.15v1.98h-2.16v-1.98zm0 3.92h2.15v2h-2.16v-2zm2.15 5.94h-2.16v-1.98h2.15v1.98zm2.36 0h-2.15v-1.98h2.16v1.98zm2.37 0H119v-1.98h2.17v1.98zm2.35 0h-2.16v-1.98h2.16v1.98zm2.36 0h-2.16v-1.98h2.16v1.98zm2.35 0h-2.16v-1.98h2.16v1.98zm2.36 0h-2.17v-1.98h2.16v1.98zm2.35 0h-2.16v-1.98h2.15v1.98zm0-3.92h-2.16v-2h2.15v2zm0-3.93h-2.16v-2h2.15v2zm0-3.93h-2.16v-2h2.15v2zm0-3.93h-2.16v-1.98h2.15v1.97z"/><path d="M131.87 140.57v.6h-16.5v-.6h-1.57v19.64h19.64v-19.63h-1.57zm-3.44 1.26h2.16v1.98h-2.17v-1.97zm3.44 14.45v.6h-16.5v-.6h16.5zm-15.22-.66v-2h2.16v2h-2.15zm2.36 0v-2h2.17v2H119zm2.36 0v-2h2.16v2h-2.16zm2.36 0v-2h2.16v2h-2.16zm2.35 0v-2h2.16v2h-2.16zm4.52 0h-2.17v-2h2.16v2zm-15.23-2.68v-.58h16.5v.58h-16.5zm1.28-1.25v-2h2.16v2h-2.15zm2.36 0v-2h2.17v2H119zm2.36 0v-2h2.16v2h-2.16zm2.36 0v-2h2.16v2h-2.16zm2.35 0v-2h2.16v2h-2.16zm4.52 0h-2.17v-2h2.16v2zM115.36 149v-.6h16.5v.6h-16.5zm1.28-1.25v-2h2.16v2h-2.15zm2.36 0v-2h2.17v2H119zm2.36 0v-2h2.16v2h-2.16zm2.36 0v-2h2.16v2h-2.16zm2.35 0v-2h2.16v2h-2.16zm4.52 0h-2.17v-2h2.16v2zm-15.23-2.68v-.6h16.5v.6h-16.5zm10.7-3.27h2.16v1.98h-2.16v-1.97zm-2.35 0h2.16v1.98h-2.16v-1.97zm-2.36 0h2.16v1.98h-2.16v-1.97zm-2.35 0h2.17v1.98H119v-1.97zm-2.35 0h2.16v1.98h-2.15v-1.97zm-2.36 0h2.15v1.98h-2.16v-1.97zm0 3.92h2.15v2h-2.16v-2zm0 3.93h2.15v2h-2.16v-2zm0 3.93h2.15v2h-2.16v-2zm2.15 5.95h-2.16v-2h2.15v2zm2.36 0h-2.15v-2h2.16v2zm2.37 0H119v-2h2.17v2zm2.35 0h-2.16v-2h2.16v2zm2.36 0h-2.16v-2h2.16v2zm2.35 0h-2.16v-2h2.16v2zm2.36 0h-2.17v-2h2.16v2zm2.35 0h-2.16v-2h2.15v2zm0-3.93h-2.16v-2h2.15v2zm0-3.93h-2.16v-2h2.15v2zm0-3.93h-2.16v-2h2.15v2zm0-3.93h-2.16v-2h2.15v2z"/><path d="M300 182.2h-35.4v-77H300v77z" fill="#b4b4b4"/><path d="M284.03 191.77h-91.45V68.54h91.45v123.23z" fill="#c2c4c4"/><path d="M218.18 137.96h-13.45v-16.82h13.45v16.82zM245.03 137.96h-13.45v-16.82h13.45v16.82zM218.18 102.62h-13.45V85.8h13.45v16.82z" fill="#202020"/><path d="M245.03 102.62h-13.45V85.8h13.45v16.82z"/><path d="M274.3 102.62h-13.46V85.8h13.45v16.82z" fill="#202020"/><path d="M274.3 137.96h-13.46v-16.82h13.45v16.82z"/><path d="M211.6 116.66c-3.9-.1-7.13 3.2-7.13 7.1v9.7h2.88l-.17-7.83c0-.1.12-.13.17-.05l1.95 3.6c.04.1.17.05.17 0l1.9-7.84c.03-.1.18-.1.18 0l1.9 7.83c.03.1.16.1.18.02l1.93-3.6c.05-.1.18-.04.18.05l-.18 7.83h2.88v-9.85c-.04-3.82-3.1-6.9-6.84-6.97zM238.44 116.66c-3.9-.1-7.12 3.2-7.12 7.1v9.7h2.88l-.18-7.83c0-.1.13-.13.18-.05l1.95 3.6c.04.1.17.05.17 0l1.9-7.84c.03-.1.18-.1.18 0l1.9 7.83c.03.1.16.1.18.02l1.93-3.6c.06-.1.18-.04.18.05l-.17 7.83h2.9v-9.85c-.06-3.82-3.1-6.9-6.86-6.97zM267.97 116.66c-3.9-.1-7.13 3.2-7.13 7.1v9.7h2.88l-.17-7.83c0-.1.13-.13.17-.05l1.95 3.6c.04.1.17.05.17 0l1.9-7.84c.03-.1.18-.1.18 0l1.9 7.83c.03.1.16.1.18.02l1.94-3.6c.04-.1.17-.04.17.05l-.16 7.83h2.87v-9.85c-.03-3.82-3.08-6.9-6.83-6.97zM267.7 81.33c-3.9-.1-7.12 3.2-7.12 7.1v9.7h2.88l-.17-7.84c0-.1.12-.13.16-.05l1.95 3.6c.05.1.18.05.18-.02l1.9-7.83c.03-.08.18-.08.18 0l1.9 7.83c.04.1.16.1.2.03l1.92-3.6c.04-.1.17-.03.17.06l-.17 7.83h2.87V88.3c-.04-3.82-3.1-6.9-6.84-6.97zM238.44 81.33c-3.9-.1-7.12 3.2-7.12 7.1v9.7h2.88l-.18-7.84c0-.1.13-.13.18-.05l1.95 3.6c.04.1.17.05.17-.02l1.9-7.83c.03-.08.18-.08.18 0l1.9 7.83c.03.1.16.1.18.03l1.93-3.6c.06-.1.18-.03.18.06l-.17 7.83h2.9V88.3c-.06-3.82-3.1-6.9-6.86-6.97zM211.6 81.33c-3.9-.1-7.13 3.2-7.13 7.1v9.7h2.88l-.17-7.84c0-.1.12-.13.17-.05l1.95 3.6c.04.1.17.05.17-.02l1.9-7.83c.03-.08.18-.08.18 0l1.9 7.83c.03.1.16.1.18.03l1.93-3.6c.05-.1.18-.03.18.06l-.18 7.83h2.88V88.3c-.04-3.82-3.1-6.9-6.84-6.97z" fill="#850600"/><path d="M192.58 109.4v-6.78h91.45v6.77h-91.45z" fill="#e4e4e4"/><path d="M206.33 105.63h10.25c.14 0 .28.14.28.27v4.75c0 .14-.14.28-.28.28h-10.25c-.14 0-.27-.14-.27-.28v-4.75c-.02-.15.12-.27.27-.27zM204.77 102.62h13.4c.13 0 .27.14.27.28v1.72c0 .14-.14.28-.28.28h-13.4c-.15 0-.3-.14-.3-.28v-1.72c.03-.16.15-.28.3-.28zM233.18 105.63h10.25c.14 0 .27.14.27.27v4.75c0 .14-.13.28-.27.28h-10.25c-.14 0-.28-.14-.28-.28v-4.75c0-.15.12-.27.28-.27zM231.62 102.62h13.4c.13 0 .27.14.27.28v1.72c0 .14-.15.28-.3.28h-13.4c-.14 0-.28-.14-.28-.28v-1.72c.02-.16.14-.28.3-.28zM262.7 105.63h10.25c.14 0 .28.14.28.27v4.75c0 .14-.14.28-.28.28H262.7c-.14 0-.27-.14-.27-.28v-4.75c-.02-.15.12-.27.27-.27zM261.14 102.62h13.4c.13 0 .27.14.27.28v1.72c0 .14-.13.28-.27.28h-13.4c-.15 0-.3-.14-.3-.28v-1.72c.03-.16.15-.28.3-.28z" fill="#f1f1f1"/><path d="M192.58 144.73v-6.77h91.45v6.77h-91.45z" fill="#e4e4e4"/><path d="M262.7 140.97h10.25c.14 0 .28.14.28.28V146c0 .13-.14.27-.28.27H262.7c-.14 0-.27-.14-.27-.28v-4.75c-.02-.16.12-.28.27-.28zM261.14 137.96h13.4c.13 0 .27.14.27.28v1.72c0 .14-.13.28-.27.28h-13.4c-.15 0-.3-.14-.3-.28v-1.72c.03-.16.15-.28.3-.28zM233.18 140.97h10.25c.14 0 .27.14.27.28V146c0 .13-.13.27-.27.27h-10.25c-.14 0-.28-.14-.28-.28v-4.75c0-.16.12-.28.28-.28zM231.62 137.96h13.4c.13 0 .27.14.27.28v1.72c0 .14-.15.28-.3.28h-13.4c-.14 0-.28-.14-.28-.28v-1.72c.02-.16.14-.28.3-.28zM206.6 140.97h10.24c.14 0 .28.14.28.28V146c0 .13-.14.27-.28.27H206.6c-.15 0-.3-.14-.3-.28v-4.75c0-.16.14-.28.3-.28zM205.03 137.96h13.4c.13 0 .27.14.27.28v1.72c0 .14-.14.28-.28.28h-13.4c-.15 0-.3-.14-.3-.28v-1.72c.03-.16.15-.28.3-.28z" fill="#f1f1f1"/><path d="M244.17 182.13h-11.73V162.6h11.73v19.53z" fill="#583319"/><path d="M244.96 155.2c-.9.15-1.58 1.36-1.58 2.8V159.32c0 .27-.17.53-.34.53h-9.43c-.16 0-.33-.26-.33-.53V157.98c0-1.42-.67-2.67-1.56-2.77-.97-.12-1.82 1.2-1.82 2.7v24.24h3.37v-16.4c0-.27.17-.54.33-.54h9.44c.17 0 .34.27.34.54v16.4h3.36V157.9c.04-1.54-.78-2.8-1.76-2.7z" fill="#909090"/><path d="M180.34 71.58l58.1-28.83 57.82 28.83z" fill="#763027"/><path d="M276 173.25h-16.85v-13.97H276v13.97zM216.75 173.25H199.9v-13.97h16.85v13.97z" fill="#ffd612" stroke-width="2.86" stroke="#e4e4e4" stroke-linecap="square"/><path d="M71.55 214.34H31.1V0h40.45v214.34z" fill="#ffd612"/><path d="M54.2 179.82l7.05-8.48c.18-.2.5-.2.6 0l7.07 8.48h2.74V159.5h-2.69v.04l-7.06 8.5c-.16.2-.47.2-.6 0l-7.16-8.55h-2.76v20.35h.7l2.12-.03zm14.82-16.63v13.02c0 .38-.48.55-.7.25l-5.44-6.5c-.13-.15-.13-.35 0-.53l5.4-6.53c.26-.24.74-.1.74.3zm-14.14-.3l5.48 6.56c.13.16.13.36 0 .54l-5.48 6.55c-.23.28-.7.12-.7-.26v-13.16c-.06-.4.42-.53.7-.25zM33.9 179.82l7.07-8.48c.18-.2.48-.2.6 0l7.07 8.48h2.74V159.5H48.7v.04l-7.07 8.5c-.18.2-.48.2-.6 0l-7.17-8.55H31.1v20.35h.7l2.1-.03zm14.84-16.63v13.02c0 .38-.5.55-.7.25l-5.45-6.5c-.13-.15-.13-.35 0-.53l5.4-6.53c.25-.24.74-.1.74.3zm-14.14-.3l5.48 6.56c.13.16.13.36 0 .54l-5.48 6.55c-.23.28-.7.12-.7-.26v-13.16c-.07-.4.42-.53.7-.25z" fill="#202020"/><path d="M54.2 163.13l7.05-8.48c.18-.2.5-.2.6 0l7.07 8.48h2.74V142.8h-2.69v.05l-7.06 8.5c-.16.2-.47.2-.6 0l-7.16-8.55h-2.76v20.36h.7l2.12-.03zm14.82-16.63v13.03c0 .38-.48.56-.7.25l-5.44-6.5c-.13-.15-.13-.35 0-.53l5.4-6.52c.26-.26.74-.13.74.27zm-14.14-.3l5.48 6.58c.13.15.13.35 0 .53l-5.48 6.56c-.23.28-.7.13-.7-.26v-13.15c-.06-.4.42-.53.7-.25zM33.9 163.13l7.07-8.48c.18-.2.48-.2.6 0l7.07 8.48h2.74V142.8H48.7v.05l-7.07 8.5c-.18.2-.48.2-.6 0l-7.17-8.55H31.1v20.36h.7l2.1-.03zm14.84-16.63v13.03c0 .38-.5.56-.7.25l-5.45-6.5c-.13-.15-.13-.35 0-.53l5.4-6.52c.25-.26.74-.13.74.27zm-14.14-.3l5.48 6.58c.13.15.13.35 0 .53l-5.48 6.56c-.23.28-.7.13-.7-.26v-13.15c-.07-.4.42-.53.7-.25z" fill="#202020"/><path d="M54.08 146.25l7.06-8.48c.18-.2.48-.2.6 0l7.07 8.48h2.75V125.9H68.87v.06l-7.06 8.5c-.18.2-.48.2-.6 0l-7.17-8.55h-2.77v20.37h.72l2.1-.02zm14.83-16.63v13.02c0 .38-.47.56-.7.26l-5.44-6.5c-.12-.15-.12-.36 0-.54l5.4-6.52c.27-.25.75-.13.75.28zm-14.13-.3l5.48 6.57c.13.14.13.35 0 .52l-5.48 6.55c-.23.28-.7.13-.7-.25v-13.15c-.06-.4.42-.53.7-.26zM33.8 146.25l7.06-8.48c.17-.2.48-.2.6 0l7.06 8.48h2.74V125.9h-2.69v.06l-7.05 8.5c-.18.2-.5.2-.6 0l-7.17-8.55h-2.77v20.37h.7l2.12-.02zm14.82-16.63v13.02c0 .38-.48.56-.7.26l-5.44-6.5c-.13-.15-.13-.36 0-.54l5.4-6.52c.26-.25.74-.13.74.28zm-14.14-.3l5.5 6.57c.1.14.1.35 0 .52l-5.5 6.55c-.23.28-.7.13-.7-.25v-13.15c-.06-.4.42-.53.7-.26z" fill="#202020"/><path d="M54.08 129.56l7.06-8.48c.18-.2.48-.2.6 0l7.07 8.48h2.75v-20.34H68.87v.05l-7.06 8.5c-.18.2-.48.2-.6 0l-7.17-8.55h-2.77v20.36h.72l2.1-.02zm14.83-16.63v13.02c0 .4-.47.56-.7.26l-5.44-6.5c-.12-.14-.12-.35 0-.52l5.4-6.53c.27-.25.75-.13.75.28zm-14.13-.3l5.48 6.57c.13.15.13.36 0 .53l-5.48 6.55c-.23.28-.7.13-.7-.25v-13.15c-.06-.4.42-.53.7-.25zM33.8 129.56l7.06-8.48c.17-.2.48-.2.6 0l7.06 8.48h2.74v-20.34h-2.69v.05l-7.05 8.5c-.18.2-.5.2-.6 0l-7.17-8.55h-2.77v20.36h.7l2.12-.02zm14.82-16.63v13.02c0 .4-.48.56-.7.26l-5.44-6.5c-.13-.14-.13-.35 0-.52l5.4-6.53c.26-.25.74-.13.74.28zm-14.14-.3l5.5 6.57c.1.15.1.36 0 .53l-5.5 6.55c-.23.28-.7.13-.7-.25v-13.15c-.06-.4.42-.53.7-.25z" fill="#202020"/><path d="M54.08 112.62l7.06-8.48c.18-.2.48-.2.6 0l7.07 8.48h2.75V92.3H68.87v.04l-7.06 8.5c-.18.2-.48.2-.6 0l-7.17-8.55h-2.77v20.35h.72l2.1-.03zM68.9 96V109c0 .38-.47.56-.7.25l-5.44-6.5c-.12-.15-.12-.35 0-.53l5.4-6.53c.27-.24.75-.1.75.3zm-14.13-.3l5.48 6.56c.13.16.13.36 0 .54l-5.48 6.55c-.23.28-.7.12-.7-.26V95.93c-.06-.4.42-.53.7-.25zM33.8 112.62l7.06-8.48c.17-.2.48-.2.6 0l7.06 8.48h2.74V92.3h-2.69v.04l-7.05 8.5c-.18.2-.5.2-.6 0l-7.17-8.55h-2.77v20.35h.7l2.12-.03zM48.62 96V109c0 .38-.48.56-.7.25l-5.44-6.5c-.13-.15-.13-.35 0-.53l5.4-6.53c.26-.24.74-.1.74.3zm-14.14-.3l5.5 6.56c.1.16.1.36 0 .54l-5.5 6.55c-.23.28-.7.12-.7-.26V95.93c-.06-.4.42-.53.7-.25z" fill="#202020"/><path d="M54.08 95.93l7.06-8.48c.18-.2.48-.2.6 0l7.07 8.48h2.75V75.6H68.87v.05l-7.06 8.5c-.18.2-.48.2-.6 0l-7.17-8.55h-2.77v20.36h.72l2.1-.03zM68.9 79.3v13.03c0 .38-.47.56-.7.25l-5.44-6.5c-.12-.15-.12-.35 0-.53l5.4-6.52c.27-.26.75-.13.75.27zM54.78 79l5.48 6.58c.13.15.13.35 0 .53l-5.48 6.56c-.23.28-.7.13-.7-.26V79.25c-.06-.4.42-.53.7-.25zM33.8 95.93l7.06-8.48c.17-.2.48-.2.6 0l7.06 8.48h2.74V75.6h-2.69v.05l-7.05 8.5c-.18.2-.5.2-.6 0l-7.17-8.55h-2.77v20.36h.7l2.12-.03zM48.62 79.3v13.03c0 .38-.48.56-.7.25l-5.44-6.5c-.13-.15-.13-.35 0-.53l5.4-6.52c.26-.26.74-.13.74.27zM34.48 79l5.5 6.58c.1.15.1.35 0 .53l-5.5 6.56c-.23.28-.7.13-.7-.26V79.25c-.06-.4.42-.53.7-.25z" fill="#202020"/><path d="M54.2 78.96l7.05-8.48c.18-.2.5-.2.6 0l7.07 8.48h2.74V58.63h-2.69v.05l-7.05 8.5c-.18.2-.5.2-.6 0l-7.17-8.55h-2.77V79h.7l2.12-.04zm14.82-16.63v13.03c0 .38-.48.56-.7.25l-5.44-6.5c-.13-.14-.13-.34 0-.52l5.4-6.53c.26-.25.74-.12.74.28zm-14.14-.3l5.5 6.57c.1.16.1.36 0 .54l-5.5 6.55c-.23.27-.7.1-.7-.27V62.28c-.06-.4.42-.53.7-.25z" fill="#202020"/><path d="M33.9 78.96l7.07-8.48c.18-.2.48-.2.6 0l7.07 8.48h2.74V58.63H48.7v.05l-7.07 8.5c-.18.2-.48.2-.6 0l-7.17-8.55H31.1V79h.7l2.1-.04zm14.84-16.63v13.03c0 .38-.48.56-.7.25l-5.45-6.5c-.13-.14-.13-.34 0-.52l5.4-6.53c.26-.25.74-.12.74.28zm-14.14-.3l5.48 6.57c.13.16.13.36 0 .54L34.6 75.7c-.23.27-.7.1-.7-.27V62.28c-.06-.4.42-.53.7-.25z" fill="#202020"/><path d="M54.2 62.27l7.05-8.48c.18-.2.5-.2.6 0l7.07 8.47h2.74V41.94h-2.69V42l-7.05 8.5c-.18.2-.5.2-.6 0l-7.17-8.56h-2.77V62.3h.7l2.12-.03zm14.82-16.63v13.03c0 .38-.48.56-.7.25l-5.44-6.5c-.13-.15-.13-.35 0-.53l5.4-6.53c.26-.26.74-.13.74.27zm-14.14-.3l5.5 6.58c.1.15.1.35 0 .53L54.87 59c-.23.28-.7.13-.7-.25V45.6c-.06-.4.42-.54.7-.26z" fill="#202020"/><path d="M33.9 62.27l7.07-8.48c.18-.2.48-.2.6 0l7.07 8.47h2.74V41.94H48.7V42l-7.07 8.5c-.18.2-.48.2-.6 0l-7.17-8.56H31.1V62.3h.7l2.1-.03zm14.84-16.63v13.03c0 .38-.48.56-.7.25l-5.45-6.5c-.13-.15-.13-.35 0-.53l5.4-6.53c.26-.26.74-.13.74.27zm-14.14-.3l5.48 6.58c.13.15.13.35 0 .53L34.6 59c-.23.28-.7.13-.7-.25V45.6c-.06-.4.42-.54.7-.26z" fill="#202020"/><path d="M54.08 46.02l7.06-8.48c.18-.2.48-.2.6 0l7.07 8.48h2.75V25.68H68.87v.05l-7.06 8.5c-.18.2-.48.2-.6 0l-7.17-8.54h-2.77v20.35h.72l2.1-.03zM68.9 29.4V42.4c0 .38-.47.55-.7.25l-5.44-6.5c-.12-.15-.12-.36 0-.53l5.4-6.53c.27-.24.75-.12.75.3zm-14.13-.3l5.48 6.56c.13.15.13.36 0 .53l-5.48 6.55c-.23.27-.7.12-.7-.26V29.33c-.06-.4.42-.53.7-.25zM33.8 46.02l7.06-8.48c.17-.2.48-.2.6 0l7.06 8.48h2.74V25.68h-2.69v.05l-7.05 8.5c-.18.2-.5.2-.6 0l-7.17-8.54h-2.77v20.35h.7l2.12-.03zM48.62 29.4V42.4c0 .38-.48.55-.7.25l-5.44-6.5c-.13-.15-.13-.36 0-.53l5.4-6.53c.26-.24.74-.12.74.3zm-14.14-.3l5.5 6.56c.1.15.1.36 0 .53l-5.5 6.55c-.23.27-.7.12-.7-.26V29.33c-.06-.4.42-.53.7-.25z" fill="#202020"/><path d="M54.08 29.33l7.06-8.48c.18-.2.48-.2.6 0l7.07 8.48h2.75V9H68.87v.05l-7.06 8.5c-.18.2-.48.2-.6 0L54.02 9h-2.77v20.36h.72l2.1-.03zM68.9 12.7v13.03c0 .38-.47.55-.7.25l-5.44-6.5c-.12-.15-.12-.35 0-.53l5.4-6.53c.27-.25.75-.12.75.28zm-14.13-.3l5.48 6.57c.13.16.13.36 0 .54l-5.48 6.56c-.23.28-.7.12-.7-.26V12.65c-.06-.4.42-.53.7-.25z" fill="#202020"/><path d="M33.8 29.33l7.06-8.48c.17-.2.48-.2.6 0l7.06 8.48h2.74V9h-2.69v.05l-7.05 8.5c-.18.2-.5.2-.6 0L33.74 9h-2.77v20.36h.7l2.12-.03zM48.62 12.7v13.03c0 .38-.48.55-.7.25l-5.44-6.5c-.13-.15-.13-.35 0-.53l5.4-6.53c.26-.25.74-.12.74.28zm-14.14-.3l5.5 6.57c.1.16.1.36 0 .54l-5.5 6.56c-.23.28-.7.12-.7-.26V12.65c-.06-.4.42-.53.7-.25z" fill="#202020"/><path d="M53.97 12.45l7.06-8.48c.17-.2.48-.2.6 0l7.06 8.48h2.74V-7.9h-2.7v.06L61.7.66c-.2.2-.5.2-.62 0l-7.16-8.55h-2.77v20.37h.7l2.12-.02zM68.8-4.18V8.84c0 .38-.5.56-.7.25l-5.45-6.5c-.12-.16-.12-.36 0-.54l5.4-6.52c.26-.26.75-.13.75.28zm-14.14-.3l5.48 6.57c.13.14.13.34 0 .52l-5.48 6.55c-.23.28-.72.13-.72-.25V-4.23c-.05-.4.44-.54.72-.26zM33.69 12.45l7.04-8.48c.18-.2.48-.2.6 0l7.07 8.48h2.75V-7.9H48.47v.06L41.4.66c-.18.2-.48.2-.6 0l-7.17-8.55h-2.77v20.37h.7l2.12-.02h-.02zm14.8-16.63V8.84c0 .38-.47.56-.7.25l-5.43-6.5c-.13-.16-.13-.36 0-.54l5.4-6.52c.26-.26.74-.13.74.28zm-14.13-.3l5.48 6.57c.13.14.13.34 0 .52l-5.48 6.55c-.23.28-.7.13-.7-.25V-4.23c-.06-.4.42-.54.7-.26zM93.86 141.25c-.46 0-.93.47-.93.93v2.17c-3.87-2.4-9.84-2.7-11.54-2.7v-.1c0-.24-.25-.42-.42-.36l-8.5.98c-.46.06-.93.47-.93 1.06 0 .58.47 1.05 1.05 1.05h8.38c.23 0 .4-.24.4-.42v-.3c1.65 0 8.27.3 11.5 3.1v40.54c0 .47.46.94.93.94.53 0 .94-.47.94-.94v-45.04c.12-.4-.4-.93-.88-.93z" fill="#202020"/><path d="M76.96 143.5c-1.6 0-3.07.3-4.18.8 1.1.48 2.57.8 4.18.8 1.6 0 3.08-.3 4.18-.8-1.1-.5-2.58-.8-4.18-.8z" fill="#f3fdfe"/><path d="M127.06 142.38c.47 0 .94.47.94.94v2.17c3.86-2.4 9.84-2.7 11.54-2.7v-.12c0-.24.23-.4.4-.35l8.5 1c.47.05.93.46.93 1.05 0 .58-.46 1.05-1.05 1.05h-8.37c-.24 0-.4-.23-.4-.4v-.3c-1.65 0-8.27.3-11.5 3.1v40.53c0 .47-.46.94-.93.94-.53 0-.94-.47-.94-.94v-45.04c-.12-.4.4-.94.88-.94z" fill="#202020"/><path d="M143.96 144.64c1.62 0 3.07.3 4.18.8-1.1.48-2.57.8-4.18.8-1.6 0-3.07-.3-4.18-.8 1.1-.5 2.58-.8 4.18-.8z" fill="#f3fdfe"/><path d="M0 300.26V177.03h300.07v123.23H0z" fill="#343838"/><path d="M122.2 204.4c26.33 0 47.73-11 47.73-24.55H-1v24.56H122.2z" fill="#202020" stroke-width="2.04" stroke="#ffd612" stroke-linecap="square"/><path d="M133.44 181.22v-4.2h35.4v4.2h-35.4z" fill="#202020"/><path d="M171.03 179.78h-2.2v-2.75h2.2v2.75zM133.44 179.85h-2.2v-2.75h2.2v2.75zM11.4 193.2v-2.13h10.63v2.12H11.4zM46 193.2v-2.13h10.64v2.12H46zM79.14 193.2v-2.13h10.63v2.12H79.14zM111.4 193.2v-2.13H122v2.12H111.4zM141.86 189.3l-1.5-1.5 7.52-7.5 1.5 1.5-7.52 7.5z" fill="#ffd612"/><path d="M169.92 29.98c.6-.2 1.2-.47 1.75-.78-4.4.55-8.7-2.03-10.2-6.37-1.44-4.35.4-9.04 4.24-11.24-.6.06-1.23.22-1.84.4-4.98 1.67-7.66 7.1-5.96 12.05 1.7 4.96 7.07 7.58 12.02 5.93z" fill="#e4e4e4"/><path d="M116.47 138.24V126.8h14.3v11.44h-14.3z" fill="snow"/><path d="M115.75 140.64h.72v-14.77h-.72v14.77z"/><path d="M116.47 138.24v-5.45h14.86v5.44h-14.86z" fill="#82824d"/><path d="M130.77 140.64h.72v-14.77h-.73v14.77z"/><path d="M115.75 126.08v.72h15.6v-.72h-15.6zM117.7 135.05c.1-.03.13-.14.13-.24 0-.17-.1-.27-.3-.27h-.26v1.14h.3c.2 0 .3-.14.3-.32 0-.16-.06-.25-.17-.3zm-.23-.36h.08c.07 0 .1.04.1.12 0 .1-.02.14-.17.14zm0 .8v-.36h.04c.15 0 .18.08.18.2 0 .1-.06.17-.14.17zM118.8 135.67h.2l-.23-1.14h-.2l-.24 1.14h.2l.03-.26h.2zm-.2-.43l.06-.4.06.4zm-.3.46l.22-1.13-.03.03-.25 1.15h.2l.04-.05zm.47 0l-.04-.26h-.14l-.02.05h.1l.04.25h.2l.05-.05zm-.14-.5h.06l-.04-.18zM120.08 134.77c0-.12-.1-.26-.3-.26-.23 0-.3.15-.3.27v.66c0 .12.07.26.3.26.2 0 .3-.15.3-.3v-.36h-.3v.16h.1v.18c0 .1-.03.14-.1.14s-.1-.06-.1-.1v-.65c0-.03.03-.1.1-.1.06 0 .1.07.1.1v.1h.2zm-.08.17v-.05h-.16v-.13c0-.02-.02-.06-.06-.06-.04 0-.07.03-.07.05.06 0 .1.06.1.1v.1zm-.56.5v-.67-.08c-.03.03-.05.1-.05.15v.66c0 .13.07.27.3.27.1 0 .15-.03.2-.07l-.12.02c-.24 0-.34-.14-.34-.3zm.37.05c.05-.03.06-.06.06-.12v-.15h-.1v-.1h-.05v.15h.12V135.5zM120.58 134.5c-.23 0-.3.15-.3.27v.66c0 .12.07.26.3.26.2 0 .3-.15.3-.27v-.66c0-.12-.1-.26-.3-.26zm.1.93c0 .03-.05.1-.1.1-.08 0-.1-.06-.1-.1v-.66c0-.04.02-.1.1-.1.05 0 .1.06.1.1zm-.44 0v-.66-.08c-.03.03-.05.1-.05.15v.66c0 .13.07.27.3.27.1 0 .16-.03.2-.07l-.12.02c-.24 0-.34-.14-.34-.3zm.34-.72c-.05 0-.07.03-.07.05.06 0 .1.06.1.1v.64l.04-.07v-.66c0-.02-.02-.06-.06-.06zM121.37 134.5c-.23 0-.3.15-.3.27v.66c0 .12.07.26.3.26.2 0 .3-.15.3-.27v-.66c0-.12-.1-.26-.3-.26zm.1.93c0 .03-.04.1-.1.1-.07 0-.1-.06-.1-.1v-.66c0-.04.03-.1.1-.1.06 0 .1.06.1.1zm-.44 0v-.66-.08c-.03.03-.04.1-.04.15v.66c0 .13.07.27.3.27.08 0 .15-.03.2-.07l-.13.02c-.23 0-.34-.14-.34-.3zm.34-.72c-.04 0-.06.03-.07.05.06 0 .1.06.1.1v.64c.02-.02.03-.05.03-.07v-.66c0-.02-.02-.06-.06-.06zM122.48 134.72c-.03-.1-.13-.2-.24-.2h-.37v1.15h.37c.17 0 .25-.15.25-.32v-.5c0-.04 0-.1-.02-.13zm-.18.63c0 .1-.02.16-.1.16h-.13v-.8h.12c.08 0 .1.06.1.15zm-.23.35h-.23v-1.1h-.05v1.15h.36c.06 0 .12-.02.16-.06h-.08zm.12-.98h-.1v.05h.02c.08 0 .1.07.1.16v.55c.02 0 .05-.04.05-.13v-.5c0-.1-.04-.13-.08-.13zM123.36 135.05c.1-.03.13-.14.13-.24 0-.17-.1-.27-.3-.27h-.27v1.14h.3c.2 0 .3-.14.3-.32 0-.16-.06-.25-.17-.3zm-.23-.36h.08c.08 0 .1.04.1.12 0 .1 0 .14-.16.14zm0 .8v-.36h.05c.13 0 .16.08.16.2 0 .1-.05.17-.14.17zM124.46 135.67h.2l-.23-1.14h-.2l-.24 1.14h.18l.04-.26h.2zm-.2-.43l.06-.4.07.4zm-.3.46l.22-1.13-.03.03-.24 1.15h.2l.05-.05zm.47 0l-.04-.26h-.15v.05h.1l.03.25h.2l.05-.05zm-.14-.5h.05l-.03-.18zM125.24 134.53v.63l-.2-.63h-.2v1.14h.2v-.65l.2.65h.2v-1.14zm-.03.07h-.03v.22l.04.15zm-.4 0h-.04v1.15h.2v-.04h-.16zm.27.6v.23l.1.32h.2v-.04h-.15zM126.26 134.72c-.02-.1-.12-.2-.24-.2h-.36v1.15h.36c.18 0 .26-.15.26-.32v-.5c0-.04 0-.1-.02-.13zm-.17.63c0 .1-.03.16-.12.16h-.12v-.8h.12c.1 0 .1.06.1.15zm-.24.35h-.24v-1.1h-.04v1.15h.37c.06 0 .1-.02.16-.06h-.08zm.12-.98h-.1v.05h.03c.1 0 .1.07.1.16v.55c.03 0 .05-.04.05-.13v-.5c0-.1-.03-.13-.07-.13zM127 134.53v.9c0 .03-.03.1-.1.1-.03 0-.06-.02-.1-.04l-.1.1c.05.06.1.1.2.1.23 0 .3-.15.3-.27v-.9zm-.02.9v-.83h-.05v.9c.03-.02.05-.06.05-.07zm-.08.3c-.1 0-.17-.04-.2-.1l-.07.06c.04.03.1.07.2.07s.17-.03.22-.07l-.15.02zM127.72 134.5c-.23 0-.3.15-.3.27v.66c0 .12.07.26.3.26.2 0 .3-.15.3-.27v-.66c0-.12-.1-.26-.3-.26zm.1.93c0 .03-.04.1-.1.1-.07 0-.1-.06-.1-.1v-.66c0-.04.03-.1.1-.1.06 0 .1.06.1.1zm-.44 0v-.66-.08c-.03.03-.04.1-.04.15v.66c0 .13.08.27.3.27.1 0 .16-.03.2-.07l-.12.02c-.23 0-.34-.14-.34-.3zm.34-.72c-.04 0-.06.03-.07.05.05 0 .1.06.1.1v.64c.02-.02.03-.05.03-.07v-.66c0-.02-.02-.06-.06-.06zM128.2 134.53v1.14h.22v-1.14zm0 .07h-.06v1.15h.2v-.05h-.15zM129.04 134.53v.63l-.2-.63h-.2v1.14h.2v-.65l.2.65h.2v-1.14zm-.03.07h-.04v.22l.05.15zm-.4 0h-.05v1.15h.2v-.04h-.15zm.26.6v.23l.1.32h.2v-.04h-.15zM121.2 136.48h-.56v.14h.18v.88h.18v-.88h.2zM121.73 136.48v.4h-.2v-.4h-.18v1.02h.18v-.48h.2v.48h.18v-1.02zm-.4.07h-.04v1.02h.17v-.04h-.14zm.37 0h-.04v.3h.04zm0 .5h-.14v.04h.1v.47h.18v-.04h-.14zM122.27 137.35v-.33h.2v-.14h-.2v-.25h.26v-.15h-.44v1.02h.45v-.15zm-.2-.8h-.05v1.02h.46v-.04h-.4zm.32.54v-.05h-.1v.04zm.06-.4v-.05h-.16v.05zM123.33 137.5h.18l-.2-1.02h-.18l-.2 1.02h.16l.04-.24h.18zm-.18-.38l.06-.37.07.37zm-.27.4l.2-1-.03.03-.2 1.02h.17l.04-.04zm.43 0l-.03-.23h-.13v.03h.1l.02.24h.2l.03-.04zm-.12-.44h.05l-.02-.16zM124.08 137.5h.2l-.2-.44c.08-.04.15-.14.15-.3 0-.15-.1-.28-.26-.28h-.3v1.02h.18v-.4h.05zm-.23-.57v-.3h.1c.08 0 .1.06.1.14 0 .15-.03.16-.15.16zm-.2-.38h-.05v1.02h.18v-.04h-.14zm.3.1h-.08v.05h.02c.07 0 .1.06.1.14 0 .03 0 .05-.02.06.04 0 .05-.04.05-.13 0-.1-.03-.12-.07-.12zm.1.88l-.16-.4h-.03v.12l.14.32h.2l-.02-.04zM124.88 136.48l-.12.6-.12-.6h-.24v1.02h.18v-.63l.12.63h.12l.12-.63v.63h.18v-1.02zm-.5.07h-.05v1.02h.18v-.04h-.13zm.46 0h-.03l-.05.33v.08zm.08.6l-.04.23v.2h.18v-.05h-.14zm-.3 0v.42h.14v-.04h-.08zM125.7 136.48l-.12.5-.13-.5h-.18l.22.62v.4h.16v-.4l.2-.62zm-.05.07h-.02l-.07.27.02.04zm-.2.56l-.18-.55h-.06l.22.62v.4h.17v-.04h-.14z"/><path d="M125.2 131.28l.13-.2 2.14 1.23-.13.22-2.14-1.24z" fill="#020201"/><path d="M125.32 131.6l.12-.2 2.14 1.22-.12.22-2.14-1.24z" fill="#020201"/><path d="M126.47 131.35l.1.06-.28.5-.1-.07z" fill="#020201"/><path d="M126.4 131.6c-.18-.1-.28-.22-.25-.28.03-.06.2-.03.36.07.18.08.28.2.25.26-.03.06-.2.03-.36-.07zM125.6 132.02c-.12.06-.26.02-.33-.1l-.2-.33-.13.07.2.34c.1.2.34.26.53.15l.35-.2-.08-.13-.35.2z" fill="#020201"/><path d="M124.86 131.45v-1.82h2.37c.5 0 .9.4.9.9s-.4.92-.9.92h-2.37z" fill="#a1a1a1"/><path d="M126 130.23l-.47.47-.1-.12.46-.47c.24-.24.6-.32.75-.16l-.2.2c-.1-.1-.3-.06-.45.1z" fill="#020201"/><path d="M126.9 130.23l.48.47.1-.1-.46-.48c-.26-.26-.6-.34-.75-.2l.2.2c.08-.1.28-.04.44.1z" fill="#020201"/><path d="M127.9 132.13c-.33 0-.6-.27-.6-.6 0-.32.27-.6.6-.6.32 0 .6.28.6.6 0 .33-.28.6-.6.6z" fill="#a1a1a1"/><path d="M128.07 131.62c0 .1-.08.18-.17.18-.1 0-.18-.08-.18-.18 0-.1.08-.17.18-.17.1 0 .17.08.17.17zM126.85 131.58h-.7v-.36c0-.2.15-.35.35-.35.2 0 .35.16.35.35v.36zM128.77 130.63c-.12.06-.26.03-.33-.1l-.2-.33-.13.08.2.34c.1.2.36.25.54.15l.35-.2-.1-.14-.33.2z" fill="#020201"/><path d="M129.04 132.03h.1c0 .7-.22 1.25-.5 1.25v-.25c.23 0 .4-.45.4-1z" fill="#00c6e8"/><path d="M124.83 129.56h.9v4.5h-.9z" fill="#707ca1"/><path d="M129.34 132.72c0-.35-.13-.66-.34-.9.22-.24.34-.56.34-.9 0-.75-.6-1.36-1.35-1.36h-3.17v.9H128c.24 0 .44.2.44.46 0 .24-.2.45-.45.45h-3.17v.9H128c.24 0 .44.2.44.45s-.2.45-.45.45h-3.17v.9H128c.74 0 1.34-.6 1.34-1.35z" fill="#707ca1"/><path d="M125.45 133.95v-1.82h2.37c.5 0 .9.4.9.9s-.4.92-.9.92h-2.37z" fill="#707ca1"/><path d="M125.8 133.8l-.5.15-.8-2.5.5-.16.8 2.5zM128.32 133.8l.5.15.8-2.5-.5-.16-.8 2.5zM125.55 131.43v-1.24h3.1v1.23h-3.1z" fill="#707ca1"/><path d="M125.62 130.82l-.4.05c.17.06.43.12.74.15l.23-.08c-.25-.03-.44-.07-.58-.12zM126.23 130.95l-.24.08c.3.03.65.06 1.03.06v-.1c-.3 0-.56-.02-.8-.05zM127.1 131h-.02v.1h.02c.37 0 .73-.03 1.04-.06l-.24-.08c-.23.02-.5.04-.8.04zM127.94 130.95l.24.08c.32-.03.6-.1.8-.15l-.42-.05c-.15.05-.37.1-.62.12z" fill="#020201"/><path d="M127.44 134.07h-.7v-.35c0-.2.15-.36.35-.36.18 0 .34.16.34.36v.35z" fill="#f01000"/><path d="M129.1 132.03h.1c0 .7-.2 1.25-.48 1.25v-.25c.22 0 .4-.45.4-1z" fill="#00c6e8"/><path d="M129.15 132.13l.28.16-.8 1.38-.28-.16z" fill="#020201"/><path d="M128.97 132.4l.12-.22 2.13 1.23-.12.23-2.13-1.24z" fill="#020201"/><path d="M129.08 132.7l.13-.2 2.14 1.23-.12.22-2.14-1.24z" fill="#020201"/><path d="M129.9 132.7l-.13.26-1.27-.73.15-.25zM130.24 132.46l.1.06-.28.47-.1-.06z" fill="#020201"/><path d="M130.15 132.7c-.16-.1-.27-.22-.24-.28.05-.05.2-.02.37.07.17.1.28.2.24.27-.02.06-.18.03-.35-.07zM129.36 133.12c-.12.07-.26.03-.33-.08l-.2-.34-.13.07.2.35c.1.18.35.25.54.14l.34-.2-.08-.13-.34.2z" fill="#020201"/><path d="M125.17 132.13h-.1c0 .7.22 1.25.48 1.25v-.25c-.2 0-.38-.45-.38-1z" fill="#00c6e8"/><path d="M125.24 128.25c0-.06-.02-.1-.04-.1 0 0-.03.04-.03.1 0 .03-.08 1.38-.08 1.6 0 .2.04.37.1.37.07 0 .12-.17.12-.38l-.08-1.6z" fill="#020201"/><path d="M128.9 130.82l.2-.04c-.1-.57-.65-.95-1.22-.85l.03.2c.47-.08.9.23 1 .7z" fill="#fefbf2"/><path d="M125.9 131.54l1.17.23.05-.25-1.17-.24c-.65-.12-1.23.06-1.3.4l.47.1c.04-.2.4-.32.77-.24z" fill="#f01000"/><path d="M128.25 131.54l-1.17.23-.05-.25 1.17-.24c.65-.12 1.23.06 1.3.4l-.47.1c-.04-.2-.4-.32-.78-.24z" fill="#f01000"/><path d="M126.4 132.52l.1.14-.7.4-.08-.14zM127.64 132.52l-.08.14.7.4.08-.14z" fill="#020201"/><path d="M126.42 132.52l-.08.14.7.4.07-.14z" fill="#020201"/><path d="M127.64 132.52l.08.14-.7.4-.07-.14zM117.97 131.28l.12-.2 2.13 1.23-.12.22-2.13-1.24z" fill="#020201"/><path d="M118.08 131.6l.13-.2 2.15 1.22-.13.22-2.14-1.24z" fill="#020201"/><path d="M119.24 131.35l.1.06-.28.5-.1-.07z" fill="#020201"/><path d="M119.15 131.6c-.16-.1-.27-.22-.23-.28.03-.06.2-.03.35.07.17.08.28.2.24.26-.02.06-.18.03-.35-.07zM118.36 132.02c-.1.06-.26.02-.32-.1l-.2-.33-.14.07.2.34c.1.2.35.26.54.15l.34-.2-.08-.13-.34.2z" fill="#020201"/><path d="M117.62 131.45v-1.82H120c.5 0 .9.4.9.9s-.4.92-.9.92h-2.38z" fill="#a1a1a1"/><path d="M118.77 130.23l-.47.47-.12-.12.47-.47c.26-.24.6-.32.76-.16l-.17.2c-.1-.1-.3-.06-.46.1z" fill="#020201"/><path d="M119.67 130.23l.47.47.1-.1-.46-.48c-.26-.26-.6-.34-.75-.2l.2.2c.08-.1.28-.04.44.1z" fill="#020201"/><path d="M120.66 132.13c-.32 0-.6-.27-.6-.6 0-.32.27-.6.6-.6.33 0 .6.28.6.6 0 .33-.27.6-.6.6z" fill="#a1a1a1"/><path d="M120.84 131.62c0 .1-.08.18-.18.18-.1 0-.17-.08-.17-.18 0-.1.07-.17.16-.17.1 0 .18.08.18.17zM119.62 131.58h-.72v-.36c0-.2.16-.35.36-.35.2 0 .36.16.36.35v.36zM121.53 130.63c-.1.06-.26.03-.32-.1l-.2-.33-.13.08.2.34c.1.2.35.25.54.15l.35-.2-.08-.14-.34.2z" fill="#020201"/><path d="M121.8 132.03h.1c0 .7-.22 1.25-.48 1.25v-.25c.2 0 .38-.45.38-1z" fill="#00c6e8"/><path d="M117.6 129.56h.9v4.5h-.9z" fill="#707ca1"/><path d="M122.1 132.72c0-.35-.12-.66-.33-.9.2-.24.34-.56.34-.9 0-.75-.6-1.36-1.34-1.36h-3.16v.9h3.16c.24 0 .45.2.45.46 0 .24-.2.45-.44.45h-3.16v.9h3.16c.24 0 .45.2.45.45s-.2.45-.44.45h-3.16v.9h3.16c.74 0 1.35-.6 1.35-1.35z" fill="#707ca1"/><path d="M118.22 133.95v-1.82h2.36c.5 0 .9.4.9.9s-.4.92-.9.92h-2.36z" fill="#707ca1"/><path d="M118.57 133.8l-.5.15-.8-2.5.5-.16.8 2.5zM121.08 133.8l.5.15.8-2.5-.5-.16-.8 2.5zM118.3 131.43v-1.24h3.13v1.23h-3.12z" fill="#707ca1"/><path d="M118.38 130.82l-.4.05c.18.06.43.12.74.15l.24-.08c-.24-.03-.44-.07-.58-.12zM119 130.95l-.24.08c.3.03.66.06 1.04.06v-.1c-.3 0-.57-.02-.8-.05zM119.86 131h-.02v.1h.02c.38 0 .73-.03 1.04-.06l-.23-.08c-.24.02-.52.04-.8.04zM120.7 130.95l.24.08c.32-.03.6-.1.8-.15l-.42-.05c-.15.05-.36.1-.6.12z" fill="#020201"/><path d="M120.2 134.07h-.7v-.35c0-.2.16-.36.35-.36.2 0 .36.16.36.36v.35z" fill="#f01000"/><path d="M121.87 132.03h.1c0 .7-.22 1.25-.48 1.25v-.25c.2 0 .37-.45.37-1z" fill="#00c6e8"/><path d="M121.92 132.13l.27.16-.8 1.38-.3-.16z" fill="#020201"/><path d="M121.73 132.4l.13-.22 2.13 1.23-.13.23-2.14-1.24z" fill="#020201"/><path d="M121.85 132.7l.12-.2 2.14 1.23-.1.22-2.15-1.24z" fill="#020201"/><path d="M122.68 132.7l-.15.26-1.26-.73.15-.25zM123 132.46l.1.06-.28.47-.1-.06z" fill="#020201"/><path d="M122.92 132.7c-.17-.1-.27-.22-.24-.28.03-.05.2-.02.36.07.16.1.27.2.24.27-.04.06-.2.03-.36-.07zM122.12 133.12c-.1.07-.26.03-.32-.08l-.2-.34-.13.07.2.35c.1.18.34.25.53.14l.34-.2-.08-.13-.34.2z" fill="#020201"/><path d="M117.93 132.13h-.1c0 .7.22 1.25.5 1.25v-.25c-.22 0-.4-.45-.4-1z" fill="#00c6e8"/><path d="M118 128.25c0-.06 0-.1-.03-.1-.02 0-.03.04-.03.1 0 .03-.08 1.38-.08 1.6 0 .2.05.37.1.37.07 0 .12-.17.12-.38l-.08-1.6z" fill="#020201"/><path d="M121.65 130.82l.2-.04c-.1-.57-.64-.95-1.2-.85l.03.2c.46-.08.9.23.97.7z" fill="#fefbf2"/><path d="M118.66 131.54l1.17.23.05-.25-1.17-.24c-.64-.12-1.22.06-1.3.4l.48.1c.04-.2.4-.32.78-.24z" fill="#f01000"/><path d="M121.02 131.54l-1.18.23-.05-.25 1.17-.24c.64-.12 1.23.06 1.3.4l-.47.1c-.05-.2-.4-.32-.78-.24z" fill="#f01000"/><path d="M119.18 132.52l.08.14-.7.4-.08-.14zM120.4 132.52l-.07.14.7.4.07-.14z" fill="#020201"/><path d="M119.18 132.52l-.08.14.7.4.08-.14z" fill="#020201"/><path d="M120.4 132.52l.1.14-.7.4-.1-.14zM121.6 130.75l.12-.2 2.14 1.22-.13.2-2.13-1.22z" fill="#020201"/><path d="M121.7 131.07l.13-.22 2.14 1.24-.12.2-2.14-1.23z" fill="#020201"/><path d="M122.86 130.82l.1.05-.28.48-.1-.05z" fill="#020201"/><path d="M122.78 131.06c-.16-.1-.27-.22-.24-.28.04-.06.2-.02.36.07.17.1.27.22.24.28-.03.06-.2.03-.36-.07zM122 131.48c-.13.07-.27.03-.34-.1l-.2-.33-.13.08.2.34c.1.2.35.26.53.15l.35-.2-.07-.14-.34.2z" fill="#020201"/><path d="M121.25 130.9v-1.8h2.37c.5 0 .9.4.9.9s-.4.9-.9.9h-2.37z" fill="#a1a1a1"/><path d="M122.4 129.7l-.48.47-.1-.12.46-.47c.26-.26.6-.34.76-.18l-.2.2c-.1-.1-.3-.06-.45.1z" fill="#020201"/><path d="M123.3 129.7l.47.47.1-.1-.46-.48c-.25-.27-.6-.36-.74-.2l.2.2c.08-.1.28-.06.44.1z" fill="#020201"/><path d="M124.3 131.6c-.34 0-.6-.27-.6-.6 0-.33.26-.6.6-.6.32 0 .58.27.58.6 0 .33-.26.6-.6.6z" fill="#a1a1a1"/><path d="M124.46 131.1c0 .1-.07.16-.17.16s-.2-.07-.2-.17.1-.2.2-.2.16.1.16.2zM123.24 131.04h-.7v-.35c0-.2.15-.37.35-.37.18 0 .34.16.34.36v.34zM125.16 130.1c-.12.06-.26.02-.33-.1l-.2-.33-.13.07.2.35c.1.17.35.24.54.13l.34-.2-.08-.13-.34.2z" fill="#020201"/><path d="M125.43 131.5h.1c0 .68-.22 1.24-.48 1.24v-.25c.2 0 .38-.45.38-1z" fill="#00c6e8"/><path d="M121.22 129.03h.9v4.5h-.9z" fill="#707ca1"/><path d="M125.73 132.2c0-.36-.13-.68-.34-.92.2-.24.33-.55.33-.9 0-.75-.6-1.35-1.35-1.35h-3.16v.9h3.16c.25 0 .45.2.45.45s-.2.45-.45.45h-3.16v.9h3.16c.25 0 .45.2.45.46 0 .23-.2.44-.45.44h-3.16v.9h3.16c.75 0 1.35-.6 1.35-1.35z" fill="#707ca1"/><path d="M121.84 133.4v-1.8h2.37c.5 0 .92.4.92.9s-.4.9-.9.9h-2.38z" fill="#707ca1"/><path d="M122.2 133.25l-.5.16-.8-2.48.5-.16.8 2.5zM124.7 133.25l.5.16.8-2.48-.5-.16-.8 2.5zM121.94 130.9v-1.25h3.12v1.25h-3.12z" fill="#707ca1"/><path d="M122 130.3l-.4.04c.18.06.44.1.75.15l.23-.1c-.24-.02-.43-.06-.57-.1zM122.62 130.4l-.24.1c.3.03.66.05 1.04.05v-.1c-.3 0-.56 0-.8-.04zM123.5 130.46h-.03v.1h.02c.36 0 .72-.03 1.03-.06l-.24-.08c-.24.03-.52.04-.8.04zM124.33 130.42l.24.08c.32-.04.6-.1.8-.16l-.42-.04c-.15.05-.36.1-.62.12z" fill="#020201"/><path d="M123.84 133.54h-.72v-.36c0-.2.16-.35.36-.35.2 0 .36.16.36.35v.36z" fill="#f01000"/><path d="M125.5 131.5h.1c0 .68-.22 1.24-.48 1.24v-.25c.2 0 .38-.45.38-1z" fill="#00c6e8"/><path d="M125.54 131.6l.28.15-.8 1.4-.28-.17z" fill="#020201"/><path d="M125.36 131.86l.12-.22 2.14 1.24-.12.2-2.14-1.22z" fill="#020201"/><path d="M125.47 132.18l.13-.22 2.14 1.24-.13.2-2.13-1.22z" fill="#020201"/><path d="M126.3 132.17l-.14.26-1.26-.73.14-.26zM126.63 131.93l.1.05-.28.48-.1-.06z" fill="#020201"/><path d="M126.54 132.17c-.16-.1-.27-.22-.24-.28.04-.07.2-.04.36.06.17.1.28.22.24.28-.03.05-.2.02-.36-.07zM125.75 132.6c-.1.05-.26.02-.32-.1l-.2-.34-.14.08.2.34c.1.2.34.25.53.15l.34-.2-.08-.14-.35.2z" fill="#020201"/><path d="M121.56 131.6h-.1c0 .68.22 1.24.48 1.24v-.25c-.2 0-.38-.45-.38-1z" fill="#00c6e8"/><path d="M121.63 127.7c0-.04-.02-.08-.03-.08-.02 0-.03.04-.04.1 0 .02-.08 1.37-.08 1.58 0 .2.05.38.12.38.06 0 .1-.17.1-.38l-.07-1.6z" fill="#020201"/><path d="M125.28 130.28l.2-.03c-.1-.58-.64-.96-1.2-.86l.02.2c.46-.08.9.22.98.68z" fill="#fefbf2"/><path d="M122.3 131l1.16.24.05-.26-1.16-.23c-.65-.13-1.23.05-1.3.4l.47.1c.05-.22.4-.32.8-.25z" fill="#f01000"/><path d="M124.64 131l-1.17.24-.05-.26 1.17-.23c.64-.13 1.22.05 1.3.4l-.48.1c-.04-.22-.4-.32-.78-.25z" fill="#f01000"/><path d="M122.8 131.98l.08.14-.7.4-.07-.13zM124.03 131.98l-.08.14.7.4.08-.13z" fill="#020201"/><path d="M122.8 131.98l-.07.14.7.4.07-.13z" fill="#020201"/><path d="M124.03 131.98l.08.14-.68.4-.08-.13z" fill="#020201"/><path d="M207.45 209.34c-7.24 0-13.1-2.8-13.1-6.23 0-3.43 5.86-6.2 13.1-6.2 7.25 0 13.12 2.77 13.12 6.2 0 3.45-5.87 6.24-13.12 6.24z" fill="#392d2c" stroke-width="1.66" stroke="#2e2e2e" stroke-linecap="square"/><path d="M201.83 203.07c.1-.04.16-.17.16-.3 0-.2-.14-.34-.37-.34h-.32v1.38h.38c.23 0 .36-.16.36-.38 0-.2-.08-.3-.2-.35zm-.27-.44h.1c.08 0 .1.06.1.16 0 .12-.02.16-.2.16zm0 .98v-.44h.05c.16 0 .2.1.2.26 0 .1-.06.2-.16.2zM202.62 202.42c-.27 0-.37.17-.37.3v.8c0 .14.1.3.37.3.24 0 .35-.16.35-.3v-.8c0-.13-.1-.3-.35-.3zm.1 1.1c0 .04-.03.1-.1.1-.1 0-.12-.06-.12-.1v-.8c0-.04.03-.1.12-.1.07 0 .1.06.1.1zm-.5 0v-.8-.1c-.04.06-.06.13-.06.2v.8c0 .13.1.3.37.3.1 0 .2-.03.24-.08-.04.02-.1.03-.15.03-.28 0-.4-.18-.4-.35zm.4-.87c-.05 0-.07.03-.08.06.06 0 .1.08.1.12v.77c.03-.02.05-.06.05-.08v-.8c0-.02-.03-.07-.08-.07zM203.77 203.17l-.25-.28c-.05-.07-.07-.12-.07-.18s.05-.1.1-.1c.07 0 .12.05.12.14v.06h.25v-.1c0-.18-.15-.3-.36-.3-.2 0-.36.12-.36.3 0 .2.05.25.2.4l.2.2c.05.05.07.1.07.18 0 .08-.05.13-.1.13-.07 0-.12-.04-.12-.13v-.13h-.24v.15c0 .2.17.3.36.3.2 0 .37-.1.37-.3 0-.16-.06-.24-.16-.35zm-.6.35v-.05h-.06v.14c0 .2.17.32.37.32.1 0 .2-.03.26-.08-.05.02-.1.03-.17.03-.23 0-.4-.14-.4-.35zm.26-.18h.06v.06c.05.07.08.12.08.2.03-.02.06-.05.06-.1s-.02-.1-.08-.16l-.2-.2c-.14-.14-.2-.22-.2-.4 0-.05 0-.08.02-.12-.04.06-.07.12-.07.2 0 .2.05.24.2.38zm.16-.43h.23v-.04h-.2v-.1c0-.06-.02-.1-.07-.1-.03 0-.06 0-.07.05.04.02.08.07.08.16v.05zM204.72 203.17l-.25-.28c-.05-.07-.07-.12-.07-.18s.05-.1.1-.1c.07 0 .12.05.12.14v.06h.25v-.1c0-.18-.15-.3-.36-.3-.2 0-.34.12-.34.3 0 .2.04.25.18.4l.2.2c.06.05.08.1.08.18 0 .08-.05.13-.1.13-.07 0-.12-.04-.12-.13v-.13h-.24v.15c0 .2.16.3.35.3.2 0 .38-.1.38-.3 0-.16-.06-.24-.16-.35zm-.6.35v-.05h-.05v.14c0 .2.16.32.35.32.1 0 .2-.03.26-.08-.05.02-.1.03-.17.03-.22 0-.38-.14-.38-.35zm.26-.18h.06v.06c.06.07.1.12.1.2.03-.02.05-.05.05-.1s-.03-.1-.08-.16l-.2-.2c-.15-.14-.2-.22-.2-.4v-.12c-.03.06-.06.12-.06.2 0 .2.05.24.2.38zm.16-.43h.24v-.04h-.2v-.1c0-.06-.02-.1-.07-.1-.02 0-.05 0-.06.05.05.02.1.07.1.16v.05zM205.12 202.43v1.38h.24v-1.37zm-.04.1h-.05v1.37h.24v-.05h-.2zM206.33 202.73c0-.15-.1-.3-.36-.3-.27 0-.37.15-.37.3v.8c0 .13.1.3.37.3.25 0 .36-.17.36-.3v-.12h-.25v.12c0 .04-.04.1-.1.1-.1 0-.13-.06-.13-.1v-.8c0-.03.04-.1.12-.1.07 0 .1.07.1.1v.1h.26zm-.77.8v-.8c0-.04 0-.07.02-.1-.05.06-.07.12-.07.2v.78c0 .15.1.32.38.32.1 0 .2-.03.25-.08-.05.02-.1.03-.16.03-.28 0-.4-.18-.4-.35zm.43.06c.03-.02.05-.06.05-.08v-.07l-.06.05zm.3-.73h-.25v-.14c0-.02-.03-.08-.08-.08s-.07.03-.08.06c.06 0 .1.08.1.12v.1h.24zM207 202.43v1.1c0 .03-.03.1-.1.1-.1 0-.12-.07-.12-.1v-1.1h-.25v1.1c0 .13.1.3.37.3.24 0 .35-.17.35-.3v-1.1zm-.03 1.1v-1h-.05v1.06c.03-.02.05-.06.05-.08zm-.48-1h-.06v1.08c0 .15.1.32.37.32.1 0 .2-.03.25-.08-.04.02-.1.03-.15.03-.28 0-.4-.18-.4-.35zM208.06 203.17l-.25-.28c-.05-.07-.06-.12-.06-.18s.05-.1.1-.1c.07 0 .12.05.12.14v.06h.25v-.1c0-.18-.14-.3-.35-.3-.2 0-.36.12-.36.3 0 .2.03.25.18.4l.2.2c.06.05.08.1.08.18 0 .08-.05.13-.1.13-.07 0-.12-.04-.12-.13v-.13h-.24v.15c0 .2.15.3.35.3.2 0 .37-.1.37-.3 0-.16-.07-.24-.16-.35zm-.6.35v-.05h-.06v.14c0 .2.16.32.36.32.1 0 .2-.03.26-.08-.05.02-.1.03-.17.03-.23 0-.4-.14-.4-.35zm.26-.18h.06v.06c.06.07.1.12.1.2.02-.02.05-.05.05-.1s-.02-.1-.08-.16l-.2-.2c-.14-.14-.2-.22-.2-.4 0-.05 0-.08.02-.12-.04.06-.07.12-.07.2 0 .2.04.24.18.38zm.16-.43h.24v-.04h-.2v-.1c0-.06-.02-.1-.07-.1-.03 0-.06 0-.07.05.05.02.1.07.1.16v.05zM209.43 202.82v-.1c0-.18-.15-.3-.35-.3-.2 0-.36.12-.36.3 0 .2.05.23.18.4l.2.2c.06.06.1.1.1.18 0 .08-.06.13-.12.13-.07 0-.1-.04-.1-.13v-.12h-.26v.14c0 .2.16.3.36.3.2 0 .36-.1.36-.3 0-.16-.06-.24-.16-.35l-.25-.28c-.05-.07-.06-.12-.06-.18s.04-.1.1-.1c.06 0 .12.05.12.14v.06zM209.92 203.6v-.44h.25v-.2h-.25v-.33h.35v-.2h-.6v1.38h.63v-.2zm-.28-1.07h-.05v1.37h.6v-.05h-.56zm.44.73v-.06h-.12v.06zm.1-.53v-.06h-.22v.06zM211.56 202.43l-.16 1.02-.17-1.02H211l-.17 1.02-.16-1.02h-.25l.28 1.38h.24l.16-.8.17.8h.24l.3-1.37zm-.05.1h-.03l-.1.58.02.14zm-.56 0h-.04l-.1.58.03.14zm.16.65l-.03.18.1.54h.25v-.05h-.18zm-.7-.65h-.07l.28 1.37h.25v-.05h-.18zM212.24 203.6v-.44h.24v-.2h-.24v-.33h.34v-.2h-.6v1.38h.63v-.2zm-.3-1.07h-.04v1.37h.62v-.05h-.57zm.45.73v-.06h-.13v.06zm.1-.53v-.06h-.23v.06zM213.34 203.8h.25l-.27-.58c.12-.06.2-.2.2-.4s-.1-.4-.34-.4h-.42v1.4h.25v-.56h.07zm-.3-.75v-.42h.14c.1 0 .13.1.13.2 0 .2-.04.22-.2.22zm-.3-.52h-.05v1.37h.23v-.05h-.2zm.44.14h-.12v.06h.03c.1 0 .1.08.1.2v.07c.06 0 .07-.05.07-.17 0-.14-.04-.16-.1-.16zm.13 1.18l-.22-.56h-.02v.17l.2.43h.24l-.02-.05z" fill="#202020"/></svg>
