<svg xmlns="http://www.w3.org/2000/svg" width="300" height="300"><path d="M170.2 108.8v37.4h13.6v-37.4c0-20.6-15.3-37.3-34-37.3-19 0-34.2 16.7-34.2 37.3v37.4h13.7v-37.4c0-12.4 9-22.4 20.4-22.4 11.3 0 20.5 10 20.5 22.4z" fill="#777"/><path d="M99.2 207.8V127h101v80.8h-101z" fill="#777" stroke-width="9" stroke="#000"/><path d="M143.2 174.7l-4.2 17.2h21.4l-4.2-17.2a18 18 0 0 0 5.8-13.9c0-9-5.5-16.3-12.3-16.3-6.8 0-12.3 7.3-12.3 16.3a18 18 0 0 0 5.8 13.9z"/><path d="M235 206.4a19.4 19.4 0 0 0-9.7-2.5c-1.9-3.2-7-6.1-13.3-7.2-8.5-1.4-16 1-16.8 5.4-.7 4.4 5.6 9.1 14 10.5 4.4.8 8.5.5 11.5-.5 1.7 1 4 1.8 6.4 2.2 2.5.4 5 .4 6.9 0 2.3 2.8 7 5.2 12.6 6.1 5.5 1 10.6.3 13.7-1.5a19.8 19.8 0 0 0 10.1 2.2 21 21 0 0 0 12.8 6.3c8.5 1.5 16-1 16.7-5.3.8-4.4-5.5-9.1-14-10.6-4.9-.8-9.4-.4-12.5 1a20.3 20.3 0 0 0-11.6-1.9c-2.3-2.8-7-5.1-12.5-6-5.9-1-11.2-.3-14.3 1.8zm-15.3-1.5c-1.3.6-2.2 1.5-2.4 2.6 0 .4 0 .9.2 1.3-1.9.9-4.7 1.2-7.7.7-5.1-.9-8.9-3.7-8.4-6.4.4-2.6 5-4 10-3.2 4.3.7 7.6 2.8 8.3 5zm56 15c1.1-.6 1.8-1.4 2-2.3a3 3 0 0 0-.5-2c2-1 4.9-1.4 8.1-.9 5.1.9 9 3.7 8.5 6.3-.5 2.7-5 4.1-10 3.3-3.9-.7-7-2.4-8-4.4zm-18.6-7.1c-.3.3-.5.7-.6 1.2l.1 1.3c-1.4 1.8-5.2 2.7-9.5 2-5.1-1-8.9-3.8-8.4-6.4.4-2.6 5-4 10-3.2 4.3.7 7.7 2.8 8.4 5zM66 215c2 .3 4.4.4 7 0 2.4-.5 4.6-1.3 6.3-2.2 3 1 7.1 1.2 11.4.5 8.5-1.4 14.8-6.2 14-10.6-.7-4.4-8.2-6.8-16.7-5.3-6.3 1-11.4 4-13.3 7.2A21.8 21.8 0 0 0 65 207c-3-2-8.4-2.8-14.3-1.8-5.6 1-10.2 3.3-12.5 6-1.8-.2-4-.2-6.2.2-2 .4-3.9 1-5.4 1.7a23.3 23.3 0 0 0-12.5-1c-8.5 1.5-14.8 6.3-14 10.6.7 4.4 8.2 6.8 16.7 5.4a21 21 0 0 0 12.8-6.3 21.4 21.4 0 0 0 10-2.3c3.2 1.8 8.3 2.5 13.8 1.6 5.7-1 10.3-3.4 12.6-6.2zm16.5-5.5c.2-.5.2-1 .2-1.4-.2-1-1.1-2-2.4-2.5.7-2.2 4-4.3 8.3-5 5-.9 9.6.5 10 3.2.5 2.6-3.3 5.5-8.4 6.3-3 .5-5.8.2-7.7-.6zm-59.7 6.7a3 3 0 0 0-.5 2c.2 1 .9 1.8 2 2.4-1.1 2-4.2 3.7-8 4.3-5.1.9-9.6-.6-10-3.2-.5-2.6 3.3-5.5 8.4-6.3 3.2-.6 6.2-.2 8 .8zm20.6-.3c.1-.4.2-.8 0-1.3 0-.4-.2-.8-.5-1.2.7-2.2 4-4.3 8.4-5 5-1 9.6.5 10 3.2.5 2.6-3.3 5.4-8.4 6.3-4.3.7-8.1-.1-9.5-2zM41.7 88a22.3 22.3 0 0 0-9.4-6.6c-.7-4.2-5-9.4-11.3-13.1-8.5-5-17.5-5.6-20.1-1.2-2.6 4.4 2.2 12 10.7 17.1A28 28 0 0 0 24 88.3c1.5 1.8 3.5 3.5 6 5a22 22 0 0 0 7.3 2.8c1.3 4 5.3 8.4 11 11.8a24.7 24.7 0 0 0 15.3 4 22.7 22.7 0 0 0 10 6.5 24 24 0 0 0 11 12c8.5 5 17.5 5.6 20 1.2 2.7-4.4-2.1-12.1-10.6-17.1a26.7 26.7 0 0 0-13.7-4.2 23.2 23.2 0 0 0-11.7-6.7c-1.3-3.9-5.3-8.4-10.9-11.7-5.8-3.4-11.9-4.8-16-3.8zM26 80.3c-1.7.1-3 .7-3.7 1.8a3 3 0 0 0-.4 1.5c-2.3.1-5.4-.7-8.4-2.5-5.1-3-8-7.6-6.4-10.2 1.5-2.7 7-2.4 12 .7 4.3 2.5 7 6 6.9 8.7zm53.7 39c1.4-.1 2.5-.7 3-1.6.4-.7.5-1.5.4-2.4a15 15 0 0 1 9 2.5c5.1 3 8 7.6 6.4 10.2-1.6 2.6-7 2.3-12-.7-3.9-2.3-6.4-5.4-6.8-8zm-17-15.2a3 3 0 0 0-1.1 1 3 3 0 0 0-.4 1.4c-2.3 1.4-6.8.8-11-1.7-5.1-3-8-7.6-6.4-10.3 1.5-2.6 7-2.3 12 .7 4.3 2.6 7 6.2 6.9 8.9zM262.7 98.3a22 22 0 0 0 7.4-2.8c2.4-1.5 4.5-3.2 5.9-5a28 28 0 0 0 12.4-4.1c8.5-5 13.3-12.7 10.7-17-2.6-4.5-11.6-4-20 1-6.4 3.8-10.7 9-11.4 13.2a24.9 24.9 0 0 0-9.4 6.7c-4-1-10.2.4-16 3.8a24.5 24.5 0 0 0-11 11.7c-2 .5-4.2 1.4-6.4 2.7-2 1.2-3.8 2.6-5.1 4-4-.1-9 1.3-13.8 4.2-8.5 5-13.2 12.7-10.6 17 2.6 4.4 11.6 4 20-1.1a24 24 0 0 0 11-12 24.5 24.5 0 0 0 10-6.6c4 .7 9.8-.7 15.3-4 5.7-3.3 9.7-7.8 11-11.7zM278 85.7c0-.6-.1-1-.4-1.5-.6-1.1-2-1.7-3.6-1.8-.1-2.6 2.6-6.2 6.8-8.7 5.1-3 10.5-3.4 12-.7 1.6 2.6-1.2 7.2-6.3 10.2-3 1.8-6.1 2.6-8.5 2.5zM217 117.4c-.1 1 0 1.7.4 2.4.5 1 1.6 1.5 3 1.7-.3 2.5-2.9 5.6-6.7 8-5.1 3-10.5 3.2-12 .6-1.6-2.6 1.2-7.2 6.3-10.2a15 15 0 0 1 9-2.5zm22-8.8c0-.5-.2-1-.4-1.4a3 3 0 0 0-1.1-1c-.2-2.7 2.5-6.3 6.8-8.9 5.1-3 10.5-3.3 12-.7 1.6 2.7-1.2 7.2-6.3 10.3-4.3 2.5-8.8 3.1-11 1.7z" fill="#777"/></svg>