<svg xmlns="http://www.w3.org/2000/svg" width="300" height="300"><path d="M263 149.3c.3 62.4-50 113.2-112.3 113.6-62.4.3-113.2-50-113.6-112.3C36.8 88.3 87 37.5 149.4 37c62.4-.3 113.2 50 113.6 112.3z" stroke-width="20" stroke="#333" fill="#444"/><path d="M199 101c-12.7-12.8-30.3-20.7-49.7-20.7-38.8 0-70.2 31.5-70.2 70.3 0 39 31.5 70.4 70.3 70.4 32.8 0 60.2-22.4 68-52.8H199c-7.2 20.6-26.8 35.2-49.7 35.2-29 0-52.8-23.6-52.8-52.8 0-29 23.7-52.7 52.8-52.7 14.6 0 27.6 6 37 15.5L158 142h61.7V80.2z" fill="#f11"/></svg>
