<svg xmlns="http://www.w3.org/2000/svg" width="300" height="300"><path d="M153.6 96.7c0-17-12.2-31-27.5-31-12.8 0-23.7 10-26.7 23.9-2.8-13.7-13.7-24-26.7-24-15 0-27.4 14-27.4 31.1 0 8.6 2.1 14.8 7 20.4.5.6 2 2.1 2.6 3l44.7 46.4 44.6-46.6 1.2-1.2.2-.2c4.8-5.6 8-13.2 8-21.8z" fill="#d00"/><path d="M133 81.5c8.3 4.8 12.6 13 10.8 19.2a9 9 0 0 0 1.3-1.8c3.7-6.5-.7-16-9.9-21.2-9.1-5.3-19.4-4.4-23.2 2-.3.7-.7 1.4-.8 2 4.4-4.7 13.7-4.9 21.9-.2z" fill="#eee"/><path d="M45.1 52.2h17.5V96H45.1z" fill="#6d6"/><path d="M32 65.3h43.9v17.5H32z" fill="#6d6"/><path d="M268 178c0-17-12.2-31-27.4-31-12.9 0-23.8 10-26.7 23.9-2.9-13.7-13.8-24-26.7-24-15.1 0-27.5 13.9-27.5 31.1 0 8.5 2.1 14.8 7 20.4l2.7 3 44.6 46.4 44.6-46.6 1.2-1.2.2-.2c4.8-5.6 8-13.3 8-21.8z" fill="#d00"/><path d="M247.5 162.8c8.2 4.8 12.5 12.9 10.7 19.1a9 9 0 0 0 1.3-1.7c3.7-6.5-.7-16-9.9-21.2-9.1-5.3-19.4-4.4-23.2 2-.3.7-.7 1.4-.8 2 4.4-4.7 13.7-5 21.9-.2z" fill="#eee"/><path d="M159.5 133.5H177v43.9h-17.5z" fill="#6d6"/><path d="M146.4 146.6h43.9V164h-43.9z" fill="#6d6"/></svg>