<svg xmlns="http://www.w3.org/2000/svg" width="300" height="300"><path d="M49.7 259.92l-19.4-11.2L142 55.28l19.37 11.2L49.7 259.9z" fill="#fee7b6"/><path d="M138.63 66.47L158 55.27l111.7 193.45-19.4 11.2L138.64 66.47z" fill="#fee7b6"/><path d="M149.76 147.63c-1.38 1.62-8.38 5.05-15.94 4.06-5.66-.86-5.66-3.9-5.66-3.9s.77.7 2.76.7c3.85 0 5.23-4.5 8.9-6.85 4.76-3.08 9.9-.1 9.9-.1s5.23-2.98 9.9.1c3.66 2.44 5.22 6.86 8.9 6.86 1.98 0 2.76-.7 2.76-.7s0 3.15-5.66 3.86c-7.43 1.1-14.48-2.44-15.86-4.04zM79.13 89c-.5-2.37 1.88-4.24 4-3.37 4.74 1.88 13.6 3.87 28.2 2.62.76-15.97-7.23-34.2-11.22-42.2-1.1-2.1 0-4.73 2.4-5.48l54.9-17.97c2.5-.88 5.12 1 5.24 3.6.88 18.86 9.12 34.34 13.74 41.58 11.73-7.36 17.72-14.73 20.72-19.85 1.37-2.24 4.74-1.74 5.5.75 3.73 12.86 4.48 40.82-51.94 56.18-57.8 15.85-69.4-5-71.53-15.86z"/><path d="M90 146.3l-.4-.24-.15.23L30.6 248.23l19.47 11.25 49.28-85.35h101.08l49.2 85.23 19.48-11.24-58.97-102.15-.6.35H175.2v10.13h-53.66V146.3H90z"/></svg>