<svg xmlns="http://www.w3.org/2000/svg" width="300" height="300"><path d="M164.44 104.86c5.84-9.17 9.3-20.02 9.5-31.68.57-33.72-26.3-61.52-60.02-62.1-33.7-.57-61.5 26.3-62.1 60-.4 23.87 12.94 44.77 32.72 55.15l.07-6.26C68 110.12 57 91.87 57.35 71.2c.52-30.7 25.82-55.13 56.5-54.6 30.67.52 55.1 25.8 54.58 56.48-.2 11.86-4.1 22.8-10.58 31.7l6.6.08z" fill="#ddd"/><path d="M140.44 98.93l-.1 7.68c9.35-7.78 15.36-19.47 15.52-32.6.28-23.8-18.8-43.34-42.6-43.62-23.8-.3-43.34 18.8-43.62 42.6-.16 13.28 5.7 25.24 15.06 33.26l.1-7.6c-6.1-6.77-9.77-15.76-9.66-25.6.25-20.77 17.3-37.4 38.05-37.15 20.76.24 37.4 17.27 37.15 38.04-.12 9.65-3.86 18.4-9.9 25z" fill="#ddd"/><path d="M90.23 162.32c-5.32-3.97-10.2-6.52-14.1-7.33-17.67-3.68-31.55 9.45-28.92 16.85 3.18 12.88 20.78 17.95 42.06 55.8 0 .02 0 .02.02.03 1.83 3.27 3.7 6.78 5.58 10.57 4.06 10.4 8.55 27.1 11.16 46.5l130.6-.12c1.6-4.32 2.92-8.3 3.86-11.83 6.47-24.1 8.24-53.26 10.25-71.96v-1.22c.33-2.45.66-4.8.98-6.98l1.04-26.08c.5-12.53-9.35-23.1-21.88-23.58-6.67-.26-12.78 2.38-17.1 6.8v-.6c-.02-12.53-10.28-22.68-22.82-22.67-6.22 0-11.87 2.53-15.96 6.6v-1.45c-.02-12.54-10.27-22.7-22.8-22.68-6.5 0-12.37 2.75-16.5 7.13l-.02-12.26-.02-22.74c0-12.56-10.2-22.73-22.76-22.72-12.57.02-22.74 10.2-22.72 22.77l.02 22.74.05 58.42z" fill-opacity="0" stroke-width="6" stroke="#fff"/><path d="M215.55 175.85l-5 .05-.3-32 5-.06.3 32zM177.08 161.14l-5 .05-.3-32.02 5-.05.3 32zM137.96 161.4l-5 .04-.46-46.13 5-.04.46 46.13z" fill="#fff"/></svg>
