<svg xmlns="http://www.w3.org/2000/svg" width="300" height="168.8" viewBox="0 0 300 168.75"><path d="M125.4 136.4c-12.8-16.5-21.8-40.7-20-43 6.8 12 21.4 7.2 22.6-9 2-27 19-35 42-37.3 14.7-1.6 23.2-9 19.2-26 13 15.7 1 33-14 40-12.8 6-25 5.8-25.5 14.6-.7 12.2 9 14 13.4 21.4 5 8.4.3 22.4-11.3 23.8.3-.4 4.2-11.4-2.3-15.8-4.8-3.2-11.3-1.6-14.5 3.2-2.4 3.6-2.7 9.3-1 13 3.2 6.2 6.7 9.5 13.2 11.2 18.4 5.2 33-17 25.5-36-4-10-1-15.7 7.2-15-4.7 16.8 12.4 25.6 2 47.3-7.7 16-21.2 19-32 19-11.5-.3-19.4-5.3-24.6-11.3z" fill="#6cf" stroke-width="4" stroke="#7912fe"/></svg>
