<svg xmlns="http://www.w3.org/2000/svg" width="300" height="300"><path d="M110.78 220.67a5.56 5.56 0 0 0-7.63-.24l-23.63-23.62a5.56 5.56 0 0 0-.24-7.64c-2.15-2.15-5.49-2.15-7.87 0-2.39 2.15-2.15 5.49 0 7.88l31.74 31.73c2.14 2.15 5.48 2.15 7.87 0 1.9-2.62 1.9-5.96-.24-8.11z" fill="#ddd" stroke-width="20" stroke="#ddd"/><path d="M55.42 253.36l6.92-3.58 31.02-31.02-11.93-11.93-31.02 31.02-3.58 6.92c-1.2-1.19-2.87-1.19-3.82 0-1.2 1.2-1.2 2.87 0 3.82l8.83 8.83c1.2 1.2 2.86 1.2 3.82 0 .71-1.2.71-2.86-.24-4.06zM257.07 42.65l-18.86 1.67L82.62 199.67l17.42 17.66 155.6-155.6z" fill="#ddd" stroke-width="20" stroke="#ddd"/><path d="M189.8 49.72L73.35 80.76l23.1 86.65c12.75 47.88 49.14 79.7 81.32 71.13 32.18-8.58 47.9-54.29 35.14-102.17l-23.1-86.65z" fill="#900" stroke-width="12" stroke="#fed414"/><path d="M200.89 167.74l6.08-6.36-63.5-60.63-6.07 6.36 63.49 60.63zM145.98 104.6l-8.55-2.08-20.76 85.3 8.55 2.08 20.76-85.3z" fill="#fedd0c"/><path d="M176.14 137.8l-2.54-8.67-43.5 12.73 2.53 8.67 43.5-12.73z" fill="#fedd0c"/></svg>