<svg xmlns="http://www.w3.org/2000/svg" width="300" height="300"><path d="M115.7038 276.926l-58.7341-34.11-34.0807-59.2128.185-67.8994 34.4027-58.7333 58.9201-34.0815 67.8994.185 59.0259 34.4035 33.7889 58.9193-.185 67.8994-34.1108 59.0267-59.212 33.7881z" fill="#aa5a50" stroke-width="9" stroke="#000"/><path d="M150.9096 268.346c-65.3604.502-118.7526-52.0759-119.2556-117.4364C31.152 85.5492 83.7299 32.157 149.0904 31.654c65.3604-.502 118.7526 52.076 119.2556 117.4364.502 65.3604-52.076 118.7526-117.4364 119.2556z" fill="#e57d7d" stroke-width="4" stroke="#000"/><path d="M171.6386 150.4502l52.3986 71.9507-72.7477-51.2865-71.9507 52.3987 51.2865-72.7477-52.3987-71.9507 72.7477 51.2865 71.9508-52.3987z" fill="#aa5a50" stroke-width="2.8044" stroke="#000"/><path d="M81.7143 192.4118l-10.3907 10.5516c-29.1226-28.6782-29.4826-75.5888-.8048-104.7112l10.5516 10.3907c-22.9632 23.319-22.6751 60.8056.6439 83.7689zm20.4593-62.9877L91.622 119.0335c-17.1965 17.4629-16.98 45.6302.4829 62.8267l10.3906-10.5516c-11.6595-11.4817-11.8035-30.225-.3219-41.8845zm10.5516 10.3907c-5.7148 5.8033-5.6424 15.2273.161 20.9422l10.3906-10.5516-10.5516-10.3906zM192.9359 218.3573l10.5516 10.3906c-28.6781 29.1221-75.5888 29.4831-104.7111.8049l10.3906-10.5516c23.319 22.9632 60.8056 22.6751 83.7689-.6439zm-62.9876-20.4593l-10.3907 10.5516c17.4629 17.1964 45.6302 16.98 62.8267-.4829l-10.5516-10.3906c-11.4816 11.6594-30.225 11.8035-41.8844.3219zm10.3906-10.5516c5.8034 5.7148 15.2274 5.6424 20.9422-.161l-10.5516-10.3906-10.3906 10.5516zM191.9649 80.7716l10.3907-10.5515c-29.1224-28.6781-76.033-28.3181-104.7112.8048l10.5516 10.3906c22.9633-23.319 60.4499-23.6071 83.7689-.6439zm-62.6657 21.4252l-10.5516-10.3907c17.1965-17.4629 45.3638-17.6793 62.8267-.4829l-10.3906 10.5516c-11.6595-11.4816-30.4029-11.3375-41.8845.322zm10.5516 10.3906c5.7149-5.8034 15.1389-5.8758 20.9422-.161l-10.3906 10.5516-10.5516-10.3906zM220.983 191.9649l10.5516 10.3907c28.6784-29.1224 28.3174-76.033-.8049-104.7112l-10.3906 10.5516c23.319 22.9633 23.6071 60.4499.6439 83.7689zm-21.4251-62.6657l10.3906-10.5516c17.4629 17.1965 17.6793 45.3638.4829 62.8267l-10.5516-10.3906c11.4816-11.6595 11.3375-30.4029-.3219-41.8845zm-10.3907 10.5516c5.8034 5.7149 5.8758 15.1389.161 20.9422l-10.5516-10.3906 10.3906-10.5516z" fill="#aa5a50" stroke-width="3" stroke="#000"/><path d="M129.7663 129.3701l21.6946.2475-.0073-5.3559-27.0192-.3312-.2095 27.0204 5.3547.1144z" fill="#e57d7d" stroke-width="2" stroke="#000"/><path d="M172.2871 129.3701l-21.6946.2475.0073-5.3559 27.0191-.3312.2096 27.0204-5.3547.1144zM129.7649 171.9085l21.696-.0304-.0609 5.3555-27.0211.0609.0609-27.0211 5.3555-.0609z" fill="#e57d7d" stroke-width="2" stroke="#000"/><path d="M172.4425 171.9085l-21.696-.0304.0608 5.3555 27.0212.0609-.0609-27.0211-5.3555-.0609z" fill="#e57d7d" stroke-width="2" stroke="#000"/><path d="M150.5925 144.6115l6.1786-8.432-1.5991 10.3219 10.3219-1.5992-8.432 6.1786 8.432 6.1786-10.322-1.5991 1.5992 10.3219-6.1786-8.432-6.1786 8.432 1.5992-10.322-10.322 1.5992 8.432-6.1786-8.432-6.1786 10.322 1.5992-1.5992-10.3219z" fill="#e57d7d" stroke-width="1" stroke="#000"/><path d="M152.7824 145.7838h-4.3797l-3.1072 3.1072v4.3797l3.1072 3.1071h4.3797l3.1071-3.1071v-4.3797l-3.1071-3.1072zm2.5769 7.2748l-2.7996 2.7996h-3.9662l-2.789-2.7996v-3.9661l2.789-2.7996h3.9662l2.7996 2.7996v3.966zm-2.9905-6.278h-3.5738l-2.5133 2.5134v3.5737l2.5133 2.5133h3.5738l2.5133-2.5133v-3.5737l-2.5133-2.5133zm2.0785 5.8962l-2.2694 2.2694h-3.2026l-2.2694-2.2694v-3.2026l2.2694-2.2693h3.2026l2.2588 2.2693v3.2026h.0106zm-2.4709-4.9841h-2.7996l-1.983 1.983v2.789l1.983 1.983h2.7996l1.983-1.983v-2.7996l-1.983-1.9724zm1.6543 4.6554l-1.7815 1.7816h-2.5558l-1.7603-1.771v-2.5451l1.7922-1.7922h2.5239l1.7815 1.7922v2.5345z" fill="#aa5a50"/><path d="M151.8923 147.9335h-2.5996l-1.8443 1.8444v2.5996l1.8443 1.8443h2.5996l1.8443-1.8443v-2.5996l-1.8443-1.8444zm1.5296 4.3181l-1.6617 1.6618h-2.3542l-1.6555-1.6618v-2.3541l1.6555-1.6618h2.3541l1.6618 1.6618v2.3541zm-1.775-3.7264h-2.1213l-1.4918 1.4919v2.1212l1.4918 1.4918h2.1213l1.4918-1.4918v-2.1212l-1.4919-1.4919zm1.2337 3.4998l-1.347 1.347h-1.901l-1.347-1.347v-1.901l1.347-1.347h1.901l1.3407 1.347v1.901h.0063zm-1.4666-2.9584h-1.6618l-1.1771 1.177v1.6555l1.177 1.1771h1.6618l1.1771-1.177v-1.6618l-1.177-1.1708zm.9819 2.7633l-1.0575 1.0575h-1.517l-1.0449-1.0512v-1.5107l1.0638-1.0638h1.4981l1.0575 1.0638v1.5044z" fill="#aa5a50"/><path d="M151.395 149.1413h-1.6011l-1.1359 1.1358v1.6011l1.1359 1.136h1.601l1.136-1.136v-1.601l-1.136-1.136zm.942 2.6594l-1.0234 1.0235h-1.45l-1.0195-1.0235v-1.4499l1.0196-1.0235h1.4499l1.0234 1.0235v1.4499zm-1.0932-2.295h-1.3065l-.9188.9188v1.3064l.9188.9188h1.3065l.9188-.9188v-1.3064l-.9188-.9188zm.7598 2.1554l-.8296.8297h-1.1708l-.8296-.8297v-1.1707l.8296-.8297h1.1708l.8258.8297v1.1707h.0038zm-.9032-1.822h-1.0235l-.725.725v1.0195l.725.725h1.0235l.725-.725v-1.0235l-.725-.721zm.6047 1.7019l-.6513.6512h-.9343l-.6435-.6474v-.9304l.6552-.6552h.9226l.6513.6552v.9266z" fill="#aa5a50"/><path d="M151.0665 149.9807h-.8809l-.625.625v.8808l.625.625h.881l.6249-.625v-.8809l-.625-.625zm.5183 1.4632l-.563.5631h-.7978l-.561-.5631v-.7977l.561-.5631h.7977l.5631.563v.7978zm-.6015-1.2627h-.7188l-.5055.5055v.7188l.5055.5055h.7188l.5055-.5055v-.7188l-.5055-.5055zm.4181 1.186l-.4565.4564h-.6441l-.4565-.4565v-.6442l.4565-.4564h.6441l.4544.4564v.6442h.0021zm-.497-1.0026h-.563l-.399.3989v.561l.399.3988h.563l.3989-.3988v-.5632l-.3989-.3967zm.3328.9364l-.3584.3583h-.514l-.3541-.3562v-.5119l.3605-.3605h.5076l.3584.3605v.5098z" fill="#aa5a50"/></svg>