<svg xmlns="http://www.w3.org/2000/svg" width="300" height="300"><path fill="#dbfef7" d="M0 0h300v300H0z"/><path d="M178.34 109.44l-8.15 25.74 4.68 1.5 8.67-27.37h.04l-.03-.06.02-.07-.07-.02-8.34-20.55 15.7-15.7-.08-.08h.07V23.74h-4.93v47.1L169.5 87.33l.27.26-.26.1 8.84 21.76z" fill="#f9f9f9" stroke-width="1.35" stroke="#0095f5" stroke-linecap="square"/><path d="M268.78 56.52l-.1-.08-.23-.1h-.04l-1.25-.32-.06.23 1.22.3c.35.1.6.34.6.58 0-.02.02-.03.02-.03l.02-.04s0-.02.02-.03v-.04c.05-.18-.04-.35-.2-.48z" fill="#36231c"/><path d="M268.3 56.65l-1.24-.32-.05.23 1.37.35c.18.06.32.15.4.27.04-.2-.17-.44-.47-.52z" fill="#36231c"/><path d="M268.16 86.8h-1.32V55.46h1.32V86.8z"/><path d="M268.7 55.57l-.1-.03c-.1-.02-.17-.03-.26-.02h-.03l-1.3.1.02.23 1.27-.1c.34 0 .65.14.73.37v-.02-.02h.02v-.04V56v-.04c0-.17-.14-.3-.34-.4z" fill="#36231c"/><path d="M268.3 55.85l-1.28.08.02.24 1.4-.1c.2 0 .35.04.46.12-.02-.22-.3-.37-.6-.35z" fill="#36231c"/><path d="M172.93 146.42v-4.6h7.65v4.6h-7.65zM157.16 146.42v-4.6h7.64v4.6h-7.64z" fill="#c0c4c0"/><path d="M268.63 152.47h-34.68v-51.14h34.68v51.14z" fill="#c4c8c4"/><path d="M240.88 106.43h.72v4.7h-.72v-4.7zM248.32 106.43h.72v4.7h-.72v-4.7zM254.92 106.43h.72v4.7h-.72v-4.7zM262.77 106.43h.72v4.7h-.73v-4.7zM248.38 137.4h.72v3.67h-.72v-3.68zM254.92 137.4h.72v3.67h-.72v-3.68zM262.05 137.4h.72v3.67h-.72v-3.68zM258.96 132.63h.72v4.04h-.72v-4.04zM266.08 132.63h.72v4.04h-.72v-4.04zM251.63 132.63h.72v4.04h-.72v-4.04zM244.9 132.63h.72v4.04h-.72v-4.04zM237.1 132.63h.73v4.04h-.72v-4.04zM240.88 127.64h.72v4.27h-.72v-4.26zM248.32 127.64h.72v4.27h-.72v-4.26zM254.92 127.64h.72v4.27h-.72v-4.26zM262.05 127.64h.72v4.27h-.72v-4.26zM258.96 122.6h.72v4.32h-.72v-4.33zM266.08 122.6h.72v4.32h-.72v-4.33zM251.63 122.6h.72v4.32h-.72v-4.33zM244.9 122.6h.72v4.32h-.72v-4.33zM237.1 122.6h.73v4.32h-.72v-4.33zM240.88 117.3h.72v4.57h-.72v-4.56zM248.32 117.3h.72v4.57h-.72v-4.56zM254.92 117.3h.72v4.57h-.72v-4.56zM262.05 117.3h.72v4.57h-.72v-4.56zM258.95 111.87h.72v4.72h-.72v-4.73zM266.08 111.87h.72v4.72h-.72v-4.73zM251.63 111.87h.72v4.7h-.72v-4.7zM244.9 111.87h.72v4.7h-.72v-4.7zM237.1 111.87h.73v4.7h-.72v-4.7z" fill-opacity=".29"/><path d="M133.5 194.47V145.3h135.13v49.17H133.5z" fill="#c4c8c4"/><path d="M188.73 154.98h.72v3.58h-.72v-3.58zM180.58 154.98h.72v3.58h-.72v-3.58zM172.6 155h.73v3.57h-.72V155zM164.6 155h.72v3.57h-.72V155zM156.44 155h.72v3.57h-.72V155zM149.28 155h.72v3.57h-.72V155zM141.87 154.98h.72v3.58h-.73v-3.58zM135.42 154.98h.72v3.58h-.72v-3.58zM133.5 154.98v-.72h135.13v.72H133.5zM262.05 154.98h.72v3.58h-.72v-3.58zM254.92 154.98h.72v3.58h-.72v-3.58zM248.32 154.98h.72v3.58h-.72v-3.58zM240.86 154.98h.72v3.58h-.72v-3.58zM233.08 154.98h.72v3.58h-.72v-3.58zM225.88 155h.72v3.57h-.72V155zM218.58 154.98h.72v3.58h-.72v-3.58zM211.4 155h.7v3.57h-.7V155zM203.8 155h.7v3.57h-.7V155zM195.92 154.98h.72v3.58h-.72v-3.58zM133.5 159.3v-.73h135.13v.72H133.5zM133.5 163.55v-.72h135.13v.72H133.5z" fill-opacity=".29"/><path d="M192.76 159.3h.73v3.57h-.74v-3.58zM184.6 159.3h.73v3.57h-.72v-3.58zM176.65 159.3h.72v3.57h-.72v-3.58zM168.63 159.3h.72v3.57h-.72v-3.58zM160.47 159.3h.72v3.57h-.73v-3.58zM153.3 159.3h.73v3.57h-.72v-3.58zM145.9 159.3h.72v3.57h-.72v-3.58zM139.46 159.3h.72v3.57h-.72v-3.58zM266.08 159.3h.72v3.57h-.72v-3.58zM258.96 159.3h.72v3.57h-.72v-3.58zM252.35 159.3h.72v3.57h-.72v-3.58zM244.9 159.3h.72v3.57h-.72v-3.58zM237.1 159.3h.73v3.57h-.72v-3.58zM229.9 159.3h.73v3.57h-.72v-3.58zM222.6 159.3h.73v3.57h-.72v-3.58zM215.42 159.3h.72v3.57h-.72v-3.58zM207.82 159.3h.72v3.57h-.72v-3.58zM199.95 159.3h.72v3.57h-.72v-3.58zM188.73 146.42h.72V150h-.72v-3.58zM180.58 146.42h.72V150h-.72v-3.58zM172.6 146.42h.73V150h-.72v-3.58zM164.6 146.42h.72V150h-.72v-3.58zM156.44 146.42h.72V150h-.72v-3.58zM149.28 146.42h.72V150h-.72v-3.58zM141.87 146.42h.72V150h-.73v-3.58zM135.42 146.42h.72V150h-.72v-3.58z" fill-opacity=".29"/><path d="M0 300V180.23h300.06V300H0z" fill="#3c7a2f"/><path d="M103.54 183.47c-.07.92-.4 2.1-1.03 2.42-.07.04-.8.52-1.97.77-.44.1-.9.14-1.33.14-.06 0-.1-.03-.13-.1-.03-.08-.03-.15 0-.2 0 0 .15-.24.24-.5-.57.08-2.04.25-3.23-.35-.06-.03-.1-.1-.1-.18 0-.07.02-.14.07-.17.18-.1.36-.2.46-.3-.55-.44-2.14-1.85-2.6-4.02 0-.06 0-.13.04-.17.03-.03.08-.05.13-.03l1.36.55c-.08-.4-.18-1.13-.1-1.47 0-.06.05-.1.1-.1 0 0 0-.02.02-.02.08 0 1.8.14 3.07.84.03-.2.08-.53.14-.8.02-.08.06-.1.13-.12.03 0 .88.14 1.93.66 0-.17.03-.36.08-.44.04-.05.1-.07.14-.07.06 0 1.37.34 2.17 1.33.35.46.53 1.33.44 2.34zM133.13 171.78l.07.15s.35-.7-.2-1.1c-.56-.37-.94-.8-.63-1.03.23-.18.14-1.05.4-1.24.05 0 .13.06.23.13.7.6 1.2 1.2 1.65 1.3.46.07.6-.1 1.24.4.6.54 1.48 1.02 1.3 1.26-.16.27-.33 1.07.1 1.6.43.54 1.03 1.3 1.16 1.8v.13c-.24-.08-.7-.46-.7-.46l.07.2-.2-.17 1 2.6s.3.26.63.14c.12 0 .25-.06.37-.2.38-.45.32-.95.74-1.02.3-.05.35-.45.54-.56.07 0 .14.03.22.08.36.2.7.17 1 .1.2-.05.38-.12.53-.17.1-.05.18-.13.26-.17.16 0 .36.17.75.68.23.3.38.36.5.28.38.08.33-1.1.33-1.1l-.5-1.3c-.37-.26-.68-.44-.83-.34-.16 0-.25.1-.24.38.02.6-.07 1.07-.6 1.25l-.33.13c-.17 0-.32-.08-.7-.4-.44-.38-.72-.62-.85-.5-.14-.03-.2.1-.22.43 0 .36-.14.52-.33.6-.14 0-.3 0-.46-.03-.43-.07-.34-.68-.73-1.16-.4-.5-1.16-1.4-1.04-2 .1-.63.48-.84-.22-1.3-.7-.5-1.22-.9-1.47-1.47-.27-.6 0-.98-.54-1.48-.55-.5-.54-1.03-.17-1.75.3-.65.4-1.1.16-.87-.03-.07-.1-.04-.23.13-.35.43-.65 1.03-.77 1.56-.14.5.3.85.6 1.22.3.4.04.4-.04.8-.03.16-.1.26-.2.3-.18.02-.4-.1-.67-.33-.48-.45-1.3-1.2-1.63-1-.1 0-.16.03-.2.1-.26.32-.2.8-.4.95-.04 0-.06 0-.08.03-.36-.04-.2.53.34 1.1.52.56.93 1.48.93 1.48l.06-.18zm7.05 8.26c-.06 0-.12.02-.18.04-.25.08-.45.2-.67.27-.23.03-.48-.02-.83-.27-.76-.54-1.15-1-1.66-1.65-.5-.64-.33-1.06-.2-1.55.1-.3-.02-.42-.16-.3-.1-.07-.3.1-.4.64-.16.83-.17.66.18 1.34.36.68.37 1.1 0 1.3-.16.1-.23.18-.3.22-.1 0-.22-.06-.44-.18-.6-.32-1.17-1.2-1.74-1.2-.57 0-.64-.16-.85-.87-.2-.7-.4-1.67-.73-1.75-.04 0-.08 0-.12.03-.33-.06-.87 1.27-.3 1.57.57.3.8 1.17 1.3 1.35.48.2.88.1 1.66.8.66.6.83.86 1.34.72.13-.02.27-.07.45-.15.32-.15.54-.26.74-.32.22-.03.43.04.77.27.68.48 1.04.86 1.64.73l.13-.03.47-.1s-.1.02.7.64c.8.6 1.16 1.25 1.5 1.72.35.47.46.65.63 1.3.13.48.2.4.17.1.14.44.18.14.1-.34-.1-.55-.16-.6-.52-1.25-.36-.66-.46-1-.76-1.2-.53-.33-.67-.6-.84-1.24-.16-.63-.55-.8-1.08-.66zm-7.44-4.57c.1.1.4-.3.6-.44.22-.15.33-.22.7-.33.18-.02.3 0 .36-.05.22 0 .25-.05-.1-.67-.37-.6-.62-.72-.58-.54-.18-.14-.2.03.04.36.38.53.2.67-.2.8-.1.03-.17.07-.24.1-.15 0-.32-.1-.64-.47-.57-.67-.76-.92-.9-2.47-.16-1.54-.46-1.43-.72-1.75-.23-.3-.85-.43-1.27-.72-.46-.3-.7-.35-.83-.28-.36 0-.28.52-.48.76l-.05.04c-.23-.06-.5-.63-.88-1.07-.28-.32-.4-.34-.34-.18-.27-.23-.17.13.33.7.52.62.52 1.03.96.88.08 0 .18-.04.32-.1.36-.2.45-.4.56-.46.06 0 .14.03.24.08.46.24.95.4 1.36.8.4.4.28 1.23.46 2.18.17.93.3 1.1.8 1.65.5.56.37.6.33 1.06-.03.2.04.2.14.13zm4.9 6.25c0-.2-.06-.25-.18.23-.18.72-.2.9.33 1.46.5.57.94.96.72 1.4-.22.4-.9.96-.16 1.8.6.68 1.12 1.13.96.8.2.15.24.1 0-.27-.44-.64-1-1.1-.52-1.88.48-.78.32-.55-.4-1.74-.7-1.18-.6-.95-.6-1.4 0-.42-.03-.8-.15-.38z"/><path d="M228.98 214.05l-.72-.9-6 4.66v-5.9h-1.14v10.2l-3.87-1.74 1.35-3.9-1.06-.35-1.38 3.86-1.58-.72-.43 1.06 6.97 3.04v13.5h1.15v-17.6zM38 204.38l-.47-.58-3.9 3.03v-3.85h-.75v6.65l-2.52-1.14.88-2.55-.7-.23-.9 2.5-1.02-.46-.28.7 4.54 1.97v8.8h.75v-11.47zM268.63 199.22l-.42-.98-6.32 2.9V190.8h-1.06v7.16l-3.7-2.7-.6.8 4.3 3.2v12.64h1.06v-9.6zM192.76 184.43l-.42-.98-6.33 2.9V176h-1.05v7.17l-3.7-2.7-.6.8 4.3 3.2v12.64H186v-9.6zM127.1 245.26l-.44-.98-6.33 2.9v-10.33h-1.06V244l-3.7-2.7-.6.82 4.3 3.18v12.64h1.06v-9.6zM246.33 259.24l-.27-.82-5.64 2.04v-8.97l2.6-1.5-.44-.78-2.16 1.25v-5.2h-.9v12.55l-4.7-4.36-.62.67 5.33 4.9v5.8h.9v-3.46zM162.13 216.95l-.27-.82-5.64 2.04v-8.97l2.6-1.5-.45-.77-2.15 1.24v-5.2h-.9v12.56l-4.7-4.36-.62.67 5.33 4.9v5.78h.9v-3.44zM75.36 271.9l-.27-.8-5.65 2.03v-8.97l2.6-1.5-.45-.77-2.15 1.24v-5.2h-.9v12.55l-4.7-4.36-.62.66 5.33 4.9v5.8h.9v-3.45zM21.96 236.5l-.27-.82-5.65 2.04v-8.98l2.6-1.48-.44-.78-2.15 1.24v-5.2h-.9v12.56l-4.7-4.36-.62.67 5.33 4.88v5.8h.9v-3.45zM62.08 206.5l-.27-.82-5.63 2.05v-8.98l2.6-1.48-.45-.78-2.15 1.23v-5.2h-.9v12.55l-4.7-4.35-.62.67 5.33 4.88v5.8h.9v-3.44z" fill="#225326"/><path d="M111.98 14.6c-3.1 0-6 .87-8.4 2.3-3.58-5.66-9.9-9.5-17.08-9.5-8.86 0-16.37 5.67-19.08 13.74-1.52-.56-3.12-.88-4.8-.88-7.58 0-13.65 6.07-13.65 13.66 0 7.58 6.07 13.66 13.65 13.66h49.2c9.18 0 16.53-7.35 16.53-16.54.08-9.02-7.35-16.45-16.37-16.45zM229.94 30.14c1.22-2.27 1.92-4.9 1.92-7.5 0-8.83-7.17-16.1-16.08-16.1-6.3 0-11.88 3.68-14.5 9.1-2.54-2.62-6.03-4.1-9.8-4.1-3.14 0-6.02 1.04-8.3 2.8C180.93 6.03 173.4 0 164.4 0 153.74 0 145 8.74 145 19.4c0 4.02 1.23 7.77 3.24 10.92l81.7-.18zM298.66 41.68c1.34-3.05 1.78-6.5.84-10.05-2.13-8.1-10.3-12.9-18.4-10.78-1.03.27-1.97.6-2.88 1.08-5-6.37-13.63-9.57-22.08-7.34-10.83 2.84-17.42 13.62-15.46 24.37-1.38-.1-2.8-.06-4.28.33-7.04 1.86-11.2 8.98-9.33 16.03.43 1.63 1.25 3.24 2.16 4.58l69.43-18.22zM-56 16.1c-2.87-3.32-4.53-7.16-4.53-11.3 0-12.1 14.45-21.87 32.2-21.87 13.45 0 25.03 5.63 29.77 13.6C6.4-7.5 13.68-9.92 21.94-9.92c14.9 0 27.03 8.2 27.03 18.42 0 2.7-.78 5.33-2.43 7.66L-56 16.1zM306.1-2.85c-2.63 0-5.08 1.1-6.77 2.8-1.48-5.5-6.55-9.6-12.5-9.6-7.15 0-12.94 5.78-12.94 12.92s5.78 12.9 12.92 12.9h19.27c5.27 0 9.54-4.28 9.54-9.56 0-5.27-4.27-9.45-9.55-9.45z" fill="#b0b0b0"/><path d="M99.24 102.26h.6v4.3h-.6zM149.4 64.22h.6v4.3h-.6z" fill="#415db9" fill-opacity=".3"/><path d="M133.5 146.42v-.72h135.13v.72H133.5zM233.95 141.8v-.73h34.68v.72h-34.68zM233.95 137.4v-.73h34.68v.72h-34.68zM233.95 132.63v-.72h34.68v.73h-34.68zM233.95 127.64v-.72h34.68v.72h-34.68zM233.95 122.6v-.73h34.68v.72h-34.68zM233.95 117.3v-.7h34.68v.7h-34.68zM233.95 111.87v-.73h34.68v.73h-34.68zM262.05 146.42h.72V150h-.72v-3.58zM254.92 146.42h.72V150h-.72v-3.58zM248.32 146.42h.72V150h-.72v-3.58z" fill-opacity=".29"/><path d="M251.63 141.8h.72v3.9h-.72v-3.9zM258.96 141.8h.72v3.9h-.72v-3.9zM266.08 141.8h.72v3.9h-.72v-3.9zM244.9 141.8h.72v3.9h-.72v-3.9zM237.1 141.8h.73v3.9h-.72v-3.9zM240.86 137.4h.72v3.67h-.72v-3.68zM240.86 146.42h.72V150h-.72v-3.58zM233.08 146.42h.72V150h-.72v-3.58zM225.88 146.42h.72V150h-.72v-3.58zM218.58 146.42h.72V150h-.72v-3.58zM211.4 146.42h.7V150h-.7v-3.58zM203.8 146.42h.7V150h-.7v-3.58zM195.92 146.42h.72V150h-.72v-3.58zM133.5 150.72V150h135.13v.72H133.5zM133.5 167.9v-.73h135.13v.73H133.5zM133.5 172.55v-.72h135.13v.72H133.5z" fill-opacity=".29"/><path d="M188.73 172.35h.72v3.58h-.72v-3.58zM180.58 172.35h.72v3.58h-.72v-3.58zM172.6 172.35h.73v3.58h-.72v-3.58zM164.6 172.35h.72v3.58h-.72v-3.58zM156.44 172.35h.72v3.58h-.72v-3.58zM149.28 172.35h.72v3.58h-.72v-3.58zM141.87 172.35h.72v3.58h-.73v-3.58zM135.42 172.35h.72v3.58h-.72v-3.58zM262.05 172.35h.72v3.58h-.72v-3.58zM254.92 172.35h.72v3.58h-.72v-3.58zM248.32 172.35h.72v3.58h-.72v-3.58zM240.86 172.35h.72v3.58h-.72v-3.58zM233.08 172.35h.72v3.58h-.72v-3.58zM225.88 172.35h.72v3.58h-.72v-3.58zM218.58 172.35h.72v3.58h-.72v-3.58zM211.4 172.35h.7v3.58h-.7v-3.58zM203.8 172.35h.7v3.58h-.7v-3.58zM195.92 172.35h.72v3.58h-.72v-3.58zM133.5 176.65v-.72h135.13v.72H133.5zM192.76 176.65h.73v3.58h-.74v-3.58zM184.6 176.65h.73v3.58h-.72v-3.58zM176.65 176.65h.72v3.58h-.72v-3.58zM168.63 176.65h.72v3.58h-.72v-3.58zM160.47 176.65h.72v3.58h-.73v-3.58zM153.3 176.65h.73v3.58h-.72v-3.58zM145.9 176.65h.72v3.58h-.72v-3.58zM139.46 176.65h.72v3.58h-.72v-3.58zM266.08 176.65h.72v3.58h-.72v-3.58zM258.96 176.65h.72v3.58h-.72v-3.58zM252.35 176.65h.72v3.58h-.72v-3.58zM244.9 176.65h.72v3.58h-.72v-3.58zM237.1 176.65h.73v3.58h-.72v-3.58zM229.9 176.65h.73v3.58h-.72v-3.58zM222.6 176.65h.73v3.58h-.72v-3.58zM215.42 176.65h.72v3.58h-.72v-3.58zM207.82 176.65h.72v3.58h-.72v-3.58zM199.95 176.65h.72v3.58h-.72v-3.58zM188.73 163.78h.72v3.58h-.72v-3.58zM180.58 163.78h.72v3.58h-.72v-3.58zM172.6 163.78h.73v3.58h-.72v-3.58zM164.6 163.78h.72v3.58h-.72v-3.58zM156.44 163.78h.72v3.58h-.72v-3.58zM149.28 163.78h.72v3.58h-.72v-3.58zM141.87 163.78h.72v3.58h-.73v-3.58zM135.42 163.78h.72v3.58h-.72v-3.58zM262.05 163.78h.72v3.58h-.72v-3.58zM254.92 163.78h.72v3.58h-.72v-3.58zM248.32 163.78h.72v3.58h-.72v-3.58zM240.9 163.6h.73v3.57h-.72v-3.57zM233.05 163.6h.72v3.57h-.72v-3.57zM225.87 163.6h.72v3.57h-.73v-3.57zM218.58 163.78h.72v3.58h-.72v-3.58zM211.4 163.78h.7v3.58h-.7v-3.58zM203.8 163.78h.7v3.58h-.7v-3.58zM195.92 163.78h.72v3.58h-.72v-3.58zM192.76 168.1h.73v3.56h-.74v-3.57zM184.6 168.1h.73v3.56h-.72v-3.57zM176.65 168.1h.72v3.57h-.72v-3.58zM168.63 168.1h.72v3.57h-.72v-3.58zM160.47 168.1h.72v3.57h-.73v-3.58zM153.3 168.1h.73v3.57h-.72v-3.58zM145.9 168.1h.72v3.56h-.72v-3.57zM139.46 168.1h.72v3.56h-.72v-3.57zM266.08 168.1h.72v3.56h-.72v-3.57zM258.96 168.1h.72v3.56h-.72v-3.57zM252.35 168.1h.72v3.56h-.72v-3.57zM244.9 168.1h.72v3.56h-.72v-3.57zM237.1 168.1h.73v3.56h-.72v-3.57zM229.9 167.9h.73v3.9h-.72v-3.9zM222.57 167.9h.8v3.9h-.8v-3.9zM215.42 168.1h.72v3.57h-.72v-3.58zM207.82 168.1h.72v3.57h-.72v-3.58zM199.95 168.1h.72v3.56h-.72v-3.57z" fill-opacity=".29"/><path d="M148.7 189.67l-.3 4.53-14.66 6.94-6.36-1.27-7.4-1.56.25-5.48-10.15.96-.18-10.6 6.14-11.48-9.35-3.42-1.16-8.52 7.82-9.76 12.8 3.15 15.22 4.33 1.83 11.17 8.8 7.83-.7 5.88 2 4.45z" fill="#67171a"/><path d="M70.23 228.47l-21.76-50.54 64.78-27.88L135 200.6l-64.77 27.87z" fill="#ccc"/><path d="M99.23 191.28l-3.8-8.84 15.25-6.57 3.8 8.84-15.25 6.58z"/><path d="M85.8 161.86l.65-.28 21.76 50.55-.64.28-21.75-50.54zM56.14 183.07l.28.65-4.6 1.98-.28-.65 4.6-1.98zM59.8 191.53l.27.64-4.6 1.98-.28-.64 4.6-1.97zM63.83 200.9l.27.64-4.6 1.98-.27-.65 4.6-1.98zM67.62 209.7l.28.65-4.6 1.98-.28-.65 4.6-1.98zM71.38 218.48l.28.65-4.6 1.98-.28-.64 4.6-1.98zM74.3 212.62l.3.65-4.6 1.98-.3-.65 4.6-1.98zM70.4 203.5l.28.64-4.6 1.98-.28-.65 4.6-1.98zM66.52 194.5l.28.66-4.6 1.98-.28-.65 4.6-2zM62.58 185.35l.28.65-4.6 1.98-.28-.65 4.6-1.98zM58.9 176.84l.3.65-4.6 1.97-.3-.65 4.6-1.98zM77.66 220.36l.27.64-4.6 1.98-.27-.64 4.6-1.98zM81.3 214.2l.3.65-5.34 2.3-.28-.65 5.33-2.3zM77.7 205.84l.3.64-5.34 2.3-.28-.65 5.33-2.3zM73.76 196.62l.28.64-5.34 2.3-.27-.65 5.33-2.28zM69.87 187.63l.28.64-5.33 2.3-.28-.65 5.33-2.3zM66.07 178.8l.28.64-5.33 2.3-.28-.65 5.33-2.3zM72.87 180.92l.28.65-4.96 2.14-.3-.64 4.97-2.14zM69.2 172.4l.28.66-4.96 2.13-.28-.65 4.97-2.14zM76.8 190.08l.3.65-4.97 2.13-.28-.64 4.96-2.14zM80.7 199.06l.27.65-4.96 2.15-.27-.65 4.96-2.14zM84.62 208.2l.28.63-4.97 2.14-.27-.65 4.96-2.13zM87.95 215.92l.28.65-4.97 2.14-.27-.64 4.95-2.14zM91.2 209.96l.26.64-4.96 2.14-.28-.64 4.97-2.14zM87.58 201.6l.28.63-4.96 2.14-.28-.65 4.96-2.13zM83.62 192.37l.28.65-4.97 2.14-.28-.65 4.97-2.13zM79.8 183.35l.3.65-4.97 2.13-.28-.64 4.96-2.15zM75.94 174.55l.28.64-4.96 2.13-.28-.65 4.96-2.13zM78.8 168.3l.26.63-4.67 2-.28-.63 4.67-2zM82.45 176.8l.28.65-4.68 2-.27-.64 4.67-2zM86.4 185.96l.27.65-4.67 2.02-.28-.65 4.67-2zM90.33 195.1l.27.65-4.67 2-.27-.63 4.67-2zM94.25 204.04l.28.65-4.67 2-.28-.65 4.67-2zM97.52 211.8l.27.66-4.68 2-.28-.64 4.68-2zM100.4 206l.27.64-4.68 2-.28-.63 4.67-2zM96.8 197.63l.26.64-4.67 2-.3-.63 4.7-2zM92.82 188.4l.28.66-4.67 2-.28-.64 4.67-2zM89.1 179.36l.26.65-4.67 2.02-.3-.65 4.7-2zM85.3 170.53l.27.64-4.68 2-.28-.63 4.67-2z" fill-opacity=".3"/><path d="M91.35 172.97l.28.65-4.37 1.88-.28-.65 4.37-1.88zM87.68 164.46l.28.64-4.36 1.88-.28-.64 4.36-1.88zM95.3 182.13l.27.65-4.37 1.87-.28-.64 4.37-1.87zM99.16 191.12l.28.64-4.37 1.88-.28-.64 4.36-1.88zM103.08 200.24l.28.65-4.36 1.87-.28-.65 4.36-1.88zM106.56 208.3l.28.64-4.37 1.88-.28-.64 4.36-1.88z" fill-opacity=".3"/><path d="M81.44 163.74l.64-.28L103.84 214l-.65.3-21.76-50.56zM76.9 165.7l.65-.3 21.75 50.56-.64.28L76.9 165.7zM72.23 167.7l.65-.28 21.75 50.55-.64.28-21.77-50.55zM67.32 169.8l.65-.26 21.76 50.54-.65.28-21.76-50.55zM62.36 171.95l.65-.28 21.76 50.55-.64.28-21.76-50.55zM57.03 174.24l.65-.28 21.75 50.55-.64.3-21.77-50.56zM52.44 176.22l.65-.28 21.74 50.55-.64.27-21.76-50.55zM94.1 166.73l.28.64-4.6 1.98-.28-.64 4.6-1.97zM97.75 175.18l.28.65-4.6 1.98-.28-.64 4.6-1.98zM101.78 184.55l.28.65-4.6 1.98-.28-.65 4.6-1.98zM105.58 193.36l.27.65-4.6 2-.27-.66 4.6-1.98zM109.34 202.14l.28.65-4.6 1.97-.28-.65 4.6-1.98zM112.27 196.28l.28.65-4.6 1.98-.28-.64 4.6-1.98zM108.36 187.15l.28.65-4.6 1.98-.28-.65 4.6-1.98zM104.48 178.17l.28.65-4.6 1.98-.28-.65 4.6-1.98zM100.54 169l.27.66-4.6 1.98-.26-.65 4.6-2zM96.87 160.5l.28.64-4.6 1.98-.28-.64 4.6-1.98zM115.62 204.02l.27.64-4.6 1.98-.3-.64 4.62-1.98zM119.27 197.87l.28.64-5.33 2.3-.28-.64 5.33-2.3zM115.67 189.5l.28.64-5.33 2.3-.28-.65 5.33-2.3zM111.72 180.28l.27.64-5.34 2.3-.27-.65 5.32-2.3zM107.83 171.3l.28.63-5.32 2.3-.28-.65 5.33-2.3zM104.03 162.45l.28.65-5.32 2.3-.28-.65 5.33-2.3zM110.83 164.58l.28.65-4.95 2.14-.28-.65 4.96-2.14zM107.17 156.07l.27.64-4.96 2.15-.28-.65 4.97-2.13zM114.77 173.74l.28.65-4.96 2.12-.3-.64 4.97-2.14zM118.65 182.72l.28.65-4.96 2.14-.28-.64 4.95-2.14zM122.58 191.85l.28.64-4.97 2.13-.3-.65 4.98-2.13zM125.9 199.58l.3.65-4.98 2.13-.28-.64 4.97-2.14zM129.14 193.62l.28.64-4.96 2.14-.28-.65 4.96-2.13zM125.54 185.25l.28.64-4.96 2.13-.28-.65 4.96-2.13zM121.58 176.03l.27.65-4.96 2.14-.3-.65 4.98-2.14zM117.77 167l.28.65-4.96 2.14-.3-.65 4.97-2.14zM113.9 158.2l.28.65-4.96 2.14-.28-.66 4.96-2.13z" fill-opacity=".3"/><path d="M110.2 151.36l.64-.28 21.75 50.55-.65.28-21.76-50.54zM105.28 153.47l.65-.28 21.75 50.54-.64.28-21.76-50.55zM100.32 155.6l.65-.27 21.75 50.55-.64.28-21.76-50.55zM95 157.9l.64-.28 21.75 50.55-.65.28L95 157.9zM90.4 159.88l.65-.28 21.75 50.55-.64.28-21.76-50.55z" fill-opacity=".3"/><path d="M195.32 141.4h.6v4.3h-.6z" fill="#415db9" fill-opacity=".3"/><path d="M192.76 150.72h.73v3.58h-.74v-3.58zM184.6 150.72h.73v3.58h-.72v-3.58zM176.65 150.72h.72v3.58h-.72v-3.58zM168.63 150.72h.72v3.58h-.72v-3.58zM160.47 150.72h.72v3.58h-.73v-3.58zM153.3 150.72h.73v3.58h-.72v-3.58zM145.9 150.72h.72v3.58h-.72v-3.58zM139.46 150.72h.72v3.58h-.72v-3.58zM266.08 150.72h.72v3.58h-.72v-3.58zM258.96 150.72h.72v3.58h-.72v-3.58zM252.35 150.72h.72v3.58h-.72v-3.58zM244.9 150.72h.72v3.58h-.72v-3.58zM237.1 150.72h.73v3.58h-.72v-3.58zM229.9 150.72h.73v3.58h-.72v-3.58zM222.6 150.72h.73v3.58h-.72v-3.58zM215.42 150.72h.72v3.58h-.72v-3.58zM207.82 150.72h.72v3.58h-.72v-3.58zM199.95 150.72h.72v3.58h-.72v-3.58z" fill-opacity=".29"/><path d="M203.2 152.47h.6v4.3h-.6zM239.97 102.26h.6v4.3h-.6zM263 84.72h.6v4.3h-.6zM273.3 153.9h.6v4.3h-.6zM248.44 134.87h.6v4.3h-.6zM221.26 161.23h.6v4.3h-.6zM161.53 119.2h.6v4.3h-.6zM128.35 126.27h.6v4.3h-.6zM135.48 93.33h.6v4.3h-.6zM205.83 55.6h.6v4.3h-.6zM180.04 43.27h.6v4.3h-.6zM284.46 55.6h.6v4.3h-.6zM38 68.52h.6v4.3H38zM9.83 47.58h.6v4.3h-.6zM61.48 89.02h.6v4.3h-.6zM49.95 141.4h.6v4.3h-.6zM231.86 72.82h.6v4.3h-.6zM172.35 72.82h.6v4.3h-.6zM214.15 126.27h.6v4.3h-.6zM188.13 114.8h.6v4.3h-.6zM154.03 97.03h.6v4.3h-.6zM210.8 84.72h.6v4.3h-.6zM113.16 89.02h.6v4.3h-.6zM134.82 51.88h.6v4.3h-.6zM74.76 77.12h.6v4.3h-.6zM60.88 51.3h.6v4.3h-.6zM20.16 84.72h.6v4.3h-.6zM74.76 151.07h.6v4.3h-.6zM113.76 163.77h.6v4.3h-.6zM156.56 147.85h.6v4.3h-.6zM60.28 177.35h.6v4.3h-.6zM77.86 194.47h.6v4.3h-.6zM257.86 118.3h.6v4.3h-.6zM154.03 156.78h.6v4.3h-.6zM177.37 167.28h.6v4.3h-.6zM176.05 236.85h.6v4.3h-.6zM220.48 207.6h.6v4.3h-.6zM241.04 218.22h.6v4.3h-.6zM290.67 176.18h.6v4.3h-.6zM262.9 139.18h.6v4.3h-.6zM273.9 119.2h.6v4.3h-.6zM20.76 161.23h.6v4.3h-.6zM192.76 89.02h.6v4.3h-.6zM89.98 59.9h.6v4.32h-.6zM21.36 130.57h.6v4.3h-.6zM83.62 119.2h.6v4.3h-.6zM32.87 102.26h.6v4.3h-.6zM37.4 26.02h.6v4.3h-.6z" fill="#415db9" fill-opacity=".3"/><path d="M107.78 182.33c-.24 1.07-.53 2.15-.84 3.67-.03-.7-.1-1.2-.1-1.56-.16-1.82-.3-3.64-.5-5.63-.32-3.63-.64-7.18-.78-10.75-.1-2.26-.26-4.6-.1-6.46 0-.27-.03-.7-.07-1.05l-.1-.25c-.05.44-.14.7-.18 1.07-.17 1.6-.15 3.42-.13 5.26 0 .43-.03.78-.03 1.3l-.6-3c-.25-1.27-.44-2.48-.46-3.78-.03-1.3-.1-2.8-.15-4.1 0-.26-.1-.5-.14-.94-.03.2-.12.28-.16.46-.02.18 0 .53.02.8.02.68.02 1.3.03 2.26-.2-.68-.23-.94-.3-1.2-.3-1.28-.57-2.56-.86-3.75-.1-.5-.26-1.02-.46-.65.04.43.08.78.17 1.2.5 1.96.82 4.38 1.22 6.6.56 3.1 1.04 6.45 1.5 9.72.2 1.3.3 2.77.45 4.15-.14-.25-.23-.68-.32-1.02-.26-.94-.5-1.96-.75-2.72-.07-.25-.18-.24-.24-.24.05.44.05.8.16 1.04.5 1.43.8 3.23 1.08 5.13.14.93.3 1.96.48 2.82.25 1.2.4 2.32.54 3.53l.2 2c.66 6.65.68 12.33 0 16.86-.02.27-.06.45-.13.72l-.64-5.96c-.3-.14-.15.7-.1 1.23.08 2 .18 3.82.24 5.74.08 1.82 0 3.32-.3 4.23-.36 1.08-.6 2.86-1.1 3.52-.42.74-.63 2.33-.82 3.93-.08.7-.15 1.32 0 2.53.2.24.88-.1 1.24.13.17.15.22-.2.26-.73.14-2.38.53-3.73.92-5.1.7-2.33 1.1-5.6 1.44-9.15.34-3.35.4-7.3.26-11.48-.07-3.3-.05-6.46.23-9.02.03-.27.04-.7.06-1.06-.1-.34-.12-.42-.15-.33z" fill="#225326"/><path d="M88.48 182.54l1.5 6.16-.75 1.3.05 2.37.63 3.9-3.56 4.08-1.6 2.94.63 1.3-.5 5.62-2.54 1.7-.54 2.26-3.94 1.1 3.77-2.5.4-1.87 2.43-1.1.47-4.22-1.1-1.45 2.18-4.3 3.1-3.47-.5-2.7-.05-3.16.68-1.35z"/><path d="M87.25 172.16c.27 1.34-.97 1.84-1.78 2-.94.2-2.33.02-3.83 1.7-1.5 1.73-.27 2.33-.2 3.5.04.78-.13 1.06-.44 1.42-.3.36-.72.56-1.5.58-2.8.12-4.9 5.35-3.88 6.04 1.78 1.23 2.86-3.2 4.63-4.16.96-.52 2.76 1.18 4.27-.53 1.5-1.7-.36-3.2.58-4.15 1.5-1.5 4.6-.56 6.32-3.4 1.34-2.25 1.4-5.37.26-6.6-1.97-2.16-4.88 1.26-4.43 3.6z" fill-opacity=".16"/><path d="M274.5 106.57h-45.42l4.55-22.24h36.3z" fill="#67171a"/><path d="M211.5 190.98l.22-.72 3.58 1.07-.2.72-3.6-1.07zM219.33 197.02l-.38-.66 3.28-1.9.38.66-3.27 1.9zM210.8 189.07l-.78.12-5.16-32.3.77-.12 5.16 32.3zM216.14 188.25l-.76.12-3.76-23.5.76-.13 3.76 23.5z" fill="#9e754a"/><path d="M210.24 186.5l-.13-.8 5.5-.87.12.8-5.48.88zM209.35 182.5l-.13-.82 2.23-.36.13.8-2.23.37z" fill="#9e754a"/><path d="M211.15 182.1l.3-.77 2.1.8-.3.76-2.1-.8z" fill="#9e754a"/><path d="M213.27 182.9l-.72-.4 1.52-2.8.72.38-1.53 2.8zM208.92 178.28l-.12-.8 5.48-.88.13.8-5.48.88zM208.15 174.3l-.2-.8 5.4-1.35.2.8-5.4 1.35zM207.58 169.86l-.13-.8 5.48-.9.13.82-5.48.88zM205.17 158.8l.47-.67 4.5 3.26-.48.65-4.5-3.26zM206.1 164.6l.1-.82 4.63.64-.1.8-4.64-.63z" fill="#9e754a"/><path d="M259.7 179.84h-16.83v-13.92c0-7.7 3.77-13.92 8.42-13.92 4.64 0 8.4 6.23 8.4 13.92v13.92z" fill="#c4c8c4" stroke-width=".78" stroke="#000" stroke-linecap="square"/><path d="M257.35 180.23h-12.12V168.8c0-6.32 2.7-11.44 6.06-11.44 3.34 0 6.05 5.12 6.05 11.44v11.43z"/><path d="M255.34 172.76c-.47.04-.9-.22-1-.6v.13c.04.45.5.78 1.02.73.53-.05.9-.46.87-.9 0-.06 0-.1-.03-.15-.04.4-.4.73-.86.78z" fill="#303030"/><path d="M245.62 159.97l1.18-.68 11.78 20.4-1.18.68-11.78-20.4z" fill="#9e754a" stroke-width=".13" stroke="#000" stroke-linecap="square"/><path d="M257.86 160.02l-1.18-.7-11.78 20.42 1.18.68 11.78-20.4z" fill="#9e754a" stroke-width=".13" stroke="#000" stroke-linecap="square"/><path d="M262.77 167.64l-.28-1.34-23.1 4.7.28 1.35 23.1-4.7z" fill="#9e754a" stroke-width=".13" stroke="#000" stroke-linecap="square"/><path d="M262.38 176.66l.42-1.3-22.42-7.27-.42 1.3 22.42 7.26z" fill="#9e754a" stroke-width=".13" stroke="#000" stroke-linecap="square"/><path d="M264.35 172.28l-.3-1.34-23 5.06.28 1.34 23.02-5.06z" fill="#9e754a" stroke-width=".13" stroke="#000" stroke-linecap="square"/><path d="M264.64 170.2l.53 1.27-21.77 9-.53-1.25 21.77-9.02zM261.67 159.84l.52 1.26-21.78 9.02-.52-1.27 21.77-9z" fill="#9e754a" stroke-width=".13" stroke="#000" stroke-linecap="square"/><path d="M248.44 165.38h.6v4.3h-.6zM262.83 157.36h.6v4.3h-.6z" fill="#415db9" fill-opacity=".3"/><path d="M261.32 175.78l-1.2.7-11.77-20.42 1.2-.68 11.77 20.4zM253.75 180.65l-1.2.68-9.7-16.83 1.18-.68 9.72 16.83z" fill="#9e754a" stroke-width=".13" stroke="#000" stroke-linecap="square"/><path d="M242.6 168.43l-.97-.96 13.74-13.75.97.97-13.74 13.73zM244.64 175.02l-.8-1.13 14.33-10.04.8 1.12-14.33 10.04z" fill="#9e754a" stroke-width=".13" stroke="#000" stroke-linecap="square"/><path d="M244.44 160.7l.13-1.38 17.4 1.67-.12 1.36-17.4-1.67z" fill="#9e754a" stroke-width=".13" stroke="#000" stroke-linecap="square"/><path d="M254.92 171.6c0 .24-.08.45-.2.45-.1 0-.2-.2-.2-.46s.1-.47.2-.47c.12 0 .2.2.2.46zM256.03 171.6c0 .24-.08.45-.2.45-.1 0-.2-.2-.2-.46s.1-.47.2-.47c.12 0 .2.2.2.46zM255.6 173.17l-.14-.05.18-.5.14.04-.17.5z" fill="#ececec"/><path d="M255.86 173.55l-.13.08-.27-.47.13-.08.26.47zM256.06 173.15h-.15v-.54h.16v.55z" fill="#ececec"/><path d="M256.4 173.47l-.1.1-.4-.38.1-.12.4.4zM255.82 173.17l-.15-.02.1-.54.14.04-.08.53z" fill="#ececec"/><path d="M256.02 173.63l-.14.06-.2-.5.13-.07.22.5zM175.14 143.66l-.5-.22.85-1.88.5.23-.86 1.86z" fill="#ececec"/><path d="M175.94 145.07l-.5.22-.8-1.9.5-.22.8 1.9zM176.9 143.8l-.55-.06.26-2.04.56.07-.26 2.04zM178.46 143.8l-.54-.06.26-2.04.54.07-.26 2.04z" fill="#ececec"/><path d="M179.07 145.62l-.52.17-.63-1.97.52-.17.63 1.96zM177.38 145.56l-.53.14-.5-2 .53-.13.5 2z" fill="#ececec"/><path d="M275.08 64.7l.52.2.33-.23.38-.22-.06-.52.37-.16.24-.54.24.27.62-.28.24-.23.24-.7-.55-.64.18-1.6-.58-.12-1.07 1-.18.85-.5-.03-.56.63-.84.5.1.44-.08.72.4.05.4.06z" fill="#3d7b7e"/><path d="M265.8 60.67l3.8-6.04 8.67 5.44-3.78 6.04-8.7-5.43z" fill="#3d7b7e"/><path d="M266.1 60.85l-.3-.18 3.8-6.04.27.18-3.78 6.05z" fill="#e2e2e2"/><path d="M276.1 63.8h.03l.08-.06c.03 0 .04 0 .05-.02l.04-.02.02-.02-.08-.13c0-.05 0-.08.03-.1 0 0 0-.02.02-.03l.05-.04c.02 0 .03-.03.04-.05v-.03c.02 0 .03 0 .05-.02h.07c.06 0 .1 0 .17.03l.2.12h-.02c.04.05.1.1.1.15v.13s-.02 0-.03.03c0 .02-.04.03-.05.06-.03 0-.04.03-.06.04l-.03.02c-.02.03-.08.04-.13.03-.05 0-.12-.03-.18-.06h-.05c0 .02-.02.03-.03.03l-.05.02c-.03 0-.06.03-.08.04l-.05.02-.15-.16zm.38-.12c.05.03.12.05.15.03h.02c0-.03.04-.05.06-.06.04-.02.05-.04.06-.06l.02-.03c0-.02 0-.07-.05-.1-.05-.04-.1-.05-.14-.03l-.02.02c0 .02-.04.04-.05.06l-.06.05c0 .02-.02.02-.02.02-.03.02 0 .07.03.1z" fill="#343838"/><path d="M275.16 64.03h.06c.03 0 .07 0 .1-.02h.15c-.05-.1-.02-.2.06-.2l.1-.04c.04 0 .07 0 .1-.02h.02c.04-.02.1-.02.15 0 .06 0 .12.03.18.06h.02l.16.14h-.02c.04.06.05.1.05.15 0 .03-.04.06-.1.07l-.02.02c-.03 0-.06 0-.1.02l-.12.03c-.1.03-.25-.02-.36-.1h-.06c-.03 0-.07 0-.1.02H275.27l-.1-.14zm.52 0c.04.06.1.08.15.07 0 0 .07 0 .13-.03.03 0 .06-.02.08-.03h.04c.03-.03.03-.07 0-.1-.05-.05-.12-.07-.15-.06h-.04c-.02.02-.06.03-.1.03l-.1.05c-.06 0-.06.05-.02.1z" fill="#343838"/><path d="M274 63.94h.06c.03.02.07.02.12.03.05 0 .1 0 .12.02h.06c0-.1.05-.14.16-.13h.15c.04.02.07 0 .1.02.03-.02.05 0 .05 0 .05 0 .1 0 .16.03.06.02.12.06.18.1l.13.16h-.03c.02.05.02.08 0 .1-.03.04-.07.06-.13.06H274.8c-.12 0-.26-.1-.34-.2h-.07c-.05 0-.08 0-.14-.02-.05 0-.1 0-.13-.02h-.07l-.06-.18zm.57.15c.03.04.1.07.14.08h.33c.06 0 .07-.02.04-.06-.04-.05-.1-.08-.14-.08h-.32c-.04-.02-.05 0-.03.05z" fill="#343838"/><path d="M272.7 63.54s.04 0 .06.02l.14.05.14.06.05.02c.03-.03.06-.05.1-.06h.17s0 .02.04.03c.05 0 .08.02.13.03.04.02.08.02.1.04h.07c.06.02.12.06.17.1.05.02.1.07.14.1l.04.02.06.15h-.05c0 .03-.03.06-.06.07-.05.02-.1.02-.18 0l-.07-.02c-.03 0-.08 0-.12-.03l-.13-.05h-.06l-.1-.05-.1-.06c-.06-.04-.1-.1-.14-.14h-.02l-.05-.03-.15-.06-.14-.05-.06-.04.02-.12zm.58.28c0 .04.06.08.12.1 0 0 .02.02.06.02l.12.04c.05 0 .1.02.13.04h.06c.06.03.1 0 .08-.04-.02-.04-.07-.08-.13-.1l-.05-.02c-.03 0-.07 0-.1-.03-.06 0-.1 0-.12-.03-.04 0-.06-.02-.06-.02-.06-.02-.1 0-.1.04z" fill="#343838"/><path d="M271.42 62.87l.18.1.14.1c.04 0 .06.02.06.02.02-.02.04-.02.07-.03h.07c.06 0 .1.02.17.05l.17.08.17.08c.06.03.12.06.16.1.04.05.1.1.1.15h.02v.13h-.02c0 .03-.06.05-.1.05-.06 0-.13 0-.2-.03l-.18-.1-.2-.08-.17-.14-.05-.07-.03-.07-.06-.04-.13-.1-.2-.1.07-.1-.03-.02zm.53.37c0 .04.02.08.08.1l.18.1.2.1c.05 0 .1 0 .1-.03 0-.02-.03-.06-.08-.1 0 0-.1-.02-.18-.07l-.17-.1c-.07 0-.12-.02-.12 0zM270.25 62l.04.04.1.1.06.05c.02 0 .05.02.05.03l.06.04c.05 0 .1 0 .16.02.06 0 .12.03.17.07 0 0 0 .02.04.04l.1.1.1.06.05.03c.02 0 .04.02.06.05.03.02.04.04.05.06.05.06.06.1.07.14v.02l-.05.1h-.02c-.03 0-.1 0-.16-.02-.03 0-.06 0-.1-.03l-.07-.04-.06-.04-.1-.08c-.06-.04-.1-.06-.13-.1l-.05-.03c-.06-.03-.1-.1-.13-.14-.04-.04-.05-.1-.04-.12l-.05-.05c0-.02-.02-.04-.04-.06l-.06-.05c-.04-.05-.1-.1-.12-.1l-.06-.06.13-.04zm.43.44c-.03.02 0 .07.04.1l.05.04c.03.03.07.05.1.1l.14.07.05.03c.05.03.1.04.14.02 0-.02-.02-.07-.06-.1l-.05-.04c-.04 0-.08-.05-.12-.08l-.1-.08c-.05-.02-.05-.04-.05-.04-.06-.03-.12-.05-.15-.02z" fill="#343838"/><path d="M269.32 61s0 .03.04.06l.08.1.08.1.04.04c.13.03.27.1.35.2l.12.1.08.1.04.03.1.14c.02.05.02.1 0 .12l-.1.07-.04-.04c-.05 0-.1 0-.17-.04-.07-.03-.13-.08-.18-.13l-.04-.04c-.03-.04-.05-.07-.1-.1l-.13-.14c-.1-.12-.12-.23-.06-.27.02 0 0 0 0-.02 0 0-.03 0-.03-.03-.03-.03-.05-.07-.1-.1l-.08-.12-.05-.05h.17zm.3.46c-.05 0-.05.05 0 .1l.13.14.1.1.04.04c.03.04.1.06.13.05.04-.02.03-.07 0-.1l-.05-.05-.1-.1-.1-.1c-.07-.08-.12-.1-.17-.1z" fill="#343838"/><path d="M268.73 60l.02.05c0 .03.03.06.05.1 0 .04.03.07.04.1l.03.05c.12.04.24.13.3.22l.06.13c.02.04.05.06.06.1v.03c.05.05.06.1.06.13 0 .04-.02.08-.06.1h.02-.18l-.2-.08-.14-.15-.04-.05-.07-.1c-.06-.07-.1-.15-.1-.15-.07-.1-.04-.2.06-.2l-.03-.06-.06-.1c0-.04-.03-.08-.04-.1l-.02-.06.23.06zm.12.42c-.05 0-.07.03-.04.07l.1.14.06.1.03.04c.03.05.1.08.13.08.05 0 .06-.03.03-.08 0 0 0-.02-.03-.05l-.06-.1-.1-.13c0-.03-.07-.07-.12-.08z" fill="#343838"/><path d="M268.53 59.06v.13l.02.1v.02l.16.14.06.06.02.07.02.03c0 .02.02.06 0 .08.02.05.04.08.03.1v.04c.04.05.03.08 0 .1 0 .04-.05.06-.1.06v.02l-.18-.04v-.03c-.07-.02-.14-.07-.18-.1-.05-.06-.08-.1-.1-.16v-.06c-.02-.03-.04-.07-.04-.1l-.02-.1v-.03-.07c0-.02 0-.03.03-.05.02-.02.07-.03.12-.03v-.02-.03c0-.04-.02-.07 0-.1l-.02-.1v-.04l.2.1zm-.07.36c-.05-.02-.08 0-.1.04l.02.04.03.1.03.08v.05c.03.04.08.08.14.1.06 0 .08-.02.07-.05v-.05l-.04-.1c0-.02-.02-.05 0-.07l-.03-.04c0-.04-.05-.1-.1-.1z" fill="#343838"/><path d="M268.74 58.3s-.04.05-.05.1c-.03.02-.04.05-.05.07v.04l.06.08.06.07c.03.05.03.08.03.12l-.03.1-.02.1c0 .04-.02.07-.06.08-.04.02-.1.03-.16 0v.02l-.2-.08v-.02c-.06-.04-.1-.1-.15-.13-.05-.05-.07-.1-.06-.15v-.12l.03-.12c.02-.04.05-.07.1-.07.03 0 .05-.02.07 0h.1v-.03c0-.02 0-.05.03-.08l.05-.12.2.13h.02zm-.25.25c-.06-.02-.1-.03-.12 0 0 0 0 .07-.02.12 0 .06-.02.1-.02.1 0 .04.04.1.1.12.05 0 .1 0 .1-.03v-.1l.04-.1c0-.04-.02-.1-.1-.12z" fill="#343838"/><path d="M269.33 57.77s-.02 0-.03.02c-.03 0-.06 0-.08.03l-.05.02-.03.02-.02.03.07.14c0 .04 0 .08-.03.1l-.03.02c0 .02-.03.03-.05.05l-.06.06v.02l-.06.03c-.02.02-.04.02-.07 0-.04.02-.1 0-.15-.02l-.2-.1v-.02c-.04-.04-.08-.1-.1-.15v-.04l.03-.06.02-.03.04-.06c.03 0 .04-.03.06-.04l.03-.02c.03-.03.1-.04.14-.04.06 0 .12.03.18.06l.04-.02.03-.02.04-.02c.03 0 .06-.03.08-.05h.04l.13.12zm-.38.13c-.05-.04-.12-.05-.15-.03l-.02.02c-.02 0-.04.02-.06.04-.03.02-.04.04-.05.06l-.02.02c-.02.03 0 .08.05.1.05.04.1.05.14.03v-.02l.06-.06c.02 0 .04-.03.06-.04 0-.02.02-.02.02-.02.03 0 0-.07-.04-.1z" fill="#343838"/><path d="M270.26 57.55H270.1l-.1.03h-.03c.03.1 0 .2-.07.2l-.1.04c-.04 0-.07 0-.1.02h-.03c-.03.02-.1.02-.15 0-.06 0-.12-.03-.18-.06l-.18-.15h.02c-.04-.05-.05-.1-.05-.14 0-.05.03-.08.08-.1h.05c.03 0 .06 0 .08-.03l.13-.04c.1-.03.26.02.36.1h.16c.05-.02.08-.02.12-.02h.05l.1.15zm-.5-.02c-.05-.04-.1-.07-.16-.06 0 0-.07 0-.13.04l-.08.04h-.05c-.03.02-.03.06 0 .1.05.04.12.07.15.06 0 0 .02 0 .03-.02.02 0 .06 0 .1-.02l.1-.03c.06-.02.06-.05.02-.1z" fill="#343838"/><path d="M271.43 57.64h-.06c-.03-.02-.07-.03-.12-.03h-.12c-.03 0-.05-.02-.05-.02 0 .1-.05.14-.16.13h-.3c-.06 0-.1-.02-.16-.05-.06-.02-.13-.06-.18-.1l-.13-.16.02-.02c-.03-.05 0-.1 0-.1.03-.04.07-.06.13-.06h.33c.13 0 .27.1.35.2h.07c.03 0 .07 0 .13.02.05 0 .1 0 .13.02h.07l.06.18zm-.57-.16c-.03-.04-.1-.08-.14-.08l-.16-.02h-.14c-.05 0-.06.05-.04.08.04.06.1.08.14.08h.32c.03 0 .04 0 .02-.06z" fill="#343838"/><path d="M272.73 58.04l-.06-.02-.14-.06-.14-.05h-.04-.02c-.02.02-.05.04-.1.05H272.1l-.07-.03-.1-.03c-.05-.03-.1-.03-.12-.05h-.05c-.06-.02-.12-.06-.18-.1-.05-.02-.1-.07-.14-.1l-.02-.02-.06-.15h.03c0-.04.03-.07.06-.08.04-.02.1-.02.17 0l.06.02c.04 0 .1 0 .13.03l.12.04h.06l.1.05.1.06.14.15h.02l.05.02.13.06.15.05.06.03v.14zm-.58-.28c-.02-.04-.06-.08-.12-.1 0 0-.02-.02-.06-.02-.04 0-.08-.03-.13-.04-.04-.02-.1-.02-.12-.04h-.06c-.06-.03-.08 0-.07.04 0 .04.06.08.1.1 0 0 .04 0 .07.02.04 0 .07 0 .12.03.03 0 .07 0 .1.03.04 0 .06.02.06.02.06 0 .1 0 .1-.04z" fill="#343838"/><path d="M274.02 58.7l-.18-.1-.14-.08-.06-.03h-.14c-.06 0-.1 0-.17-.04l-.16-.08-.17-.08c-.06-.03-.12-.06-.16-.1-.04-.05-.1-.1-.1-.14l-.03-.02v-.13h.02c.02-.02.07-.03.12-.04.05 0 .12.02.18.05l.2.1.2.1c.06.02.12.07.16.12l.05.06.03.07.06.03.14.08.2.12-.07.1.03.03zm-.54-.37c0-.03-.02-.08-.08-.1l-.2-.1-.17-.08c-.05-.03-.1-.02-.1 0 0 .05.03.1.1.12l.16.08.17.1c.05 0 .1 0 .1-.02z" fill="#343838"/><path d="M275.18 59.58l-.04-.04-.1-.1-.07-.05-.07-.06-.04-.04h-.17l-.18-.1s-.02 0-.04-.04c-.03 0-.07-.04-.1-.07l-.1-.08-.05-.03-.08-.07-.05-.07c-.03-.05-.05-.1-.05-.13l-.03-.02.06-.1.02.02c.04 0 .1-.02.16 0 .04 0 .06.02.1.04l.1.06.06.03.12.1c.05.02.08.05.12.08l.04.03c.07.05.1.1.14.15.03.07.04.1.03.14l.05.05c.02 0 .03 0 .05.03l.06.05.12.1.07.06-.14.04zm-.43-.44c.02-.02 0-.08-.04-.1 0 0 0-.02-.04-.05l-.12-.1-.12-.08-.05-.03c-.04-.04-.1-.05-.13-.03-.02.02 0 .07.05.1 0 0 0 .02.04.04l.12.1.1.08.05.04c.06.03.12.04.15.02z" fill="#343838"/><path d="M276.1 60.57s0-.03-.03-.05l-.08-.1-.1-.1c0-.03-.02-.04-.03-.04v-.02c-.13-.02-.27-.1-.35-.17l-.1-.13-.1-.1c-.02 0-.03-.03-.03-.03-.05-.04-.1-.1-.1-.14-.04-.05-.03-.1 0-.12h-.02l.1-.07.05.04c.05 0 .1.02.17.04.07.03.13.08.18.13l.04.05.1.1.14.14c.1.1.12.2.05.25h.03c0 .02.03.04.03.05.03.04.05.07.1.1l.08.12.04.05h-.17zm-.3-.46c.06 0 .06-.04 0-.1l-.12-.12-.1-.1-.04-.04c-.04-.04-.1-.07-.14-.05-.04 0-.03.05 0 .08l.05.04.1.1.1.12c.07.06.12.08.17.07zM276.7 61.58l-.03-.05c0-.03-.03-.06-.04-.1l-.05-.1v-.04c-.14-.05-.25-.13-.3-.23 0 0-.05-.06-.08-.13l-.06-.1c-.02 0-.02-.03-.02-.03-.04-.04-.05-.08-.05-.1 0-.05.02-.1.06-.1v-.02H276.3l.18.08.15.15s0 .03.04.06l.07.1.1.15c.06.12.03.2-.07.22 0 0 0 .02.03.05l.05.1.04.12.02.03-.22-.05zm-.12-.43c.05 0 .07-.02.04-.07l-.08-.14-.07-.1-.03-.04c-.03-.05-.1-.08-.13-.08-.05 0-.05.04-.03.08 0 0 0 .02.04.05l.07.1.1.14s.05.05.1.05z" fill="#343838"/><path d="M276.9 62.52v-.04-.1l-.02-.1v-.03l-.15-.12-.05-.07-.03-.06v-.05c0-.02-.03-.05-.03-.08s-.02-.06 0-.08l-.03-.05c-.03-.05-.02-.1 0-.12 0-.02.05-.05.1-.05v-.02l.2.04v.02l.16.1c.05.06.1.1.1.16v.05c.02.03.04.07.04.1l.02.1v.03c.02.03.02.05.02.08 0 .02-.02.03-.03.05l-.12.02v.05c0 .04.02.07 0 .1l.02.1v.04l-.2-.08zm.07-.36c.05 0 .08 0 .1-.04l-.03-.05c0-.02 0-.06-.02-.1l-.02-.08v-.05c-.03-.05-.08-.1-.14-.1-.06-.02-.08 0-.07.05v.04l.03.1c0 .02.02.05 0 .07l.03.05c0 .04.05.1.1.1z" fill="#343838"/><path d="M276.7 63.28l.04-.1.04-.08v-.04l-.06-.06-.05-.07c-.03-.06-.03-.08-.03-.13l.02-.1.02-.1c0-.04.02-.07.06-.08.03 0 .08-.02.15 0v-.02l.2.08v.02c.05.03.1.08.14.13.04.05.05.1.05.14l-.02.12-.02.1c-.02.05-.05.08-.1.1h-.07l-.1-.02v.03l-.03.1-.06.1-.2-.13v.02zm.23-.26c.05.03.1.03.12 0v-.12l.03-.1c0-.05-.04-.1-.1-.12-.04-.02-.08 0-.1.02v.1c0 .06-.03.12-.03.12 0 .03.03.08.08.1z" fill="#343838"/><path d="M267.08 60.62l.22.98c2.7-.62 4.4-3.32 3.8-6.03l-1 .22c.5 2.16-.85 4.32-3.02 4.82zM275.37 65.8l-1 .24c-.6-2.7 1.1-5.42 3.8-6.04l.22.98c-2.18.5-3.53 2.66-3.03 4.83z" fill="#3f2059"/><path d="M269.5 54.78l.16-.27 10.06 6.32-.16.26-10.06-6.3z" fill="#e2e2e2"/><path d="M273.8 63.34l-.84-3.74.6-.14.86 3.74-.42-.46z" fill="#00b4ce"/><path d="M269.98 60.94l3.74-.86-.14-.6-3.74.85.6.18z" fill="#00b4ce"/><path d="M271.74 60l-.44.1c.28 1.2 1.47 1.96 2.67 1.68l-.1-.43c-.96.22-1.9-.38-2.13-1.34z" fill="#00b4ce"/><path d="M265.8 60.67l.17-.26 8.7 5.45-.17.27-8.7-5.45z" fill="#e2e2e2"/></svg>
