<svg xmlns="http://www.w3.org/2000/svg" width="300" height="300" viewBox="0 0 300 300"><path fill="#a6f9fe" d="M0 0h300v300H0z"/><path d="M103.7 16c0 50.2-40.8 91-91 91-50.3 0-91-40.8-91-91 0-50.3 40.7-91 91-91 50.2 0 91 40.7 91 91z" fill="#ffeb3b"/><path d="M-8.4 155C-40 160-66 178.5-84 206.5c25.2 20.4 56.4 31 87.8 26.2 31.3-5 57.7-24 75.5-51.7C54 161 22.8 150-8.4 155z" fill="#74b855"/><path d="M212.2 164.3l-.3-.8-6 2v-9l2.8-1.6-.4-1-2.3 1.3V150h-.8v13l-4.8-4.6-.6.7 5.4 5v6h1v-3.5z" fill="#5e985b"/><path d="M-38.7 362.3l-17-168.5L336 154.4 352.7 323l-391.5 39.3z" fill="#7fd54a"/><path d="M216.2 25c-4 0-7.5 1-10.5 3-4.5-7.2-12.4-12-21.4-12-11 0-20.5 7-24 17.2-1.8-.7-3.8-1-6-1-9.4 0-17 7.5-17 17s7.6 17 17 17H216c11.5 0 20.7-9 20.7-20.6 0-11.3-9.2-20.6-20.5-20.6zM-72.7 33.8c0 5.4 1.6 11 4.4 15.6 9.2 16 29.8 21.7 46 12.4C-11 55.2-4.6 42.8-5.5 30c7.3 2.2 15.2 1.2 22-2.7 5.7-3.3 10-8.2 12.2-13.8 12.8 12.7 32.7 15.8 49 6.3 19.4-11 26-36 15-55.5C88.3-43 82.2-48.5 75.2-52l-148 85.8z" fill="#e3e3e3"/><path d="M158.6 284.4l-.5-.8c0-.3 0-.6-.3-1 0-.4-.3-.8-.4-1.3 0-.3-.2-.5-.3-.8 0-.3 0-.5-.2-.8l-.2-1c0-.2 0-.5-.2-.8v-1c-.2-.4-.2-.7-.2-1v-2-1-.6-.6-1c0-.3 0-.6.2-1v-.4c.2-.2.2-.3.2-.5 0-.4 0-.7.2-1 0-.2 0-.5.2-.7l.2-.8.3-.7c0-.2 0-.4.2-.6l.4-1c.4-.5.5-1 .5-1h-.3s0 .3-.4.8l-.5 1-.6 1.3c0 .3 0 .5-.2.8l-.2 1c-.2.5-.4 1-.4 1.8-.2.3-.2.6-.2 1v1c-.2.2-.2.3-.2.5v3.6c.2.3.2.7.2 1 0 .3 0 .6.2 1l.2 1c0 .2 0 .5.2.8l.3.8.2.7c0 .6.3 1 .5 1.4l.5 1c0 .2.3.4.4.5v.3h.3zM155.7 273.5c-1.4-2-2-4.5-2-4.5v-.2c-.2 0-.3 0-.3.2s.6 2.7 2 4.6h.2z" fill="#5e985b"/><path d="M156.5 279.4c-1.8-.8-3-3-3-3h-.3v.3s1.2 2 3 3c0 0 .2 0 .2-.2zM159 277.3v-.2.2s-1.2 2.6-2 3.6v.2h.2c1-1 2-3.6 2-3.7zM158.8 270.8v-.2h-.4c0 .2-1.2 3-2.6 4.2v.3c0 .2.2.2.2 0 1.5-1.4 2.7-4 2.8-4v-.2zM157.3 265.5c-1.3-.5-2.2-3-1.6-3.7.7-.6 1.5.6 1.5.6s.6-1.8 1.4-1.6c.8.3.5 2.2.5 2.2s1.7-.5 1.8.3c.2.8-2 2.8-3.5 2.2zM153.4 269.3c-1.2.4-3.3-1.3-3-2 0-1 1.3-.5 1.3-.5s-.5-1.8.2-2c.7-.3 1.5 1.5 1.5 1.5s1-1.3 1.4-.8c.5.6 0 3.4-1.6 3.8z" fill="#5e985b"/><path d="M153.4 277c-1 .7-3.3-.3-3.4-1 0-1 1-.8 1-.8s-1-1.6-.4-2c.6-.4 2 1 2 1s.2-1.5 1-1c.5 0 1 3-.2 3.8zM158.6 271.2c-1-.6-1.3-3-.6-3.6.6-.5 1 .7 1 .7s1-1.6 1.7-1.3c.6.2 0 2 0 2s1.5-.3 1.5.4-2.4 2.4-3.6 1.8zM158.8 277.4c-1-.5-1.3-3-.6-3.6.7-.5 1.2.7 1.2.7s1-1.6 1.5-1.4c.5.4 0 2.2 0 2.2s1.4-.4 1.4.3c0 .8-2.3 2.5-3.6 2zM26 190.3l-.5-1-.4-.8c0-.4-.2-.8-.4-1.4 0 0 0-.4-.2-.6 0-.3 0-.6-.2-.8l-.2-1-.2-1v-.8c-.2-.3-.2-.6-.2-1 0-.7 0-1.3-.2-2v-1-.6-.5c.2-.3.2-.7.2-1 0-.3 0-.6.2-1v-.5l.2-.4v-1c.2 0 .3-.4.4-.7 0 0 0-.4.2-.7l.2-.6c0-.3.2-.5.3-.7l.5-1 .4-.8s0-.2-.2-.2h-.2l-.5 1-.4 1-.5 1.2v.7l-.4.8c0 .6-.3 1-.3 1.8 0 .3 0 .6-.2 1v5.1c0 .5 0 .8.2 1 0 .4 0 .8.2 1 0 .4 0 .7.2 1 0 .4 0 .7.2 1l.2.7c0 .3.2.6.3.8l.5 1.3.6 1c0 .3.2.5.3.6 0 .3.2.3.2.3zM23 179.4c-1.3-2-2-4.5-2-4.6h-.2c0 .2.6 2.7 2 4.7h.2zM23.8 185.2c-1.8-.8-3-2.8-3-2.8h-.2v.2s1.2 2 3 3v-.2c.2 0 .2 0 .2-.2z" fill="#5e985b"/><path d="M26.5 183H26s-1 2.6-2 3.6v.2h.3c1-1 2-3.5 2-3.7 0 .2 0 .2 0 0zM26 176.7v-.2h-.2c0 .2-1.2 2.8-2.7 4.2v.2h.4c1.5-1.5 2.6-4.2 2.7-4.3zM24.6 171.3c-1.2-.5-2.2-3-1.5-3.7.7-.6 1.6.6 1.6.6s.6-1.7 1.4-1.5c.8.2.5 2 .5 2s1.6-.4 1.7.4c0 1-2 3-3.6 2.3zM20.8 175.2c-1.2.3-3.4-1.4-3.2-2.2.2-.8 1.5-.3 1.5-.3s-.5-1.8.3-2c.7-.3 1.6 1.4 1.6 1.4s.8-1.2 1.3-.6c.6.5 0 3.3-1.5 3.8zM20.8 183c-1 .6-3.3-.4-3.4-1.2-.2-.8 1-.7 1-.7s-1-1.5-.4-2c.5-.3 2 1 2 1s.2-1.4.8-1c.7.2 1.2 3 0 4z" fill="#5e985b"/><path d="M26 177c-1.2-.5-1.3-3-.7-3.5.7-.5 1.2.6 1.2.6s1-1.5 1.6-1.2c.7.3 0 2 0 2s1.6-.3 1.6.4c0 .8-2.4 2.5-3.7 1.8zM26.2 183.3c-1-.5-1.3-3-.6-3.6.7-.5 1 .6 1 .6s1-1.6 1.7-1.3c.6.3 0 2 0 2s1.5-.4 1.5.4c0 .7-2.3 2.5-3.6 2zM245.6 154.2l-.6.7c-.4.4-1 1-1.4 2l-1.5 3.3c0 .6-.3 1.2-.4 2-.2.6-.2 1.3-.3 2v2c.2.2.2.4.2.6v.4c.2.2.2.3.2.5v.4c.2 0 .2.3.3.5l.2.3v.4l.3.5.7 1.5c.3.5.5 1 .8 1.2l.6.8.6.8v.2h-.2l-.6-.8-.7-1-.7-1.2-.8-1.5c0-.2 0-.3-.2-.4 0-.3 0-.4-.2-.6v-.5l-.3-.5v-.5c-.2-.2-.2-.4-.2-.6v-.5l-.2-.6v-2.2c0-.7.2-1.4.3-2l.6-2c0-.7.3-1.2.6-1.8l.8-1.6c1-1.8 2-3 2-3h.2v.4z" fill="#5e985b"/><path d="M240.5 156.8v5.5l.4 2v1c0 .2 0 .5.2.7 0 .6.2 1 .3 1.2v.5l-.2-.4-.3-1.2-.2-.7-.2-1-.2-1v-1c-.2-.7-.3-1.3-.3-2v-1.8c.2-.5.2-1 .2-1.2v-.5s.2-.2.2 0zM246.6 160h-1l-.8.3c-.3 0-.7.2-1 .4-.2 0-.3 0-.5.2l-.4.2c-.3 0-.4.2-.5.2l-.3.3-.3.3c-.2 0-.2 0-.3.2v.2h-.2v-.3c.2 0 .2 0 .2-.2l.3-.3s.2 0 .3-.3c.2 0 .3-.2.4-.3l1-.7c.4 0 .7-.3 1-.4.4 0 .7-.2 1-.3.5 0 .8-.2.8-.2s.2 0 .2.2v.2zM242 152.7l.4.7.4.8c0 .3.3.6.3 1 0 .2 0 .3.2.5V158c-.2 0-.2.2-.2.2h-.2v-.4-.2-.3l.2-.3v-.5-.4c0-.2 0-.4-.2-.6 0-.3 0-.6-.2-1l-.4-.7-.4-.7v-.2h.2zM245 166.4l-.5 1c0 .3-.3.6-.4 1v1.2l-.3.6v2.9l-.2-.4v-.3c-.2-.2-.2-.3-.2-.5v-.5-.6-.7c.2-.2.2-.4.2-.6l.3-1.2c0-.4.2-.7.3-1l.5-1h.2c.2-.3.2-.2.2 0zM242 170s-.2 0-.5-.3l-1-.6c-.2 0-.3-.2-.5-.4-.2 0-.3-.2-.4-.3l-.2-.4v-.2c-.2 0-.2-.2 0-.2h.2l.2.4c0 .2.3.3.4.4.2 0 .3.3.5.4l1 .8c0 .2.3.2.3.2v.2z" fill="#5e985b"/><path d="M240.3 157.5s.6-1 1-1.3c.3-.7.2-1.5-.6-1.8-.7-.2-1.5.7-1 1.8.6 1 .6 1 .6 1.3zM246 160s1.2 0 1.6.2c.7.3 1.6-.2 1.5-1 0-.7-1-1.2-1.8-.4-.8 1-1 1-1 1zM245.6 155.5l1.6.4c.7.2 1.5-.2 1.5-1s-1.2-1.3-2-.5l-1 1zM245.2 159l1.3-.6c.7-.2 1-1 .5-1.5-.5-.7-1.5-.3-1.6.7l-.2 1.3zM243.6 152.8s.5-1 1-1.2c.3-.5.3-1.3-.4-1.6-.6-.2-1.4.5-1 1.5l.4 1.3zM239 157.6l-.6-1.4c0-.6-.8-1-1.4-.5-.6.4-.3 1.4.7 1.6l1.3.3zM239.4 160.7s-.3-1-.6-1.4c-.3-.7-1-1-1.5-.6-.5.5-.3 1.5.8 1.7l1.4.3zM243.4 166.7l.4-1.4c.2-.6-.2-1.4-1-1.3-.6 0-1 1-.3 1.7l1 1zM245.6 167.8s1 .2 1.3.4c.6.2 1.3-.2 1.3-1 0-.6-1-1-1.8-.3-.7.7-.7.7-1 .8zM246 161.2l1 1c.4.8 1.3 1 1.8 0 .3-.6-.4-1.5-1.5-1.3-1 0-1.2 0-1.4.2zM244.5 167l1.5-1c.7 0 1-1 .5-1.5-.5-.6-1.6-.2-1.7 1l-.3 1.4zM245.4 154.3s1-.6 1.5-.7c.5-.3 1-1 .4-1.7-.6-.6-1.7-.3-1.8 1l-.2 1.3zM242.2 153v-1.6c0-.7-.6-1.4-1.3-1-.8 0-1 1.2 0 2l1.2.6zM239.7 168l-.4-1.5c-.2-.8-1-1.2-1.7-.8-.6.5-.4 1.6.8 2l1.3.3zM239.6 169l-1.3-.6c-.6-.3-1.4 0-1.4.7-.2.8.8 1.3 1.6.7l1-.8z" fill="#5e985b"/><path d="M246 167.7l-.2.2c-.3 0-.6 0-.8.2l-.8.6-.2.2h-.2v-.2l.3-.2 1-.6.8-.3h.5z" fill="#5e985b"/><path d="M243.5 166.4v1.3l.3.8v.3c.2 0 0 .2 0 .2v-.2c-.2 0-.2-.2-.2-.3 0-.3 0-.6-.2-1l-.2-1v-.3c.2 0 .3 0 .3.2zM241 169.4s-.2 0-.3-.2l-.6-.2h-.6-.3v-.2h.4c0-.2.4 0 .7 0h.8c.2 0 .3.2.3.2h.2c0 .4 0 .4-.2.4zM240.3 160c-.5-1.8-2-3-2-3v-.2s1.6 1.3 2 3v.2zM243.8 152v.5l-.3 1c0 .3-.2.6-.3.8 0 .3-.2.4-.2.4h-.2v-.4l.4-1 .2-1v-.3h.4zM246.5 161.3c-1-.2-2.5-.7-2.5-.8v-.2c1-.7 1.6-2 1.6-2v-.2l.2.3s-.7 1.3-1.6 2l2.3.8v.2zM244 156.2v-.2c.8-.6 2.4-1 2.5-1v.4s-1.6.3-2.4.8zM240.5 163v-.2s-.6-1.7-1.8-2.6v-.2c1.4 1 1.8 2.7 2 2.7 0 0 0 .2-.2.2zM105 163.7l-1.7 2-4 6.2c-1.4 2.4-3 5.6-4 9-.6 2-1.2 3.7-1.6 5.7-.5 2-.5 4-.7 6-.2 2 0 3.8.2 5.7.2.6.2 1 .2 1.5l.3 1.5.3 1.5c0 .4.2 1 .4 1.3l.4 1.3.5 1.3.4 1c.2.6.3 1 .6 1.4.5 1.6 1.2 3 2 4.4.8 1.2 1.5 2.4 2 3.5 1 1 1.4 1.8 2 2.5 1 1.4 1.8 2.2 1.8 2.2.3.2.3.4 0 .5-.3.2-.5.2-.6-.2l-1.8-2c-.5-.8-1-1.7-2-2.7-.6-1-1.2-2.3-2-3.4-.7-1.4-1.5-3-2-4.5-.4-.4-.6-.8-.7-1.2l-.6-1.3-.4-1.3-.5-1.4-.4-1.6c0-.5 0-1-.2-1.5l-.3-1.5v-1.5c-.4-2-.4-4-.3-6 .2-2 .4-4 .8-6s1-4 1.5-5.7c.5-1.8 1.2-3.4 2-5 .7-1.6 1.5-3 2.3-4.5 3.2-5.2 6-8.3 6-8.3 0-.2.4-.2.4 0v.7z" fill="#5e985b"/><path d="M90.7 171.3l-.2 1.4-.2 3.4c0 1.5 0 3.3.2 5l.4 6c0 2 .4 3.8.6 5.7l.5 2.5c.3.8.4 1.6.5 2.3l.8 3.5.5 1.3c0 .2 0 .2-.2.3-.2 0-.2 0-.3-.2 0 0 0-.5-.4-1.2-.4-.8-.8-2-1-3.5-.4-.7-.5-1.5-.6-2.3l-.6-2.6c0-1-.4-1.8-.4-2.8l-.4-3c-.3-2-.5-4-.5-5.7-.2-2-.2-3.7 0-5l.3-3.7.2-1.4c0-.2.2-.4.4-.2.2 0 .3.2.3.3zM108 180s-1 0-2.6.5l-2.6.7-2.8 1-1.3.8-1.3.7c-.4.2-.8.5-1 .8-.5.2-.8.5-1 .8l-.7.7c-.3.3-.5.4-.6.7 0 .4-.3.5-.3.5-.2.2-.2.2-.3 0-.2 0-.2 0-.2-.2l.5-.7.4-.8c.4-.2.6-.5.8-.8l1-1c.5-.2.8-.5 1-1l3-1.4c1-.5 2-.8 3-1 .8-.4 1.7-.6 2.4-.8l2.6-.4c.3 0 .5.2.5.5 0 .2 0 .4-.3.4zM94.8 159.4s.8.8 1.3 2l1.2 2.4c.2.8.7 1.8.8 2.8 0 .5 0 1 .2 1.5.2.7.2 1 .2 1.6.2.6 0 1 0 1.4 0 .4 0 .8-.2 1.2l-.2 1v.8c-.3.4-.3.7-.3.7 0 .3-.3.3-.5.3l-.2-.5v-.2s.2-.2.2-.7v-.7c.3-.3.3-.8.3-1l.2-1c0-.6.2-1 0-1.4-.2-.4 0-1-.2-1.3l-.3-1.5c0-1-.5-2-.8-2.7-.2-.7-.7-1.5-1-2.2-.6-1.2-1.2-2-1.2-2-.2-.2-.2-.3.2-.5h.4zM103 198.6s-.5 1-1 3c-.3.6-.8 1.7-1 2.8-.5 1-.7 2-.8 3.4l-.5 1.7c0 .6 0 1-.2 1.8l-.2 1.6v1.4c.2.5.2.8.2 1.3v1l.3.7v.2c0 .2-.2.3-.2.3-.2 0-.3-.3-.3-.3l-.3-.8c-.2-.4-.2-.6-.2-1-.2-.5-.2-1-.2-1.3 0-.5 0-1-.2-1.5l.2-1.6c.2-.6.2-1 .2-1.8.2-.5.3-1.2.3-1.8l1-3.4c.2-1 .6-2 1-3l1-2.8c0-.2.2-.3.5-.2.5-.4.7-.3.5 0zM94.8 208.8l-1.3-.7c-.8-.4-2-1-2.8-1.8l-1.5-1.2-1-1-.8-1-.3-.5c0-.2 0-.4.3-.5.2-.2.4-.2.4.2 0 0 .2 0 .3.2l.7.8c.3.5.7.7 1 1l1.4 1.3 2.7 2.2 1.2.7c0 .2 0 .4-.2.5v-.2z" fill="#5e985b"/><path d="M90 173l2.5-3.6c1.3-1.8 1-4.3-1.3-5-2-.5-4.3 2-2.8 5s1.5 3 1.7 3.7zM106.5 180l4.4 1c2 .7 4.4-.5 4.2-3-.3-2-3.2-3.3-5.6-1-2.3 2.4-2.4 2.6-3 3zM105.2 167.5l4.4 1.2c2 .8 4.4-.4 4.3-2.8-.3-2.2-3.3-3.6-5.7-1.3-2.3 2.3-2.4 2.3-3 2.8zM104 177.6l3.7-1.7c2-1 3-3 1.4-4.6-1.3-1.5-4-.5-4.5 2.4l-.5 3.8zM99.4 159.7s1.6-2.3 2.6-3.2c1.2-1.5 1-3.8-.8-4.6-2-.8-4 1.4-3 4.2l1.2 3.5zM86.2 173.4l-1.5-3.8c-.4-1.8-2.5-3-4.3-1.6-1.5 1.3-.8 4.2 2.2 4.7l3.6.7zM87.3 182.3s-.8-3-1.5-4c-1-1.8-2.6-3-4.3-1.6-1.5 1.3-.8 4.2 2 4.8 3 .5 3.2.5 3.8.8zM98.8 199.4l1-4c.8-1.8-.3-3.8-2.5-3.6-1.8 0-3 3-1 5s2.2 2 2.5 2.6zM105 202.6l4 1c1.8.8 4-.4 3.7-2.5-.2-1.8-3-3-5-1-2 2.3-2 2.3-2.6 2.6zM106 183.7s2 2 3 3.4c1.4 1.8 4 2 5 0s-.8-4.7-4-4l-4 .7zM102 200s3-1.6 4.2-2c2-1 3-3.3 1.5-5-1.5-1.4-4.7-.4-5 3l-.7 4zM104.5 164s3-1.6 4.2-2c2-.7 3-3 1.4-4.7-1.4-1.6-4.6-.6-4.8 2.6l-.7 4zM95.4 160.5s-.2-3 0-4.6c.2-2.2-1.6-4.2-3.8-3.4-2 .7-2.4 4 .5 5.7l3.4 2.2zM88.4 203.3s-1-3-1.3-4.4c-.4-2.3-2.6-3.6-4.6-2.3-1.8 1.3-1.2 4.6 2 5.4l4 1.3zM88 205.8l-3.7-1.5c-1.8-.8-4 .2-4 2-.2 2 2.5 3.5 5 1.6l2.7-2.2z" fill="#5e985b"/><path d="M106.7 202.3l-1 .5c-.8.2-1.6.5-2.4 1-.8.5-1.6 1-2 1.6l-.6.5c-.2 0-.3.2-.3.2h-.5c-.3-.2-.3-.5 0-.6 0 0 0-.2.2-.2.2-.2.4-.5.7-.6.4-.5 1.4-1 2.2-1.5l2.4-1 1-.2c.2 0 .3.2.3.2h-.3z" fill="#5e985b"/><path d="M99 198.6l.5 3.7c0 1 .2 1.8.4 2.3 0 .5 0 .6.2.8l.2.3c0 .2 0 .3-.2.3-.2.2-.3 0-.3-.2 0 0-.3-.2-.3-.4 0-.3 0-.6-.2-.8l-.6-2.4-.6-3.7c0-.2.2-.4.3-.4 0 .3.3.4.3.6zM92 207s-.4 0-.8-.4c-.5-.3-1.2-.4-2-.5l-2-.2H86.4c-.2 0-.2-.2-.2-.2 0-.2 0-.2.3-.2h.3c.2 0 .4-.3.7-.3.5 0 1.3 0 2 .3.8 0 1.5.2 2 .4l1 .3c.3.2.3.2.3.4-.2.6-.3.7-.6.6zM90 180.4l-.2-.3c-1.3-4.7-5.5-8.2-5.6-8.2-.2-.2-.2-.3-.2-.5l.4-.2c.3.3 4.6 3.8 5.8 9 .2 0 0 .4-.2.4zM100 157.8l-.2 1.3-.7 2.7c-.2 1-.5 2-.8 2.5l-.5 1c-.2.3-.3.3-.5.3v-.5s0-.4.3-1l.8-2.6c.3-1 .5-2 .5-2.7l.3-1.2c0-.2.4-.4.6-.4.3.4.5.5.5.8zM107.7 184c-3-.4-7-2-7.3-2.2 0-.2-.2-.2-.2-.3l.2-.2c2.6-2 4.7-6 4.7-6 .2-.2.3-.3.5-.2.2.2.3.3.2.5-.2.2-2 3.7-4.5 6 1.3.4 4.3 1.5 6.4 2 .3 0 .3.2.3.4h-.3zM100.7 169.6h-.3c0-.3 0-.6.2-.6 2.3-1.8 6.7-2.6 7-2.6.2 0 .4.3.4.4 0 .2-.2.4-.3.4-.2 0-4.7.8-7 2.4.2 0 .2 0 0 0zM90.6 188.7c-.2 0-.3-.2-.3-.3 0-.2-1.5-5-5-7.4 0-.2-.2-.3 0-.4 0-.2 0-.3.3-.2 3.7 2.6 5 7.5 5.2 7.6 0 .4 0 .7-.2.7zM55.6 201.7l-.2-1-5.8 2.2v-9.3l2.6-1.5-.4-.8-2.2 1.3v-5.4h-1v13l-4.8-4.6-.6.7 5.5 5v6h1V204z" fill="#5e985b"/><path d="M34.6 207.6c-3.6-1.6-5 .6-11-5.5-2.4-2-6-.8-7.4 1.7-1.5 2.5-.2 5 1.7 7.2 3.2 3.8 2.4 7.8 8.3 11.2 4 2.3 9.6 1 12-3.2 2.3-4 2-9-3.7-11.4z" fill="#815c22"/><path d="M28.4 215.5c-1.6-2.8-7.6-8-7.6-8 8 .7 13.6 11.7 13.6 13.3 0 1.5-2.4 2.8-2.8 2.5-.6-.4-1.5-5-3.2-7.8z" fill="#cca362"/><path d="M31.4 214c-.8-3.2-5-10-5-10 7.4 3 9.7 15.2 9.2 16.6-.5 1.5-3 2-3.3 1.7-.6-.5-.2-5-1-8.4z" fill="#cca362"/><path d="M26.4 217.2c-3-1.5-9-7.5-9-7.5 1.3 8.4 13.3 13.6 15 13.4 1.6 0 2.8-2.5 2.4-3-.4-.6-5.2-1.2-8.4-2.8z" fill="#cca362"/></svg>