<?xml version="1.0" encoding="utf-8" ?>
<!-- Generator: Assembly 1.0 - http://assemblyapp.co -->
<svg version="1.1" xmlns="http://www.w3.org/2000/svg" xmlns:xlink="http://www.w3.org/1999/xlink" width="300" height="300" viewBox="0 0 300 300">
	<rect x="0" y="0" width="300" height="300" fill="#c4ecff" />
	<g id="widget" transform="matrix(1,0,0,1,150,150)">
		<path d="M-93.2031,-101.723 C-93.1411,-91.7258 -101.195,-83.5713 -111.192,-83.5093 C-121.189,-83.4473 -129.344,-91.5013 -129.406,-101.498 C-129.468,-111.496 -121.414,-119.65 -111.417,-119.712 C-101.42,-119.774 -93.2651,-111.72 -93.2031,-101.723 Z" fill="#ffd806" />
		<path d="M-71.5519,-94.977 C-71.5519,-73.3142 -89.1131,-55.753 -110.776,-55.753 C-132.439,-55.753 -150,-73.3142 -150,-94.977 C-150,-116.64 -132.439,-134.201 -110.776,-134.201 C-89.1131,-134.201 -71.5519,-116.64 -71.5519,-94.977 Z" fill="#ffd806" />
		<path d="M-94.9801,-101.638 C-94.2664,-92.6778 -100.951,-84.8357 -109.911,-84.1219 C-118.871,-83.4082 -126.713,-90.0931 -127.427,-99.053 C-128.141,-108.013 -121.456,-115.855 -112.496,-116.569 C-103.536,-117.283 -95.6939,-110.598 -94.9801,-101.638 Z" fill="#fafafa" />
		<path d="M118.086,24.5966 C118.086,7.2054 67.4242,-6.87322 4.84215,-6.87322 C-57.7399,-6.87322 -108.402,7.2054 -108.402,24.5966 L118.086,24.5966 Z" fill="#fbfbfb" fill-opacity="1" />
		<path d="M-150,150.278 L-150,19.2132 L149.86,19.2132 L149.86,150.278 L-150,150.278 Z" fill="#fafafa" fill-opacity="1" />
		<path d="M150,12.5279 L37.7284,24.5966 L150,24.5966 Z" fill="#fafafa" fill-opacity="1" />
		<path d="M58.4514,-4.9341 C58.4514,-3.86316 57.7953,-2.99498 56.9859,-2.99498 C56.1765,-2.99498 55.5204,-3.86316 55.5204,-4.9341 C55.5204,-6.00505 56.1765,-6.87322 56.9859,-6.87322 C57.7953,-6.87322 58.4514,-6.00505 58.4514,-4.9341 Z" fill="#fbfbfb" fill-opacity="1" />
		<path d="M121.017,-72.8537 C121.017,-71.7827 120.361,-70.9146 119.551,-70.9146 C118.742,-70.9146 118.086,-71.7827 118.086,-72.8537 C118.086,-73.9246 118.742,-74.7928 119.551,-74.7928 C120.361,-74.7928 121.017,-73.9246 121.017,-72.8537 Z" fill="#fbfbfb" fill-opacity="1" />
		<path d="M-90.2717,20.7441 C-90.2717,21.815 -90.9278,22.6832 -91.7372,22.6832 C-92.5466,22.6832 -93.2027,21.815 -93.2027,20.7441 C-93.2027,19.6731 -92.5466,18.805 -91.7372,18.805 C-90.9278,18.805 -90.2717,19.6731 -90.2717,20.7441 Z" fill="#fbfbfb" fill-opacity="1" />
		<path d="M30.6942,-57.6921 C30.6942,-56.6211 30.0381,-55.753 29.2287,-55.753 C28.4193,-55.753 27.7632,-56.6211 27.7632,-57.6921 C27.7632,-58.763 28.4193,-59.6312 29.2287,-59.6312 C30.0381,-59.6312 30.6942,-58.763 30.6942,-57.6921 Z" fill="#fbfbfb" fill-opacity="1" />
		<path d="M-65.6899,-53.8139 C-65.6899,-52.7429 -66.346,-51.8747 -67.1554,-51.8747 C-67.9648,-51.8747 -68.6209,-52.7429 -68.6209,-53.8139 C-68.6209,-54.8848 -67.9648,-55.753 -67.1554,-55.753 C-66.346,-55.753 -65.6899,-54.8848 -65.6899,-53.8139 Z" fill="#fbfbfb" fill-opacity="1" />
		<path d="M118.086,-125.64 C118.086,-124.569 117.43,-123.701 116.62,-123.701 C115.811,-123.701 115.155,-124.569 115.155,-125.64 C115.155,-126.711 115.811,-127.579 116.62,-127.579 C117.43,-127.579 118.086,-126.711 118.086,-125.64 Z" fill="#fbfbfb" fill-opacity="1" />
		<path d="M-36.602,-86.0088 C-36.602,-84.9379 -37.2581,-84.0697 -38.0675,-84.0697 C-38.8769,-84.0697 -39.533,-84.9379 -39.533,-86.0088 C-39.533,-87.0798 -38.8769,-87.9479 -38.0675,-87.9479 C-37.2581,-87.9479 -36.602,-87.0798 -36.602,-86.0088 Z" fill="#fbfbfb" fill-opacity="1" />
		<path d="M-108.402,-136.14 C-108.402,-135.069 -109.058,-134.201 -109.867,-134.201 C-110.676,-134.201 -111.333,-135.069 -111.333,-136.14 C-111.333,-137.211 -110.676,-138.079 -109.867,-138.079 C-109.058,-138.079 -108.402,-137.211 -108.402,-136.14 Z" fill="#fbfbfb" fill-opacity="1" />
		<path d="M21.1929,27.4368 C20.6574,28.3643 19.6551,28.7881 18.9542,28.3834 C18.2532,27.9787 18.1191,26.8988 18.6545,25.9713 C19.19,25.0439 20.1923,24.6201 20.8933,25.0247 C21.5942,25.4294 21.7284,26.5094 21.1929,27.4368 Z" fill="#fbfbfb" fill-opacity="1" />
		<path d="M82.9251,101.095 C82.9251,102.166 82.2689,103.034 81.4595,103.034 C80.6502,103.034 79.994,102.166 79.994,101.095 C79.994,100.024 80.6502,99.1556 81.4595,99.1556 C82.2689,99.1556 82.9251,100.024 82.9251,101.095 Z" fill="#fbfbfb" fill-opacity="1" />
		<path d="M40.6594,48.5009 C40.6594,49.5718 40.0032,50.44 39.1939,50.44 C38.3845,50.44 37.7284,49.5718 37.7284,48.5009 C37.7284,47.4299 38.3845,46.5618 39.1939,46.5618 C40.0032,46.5618 40.6594,47.4299 40.6594,48.5009 Z" fill="#fbfbfb" fill-opacity="1" />
		<path d="M115.155,24.6223 C115.155,25.6933 114.499,26.5614 113.689,26.5614 C112.88,26.5614 112.224,25.6933 112.224,24.6223 C112.224,23.5514 112.88,22.6832 113.689,22.6832 C114.499,22.6832 115.155,23.5514 115.155,24.6223 Z" fill="#fbfbfb" fill-opacity="1" />
		<path d="M-18.6761,45.1601 C-19.0115,45.4954 -19.0115,46.0391 -18.6761,46.3744 C-18.3408,46.7097 -17.7971,46.7097 -17.4618,46.3744 L-16.9832,45.8958 C-16.575,45.4876 -15.9133,45.4876 -15.5051,45.8958 C-15.097,46.3039 -15.097,46.9657 -15.5051,47.3739 L-16.7871,48.6558 C-17.1952,49.064 -17.1952,49.7257 -16.7871,50.1339 C-16.3789,50.5421 -15.7171,50.5421 -15.309,50.1339 L-13.3056,48.1306 C-13.138,47.9629 -12.8661,47.9629 -12.6985,48.1306 C-12.5308,48.2982 -12.5308,48.5701 -12.6985,48.7377 L-13.0212,49.0604 C-13.1888,49.2281 -13.1888,49.4999 -13.0212,49.6676 C-12.8535,49.8352 -12.5817,49.8352 -12.414,49.6676 L-8.16489,45.4185 C-7.99723,45.2508 -7.99723,44.979 -8.1649,44.8113 C-8.33256,44.6436 -8.60439,44.6436 -8.77206,44.8113 L-9.52052,45.5598 C-9.68819,45.7274 -9.96002,45.7274 -10.1277,45.5598 C-10.2953,45.3921 -10.2953,45.1203 -10.1277,44.9526 L-8.6775,43.5024 C-7.86117,42.6861 -7.86117,41.3626 -8.6775,40.5462 C-9.49382,39.7299 -10.8173,39.7299 -11.6337,40.5462 L-11.7438,40.6563 C-11.9114,40.824 -12.1833,40.824 -12.3509,40.6563 C-12.5186,40.4887 -12.5186,40.2168 -12.3509,40.0492 L-12.0282,39.7265 C-11.8606,39.5588 -11.8606,39.287 -12.0282,39.1193 C-12.1959,38.9517 -12.4677,38.9517 -12.6354,39.1193 L-18.6761,45.1601 Z" fill="#dedede" fill-opacity="1" />
		<path d="M-8.57869,33.8843 C-8.98938,34.1214 -9.13009,34.6465 -8.89298,35.0572 C-8.65587,35.4679 -8.13072,35.6086 -7.72004,35.3715 L-7.13386,35.0331 C-6.63397,34.7445 -5.99476,34.9157 -5.70614,35.4156 C-5.41753,35.9155 -5.5888,36.5547 -6.0887,36.8433 L-7.65874,37.7498 C-8.15864,38.0384 -8.32991,38.6776 -8.0413,39.1775 C-7.75268,39.6774 -7.11347,39.8487 -6.61358,39.5601 L-4.16002,38.1435 C-3.95467,38.025 -3.6921,38.0953 -3.57355,38.3007 C-3.45499,38.506 -3.52534,38.7686 -3.73069,38.8871 L-4.12591,39.1153 C-4.33125,39.2339 -4.40161,39.4964 -4.28306,39.7018 C-4.1645,39.9071 -3.90193,39.9775 -3.69658,39.8589 L1.50752,36.8544 C1.71286,36.7358 1.78322,36.4732 1.66466,36.2679 C1.5461,36.0625 1.28353,35.9922 1.07819,36.1107 L0.161508,36.64 C-0.0438378,36.7585 -0.306406,36.6882 -0.424963,36.4828 C-0.543517,36.2775 -0.473164,36.0149 -0.267818,35.8964 L1.50829,34.8709 C2.50808,34.2937 2.85063,33.0153 2.2734,32.0155 C1.69617,31.0157 0.417749,30.6731 -0.58204,31.2504 L-0.716884,31.3282 C-0.922226,31.4468 -1.1848,31.3764 -1.30335,31.1711 C-1.42191,30.9657 -1.35155,30.7032 -1.14621,30.5846 L-0.750988,30.3564 C-0.545642,30.2379 -0.475289,29.9753 -0.593843,29.77 C-0.7124,29.5646 -0.97497,29.4943 -1.18032,29.6128 L-8.57869,33.8843 Z" fill="#dedede" fill-opacity="1" />
		<path d="M2.29577,36.7981 C1.88508,37.0352 1.74437,37.5603 1.98148,37.971 C2.2186,38.3817 2.74374,38.5224 3.15443,38.2853 L3.7406,37.9469 C4.2405,37.6583 4.87971,37.8295 5.16832,38.3294 C5.45694,38.8293 5.28566,39.4685 4.78576,39.7572 L3.21572,40.6636 C2.71583,40.9522 2.54455,41.5914 2.83316,42.0913 C3.12178,42.5912 3.76099,42.7625 4.26089,42.4739 L6.71445,41.0573 C6.91979,40.9388 7.18236,41.0091 7.30092,41.2145 C7.41947,41.4198 7.34912,41.6824 7.14377,41.8009 L6.74855,42.0291 C6.54321,42.1477 6.47285,42.4103 6.59141,42.6156 C6.70996,42.8209 6.97254,42.8913 7.17788,42.7727 L12.382,39.7682 C12.5873,39.6496 12.6577,39.387 12.5391,39.1817 C12.4206,38.9763 12.158,38.906 11.9527,39.0245 L11.036,39.5538 C10.8306,39.6723 10.5681,39.602 10.4495,39.3966 C10.3309,39.1913 10.4013,38.9287 10.6066,38.8102 L12.3828,37.7847 C13.3825,37.2075 13.7251,35.9291 13.1479,34.9293 C12.5706,33.9295 11.2922,33.5869 10.2924,34.1642 L10.1576,34.242 C9.95224,34.3606 9.68966,34.2902 9.57111,34.0849 C9.45255,33.8795 9.52291,33.617 9.72825,33.4984 L10.1235,33.2702 C10.3288,33.1517 10.3992,32.8891 10.2806,32.6838 C10.1621,32.4784 9.89949,32.4081 9.69415,32.5266 L2.29577,36.7981 Z" fill="#dedede" fill-opacity="1" />
		<path d="M-8.63754,47.8499 C-8.97286,48.1852 -8.97286,48.7289 -8.63753,49.0642 C-8.30221,49.3996 -7.75854,49.3996 -7.42322,49.0642 L-6.94461,48.5856 C-6.53644,48.1775 -5.87468,48.1775 -5.46652,48.5856 C-5.05836,48.9938 -5.05836,49.6555 -5.46652,50.0637 L-6.74846,51.3456 C-7.15662,51.7538 -7.15662,52.4156 -6.74846,52.8237 C-6.34029,53.2319 -5.67853,53.2319 -5.27037,52.8237 L-3.26705,50.8204 C-3.09938,50.6527 -2.82755,50.6527 -2.65989,50.8204 C-2.49222,50.9881 -2.49222,51.2599 -2.65989,51.4276 L-2.98258,51.7503 C-3.15025,51.9179 -3.15025,52.1898 -2.98258,52.3574 C-2.81492,52.5251 -2.54308,52.5251 -2.37542,52.3574 L1.87371,48.1083 C2.04137,47.9406 2.04137,47.6688 1.8737,47.5011 C1.70604,47.3335 1.43421,47.3335 1.26655,47.5011 L0.518079,48.2496 C0.350415,48.4173 0.0785842,48.4173 -0.0890796,48.2496 C-0.256741,48.0819 -0.256743,47.8101 -0.0890796,47.6424 L1.36111,46.1922 C2.17743,45.3759 2.17743,44.0524 1.36111,43.2361 C0.54478,42.4198 -0.77874,42.4198 -1.59507,43.2361 L-1.70516,43.3462 C-1.87283,43.5138 -2.14466,43.5138 -2.31232,43.3462 C-2.47999,43.1785 -2.47998,42.9067 -2.31232,42.739 L-1.98963,42.4163 C-1.82196,42.2487 -1.82196,41.9768 -1.98963,41.8092 C-2.15729,41.6415 -2.42912,41.6415 -2.59679,41.8092 L-8.63754,47.8499 Z" fill="#dedede" fill-opacity="1" />
		<path d="M4.08446,21.4057 C3.67377,21.6428 3.53306,22.168 3.77017,22.5786 C4.00728,22.9893 4.53242,23.13 4.94311,22.8929 L5.52929,22.5545 C6.02918,22.2659 6.66839,22.4372 6.95701,22.9371 C7.24562,23.437 7.07434,24.0762 6.57445,24.3648 L5.00441,25.2712 C4.50451,25.5599 4.33324,26.1991 4.62185,26.699 C4.91046,27.1989 5.54968,27.3701 6.04957,27.0815 L8.50313,25.665 C8.70848,25.5464 8.97105,25.6168 9.0896,25.8221 C9.20816,26.0275 9.1378,26.29 8.93246,26.4086 L8.53724,26.6368 C8.33189,26.7553 8.26154,27.0179 8.38009,27.2232 C8.49865,27.4286 8.76122,27.4989 8.96656,27.3804 L14.1707,24.3758 C14.376,24.2572 14.4464,23.9947 14.3278,23.7893 C14.2093,23.584 13.9467,23.5136 13.7413,23.6322 L12.8247,24.1614 C12.6193,24.28 12.3567,24.2096 12.2382,24.0043 C12.1196,23.7989 12.19,23.5364 12.3953,23.4178 L14.1714,22.3924 C15.1712,21.8151 15.5138,20.5367 14.9365,19.5369 C14.3593,18.5371 13.0809,18.1946 12.0811,18.7718 L11.9463,18.8497 C11.7409,18.9682 11.4783,18.8979 11.3598,18.6925 C11.2412,18.4872 11.3116,18.2246 11.5169,18.106 L11.9122,17.8779 C12.1175,17.7593 12.1879,17.4967 12.0693,17.2914 C11.9507,17.0861 11.6882,17.0157 11.4828,17.1342 L4.08446,21.4057 Z" fill="#dedede" fill-opacity="1" />
		<path d="M13.8577,27.0483 C13.447,27.2854 13.3063,27.8106 13.5434,28.2212 C13.7806,28.6319 14.3057,28.7726 14.7164,28.5355 L15.3026,28.1971 C15.8025,27.9085 16.4417,28.0798 16.7303,28.5797 C17.0189,29.0796 16.8476,29.7188 16.3477,30.0074 L14.7777,30.9139 C14.2778,31.2025 14.1065,31.8417 14.3951,32.3416 C14.6837,32.8415 15.323,33.0127 15.8228,32.7241 L18.2764,31.3076 C18.4818,31.189 18.7443,31.2594 18.8629,31.4647 C18.9814,31.6701 18.9111,31.9326 18.7057,32.0512 L18.3105,32.2794 C18.1052,32.3979 18.0348,32.6605 18.1534,32.8658 C18.2719,33.0712 18.5345,33.1415 18.7398,33.023 L23.9439,30.0184 C24.1493,29.8998 24.2196,29.6373 24.1011,29.4319 C23.9825,29.2266 23.72,29.1562 23.5146,29.2748 L22.5979,29.804 C22.3926,29.9226 22.13,29.8522 22.0115,29.6469 C21.8929,29.4415 21.9633,29.179 22.1686,29.0604 L23.9447,28.035 C24.9445,27.4577 25.2871,26.1793 24.7098,25.1795 C24.1326,24.1797 22.8542,23.8372 21.8544,24.4144 L21.7195,24.4923 C21.5142,24.6108 21.2516,24.5405 21.1331,24.3351 C21.0145,24.1298 21.0849,23.8672 21.2902,23.7487 L21.6854,23.5205 C21.8908,23.4019 21.9611,23.1393 21.8426,22.934 C21.724,22.7287 21.4615,22.6583 21.2561,22.7769 L13.8577,27.0483 Z" fill="#dedede" fill-opacity="1" />
		<path d="M16.7586,13.1289 C16.3005,13.2516 16.0287,13.7225 16.1515,14.1805 C16.2742,14.6386 16.745,14.9104 17.2031,14.7877 L17.8569,14.6125 C18.4144,14.4631 18.9875,14.794 19.1369,15.3515 C19.2863,15.9091 18.9555,16.4822 18.3979,16.6316 L16.6467,17.1008 C16.0892,17.2502 15.7583,17.8233 15.9077,18.3809 C16.0571,18.9384 16.6302,19.2693 17.1878,19.1199 L19.9243,18.3867 C20.1534,18.3253 20.3888,18.4612 20.4502,18.6902 C20.5115,18.9193 20.3756,19.1547 20.1466,19.2161 L19.7058,19.3342 C19.4767,19.3955 19.3408,19.631 19.4022,19.86 C19.4636,20.089 19.699,20.2249 19.928,20.1636 L25.7324,18.6083 C25.9615,18.5469 26.0974,18.3115 26.036,18.0825 C25.9746,17.8534 25.7392,17.7175 25.5102,17.7789 L24.4878,18.0528 C24.2587,18.1142 24.0233,17.9783 23.9619,17.7493 C23.9006,17.5202 24.0365,17.2848 24.2655,17.2234 L26.2465,16.6926 C27.3616,16.3938 28.0234,15.2476 27.7246,14.1325 C27.4258,13.0174 26.2796,12.3556 25.1645,12.6544 L25.0141,12.6947 C24.7851,12.7561 24.5496,12.6202 24.4883,12.3912 C24.4269,12.1621 24.5628,11.9267 24.7918,11.8653 L25.2327,11.7472 C25.4617,11.6859 25.5976,11.4504 25.5362,11.2214 C25.4749,10.9924 25.2395,10.8565 25.0104,10.9178 L16.7586,13.1289 Z" fill="#dedede" fill-opacity="1" />
		<path d="M26.1726,18.5641 C25.7145,18.6868 25.4427,19.1576 25.5655,19.6157 C25.6882,20.0738 26.159,20.3456 26.6171,20.2229 L27.2709,20.0477 C27.8284,19.8983 28.4015,20.2292 28.5509,20.7867 C28.7003,21.3443 28.3695,21.9174 27.8119,22.0668 L26.0607,22.536 C25.5032,22.6854 25.1723,23.2585 25.3217,23.8161 C25.4711,24.3736 26.0442,24.7045 26.6018,24.5551 L29.3383,23.8218 C29.5674,23.7605 29.8028,23.8964 29.8642,24.1254 C29.9255,24.3544 29.7896,24.5899 29.5606,24.6512 L29.1198,24.7693 C28.8907,24.8307 28.7548,25.0661 28.8162,25.2952 C28.8776,25.5242 29.113,25.6601 29.342,25.5987 L35.1464,24.0435 C35.3755,23.9821 35.5114,23.7467 35.45,23.5176 C35.3886,23.2886 35.1532,23.1527 34.9242,23.2141 L33.9018,23.488 C33.6727,23.5494 33.4373,23.4135 33.3759,23.1844 C33.3146,22.9554 33.4505,22.72 33.6795,22.6586 L35.6605,22.1278 C36.7756,21.829 37.4374,20.6828 37.1386,19.5677 C36.8398,18.4526 35.6936,17.7908 34.5785,18.0896 L34.4281,18.1299 C34.1991,18.1913 33.9636,18.0554 33.9023,17.8263 C33.8409,17.5973 33.9768,17.3619 34.2058,17.3005 L34.6467,17.1824 C34.8757,17.121 35.0116,16.8856 34.9502,16.6566 C34.8889,16.4276 34.6535,16.2916 34.4244,16.353 L26.1726,18.5641 Z" fill="#dedede" fill-opacity="1" />
		<path d="M29.1575,8.0101 C28.7468,8.24721 28.6061,8.77236 28.8432,9.18304 C29.0803,9.59373 29.6054,9.73444 30.0161,9.49733 L30.6023,9.1589 C31.1022,8.87029 31.7414,9.04157 32.03,9.54146 C32.3186,10.0414 32.1473,10.6806 31.6475,10.9692 L30.0774,11.8756 C29.5775,12.1643 29.4062,12.8035 29.6949,13.3034 C29.9835,13.8033 30.6227,13.9745 31.1226,13.6859 L33.5761,12.2694 C33.7815,12.1508 34.0441,12.2212 34.1626,12.4265 C34.2812,12.6318 34.2108,12.8944 34.0055,13.013 L33.6102,13.2412 C33.4049,13.3597 33.3345,13.6223 33.4531,13.8276 C33.5717,14.033 33.8342,14.1033 34.0396,13.9848 L39.2437,10.9802 C39.449,10.8616 39.5194,10.5991 39.4008,10.3937 C39.2823,10.1884 39.0197,10.118 38.8143,10.2366 L37.8977,10.7658 C37.6923,10.8844 37.4297,10.814 37.3112,10.6087 C37.1926,10.4033 37.263,10.1408 37.4683,10.0222 L39.2444,8.99676 C40.2442,8.41953 40.5868,7.14111 40.0096,6.14132 C39.4323,5.14153 38.1539,4.79898 37.1541,5.37621 L37.0193,5.45406 C36.8139,5.57262 36.5514,5.50226 36.4328,5.29692 C36.3142,5.09157 36.3846,4.829 36.5899,4.71045 L36.9852,4.48226 C37.1905,4.36371 37.2609,4.10114 37.1423,3.89579 C37.0238,3.69045 36.7612,3.62009 36.5558,3.73865 L29.1575,8.0101 Z" fill="#dedede" fill-opacity="1" />
		<path d="M38.1578,13.2065 C37.7471,13.4436 37.6064,13.9687 37.8435,14.3794 C38.0806,14.7901 38.6058,14.9308 39.0165,14.6937 L39.6027,14.3553 C40.1025,14.0667 40.7418,14.2379 41.0304,14.7378 C41.319,15.2377 41.1477,15.8769 40.6478,16.1655 L39.0778,17.072 C38.5779,17.3606 38.4066,17.9998 38.6952,18.4997 C38.9838,18.9996 39.623,19.1709 40.1229,18.8823 L42.5765,17.4657 C42.7818,17.3472 43.0444,17.4175 43.163,17.6229 C43.2815,17.8282 43.2112,18.0908 43.0058,18.2093 L42.6106,18.4375 C42.4053,18.5561 42.3349,18.8186 42.4535,19.024 C42.572,19.2293 42.8346,19.2997 43.0399,19.1811 L48.244,16.1765 C48.4494,16.058 48.5197,15.7954 48.4012,15.5901 C48.2826,15.3847 48.0201,15.3144 47.8147,15.4329 L46.898,15.9622 C46.6927,16.0807 46.4301,16.0104 46.3116,15.805 C46.193,15.5997 46.2634,15.3371 46.4687,15.2186 L48.2448,14.1931 C49.2446,13.6159 49.5871,12.3375 49.0099,11.3377 C48.4327,10.3379 47.1543,9.99534 46.1545,10.5726 L46.0196,10.6504 C45.8143,10.769 45.5517,10.6986 45.4332,10.4933 C45.3146,10.2879 45.385,10.0254 45.5903,9.90681 L45.9855,9.67863 C46.1909,9.56007 46.2612,9.2975 46.1427,9.09216 C46.0241,8.88681 45.7615,8.81645 45.5562,8.93501 L38.1578,13.2065 Z" fill="#dedede" fill-opacity="1" />
		<path d="M50.5961,5.50007 C50.138,5.62281 49.8662,6.09365 49.9889,6.55171 C50.1116,7.00977 50.5825,7.2816 51.0405,7.15887 L51.6943,6.98368 C52.2519,6.83429 52.825,7.16517 52.9744,7.72273 C53.1238,8.28029 52.7929,8.85339 52.2353,9.00279 L50.4842,9.47201 C49.9266,9.6214 49.5957,10.1945 49.7451,10.7521 C49.8945,11.3096 50.4676,11.6405 51.0252,11.4911 L53.7618,10.7578 C53.9908,10.6965 54.2262,10.8324 54.2876,11.0614 C54.349,11.2905 54.2131,11.5259 53.984,11.5872 L53.5432,11.7053 C53.3142,11.7667 53.1783,12.0021 53.2396,12.2312 C53.301,12.4602 53.5364,12.5961 53.7655,12.5347 L59.5699,10.9795 C59.7989,10.9181 59.9348,10.6827 59.8735,10.4536 C59.8121,10.2246 59.5767,10.0887 59.3476,10.1501 L58.3252,10.424 C58.0962,10.4854 57.8608,10.3495 57.7994,10.1204 C57.738,9.89141 57.8739,9.65599 58.103,9.59462 L60.084,9.06382 C61.1991,8.76502 61.8609,7.61882 61.5621,6.5037 C61.2633,5.38858 60.1171,4.72682 59.0019,5.02562 L58.8515,5.06591 C58.6225,5.12728 58.3871,4.99136 58.3257,4.76234 C58.2644,4.5333 58.4003,4.29789 58.6293,4.23652 L59.0701,4.1184 C59.2991,4.05704 59.4351,3.82162 59.3737,3.59259 C59.3123,3.36356 59.0769,3.22764 58.8479,3.28901 L50.5961,5.50007 Z" fill="#dedede" fill-opacity="1" />
		<path d="M41.4723,-0.474137 C41.0143,-0.351399 40.7424,0.119434 40.8652,0.577497 C40.9879,1.03556 41.4587,1.30739 41.9168,1.18466 L42.5706,1.00947 C43.1282,0.860074 43.7013,1.19095 43.8507,1.74851 C44.0001,2.30607 43.6692,2.87918 43.1116,3.02857 L41.3605,3.49779 C40.8029,3.64719 40.472,4.22029 40.6214,4.77785 C40.7708,5.33541 41.3439,5.66629 41.9015,5.5169 L44.6381,4.78363 C44.8671,4.72226 45.1025,4.85818 45.1639,5.08721 C45.2253,5.31624 45.0893,5.55165 44.8603,5.61302 L44.4195,5.73114 C44.1905,5.79251 44.0546,6.02792 44.1159,6.25695 C44.1773,6.48599 44.4127,6.6219 44.6417,6.56054 L50.4462,5.00525 C50.6752,4.94388 50.8111,4.70846 50.7497,4.47943 C50.6884,4.2504 50.453,4.11448 50.2239,4.17585 L49.2015,4.44981 C48.9725,4.51118 48.737,4.37526 48.6757,4.14623 C48.6143,3.9172 48.7502,3.68178 48.9793,3.62041 L50.9602,3.08961 C52.0754,2.79081 52.7371,1.64461 52.4383,0.529489 C52.1395,-0.585631 50.9933,-1.24739 49.8782,-0.948596 L49.7278,-0.908296 C49.4988,-0.846928 49.2634,-0.982846 49.202,-1.21188 C49.1406,-1.44091 49.2765,-1.67632 49.5056,-1.73769 L49.9464,-1.85581 C50.1754,-1.91718 50.3113,-2.15259 50.25,-2.38162 C50.1886,-2.61065 49.9532,-2.74657 49.7242,-2.6852 L41.4723,-0.474137 Z" fill="#dedede" fill-opacity="1" />
		<path d="M-31.7512,92.401 C-31.6304,93.4651 -32.1843,94.4017 -32.9885,94.4931 C-33.7928,94.5844 -34.5427,93.7958 -34.6635,92.7317 C-34.7844,91.6676 -34.2304,90.7309 -33.4262,90.6396 C-32.622,90.5483 -31.8721,91.3369 -31.7512,92.401 Z" fill="#fbfbfb" fill-opacity="1" />
		<path d="M-59.9906,123.253 C-60.1798,123.688 -59.9807,124.194 -59.5459,124.383 C-59.1111,124.573 -58.6052,124.374 -58.4159,123.939 L-58.1458,123.318 C-57.9155,122.789 -57.2997,122.546 -56.7704,122.777 C-56.2411,123.007 -55.9988,123.623 -56.2292,124.152 L-56.9527,125.815 C-57.183,126.344 -56.9407,126.96 -56.4114,127.19 C-55.8822,127.42 -55.2664,127.178 -55.036,126.649 L-53.9054,124.051 C-53.8107,123.834 -53.5578,123.734 -53.3404,123.829 C-53.123,123.923 -53.0234,124.176 -53.1181,124.394 L-53.3002,124.812 C-53.3948,125.03 -53.2953,125.283 -53.0779,125.377 C-52.8604,125.472 -52.6075,125.372 -52.5129,125.155 L-50.1147,119.645 C-50.0201,119.427 -50.1197,119.175 -50.3371,119.08 C-50.5545,118.985 -50.8074,119.085 -50.9021,119.302 L-51.3245,120.273 C-51.4191,120.49 -51.6721,120.59 -51.8895,120.495 C-52.1069,120.4 -52.2064,120.148 -52.1118,119.93 L-51.2933,118.05 C-50.8326,116.991 -51.3173,115.759 -52.3758,115.299 C-53.4343,114.838 -54.6659,115.323 -55.1267,116.381 L-55.1888,116.524 C-55.2834,116.741 -55.5364,116.841 -55.7538,116.746 C-55.9712,116.652 -56.0707,116.399 -55.9761,116.181 L-55.794,115.763 C-55.6994,115.545 -55.7989,115.293 -56.0163,115.198 C-56.2337,115.103 -56.4867,115.203 -56.5813,115.42 L-59.9906,123.253 Z" fill="#dedede" fill-opacity="1" />
		<path d="M-54.7233,109.063 C-55.0186,109.434 -54.9573,109.975 -54.5862,110.27 C-54.2152,110.565 -53.675,110.504 -53.3797,110.133 L-52.9581,109.603 C-52.5986,109.152 -51.9411,109.077 -51.4895,109.436 C-51.0379,109.796 -50.9632,110.454 -51.3227,110.905 L-52.4518,112.324 C-52.8113,112.775 -52.7366,113.433 -52.285,113.792 C-51.8333,114.152 -51.1758,114.077 -50.8163,113.625 L-49.0519,111.409 C-48.9042,111.223 -48.6341,111.193 -48.4486,111.34 C-48.2631,111.488 -48.2324,111.758 -48.3801,111.944 L-48.6643,112.301 C-48.812,112.486 -48.7813,112.756 -48.5958,112.904 C-48.4103,113.052 -48.1402,113.021 -47.9925,112.835 L-44.25,108.134 C-44.1023,107.948 -44.133,107.678 -44.3185,107.531 C-44.504,107.383 -44.7741,107.414 -44.9218,107.599 L-45.581,108.427 C-45.7287,108.613 -45.9988,108.643 -46.1843,108.496 C-46.3698,108.348 -46.4005,108.078 -46.2528,107.892 L-44.9756,106.288 C-44.2566,105.385 -44.4059,104.07 -45.3092,103.351 C-46.2124,102.632 -47.5275,102.781 -48.2464,103.684 L-48.3434,103.806 C-48.4911,103.992 -48.7612,104.022 -48.9467,103.875 C-49.1322,103.727 -49.1629,103.457 -49.0152,103.271 L-48.731,102.914 C-48.5833,102.729 -48.614,102.459 -48.7995,102.311 C-48.985,102.163 -49.2551,102.194 -49.4028,102.379 L-54.7233,109.063 Z" fill="#dedede" fill-opacity="1" />
		<path d="M-43.5371,107.793 C-43.8325,108.164 -43.7711,108.704 -43.4001,108.999 C-43.029,109.295 -42.4889,109.233 -42.1935,108.862 L-41.772,108.333 C-41.4125,107.881 -40.7549,107.807 -40.3033,108.166 C-39.8517,108.526 -39.777,109.183 -40.1365,109.635 L-41.2656,111.053 C-41.6251,111.505 -41.5504,112.162 -41.0988,112.522 C-40.6472,112.881 -39.9897,112.807 -39.6302,112.355 L-37.8657,110.138 C-37.718,109.953 -37.4479,109.922 -37.2624,110.07 C-37.0769,110.217 -37.0462,110.488 -37.1939,110.673 L-37.4781,111.03 C-37.6258,111.216 -37.5951,111.486 -37.4096,111.633 C-37.2241,111.781 -36.954,111.75 -36.8063,111.565 L-33.0639,106.863 C-32.9162,106.678 -32.9469,106.408 -33.1324,106.26 C-33.3179,106.112 -33.588,106.143 -33.7357,106.329 L-34.3949,107.157 C-34.5425,107.342 -34.8126,107.373 -34.9982,107.225 C-35.1837,107.078 -35.2143,106.808 -35.0667,106.622 L-33.7894,105.017 C-33.0704,104.114 -33.2198,102.799 -34.123,102.08 C-35.0262,101.361 -36.3413,101.511 -37.0603,102.414 L-37.1573,102.536 C-37.3049,102.721 -37.575,102.752 -37.7605,102.604 C-37.9461,102.456 -37.9767,102.186 -37.8291,102.001 L-37.5448,101.644 C-37.3972,101.458 -37.4278,101.188 -37.6134,101.04 C-37.7989,100.893 -38.069,100.923 -38.2166,101.109 L-43.5371,107.793 Z" fill="#dedede" fill-opacity="1" />
		<path d="M-49.6642,122.081 C-49.8535,122.515 -49.6544,123.021 -49.2196,123.211 C-48.7848,123.4 -48.2788,123.201 -48.0896,122.766 L-47.8195,122.145 C-47.5891,121.616 -46.9733,121.374 -46.4441,121.604 C-45.9148,121.834 -45.6725,122.45 -45.9028,122.979 L-46.6263,124.642 C-46.8567,125.171 -46.6144,125.787 -46.0851,126.017 C-45.5558,126.248 -44.94,126.005 -44.7097,125.476 L-43.579,122.878 C-43.4844,122.661 -43.2314,122.561 -43.014,122.656 C-42.7966,122.751 -42.6971,123.003 -42.7917,123.221 L-42.9738,123.639 C-43.0685,123.857 -42.9689,124.11 -42.7515,124.204 C-42.5341,124.299 -42.2811,124.199 -42.1865,123.982 L-39.7884,118.472 C-39.6938,118.255 -39.7933,118.002 -40.0107,117.907 C-40.2281,117.812 -40.4811,117.912 -40.5757,118.129 L-40.9981,119.1 C-41.0928,119.317 -41.3457,119.417 -41.5631,119.322 C-41.7805,119.228 -41.8801,118.975 -41.7855,118.757 L-40.967,116.877 C-40.5063,115.818 -40.9909,114.587 -42.0495,114.126 C-43.108,113.665 -44.3396,114.15 -44.8003,115.208 L-44.8625,115.351 C-44.9571,115.569 -45.21,115.668 -45.4274,115.574 C-45.6449,115.479 -45.7444,115.226 -45.6498,115.009 L-45.4676,114.59 C-45.373,114.373 -45.4726,114.12 -45.69,114.025 C-45.9074,113.93 -46.1603,114.03 -46.255,114.247 L-49.6642,122.081 Z" fill="#dedede" fill-opacity="1" />
		<path d="M-49.0933,97.7231 C-49.2826,98.1579 -49.0835,98.6638 -48.6487,98.8531 C-48.2138,99.0423 -47.7079,98.8433 -47.5187,98.4084 L-47.2486,97.7878 C-47.0182,97.2585 -46.4024,97.0162 -45.8731,97.2466 C-45.3439,97.4769 -45.1015,98.0927 -45.3319,98.622 L-46.0554,100.284 C-46.2858,100.814 -46.0434,101.429 -45.5142,101.66 C-44.9849,101.89 -44.3691,101.648 -44.1387,101.119 L-43.0081,98.5208 C-42.9135,98.3034 -42.6605,98.2038 -42.4431,98.2985 C-42.2257,98.3931 -42.1262,98.646 -42.2208,98.8634 L-42.4029,99.2819 C-42.4975,99.4993 -42.398,99.7523 -42.1806,99.8469 C-41.9632,99.9415 -41.7102,99.842 -41.6156,99.6246 L-39.2175,94.1146 C-39.1229,93.8972 -39.2224,93.6443 -39.4398,93.5496 C-39.6572,93.455 -39.9102,93.5546 -40.0048,93.772 L-40.4272,94.7425 C-40.5218,94.9599 -40.7748,95.0595 -40.9922,94.9648 C-41.2096,94.8702 -41.3092,94.6173 -41.2145,94.3999 L-40.3961,92.5194 C-39.9354,91.4608 -40.42,90.2292 -41.4785,89.7685 C-42.5371,89.3078 -43.7687,89.7924 -44.2294,90.851 L-44.2915,90.9937 C-44.3862,91.2112 -44.6391,91.3107 -44.8565,91.2161 C-45.0739,91.1214 -45.1735,90.8685 -45.0788,90.6511 L-44.8967,90.2326 C-44.8021,90.0152 -44.9016,89.7623 -45.119,89.6676 C-45.3365,89.573 -45.5894,89.6725 -45.684,89.89 L-49.0933,97.7231 Z" fill="#dedede" fill-opacity="1" />
		<path d="M-37.8802,96.4496 C-38.0694,96.8844 -37.8704,97.3903 -37.4355,97.5796 C-37.0007,97.7688 -36.4948,97.5697 -36.3056,97.1349 L-36.0354,96.5143 C-35.8051,95.985 -35.1893,95.7427 -34.66,95.9731 C-34.1307,96.2034 -33.8884,96.8192 -34.1188,97.3485 L-34.8423,99.0108 C-35.0726,99.5401 -34.8303,100.156 -34.301,100.386 C-33.7718,100.617 -33.156,100.374 -32.9256,99.845 L-31.795,97.2473 C-31.7004,97.0298 -31.4474,96.9303 -31.23,97.0249 C-31.0126,97.1196 -30.913,97.3725 -31.0077,97.5899 L-31.1898,98.0084 C-31.2844,98.2258 -31.1849,98.4787 -30.9675,98.5734 C-30.7501,98.668 -30.4971,98.5684 -30.4025,98.351 L-28.0044,92.8411 C-27.9097,92.6237 -28.0093,92.3707 -28.2267,92.2761 C-28.4441,92.1815 -28.697,92.281 -28.7917,92.4984 L-29.2141,93.469 C-29.3087,93.6864 -29.5617,93.7859 -29.7791,93.6913 C-29.9965,93.5967 -30.096,93.3437 -30.0014,93.1263 L-29.183,91.2458 C-28.7222,90.1873 -29.2069,88.9557 -30.2654,88.495 C-31.324,88.0343 -32.5556,88.5189 -33.0163,89.5774 L-33.0784,89.7202 C-33.173,89.9376 -33.426,90.0372 -33.6434,89.9425 C-33.8608,89.8479 -33.9603,89.595 -33.8657,89.3775 L-33.6836,88.9591 C-33.589,88.7417 -33.6885,88.4887 -33.9059,88.3941 C-34.1233,88.2995 -34.3763,88.399 -34.4709,88.6164 L-37.8802,96.4496 Z" fill="#dedede" fill-opacity="1" />
		<path d="M-43.8233,83.5327 C-44.1186,83.9038 -44.0573,84.444 -43.6862,84.7393 C-43.3152,85.0346 -42.775,84.9733 -42.4797,84.6023 L-42.0581,84.0727 C-41.6986,83.6211 -41.0411,83.5464 -40.5895,83.9059 C-40.1379,84.2654 -40.0632,84.9229 -40.4227,85.3745 L-41.5518,86.793 C-41.9113,87.2446 -41.8366,87.9021 -41.385,88.2616 C-40.9334,88.6211 -40.2758,88.5464 -39.9163,88.0948 L-38.1519,85.8782 C-38.0042,85.6927 -37.7341,85.662 -37.5486,85.8097 C-37.3631,85.9573 -37.3324,86.2274 -37.4801,86.413 L-37.7643,86.77 C-37.912,86.9555 -37.8813,87.2256 -37.6958,87.3733 C-37.5103,87.521 -37.2402,87.4903 -37.0925,87.3048 L-33.35,82.6033 C-33.2024,82.4178 -33.233,82.1477 -33.4185,82 C-33.6041,81.8523 -33.8742,81.883 -34.0218,82.0685 L-34.681,82.8967 C-34.8287,83.0822 -35.0988,83.1129 -35.2843,82.9652 C-35.4698,82.8175 -35.5005,82.5474 -35.3528,82.3619 L-34.0756,80.7573 C-33.3566,79.8541 -33.5059,78.539 -34.4092,77.82 C-35.3124,77.1011 -36.6275,77.2504 -37.3465,78.1536 L-37.4434,78.2755 C-37.5911,78.461 -37.8612,78.4916 -38.0467,78.344 C-38.2322,78.1963 -38.2629,77.9262 -38.1152,77.7407 L-37.831,77.3836 C-37.6833,77.1981 -37.714,76.928 -37.8995,76.7804 C-38.085,76.6327 -38.3551,76.6634 -38.5028,76.8489 L-43.8233,83.5327 Z" fill="#dedede" fill-opacity="1" />
		<path d="M-33.0224,82.306 C-33.3177,82.677 -33.2563,83.2172 -32.8853,83.5126 C-32.5143,83.8079 -31.9741,83.7466 -31.6788,83.3756 L-31.2572,82.846 C-30.8977,82.3944 -30.2402,82.3197 -29.7886,82.6792 C-29.337,83.0387 -29.2623,83.6962 -29.6218,84.1478 L-30.7509,85.5662 C-31.1104,86.0179 -31.0357,86.6754 -30.5841,87.0349 C-30.1324,87.3944 -29.4749,87.3197 -29.1154,86.8681 L-27.351,84.6515 C-27.2033,84.466 -26.9332,84.4353 -26.7477,84.583 C-26.5622,84.7306 -26.5315,85.0007 -26.6792,85.1862 L-26.9634,85.5433 C-27.1111,85.7288 -27.0804,85.9989 -26.8949,86.1466 C-26.7094,86.2943 -26.4393,86.2636 -26.2916,86.0781 L-22.5491,81.3766 C-22.4014,81.1911 -22.4321,80.921 -22.6176,80.7733 C-22.8031,80.6256 -23.0732,80.6563 -23.2209,80.8418 L-23.8801,81.67 C-24.0278,81.8555 -24.2979,81.8861 -24.4834,81.7385 C-24.6689,81.5908 -24.6996,81.3207 -24.5519,81.1352 L-23.2747,79.5306 C-22.5557,78.6274 -22.705,77.3123 -23.6083,76.5933 C-24.5115,75.8743 -25.8266,76.0237 -26.5455,76.9269 L-26.6425,77.0488 C-26.7902,77.2343 -27.0603,77.2649 -27.2458,77.1173 C-27.4313,76.9696 -27.462,76.6995 -27.3143,76.514 L-27.0301,76.1569 C-26.8824,75.9714 -26.9131,75.7013 -27.0986,75.5537 C-27.2841,75.406 -27.5542,75.4367 -27.7019,75.6222 L-33.0224,82.306 Z" fill="#dedede" fill-opacity="1" />
		<path d="M-36.8971,72.0453 C-37.0863,72.4801 -36.8872,72.986 -36.4524,73.1753 C-36.0176,73.3645 -35.5117,73.1655 -35.3224,72.7306 L-35.0523,72.11 C-34.8219,71.5807 -34.2061,71.3384 -33.6769,71.5688 C-33.1476,71.7991 -32.9053,72.4149 -33.1356,72.9442 L-33.8591,74.6065 C-34.0895,75.1358 -33.8472,75.7516 -33.3179,75.982 C-32.7886,76.2123 -32.1728,75.97 -31.9425,75.4407 L-30.8119,72.843 C-30.7172,72.6256 -30.4643,72.526 -30.2469,72.6207 C-30.0294,72.7153 -29.9299,72.9682 -30.0245,73.1856 L-30.2067,73.6041 C-30.3013,73.8215 -30.2017,74.0745 -29.9843,74.1691 C-29.7669,74.2637 -29.514,74.1642 -29.4193,73.9468 L-27.0212,68.4368 C-26.9266,68.2194 -27.0261,67.9665 -27.2436,67.8718 C-27.461,67.7772 -27.7139,67.8768 -27.8085,68.0942 L-28.231,69.0647 C-28.3256,69.2821 -28.5785,69.3817 -28.796,69.287 C-29.0134,69.1924 -29.1129,68.9395 -29.0183,68.7221 L-28.1998,66.8416 C-27.7391,65.783 -28.2237,64.5514 -29.2823,64.0907 C-30.3408,63.63 -31.5724,64.1146 -32.0331,65.1732 L-32.0953,65.3159 C-32.1899,65.5334 -32.4429,65.6329 -32.6603,65.5383 C-32.8777,65.4436 -32.9772,65.1907 -32.8826,64.9733 L-32.7005,64.5548 C-32.6058,64.3374 -32.7054,64.0845 -32.9228,63.9898 C-33.1402,63.8952 -33.3932,63.9947 -33.4878,64.2122 L-36.8971,72.0453 Z" fill="#dedede" fill-opacity="1" />
		<path d="M-26.5707,70.8725 C-26.76,71.3073 -26.5609,71.8132 -26.1261,72.0025 C-25.6912,72.1917 -25.1853,71.9927 -24.9961,71.5578 L-24.726,70.9372 C-24.4956,70.4079 -23.8798,70.1656 -23.3505,70.396 C-22.8213,70.6263 -22.579,71.2421 -22.8093,71.7714 L-23.5328,73.4337 C-23.7632,73.963 -23.5208,74.5788 -22.9916,74.8091 C-22.4623,75.0395 -21.8465,74.7972 -21.6161,74.2679 L-20.4855,71.6702 C-20.3909,71.4528 -20.1379,71.3532 -19.9205,71.4478 C-19.7031,71.5425 -19.6036,71.7954 -19.6982,72.0128 L-19.8803,72.4313 C-19.9749,72.6487 -19.8754,72.9017 -19.658,72.9963 C-19.4406,73.0909 -19.1876,72.9914 -19.093,72.774 L-16.6949,67.264 C-16.6003,67.0466 -16.6998,66.7937 -16.9172,66.699 C-17.1346,66.6044 -17.3876,66.7039 -17.4822,66.9214 L-17.9046,67.8919 C-17.9993,68.1093 -18.2522,68.2089 -18.4696,68.1142 C-18.687,68.0196 -18.7866,67.7667 -18.6919,67.5492 L-17.8735,65.6688 C-17.4128,64.6102 -17.8974,63.3786 -18.9559,62.9179 C-20.0145,62.4572 -21.2461,62.9418 -21.7068,64.0004 L-21.7689,64.1431 C-21.8636,64.3605 -22.1165,64.4601 -22.3339,64.3655 C-22.5513,64.2708 -22.6509,64.0179 -22.5563,63.8005 L-22.3741,63.382 C-22.2795,63.1646 -22.379,62.9117 -22.5965,62.817 C-22.8139,62.7224 -23.0668,62.8219 -23.1614,63.0393 L-26.5707,70.8725 Z" fill="#dedede" fill-opacity="1" />
		<path d="M-17.6899,56.4211 C-18.1006,56.6582 -18.2413,57.1834 -18.0042,57.5941 C-17.7671,58.0048 -17.242,58.1455 -16.8313,57.9084 L-16.2451,57.5699 C-15.7452,57.2813 -15.106,57.4526 -14.8174,57.9525 C-14.5288,58.4524 -14.7001,59.0916 -15.2,59.3802 L-16.77,60.2867 C-17.2699,60.5753 -17.4412,61.2145 -17.1526,61.7144 C-16.8639,62.2143 -16.2247,62.3856 -15.7248,62.097 L-13.2713,60.6804 C-13.0659,60.5618 -12.8034,60.6322 -12.6848,60.8375 C-12.5662,61.0429 -12.6366,61.3054 -12.8419,61.424 L-13.2372,61.6522 C-13.4425,61.7707 -13.5129,62.0333 -13.3943,62.2387 C-13.2758,62.444 -13.0132,62.5144 -12.8078,62.3958 L-7.60374,59.3912 C-7.39839,59.2727 -7.32804,59.0101 -7.4466,58.8047 C-7.56515,58.5994 -7.82772,58.529 -8.03307,58.6476 L-8.94975,59.1768 C-9.15509,59.2954 -9.41766,59.225 -9.53622,59.0197 C-9.65477,58.8144 -9.58442,58.5518 -9.37907,58.4332 L-7.60297,57.4078 C-6.60318,56.8306 -6.26062,55.5521 -6.83785,54.5524 C-7.41508,53.5526 -8.69351,53.21 -9.69329,53.7872 L-9.82814,53.8651 C-10.0335,53.9836 -10.2961,53.9133 -10.4146,53.7079 C-10.5332,53.5026 -10.4628,53.24 -10.2575,53.1215 L-9.86224,52.8933 C-9.6569,52.7747 -9.58654,52.5122 -9.7051,52.3068 C-9.82365,52.1015 -10.0862,52.0311 -10.2916,52.1497 L-17.6899,56.4211 Z" fill="#dedede" fill-opacity="1" />
		<path d="M-28.049,53.0119 C-28.4597,53.249 -28.6004,53.7741 -28.3633,54.1848 C-28.1262,54.5955 -27.6011,54.7362 -27.1904,54.4991 L-26.6042,54.1607 C-26.1043,53.8721 -25.4651,54.0433 -25.1765,54.5432 C-24.8879,55.0431 -25.0591,55.6823 -25.559,55.971 L-27.1291,56.8774 C-27.629,57.166 -27.8002,57.8053 -27.5116,58.3051 C-27.223,58.805 -26.5838,58.9763 -26.0839,58.6877 L-23.6303,57.2711 C-23.425,57.1526 -23.1624,57.2229 -23.0439,57.4283 C-22.9253,57.6336 -22.9957,57.8962 -23.201,58.0148 L-23.5962,58.2429 C-23.8016,58.3615 -23.8719,58.6241 -23.7534,58.8294 C-23.6348,59.0348 -23.3723,59.1051 -23.1669,58.9866 L-17.9628,55.982 C-17.7575,55.8634 -17.6871,55.6008 -17.8057,55.3955 C-17.9242,55.1901 -18.1868,55.1198 -18.3921,55.2383 L-19.3088,55.7676 C-19.5142,55.8861 -19.7767,55.8158 -19.8953,55.6104 C-20.0139,55.4051 -19.9435,55.1425 -19.7382,55.024 L-17.962,53.9985 C-16.9623,53.4213 -16.6197,52.1429 -17.1969,51.1431 C-17.7742,50.1433 -19.0526,49.8008 -20.0524,50.378 L-20.1872,50.4558 C-20.3926,50.5744 -20.6551,50.504 -20.7737,50.2987 C-20.8922,50.0934 -20.8219,49.8308 -20.6165,49.7122 L-20.2213,49.484 C-20.016,49.3655 -19.9456,49.1029 -20.0642,48.8976 C-20.1827,48.6922 -20.4453,48.6219 -20.6506,48.7404 L-28.049,53.0119 Z" fill="#dedede" fill-opacity="1" />
		<path d="M-48.5929,171.603 C-48.0575,172.531 -48.1916,173.611 -48.8925,174.015 C-49.5935,174.42 -50.5958,173.996 -51.1313,173.069 C-51.6667,172.141 -51.5326,171.061 -50.8317,170.657 C-50.1307,170.252 -49.1284,170.676 -48.5929,171.603 Z" fill="#fbfbfb" fill-opacity="1" />
		<path d="M-62.1736,211.162 C-62.1736,211.636 -61.7892,212.021 -61.315,212.021 C-60.8408,212.021 -60.4563,211.636 -60.4563,211.162 L-60.4563,210.485 C-60.4563,209.908 -59.9884,209.44 -59.4112,209.44 C-58.8339,209.44 -58.366,209.908 -58.366,210.485 L-58.366,212.298 C-58.366,212.875 -57.8981,213.343 -57.3208,213.343 C-56.7436,213.343 -56.2757,212.875 -56.2757,212.298 L-56.2757,209.465 C-56.2757,209.228 -56.0835,209.036 -55.8464,209.036 C-55.6092,209.036 -55.417,209.228 -55.417,209.465 L-55.417,209.921 C-55.417,210.159 -55.2248,210.351 -54.9877,210.351 C-54.7506,210.351 -54.5584,210.159 -54.5584,209.921 L-54.5584,203.912 C-54.5584,203.675 -54.7506,203.483 -54.9877,203.483 C-55.2248,203.483 -55.417,203.675 -55.417,203.912 L-55.417,204.971 C-55.417,205.208 -55.6092,205.4 -55.8464,205.4 C-56.0835,205.4 -56.2757,205.208 -56.2757,204.971 L-56.2757,202.92 C-56.2757,201.765 -57.2115,200.83 -58.366,200.83 C-59.5205,200.83 -60.4563,201.765 -60.4563,202.92 L-60.4563,203.076 C-60.4563,203.313 -60.6486,203.505 -60.8857,203.505 C-61.1228,203.505 -61.315,203.313 -61.315,203.076 L-61.315,202.619 C-61.315,202.382 -61.5072,202.19 -61.7443,202.19 C-61.9814,202.19 -62.1736,202.382 -62.1736,202.619 L-62.1736,211.162 Z" fill="#dedede" fill-opacity="1" />
		<path d="M-63.0069,196.049 C-63.1296,196.507 -62.8578,196.978 -62.3997,197.101 C-61.9416,197.223 -61.4708,196.951 -61.3481,196.493 L-61.1729,195.84 C-61.0235,195.282 -60.4504,194.951 -59.8928,195.101 C-59.3353,195.25 -59.0044,195.823 -59.1538,196.381 L-59.623,198.132 C-59.7724,198.689 -59.4415,199.262 -58.884,199.412 C-58.3264,199.561 -57.7533,199.23 -57.6039,198.673 L-56.8706,195.936 C-56.8093,195.707 -56.5739,195.571 -56.3448,195.633 C-56.1158,195.694 -55.9799,195.929 -56.0412,196.158 L-56.1594,196.599 C-56.2207,196.828 -56.0848,197.064 -55.8558,197.125 C-55.6268,197.186 -55.3913,197.051 -55.33,196.821 L-53.7747,191.017 C-53.7133,190.788 -53.8492,190.553 -54.0783,190.491 C-54.3073,190.43 -54.5427,190.566 -54.6041,190.795 L-54.878,191.817 C-54.9394,192.046 -55.1748,192.182 -55.4038,192.121 C-55.6329,192.059 -55.7688,191.824 -55.7074,191.595 L-55.1766,189.614 C-54.8778,188.499 -55.5396,187.353 -56.6547,187.054 C-57.7698,186.755 -58.916,187.417 -59.2148,188.532 L-59.2551,188.682 C-59.3165,188.911 -59.5519,189.047 -59.7809,188.986 C-60.01,188.925 -60.1459,188.689 -60.0845,188.46 L-59.9664,188.019 C-59.905,187.79 -60.041,187.555 -60.27,187.494 C-60.499,187.432 -60.7344,187.568 -60.7958,187.797 L-63.0069,196.049 Z" fill="#dedede" fill-opacity="1" />
		<path d="M-53.2571,190.42 C-53.3798,190.878 -53.108,191.349 -52.6499,191.472 C-52.1919,191.594 -51.721,191.322 -51.5983,190.864 L-51.4231,190.211 C-51.2737,189.653 -50.7006,189.322 -50.1431,189.472 C-49.5855,189.621 -49.2546,190.194 -49.404,190.752 L-49.8732,192.503 C-50.0226,193.06 -49.6918,193.633 -49.1342,193.783 C-48.5766,193.932 -48.0035,193.601 -47.8541,193.044 L-47.1209,190.307 C-47.0595,190.078 -46.8241,189.942 -46.5951,190.004 C-46.366,190.065 -46.2301,190.3 -46.2915,190.529 L-46.4096,190.97 C-46.471,191.199 -46.335,191.435 -46.106,191.496 C-45.877,191.557 -45.6416,191.421 -45.5802,191.192 L-44.0249,185.388 C-43.9635,185.159 -44.0995,184.924 -44.3285,184.862 C-44.5575,184.801 -44.7929,184.937 -44.8543,185.166 L-45.1283,186.188 C-45.1896,186.417 -45.425,186.553 -45.6541,186.492 C-45.8831,186.43 -46.019,186.195 -45.9577,185.966 L-45.4268,183.985 C-45.1281,182.87 -45.7898,181.724 -46.9049,181.425 C-48.0201,181.126 -49.1663,181.788 -49.465,182.903 L-49.5053,183.053 C-49.5667,183.282 -49.8021,183.418 -50.0312,183.357 C-50.2602,183.296 -50.3961,183.06 -50.3347,182.831 L-50.2166,182.39 C-50.1553,182.161 -50.2912,181.926 -50.5202,181.865 C-50.7492,181.803 -50.9847,181.939 -51.046,182.168 L-53.2571,190.42 Z" fill="#dedede" fill-opacity="1" />
		<path d="M-53.1733,205.966 C-53.1733,206.44 -52.7888,206.824 -52.3146,206.824 C-51.8404,206.824 -51.456,206.44 -51.456,205.966 L-51.456,205.289 C-51.456,204.712 -50.988,204.244 -50.4108,204.244 C-49.8336,204.244 -49.3656,204.712 -49.3656,205.289 L-49.3656,207.102 C-49.3656,207.679 -48.8977,208.147 -48.3205,208.147 C-47.7432,208.147 -47.2753,207.679 -47.2753,207.102 L-47.2753,204.269 C-47.2753,204.032 -47.0831,203.839 -46.846,203.839 C-46.6089,203.839 -46.4167,204.032 -46.4167,204.269 L-46.4167,204.725 C-46.4167,204.962 -46.2244,205.154 -45.9873,205.154 C-45.7502,205.154 -45.558,204.962 -45.558,204.725 L-45.558,198.716 C-45.558,198.479 -45.7502,198.287 -45.9873,198.287 C-46.2244,198.287 -46.4167,198.479 -46.4167,198.716 L-46.4167,199.774 C-46.4167,200.011 -46.6089,200.204 -46.846,200.204 C-47.0831,200.204 -47.2753,200.011 -47.2753,199.774 L-47.2753,197.723 C-47.2753,196.569 -48.2112,195.633 -49.3656,195.633 C-50.5201,195.633 -51.456,196.569 -51.456,197.723 L-51.456,197.879 C-51.456,198.116 -51.6482,198.309 -51.8853,198.309 C-52.1224,198.309 -52.3146,198.116 -52.3146,197.879 L-52.3146,197.423 C-52.3146,197.186 -52.5068,196.994 -52.7439,196.994 C-52.9811,196.994 -53.1733,197.186 -53.1733,197.423 L-53.1733,205.966 Z" fill="#dedede" fill-opacity="1" />
		<path d="M-62.3703,183.404 C-62.3703,183.878 -61.9858,184.263 -61.5116,184.263 C-61.0374,184.263 -60.6529,183.878 -60.6529,183.404 L-60.6529,182.727 C-60.6529,182.15 -60.185,181.682 -59.6078,181.682 C-59.0306,181.682 -58.5626,182.15 -58.5626,182.727 L-58.5626,184.54 C-58.5626,185.117 -58.0947,185.585 -57.5175,185.585 C-56.9402,185.585 -56.4723,185.117 -56.4723,184.54 L-56.4723,181.707 C-56.4723,181.47 -56.2801,181.278 -56.043,181.278 C-55.8059,181.278 -55.6136,181.47 -55.6136,181.707 L-55.6136,182.163 C-55.6136,182.401 -55.4214,182.593 -55.1843,182.593 C-54.9472,182.593 -54.755,182.401 -54.755,182.163 L-54.755,176.154 C-54.755,175.917 -54.9472,175.725 -55.1843,175.725 C-55.4214,175.725 -55.6136,175.917 -55.6136,176.154 L-55.6136,177.213 C-55.6136,177.45 -55.8059,177.642 -56.043,177.642 C-56.2801,177.642 -56.4723,177.45 -56.4723,177.213 L-56.4723,175.162 C-56.4723,174.007 -57.4082,173.072 -58.5626,173.072 C-59.7171,173.072 -60.6529,174.007 -60.6529,175.162 L-60.6529,175.318 C-60.6529,175.555 -60.8452,175.747 -61.0823,175.747 C-61.3194,175.747 -61.5116,175.555 -61.5116,175.318 L-61.5116,174.861 C-61.5116,174.624 -61.7038,174.432 -61.9409,174.432 C-62.178,174.432 -62.3703,174.624 -62.3703,174.861 L-62.3703,183.404 Z" fill="#dedede" fill-opacity="1" />
		<path d="M-52.597,177.762 C-52.597,178.236 -52.2125,178.62 -51.7383,178.62 C-51.2641,178.62 -50.8797,178.236 -50.8797,177.762 L-50.8797,177.085 C-50.8797,176.507 -50.4117,176.039 -49.8345,176.039 C-49.2573,176.039 -48.7893,176.507 -48.7893,177.085 L-48.7893,178.898 C-48.7893,179.475 -48.3214,179.943 -47.7442,179.943 C-47.167,179.943 -46.699,179.475 -46.699,178.898 L-46.699,176.064 C-46.699,175.827 -46.5068,175.635 -46.2697,175.635 C-46.0326,175.635 -45.8404,175.827 -45.8404,176.064 L-45.8404,176.521 C-45.8404,176.758 -45.6481,176.95 -45.411,176.95 C-45.1739,176.95 -44.9817,176.758 -44.9817,176.521 L-44.9817,170.512 C-44.9817,170.275 -45.1739,170.082 -45.411,170.082 C-45.6481,170.082 -45.8404,170.275 -45.8404,170.512 L-45.8404,171.57 C-45.8404,171.807 -46.0326,171.999 -46.2697,171.999 C-46.5068,171.999 -46.699,171.807 -46.699,171.57 L-46.699,169.519 C-46.699,168.365 -47.6349,167.429 -48.7893,167.429 C-49.9438,167.429 -50.8797,168.365 -50.8797,169.519 L-50.8797,169.675 C-50.8797,169.912 -51.0719,170.104 -51.309,170.104 C-51.5461,170.104 -51.7383,169.912 -51.7383,169.675 L-51.7383,169.219 C-51.7383,168.981 -51.9305,168.789 -52.1677,168.789 C-52.4048,168.789 -52.597,168.981 -52.597,169.219 L-52.597,177.762 Z" fill="#dedede" fill-opacity="1" />
		<path d="M-63.2011,168.29 C-63.3238,168.748 -63.052,169.218 -62.5939,169.341 C-62.1359,169.464 -61.6651,169.192 -61.5423,168.734 L-61.3671,168.08 C-61.2177,167.523 -60.6446,167.192 -60.0871,167.341 C-59.5295,167.491 -59.1986,168.064 -59.348,168.621 L-59.8173,170.372 C-59.9667,170.93 -59.6358,171.503 -59.0782,171.652 C-58.5207,171.802 -57.9475,171.471 -57.7982,170.913 L-57.0649,168.177 C-57.0035,167.948 -56.7681,167.812 -56.5391,167.873 C-56.31,167.935 -56.1741,168.17 -56.2355,168.399 L-56.3536,168.84 C-56.415,169.069 -56.2791,169.304 -56.05,169.366 C-55.821,169.427 -55.5856,169.291 -55.5242,169.062 L-53.9689,163.258 C-53.9075,163.029 -54.0435,162.793 -54.2725,162.732 C-54.5015,162.671 -54.7369,162.806 -54.7983,163.035 L-55.0723,164.058 C-55.1336,164.287 -55.3691,164.423 -55.5981,164.361 C-55.8271,164.3 -55.963,164.065 -55.9017,163.836 L-55.3709,161.855 C-55.0721,160.74 -55.7338,159.593 -56.8489,159.295 C-57.9641,158.996 -59.1103,159.658 -59.4091,160.773 L-59.4494,160.923 C-59.5107,161.152 -59.7462,161.288 -59.9752,161.227 C-60.2042,161.165 -60.3401,160.93 -60.2788,160.701 L-60.1606,160.26 C-60.0993,160.031 -60.2352,159.796 -60.4642,159.734 C-60.6933,159.673 -60.9287,159.809 -60.99,160.038 L-63.2011,168.29 Z" fill="#dedede" fill-opacity="1" />
		<path d="M-53.7871,162.854 C-53.9098,163.312 -53.638,163.783 -53.1799,163.906 C-52.7219,164.029 -52.2511,163.757 -52.1283,163.299 L-51.9531,162.645 C-51.8037,162.088 -51.2306,161.757 -50.6731,161.906 C-50.1155,162.055 -49.7846,162.629 -49.934,163.186 L-50.4033,164.937 C-50.5526,165.495 -50.2218,166.068 -49.6642,166.217 C-49.1066,166.367 -48.5335,166.036 -48.3841,165.478 L-47.6509,162.742 C-47.5895,162.513 -47.3541,162.377 -47.1251,162.438 C-46.896,162.499 -46.7601,162.735 -46.8215,162.964 L-46.9396,163.405 C-47.001,163.634 -46.8651,163.869 -46.636,163.931 C-46.407,163.992 -46.1716,163.856 -46.1102,163.627 L-44.5549,157.823 C-44.4935,157.594 -44.6295,157.358 -44.8585,157.297 C-45.0875,157.235 -45.3229,157.371 -45.3843,157.6 L-45.6583,158.623 C-45.7196,158.852 -45.9551,158.988 -46.1841,158.926 C-46.4131,158.865 -46.549,158.63 -46.4877,158.4 L-45.9569,156.419 C-45.6581,155.304 -46.3198,154.158 -47.4349,153.859 C-48.5501,153.561 -49.6963,154.222 -49.9951,155.337 L-50.0354,155.488 C-50.0967,155.717 -50.3321,155.853 -50.5612,155.791 C-50.7902,155.73 -50.9261,155.495 -50.8648,155.266 L-50.7466,154.825 C-50.6853,154.596 -50.8212,154.36 -51.0502,154.299 C-51.2793,154.238 -51.5147,154.374 -51.576,154.603 L-53.7871,162.854 Z" fill="#dedede" fill-opacity="1" />
		<path d="M-61.4347,154.992 C-61.4347,155.467 -61.0503,155.851 -60.576,155.851 C-60.1018,155.851 -59.7174,155.467 -59.7174,154.992 L-59.7174,154.316 C-59.7174,153.738 -59.2494,153.27 -58.6722,153.27 C-58.095,153.27 -57.627,153.738 -57.627,154.316 L-57.627,156.129 C-57.627,156.706 -57.1591,157.174 -56.5819,157.174 C-56.0047,157.174 -55.5367,156.706 -55.5367,156.129 L-55.5367,153.295 C-55.5367,153.058 -55.3445,152.866 -55.1074,152.866 C-54.8703,152.866 -54.6781,153.058 -54.6781,153.295 L-54.6781,153.752 C-54.6781,153.989 -54.4859,154.181 -54.2487,154.181 C-54.0116,154.181 -53.8194,153.989 -53.8194,153.752 L-53.8194,147.743 C-53.8194,147.505 -54.0116,147.313 -54.2487,147.313 C-54.4859,147.313 -54.6781,147.505 -54.6781,147.743 L-54.6781,148.801 C-54.6781,149.038 -54.8703,149.23 -55.1074,149.23 C-55.3445,149.23 -55.5367,149.038 -55.5367,148.801 L-55.5367,146.75 C-55.5367,145.596 -56.4726,144.66 -57.627,144.66 C-58.7815,144.66 -59.7174,145.596 -59.7174,146.75 L-59.7174,146.906 C-59.7174,147.143 -59.9096,147.335 -60.1467,147.335 C-60.3838,147.335 -60.576,147.143 -60.576,146.906 L-60.576,146.45 C-60.576,146.212 -60.7682,146.02 -61.0054,146.02 C-61.2425,146.02 -61.4347,146.212 -61.4347,146.45 L-61.4347,154.992 Z" fill="#dedede" fill-opacity="1" />
		<path d="M-52.4343,149.796 C-52.4343,150.27 -52.0499,150.655 -51.5757,150.655 C-51.1014,150.655 -50.717,150.27 -50.717,149.796 L-50.717,149.119 C-50.717,148.542 -50.2491,148.074 -49.6718,148.074 C-49.0946,148.074 -48.6267,148.542 -48.6267,149.119 L-48.6267,150.932 C-48.6267,151.509 -48.1588,151.977 -47.5815,151.977 C-47.0043,151.977 -46.5364,151.509 -46.5364,150.932 L-46.5364,148.099 C-46.5364,147.862 -46.3441,147.67 -46.107,147.67 C-45.8699,147.67 -45.6777,147.862 -45.6777,148.099 L-45.6777,148.555 C-45.6777,148.793 -45.4855,148.985 -45.2484,148.985 C-45.0113,148.985 -44.819,148.793 -44.819,148.555 L-44.819,142.546 C-44.819,142.309 -45.0113,142.117 -45.2484,142.117 C-45.4855,142.117 -45.6777,142.309 -45.6777,142.546 L-45.6777,143.605 C-45.6777,143.842 -45.8699,144.034 -46.107,144.034 C-46.3441,144.034 -46.5364,143.842 -46.5364,143.605 L-46.5364,141.554 C-46.5364,140.399 -47.4722,139.464 -48.6267,139.464 C-49.7811,139.464 -50.717,140.399 -50.717,141.554 L-50.717,141.71 C-50.717,141.947 -50.9092,142.139 -51.1463,142.139 C-51.3835,142.139 -51.5757,141.947 -51.5757,141.71 L-51.5757,141.253 C-51.5757,141.016 -51.7679,140.824 -52.005,140.824 C-52.2421,140.824 -52.4343,141.016 -52.4343,141.253 L-52.4343,149.796 Z" fill="#dedede" fill-opacity="1" />
		<path d="M-52.8891,135.171 C-53.0119,135.629 -52.74,136.1 -52.282,136.223 C-51.8239,136.345 -51.3531,136.074 -51.2303,135.616 L-51.0552,134.962 C-50.9058,134.404 -50.3327,134.073 -49.7751,134.223 C-49.2175,134.372 -48.8867,134.945 -49.0361,135.503 L-49.5053,137.254 C-49.6547,137.811 -49.3238,138.385 -48.7662,138.534 C-48.2087,138.683 -47.6356,138.352 -47.4862,137.795 L-46.7529,135.058 C-46.6915,134.829 -46.4561,134.693 -46.2271,134.755 C-45.9981,134.816 -45.8621,135.052 -45.9235,135.281 L-46.0416,135.721 C-46.103,135.95 -45.9671,136.186 -45.738,136.247 C-45.509,136.309 -45.2736,136.173 -45.2122,135.944 L-43.6569,130.139 C-43.5956,129.91 -43.7315,129.675 -43.9605,129.613 C-44.1896,129.552 -44.425,129.688 -44.4863,129.917 L-44.7603,130.939 C-44.8217,131.168 -45.0571,131.304 -45.2861,131.243 C-45.5151,131.182 -45.6511,130.946 -45.5897,130.717 L-45.0589,128.736 C-44.7601,127.621 -45.4218,126.475 -46.537,126.176 C-47.6521,125.877 -48.7983,126.539 -49.0971,127.654 L-49.1374,127.805 C-49.1988,128.034 -49.4342,128.169 -49.6632,128.108 C-49.8922,128.047 -50.0281,127.811 -49.9668,127.582 L-49.8487,127.141 C-49.7873,126.912 -49.9232,126.677 -50.1522,126.616 C-50.3813,126.554 -50.6167,126.69 -50.6781,126.919 L-52.8891,135.171 Z" fill="#dedede" fill-opacity="1" />
		<path d="M-62.6248,140.085 C-62.7475,140.543 -62.4757,141.014 -62.0176,141.137 C-61.5596,141.26 -61.0888,140.988 -60.966,140.53 L-60.7908,139.876 C-60.6414,139.318 -60.0683,138.988 -59.5108,139.137 C-58.9532,139.286 -58.6223,139.859 -58.7717,140.417 L-59.241,142.168 C-59.3904,142.726 -59.0595,143.299 -58.5019,143.448 C-57.9444,143.598 -57.3713,143.267 -57.2219,142.709 L-56.4886,139.973 C-56.4272,139.744 -56.1918,139.608 -55.9628,139.669 C-55.7337,139.73 -55.5978,139.966 -55.6592,140.195 L-55.7773,140.636 C-55.8387,140.865 -55.7028,141.1 -55.4737,141.161 C-55.2447,141.223 -55.0093,141.087 -54.9479,140.858 L-53.3926,135.053 C-53.3312,134.824 -53.4672,134.589 -53.6962,134.528 C-53.9252,134.466 -54.1606,134.602 -54.222,134.831 L-54.496,135.854 C-54.5573,136.083 -54.7928,136.219 -55.0218,136.157 C-55.2508,136.096 -55.3867,135.86 -55.3254,135.631 L-54.7946,133.65 C-54.4958,132.535 -55.1575,131.389 -56.2726,131.09 C-57.3878,130.792 -58.534,131.453 -58.8328,132.568 L-58.8731,132.719 C-58.9344,132.948 -59.1699,133.084 -59.3989,133.022 C-59.6279,132.961 -59.7638,132.726 -59.7025,132.497 L-59.5843,132.056 C-59.523,131.827 -59.6589,131.591 -59.8879,131.53 C-60.117,131.469 -60.3524,131.604 -60.4137,131.834 L-62.6248,140.085 Z" fill="#dedede" fill-opacity="1" />
		<path d="M-102.358,91.5359 L-109.977,91.5359 L-109.977,53.3052 L-102.358,53.3052 L-102.358,91.5359 Z" fill="#2e1803" fill-opacity="1" />
		<path d="M-103.581,47.4264 C-103.581,47.4264 -101.06,49.9226 -98.0154,50.558 C-104.203,45.2934 -105.382,31.5872 -105.382,31.5872 C-105.382,31.5872 -102.795,34.2649 -101.06,34.5372 C-105.971,29.908 -106.168,26.5496 -106.168,23.0096 C-106.168,26.595 -106.397,29.908 -111.308,34.5372 C-109.54,34.3103 -106.986,31.5872 -106.986,31.5872 C-106.986,31.5872 -108.165,45.248 -114.353,50.558 C-111.34,49.9226 -108.787,47.4264 -108.787,47.4264 C-108.787,47.4264 -111.373,61.3595 -119.132,68.0764 C-116.022,68.0764 -110.718,68.0764 -106.168,65.3079 C-101.584,68.0764 -96.313,68.0764 -93.2027,68.0764 C-100.995,61.4049 -103.581,47.4264 -103.581,47.4264 Z" fill="#003413" fill-opacity="1" />
		<path d="M-108.033,40.264 C-107.941,41.5733 -107.018,41.2027 -106.707,42.9814 C-106.374,44.8589 -105.719,47.1934 -104.693,47.4281 C-103.666,47.6628 -103.142,47.1316 -103.142,45.7359 C-103.142,44.686 -104.316,44.5872 -104.649,41.5115 C-104.785,40.2393 -103.934,35.3974 -105.85,35.1256 C-107.564,34.9156 -108.132,38.8929 -108.033,40.264 Z" fill="#e3e3e3" fill-opacity="1" />
		<path d="M86.7789,140.405 L76.1402,140.405 L76.1402,87.0268 L86.7789,87.0268 L86.7789,140.405 Z" fill="#2e1803" fill-opacity="1" />
		<path d="M85.0707,78.8188 C85.0707,78.8188 88.5905,82.304 92.8417,83.1911 C84.2022,75.8406 82.5566,56.704 82.5566,56.704 C82.5566,56.704 86.1678,60.4426 88.5905,60.8228 C81.7338,54.3595 81.4595,49.6704 81.4595,44.7278 C81.4595,49.7337 81.1396,54.3595 74.2829,60.8228 C76.7513,60.506 80.3168,56.704 80.3168,56.704 C80.3168,56.704 78.6712,75.7773 70.0317,83.1911 C74.2372,82.304 77.8026,78.8188 77.8026,78.8188 C77.8026,78.8188 74.1914,98.2723 63.3579,107.65 C67.7004,107.65 75.1057,107.65 81.4595,103.785 C87.8591,107.65 95.2187,107.65 99.5612,107.65 C88.6819,98.3356 85.0707,78.8188 85.0707,78.8188 Z" fill="#003413" fill-opacity="1" />
		<path d="M73.1782,95.8867 C78.071,92.8052 86.919,98.5111 90.1952,102.027 C91.3881,103.299 90.5543,105.284 88.5846,104.221 C85.4169,102.513 83.0711,102.767 78.1143,104.309 C73.1576,105.851 70.6298,97.5046 73.1782,95.8867 Z" fill="#e3e3e3" fill-opacity="1" />
		<path d="M83.417,3.68106 L79.5021,3.68106 L79.5021,-15.9615 L83.417,-15.9615 L83.417,3.68106 Z" fill="#2e1803" fill-opacity="1" />
		<path d="M82.7884,-18.9819 C82.7884,-18.9819 84.0837,-17.6994 85.648,-17.373 C82.4688,-20.0779 81.8633,-27.12 81.8633,-27.12 C81.8633,-27.12 83.1921,-25.7442 84.0837,-25.6043 C81.5605,-27.9827 81.4595,-29.7083 81.4595,-31.5271 C81.4595,-29.6849 81.3418,-27.9827 78.8186,-25.6043 C79.727,-25.7209 81.039,-27.12 81.039,-27.12 C81.039,-27.12 80.4334,-20.1012 77.2542,-17.373 C78.8018,-17.6994 80.1138,-18.9819 80.1138,-18.9819 C80.1138,-18.9819 78.785,-11.8233 74.7983,-8.37221 C76.3963,-8.37221 79.1214,-8.37221 81.4595,-9.79461 C83.8145,-8.37221 86.5227,-8.37221 88.1208,-8.37221 C84.1173,-11.8 82.7884,-18.9819 82.7884,-18.9819 Z" fill="#003413" fill-opacity="1" />
		<path d="M83.0138,-11.942 C83.2367,-11.9485 83.5508,-12.0722 83.9102,-11.9209 C84.2568,-11.7741 84.6549,-11.376 84.7996,-11.0273 C84.9575,-10.6399 84.8335,-10.3602 84.3474,-10.5318 C83.9129,-10.6859 83.6636,-10.9819 83.252,-11.2108 C82.9804,-11.3633 82.7958,-11.3865 82.7284,-11.2584 C82.6926,-11.188 82.7461,-10.9645 83.1599,-10.4955 C83.5845,-10.0113 83.717,-9.82356 83.7615,-9.64305 C83.8149,-9.43672 83.7108,-9.3326 83.4897,-9.35391 C83.3009,-9.37278 83.0245,-9.58113 82.8439,-9.87653 C82.6653,-10.174 82.5172,-10.6664 82.4148,-10.8496 C82.3102,-11.0306 82.2258,-11.1193 82.1245,-11.1739 C82.0405,-11.2196 81.9267,-11.2271 81.9476,-11.0575 C81.9684,-10.888 82.0262,-10.6601 81.9588,-10.5321 C81.8976,-10.419 81.7043,-10.4594 81.5228,-10.6154 C81.4061,-10.7151 81.2671,-10.9051 81.3216,-11.0461 C81.3865,-11.2149 81.5248,-11.3358 81.5752,-11.4554 C81.6193,-11.5515 81.5712,-11.6506 81.4676,-11.7287 C81.3704,-11.8047 81.252,-11.8593 81.0469,-11.7754 C80.8375,-11.6959 80.6262,-11.597 80.3536,-11.6274 C80.0574,-11.6601 79.733,-11.9589 79.5915,-12.1982 C79.4717,-12.3987 79.4434,-12.682 79.6897,-12.7119 C79.874,-12.7317 80.2421,-12.5718 80.5866,-12.4143 C80.8643,-12.2853 81.1544,-12.2204 81.2292,-12.2434 C81.3683,-12.2785 81.2228,-12.4793 80.9442,-12.7027 C80.7044,-12.8957 80.495,-13.0498 80.3585,-13.2076 C80.2133,-13.374 80.1347,-13.5377 80.1635,-13.6618 C80.2071,-13.8265 80.3916,-13.8119 80.6009,-13.6664 C80.739,-13.5708 80.8906,-13.4107 81.0058,-13.2317 C81.1733,-12.975 81.2152,-12.8438 81.4357,-12.6489 C81.5092,-12.5839 81.6922,-12.4986 81.5413,-12.8237 C81.3883,-13.1467 81.0345,-13.6152 80.9308,-13.9357 C80.8425,-14.2109 80.9969,-14.4432 81.4753,-14.1859 C81.8179,-14.0005 82.0808,-13.6229 82.1285,-13.3244 C82.1649,-13.1011 82.0225,-12.725 82.2288,-12.438 C82.4416,-12.1401 82.7437,-11.9315 83.0138,-11.942 Z" fill="#e3e3e3" fill-opacity="1" />
		<path d="M-120.544,29.5552 L-124.569,29.5552 L-124.569,9.35741 L-120.544,9.35741 L-120.544,29.5552 Z" fill="#2e1803" fill-opacity="1" />
		<path d="M-121.19,6.2516 C-121.19,6.2516 -119.858,7.57035 -118.25,7.90603 C-121.519,5.12467 -122.141,-2.11646 -122.141,-2.11646 C-122.141,-2.11646 -120.775,-0.7018 -119.858,-0.557937 C-122.453,-3.00361 -122.557,-4.77793 -122.557,-6.64816 C-122.557,-4.75395 -122.678,-3.00361 -125.272,-0.557937 C-124.338,-0.677823 -122.989,-2.11646 -122.989,-2.11646 C-122.989,-2.11646 -123.612,5.10069 -126.881,7.90603 C-125.289,7.57035 -123.94,6.2516 -123.94,6.2516 C-123.94,6.2516 -125.307,13.6126 -129.406,17.1612 C-127.763,17.1612 -124.961,17.1612 -122.557,15.6986 C-120.135,17.1612 -117.35,17.1612 -115.707,17.1612 C-119.824,13.6366 -121.19,6.2516 -121.19,6.2516 Z" fill="#003413" fill-opacity="1" />
		<path d="M-121.519,12.7992 C-120.669,14.2979 -120.28,13.9593 -120.183,13.9034 C-120.086,13.8475 -119.769,13.6724 -119.457,14.2134 C-119.145,14.7545 -118.917,14.6229 -118.826,14.5703 C-118.592,14.4355 -118.728,13.8986 -119.316,12.8792 C-119.905,11.8597 -120.172,11.6195 -120.039,11.5349 C-119.841,11.4051 -119.758,11.7979 -119.619,11.71 C-119.391,11.5785 -119.767,11.1119 -120.06,10.6051 C-120.352,10.0982 -121.479,8.55425 -121.872,8.78113 C-122.078,8.93784 -121.32,9.68489 -121.476,9.78266 C-121.829,9.98652 -122.236,8.99157 -122.646,9.22831 C-123.034,9.49024 -122.153,10.2416 -121.772,10.9406 C-121.565,11.3908 -122.827,10.783 -121.519,12.7992 Z" fill="#e3e3e3" fill-opacity="1" />
		<path d="M-123.75,3.07844 C-123.3,2.29875 -122.64,1.83764 -122.276,2.04778 C-121.912,2.25793 -121.982,3.05953 -122.432,3.83922 C-122.882,4.6189 -124.096,6.06837 -124.46,5.85823 C-124.824,5.64808 -124.2,3.85812 -123.75,3.07844 Z" fill="#e3e3e3" fill-opacity="1" />
	</g>
</svg>