<svg xmlns="http://www.w3.org/2000/svg" onload="document.querySelector('svg').setAttribute('width','100%');document.querySelector('svg').setAttribute('height','100%')" width="1500px" height="1500px" viewBox="0 0 300 300"><path d="M255.22 258.08c10.95-22.8 14.53-59.3 7.8-98.93-10.64-62.78-43.1-109.63-72.5-104.64-12.98 2.2-23.2 14.15-29.64 32.22-3.23-6.58-7.18-11.9-11.78-15.64 2.52-12.83 1.58-24.74-4.8-32.46-20.78-25.03-60-9.92-75.86 5.2-17.8 16.83-8.38 52.93 7.9 74.2-6.75 14.18-12.4 30.54-16.33 48.3-13.77 62.16-1.35 117.78 27.76 124.24 16.5 3.65 34.8-9.25 50.06-32.4 7 1 14.48 1.46 22.2 1.3 6.43-.14 12.64-.7 18.54-1.6.45-4.58 2.35-8.73 6.15-12 12.18-10.62 44.1-22.23 63.64-6.7 5.5 4.4 7.42 11.26 6.88 18.92zm-108.3-15.67c6-11.8 11.24-25.27 15.32-39.93 4.2 14.93 9.65 28.46 15.9 39.96-5.92-.67-12.13-.97-18.5-.83-4.35.1-8.6.36-12.7.8z" fill="#32e249" stroke-width="5.9" stroke="#ffefb4" stroke-linecap="square"/><path d="M174.66 138.9h6.72l-3.35-8.15zm-2.3 5.5h-1.83l6.73-15.5h1.54l6.73 15.5h-1.83l-1.7-4.07h-7.93zM186.53 137.36q0-.68-.03-1.38-.03-.7-.05-1.82h1.42v1.9h.04q.16-.4.45-.8.28-.38.7-.68.4-.3.93-.5.54-.18 1.2-.18.63 0 1.1.13l-.3 1.42q-.28-.1-.83-.1-.83 0-1.42.3-.6.33-1 .82-.38.5-.57 1.06-.18.57-.18 1.1v5.77h-1.45zM195 130.22q0 .46-.3.76-.34.3-.74.3-.4 0-.72-.3-.33-.3-.33-.76 0-.45.34-.75.33-.3.72-.3.4 0 .73.3.3.3.3.75zm-.3 14.18h-1.46v-10.24h1.45zM202.73 135.48h-2.95v6.03q0 .58.1.94.12.36.3.56.2.2.48.27.28.08.6.08.38 0 .77-.1.4-.12.72-.3l.07 1.34q-.8.36-1.95.36-.42 0-.86-.1t-.8-.42q-.4-.3-.63-.83-.24-.52-.24-1.37v-6.45h-2.16v-1.32h2.16v-2.88h1.45v2.88h2.95zM204.12 137.36q0-.68-.03-1.38-.04-.7-.06-1.82h1.42v1.9h.04q.15-.4.44-.8.28-.38.7-.68.4-.3.93-.5.53-.18 1.2-.18.63 0 1.08.13l-.28 1.42q-.28-.1-.83-.1-.83 0-1.42.3-.6.33-1 .82-.38.5-.57 1.06-.18.57-.18 1.1v5.77h-1.45zM218.88 139.28q0-.85-.27-1.6-.26-.74-.77-1.3-.5-.53-1.2-.85-.72-.32-1.62-.32-.9 0-1.6.33-.7.32-1.2.86t-.77 1.3q-.27.73-.27 1.58 0 .86.27 1.6.28.74.77 1.3.5.54 1.2.85.7.32 1.6.32.9 0 1.62-.32.7-.3 1.2-.86.52-.55.8-1.3.26-.73.26-1.6zm1.58 0q0 1.16-.4 2.15-.4.98-1.13 1.7-.73.72-1.72 1.13-1 .4-2.2.4-1.17 0-2.17-.4t-1.7-1.13q-.74-.72-1.14-1.7-.42-1-.42-2.15 0-1.16.4-2.14.4-1 1.14-1.7.72-.73 1.7-1.14 1-.4 2.2-.4 1.2 0 2.2.4.98.4 1.7 1.13.73.72 1.13 1.7.4 1 .4 2.15zM231.7 139.28q0-.85-.28-1.6-.27-.74-.77-1.3-.5-.53-1.22-.85-.7-.32-1.6-.32-.9 0-1.65.33-.74.32-1.3.86-.53.54-.84 1.3-.3.73-.3 1.58 0 .86.3 1.6.3.74.85 1.3.54.54 1.28.85.75.32 1.64.32.9 0 1.6-.32.72-.3 1.23-.86.5-.55.77-1.3.28-.73.28-1.6zm-9.35-5.12h1.45v1.7h.04q.35-.52.83-.9.48-.36 1-.6.53-.24 1.1-.35.55-.1 1.05-.1 1.2 0 2.2.4 1 .4 1.72 1.13.72.72 1.13 1.7.4 1 .4 2.15 0 1.16-.4 2.15-.4.98-1.13 1.7-.72.72-1.72 1.13-1 .4-2.2.4-.5 0-1.06-.1t-1.08-.36q-.53-.24-1-.6-.5-.38-.84-.9h-.04v8h-1.45zM242.4 144.4q-.06-.4-.07-.82v-.82h-.05q-.24.42-.62.77-.37.35-.83.6-.46.25-.97.4-.5.13-1.02.13-1.97 0-2.9-1.04-.95-1.03-.95-2.96v-6.5h1.44v5.67q0 .85.13 1.5.13.67.45 1.1.3.46.85.7.54.22 1.34.22.12 0 .63-.1.5-.07 1.06-.47.55-.4.98-1.18.44-.8.44-2.2v-5.24h1.45v8q0 .4.03 1.04l.07 1.2zM251.85 136.6q-.33-.64-.87-1.02-.55-.37-1.34-.37-.37 0-.75.1-.4.1-.7.27-.3.2-.5.47-.18.3-.18.7 0 .73.5 1.05.5.32 1.5.56l1.48.35q1.07.25 1.78 1 .7.72.7 1.8 0 .85-.33 1.45t-.9.98q-.55.38-1.27.56-.72.16-1.47.16-1.17 0-2.2-.44-1-.45-1.73-1.55l1.25-.85q.44.7 1.1 1.12.67.4 1.6.4.43 0 .87-.1.42-.1.76-.3.34-.2.55-.53.22-.32.22-.76 0-.76-.57-1.1-.57-.34-1.38-.54l-1.4-.32q-.26-.07-.7-.22-.46-.16-.9-.46-.4-.3-.72-.8-.3-.5-.3-1.2 0-.8.3-1.4.33-.58.87-.96.53-.37 1.2-.55.7-.2 1.4-.2 1.08 0 2 .42.92.4 1.42 1.42z"/><path d="M148.25 187.66l4-4c.17.13.38.1.57 0 .63.85.98 1.62 1.05 2.2.02.35-.23.83-.23.87-.02.02-.02.05 0 .1-.02.03 0 .05.02.07.02.06.08.08.15.08 2.76 0 4.3-1.55 4.82-2.07.48-.46.86-.96 1.17-1.5l-.18-.24c-.02-.06-.04-.12 0-.15h.43l.1-.22-.28-.33c-.04-.04-.08-.1-.04-.15.04-.04.05-.06.13-.06l.42-.04c.25-.66.36-1.4.36-2.1 0-.05-.04-.13-.07-.17-.12-.1-.23 0-.44.1-.12.07-.35.1-.57.1-.4-.04-.88-.22-1.42-.52-.38-.22-.78-.5-1.18-.83.08-.2.06-.4-.1-.56l-.6-.6c-.16-.15-.37-.17-.56-.1-.82-.97-1.24-1.88-1.36-2.53-.07-.34.2-.9.2-.94.03 0 .03-.05 0-.1.03-.03 0-.05 0-.07-.02-.05-.08-.07-.16-.07-2.75 0-4.3 1.53-4.8 2.05-.37.36-.7.74-.98 1.16l.3.4c.04.03.04.07.02.13l-.02.02c-.03.03-.07.03-.1.03l-.54-.03c-.5.95-.77 1.98-.77 3.1 0 .03.03.1.07.14.1.1.23 0 .44-.1.14-.06.4-.14.68-.1.3.08.63.17.9.3.43.2.83.44 1.25.75-.13.17-.13.4-.02.6l-4.03 4.03-4-3.98c.13-.2.13-.42 0-.6.42-.3.82-.55 1.24-.74.3-.13.62-.23.92-.3.27-.04.54.03.67.1.2.1.3.2.43.1.04-.05.08-.13.08-.17 0-1.1-.26-2.14-.76-3.1l-.53.04c-.03 0-.07 0-.1-.04l-.03-.02c-.02-.06-.02-.1.02-.13l.3-.38c-.27-.42-.6-.8-.98-1.17-.5-.5-2.06-2.06-4.8-2.06-.08 0-.14.02-.16.08-.02.02-.04.04-.02.05-.02.06-.02.1 0 .12 0 .03.3.58.2.92-.1.65-.52 1.57-1.34 2.54-.2-.07-.4-.05-.56.1l-.6.6c-.16.16-.18.37-.1.56-.4.33-.8.6-1.2.84-.52.3-1 .48-1.4.54-.23 0-.46-.04-.57-.12-.2-.1-.33-.2-.44-.1-.04.05-.08.12-.08.16 0 .73.12 1.45.37 2.12l.42.04c.07 0 .1.02.13.05.04.04 0 .12-.04.16l-.28.33.1.23.3-.02c.07 0 .1.02.13.02.04.04.02.1 0 .15l-.17.26c.3.54.7 1.03 1.17 1.5.52.52 2.06 2.07 4.8 2.07.1 0 .15-.02.17-.08 0 0 .03-.03 0-.05.03-.06.03-.1 0-.12 0-.04-.23-.5-.2-.88.06-.57.4-1.33 1.04-2.2.2.12.4.14.57 0l3.95 3.96-7.38 7.37c-.1.12-.1.3-.03.46l.94.94c.12.12.3.12.42 0l7.4-7.4 7.48 7.46c.1.1.3.1.42 0l.95-.96c.1-.15.1-.34-.03-.45l-7.42-7.44z" fill="#d03307"/><path d="M147.32 190.06l-4.87 3.37 1.72-5.65-4.72-3.58 5.93-.13 1.94-5.6 1.94 5.6 5.93.13-4.73 3.58 1.72 5.65zM135.85 202.36h3.45l-1.72-4.17zm-1.18 2.83h-.94l3.46-7.96h.77l3.46 7.95h-.95l-.87-2.1h-4.05zM146.73 202.56q0-.44-.14-.82-.15-.38-.4-.66-.26-.28-.63-.44-.36-.16-.82-.16-.46 0-.83.16-.36.16-.6.44-.27.28-.4.66-.15.38-.15.82 0 .44.14.82.15.38.4.66.26.28.62.45.37.15.83.15.46 0 .82-.16.37-.18.62-.46t.4-.66q.13-.38.13-.82zm.8 0q0 .6-.2 1.1-.2.5-.57.88-.37.37-.88.57-.52.22-1.13.22-.6 0-1.12-.2-.5-.2-.88-.58-.37-.37-.58-.88-.2-.5-.2-1.1 0-.6.2-1.1.2-.5.58-.87.37-.38.88-.6.5-.2 1.12-.2.6 0 1.13.2.5.22.88.6.37.36.57.86.2.5.2 1.1zM149.6 199.94q.02.2.02.42v.42h.03q.12-.2.3-.4.2-.17.44-.3.23-.13.5-.2.25-.08.5-.08 1.02 0 1.5.54.5.53.5 1.52v3.33h-.75v-2.92q0-.87-.3-1.34-.3-.46-1.13-.46l-.3.04q-.27.05-.56.25-.28.2-.5.6-.23.4-.23 1.12v2.7h-.74v-4.1q0-.22-.03-.55l-.04-.6zM158.1 202.57q-.27 0-.7.03-.4.03-.8.14-.4.1-.66.33-.28.22-.28.6 0 .27.1.46.12.18.3.3t.4.17q.2.05.44.05.4 0 .7-.14.3-.12.5-.35.2-.23.3-.54.1-.3.1-.65v-.38zm.4-.6v-.14q0-1.35-1.36-1.35-.92 0-1.6.6l-.45-.5q.73-.78 2.2-.78.4 0 .75.1.35.13.6.36.27.23.42.57.16.35.16.83V204q0 .3.03.64l.06.55h-.72l-.05-.43v-.44h-.04q-.3.53-.76.76-.44.22-1.08.22-.35 0-.67-.1-.34-.1-.6-.3-.24-.18-.4-.47-.14-.28-.14-.67 0-.63.33-1 .32-.36.82-.54.5-.18 1.06-.23.57-.03 1.04-.03zM161.03 201.57l-.02-.7-.02-.93h.73v.97h.03q.08-.2.23-.4.14-.2.35-.35.22-.16.5-.25.27-.1.62-.1.3 0 .55.07l-.15.73q-.15-.06-.43-.06-.43 0-.74.17-.3.17-.5.42-.2.25-.3.54-.1.3-.1.57v2.96h-.73zM168.5 201.17q-.2-.3-.54-.5t-.77-.2q-.47 0-.84.15-.36.16-.62.44t-.4.67q-.13.38-.13.83 0 .45.15.84.13.38.4.67.25.28.6.43.38.16.84.15.42 0 .76-.2.35-.2.54-.5l.6.46q-.4.47-.88.7-.5.2-1.03.22-.65 0-1.17-.2-.52-.2-.88-.57-.37-.37-.56-.88-.2-.5-.2-1.1 0-.6.2-1.1.18-.52.55-.9.36-.36.88-.57.52-.2 1.16-.2.52 0 1.02.23.5.22.88.68zM170.08 196.7h.74v4.08h.02q.13-.2.32-.4.2-.17.42-.3.24-.13.5-.2.27-.08.52-.08 1 0 1.5.54.48.53.48 1.52v3.33h-.74v-2.92q0-.87-.3-1.34-.3-.46-1.13-.46l-.3.04q-.26.05-.55.25-.28.2-.5.6-.23.4-.23 1.12v2.7h-.74zM178.27 204.28l1.6-4.34h.9l-2.62 6.62q-.24.6-.6.96-.37.36-1.05.36h-.35q-.17-.02-.34-.08l.1-.72q.23.13.55.13.4 0 .62-.24.22-.25.4-.7l.37-1-2.15-5.32h.92z"/><path d="M74.04 99.04s-8.7-34 6.98-49.67c15.67-15.67 49.66-6.98 49.66-6.98s8.62 34.06-6.98 49.65c-15.68 15.52-49.66 7-49.66 7z" fill="#d9bc86"/><path d="M16.1 178.9v-3.25h2.57l.1-2.53h.16l.1 2.53h2.57v5.06h10.35l1.83-1.8h6.98l-4.8 4.94h-22.3v-4.93h2.45zm20.96 1.38c.1 0 .2-.08.2-.18 0-.1-.1-.2-.2-.2s-.18.1-.18.2.08.18.18.18zm-1.05 0c.1 0 .2-.08.2-.18 0-.1-.1-.2-.2-.2s-.17.1-.17.2.08.18.18.18zm-1.04 0c.1 0 .18-.08.18-.18 0-.1-.08-.2-.18-.2-.1 0-.2.1-.2.2s.1.18.2.18zm-15.78-2.87h.87v-.54h-.87v.55zm-.65 1.3h-.87v.56h.87v-.55zm0-1.3v-.54h-.87v.55h.87zm1.52 1.3h-.87v.56h.87v-.55zM16.1 196.1v-3.27h2.57l.1-2.53h.16l.1 2.53h2.57v5.04h10.35l1.83-1.78h6.98l-4.8 4.92h-22.3v-4.92h2.45zm20.96 1.37c.1 0 .2-.1.2-.2s-.1-.17-.2-.17-.18.08-.18.18c0 .1.08.2.18.2zm-1.05 0c.1 0 .2-.1.2-.2s-.1-.17-.2-.17-.17.08-.17.18c0 .1.08.2.18.2zm-1.04 0c.1 0 .18-.1.18-.2s-.08-.17-.18-.17c-.1 0-.2.08-.2.18 0 .1.1.2.2.2zm-15.78-2.88h.87v-.56h-.87v.55zm-.65 1.3h-.87v.54h.87v-.55zm0-1.3v-.56h-.87v.55h.87zm1.52 1.3h-.87v.54h.87v-.55zM19.8 215.07V211.8h2.57l.1-2.52h.16l.1 2.53h2.56v5.07h10.34l1.83-1.8h6.98l-4.8 4.93h-22.3v-4.93h2.46zm20.96 1.37c.1 0 .18-.08.18-.18 0-.1-.08-.2-.18-.2-.1 0-.2.1-.2.2s.1.18.2.18zm-1.05 0c.1 0 .2-.08.2-.18 0-.1-.1-.2-.2-.2s-.18.1-.18.2.08.18.18.18zm-1.05 0c.1 0 .2-.08.2-.18 0-.1-.1-.2-.2-.2s-.18.1-.18.2.08.18.18.18zm-15.77-2.87h.87v-.55h-.87v.55zm-.66 1.3h-.87v.55h.87v-.55zm0-1.3v-.55h-.87v.55h.87zm1.53 1.3h-.87v.55h.87v-.55zM24.1 155.8v-3.27h2.57l.1-2.53h.16l.1 2.53h2.56v5.04h10.34l1.84-1.78h6.97l-4.8 4.92h-22.3v-4.92h2.46zm20.96 1.37c.1 0 .18-.1.18-.2s-.08-.17-.18-.17c-.1 0-.2.08-.2.18 0 .1.1.2.2.2zm-1.05 0c.1 0 .2-.1.2-.2s-.1-.17-.2-.17-.18.08-.18.18c0 .1.1.2.2.2zm-1.04 0c.1 0 .18-.1.18-.2s-.08-.17-.18-.17c-.1 0-.2.08-.2.18 0 .1.1.2.2.2zm-15.78-2.88h.87v-.56h-.87v.55zm-.66 1.3h-.87v.54h.87v-.55zm0-1.3v-.56h-.87v.55h.87zm1.53 1.3h-.87v.54h.87v-.55zM24.1 141.22V137.96h2.57l.1-2.53h.16l.1 2.53h2.56v5.06h10.34l1.84-1.8h6.97l-4.8 4.93h-22.3v-4.93h2.46zm20.96 1.37c.1 0 .18-.1.18-.2s-.08-.18-.18-.18c-.1 0-.2.1-.2.2s.1.17.2.17zm-1.05 0c.1 0 .2-.1.2-.2s-.1-.18-.2-.18-.18.1-.18.2.1.17.2.17zm-1.04 0c.1 0 .18-.1.18-.2s-.08-.18-.18-.18c-.1 0-.2.1-.2.2s.1.17.2.17zm-15.78-2.88h.87v-.55h-.87v.55zm-.66 1.3h-.87v.55h.87v-.55zm0-1.3v-.55h-.87v.55h.87zm1.53 1.3h-.87v.55h.87v-.55z" fill="#0065cc"/><path d="M223.65 154.72q-.1.16-.28.3-.16.16-.37.27-.2.1-.46.16-.25.07-.52.07-.5 0-.9-.18-.44-.17-.74-.48-.3-.3-.5-.73-.16-.43-.16-.93t.17-.92q.17-.42.48-.73.3-.3.73-.5.43-.16.92-.16.4 0 .82.15.4.16.7.54l-.4.28q-.06-.1-.17-.2-.12-.12-.28-.2-.16-.08-.33-.13-.18-.05-.35-.05-.43 0-.76.16-.34.15-.57.4-.25.28-.37.62-.12.35-.12.73 0 .4.13.73.12.35.36.6.22.27.56.43.33.15.76.15l.34-.02q.18-.03.34-.1.17-.08.3-.2.16-.13.28-.33zM225.9 153.96l-.38.02q-.23 0-.44.07-.22.06-.37.2-.14.1-.14.33 0 .14.05.24.07.1.17.17.1.06.22.1h.24q.22 0 .4-.06.16-.07.27-.2.12-.13.17-.3.06-.17.06-.37v-.2zm.23-.33v-.08q0-.75-.75-.75-.5 0-.9.34l-.24-.3q.4-.42 1.23-.42.2 0 .4.06.2.07.35.2.14.12.23.32.1.2.1.46v1.65l.04.3h-.4q-.03-.1-.04-.22v-.24h-.02q-.18.3-.43.42-.24.13-.6.13-.18 0-.36-.06t-.33-.17q-.13-.1-.2-.26-.1-.15-.1-.37 0-.35.2-.55.17-.2.45-.3.28-.1.6-.13l.57-.02zM227.74 153.96q0 .24.08.45.08.22.22.38.14.15.34.24.2.1.46.1.25 0 .47-.1.22-.1.38-.24.15-.16.24-.37.1-.2.1-.44 0-.25-.1-.46-.1-.2-.24-.37-.16-.15-.37-.24-.2-.1-.46-.1-.25 0-.46.1-.2.08-.34.23-.14.16-.22.37-.08.2-.08.46zm2.66 1.45h-.4v-.47h-.02q-.1.15-.24.25-.14.1-.3.18-.14.07-.3.1-.15.03-.3.03-.34 0-.62-.13-.3-.1-.5-.32-.2-.2-.3-.48-.13-.28-.13-.6 0-.34.1-.63.12-.28.33-.48.2-.2.5-.32.27-.12.6-.12.16 0 .32.03.15.03.3.1t.3.18q.13.1.23.25v-2.28h.42zM231.34 153.4v-.4q-.02-.2-.02-.5h.4v.54q.06-.12.14-.23.08-.1.2-.18.1-.1.26-.14.16-.06.35-.06.17 0 .3.04l-.08.4q-.1-.03-.24-.03-.24 0-.4.1-.18.08-.3.22-.1.14-.15.3-.05.17-.05.32v1.64h-.4zM233.97 151.38q0 .13-.1.2-.1.1-.2.1-.12 0-.2-.1-.1-.07-.1-.2 0-.14.1-.22.08-.08.2-.08.1 0 .2.08t.1.22zm-.1 4.03h-.4v-2.9h.4zM235.26 152.5v.46h.03q.06-.1.16-.2t.24-.18q.13-.08.28-.12.14-.04.3-.04.55 0 .8.3.28.3.28.84v1.85h-.4v-1.6q0-.5-.18-.75-.17-.25-.62-.25l-.18.02q-.14.03-.3.14-.16.1-.28.33-.13.22-.13.62v1.5h-.4v-2.28l-.02-.3q0-.18-.02-.34zM240 153.96l-.4.02q-.24 0-.45.07-.22.06-.37.2-.15.1-.15.33 0 .14.06.24.05.1.15.17.1.06.22.1h.24q.24 0 .4-.06.17-.07.28-.2.1-.13.16-.3.06-.17.06-.37v-.2zm.2-.33v-.08q0-.75-.75-.75-.5 0-.9.34l-.24-.3q.42-.42 1.24-.42.22 0 .4.06.2.07.35.2.13.12.22.32.1.2.1.46v1.65l.04.3h-.4l-.03-.22v-.24h-.02q-.17.3-.42.42-.24.13-.6.13-.2 0-.37-.06-.17-.06-.3-.17-.15-.1-.24-.26-.08-.15-.08-.37 0-.35.18-.55.2-.2.46-.3.28-.1.6-.13l.57-.02zM242.07 155.4h-.4v-4.7h.4zM248.57 154.72q-.1.16-.27.3-.17.16-.38.27-.2.1-.46.16-.25.07-.52.07-.5 0-.9-.18-.43-.17-.74-.48-.3-.3-.48-.73t-.18-.93q0-.5.18-.92.17-.42.48-.73.3-.3.73-.5.42-.16.9-.16.42 0 .83.15.4.16.7.54l-.4.28q-.05-.1-.17-.2-.13-.12-.28-.2-.16-.08-.33-.13-.18-.05-.36-.05-.42 0-.76.16-.34.15-.57.4-.22.28-.35.62-.12.35-.12.73 0 .4.12.73.13.35.36.6.24.27.58.43.34.15.76.15.18 0 .35-.02.16-.03.32-.1.17-.08.3-.2.16-.13.3-.33zM249.78 151.38q0 .13-.1.2-.1.1-.2.1-.12 0-.2-.1-.1-.07-.1-.2 0-.14.1-.22.08-.08.2-.08.1 0 .2.08t.1.22zm-.1 4.03h-.4v-2.9h.4zM252.18 152.87h-.84v1.72q0 .15.03.26.03.1.1.15.05.07.12.1h.16l.22-.02q.12-.03.2-.08l.03.38q-.22.1-.55.1l-.24-.02q-.12-.03-.23-.12-.1-.1-.17-.24-.07-.15-.07-.4v-1.83h-.62v-.37h.63v-.83h.4v.83h.85zM253.83 154.9l.9-2.4h.5l-1.47 3.67q-.13.34-.33.54t-.6.2h-.18q-.1 0-.2-.03l.06-.4q.14.07.32.07.22 0 .34-.14.13-.14.22-.4l.2-.55-1.2-2.95h.53z"/><path d="M86.18 164.64l4.1-4.1c.18.13.4.1.6 0 .64.87 1 1.65 1.07 2.24.02.37-.24.86-.24.9v.12c0 .02 0 .04.03.06.02.06.08.08.16.08 2.8 0 4.4-1.6 4.92-2.12.5-.5.88-1 1.2-1.54l-.18-.26c-.02-.06-.04-.12 0-.15.04 0 .06-.02.14-.02l.3.02.1-.24-.3-.33c-.03-.04-.07-.12-.03-.16.04-.04.06-.06.14-.06l.42-.04c.26-.68.37-1.42.37-2.17 0-.04-.05-.12-.1-.15-.1-.12-.22 0-.44.1-.1.07-.35.1-.58.1-.4-.05-.9-.22-1.45-.54-.4-.23-.8-.53-1.2-.86.06-.2.04-.4-.1-.57l-.64-.62c-.16-.16-.38-.18-.58-.1-.84-1-1.27-1.94-1.38-2.6-.08-.35.2-.92.2-.96.03-.02.03-.06 0-.12.03-.02 0-.04 0-.06-.03-.07-.1-.1-.17-.1-2.8 0-4.4 1.6-4.93 2.13-.37.37-.72.76-1 1.2l.32.38c.04.05.04.1.02.15l-.02.02c-.04.04-.08.04-.12.04l-.55-.03c-.52.98-.8 2.03-.8 3.17 0 .04.05.12.1.16.1.1.22 0 .44-.1.14-.06.4-.14.68-.1.32.08.65.18.94.3.43.2.84.46 1.27.78-.13.17-.13.4-.02.6l-4.13 4.15-4.1-4.1c.13-.2.13-.42 0-.6.42-.3.84-.57 1.27-.76.3-.14.62-.24.94-.3.27-.05.54.03.68.08.22.1.33.22.45.1.05-.04.1-.12.1-.15 0-1.14-.3-2.2-.8-3.17l-.54.03c-.04 0-.08 0-.12-.03l-.02-.02c-.02-.05-.02-.1.02-.13l.3-.4c-.26-.42-.6-.8-.98-1.2-.53-.5-2.12-2.1-4.94-2.1-.07 0-.13.02-.15.08-.02.02-.04.04-.02.06-.02.07-.02.1 0 .12 0 .04.3.6.2.96-.1.67-.53 1.6-1.38 2.6-.2-.07-.4-.05-.56.1l-.62.63c-.16.17-.18.38-.1.58-.4.33-.82.62-1.2.86-.56.3-1.05.5-1.46.55-.23 0-.47-.05-.6-.13-.2-.1-.32-.22-.44-.1-.04.04-.07.12-.07.16 0 .74.12 1.5.38 2.17l.43.04c.1 0 .1.02.15.06.03.04 0 .12-.04.15l-.3.34c.05.07.1.14.13.22l.3-.02c.07 0 .1.02.13.02.04.04.02.1 0 .16l-.18.25c.32.55.7 1.06 1.2 1.55.53.53 2.1 2.1 4.93 2.1.1 0 .15 0 .17-.07.02 0 .03-.03.02-.04v-.12c0-.04-.27-.53-.25-.9.08-.6.43-1.37 1.08-2.25.2.1.4.12.58 0l4.06 4.04-7.56 7.55c-.1.1-.1.3-.04.46l.98.98c.12.12.32.12.43 0l7.6-7.6 7.65 7.66c.12.12.32.12.44 0l.97-.98c.08-.16.08-.35-.04-.47l-7.62-7.6zM247.04 171.54l2.97-2.97c.14.1.3.08.44 0 .47.63.72 1.2.78 1.62 0 .26-.17.62-.17.65-.02 0-.02.04 0 .08-.02 0 0 .03 0 .04.03.05.07.06.13.06 2.04 0 3.18-1.15 3.56-1.53.36-.35.64-.72.87-1.12l-.12-.18c0-.04-.03-.1 0-.12H255.78l.1-.17-.2-.23c-.04-.02-.07-.08-.04-.1.03-.04.04-.05.1-.05l.3-.03c.2-.5.28-1.04.28-1.58 0-.03-.03-.1-.06-.12-.08-.08-.17 0-.33.07-.08.06-.25.1-.42.1-.3-.05-.64-.18-1.04-.4-.28-.18-.58-.4-.88-.63.06-.14.05-.3-.07-.4l-.44-.46c-.1-.12-.27-.13-.4-.07-.62-.72-.93-1.4-1.02-1.88-.05-.25.16-.66.16-.7v-.08s0-.03-.02-.04c0-.04-.05-.06-.1-.06-2.05 0-3.2 1.15-3.58 1.53-.27.27-.52.56-.72.87l.23.28c.03.03.03.06.02.1-.04.04-.07.04-.1.04l-.4-.03c-.36.7-.56 1.48-.56 2.3 0 .03.03.08.06.1.08.1.17 0 .32-.06.1-.04.3-.1.5-.07.22.06.46.13.68.23.3.14.6.32.92.55-.1.13-.1.3-.02.44l-3 3-2.95-2.96c.08-.14.08-.3-.02-.44.3-.23.6-.4.92-.55.2-.1.46-.17.68-.23.2-.03.4.03.5.07.15.08.24.17.32.08.03-.03.06-.08.06-.1 0-.83-.2-1.6-.57-2.3l-.4.02c-.02 0-.05 0-.08-.03-.03-.05-.03-.08 0-.1l.23-.3c-.2-.3-.44-.6-.7-.86-.4-.37-1.54-1.52-3.58-1.52-.06 0-.1.02-.12.06 0 .02-.02.03 0 .04-.02.05-.02.07 0 .1 0 .02.2.43.15.68-.1.48-.4 1.16-1 1.9-.15-.07-.3-.06-.42.06l-.45.45c-.12.1-.13.27-.07.4-.3.25-.6.46-.87.63-.4.23-.75.36-1.05.4-.17 0-.34-.03-.43-.08-.15-.08-.24-.16-.32-.08-.03.03-.06.1-.06.12 0 .54.1 1.07.27 1.57l.3.03c.07 0 .08 0 .1.04.04.03 0 .1-.02.1l-.2.25.08.17H236.6c.04.03.02.08 0 .12l-.12.18c.23.4.5.77.86 1.12.4.38 1.53 1.53 3.57 1.53.07 0 .1 0 .13-.06 0 0 .02 0 0-.03.02-.04.02-.07 0-.08 0-.04-.17-.4-.16-.66.06-.43.3-1 .78-1.63.14.1.3.1.42 0l2.93 2.94-5.47 5.47c-.08.1-.08.23-.02.35l.7.7c.1.1.24.1.33 0l5.5-5.5 5.53 5.55c.1.08.23.08.3 0l.72-.7c.06-.13.06-.27-.03-.35l-5.5-5.5zM106.02 270.34l3.56-3.56c.15.12.34.1.5 0 .57.77.87 1.45.94 1.95.02.33-.2.75-.2.78-.02.03-.02.07 0 .12-.02 0 0 .03 0 .05.03.05.08.07.15.07 2.44 0 3.82-1.38 4.27-1.84.43-.42.77-.86 1.04-1.34l-.15-.22c-.02-.05-.04-.1 0-.14h.37l.1-.2-.25-.3c-.04-.02-.07-.1-.04-.12.05-.04.07-.05.13-.05l.38-.04c.23-.6.33-1.25.33-1.9 0-.03-.04-.1-.07-.13-.1-.1-.2 0-.4.1-.1.05-.3.1-.5.1-.36-.06-.78-.2-1.25-.5-.33-.2-.7-.44-1.05-.73.07-.17.05-.36-.08-.5l-.54-.54c-.14-.13-.33-.15-.5-.08-.73-.87-1.1-1.68-1.2-2.26-.07-.3.18-.8.18-.83.03-.02.03-.05 0-.1.03-.02 0-.04 0-.06-.02-.05-.07-.06-.14-.06-2.44 0-3.82 1.38-4.28 1.84-.32.32-.62.66-.86 1.04l.27.33c.02.05.02.08 0 .13v.02c-.04.03-.08.03-.1.03l-.5-.03c-.43.85-.67 1.77-.67 2.75 0 .03.04.1.07.14.1.1.2 0 .4-.1.1-.04.35-.1.6-.07.26.06.55.15.8.27.38.17.73.4 1.1.66-.1.15-.1.36 0 .53l-3.6 3.6-3.55-3.56c.1-.17.1-.37-.02-.52.38-.27.73-.5 1.1-.66.26-.13.55-.22.82-.3.24-.02.47.05.6.1.18.08.28.2.38.08.04-.03.07-.1.07-.13 0-1-.24-1.9-.68-2.75l-.47.03c-.04 0-.07 0-.1-.03l-.02-.02c-.02-.05-.02-.08.02-.12l.27-.34c-.24-.37-.55-.7-.87-1.03-.46-.47-1.83-1.84-4.28-1.84-.06 0-.1 0-.13.06-.02.02-.04.04-.02.05-.02.06-.02.1 0 .1 0 .04.26.53.2.84-.1.6-.5 1.4-1.22 2.27-.17-.07-.35-.06-.5.08l-.53.54c-.14.13-.15.32-.1.5-.34.27-.7.53-1.04.73-.47.27-.9.43-1.25.48-.2 0-.4-.03-.5-.1-.2-.08-.3-.18-.4-.08-.04.03-.07.1-.07.14 0 .64.1 1.3.33 1.88l.37.03c.07 0 .1.02.12.06.04.03 0 .1-.03.13l-.27.3.1.2.26-.02h.1c.04.05.03.1 0 .15l-.14.2c.27.5.6.93 1.03 1.35.45.46 1.82 1.83 4.27 1.83.07 0 .12 0 .13-.06.02-.02.04-.04.02-.05.02-.05.02-.1 0-.1 0-.04-.22-.46-.2-.8.07-.5.37-1.17.93-1.94.17.1.36.12.5 0l3.52 3.5-6.55 6.57c-.1.1-.1.27-.04.4l.85.85c.1.1.27.1.37 0l6.6-6.58 6.63 6.63c.1.1.27.1.38 0l.85-.85c.07-.13.07-.3-.03-.4l-6.6-6.6zM88.4 82.74l3.48-3.5c.15.13.34.1.5 0 .55.76.85 1.43.92 1.93 0 .3-.2.73-.2.76-.02.02-.02.05 0 .1-.02.02 0 .03 0 .05.03.05.08.07.15.07 2.4 0 3.74-1.35 4.2-1.8.4-.4.73-.85 1-1.3l-.15-.23c-.02-.05-.03-.1 0-.13.03 0 .05-.03.12-.03l.25.02.1-.2-.25-.3c-.04-.03-.07-.1-.04-.13.04-.03.05-.05.12-.05l.36-.03c.22-.6.32-1.22.32-1.86 0-.03-.03-.1-.07-.13-.1-.1-.2 0-.37.1-.1.06-.3.1-.5.1-.35-.06-.76-.2-1.23-.47-.33-.2-.68-.45-1.03-.73.07-.17.05-.35-.08-.48l-.54-.54c-.14-.13-.32-.15-.48-.08-.72-.85-1.1-1.65-1.2-2.2-.05-.3.2-.8.2-.83v-.1s0-.03-.02-.04c-.02-.05-.07-.07-.13-.07-2.4 0-3.74 1.35-4.2 1.8-.3.3-.6.64-.84 1l.26.34c.03.03.03.07 0 .12-.04.05-.07.05-.1.05l-.47-.04c-.44.84-.67 1.73-.67 2.7 0 .03.03.1.06.13.1.1.2 0 .38-.08.1-.05.34-.12.58-.1.26.08.55.16.8.28.36.17.7.38 1.08.65-.12.16-.12.36-.02.52l-3.52 3.52-3.47-3.47c.1-.17.1-.36-.02-.5.38-.28.72-.5 1.1-.66.24-.1.52-.2.8-.26.22-.03.45.03.57.08.18.1.28.2.38.1.04-.05.07-.1.07-.15 0-.96-.23-1.86-.67-2.7l-.46.04c-.04 0-.08 0-.1-.02l-.03-.02c0-.04 0-.08.02-.1l.26-.34c-.24-.37-.54-.7-.85-1.02-.44-.45-1.8-1.8-4.18-1.8-.07 0-.12.02-.14.07 0 .02-.03.04 0 .05-.03.05-.03.1 0 .1 0 .04.24.52.17.82-.1.56-.46 1.36-1.18 2.2-.17-.06-.35-.04-.48.1l-.54.52c-.14.14-.15.32-.1.5-.34.27-.68.52-1.02.72-.46.26-.88.4-1.23.46-.2 0-.4-.03-.5-.1-.17-.08-.27-.18-.37-.08-.03.03-.06.1-.06.13 0 .62.1 1.26.3 1.84l.38.03c.06 0 .08.02.1.05.05.03 0 .1-.02.13l-.25.3.1.2.25-.03c.07 0 .08.02.12.02.03.03 0 .08 0 .13l-.15.22c.26.45.6.88 1 1.3.46.45 1.8 1.8 4.2 1.8.07 0 .12-.02.13-.07.02-.02.04-.04.02-.05.02-.05.02-.1 0-.1 0-.04-.22-.45-.2-.77.07-.5.37-1.15.9-1.9.18.1.36.12.5 0L86 82.74l-6.42 6.42c-.1.1-.1.27-.03.4l.83.83c.1.1.27.1.36 0l6.46-6.46 6.5 6.5c.1.1.27.1.37 0l.83-.83c.06-.12.06-.3-.04-.4l-6.46-6.46z" fill="#d03307"/><path d="M87.95 61.82h3.24v.56h-3.87v-6.04h3.75v.56h-3.13v2.06h2.93v.56h-2.93zM95.62 60.38q0-.33-.1-.62-.12-.3-.3-.5-.2-.22-.5-.34-.26-.12-.6-.12-.36 0-.64.12t-.47.34q-.18.2-.3.5-.1.3-.1.62 0 .34.1.63.12.3.3.5.2.22.48.35.28.12.63.12.36 0 .63-.12.28-.13.48-.34.2-.2.3-.5.12-.28.12-.62zm.6 0q0 .46-.15.84-.15.38-.44.67-.28.27-.67.43-.38.15-.85.15-.46 0-.84-.15-.4-.16-.67-.44-.3-.3-.45-.68-.16-.38-.16-.84 0-.45.15-.83.15-.4.44-.67.27-.28.66-.44.38-.16.85-.16.48 0 .86.16.4.16.67.44.3.28.44.67.16.38.16.83zM97.32 59.63l-.02-.54-.02-.7h.56v.73q.07-.16.18-.3.12-.16.27-.28.15-.12.36-.2.2-.07.47-.07.24 0 .42.05l-.1.56q-.12-.05-.33-.05-.33 0-.56.12-.23.12-.38.32-.16.18-.23.4-.07.22-.07.43v2.25h-.56zM102.36 60.4h-.53q-.32.03-.62.12-.28.08-.5.25-.2.17-.2.47 0 .2.08.33.08.15.22.23.14.1.3.13.17.04.34.04.3 0 .53-.1.23-.1.38-.28.16-.18.23-.42.07-.23.07-.5v-.3zm.3-.47v-.1q0-1.03-1.03-1.03-.7 0-1.22.46l-.34-.4q.57-.58 1.7-.58.3 0 .55.1.28.07.48.25.2.17.32.44.12.26.12.63v1.78l.02.5.04.4h-.54q-.03-.14-.04-.3v-.35h-.03q-.25.4-.6.58-.32.18-.8.18-.27 0-.52-.07-.25-.06-.44-.2-.18-.16-.3-.38-.1-.22-.1-.5 0-.5.24-.77.25-.28.63-.4.38-.15.8-.2l.8-.02zM107.72 61.82h1.17q.33 0 .62-.07.3-.07.5-.2.2-.15.34-.36.12-.23.12-.53 0-.6-.38-.88-.4-.3-1.13-.3h-1.25zm0-2.84h1.23q.22 0 .44-.05.2-.06.4-.2.16-.1.27-.3.1-.22.1-.5 0-.1-.03-.27t-.17-.34q-.13-.17-.4-.3-.24-.12-.68-.12h-1.2zm-.62-2.64h1.8q.38 0 .73.07.35.1.62.27.27.18.44.47.15.3.15.72 0 .5-.28.85-.28.36-.8.48v.02q.65.05 1 .44.38.4.38 1.07 0 .15-.08.43-.07.3-.3.56-.23.27-.66.48-.43.2-1.16.2h-1.84zM114.55 60.4H114q-.3.03-.6.12-.3.08-.5.25-.22.17-.22.47 0 .2.1.33.07.15.2.23.14.1.3.13.17.04.34.04.3 0 .54-.1.22-.1.38-.28.15-.18.22-.42.08-.23.08-.5v-.3zm.3-.47v-.1q0-1.03-1.04-1.03-.7 0-1.2.46l-.35-.4q.56-.58 1.7-.58.28 0 .55.1.27.07.46.25.2.17.32.44.12.26.12.63v1.78l.02.5.05.4h-.55l-.04-.3v-.35h-.03q-.24.4-.58.58-.34.18-.83.18-.26 0-.5-.07-.26-.06-.45-.2-.2-.16-.32-.38-.1-.22-.1-.5 0-.5.24-.77.25-.28.63-.4.38-.15.8-.2l.8-.02zM118.82 59.33q-.13-.24-.34-.4-.2-.13-.52-.13-.14 0-.3.03-.14.03-.26.1-.12.08-.2.2-.07.1-.07.26 0 .27.2.4t.6.22l.56.14q.4.1.7.38.26.3.26.7 0 .34-.13.57-.13.25-.35.4-.22.15-.5.22-.28.06-.57.06-.45 0-.85-.17-.4-.17-.68-.6l.5-.33q.16.28.42.44.25.17.6.17.18 0 .35-.04.17-.04.3-.12.14-.07.22-.2.08-.12.08-.3 0-.3-.22-.43-.23-.13-.54-.2l-.56-.13-.28-.1q-.17-.05-.34-.17-.16-.12-.28-.3-.12-.2-.12-.48 0-.32.12-.55.13-.23.33-.38.2-.14.48-.2.26-.1.54-.1.4 0 .77.18.36.16.56.55zM121.16 56.85q0 .18-.13.3-.12.1-.28.1-.15 0-.28-.1-.13-.12-.13-.3t.13-.3q.13-.1.28-.1.16 0 .28.1.13.12.13.3zm-.13 5.53h-.56v-4h.56zM122.93 58.4l.02.3v.33h.02q.1-.17.24-.3.16-.14.34-.24.18-.1.38-.16t.4-.06q.76 0 1.13.4.37.4.37 1.17v2.53h-.57v-2.2q0-.68-.23-1.03t-.85-.35l-.24.03q-.2.03-.42.2-.2.14-.37.45-.17.3-.17.85v2.05h-.57v-3.12l-.02-.4q0-.25-.03-.47z"/><path d="M164.77 130l3.6-3.6c.15.12.34.1.5 0 .57.77.88 1.46.95 1.97.02.33-.2.76-.2.8-.02 0-.02.04 0 .1-.02 0 0 .03 0 .05.03.05.08.07.15.07 2.47 0 3.86-1.4 4.32-1.87.42-.42.76-.87 1.04-1.35l-.16-.22c-.02-.05-.03-.1 0-.14.04 0 .05-.02.12-.02l.26.02.1-.2-.26-.3c-.03-.03-.06-.1-.03-.13.03-.05.05-.07.12-.07l.37-.03c.22-.6.32-1.25.32-1.9 0-.04-.04-.1-.08-.14-.1-.1-.2 0-.4.1-.1.06-.3.1-.5.1-.36-.06-.8-.22-1.27-.5-.35-.2-.7-.45-1.07-.74.07-.18.06-.36-.08-.5l-.55-.55c-.14-.14-.33-.15-.5-.1-.73-.86-1.1-1.68-1.2-2.27-.08-.3.17-.8.17-.84.02 0 .02-.05 0-.1.02-.02 0-.03 0-.05-.03-.04-.08-.06-.15-.06-2.47 0-3.86 1.4-4.32 1.85-.32.32-.63.66-.87 1.04l.27.34c.04.04.04.07.02.12l-.02.02c-.03.03-.07.03-.1.03l-.48-.03c-.45.86-.7 1.78-.7 2.78 0 .03.05.1.08.13.1.1.2 0 .4-.08.12-.05.36-.12.6-.1.27.08.56.17.82.3.37.16.73.38 1.1.65-.1.16-.1.36 0 .53l-3.63 3.63-3.6-3.58c.12-.17.12-.37 0-.53.37-.27.73-.5 1.1-.67.27-.12.56-.2.83-.27.24-.02.48.04.6.1.2.08.3.18.4.08.03-.03.07-.1.07-.14 0-1-.24-1.92-.7-2.77l-.47.03c-.03 0-.07 0-.1-.03l-.02-.02c-.02-.05-.02-.1.02-.12l.27-.34c-.24-.4-.55-.73-.87-1.06-.46-.46-1.85-1.85-4.32-1.85-.07 0-.12 0-.14.06 0 .02-.02.03 0 .05-.02.06-.02.1 0 .1 0 .05.25.54.18.85-.1.6-.48 1.4-1.2 2.28-.2-.07-.37-.05-.5.1l-.56.54c-.14.13-.15.32-.1.5-.35.3-.7.54-1.05.75-.48.27-.9.43-1.27.48-.2 0-.4-.04-.5-.1-.2-.1-.3-.2-.4-.1-.04.04-.07.1-.07.15 0 .65.1 1.3.32 1.9l.38.03c.07 0 .08.02.12.06.03.03 0 .1-.04.13l-.24.3.1.2.26-.02c.07 0 .08.02.12.02.03.03.02.1 0 .14l-.16.23c.28.48.62.93 1.05 1.35.46.47 1.85 1.86 4.32 1.86.07 0 .12-.02.14-.07 0-.02.02-.04 0-.05.02-.06.02-.1 0-.1 0-.04-.22-.47-.2-.8.07-.5.37-1.2.94-1.97.17.1.36.12.5 0l3.56 3.55-6.62 6.62c-.1.1-.1.27-.03.4l.85.87c.1.1.28.1.38 0l6.66-6.67 6.7 6.7c.1.1.27.1.38 0l.85-.85c.07-.14.07-.3-.03-.4l-6.67-6.68zM181.8 69.66l2.97-2.97c.13.08.28.07.42 0 .46.62.72 1.2.77 1.6.02.28-.17.64-.17.67v.08c0 .02 0 .03.02.04 0 .04.05.05.1.05 2.05 0 3.2-1.15 3.58-1.53.35-.35.64-.72.86-1.12l-.13-.18c0-.04-.02-.1 0-.12h.32l.08-.17-.2-.24c-.04-.03-.07-.1-.04-.12.02-.03.03-.04.1-.04l.3-.03c.2-.5.27-1.02.27-1.56 0-.03-.03-.1-.06-.12-.07-.08-.16 0-.3.08-.1.05-.27.08-.44.08-.3-.04-.65-.17-1.04-.4-.3-.17-.6-.38-.88-.62.05-.14.04-.3-.07-.4l-.46-.46c-.1-.12-.26-.13-.4-.07-.6-.73-.92-1.4-1-1.9-.06-.24.15-.65.15-.68.02-.02.02-.04 0-.1.02 0 0-.02 0-.03-.03-.04-.07-.06-.12-.06-2.04 0-3.2 1.15-3.57 1.53-.27.26-.53.55-.73.86l.23.28c.03.03.03.06 0 .1-.03.04-.06.04-.08.04l-.4-.03c-.37.7-.57 1.48-.57 2.3 0 .03.04.08.07.1.08.1.17 0 .33-.06.1-.05.3-.1.5-.08.22.06.46.13.67.23.3.14.6.32.92.55-.1.13-.1.3-.02.44l-3 3-2.96-2.96c.08-.14.08-.3 0-.44.3-.23.6-.4.9-.55.22-.1.46-.18.7-.24.18-.03.38.03.48.07.16.07.24.16.33.07.03-.03.05-.08.05-.1 0-.83-.2-1.6-.56-2.3l-.4.02c-.03 0-.06 0-.08-.03l-.02-.02c0-.04 0-.07.02-.1l.22-.28c-.2-.3-.45-.6-.72-.87-.38-.38-1.53-1.53-3.57-1.53-.06 0-.1.02-.1.06-.03.02-.04.03-.03.04v.1c0 .02.22.43.16.68-.1.48-.4 1.16-1 1.9-.15-.07-.3-.06-.42.06l-.45.45c-.1.1-.13.26-.07.4-.3.24-.6.45-.88.62-.4.23-.75.36-1.05.4-.17 0-.34-.03-.42-.08-.15-.08-.23-.16-.32-.08-.03.03-.05.1-.05.12 0 .54.08 1.07.27 1.57l.3.03c.06 0 .08 0 .1.04.03.03 0 .1-.02.1l-.2.26c0 .05.04.1.07.17l.2-.02c.07 0 .08.02.1.02.04.02.03.07 0 .1l-.12.2c.23.4.5.76.87 1.1.38.4 1.53 1.54 3.57 1.54.05 0 .1-.02.1-.07.02 0 .04-.02.02-.04V69c0-.02-.2-.38-.18-.64.06-.43.32-1 .78-1.63.15.08.3.1.43 0l2.93 2.93-5.47 5.47c-.1.08-.1.22-.04.34l.7.7c.1.1.23.1.32 0l5.5-5.5 5.54 5.55c.08.08.22.08.3 0l.72-.7c.05-.13.05-.27-.03-.35l-5.5-5.5z" fill="#d03307"/><path d="M242.75 211.25c-19.97-14.27-74.96 15.37-65.72 42.03 8.94 25.66 45.05 33.54 62.42 30.86 27.72-4.14 23.2-58.68 3.3-72.9z" fill="#fff"/><path d="M202.53 252.92l2.42-.48-1.78-2.7zm-.43 2.14l-.66.13 1.32-6.06.55-.1 3.54 5.1-.66.12-.9-1.35-2.86.58zM207.65 253.97l-.52.1-1.17-5.95.5-.1zM208.26 248.54q.03.17-.07.3-.1.13-.25.16-.14.03-.28-.06-.14-.08-.17-.25-.03-.17.07-.3.1-.13.23-.16.15-.03.3.06.12.08.16.24zm.9 5.13l-.53.1-.73-3.68.52-.1zM209.77 249.72q.05.14.08.3l.06.28h.03q.06-.17.17-.32.1-.15.25-.27.15-.12.32-.2.18-.1.36-.13.7-.14 1.12.17.4.3.55 1l.46 2.34-.52.1-.4-2.04q-.12-.6-.4-.9-.28-.28-.85-.17-.05 0-.22.08-.18.06-.35.24-.17.17-.28.5-.1.3 0 .8l.38 1.9-.52.1-.56-2.87-.1-.38-.1-.43zM215.72 250.47l-.5.1q-.28.1-.53.22-.27.12-.43.3-.17.2-.1.48.03.18.13.3t.24.17q.14.06.3.07.16 0 .32-.03.28-.07.47-.2.2-.14.3-.33.1-.2.14-.42.02-.23-.03-.47l-.05-.27zm.2-.48l-.03-.1q-.2-.96-1.15-.77-.64.12-1.04.65l-.37-.3q.4-.64 1.45-.85.27-.05.53-.02.27.04.5.16.2.13.36.35.16.23.22.57l.33 1.65.12.44.1.37-.5.1-.08-.28q-.05-.16-.07-.3h-.02q-.16.4-.43.63-.28.23-.73.3-.26.06-.5.04-.24-.02-.44-.12-.2-.1-.35-.3-.14-.17-.2-.43-.08-.45.1-.75t.5-.5q.33-.2.72-.3.4-.12.73-.18zM217.24 249.44l-.1-.5-.16-.65.5-.1.15.68q.04-.17.1-.32l.2-.3q.13-.14.3-.24.2-.1.44-.16.22-.04.4-.03v.54q-.12-.02-.3.02-.3.04-.5.2t-.3.36q-.1.2-.13.42-.03.22 0 .4l.42 2.1-.52.1zM223.6 245.98q-.47-.47-1.18-.33-.22.04-.42.14-.2.1-.35.25-.14.16-.2.37-.07.2-.02.47.07.37.33.54.25.16.6.23.34.08.73.1.4.04.74.16.35.1.62.36.27.24.37.74.07.38-.03.72-.1.33-.33.6-.22.24-.53.42-.3.17-.63.24-.5.1-1 0t-.9-.48l.43-.47q.24.27.6.4.36.1.8.03.2-.05.4-.16.2-.1.36-.27.13-.16.2-.37.07-.2.03-.46-.06-.3-.22-.46-.15-.17-.38-.26-.22-.1-.5-.12l-.56-.07q-.3-.03-.57-.1-.28-.05-.52-.18-.23-.13-.4-.36-.18-.25-.25-.63-.08-.4 0-.73.1-.33.32-.58.22-.25.52-.4.3-.16.65-.23.47-.1.9-.02.4.08.8.4zM225.45 246.62l.08.3.06.3v-.02q.06-.16.17-.32.1-.15.26-.27l.32-.2q.18-.1.36-.13.72-.14 1.13.17.4.3.55 1l.46 2.34-.52.1-.4-2.04q-.12-.6-.4-.9-.28-.28-.85-.17-.04 0-.22.08-.17.07-.34.25t-.27.5q-.1.3 0 .8l.37 1.9-.52.1-.56-2.87-.1-.38-.1-.42zM232.46 247.15q-.06-.3-.2-.56-.16-.25-.38-.4-.22-.18-.5-.24t-.6 0q-.33.06-.56.23-.23.15-.37.4-.14.22-.18.5-.05.3 0 .6.07.3.22.55.14.25.36.4.22.18.5.24.27.05.6 0 .32-.07.55-.24.25-.16.4-.4.13-.23.18-.52.04-.28-.02-.6zm.57-.1q.08.4 0 .8-.07.37-.28.68-.2.3-.54.53-.32.22-.75.3-.43.1-.8 0-.4-.06-.7-.27-.32-.22-.54-.55-.2-.32-.3-.74-.07-.4 0-.8.08-.37.3-.68.2-.3.53-.53.33-.23.75-.3.44-.1.82-.02.4.07.7.28.3.2.53.54.22.32.3.74zM233.37 245.06l1.44 2.82h.03l.4-3.2.53-.1 1.57 2.8h.02l.26-3.16.62-.12-.43 3.9-.6.13-1.57-2.83h-.02l-.37 3.22-.58.1-1.9-3.44zM240.63 244.53q-.16-.2-.38-.3-.23-.1-.5-.04-.15.02-.28.08-.13.05-.23.14-.1.1-.14.2-.05.12-.02.27.05.25.26.33.2.1.58.1l.56.02q.4 0 .7.23.3.2.4.6.05.3-.03.54-.08.25-.25.42-.17.18-.42.3-.25.1-.52.16-.42.1-.82 0-.4-.1-.74-.43l.4-.4q.2.22.47.32.27.1.6.03.16-.03.3-.1.16-.06.27-.16.1-.1.15-.24.05-.13 0-.3-.04-.26-.27-.34-.23-.1-.53-.1l-.53-.03-.27-.02q-.17-.03-.35-.1-.17-.1-.32-.24-.14-.15-.2-.4-.05-.3.02-.53.07-.23.24-.4.16-.18.4-.3.22-.1.48-.16.38-.06.74.02t.62.4z"/><path d="M222.2 235.56l3.48-3.5c.15.13.33.1.5 0 .55.76.85 1.43.9 1.92.03.32-.2.74-.2.77v.1c0 .02 0 .03.03.05.03.05.08.07.14.07 2.4 0 3.74-1.35 4.2-1.8.4-.42.74-.85 1-1.3l-.14-.23c-.02-.05-.04-.1 0-.13h.36l.1-.2-.25-.27c-.02-.04-.05-.1-.02-.14.03-.04.05-.06.12-.06l.36-.03c.22-.57.32-1.2.32-1.84 0-.03-.04-.1-.07-.13-.1-.1-.2 0-.37.08-.1.08-.3.1-.5.1-.35-.04-.76-.2-1.23-.45-.33-.2-.68-.45-1.03-.73.07-.17.05-.35-.08-.5l-.55-.52c-.13-.13-.3-.15-.48-.08-.7-.85-1.08-1.65-1.18-2.2-.07-.3.17-.8.17-.83.02-.02.02-.06 0-.1.02-.02 0-.04 0-.06-.03-.05-.08-.06-.14-.06-2.4 0-3.75 1.34-4.2 1.8-.3.3-.6.64-.84 1l.25.34c.04.03.04.07.02.12h-.02c-.03.05-.06.05-.1.05l-.46-.05c-.44.83-.68 1.73-.68 2.7 0 .03.04.1.07.13.1.1.2 0 .37-.08.12-.05.35-.12.58-.1.27.08.55.16.8.28.37.16.72.38 1.08.65-.1.15-.1.35 0 .5l-3.53 3.53-3.48-3.47c.1-.18.1-.38 0-.53.35-.26.7-.48 1.07-.64.24-.12.52-.2.8-.27.22-.03.45.03.57.08.18.1.28.2.38.1.03-.05.07-.1.07-.15 0-.97-.24-1.87-.67-2.7l-.46.03c-.05 0-.08 0-.1-.03l-.03-.02c-.02-.05-.02-.08.02-.1l.25-.35c-.23-.36-.53-.7-.85-1-.44-.46-1.8-1.8-4.2-1.8-.05 0-.1 0-.12.06 0 0-.03.03 0 .04-.03.05-.03.08 0 .1 0 .03.23.52.17.82-.1.56-.47 1.36-1.18 2.2-.17-.06-.35-.04-.48.1l-.55.52c-.13.14-.15.32-.08.48-.35.3-.7.54-1.03.74-.47.26-.88.4-1.23.46-.2 0-.4-.03-.5-.1-.17-.08-.27-.18-.37-.08-.03.03-.07.1-.07.13 0 .64.1 1.27.32 1.86l.36.03c.07 0 .1 0 .12.04.03.03 0 .1-.03.13l-.25.3.1.18h.35c.05.04.03.1 0 .14l-.14.2c.26.47.6.9 1 1.32.46.45 1.8 1.8 4.2 1.8.06 0 .1-.02.13-.07.02-.02.03-.04.02-.05v-.1c0-.04-.22-.45-.2-.77.06-.5.36-1.16.9-1.9.18.1.36.1.5 0l3.45 3.43-6.42 6.42c-.1.1-.1.27-.04.4l.84.83c.1.1.26.1.36 0l6.46-6.44 6.5 6.5c.1.1.26.1.36 0l.84-.83c.06-.14.06-.3-.04-.4l-6.47-6.47z" fill="#d03307"/><path d="M92.56 108.1l-9.53 5.97c-.13.1-.2.2-.2.32v13.5h3.97v-11.17c0-.15.1-.28.2-.33l5.6-3.48c.14-.1.3-.1.44 0l5.56 3.48c.1.08.18.18.18.33v11.17h3.97V114.4c0-.16-.1-.28-.2-.33L93 108.1c-.16-.07-.34-.07-.44 0zM185.2 167.97l-9.02 5.63c-.12.1-.2.18-.2.3v12.76h3.77V176.1c0-.13.1-.25.18-.3l5.28-3.28c.15-.1.3-.1.44 0l5.25 3.28c.08.07.16.17.16.3v10.56h3.75V173.9c0-.14-.08-.26-.18-.3l-9-5.63c-.17-.07-.34-.07-.43 0zM119.84 72.18l-8.13 5.08c-.1.08-.15.17-.15.27v11.5h3.38v-9.5c0-.14.1-.24.17-.28l4.76-2.97c.13-.08.26-.08.38 0l4.74 2.97c.1.06.15.14.15.27v9.52h3.4v-11.5c0-.14-.1-.24-.18-.28l-8.13-5.08c-.15-.07-.3-.07-.38 0zM190.96 104.23l-9.84 6.14c-.13.1-.2.2-.2.34V124.65h4.1V113.1c0-.14.1-.27.2-.32l5.76-3.6c.16-.1.3-.1.46 0l5.74 3.6c.1.08.18.18.18.33v11.54h4.1v-13.92c0-.17-.1-.3-.2-.35l-9.84-6.14c-.18-.08-.36-.08-.46 0zM77.72 253.36l-7.2 4.5c-.08.07-.14.14-.14.23v10.18h3v-8.43c0-.1.07-.2.15-.24l4.2-2.6c.12-.08.23-.08.35 0l4.2 2.6c.06.07.12.14.12.25v8.43h3V258.1c0-.12-.08-.2-.15-.25l-7.2-4.5c-.12-.05-.25-.05-.33 0zM235.06 258.63l-7.53 4.7c-.1.1-.16.16-.16.26v10.67h3.14v-8.83c0-.12.1-.22.17-.26l4.4-2.75c.13-.08.25-.08.37 0l4.4 2.75c.07.06.13.14.13.26v8.83h3.14V263.6c0-.13-.07-.22-.14-.26l-7.54-4.7c-.14-.07-.28-.07-.36 0z"/><path d="M201.46 60.18h-10.23V-55.05h10.23V60.18z" fill="#fef52b"/><path d="M201.46-53.25h-5.4v5.56h-1.55v-5.55h-5.4V61.98h5.4v-5.56h1.56v5.56h5.4V-53.25zM194.5-31.3v-10.54h1.56v10.53h-1.55zm0 16.37v-10.53h1.56v10.53h-1.55zm0 16.37V-9.1h1.56V1.45h-1.55zm0 16.38V7.3h1.56V17.8h-1.55zm0 16.37V23.66h1.56V34.2h-1.55zm0 16.37V40.04h1.56v10.53h-1.55z"/><path d="M136.83 229.8v-9.3l-9.44-9.5-9.45 9.5v9.3h18.88z" fill="#b76418"/><path d="M138.84 218.08l-10.62-10.7c-.24-.25-.55-.37-.83-.37-.32 0-.62.13-.84.37l-10.62 10.7c-.45.46-.45 1.2 0 1.7.45.43 1.2.43 1.68 0l9.8-9.88 9.8 9.86c.44.47 1.2.47 1.66 0 .43-.48.43-1.23-.04-1.68zM127.48 150.7v-9.32c-.07-.05-9.44-9.5-9.44-9.5s-9.37 9.45-9.44 9.5v9.32h18.88z" fill="#b76418"/><path d="M129.5 138.97l-10.63-10.7c-.24-.25-.54-.37-.83-.37-.3 0-.6.12-.82.36l-10.62 10.7c-.45.46-.45 1.22 0 1.7.44.44 1.2.44 1.67 0l9.8-9.88 9.8 9.87c.44.47 1.2.47 1.67 0 .42-.47.42-1.23-.05-1.68zM124.74 51.53V43.4c-.06-.03-8.22-8.25-8.22-8.25s-8.16 8.22-8.22 8.26v8.13h16.44z" fill="#b76418"/><path d="M126.5 41.3L117.23 32c-.2-.2-.47-.3-.72-.3-.27 0-.53.1-.72.3l-9.25 9.33c-.4.4-.4 1.06 0 1.47.4.4 1.05.4 1.46 0l8.54-8.6 8.53 8.6c.4.4 1.05.4 1.46 0 .37-.4.37-1.07-.04-1.46z" fill="#b76418"/><path d="M107.48 158.23h3.63l-1.8-4.4zm-1.23 2.97h-1l3.64-8.35h.82l3.63 8.35h-1l-.9-2.2h-4.28zM113.6 156.9v-.6l-.05-.62h.84v.84q.3-.5.8-.73.5-.26 1-.26.22 0 .47.05.26.03.5.16.23.12.43.34.2.23.35.58.24-.53.75-.84.5-.3 1.07-.3 1.06 0 1.57.56.5.56.5 1.6v3.5h-.77v-3.22q0-.84-.3-1.3-.3-.43-1.1-.43-.43 0-.73.17t-.47.45q-.2.28-.27.64-.08.37-.08.76v2.94h-.78v-3.22q0-.84-.3-1.3-.3-.43-1.1-.43l-.32.04q-.25.04-.52.25-.28.22-.5.64-.2.4-.2 1.17v2.83h-.8zM123.07 156.9v-.6l-.06-.62h.85v.84h.03q.28-.5.78-.73.5-.26 1-.26.22 0 .48.05.25.03.5.16.22.12.43.34.2.23.35.58.23-.53.75-.84.5-.3 1.06-.3 1.07 0 1.57.56t.5 1.6v3.5h-.77v-3.22q0-.84-.3-1.3-.3-.43-1.1-.43-.43 0-.72.17-.3.17-.47.45-.18.28-.27.64-.08.37-.08.76v2.94h-.78v-3.22q0-.84-.3-1.3-.3-.43-1.1-.43l-.3.04q-.27.04-.54.25-.27.22-.5.64-.2.4-.2 1.17v2.83h-.8zM136.53 161.2q-.03-.22-.03-.44v-.44h-.03q-.13.22-.33.4-.2.2-.45.34-.26.13-.54.2-.27.08-.54.08-1.07 0-1.57-.56t-.5-1.6v-3.5h.77v3.06q0 .46.07.8.06.36.23.6.17.25.46.37.28.14.72.14l.33-.05q.27-.06.57-.27.3-.2.54-.64.23-.43.23-1.2v-2.82h.77v4.3l.02.57q0 .35.03.65zM139.25 155.68q.03.22.03.44v.44h.03q.14-.22.34-.4.2-.2.45-.33.24-.14.52-.22.27-.06.54-.06 1.07 0 1.57.56t.5 1.6v3.5h-.77v-3.05q0-.92-.32-1.4-.3-.5-1.18-.5l-.33.04q-.27.04-.57.25-.3.22-.54.64-.23.4-.23 1.17v2.83h-.8v-4.3-.57l-.05-.65zM145.6 153.56q0 .24-.16.4-.18.16-.4.16-.2 0-.38-.16t-.18-.4q0-.25.18-.4.18-.17.4-.17.2 0 .38.15.17.16.17.4zm-.16 7.64h-.78v-5.52h.78zM149.65 157q-.18-.35-.47-.55-.3-.2-.72-.2-.2 0-.4.04-.22.04-.38.14-.17.1-.27.25t-.1.37q0 .4.28.57.28.18.82.3l.8.2q.57.12.95.52.4.4.4.98 0 .45-.2.78-.18.32-.48.53-.3.2-.7.3-.38.1-.78.1-.65 0-1.2-.25-.55-.24-.94-.83l.68-.46q.23.4.6.6.35.24.85.24.22 0 .46-.06.24-.05.42-.16.18-.1.3-.3.1-.17.1-.4 0-.42-.3-.6t-.74-.3l-.76-.17-.38-.1q-.25-.1-.48-.26-.23-.18-.4-.44-.16-.27-.16-.66 0-.42.17-.74.18-.32.46-.52t.65-.3q.37-.1.76-.1.58 0 1.08.22.5.23.77.77zM154.02 156.4h-1.6v3.24q0 .3.06.5t.17.3q.1.1.25.15.15.04.33.04.2 0 .4-.06.22-.06.4-.16l.03.72q-.43.2-1.05.2-.2 0-.45-.05-.24-.07-.45-.24-.2-.16-.33-.45-.13-.27-.13-.73v-3.48h-1.16v-.72h1.16v-1.56h.78v1.56h1.6zM4.95 172.6h.93q.27 0 .5-.07.23-.05.4-.16.17-.1.26-.28.1-.18.1-.42 0-.47-.3-.7-.3-.23-.9-.23h-1zm0-2.26h.98q.18 0 .35-.05.17-.05.3-.15.15-.1.24-.26.1-.17.1-.4 0-.08-.04-.2-.04-.15-.14-.28-.1-.14-.3-.24-.2-.1-.56-.1h-.93zm-.5-2.1H5.9q.3 0 .57.06.27.06.5.2.2.14.34.37.14.24.14.57 0 .4-.22.68-.23.28-.63.37.5.05.78.36.3.32.3.85 0 .12-.07.35-.04.22-.23.44-.18.2-.53.37-.34.17-.92.17H4.46zM10.37 171.46h-.42q-.26.03-.5.1-.23.06-.4.2-.16.13-.16.37 0 .15.06.27.06.1.17.18.1.07.24.1.13.03.27.03.24 0 .42-.07.18-.08.3-.22.13-.13.18-.32.06-.18.06-.4v-.22zm.23-.37v-.1q0-.8-.8-.8-.57 0-.98.36l-.27-.32q.44-.46 1.34-.46.22 0 .43.07.22.07.37.2.16.15.25.36.1.22.1.5V172.73l.05.32h-.43l-.03-.25v-.28h-.03q-.18.32-.45.46t-.65.14q-.22 0-.4-.06-.2-.06-.36-.18-.15-.1-.24-.3-.1-.16-.1-.4 0-.38.2-.6.2-.22.5-.33.3-.1.65-.13.34-.03.63-.03zM12.63 173.04h-.44v-5.13h.43zM14.36 168.64q0 .15-.1.24-.1.1-.22.1-.13 0-.23-.1t-.1-.24q0-.14.1-.23.1-.08.24-.08.12 0 .22.1.1.08.1.22zm-.1 4.4h-.45v-3.18h.46zM15.76 169.86l.02.26v.25h.02q.07-.13.2-.23.1-.1.25-.2.14-.07.3-.1.16-.06.3-.06.62 0 .9.32.3.33.3.92v2.02h-.44v-1.76q0-.53-.17-.8-.2-.3-.68-.3l-.2.04q-.15.02-.32.15-.17.12-.3.36-.15.25-.15.68v1.64h-.44v-2.48-.32l-.04-.38zM19.76 168.64q0 .15-.1.24-.1.1-.23.1-.12 0-.22-.1t-.1-.24q0-.14.1-.23.1-.08.23-.08.12 0 .22.1.1.08.1.22zm-.1 4.4h-.45v-3.18h.45zM23.45 171.45q0-.26-.1-.5-.07-.22-.23-.4-.15-.16-.37-.26t-.5-.1q-.28 0-.5.1-.22.1-.37.26-.15.17-.24.4-.08.23-.08.5 0 .25.08.48.1.24.24.4.15.17.37.27t.5.1q.28 0 .5-.1.22-.1.37-.26.16-.16.24-.4.1-.23.1-.5zm.5 0q0 .36-.14.66-.1.32-.34.54-.22.23-.53.35-.3.12-.68.12-.37 0-.67-.13-.3-.13-.54-.36-.22-.22-.35-.53-.13-.3-.13-.65 0-.36.12-.66.12-.32.34-.54.23-.23.54-.35.3-.12.67-.12.37 0 .68.13.3.13.53.36.23.22.35.53.14.3.14.65zM25.18 169.86v.26q.02.12.02.25l.2-.23.26-.2q.14-.07.3-.1.16-.06.32-.06.6 0 .9.32.3.33.3.92v2.02H27v-1.76q0-.53-.18-.8-.18-.3-.68-.3l-.2.04q-.15.02-.32.15-.17.12-.3.36-.14.25-.14.68v1.64h-.45v-2.48-.32l-.03-.38zM33.3 171.45q0-.26-.1-.5-.07-.22-.23-.4-.15-.16-.37-.26t-.5-.1q-.28 0-.5.1-.24.1-.4.26-.18.17-.28.4-.1.23-.1.5 0 .25.1.48.1.24.27.4.16.17.4.27.22.1.5.1t.5-.1q.22-.1.37-.26.16-.16.24-.4.1-.23.1-.5zm-2.9-3.54h.45v2.5q.12-.17.27-.28.15-.12.3-.2.18-.07.35-.1.17-.04.33-.04.37 0 .68.13.3.13.53.36.23.22.36.53.13.3.13.65-.02.36-.14.66-.13.32-.35.54-.2.23-.52.35-.3.12-.68.12-.16 0-.33-.04-.17-.03-.34-.1-.16-.08-.3-.2-.16-.1-.27-.27v.54h-.46zM35.1 173.04h-.45v-5.13h.44zM38.9 171.45q0-.26-.1-.5-.08-.22-.24-.4-.15-.16-.37-.26-.23-.1-.5-.1-.3 0-.5.1-.23.1-.38.26-.15.17-.24.4-.08.23-.08.5 0 .25.08.48.1.24.24.4.15.17.37.27.2.1.5.1.27 0 .5-.1.2-.1.36-.26.16-.16.24-.4.1-.23.1-.5zm.48 0q0 .36-.13.66-.12.32-.35.54-.22.23-.53.35-.3.12-.68.12-.38 0-.7-.13-.3-.13-.52-.36-.22-.22-.35-.53-.12-.3-.12-.65 0-.36.13-.66.13-.32.35-.54.23-.23.54-.35.3-.12.67-.12.36 0 .67.13.3.13.53.36.23.22.35.53.13.3.13.65zM42.5 170.6q-.1-.17-.32-.3-.2-.1-.47-.1-.27-.02-.5.08-.2.1-.37.26-.15.17-.23.4-.1.24-.1.5.02.28.1.52.08.23.23.4.16.17.38.26.23.1.5.1t.48-.13q.2-.13.32-.3l.37.27q-.24.28-.54.4-.3.14-.62.15-.38 0-.7-.12-.3-.13-.52-.35-.22-.22-.34-.53-.1-.3-.1-.67 0-.36.1-.67.12-.3.34-.53.22-.22.53-.35.32-.12.7-.12.33 0 .63.14.3.13.54.4zM43.9 171.3l1.5-1.44h.67l-1.58 1.45 1.74 1.74h-.7l-1.64-1.67v1.67h-.44v-5.13h.44zM48.53 171.46h-.43q-.25.03-.5.1-.22.06-.38.2-.17.13-.17.37 0 .15.06.27.08.1.2.18.1.07.23.1t.26.03q.24 0 .42-.07.18-.08.3-.22.12-.13.18-.32.06-.18.06-.4v-.22zm.23-.37v-.1q0-.8-.82-.8-.55 0-.97.36l-.27-.32q.45-.46 1.34-.46.24 0 .45.07.2.07.36.2.15.15.25.36.1.22.1.5v1.42l.02.4.04.32h-.44l-.03-.25-.02-.28q-.2.32-.47.46-.26.14-.65.14-.2 0-.4-.06t-.35-.18q-.16-.1-.25-.3-.1-.16-.1-.4 0-.38.2-.6.2-.22.5-.33.3-.1.66-.13.35-.03.63-.03zM50.5 171.45q0 .26.1.5.08.23.24.4.15.16.37.26.23.1.5.1.28 0 .52-.1.23-.1.4-.26t.26-.4q.1-.23.1-.5 0-.25-.1-.48-.1-.23-.26-.4-.17-.17-.4-.27-.24-.1-.5-.1-.3 0-.5.1-.23.1-.38.26-.16.17-.24.4-.1.23-.1.5zm2.9 1.6h-.44v-.54h-.02q-.1.17-.25.3l-.32.18q-.17.07-.34.1-.17.04-.33.04-.36 0-.67-.13-.3-.13-.53-.36-.23-.22-.35-.53-.13-.3-.13-.65 0-.36.13-.66.12-.32.35-.54.22-.23.53-.35.3-.12.68-.12.17 0 .34.04.17.03.34.1.16.08.3.2.16.1.26.27h.02v-2.5h.45zM56.85 171.2q0-.45-.27-.73-.27-.28-.76-.28-.22 0-.42.07-.2.1-.36.23-.15.14-.24.33-.1.18-.1.38zm-2.16.37q0 .24.1.45.1.2.26.36.16.15.36.24.2.1.44.1.36 0 .62-.18.26-.16.4-.38l.34.3q-.28.35-.63.5-.35.16-.74.16-.35 0-.65-.13-.3-.13-.5-.36-.23-.22-.36-.53-.12-.3-.12-.65 0-.36.12-.66.12-.32.34-.54.22-.23.5-.35.3-.12.64-.12.36 0 .64.13.3.14.48.35.2.22.3.5.1.3.1.62v.2zM65.75 228.15h1.93l-.96-2.34zm-.66 1.58h-.54l1.94-4.45h.44l1.94 4.45h-.53l-.5-1.17H65.6zM68.96 227.7v-.4l-.03-.5h.4v.54h.02q.05-.12.13-.23.08-.1.2-.2.1-.08.27-.13.15-.06.35-.06.17 0 .3.05l-.08.4q-.08-.02-.23-.02-.25 0-.42.1-.17.08-.3.22-.1.14-.15.3-.06.17-.06.32v1.66h-.4zM72.62 227.48q-.1-.16-.3-.28-.2-.1-.44-.1-.26-.02-.46.07-.2.1-.35.25-.15.16-.22.37-.08.2-.08.46 0 .25.08.47.07.22.22.37.14.16.35.25.2.1.46.08.24 0 .44-.1.2-.12.3-.3l.34.27q-.22.26-.5.38t-.58.13q-.36.02-.65-.1-.3-.12-.5-.33-.2-.2-.3-.5-.1-.28-.1-.6 0-.34.1-.63.1-.28.3-.5.2-.2.5-.32.3-.1.65-.1.3 0 .58.12.28.13.5.38zM73.08 224.98h.42v2.28q.08-.12.2-.22.1-.1.23-.17t.28-.12q.15-.04.3-.04.57 0 .84.3t.27.86v1.87h-.4v-1.63q0-.5-.18-.75-.17-.26-.63-.26l-.18.02q-.15.02-.3.13-.17.12-.3.34-.12.22-.12.62v1.5h-.42zM78.7 228.26q0-.24-.1-.46-.07-.2-.22-.37-.14-.16-.35-.25-.2-.1-.46-.1t-.46.1q-.2.1-.34.25-.14.16-.22.37-.08.22-.08.46 0 .25.08.46.08.2.22.37.14.15.35.24.2.1.47.1.26 0 .46-.1t.35-.25q.15-.17.23-.38.1-.2.1-.46zm.44 0q0 .33-.12.62-.1.28-.32.5-.2.2-.5.3-.28.13-.63.13-.34 0-.62-.1-.3-.12-.5-.33-.2-.2-.32-.5-.12-.28-.12-.6 0-.34.13-.63.1-.28.32-.5.2-.2.5-.3.28-.13.62-.13.35 0 .63.13.3.12.5.32t.32.5q.12.28.12.6zM79.98 229.73h-.4v-4.75h.4zM81.17 225.66q0 .13-.1.2-.1.1-.2.1-.12 0-.2-.1-.1-.07-.1-.2 0-.14.1-.22.08-.1.2-.1.1 0 .2.1.1.08.1.22zm-.1 4.07h-.4v-2.94h.4zM83.78 229.73v-.23l-.02-.24q-.08.12-.2.22-.1.1-.22.18-.14.07-.28.1-.15.05-.3.05-.56 0-.83-.3-.27-.3-.27-.84v-1.87h.4v1.62q0 .24.05.43.05.2.14.32.1.13.24.2.16.06.4.06l.17-.02q.14-.02.3-.13.16-.12.3-.34.1-.23.1-.63v-1.5h.43V229.4l.03.33zM86.3 227.5q-.1-.2-.26-.3-.15-.1-.38-.1l-.22.02q-.1.02-.2.07-.08.05-.14.13-.05.08-.05.2 0 .2.14.3.14.1.43.17l.42.1q.3.07.5.28.22.2.22.52 0 .24-.1.42-.1.17-.26.28-.15.1-.36.16-.2.05-.42.05-.34 0-.63-.12-.3-.13-.5-.44l.35-.25q.12.2.32.3.2.13.45.13.13 0 .25-.03.13-.03.23-.08.1-.06.15-.16.06-.1.06-.22 0-.22-.15-.32-.16-.1-.4-.15l-.4-.1q-.07 0-.2-.06-.13-.03-.26-.12-.13-.1-.22-.23-.08-.14-.08-.35 0-.23.1-.4.08-.17.23-.27.16-.1.35-.16.2-.06.4-.06.3 0 .58.13.26.12.4.4zM89.9 229.73h-.45v-4.04h-1.5v-.42h3.45v.4h-1.5zM93.34 228.26q0-.24-.08-.46-.08-.2-.22-.37-.15-.16-.35-.25-.2-.1-.47-.1-.26 0-.46.1t-.35.25q-.14.16-.22.37-.08.22-.08.46 0 .25.08.46.08.2.22.37.14.15.35.24.2.1.46.1t.46-.1q.2-.1.34-.25.14-.17.22-.38.08-.2.08-.46zm.45 0q0 .33-.12.62-.12.28-.33.5-.2.2-.5.3-.28.13-.62.13-.34 0-.63-.1-.28-.12-.5-.33-.2-.2-.32-.5-.1-.28-.1-.6 0-.34.1-.63.12-.28.33-.5.22-.2.5-.3.3-.13.63-.13.34 0 .63.13.3.12.5.32t.32.5q.1.28.1.6zM94.26 226.8l.68 2.38.8-2.4h.42l.8 2.4.68-2.4h.5l-.94 2.95h-.46l-.8-2.4-.78 2.4h-.46l-.93-2.94zM100.54 228.03q0-.42-.25-.68-.26-.26-.7-.26-.2 0-.4.07-.2.08-.33.2-.14.14-.23.3-.08.18-.08.36zm-2 .34q.02.22.1.42.1.18.24.33.15.14.34.22.2.08.4.08.34 0 .58-.15.24-.16.37-.36l.32.27q-.27.32-.6.46-.3.15-.67.15-.33 0-.6-.1-.3-.12-.5-.33-.2-.2-.3-.5-.13-.28-.13-.6 0-.34.12-.63.1-.28.3-.5.2-.2.48-.3.27-.13.6-.13.32 0 .6.13.25.12.43.32t.27.47q.1.26.1.57v.17zM101.38 227.7v-.4l-.03-.5h.4v.54h.02q.05-.12.13-.23.08-.1.2-.2.1-.08.27-.13.15-.06.35-.06.17 0 .3.05l-.08.4q-.08-.02-.24-.02-.23 0-.4.1-.17.08-.3.22-.1.14-.15.3-.06.17-.06.32v1.66h-.42zM104.56 227.5q-.1-.2-.25-.3-.15-.1-.37-.1l-.22.02q-.1.02-.2.07-.08.05-.13.13t-.05.2q0 .2.14.3.15.1.44.17l.42.1q.3.07.5.28.2.2.2.52 0 .24-.08.42-.1.17-.26.28-.16.1-.37.16-.2.05-.4.05-.35 0-.64-.12-.3-.13-.5-.44l.36-.25q.12.2.3.3.2.13.47.13.12 0 .24-.03.13-.03.22-.08.1-.06.16-.16t.06-.22q0-.22-.16-.32-.17-.1-.4-.15l-.4-.1q-.08 0-.2-.06-.13-.03-.26-.12-.12-.1-.2-.23-.1-.14-.1-.35 0-.23.1-.4t.24-.27q.15-.1.35-.16.2-.06.4-.06.3 0 .57.13.27.12.4.4zM84.18 251.33h2.25l-1.12-2.72zm-.77 1.84h-.6l2.25-5.17h.52l2.25 5.17h-.62l-.57-1.36H84zM90.98 251.46q0-.28-.1-.53-.08-.25-.25-.43-.17-.18-.4-.3-.25-.1-.55-.1-.3 0-.54.1-.25.12-.44.3-.18.18-.28.43-.1.25-.1.53 0 .3.1.54.1.25.28.43.2.18.44.3.24.1.54.1.3 0 .54-.1.24-.12.4-.3.18-.2.27-.43.08-.25.08-.54zm-3.12-3.8h.48v2.66q.13-.17.3-.3.15-.12.33-.2.17-.08.36-.12.2-.04.35-.04.4 0 .74.14.33.13.57.38.24.24.37.57.14.32.14.7 0 .4-.13.73-.13.33-.38.57-.25.24-.58.38-.33.13-.74.13-.16 0-.35-.04-.2-.03-.36-.1-.18-.1-.34-.22-.16-.12-.28-.3v.57h-.5zM94.77 251.46q0-.28-.1-.53-.08-.25-.25-.43-.17-.18-.4-.3-.24-.1-.54-.1-.3 0-.54.1-.24.12-.4.3-.17.18-.26.43-.1.25-.1.53 0 .3.1.54.1.25.26.43t.4.3q.24.1.54.1.3 0 .53-.1.25-.12.42-.3.17-.2.26-.43.1-.25.1-.54zm.53 0q0 .4-.14.72-.13.33-.38.57-.24.24-.57.38-.32.13-.72.13-.4 0-.73-.13-.34-.14-.58-.38-.24-.24-.37-.57-.14-.33-.14-.72 0-.4.14-.7.13-.34.37-.58.24-.25.58-.38.33-.14.73-.14.4 0 .73.14.34.13.58.38.25.24.38.57.14.32.14.7zM97.5 250.56q-.1-.2-.3-.33-.18-.13-.44-.13-.12 0-.25.03-.12.03-.22.1-.1.05-.17.15-.05.1-.05.23 0 .26.17.36.17.1.5.2l.5.1q.35.1.6.34.23.24.23.6 0 .3-.1.5-.13.2-.3.32-.2.12-.44.18-.23.06-.48.06-.4 0-.74-.15-.34-.14-.58-.5l.42-.3q.14.24.37.38.2.14.52.14.14 0 .3-.03.14-.04.25-.1.1-.08.18-.2.07-.1.07-.25 0-.25-.2-.37-.18-.1-.45-.18l-.47-.1-.23-.08q-.15-.05-.3-.15-.14-.1-.24-.27-.1-.16-.1-.4 0-.27.1-.47.1-.2.3-.32.17-.1.4-.17.22-.07.46-.07.35 0 .66.14.3.14.47.48z"/><path d="M100.13 250.56q-.1-.2-.3-.33-.18-.13-.44-.13-.14 0-.26.03-.13.03-.23.1-.1.05-.16.15-.06.1-.06.23 0 .26.17.36.17.1.5.2l.5.1q.35.1.6.34.23.24.23.6 0 .3-.12.5-.1.2-.3.32-.18.12-.42.18-.25.06-.5.06-.4 0-.73-.15-.33-.14-.57-.5l.42-.3q.14.24.37.38.22.14.53.14.14 0 .3-.03.13-.04.25-.1.1-.08.18-.2.07-.1.07-.25 0-.25-.2-.37-.18-.1-.45-.18l-.47-.1-.24-.08q-.16-.05-.3-.15-.14-.1-.24-.27-.1-.16-.1-.4 0-.27.1-.47.1-.2.28-.32.18-.1.4-.17.24-.07.48-.07.36 0 .66.14.3.14.48.48zM101.64 248.44q0 .15-.1.25-.12.1-.25.1-.14 0-.25-.1-.1-.1-.1-.26t.1-.26q.1-.1.24-.1.12 0 .23.1.1.1.1.26zm-.1 4.73h-.5v-3.42h.5zM104.7 250.56q-.12-.2-.34-.33-.23-.13-.5-.13-.3 0-.55.1-.23.1-.4.28-.16.2-.25.44-.1.25-.1.54 0 .3.1.55.1.26.25.44.17.18.4.3.25.1.55.08.28 0 .5-.13.23-.14.35-.33l.4.3q-.26.3-.58.44-.32.15-.67.16-.42 0-.76-.13t-.58-.37q-.24-.24-.36-.58-.13-.33-.13-.72 0-.4.13-.72.12-.33.36-.57.24-.24.57-.38.33-.14.75-.14.35 0 .67.15.32.16.58.46zM107.72 253.17q-.02-.13-.02-.27v-.28h-.02q-.08.14-.2.26-.13.12-.28.2-.15.1-.33.13-.17.06-.34.06-.65 0-.97-.35-.3-.33-.3-.98v-2.17h.47v1.9q0 .28.04.5.05.22.15.37.1.15.3.23.17.07.44.07l.2-.03q.17-.04.36-.17.18-.13.33-.4.15-.25.15-.72v-1.75h.48v3.02l.04.4zM110.64 250.56q-.1-.2-.3-.33-.18-.13-.44-.13-.12 0-.25.03t-.23.1q-.1.05-.17.15-.06.1-.06.23 0 .26.16.36.17.1.5.2l.5.1q.35.1.6.34.23.24.23.6 0 .3-.13.5-.1.2-.3.32-.18.12-.42.18t-.5.06q-.4 0-.73-.15-.34-.14-.58-.5l.42-.3q.14.24.37.38.22.14.53.14.14 0 .3-.03.14-.04.25-.1.12-.08.2-.2.06-.1.06-.25 0-.25-.2-.37-.18-.1-.45-.18l-.46-.1-.24-.08q-.15-.05-.3-.15-.13-.1-.23-.27-.1-.16-.1-.4 0-.27.1-.47.1-.2.3-.32.16-.1.4-.17.22-.07.46-.07.36 0 .67.14.3.14.47.48zM117.44 252.36q-.13.2-.33.37-.18.17-.43.3-.25.13-.54.2-.3.08-.6.08-.6 0-1.08-.2-.5-.2-.86-.57-.37-.36-.57-.86-.2-.5-.2-1.1 0-.58.2-1.07.2-.5.56-.86.36-.37.85-.57.5-.2 1.07-.2.48 0 .97.18.47.2.8.63l-.45.35q-.08-.13-.22-.25-.14-.13-.3-.22-.2-.1-.4-.15-.2-.05-.4-.05-.5 0-.9.18t-.67.5q-.27.3-.42.7-.15.4-.15.86 0 .43.14.84.15.4.42.7.27.32.67.5t.9.18q.2 0 .4-.03.2-.05.4-.14.2-.1.36-.24.16-.15.3-.37zM118.36 248.44q0 .15-.1.25-.12.1-.25.1-.12 0-.23-.1-.1-.1-.1-.26t.1-.26q.1-.1.24-.1.14 0 .25.1.1.1.1.26zm-.1 4.73h-.5v-3.42h.5zM120.7 250.2h-1v2q0 .2.05.32.03.12.1.2.06.05.16.08l.2.02q.13 0 .26-.03l.24-.1.03.44q-.27.12-.65.12-.14 0-.3-.03-.14-.04-.27-.14-.1-.12-.2-.3-.07-.17-.07-.45v-2.16h-.73v-.45h.73v-.96h.48v.95h1z"/><path d="M122.14 252.58l1.05-2.83h.57l-1.7 4.32q-.16.4-.4.62-.24.23-.7.23h-.2l-.23-.05.05-.47q.14.1.36.1.25 0 .4-.17.14-.16.25-.45l.26-.66-1.4-3.47h.6zM171.58 80.05H174l-1.2-2.94zm-.83 2h-.66l2.42-5.6h.55l2.43 5.6h-.66l-.62-1.48h-2.86zM178.37 79.2q-.13-.2-.38-.34t-.55-.14q-.33 0-.6.1-.24.1-.42.3-.18.2-.28.48-.1.27-.1.6 0 .3.1.58.1.27.28.47.18.2.43.3.26.12.6.1.3 0 .53-.13.24-.15.37-.35l.43.32q-.28.32-.63.47-.35.15-.72.16-.45 0-.82-.14-.36-.15-.62-.4-.24-.27-.38-.63-.13-.36-.13-.78 0-.43.12-.8.14-.35.4-.6.25-.27.6-.4.38-.16.83-.15.37 0 .72.16t.63.5zM179.85 76.92q0 .17-.12.27t-.26.1q-.15 0-.26-.1-.1-.1-.1-.28 0-.17.1-.27.12-.1.27-.1.14 0 .26.1t.12.27zm-.12 5.12h-.52v-3.7h.53zM182.5 78.82h-1.07V81q0 .2.04.33t.1.2q.08.07.18.1.1.03.22.03.13 0 .28-.04.14-.04.26-.1l.03.48q-.3.13-.7.13-.15 0-.3-.04-.18-.05-.3-.16-.14-.1-.23-.3-.1-.2-.1-.5v-2.32h-.77v-.48h.78V77.3h.53v1.04h1.07zM185.48 82.04l-.02-.3v-.3q-.1.16-.24.28-.13.13-.3.22-.16.1-.35.14-.18.05-.36.05-.7 0-1.05-.37-.33-.38-.33-1.07v-2.36h.52v2.05q0 .3.04.53.05.24.17.4.1.16.3.25.2.08.5.08l.2-.03q.2-.03.4-.18.2-.14.35-.42.16-.3.16-.8v-1.9h.52v3.27l.04.44zM188.77 79.22q-.12-.23-.32-.37-.2-.13-.48-.13-.13 0-.27.03t-.25.1q-.1.07-.18.17-.06.1-.06.25 0 .26.2.38.17.12.53.2l.53.13q.4.1.65.36.26.26.26.66 0 .3-.12.5-.12.23-.32.37-.2.14-.47.2-.26.06-.53.06-.42 0-.8-.16-.36-.16-.62-.56l.45-.3q.16.26.4.4.24.16.57.16.16 0 .32-.04.16-.03.28-.1.12-.08.2-.2.07-.12.07-.28 0-.27-.2-.4-.22-.12-.5-.2l-.5-.1-.27-.1q-.16-.04-.32-.15-.14-.12-.25-.3-.1-.18-.1-.44 0-.28.1-.5.12-.2.3-.34.2-.14.45-.2.24-.07.5-.07.4 0 .72.15.33.15.52.5zM196.37 81.15q-.14.22-.35.4-.2.2-.47.33-.27.14-.58.22-.32.08-.66.08-.62 0-1.15-.22-.53-.22-.93-.6-.4-.4-.6-.94-.23-.54-.23-1.18 0-.64.2-1.17.23-.54.62-.93.4-.4.93-.6.53-.24 1.16-.24.53 0 1.05.2t.9.7l-.5.36q-.1-.13-.24-.27-.14-.14-.34-.25-.2-.1-.4-.16-.23-.07-.45-.07-.53 0-.96.2-.42.2-.72.52-.3.33-.45.77-.16.44-.16.92 0 .48.17.92.15.44.45.77.3.33.72.53.43.2.97.2.23 0 .44-.04.22-.04.43-.14.2-.1.4-.25.18-.16.34-.4zM199.9 80.2q0-.32-.1-.6-.08-.26-.27-.45-.18-.2-.43-.3-.26-.13-.6-.13-.3 0-.57.12-.25.1-.43.3-.18.2-.28.47-.1.28-.1.6 0 .3.1.57.1.26.28.46.18.2.43.3.26.13.58.13.34 0 .6-.12.25-.1.43-.3.2-.2.28-.47.1-.27.1-.58zm.58 0q0 .4-.14.76-.15.36-.4.62-.27.26-.63.4-.35.15-.8.15-.4 0-.77-.14-.36-.16-.62-.42-.25-.26-.4-.62-.14-.35-.14-.77 0-.43.14-.78.15-.36.4-.62.27-.26.63-.4.36-.15.78-.15.45 0 .8.14.37.14.63.4t.4.62q.15.35.15.77zM201.53 78.34l.02.3v.3h.02q.1-.16.22-.28.13-.13.3-.22.16-.1.34-.14.2-.05.37-.05.72 0 1.06.37.34.38.34 1.07v2.34h-.52V80q0-.62-.2-.95-.23-.33-.8-.33l-.22.03q-.2.03-.4.18-.2.14-.35.42-.14.3-.14.8v1.9h-.53v-2.9-.37l-.04-.44zM206.75 78.82h-.88v3.22h-.52v-3.22h-.78v-.48h.78v-1q0-.74.34-1.06.33-.3.9-.3h.22l.22.05-.1.47-.2-.04h-.2q-.2 0-.34.06-.14.07-.2.2-.08.13-.1.3-.02.18-.02.37v.94h.87zM207.6 82.04h-.5v-5.97h.5zM209.23 76.92q0 .17-.12.27-.1.1-.25.1-.14 0-.26-.1-.13-.1-.13-.28 0-.17.12-.27.1-.1.25-.1.14 0 .26.1.13.1.13.27zm-.12 5.12h-.5v-3.7h.5zM212.67 79.2q-.14-.2-.38-.34-.25-.14-.56-.14-.32 0-.58.1-.25.1-.44.3-.18.2-.27.48-.1.27-.1.6 0 .3.1.58.1.27.27.47.2.2.44.3.26.12.58.1.3 0 .55-.13.23-.15.37-.35l.42.32q-.28.32-.63.47-.35.15-.73.16-.45 0-.8-.14-.37-.15-.63-.4-.25-.27-.38-.63-.14-.36-.14-.78 0-.43.14-.8.13-.35.4-.6.25-.27.6-.4.37-.16.82-.15.38 0 .73.16t.62.5z"/><path d="M215.3 78.82h-1.07V81q0 .2.04.33t.1.2q.08.07.18.1.1.03.22.03.13 0 .27-.04.15-.04.26-.1l.03.48q-.3.13-.7.13-.16 0-.32-.04-.15-.05-.28-.16-.14-.1-.22-.3-.1-.2-.1-.5v-2.32h-.77v-.48h.78V77.3h.53v1.04h1.07zM215.5 27.02h3.28l-1.64-4zm-1.14 2.7h-.9l3.3-7.6h.76l3.3 7.6h-.9l-.84-2h-3.88zM225.24 25.9q-.18-.3-.5-.5-.33-.18-.75-.18-.45 0-.8.14-.35.15-.6.42-.24.27-.37.64t-.13.8q0 .42.13.8.13.36.38.63t.6.42q.35.15.8.14.4 0 .73-.18.33-.2.5-.48l.6.44q-.38.44-.85.65-.48.2-1 .22-.6 0-1.1-.2-.5-.18-.84-.54-.34-.34-.53-.83-.17-.5-.17-1.05 0-.57.18-1.06.2-.5.54-.84.35-.36.85-.55.48-.2 1.1-.2.5.02.98.23.47.2.84.65zM227.78 22.78q0 .22-.16.37-.16.14-.35.14-.2 0-.35-.15-.17-.15-.17-.37 0-.23.17-.37.16-.14.35-.14.2 0 .35.15.16.15.16.38zm-.16 6.94h-.7v-5h.7zM231.92 25.35h-1.45v2.96q0 .3.06.46.05.18.15.28.1.1.23.13.14.04.3.04.18 0 .38-.05t.35-.13l.03.65q-.4.18-.95.18-.2 0-.4-.05-.23-.06-.42-.2-.18-.16-.3-.4-.1-.27-.1-.7v-3.15h-1.08v-.64h1.07v-1.4h.7v1.4h1.45zM236.5 29.72l-.02-.4v-.4h-.03q-.1.2-.3.37-.18.17-.4.3-.23.1-.48.18-.25.07-.5.07-.96 0-1.42-.5-.47-.52-.47-1.46v-3.2h.7v2.78q0 .42.08.74.06.32.22.54.15.22.4.34.28.1.67.1l.3-.03q.25-.05.52-.24.28-.2.5-.58.2-.38.2-1.07V24.7h.7v3.92q0 .2.03.5l.04.6zM241.5 25.9q-.16-.32-.43-.5-.26-.18-.65-.18-.18 0-.37.04-.2.05-.34.14-.14.1-.23.23-.1.14-.1.34 0 .36.26.52.24.15.74.26l.7.18q.54.1.9.47.34.37.34.9 0 .42-.16.7-.17.3-.44.5-.27.18-.63.27-.35.08-.7.08-.6 0-1.1-.22-.5-.22-.84-.75l.6-.42q.22.34.55.54.33.2.78.2.2 0 .42-.04.22-.05.38-.15.17-.1.27-.25.1-.16.1-.38 0-.37-.27-.54-.28-.16-.68-.26l-.7-.16-.33-.1q-.22-.08-.43-.22-.2-.16-.36-.4-.15-.24-.15-.6 0-.38.16-.67.16-.27.42-.46.26-.18.6-.27.33-.1.68-.1.53 0 .98.2.45.2.7.7zM247.42 29.02h1.48q.42 0 .78-.1.36-.08.63-.25.28-.18.44-.45.15-.27.15-.64 0-.75-.5-1.12-.47-.36-1.4-.36h-1.58zm0-3.56h1.55q.28 0 .55-.07.28-.08.5-.24.22-.16.36-.42.14-.25.14-.6 0-.13-.05-.34-.05-.22-.22-.43-.16-.22-.48-.37-.33-.16-.87-.16h-1.48zm-.77-3.33h2.26q.48 0 .92.1.44.1.78.32.35.23.55.6.2.36.2.9 0 .6-.35 1.06-.34.45-1 .6v.02q.82.07 1.27.57.46.5.46 1.32 0 .18-.1.54-.08.35-.37.7-.3.35-.84.6-.55.26-1.46.26h-2.3zM253.22 26.27l-.02-.67-.03-.9h.7v.94h.02q.07-.2.2-.4.15-.18.34-.33.2-.14.47-.23.27-.1.6-.1.3 0 .53.07l-.14.7q-.15-.06-.42-.06-.4 0-.7.16-.3.16-.48.4-.2.24-.28.52-.1.28-.1.53v2.82h-.7zM257.73 22.78q0 .22-.16.37-.16.14-.36.14-.18 0-.34-.15-.16-.15-.16-.37 0-.23.16-.37.16-.14.35-.14.2 0 .37.15.16.15.16.38zm-.16 6.94h-.7v-5h.7zM259.7 27.22q0 .4.14.78.13.36.38.63.24.27.6.42.34.16.78.16.43 0 .8-.15.37-.15.63-.42.27-.27.42-.63.15-.37.15-.78 0-.42-.15-.8-.15-.35-.42-.62-.26-.27-.63-.42-.37-.16-.8-.16-.44 0-.8.16-.34.15-.58.42-.25.27-.38.63-.14.37-.14.8zm4.58 2.5h-.7v-.83h-.03q-.17.24-.4.43-.24.18-.5.3-.26.1-.53.17-.28.05-.52.05-.6 0-1.08-.2-.5-.2-.84-.55-.35-.35-.55-.84-.2-.48-.2-1.04 0-.57.2-1.06.2-.48.55-.83.35-.36.84-.55.5-.2 1.08-.2.24 0 .52.05.27.06.53.17.26.12.5.3.23.18.4.44h.02v-3.92h.7zM266.33 27.15q0 .4.15.74.14.34.4.6.25.27.6.42.32.16.72.16.4 0 .73-.14.35-.14.62-.4.27-.24.4-.6.16-.35.15-.8 0-.4-.13-.73-.13-.34-.38-.6-.25-.27-.6-.42-.36-.16-.8-.16-.4 0-.73.16-.34.15-.6.4-.24.28-.4.63-.14.35-.14.75zm-.12 3.58q.32.42.82.67.5.25 1.1.25.54 0 .92-.15.37-.16.6-.43.23-.26.33-.62t.1-.77v-.9h-.02q-.34.5-.83.73-.5.22-1.04.22-.55 0-1.03-.2-.47-.18-.83-.52-.35-.34-.55-.8-.2-.48-.2-1.03t.2-1.02q.18-.47.52-.82.32-.36.8-.55.46-.2 1-.2.24 0 .5.04.24.04.5.15.25.1.5.3.24.18.45.47h.03v-.83h.7v4.98q0 .4-.1.87-.1.46-.4.84-.3.38-.82.64t-1.37.26q-.76 0-1.35-.25-.6-.25-1.07-.76zM276.27 26.83q0-.72-.43-1.16-.43-.45-1.2-.45-.34 0-.66.14-.32.13-.57.35-.23.24-.37.53-.15.3-.15.6zm-3.4.58q.02.38.17.7.15.35.4.6.25.23.57.37.33.14.7.14.57 0 1-.26.4-.26.6-.6l.56.45q-.45.56-1 .8-.53.25-1.15.25-.55 0-1.03-.2-.47-.2-.82-.55-.34-.35-.54-.84-.2-.48-.2-1.04 0-.57.2-1.06.2-.48.54-.83.34-.36.8-.55.47-.2 1-.2.57 0 1.02.2.45.2.76.54.3.34.46.8.16.45.16.97v.3z"/><path d="M74.02 216.97h4.84v-22.8h-4.84v22.8z" fill="#fe60df"/><path d="M74.02 220.3v-3.9h4.84v3.9h-4.84z" fill="#020201"/><path d="M78.03 220.3h-3.18v-3.2h3.18v3.2z" fill="#ff44db"/><path d="M78.86 194.17v22.8h-4.84v-22.8h4.84zm-.95 22.07h.77v-3.56h-.76v3.56zm0-4.4h.77v-3.6h-.76v3.6zm0-4.43h.77v-3.55h-.76v3.56zm0-4.4h.77v-3.55h-.76V203zm0-4.4h.77v-3.55h-.76v3.55zM77 216.24h.76v-3.56h-.76v3.56zm0-4.4h.76v-3.6h-.76v3.6zm0-4.43h.76v-3.55h-.76v3.56zm0-4.4h.76v-3.55h-.76V203zm0-4.4h.76v-3.55h-.76v3.55zm-.93 17.64h.77v-3.56h-.77v3.56zm0-4.4h.77v-3.6h-.77v3.6zm0-4.43h.77v-3.55h-.77v3.56zm0-4.4h.77v-3.55h-.77V203zm0-4.4h.77v-3.55h-.77v3.55zm-.92 17.64h.76v-3.56h-.77v3.56zm0-4.4h.76v-3.6h-.77v3.6zm0-4.43h.76v-3.55h-.77v3.56zm0-4.4h.76v-3.55h-.77V203zm0-4.4h.76v-3.55h-.77v3.55zm-.93 17.64h.76v-3.56h-.76v3.56zm0-4.4h.76v-3.6h-.76v3.6zm0-4.43h.76v-3.55h-.76v3.56zm0-4.4h.76v-3.55h-.76V203zm0-4.4h.76v-3.55h-.76v3.55z" fill="#020201"/><path d="M74.5 216.4v3.9h1.02v-1.97c0-.5.4-.9.9-.9s.9.4.9.9v1.96h1.04v-3.9H74.5z" fill="#020201"/><path d="M82.38 216.97h4.84v-22.8h-4.84v22.8z" fill="#fe60df"/><path d="M82.38 220.3v-3.9h4.84v3.9h-4.84z" fill="#020201"/><path d="M86.4 220.3h-3.2v-3.2h3.2v3.2z" fill="#ff44db"/><path d="M87.22 194.17v22.8h-4.84v-22.8h4.84zm-.95 22.07h.76v-3.56h-.76v3.56zm0-4.4h.76v-3.6h-.76v3.6zm0-4.43h.76v-3.55h-.76v3.56zm0-4.4h.76v-3.55h-.76V203zm0-4.4h.76v-3.55h-.76v3.55zm-.93 17.64h.76v-3.56h-.76v3.56zm0-4.4h.76v-3.6h-.76v3.6zm0-4.43h.76v-3.55h-.76v3.56zm0-4.4h.76v-3.55h-.76V203zm0-4.4h.76v-3.55h-.76v3.55zm-.93 17.64h.78v-3.56h-.77v3.56zm0-4.4h.78v-3.6h-.77v3.6zm0-4.43h.78v-3.55h-.77v3.56zm0-4.4h.78v-3.55h-.77V203zm0-4.4h.78v-3.55h-.77v3.55zm-.9 17.64h.75v-3.56h-.76v3.56zm0-4.4h.75v-3.6h-.76v3.6zm0-4.43h.75v-3.55h-.76v3.56zm0-4.4h.75v-3.55h-.76V203zm0-4.4h.75v-3.55h-.76v3.55zm-.94 17.64h.76v-3.56h-.76v3.56zm0-4.4h.76v-3.6h-.76v3.6zm0-4.43h.76v-3.55h-.76v3.56zm0-4.4h.76v-3.55h-.76V203zm0-4.4h.76v-3.55h-.76v3.55z" fill="#020201"/><path d="M82.85 216.4v3.9h1.03v-1.97c0-.5.4-.9.9-.9s.9.4.9.9v1.96h1.04v-3.9h-3.87z" fill="#020201"/><path d="M140.5 110.24h4.08l-2.04-4.95zm-1.4 3.36h-1.13l4.1-9.43h.94l4.1 9.43H146l-1.05-2.48h-4.82zM151.37 108.84q-.2-.38-.53-.6-.33-.24-.8-.24-.24 0-.47.06-.24.05-.42.16-.2.12-.3.3-.12.16-.12.4 0 .45.3.65.32.2.93.35l.9.2q.64.16 1.08.6.43.45.43 1.12 0 .5-.2.87-.2.38-.55.6-.34.24-.78.35-.44.1-.9.1-.7 0-1.33-.27-.6-.27-1.05-.94l.76-.52q.27.43.68.68.4.26.97.26.26 0 .53-.06t.47-.2q.2-.12.33-.32t.13-.46q0-.47-.34-.67-.34-.2-.83-.33l-.86-.2-.43-.13q-.27-.1-.53-.3-.25-.18-.44-.48-.18-.3-.18-.74 0-.48.2-.84.18-.36.5-.58.33-.23.75-.34.4-.12.85-.12.65 0 1.2.26.57.25.88.86zM158.28 108.83q-.22-.35-.63-.6-.4-.23-.93-.23-.54 0-.97.18-.44.18-.74.52-.3.33-.46.8-.16.45-.16.98t.16 1q.16.45.47.78.3.34.75.52.43.2.97.18.52 0 .93-.24.4-.24.63-.6l.72.56q-.46.54-1.05.8-.6.26-1.23.28-.75 0-1.37-.24-.6-.24-1.04-.68-.43-.44-.65-1.05-.23-.6-.23-1.32 0-.7.23-1.3.22-.62.66-1.06.44-.44 1.05-.68.62-.25 1.37-.24.64.02 1.23.28.6.26 1.05.8zM165.5 110.48q0-.52-.17-.97-.16-.45-.47-.78-.3-.33-.74-.52-.43-.2-.98-.2-.54 0-.97.2-.44.2-.74.52-.3.33-.46.8-.17.44-.17.96t.17.97q.16.45.46.8.3.32.74.5.43.2.97.2.55 0 .98-.2.44-.18.74-.5.3-.35.47-.8.17-.45.17-.97zm.96 0q0 .7-.25 1.3-.23.6-.67 1.04-.44.44-1.05.7-.6.24-1.34.24-.72 0-1.32-.25-.6-.24-1.05-.68-.44-.44-.68-1.04-.26-.6-.26-1.3 0-.7.25-1.3.23-.6.67-1.04.44-.44 1.05-.7.6-.24 1.32-.24.74 0 1.34.25.6.25 1.05.7.44.43.68 1.02.26.6.26 1.3zM168.32 107.36l1.44 5.06h.03l1.65-5.06h.9l1.67 5.06h.03l1.44-5.06h1.03l-1.97 6.24h-1l-1.64-5.12h-.03l-1.66 5.12h-.98l-1.97-6.24z"/></svg>