<?xml version="1.0" encoding="utf-8" ?>
<svg version="1.1" xmlns="http://www.w3.org/2000/svg" xmlns:xlink="http://www.w3.org/1999/xlink" width="300" height="168.75" viewBox="0 0 300 168.75">
	<rect x="0" y="0" width="300" height="168.75" fill="#343838" />
	<g transform="matrix(1,0,0,1,150,84.375)">
		<path d="M121.781,-7.6378 C121.597,-7.64056 121.412,-7.6315 121.226,-7.60983 C120.787,-7.5529 120.579,-7.70844 120.374,-8.06276 C120.029,-8.72938 118.345,-11.5764 117.987,-12.1964 L117.668,-12.0122 L117.646,-12.05 C118.36,-12.6884 118.81,-13.6084 118.81,-14.6411 C118.81,-16.5374 117.271,-18.077 115.374,-18.077 C113.478,-18.077 111.938,-16.5374 111.938,-14.6411 C111.938,-12.7822 113.422,-11.2614 115.262,-11.2051 L118.421,-5.79628 C118.052,-5.19515 117.829,-4.53 117.76,-3.86123 C117.637,-3.50558 117.571,-3.122 117.571,-2.71834 C117.571,-1.30606 118.425,-0.0916268 119.644,0.436354 C118.726,3.95601 117.791,7.44621 116.856,10.9364 C116.75,10.958 116.674,10.9626 116.598,10.9672 C115.922,11.1605 115.599,10.8743 115.258,10.2838 C114.095,8.19993 112.855,6.1206 111.644,4.02423 C111.457,3.69944 111.49,3.48362 111.7,3.16552 C112.658,1.82492 112.893,0.390282 112.281,-1.14631 C111.939,-2.01171 111.282,-2.26252 110.456,-1.78521 C108.773,-0.813523 107.09,0.158158 105.407,1.12984 C104.58,1.60716 104.447,2.19557 105.013,2.97116 C105.979,4.30319 107.356,4.84682 108.966,4.70432 C109.406,4.64739 109.609,4.72683 109.831,5.11067 C111.046,7.28314 112.307,9.4681 113.598,11.636 C113.786,11.9608 113.8,12.1891 113.56,12.5242 C112.286,14.2046 112.398,16.5807 113.762,17.9194 C115.24,19.3887 117.651,19.6106 119.261,18.4447 C121.15,17.0788 121.819,13.4643 119.257,11.7546 C119.13,11.6706 119.02,11.6161 118.875,11.5025 C119.824,7.96297 120.76,4.46997 121.725,0.959914 C121.763,0.820194 121.982,0.654292 122.134,0.645156 C125.208,0.4454 126.563,-2.93529 125.601,-5.21461 C125.341,-5.86821 124.851,-6.43892 124.229,-6.86208 L126.771,-11.2051 C126.94,-11.1863 127.09,-11.1675 127.259,-11.1675 C129.156,-11.1675 130.695,-12.7071 130.695,-14.6035 C130.695,-16.4999 129.156,-18.0395 127.259,-18.0395 C125.363,-18.0395 123.823,-16.5186 123.823,-14.6223 C123.823,-13.7961 124.124,-13.0263 124.612,-12.4443 L121.781,-7.6378 L121.781,-7.6378 Z M31.8304,1.59173 L37.4559,1.59173 L37.4559,-4.48017 C37.4559,-5.06057 37.9023,-5.46239 38.4381,-5.46239 C38.9739,-5.46239 39.4203,-5.01593 39.4203,-4.48017 L39.4203,1.59173 L52.4124,1.59173 L52.4124,-4.48017 C52.4124,-5.06057 52.8589,-5.46239 53.3946,-5.46239 C53.9304,-5.46239 54.3768,-5.01593 54.3768,-4.48017 L54.3768,1.59173 L60.8952,1.59173 C61.4756,1.59173 61.9221,0.966681 61.6988,0.386279 L54.7787,-16.1329 C54.6447,-16.4454 54.3322,-16.6686 53.975,-16.6686 L38.8846,-16.6686 C38.5274,-16.6686 38.2595,-16.49 38.0809,-16.1329 L31.0715,0.386279 C30.8482,0.966681 31.25,1.59173 31.8304,1.59173 Z M66.0295,18.2448 L60.8952,9.98524 C61.9221,9.62807 62.6811,8.64585 62.6811,7.48505 C62.6811,6.01172 61.4756,4.80627 60.0023,4.80627 L51.0284,4.80627 C49.555,4.80627 48.3496,6.01172 48.3496,7.48505 C48.3496,8.73514 49.1979,9.76201 50.3587,10.0299 L50.3587,18.2448 L66.0295,18.2448 Z M41.0276,4.80627 L32.0537,4.80627 C30.5803,4.80627 29.3749,6.01172 29.3749,7.48505 C29.3749,8.64585 30.1339,9.62807 31.1608,9.98524 L26.0264,18.2895 L41.6973,18.2895 L41.6973,10.0299 C42.8581,9.76201 43.7064,8.6905 43.7064,7.48505 C43.7064,5.96707 42.5009,4.80627 41.0276,4.80627 Z M-9.91097,-12.3215 C-13.0572,-15.5027 -17.427,-17.4604 -22.2512,-17.4604 C-31.8996,-17.4604 -39.6952,-9.62978 -39.6952,0.0186565 C-39.6952,9.66709 -31.8996,17.4977 -22.2512,17.4977 C-14.1059,17.4977 -7.28911,11.9394 -5.36642,4.38842 L-9.91097,4.38842 C-11.6938,9.4923 -16.553,13.1279 -22.2512,13.1279 C-29.4875,13.1279 -35.3604,7.25498 -35.3604,0.0186565 C-35.3604,-7.21767 -29.4875,-13.0906 -22.2512,-13.0906 C-18.6155,-13.0906 -15.3994,-11.5874 -13.0222,-9.21027 L-20.0838,-2.14875 L-4.77213,-2.14875 L-4.77213,-17.4604 L-9.91097,-12.3215 Z M3.10253,0.480673 C1.31093,1.22353 0.0436969,2.97144 0,5.02522 C0,7.03531 1.17984,8.73952 2.88404,9.48238 L5.5059,17.479 L12.0605,17.479 L8.87061,7.82187 C9.43868,7.03531 9.74456,6.07397 9.74456,5.02522 C9.74456,4.02018 9.43868,3.10253 8.91431,2.31597 L11.4051,-3.6269 L19.4454,-1.04874 C19.8824,-0.917649 20.2757,-0.830255 20.7127,-0.830255 C22.5043,-0.830255 24.0774,-2.01009 24.6454,-3.7143 L25.8253,-7.38489 C26.5244,-9.56977 25.3446,-11.8857 23.1597,-12.5849 L8.73952,-17.2169 C8.17145,-17.3916 7.60338,-17.479 6.99162,-17.479 C4.54455,-17.479 2.35967,-15.9059 1.57311,-13.5463 L1.52942,-13.4589 C1.44202,-13.153 1.35462,-12.8908 1.26723,-12.5849 C0.480673,-9.65717 2.18488,-6.59834 5.06892,-5.68069 L5.59329,-5.5059 L3.10253,0.480673 Z M-122.094,-5.31459 L-122.094,-5.31459 C-126.448,-4.74026 -129.808,-1.01418 -129.808,3.49679 C-129.808,8.0143 -126.438,11.7446 -122.075,12.3106 L-122.048,37.3198 C-118.781,39.2504 -114.994,40.3643 -110.91,40.3643 C-98.9545,40.3643 -89.3014,30.6369 -89.3014,18.6819 C-89.3014,9.62281 -94.8705,1.82607 -102.741,-1.36688 C-98.7317,-4.70835 -96.3556,-9.60916 -96.3556,-15.1783 C-96.3556,-25.2027 -104.449,-33.3707 -114.548,-33.3707 C-117.221,-33.3707 -119.82,-32.8509 -122.122,-31.7371 L-122.094,-5.31459 Z M-125.048,13.3097 L-127.07,18.8679 L-126.128,19.2105 L-124.106,13.6523 L-125.048,13.3097 Z M-128.201,11.3493 L-131.981,15.8547 L-131.213,16.4989 L-127.433,11.9936 L-128.201,11.3493 Z M-129.926,9.24803 L-130.427,8.37993 L-135.549,11.3371 L-135.048,12.2052 L-129.926,9.24803 Z M-131.387,5.86705 L-131.561,4.87986 L-137.353,5.90078 L-137.179,6.88797 L-131.387,5.86705 Z M-131.531,2.11808 L-131.357,1.1309 L-137.182,0.103582 L-137.356,1.09077 L-131.531,2.11808 Z M-130.35,-1.40977 L-129.849,-2.27787 L-134.971,-5.23502 L-135.472,-4.36692 L-130.35,-1.40977 Z M-128.228,-4.35843 L-127.46,-5.00279 L-131.241,-9.50755 L-132.008,-8.86319 L-128.228,-4.35843 Z M-125.075,-6.33855 L-124.133,-6.68138 L-126.156,-12.239 L-127.098,-11.8962 L-125.075,-6.33855 Z M81.1899,-6.6844 L85.9278,-6.64356 C86.3362,-6.64356 86.7447,-6.80693 87.051,-7.11326 L91.5846,-11.6469 C92.2177,-12.28 92.2177,-13.3011 91.5846,-13.9341 L87.051,-18.4678 C86.4179,-19.1009 85.3968,-19.1009 84.7637,-18.4678 C74.124,-7.82802 74.1035,9.42843 84.7637,20.0886 C85.3968,20.7217 86.4179,20.7217 87.051,20.0886 L91.5846,15.555 C92.2177,14.9219 92.2177,13.9008 91.5846,13.2677 L87.051,8.73409 C86.7447,8.42777 86.3362,8.26438 85.9278,8.26438 L81.1899,8.26439 C79.6174,3.42441 79.6174,-1.84442 81.1899,-6.6844 Z M-47.2541,-1.89446 L-44.096,-3.8495 C-44.5973,-6.15544 -45.4996,-8.36113 -46.803,-10.4164 L-50.4123,-9.56423 C-51.4149,-10.8676 -52.5678,-12.0707 -53.9213,-13.0733 L-53.0691,-16.7327 C-55.1244,-18.0361 -57.3301,-18.9384 -59.6361,-19.4397 L-61.5911,-16.2815 C-63.2454,-16.5322 -64.9498,-16.5322 -66.5539,-16.2815 L-68.5089,-19.4898 C-70.8149,-18.9885 -73.0206,-18.0862 -75.0759,-16.7828 L-74.2237,-13.1735 C-75.527,-12.1709 -76.7301,-11.018 -77.7327,-9.66449 L-81.3921,-10.4666 C-82.6955,-8.41125 -83.5978,-6.20557 -84.0991,-3.89963 L-80.941,-1.94459 C-81.1916,-0.290322 -81.1916,1.41407 -80.941,3.01821 L-84.0991,4.97325 C-83.5978,7.27919 -82.6955,9.48488 -81.3921,11.5402 L-77.7828,10.688 C-76.7803,11.9913 -75.6273,13.1944 -74.2738,14.197 L-75.126,17.8565 C-73.0707,19.1598 -70.865,20.0621 -68.5591,20.5634 L-66.604,17.4053 C-64.9498,17.6559 -63.2454,17.6559 -61.6412,17.4053 L-59.6862,20.5634 C-57.3802,20.0621 -55.1746,19.1598 -53.1193,17.8565 L-53.9715,14.2472 C-52.6681,13.2446 -51.465,12.0916 -50.4624,10.7381 L-46.8531,11.5903 C-45.5497,9.53501 -44.6474,7.32932 -44.1461,5.02338 L-47.2541,3.06834 C-47.0035,1.41407 -47.0035,-0.290322 -47.2541,-1.89446 Z M-57.2299,3.41924 C-58.834,7.22906 -63.1952,9.03371 -66.9549,7.42958 C-70.7647,5.82544 -72.5694,1.4642 -70.9653,-2.29549 C-69.4113,-6.10531 -64.9999,-7.90996 -61.2402,-6.30583 C-57.4304,-4.75182 -55.6257,-0.390581 -57.2299,3.41924 Z" fill="#008c9f" />
	</g>
</svg>