<svg xmlns="http://www.w3.org/2000/svg" width="300" height="200" viewBox="0 0 300 200"><path d="M138.6 189.6c-14-1.8-27-8.2-36.6-18-5.4-5.3-8.7-9.8-12-16.4-4-8-6-15.4-6.6-23.8-1-14.8 2.6-27.7 10.5-39.6 6.2-9.4 16.2-18 26-22.3l3-1.3V48l9.2-.2h9.4l.4-3c1.3-8 4-15 8.6-20.8 6.5-8.5 15.8-13.7 24.4-13.7 2 0 2.6 0 3.4 1 .7.5 1 1.4 1 2 0 2.8-1.4 3.8-5.7 4.2-1.5 0-3.7.5-5 1-4.7 1.8-10.3 6.4-13.6 11-3 4.5-5.6 11.7-6 16v2.2h10.3l10.3.2v20l3 1.5c9.4 4.2 19 12 25 20.4 14 19.8 15.8 45.2 4.5 66.5-3 6-5.6 9.3-11 14.8-9 9-18.5 14.3-31 17.2-3.7 1-5.4 1-12.2 1.2h-9.2z" fill="#555"/></svg>