<svg version="1" xmlns="http://www.w3.org/2000/svg" width="540" height="596" viewBox="0 0 5400 5960"><path d="M2410 5013c-354-46-686-208-935-458-137-136-220-251-306-420-101-202-154-393-167-607-23-376 65-706 268-1010 159-238 414-455 668-568l72-33v-517l237-2 238-3 11-75c32-205 104-379 219-530 167-217 402-349 623-350 54 0 67 4 87 25 16 15 25 36 25 55 0 68-37 94-145 103-39 3-96 15-128 27-119 45-262 162-346 284-77 112-146 294-153 406l-3 55 263 3 262 2v515l77 34c239 108 483 309 635 522 361 507 406 1154 116 1699-81 152-144 236-283 375-232 234-470 366-790 441-95 22-137 26-310 29-110 2-216 1-235-2z" fill="#5c5c5c"/></svg>