<?xml version="1.0" encoding="utf-8" ?>
<svg version="1.1" xmlns="http://www.w3.org/2000/svg" xmlns:xlink="http://www.w3.org/1999/xlink" width="300" height="168.75" viewBox="0 0 300 168.75">
	<g transform="matrix(1,0,0,1,150,84.375)">
		<path d="M46.4105,46.4131 L46.4105,46.4131 C42.7381,50.2443 38.5775,53.6484 33.9875,56.5407 C19.6062,65.6116 2.72095,68.8308 -13.8744,65.6316 C-16.1582,65.1914 -18.442,64.7511 -20.667,64.0063 C-30.3579,61.0328 -39.0288,56.0452 -46.3754,49.1021 L-48.3382,51.0924 C-40.7458,58.3987 -31.6474,63.6266 -21.4998,66.6882 C-19.2454,67.2807 -16.6865,67.9319 -14.4027,68.3721 C2.80164,71.6887 20.4775,68.464 35.4036,59.0245 C40.1897,56.0003 44.549,52.428 48.4033,48.4058 L49.0663,49.0689 C76.2406,21.8946 76.2406,-22.028 49.0663,-49.2024 C21.892,-76.3767 -21.9197,-76.4876 -49.094,-49.3133 C-62.8244,-35.583 -69.5889,-17.6052 -69.4448,0.327776 C-69.4595,2.12214 -69.4023,3.91053 -69.2716,5.68479 L-69.196,5.68266 C-67.859,21.4096 -61.1823,36.7711 -49.2049,48.8471 L-49.5377,49.1798 L-44.4356,44.0777 C-68.9479,19.5653 -68.6152,-20.0316 -44.4356,-44.2112 C-19.9232,-68.7235 19.6737,-68.3908 43.8533,-44.2112 C68.2547,-19.8097 68.2547,19.6762 43.9642,43.9668 L46.4105,46.4131 Z M-19.2358,-46.3003 C-25.0003,-43.8548 -30.4054,-40.273 -35.1187,-35.5598 L-35.3405,-35.1161 L-39.3335,-39.1091 C-17.4831,-60.9594 17.5663,-60.5158 38.973,-39.1091 C60.3797,-17.7023 60.3797,17.5688 38.8621,39.0865 C17.3444,60.6041 -17.9267,60.6041 -39.4444,39.3083 L-35.2296,35.0935 C-20.1342,50.1889 1.91236,53.4805 20.1699,45.3212 L19.8557,44.6578 C24.4012,42.3758 28.5781,39.5491 32.2633,35.996 L33.1304,36.9312 C33.8729,36.2703 34.6007,35.5837 35.3128,34.8717 C54.8339,15.3505 55.0558,-15.9277 35.4237,-35.5598 C27.7262,-43.2572 18.2213,-47.9196 8.33295,-49.5669 L7.55121,-45.5117 C-1.1271,-47.1846 -9.94116,-46.5151 -18.1297,-43.3564 L-19.2358,-46.3003 Z M27.2159,-27.352 C42.0786,-12.4893 42.0786,11.9121 27.2159,26.7748 C12.1314,41.8594 -12.0482,41.6375 -26.9109,26.7748 C-41.7736,11.9121 -41.7736,-12.4893 -26.9109,-27.352 L-30.1275,-30.5686 C-46.7648,-13.9312 -46.8757,13.0213 -30.1275,29.7696 C-13.4901,46.4069 13.3515,46.4069 30.0997,29.6587 C46.848,12.9104 47.0698,-13.7094 30.3216,-30.4576 L27.2159,-27.352 Z M19.5627,19.3435 C8.80393,30.1023 -8.72074,30.1023 -19.4796,19.3435 C-30.4602,8.36284 -30.2384,-8.94 -19.4796,-19.6988 C-8.72074,-30.4576 8.80393,-30.4576 19.5627,-19.6988 L21.7811,-21.9171 C9.80217,-33.896 -9.71898,-33.896 -21.6979,-21.9171 C-33.6768,-9.93823 -33.8986,9.58291 -21.8088,21.6727 C-9.71898,33.7625 9.80217,33.5407 21.7811,21.5618 L19.5627,19.3435 Z M-35.9012,29.172 C-39.7056,24.3329 -42.602,18.8794 -44.4675,12.9929 C-45.5902,8.98671 -46.0744,4.94563 -46.0726,0.840357 C-46.0304,-1.83596 -45.8066,-4.63518 -45.2783,-7.37571 C-44.1629,-13.1612 -42.0112,-18.5891 -38.7002,-23.4776 L-48.0499,-29.8594 C-52.2047,-23.8702 -54.9544,-16.9786 -56.3632,-9.67052 C-57.0089,-6.32099 -57.3795,-2.76052 -57.4162,0.706406 C-57.2896,5.78389 -56.7063,10.9494 -55.3031,15.9572 C-53.1221,23.4836 -49.6992,30.3019 -44.7006,36.3186 L-35.9012,29.172 Z M48.3855,10.5224 C49.5302,4.58462 49.732,-1.37702 48.8093,-7.23961 C47.7289,-13.9222 45.3424,-20.3828 41.7141,-26.1353 C36.8861,-33.8561 30.0312,-40.0727 22.0041,-44.3046 L21.2832,-43.0224 C29.158,-38.8199 35.7378,-32.8142 40.4429,-25.275 C43.919,-19.5518 46.2119,-13.4251 47.3216,-6.89477 C48.303,-1.33667 48.1306,4.47272 47.0152,10.2583 L48.3855,10.5224 Z" fill="#000" />
	</g>
</svg>