<svg xmlns="http://www.w3.org/2000/svg" width="300" height="168.8"><path d="M121 59l-.5-3.4C59.5 63 10.8 76.4 12 85.6l22-2.5c-1-7.4 38-18.2 87-24zm25.7 15l-.8-3.4C86.2 85.6 39.6 105 42 114l21.6-5.3C61.8 101.5 99 86 146.6 74zm-12 12l-1.5-3c-54 29.3-94 60-89.7 68L63 140.6c-3.5-6.6 28.6-31 71.8-54.6z" fill="#666"/><path d="M178.2 53.8c-1.5-7.8-8.4-13.5-16.6-13-1.2 0-2.2 0-3.3.4-3.8-8-12-13.2-21.5-12.7-12 .5-21.3 10.3-21.7 22-1.3-.4-2.8-.7-4.4-.6-7.8.3-13.8 6.8-13.4 14.6 0 1.8.6 3.7 1.2 5.3L137 68c-1 1.4-2.2 3-3 4.4-3-1.3-6.4-1.8-10-1-6.4 1.5-11 7-11.7 13.4-1.2 0-2.5 0-3.7.2-5.6 1.3-9 6.8-7.8 12.4 1.2 5.7 6.8 9.2 12.4 8l16-3.8-.7.7c-7.8 6-9.7 16.3-4.4 23 1.3 1.5 3 2.8 4.7 3.8l76-60.4c.4-4.2-.6-8.2-3.2-11.6-5.3-6.7-15-8-23.3-3.5z" fill="#888"/><path d="M188.2 102.5c1-.2 2-.6 3.2-1 19-7.5 64.5-41.2 65.8-43.2 3-3 4.4-8.4 3-14.4-1-6-4.5-10.4-8.3-12.2-.4 0-.5 0-.8-.2-6.6-2.2-58.6-15-78-14l-2 .3-1 .2c-16.2 3.2-25.3 25-20.6 48 4.7 23.4 21.7 39.8 37.6 36.5.3 0 .6 0 1-.2z"/><path d="M189.2 23.6l-.4 5.8c0 .5-.3 1-.7 1l-5 2.5c-.6 0-1 0-1.3-.4l-7.6-12c-.2-.3.2-.8.7-.7l13.8 2.7c.4 0 .7.5.7 1zm-8.6 66.2l5.6 1.5c.5 0 .8.5 1 1l1.3 5.6c0 .3 0 .8-.6 1l-13.2 5c-.5.2-1-.3-.7-.7l5.5-13c.2-.4.7-.6 1-.5zm-8-33l8.3 4.8c.6.4.7 1 0 1.4l-8 5.7c-.6.5-2 .7-3.2.6L133.6 65c-1.3 0-1.3-.8 0-1l35.7-7.6c1.2-.3 2.6 0 3.3.3zM260 42.5c-1.2-4.5-4-8-7.4-10.4-1.6 3.8-2 8.3-.7 12.8 1.2 4.4 4 8 7.3 10.3 1.7-3.7 2-8.3.8-12.7z" fill="#d6c415"/></svg>
