<svg xmlns="http://www.w3.org/2000/svg" width="300" height="168.75"><path d="M120.87 58.96l-.4-3.37C59.4 62.9 10.76 76.4 11.9 85.7l22.12-2.65c-.9-7.44 37.97-18.22 86.85-24.1zm25.84 14.97l-.82-3.3c-59.64 14.93-106.2 34.42-103.93 43.5l21.6-5.4c-1.8-7.28 35.4-22.85 83.16-34.8zM134.8 85.86l-1.62-2.98c-53.97 29.45-94.13 60.03-89.64 68.25l19.55-10.67c-3.6-6.6 28.5-31.02 71.7-54.6z" fill="#666"/><path d="M178.15 53.83c-1.46-7.8-8.4-13.53-16.57-13.16-1.15.06-2.2.2-3.27.48-3.8-7.8-12.1-13.1-21.47-12.68-12 .55-21.33 10.36-21.7 22.06-1.42-.43-2.92-.7-4.56-.62-7.8.37-13.76 6.9-13.4 14.7.08 1.8.58 3.67 1.23 5.3l38.7-1.74c-1.2 1.42-2.28 2.92-3.2 4.47-2.95-1.36-6.36-1.8-9.77-1.03-6.58 1.5-11.2 6.98-11.85 13.43-1.22-.16-2.46-.13-3.7.15-5.64 1.3-9.12 6.82-7.84 12.45 1.28 5.64 6.82 9.12 12.45 7.84l16.1-3.67c-.27.2-.56.4-.84.64-7.72 6.13-9.66 16.37-4.36 23.04 1.23 1.54 2.9 2.83 4.6 3.78l76.1-60.35c.3-4.12-.66-8.17-3.33-11.54-5.3-6.65-15.04-7.94-23.32-3.53z" fill="#888"/><path d="M188.24 102.55c1.1-.22 2.07-.6 3.15-.97C210.5 94 255.9 60.26 257.25 58.3c2.97-2.95 4.3-8.43 3.07-14.4-1.17-5.8-4.63-10.32-8.44-12.06-.27-.12-.38-.1-.63-.22-6.67-2.17-58.65-15-77.93-13.94-.7-.02-1.48.14-2.14.27l-1.1.23C154 21.43 144.9 43.1 149.62 66.35c4.72 23.24 21.66 39.64 37.6 36.4.23-.04.57-.1 1-.2z"/><path d="M189.2 23.65l-.37 5.74c-.04.48-.33.9-.76 1.1l-5.2 2.45c-.44.2-.94.06-1.2-.35l-7.6-11.85c-.27-.42.1-.95.58-.86l13.8 2.77c.46.1.77.5.74.98zM180.62 89.8l5.56 1.5c.47.12.83.5.93.95l1.38 5.6c.1.45-.13.92-.58 1.1l-13.12 5.1c-.47.17-.92-.3-.73-.75l5.46-12.96c.2-.45.66-.67 1.12-.55zM172.55 56.65l8.38 4.95c.7.42.73.97.06 1.44l-7.9 5.68c-.66.47-2.03.72-3.26.57L133.56 65c-1.28-.14-1.3-.84-.05-1.1l35.75-7.5c1.22-.28 2.6-.15 3.3.25zM260.1 42.57c-1.3-4.46-3.98-8.04-7.48-10.34-1.63 3.76-2.06 8.3-.77 12.74 1.3 4.44 4 8.03 7.47 10.34 1.63-3.75 2.06-8.3.78-12.73z" fill="#d6c415"/></svg>
