<?xml version="1.0" encoding="utf-8" ?>
<svg version="1.1" xmlns="http://www.w3.org/2000/svg" xmlns:xlink="http://www.w3.org/1999/xlink" width="300" height="168.75" viewBox="0 0 300 168.75">
	<g transform="matrix(1,0,0,1,150,84.375)">
		<path d="M-29.134,-25.4146 L-29.5384,-28.7831 C-90.5811,-21.4555 -139.217,-7.96293 -138.101,1.33428 L-115.984,-1.32064 C-116.878,-8.76515 -78.0124,-19.5472 -29.134,-25.4146 Z M-3.29201,-10.4429 L-4.11555,-13.7341 C-63.7577,1.18956 -110.318,20.674 -108.045,29.7579 L-86.4358,24.3508 C-88.2559,17.0771 -51.049,1.50691 -3.29201,-10.4429 Z M-15.2188,1.48236 L-16.8441,-1.49574 C-70.8111,27.9572 -110.97,58.532 -106.484,66.7515 L-86.9306,56.0801 C-90.5225,49.4986 -58.4315,25.066 -15.2188,1.48236 Z" fill="#666" />
		<path d="M28.1483,-30.5409 C26.6932,-38.3523 19.7518,-44.0734 11.5788,-43.7007 C10.4292,-43.6483 9.36549,-43.5175 8.30923,-43.2225 C4.4972,-51.0303 -3.80838,-56.3292 -13.1694,-55.9024 C-25.1581,-55.3556 -34.5028,-45.549 -34.8744,-33.8476 C-36.2928,-34.2766 -37.7858,-34.5377 -39.4281,-34.4628 C-47.229,-34.107 -53.1851,-27.5817 -52.8293,-19.7809 C-52.747,-17.9744 -52.2503,-16.1045 -51.6006,-14.4884 L-12.8909,-16.2122 C-14.107,-14.7926 -15.1758,-13.295 -16.0933,-11.7439 C-19.054,-13.1041 -22.4588,-13.5491 -25.8656,-12.7739 C-32.4488,-11.2759 -37.0657,-5.79648 -37.7191,0.652507 C-38.9405,0.493758 -40.1806,0.526428 -41.4261,0.809827 C-47.0604,2.09187 -50.5422,7.62494 -49.2601,13.2592 C-47.9781,18.8935 -42.445,22.3753 -36.8107,21.0933 L-20.6888,17.4249 C-20.9748,17.6256 -21.2591,17.8377 -21.5417,18.0622 C-29.2607,24.1952 -31.1984,34.4349 -25.9015,41.1015 C-24.6748,42.6454 -22.9862,43.9366 -21.3023,44.8882 L54.8059,-15.4682 C55.104,-19.5972 54.1435,-23.642 51.4672,-27.0104 C46.1794,-33.6656 36.4268,-34.9534 28.1483,-30.5409 Z" fill="#888" />
		<path d="M38.2396,18.1754 C39.3477,17.9507 40.3123,17.587 41.3877,17.2009 C60.5028,9.62749 105.922,-24.1176 107.256,-26.0687 C107.256,-26.0687 107.256,-26.0687 107.256,-26.0687 C110.233,-29.0251 111.546,-34.5006 110.335,-40.4727 C109.156,-46.2833 105.704,-50.7926 101.888,-52.5396 L101.888,-52.5396 C101.888,-52.5396 101.888,-52.5396 101.888,-52.5396 C101.634,-52.656 101.523,-52.6335 101.269,-52.75 C94.5977,-54.9261 42.6206,-67.7438 23.337,-66.69 C22.6394,-66.7166 21.8637,-66.5593 21.1988,-66.4245 C20.8664,-66.3571 20.4231,-66.2672 20.0907,-66.1998 C4.023,-62.9414 -5.07955,-41.2661 -0.366141,-18.0235 C4.34727,5.21914 21.2854,21.6136 37.2423,18.3777 C37.4639,18.3327 37.7963,18.2653 38.2396,18.1754 Z" fill="#000" />
		<path d="M39.1949,-60.7224 L38.826,-54.9814 C38.7919,-54.4928 38.5043,-54.0703 38.0721,-53.874 L32.8659,-51.4264 C32.4338,-51.2302 31.9266,-51.3623 31.6715,-51.7705 L24.0672,-63.6223 C23.7975,-64.0405 24.1645,-64.5796 24.6524,-64.4819 L38.4369,-61.7076 C38.9103,-61.6198 39.2191,-61.1964 39.1949,-60.7224 Z" fill="#d6c415" fill-opacity="1" />
		<path d="M30.623,5.41491 L36.1763,6.91702 C36.6483,7.04751 37.0053,7.4134 37.1118,7.87592 L38.4762,13.4646 C38.5826,13.9271 38.3525,14.398 37.9016,14.5669 L24.7753,19.6649 C24.3119,19.8461 23.8564,19.3793 24.0491,18.9205 L29.5069,5.96204 C29.6869,5.51552 30.1633,5.29704 30.623,5.41491 Z" fill="#d6c415" />
		<path d="M22.5529,-27.7206 L30.9277,-22.7762 C31.6342,-22.3536 31.6592,-21.805 30.9932,-21.3387 L23.1031,-15.6529 C22.437,-15.1866 21.0739,-14.9349 19.8397,-15.0871 L-16.4383,-19.3659 C-17.7216,-19.5159 -17.7535,-20.2158 -16.4892,-20.4819 L19.2516,-27.9871 C20.4669,-28.251 21.8472,-28.1244 22.5529,-27.7206 Z" fill="#d6c415" fill-opacity="1" />
		<path d="M110.095,-41.8006 C108.798,-46.2679 106.12,-49.8441 102.622,-52.1442 C100.988,-48.3833 100.559,-43.8475 101.848,-39.4068 C103.137,-34.9661 105.847,-31.3704 109.321,-29.0632 C110.954,-32.8241 111.376,-37.3865 110.095,-41.8006 Z" fill="#d6c415" />
	</g>
</svg>