<svg xmlns="http://www.w3.org/2000/svg" width="300" height="168.8"><path d="M55.5 64.7H55L4.2 75.3c-2 .4-2 1.4 0 1.8L55 87.5h.5l7 4.5c2 1.2 11 1.8 18.8 1.2l198.5-15.7c7.2-.5 7.2-2 0-2.6L81.3 59c-7.7-.6-17 0-19 1.2l-6.8 4.3z"/><path d="M72 76.2c0-5 3.2-10 6-13.3l-3.3-4s-10 8-10 17.2 9.5 17.2 9.5 17.2 1.3-2 3.5-4.2c-2.6-3.4-5.6-8-5.6-13zm41 0c0-4 2.4-7.6 4.4-10.2-1.5-1.7-2.4-3-2.4-3s-7.7 6-7.7 13c0 7.2 7.3 13.3 7.3 13.3s1-1.5 2.7-3.2c-2-2.5-4.3-6-4.3-10zm46.3 0c0-2.6 1.6-5 3-6.7-1-1-1.6-2-1.6-2s-5 4-5 8.7 4.7 8.6 4.7 8.6.6-1 1.8-2c-1.4-1.8-3-4-3-6.6zm41.7 0c0-2 1.2-3.8 2.2-5l-1.2-1.6s-3.8 3-3.8 6.6c0 3.4 3.6 6.5 3.6 6.5L203 81c-1-1.2-2-3-2-4.8zm-146.8 0c0-4-1.5-7.8-4-10.6-2.6 2.8-4.2 6.5-4.2 10.6s1.6 7.7 4 10.5c2.6-2.8 4.2-6.5 4.2-10.5zm-14.5 0c0-2.8-1-5.4-2.8-7.3-1.8 1.8-3 4.4-3 7.2s1 5.3 3 7.2c1.6-2 2.7-4.5 2.7-7.2z" fill="#fc0"/></svg>
