<?xml version="1.0" encoding="utf-8" ?>
<svg version="1.1" xmlns="http://www.w3.org/2000/svg" xmlns:xlink="http://www.w3.org/1999/xlink" width="300" height="168.75" viewBox="0 0 300 168.75">
	<g transform="matrix(1,0,0,1,150,84.375)">
		<path d="M-94.4926,-19.6668 L-94.4926,-19.6668 C-94.6777,-19.6429 -94.8612,-19.6124 -95.0416,-19.5752 L-145.845,-9.13219 C-147.696,-8.74808 -147.696,-7.76379 -145.845,-7.37967 L-95.0416,3.15941 C-94.8704,3.19264 -94.6964,3.22011 -94.521,3.24206 L-87.6209,7.59864 C-85.6265,8.78379 -76.402,9.39433 -68.6734,8.78379 L129.777,-6.83871 C137.007,-7.41332 137.007,-8.88579 129.777,-9.46041 L-68.6734,-25.2266 C-76.402,-25.8012 -85.6265,-25.2266 -87.6209,-24.0055 L-94.4926,-19.6668 Z" fill="#000" />
		<path d="M-77.8906,-8.20343 C-77.8906,-13.2712 -74.7462,-18.0632 -72.0603,-21.5106 C-74.0911,-23.6481 -75.2702,-25.4407 -75.2702,-25.4407 C-75.2702,-25.4407 -85.2932,-17.4082 -85.2932,-8.20343 C-85.2932,1.0013 -75.7943,9.03389 -75.7943,9.03389 C-75.7943,9.03389 -74.4841,7.06883 -72.2568,4.79351 C-74.9427,1.41499 -77.8906,-3.27356 -77.8906,-8.20343 Z" fill="#fc0" />
		<path d="M-37.0434,-8.21331 C-37.0434,-12.0862 -34.6404,-15.7483 -32.5878,-18.3829 C-34.1397,-20.0164 -35.0409,-21.3864 -35.0409,-21.3864 C-35.0409,-21.3864 -42.7006,-15.2477 -42.7006,-8.21331 C-42.7006,-1.1789 -35.4414,4.95974 -35.4414,4.95974 C-35.4414,4.95974 -34.4401,3.45801 -32.738,1.71917 C-34.7906,-0.862753 -37.0434,-4.44582 -37.0434,-8.21331 Z" fill="#fc0" />
		<path d="M9.33425,-8.21331 C9.33425,-10.756 10.912,-13.1604 12.2596,-14.8901 C11.2406,-15.9626 10.649,-16.8621 10.649,-16.8621 C10.649,-16.8621 5.62004,-12.8317 5.62004,-8.21331 C5.62004,-3.59488 10.386,0.435429 10.386,0.435429 C10.386,0.435429 11.0434,-0.55053 12.161,-1.69216 C10.8134,-3.38732 9.33425,-5.73978 9.33425,-8.21331 Z" fill="#fc0" />
		<path d="M50.9963,-8.20343 C50.9963,-10.1212 52.1862,-11.9346 53.2026,-13.2392 C52.4341,-14.048 51.9879,-14.7264 51.9879,-14.7264 C51.9879,-14.7264 48.195,-11.6867 48.195,-8.20343 C48.195,-4.72017 51.7896,-1.68047 51.7896,-1.68047 C51.7896,-1.68047 52.2854,-2.42409 53.1283,-3.28511 C52.1119,-4.56362 50.9963,-6.33786 50.9963,-8.20343 Z" fill="#fc0" />
		<path d="M-95.7553,-8.20343 C-95.7553,-12.2782 -97.2591,-15.9407 -99.8544,-18.73 C-102.353,-15.9649 -103.953,-12.254 -103.953,-8.20343 C-103.953,-4.1529 -102.425,-0.466192 -99.8544,2.32309 C-97.3561,-0.441938 -95.7553,-4.17716 -95.7553,-8.20343 Z" fill="#fc0" />
		<path d="M-110.3,-8.21331 C-110.3,-11.0242 -111.338,-13.5506 -113.128,-15.4747 C-114.851,-13.5674 -115.955,-11.0075 -115.955,-8.21331 C-115.955,-5.41917 -114.901,-2.87599 -113.128,-0.95188 C-111.405,-2.85926 -110.3,-5.4359 -110.3,-8.21331 Z" fill="#fc0" />
	</g>
</svg>