<svg xmlns="http://www.w3.org/2000/svg" width="300" height="168.75"><path d="M55.5 64.7l-.54.1-50.8 10.44c-1.86.4-1.86 1.37 0 1.76l50.8 10.53.52.1 6.9 4.34c2 1.2 11.22 1.8 18.95 1.2l198.45-15.63c7.23-.58 7.23-2.05 0-2.63L81.33 59.16c-7.73-.58-16.96 0-18.95 1.22L55.5 64.7z"/><path d="M72.1 76.17c0-5.07 3.15-9.86 5.84-13.3-2.03-2.14-3.2-3.94-3.2-3.94S64.7 66.97 64.7 76.17s9.5 17.24 9.5 17.24 1.32-1.96 3.54-4.23c-2.68-3.38-5.63-8.07-5.63-13zM112.96 76.16c0-3.87 2.4-7.53 4.45-10.17-1.54-1.64-2.44-3-2.44-3s-7.66 6.13-7.66 13.16c0 7.04 7.26 13.17 7.26 13.17s1-1.5 2.7-3.24c-2.05-2.6-4.3-6.17-4.3-9.94zM159.33 76.16c0-2.54 1.58-4.95 2.93-6.68-1.02-1.07-1.6-1.97-1.6-1.97s-5.04 4.04-5.04 8.66 4.77 8.65 4.77 8.65.64-.98 1.76-2.12c-1.35-1.7-2.83-4.04-2.83-6.52zM201 76.17c0-1.92 1.2-3.73 2.2-5.03-.77-.8-1.2-1.5-1.2-1.5s-3.8 3.05-3.8 6.53c0 3.48 3.6 6.52 3.6 6.52s.5-.75 1.33-1.6c-1.02-1.3-2.13-3.06-2.13-4.93zM54.24 76.17c0-4.07-1.5-7.74-4.1-10.52-2.5 2.76-4.1 6.47-4.1 10.52s1.54 7.74 4.1 10.53c2.5-2.77 4.1-6.5 4.1-10.53zM39.7 76.16c0-2.8-1.04-5.34-2.83-7.26-1.72 1.9-2.82 4.47-2.82 7.26 0 2.8 1.05 5.34 2.82 7.26 1.73-1.9 2.83-4.48 2.83-7.26z" fill="#fc0"/></svg>
