<?xml version="1.0" encoding="utf-8" ?>
<!-- Generator: Assembly 1.0 - http://assemblyapp.co -->
<svg version="1.1" xmlns="http://www.w3.org/2000/svg" xmlns:xlink="http://www.w3.org/1999/xlink" width="300" height="300" viewBox="0 0 300 300">
	<rect x="0" y="0" width="300" height="300" fill="#fea664" />
	<g id="widget" transform="matrix(1,0,0,1,150,150)">
		<path d="M99.8016,57.4805 C99.8016,-1.52856 52.0323,-49.2978 -6.97674,-49.2978 C-65.9858,-49.2978 -113.755,-1.52856 -113.755,57.4805 L99.8016,57.4805 Z" fill="#fffefc" fill-opacity="0.00369004" />
		<path d="M73.731,23.2615 C73.731,-16.8371 41.2703,-49.2978 1.17171,-49.2978 C-38.9269,-49.2978 -71.3876,-16.8371 -71.3876,23.2615 L73.731,23.2615 Z" fill="#fffefc" fill-opacity="0.00369004" />
		<path d="M-150,24.4934 L-144.3,18.0809 L-131.317,13.3309 L-126.963,7.31426 L-114.929,7.31426 L-106.617,0.0309408 L-104.083,0.585107 L-100.996,-3.76905 L-92.4459,-10.8149 L-89.1209,-10.8149 L-84.5293,-2.73989 L-82.3918,-1.78989 L-76.1376,10.2434 L-71.3876,24.4934 Z" fill="#de5800" fill-opacity="1" />
		<path d="M-149.027,149.599 L-149.027,24.4934 L151.37,24.4934 L151.37,149.599 L-149.027,149.599 Z" fill="#fedb60" fill-opacity="1" />
		<path d="M-10.4724,80.6496 L13.7033,82.8566 L21.7743,79.6349 L41.5004,81.4357 L56.1881,90.9219 L81.6987,93.2507 L88.5348,90.4491 L97.7306,91.2886 L111.396,85.761 L125.783,87.0744 L136.807,94.0946" fill="#000000" fill-opacity="0" stroke-width="2" stroke="#020101" stroke-linecap="square" stroke-linejoin="miter" />
		<path d="M-85.6567,42.6075 L-88.6933,55.264 L-91.278,56.9045 L-93.4246,61.2967 L-95.902,68.9796 L-106.258,73.1095 L-111.955,76.9693 L-111.997,79.9455 L-118.183,89.7547 L-124.409,90.4694 L-127.524,94.0946 L-135.731,92.4265 L-126.505,91.3915 L-124.006,88.3571 L-118.546,88.5868 L-113.722,81.3389 L-114.395,77.6482 L-106.381,71.88 L-97.4768,68.4108 L-95.8441,63.0017 L-92.9857,57.2088 L-90.4911,55.3776 Z" fill="#020101" fill-opacity="1" />
		<path d="M61.8261,-175.648 C62.371,-174.683 62.895,-173.74 63.3352,-172.713 C63.7963,-173.74 64.2993,-174.704 64.8442,-175.648 C64.3203,-174.977 63.7963,-174.264 63.3352,-173.531 C62.8531,-174.243 62.3501,-174.977 61.8261,-175.648 Z M68.4493,-179.588 C66.3114,-179.588 64.3831,-178.456 63.3142,-176.779 C62.2453,-178.477 60.338,-179.588 58.1792,-179.588 C55.8946,-179.588 53.9454,-178.33 52.8974,-176.528 C54.0292,-177.995 55.7688,-178.938 57.739,-178.938 C60.2332,-178.938 62.371,-177.45 63.3142,-175.291 C64.2783,-177.429 66.3952,-178.938 68.8894,-178.938 C70.8805,-178.938 72.6411,-177.995 73.731,-176.528 C72.704,-178.351 70.7338,-179.588 68.4493,-179.588 Z" fill="#020101" fill-opacity="1" />
		<path d="M108.73,-201.718 C109.275,-200.754 109.799,-199.811 110.239,-198.784 C110.7,-199.811 111.203,-200.775 111.748,-201.718 C111.224,-201.048 110.7,-200.335 110.239,-199.601 C109.757,-200.314 109.254,-201.048 108.73,-201.718 Z M115.353,-205.659 C113.216,-205.659 111.287,-204.527 110.218,-202.85 C109.149,-204.548 107.242,-205.659 105.083,-205.659 C102.799,-205.659 100.85,-204.401 99.8016,-202.599 C100.933,-204.066 102.673,-205.009 104.643,-205.009 C107.137,-205.009 109.275,-203.521 110.218,-201.362 C111.183,-203.5 113.299,-205.009 115.794,-205.009 C117.785,-205.009 119.545,-204.066 120.635,-202.599 C119.608,-204.422 117.638,-205.659 115.353,-205.659 Z" fill="#020101" fill-opacity="1" />
	</g>
</svg>