<?xml version="1.0" encoding="utf-8" ?>
<!-- Generator: Assembly 1.0 - http://assemblyapp.co -->
<svg version="1.1" xmlns="http://www.w3.org/2000/svg" xmlns:xlink="http://www.w3.org/1999/xlink" width="300" height="300" viewBox="0 0 300 300">
	<rect x="0" y="0" width="300" height="300" fill="#a6f9fe" />
	<g id="widget" transform="matrix(1,0,0,1,150,150)">
		<path d="M-47.038,-71.9249 C-49.9965,-44.6384 -74.515,-24.9167 -101.802,-27.8752 C-129.088,-30.8338 -148.81,-55.3522 -145.851,-82.6387 C-142.893,-109.925 -118.374,-129.647 -91.0877,-126.688 C-63.8011,-123.73 -44.0794,-99.2114 -47.038,-71.9249 Z" fill="#fefcec" />
		<path d="M-24.6009,-73.5536 C-24.6009,-23.7215 -64.9978,16.6753 -114.83,16.6753 C-164.662,16.6753 -205.059,-23.7215 -205.059,-73.5536 C-205.059,-123.386 -164.662,-163.783 -114.83,-163.783 C-64.9978,-163.783 -24.6009,-123.386 -24.6009,-73.5536 Z" fill="#fefcec" />
		<path d="M-61.9911,-71.6977 C-61.9911,-52.6696 -77.4165,-37.2442 -96.4446,-37.2442 C-115.473,-37.2442 -130.898,-52.6696 -130.898,-71.6977 C-130.898,-90.7258 -115.473,-106.151 -96.4446,-106.151 C-77.4165,-106.151 -61.9911,-90.7258 -61.9911,-71.6977 Z" fill="#fefcec" />
		<path d="M-158.396,4.92734 C-189.976,9.85381 -216.131,28.5699 -233.902,56.6007 C-208.769,76.9945 -177.636,87.7178 -146.244,82.8207 C-114.852,77.9235 -88.5447,58.9477 -70.7381,31.1473 C-95.8704,10.7535 -127.191,0.0595294 -158.396,4.92734 Z" fill="#74b855" fill-opacity="1" />
		<path d="M62.2045,14.3396 L61.9309,13.4961 L56.1404,15.5935 L56.1404,6.38329 L58.8077,4.85586 L58.3517,4.05795 L56.1404,5.33461 L56.1404,2.30926e-14 L55.2285,2.30926e-14 L55.2285,12.8806 L50.3954,8.41227 L49.7571,9.09619 L55.2285,14.1116 L55.2285,20.0618 L56.1404,20.0618 L56.1404,16.5282 Z" fill="#5e985b" fill-opacity="1" />
		<path d="M-188.703,212.288 L-205.656,43.8406 L185.881,4.4351 L202.834,172.883 L-188.703,212.288 Z" fill="#7fd54a" fill-opacity="1" />
		<path d="M-29.9365,112.041 L-51.3502,117.823 L-32.5966,105.979 Z" fill="#1d3920" fill-opacity="1" stroke-width="0.669953" stroke="#000000" stroke-linecap="square" stroke-linejoin="miter" />
		<path d="M-35.8908,117.64 L-33.5905,117.493 L-33.9583,111.739 L-36.2587,111.886 L-35.8908,117.64 L-35.8908,117.64 Z" fill="#1d3920" fill-opacity="1" stroke-width="0.544582" stroke="#000000" stroke-linecap="square" stroke-linejoin="miter" />
		<path d="M-36.108,121.366 L-33.7127,121.502 L-33.5014,117.776 L-35.8966,117.64 L-36.108,121.366 L-36.108,121.366 Z" fill="#1d3920" fill-opacity="1" stroke-width="0.544582" stroke="#000000" stroke-linecap="square" stroke-linejoin="miter" />
		<path d="M-15.78,115.65 L-12.9795,114.825 L-15.0419,107.82 L-17.8424,108.644 L-15.78,115.65 L-15.78,115.65 Z" fill="#1d3920" fill-opacity="1" stroke-width="0.544582" stroke="#000000" stroke-linecap="square" stroke-linejoin="miter" />
		<path d="M-15.0072,120.313 L-12.0104,119.811 L-12.7905,115.149 L-15.7873,115.651 L-15.0072,120.313 L-15.0072,120.313 Z" fill="#1d3920" fill-opacity="1" stroke-width="0.544582" stroke="#000000" stroke-linecap="square" stroke-linejoin="miter" />
		<path d="M-24.4739,102.647 C-19.0807,102.303 -14.0603,104.697 -10.0702,109.128 C-13.4426,113.855 -18.1702,117.047 -23.5313,117.39 C-28.8924,117.733 -33.9477,115.297 -37.9351,110.909 C-34.5626,106.183 -29.8029,102.988 -24.4739,102.647 Z" fill="#1d3920" fill-opacity="1" stroke-width="0.630775" stroke="#000000" stroke-linecap="square" stroke-linejoin="miter" />
		<path d="M-19.4155,118.148 L-16.5456,117.613 L-17.8842,110.434 L-20.7541,110.97 L-19.4155,118.148 L-19.4155,118.148 Z" fill="#1d3920" fill-opacity="1" stroke-width="0.544582" stroke="#000000" stroke-linecap="square" stroke-linejoin="miter" />
		<path d="M-19.1213,122.866 L-16.089,122.672 L-16.3906,117.955 L-19.4229,118.149 L-19.1213,122.866 L-19.1213,122.866 Z" fill="#1d3920" fill-opacity="1" stroke-width="0.544582" stroke="#000000" stroke-linecap="square" stroke-linejoin="miter" />
		<path d="M-34.4572,119.11 L-31.5873,118.575 L-32.9259,111.396 L-35.7958,111.931 L-34.4572,119.11 L-34.4572,119.11 Z" fill="#1d3920" fill-opacity="1" stroke-width="0.544582" stroke="#000000" stroke-linecap="square" stroke-linejoin="miter" />
		<path d="M-34.9259,118.614 C-34.6937,118.643 -34.4937,118.757 -34.3518,118.919 C-34.1738,118.794 -33.9521,118.737 -33.72,118.766 C-33.2195,118.829 -32.8664,119.284 -32.9295,119.784 L-33.1952,121.894 L-33.7981,121.818 L-33.5324,119.708 C-33.5115,119.542 -33.6301,119.39 -33.7959,119.369 C-33.9617,119.348 -34.1144,119.466 -34.1353,119.632 L-34.401,121.742 L-35.004,121.667 L-34.7383,119.556 C-34.7174,119.39 -34.836,119.238 -35.0018,119.217 C-35.1676,119.196 -35.3203,119.315 -35.3412,119.48 L-35.6069,121.591 L-36.2098,121.515 L-35.9441,119.404 C-35.8811,118.904 -35.4263,118.551 -34.9259,118.614 Z" fill="#000000" fill-opacity="1" />
		<path d="M-34.163,123.827 L-31.1307,123.634 L-31.4323,118.917 L-34.4645,119.111 L-34.163,123.827 L-34.163,123.827 Z" fill="#1d3920" fill-opacity="1" stroke-width="0.544582" stroke="#000000" stroke-linecap="square" stroke-linejoin="miter" />
		<path d="M-10.4219,99.9688 C-8.54157,98.5514 -3.00819,96.3119 -3.00819,96.3119 C-8.53218,95.5622 -15.5018,101.243 -15.9015,102.187 C-16.3013,103.13 -15.1991,104.231 -14.8096,104.074 C-14.2881,103.972 -12.3988,101.457 -10.4219,99.9688 Z" fill="#b6916b" fill-opacity="1" stroke-width="0.325182" stroke="#000000" stroke-linecap="square" stroke-linejoin="miter" />
		<path d="M-21.3276,111.127 L-17.5568,114.162 L-16.8149,109.379 Z" fill="#b6916b" fill-opacity="1" />
		<path d="M-24.0962,114.447 L-18.523,109.777 L-24.7234,110.861 Z" fill="#1e3a20" fill-opacity="1" />
		<path d="M-24.7317,111.689 L-12.3045,109.766 L-12.9539,105.57 L-25.3811,107.494 L-24.7317,111.689 Z" fill="#1d3920" fill-opacity="1" />
		<path d="M-20.2398,96.0632 L-21.9958,95.4223 C-22.2582,95.3271 -22.4255,95.5172 -22.2959,95.7634 L-21.4337,97.4261 C-21.3059,97.6742 -20.9767,97.7934 -20.8422,97.6405 L-19.9454,96.6212 C-19.8173,96.4697 -19.9745,96.161 -20.2398,96.0632 Z" fill="#b6916b" fill-opacity="1" />
		<path d="M-22.1849,97.3925 L-23.8257,97.2475 C-24.0707,97.2263 -24.1697,97.4263 -24.0033,97.6062 L-22.8903,98.8248 C-22.7249,99.0068 -22.4175,99.0332 -22.3379,98.8724 L-21.8071,97.8003 C-21.7326,97.6421 -21.9368,97.4152 -22.1849,97.3925 Z" fill="#b6916b" fill-opacity="1" />
		<path d="M-23.407,99.4199 L-25.0478,99.2749 C-25.2928,99.2537 -25.3918,99.4537 -25.2254,99.6336 L-24.1124,100.852 C-23.947,101.034 -23.6396,101.061 -23.56,100.9 L-23.0292,99.8277 C-22.9547,99.6695 -23.1589,99.4426 -23.407,99.4199 Z" fill="#b6916b" fill-opacity="1" />
		<path d="M-24.3315,101.755 L-25.9722,101.61 C-26.2173,101.589 -26.3163,101.789 -26.1498,101.969 L-25.0368,103.187 C-24.8714,103.369 -24.5641,103.396 -24.4845,103.235 L-23.9536,102.163 C-23.8791,102.005 -24.0833,101.778 -24.3315,101.755 Z" fill="#b6916b" fill-opacity="1" />
		<path d="M-24.9314,103.915 L-26.495,104.38 C-26.7284,104.45 -26.7466,104.67 -26.5277,104.775 L-25.0584,105.491 C-24.8397,105.598 -24.5471,105.511 -24.5325,105.334 L-24.4348,104.153 C-24.4239,103.98 -24.6947,103.846 -24.9314,103.915 Z" fill="#b6916b" fill-opacity="1" />
		<path d="M-25.3301,106.66 L-26.8937,107.125 C-27.1271,107.195 -27.1453,107.415 -26.9264,107.52 L-25.4571,108.236 C-25.2384,108.344 -24.9458,108.256 -24.9312,108.079 L-24.8335,106.898 C-24.8226,106.725 -25.0934,106.591 -25.3301,106.66 Z" fill="#b6916b" fill-opacity="1" />
		<path d="M-25.8945,109.46 L-27.255,110.093 C-27.458,110.188 -27.4451,110.391 -27.2318,110.457 L-25.7986,110.912 C-25.5852,110.98 -25.3307,110.861 -25.3412,110.698 L-25.4107,109.61 C-25.424,109.451 -25.6884,109.365 -25.8945,109.46 Z" fill="#b6916b" fill-opacity="1" />
		<path d="M-25.3438,111.916 L-26.2055,113.145 C-26.3339,113.328 -26.2212,113.498 -26.0034,113.448 L-24.5351,113.125 C-24.3161,113.078 -24.1553,112.847 -24.2459,112.711 L-24.8499,111.804 C-24.9408,111.673 -25.2128,111.731 -25.3438,111.916 Z" fill="#b6916b" fill-opacity="1" />
		<path d="M-25.1844,106.58 L-18.0456,108.738 L-10.6757,107.595 L-17.0348,93.8702 Z" fill="#1d3920" fill-opacity="1" />
		<path d="M-3.76302,110.055 L-3.406,103.573 L-24.4922,102.412 L-24.8492,108.894 L-3.76302,110.055 Z" fill="#1d3920" fill-opacity="1" />
		<path d="M-4.39697,110.506 L-4.62475,108.432 L-15.0301,109.575 L-14.8023,111.648 L-4.39697,110.506 Z" fill="#1d3920" fill-opacity="1" />
		<path d="M-5.45278,108.413 L-0.624664,110.088 L-0.624664,110.088 C0.299407,107.425 -1.1143,104.509 -3.77759,103.585 L-3.77759,103.585 L-5.45278,108.413 Z" fill="#14210c" fill-opacity="1" />
		<path d="M-3.89469,108.789 L-1.16216,109.855 L-1.16216,109.855 C-0.298294,107.639 -0.821315,105.361 -2.32863,104.773 L-2.32863,104.773 L-3.89469,108.789 Z" fill="#b6916b" fill-opacity="1" />
		<path d="M-2.78313,108.597 L-1.94614,108.543 L-2.21462,104.344 L-3.05161,104.397 L-2.78313,108.597 Z" fill="#b6916b" fill-opacity="1" />
		<path d="M-3.55199,104.22 L-3.18262,103.284 C-0.60087,104.304 0.667072,107.227 -0.352394,109.808 L-1.28781,109.439 C-0.471499,107.372 -1.48472,105.036 -3.55199,104.22 Z" fill="#000000" fill-opacity="1" />
		<path d="M-0.680639,110.571 L-0.255568,109.601 L-2.79196,108.489 L-3.21703,109.459 L-0.680639,110.571 Z" fill="#000000" fill-opacity="1" />
		<path d="M-2.98899,109.578 L-2.6786,108.544 L-4.84481,107.894 L-5.1552,108.927 L-2.98899,109.578 Z" fill="#000000" fill-opacity="1" />
		<path d="M-4.76062,108.882 L-4.82269,107.911 L-7.31361,108.07 L-7.25153,109.041 L-4.76062,108.882 Z" fill="#000000" fill-opacity="1" />
		<path d="M-6.89074,108.983 L-7.13,108.04 L-13.2552,109.594 L-13.0159,110.537 L-6.89074,108.983 Z" fill="#000000" fill-opacity="1" />
		<path d="M-12.9083,110.53 L-12.9704,109.559 L-15.4613,109.719 L-15.3992,110.689 L-12.9083,110.53 Z" fill="#000000" fill-opacity="1" />
		<path d="M-6.23659,104.066 L-20.849,102.771 L-20.7104,101.208 L-10.4817,102.115 Z" fill="#1d3920" fill-opacity="1" />
		<path d="M-3.18445,104.244 L-3.0091,103.276 L-7.86516,102.396 L-8.0405,103.364 L-3.18445,104.244 Z" fill="#000000" fill-opacity="1" />
		<path d="M-2.17908,109.704 L-2.50771,108.894 L-6.57054,110.543 L-6.24191,111.353 L-2.17908,109.704 Z" fill="#000000" fill-opacity="1" />
		<path d="M-6.19743,111.32 L-6.25319,110.448 L-14.9387,111.003 L-14.883,111.875 L-6.19743,111.32 Z" fill="#000000" fill-opacity="1" />
		<path d="M-7.98023,103.366 L-7.62727,102.562 L-10.3654,101.359 L-10.7183,102.162 L-7.98023,103.366 Z" fill="#000000" fill-opacity="1" />
		<path d="M-10.3309,102.236 L-10.3868,101.36 L-13.6961,101.572 L-13.6401,102.447 L-10.3309,102.236 Z" fill="#000000" fill-opacity="1" />
		<path d="M-15.3216,111.903 L-14.387,111.844 L-14.4866,110.287 L-15.4212,110.346 L-15.3216,111.903 L-15.3216,111.903 Z" fill="#000000" fill-opacity="1" />
		<path d="M-24.3726,102.535 L-21.0723,104.169 L-18.3499,98.6709 L-21.6502,97.0368 L-24.3726,102.535 L-24.3726,102.535 Z" fill="#1d3920" fill-opacity="1" />
		<path d="M-17.1367,93.7478 L-18.667,92.6742 C-18.8958,92.5143 -19.1066,92.6547 -19.0452,92.926 L-18.6427,94.7552 C-18.5834,95.028 -18.2963,95.2283 -18.1268,95.1154 L-16.9968,94.363 C-16.8338,94.2498 -16.9057,93.9109 -17.1367,93.7478 Z" fill="#b6916b" fill-opacity="1" />
		<path d="M-18.5495,94.6574 L-20.2329,93.8447 C-20.4845,93.7238 -20.6699,93.8963 -20.5655,94.1541 L-19.8733,95.8945 C-19.7708,96.1541 -19.4552,96.3055 -19.3061,96.1668 L-18.3122,95.242 C-18.1696,95.104 -18.2953,94.7811 -18.5495,94.6574 Z" fill="#b6916b" fill-opacity="1" />
		<path d="M-17.1833,93.9006 L-19.7029,101.205 L-22.3143,100.304 L-20.8025,95.9214 Z" fill="#1d3920" fill-opacity="1" />
		<path d="M-13.4937,102.438 L-12.7621,102.035 L-16.0261,96.1094 L-16.7577,96.5124 L-13.4937,102.438 Z" fill="#000000" fill-opacity="1" />
		<path d="M-16.6409,96.7297 L-15.9203,96.4448 L-17.0486,93.5911 L-17.7692,93.876 L-16.6409,96.7297 Z" fill="#000000" fill-opacity="1" />
		<path d="M-16.8265,93.788 L-17.2585,93.1393 L-20.5132,95.3065 L-20.0812,95.9552 L-16.8265,93.788 Z" fill="#000000" fill-opacity="1" />
		<path d="M-19.9429,95.8093 L-20.528,95.2945 L-23.1109,98.2302 L-22.5258,98.745 L-19.9429,95.8093 Z" fill="#000000" fill-opacity="1" />
		<path d="M-22.1693,98.3467 L-22.8677,98.0009 L-24.6028,101.505 L-23.9044,101.851 L-22.1693,98.3467 Z" fill="#000000" fill-opacity="1" />
		<path d="M-23.8191,101.601 L-24.5917,101.499 L-25.7108,109.95 L-24.9382,110.052 L-23.8191,101.601 Z" fill="#000000" fill-opacity="1" />
		<path d="M-24.9535,109.77 L-25.7111,109.952 L-24.7948,113.754 L-24.0372,113.571 L-24.9535,109.77 Z" fill="#000000" fill-opacity="1" />
		<path d="M-24.1473,113.286 L-24.7659,113.76 L-23.5691,115.322 L-22.9505,114.848 L-24.1473,113.286 Z" fill="#000000" fill-opacity="1" />
		<path d="M-18.9812,113.129 L-19.9101,113.533 L-19.9101,113.533 L-19.9101,113.533 C-20.2452,112.762 -21.1381,112.41 -21.9091,112.745 C-22.6802,113.08 -23.032,113.973 -22.6969,114.744 L-22.6969,114.744 L-23.6258,115.148 L-23.6258,115.148 L-23.6258,115.148 C-24.183,113.866 -23.5948,112.374 -22.3129,111.816 C-21.031,111.259 -19.5384,111.847 -18.9812,113.129 L-18.9812,113.129 Z" fill="#000000" fill-opacity="1" />
		<path d="M-17.385,110.677 L-16.9303,111.608 L-14.9615,110.647 L-15.4163,109.716 Z" fill="#000000" fill-opacity="1" />
		<path d="M-17.9102,112.586 L-17.0337,112.831 L-16.5156,110.979 L-17.392,110.733 Z" fill="#000000" fill-opacity="1" />
		<path d="M-18.0996,114.223 L-17.1962,114.326 L-17.0078,112.679 L-17.9112,112.576 L-18.0996,114.223 Z" fill="#000000" fill-opacity="1" />
		<path d="M-17.9899,114.19 L-17.698,113.329 L-19.601,112.684 L-19.8929,113.545 L-17.9899,114.19 Z" fill="#000000" fill-opacity="1" />
		<path d="M-20.4327,112.737 L-21.2469,112.39 C-20.2885,110.143 -17.687,109.097 -15.4398,110.055 L-15.787,110.869 C-17.5864,110.102 -19.6653,110.938 -20.4327,112.737 Z" fill="#000000" fill-opacity="1" />
		<path d="M-11.0639,102.437 C-10.3024,102.388 -9.58913,102.796 -9.01801,103.543 C-9.48669,104.328 -10.1494,104.853 -10.9063,104.902 C-11.6632,104.95 -12.3815,104.535 -12.9522,103.795 C-12.4835,103.011 -11.8163,102.485 -11.0639,102.437 Z" fill="#901719" />
		<path d="M-11.2568,103.145 C-10.7101,103.11 -10.198,103.403 -9.78794,103.939 C-10.1244,104.502 -10.6002,104.88 -11.1437,104.914 C-11.6871,104.949 -12.2028,104.651 -12.6125,104.12 C-12.276,103.557 -11.797,103.179 -11.2568,103.145 Z" fill="#232b24" fill-opacity="0.386918" />
		<path d="M-11.2408,103.396 C-10.8491,103.371 -10.4821,103.581 -10.1883,103.965 C-10.4294,104.368 -10.7703,104.639 -11.1597,104.664 C-11.5491,104.688 -11.9186,104.475 -12.2121,104.094 C-11.971,103.691 -11.6278,103.42 -11.2408,103.396 Z" fill="#14210c" fill-opacity="1" />
		<path d="M-11.2199,103.722 C-11.0604,103.711 -10.9097,103.815 -10.7881,104.003 C-10.8843,104.198 -11.0219,104.328 -11.1805,104.338 C-11.3391,104.348 -11.4908,104.242 -11.6124,104.056 C-11.5161,103.861 -11.3776,103.732 -11.2199,103.722 Z" fill="#000000" fill-opacity="1" />
		<path d="M-11.2465,104.022 C-11.2431,104.076 -11.2012,104.117 -11.153,104.114 C-11.1048,104.111 -11.0686,104.065 -11.072,104.011 C-11.0754,103.958 -11.1173,103.916 -11.1655,103.92 C-11.2137,103.923 -11.2499,103.969 -11.2465,104.022 Z" fill="#fefefe" fill-opacity="1" />
		<path d="M-15.3683,110.368 L-14.5811,110.51 L-13.0599,102.111 L-13.8471,101.968 L-15.3683,110.368 Z" fill="#000000" fill-opacity="1" />
		<path d="M-10.1471,101.057 C-8.25995,99.9663 -2.92391,98.5321 -2.92391,98.5321 C-7.91458,97.221 -14.9579,101.655 -15.4314,102.477 C-15.9049,103.299 -15.0163,104.435 -14.6407,104.334 C-14.1501,104.299 -12.131,102.201 -10.1471,101.057 Z" fill="#b6916b" fill-opacity="1" stroke-width="0.376114" stroke="#000000" stroke-linecap="square" stroke-linejoin="miter" />
		<path d="M-18.3791,120.187 C-18.1457,120.172 -17.9278,120.246 -17.7579,120.379 C-17.6065,120.223 -17.3997,120.124 -17.1662,120.109 C-16.6629,120.077 -16.2306,120.458 -16.1984,120.961 L-16.0627,123.084 L-16.6691,123.122 L-16.8048,121 C-16.8155,120.833 -16.9607,120.705 -17.1274,120.716 C-17.2942,120.727 -17.422,120.872 -17.4113,121.039 L-17.2756,123.161 L-17.882,123.2 L-18.0178,121.077 C-18.0284,120.911 -18.1736,120.783 -18.3404,120.793 C-18.5071,120.804 -18.6349,120.949 -18.6242,121.116 L-18.4885,123.239 L-19.095,123.277 L-19.2307,121.155 C-19.2628,120.652 -18.8825,120.219 -18.3791,120.187 Z" fill="#000000" fill-opacity="1" />
		<path d="M-14.4796,117.382 C-14.2683,117.34 -14.0604,117.382 -13.8894,117.482 C-13.77,117.322 -13.5931,117.207 -13.3818,117.165 C-12.9262,117.075 -12.4855,117.369 -12.3953,117.825 L-12.0146,119.746 L-12.5635,119.855 L-12.9442,117.934 C-12.9741,117.783 -13.1221,117.684 -13.273,117.714 C-13.424,117.744 -13.523,117.892 -13.4931,118.043 L-13.1124,119.964 L-13.6613,120.073 L-14.042,118.151 C-14.0719,118 -14.2199,117.901 -14.3709,117.931 C-14.5218,117.961 -14.6209,118.109 -14.5909,118.26 L-14.2102,120.181 L-14.7592,120.29 L-15.1399,118.369 C-15.2301,117.913 -14.9352,117.473 -14.4796,117.382 Z" fill="#000000" fill-opacity="1" />
		<path d="M-33.5798,120.745 C-33.3463,120.731 -33.1284,120.805 -32.9586,120.937 C-32.8072,120.781 -32.6004,120.683 -32.3669,120.668 C-31.8635,120.636 -31.4312,121.016 -31.399,121.519 L-31.2633,123.642 L-31.8698,123.681 L-32.0055,121.558 C-32.0161,121.391 -32.1613,121.264 -32.3281,121.274 C-32.4949,121.285 -32.6226,121.43 -32.6119,121.597 L-32.4762,123.72 L-33.0827,123.758 L-33.2184,121.636 C-33.2291,121.469 -33.3742,121.341 -33.541,121.352 C-33.7078,121.363 -33.8355,121.508 -33.8249,121.675 L-33.6892,123.797 L-34.2956,123.836 L-34.4313,121.713 C-34.4635,121.21 -34.0831,120.778 -33.5798,120.745 Z" fill="#000000" fill-opacity="1" />
		<path d="M66.1832,-125.014 C62.2832,-125.014 58.6832,-123.914 55.6832,-122.114 C51.1832,-129.214 43.2832,-134.014 34.2832,-134.014 C23.1832,-134.014 13.7832,-126.914 10.3832,-116.814 C8.48319,-117.514 6.48319,-117.914 4.38319,-117.914 C-5.11681,-117.914 -12.7168,-110.314 -12.7168,-100.814 C-12.7168,-91.3135 -5.11681,-83.7135 4.38319,-83.7135 L65.9832,-83.7135 C77.4832,-83.7135 86.6832,-92.9135 86.6832,-104.414 C86.7832,-115.714 77.4832,-125.014 66.1832,-125.014 Z" fill="#e3e3e3" fill-opacity="1" />
		<path d="M-72.6899,-134.191 C-71.4479,-136.498 -70.7381,-139.159 -70.7381,-141.821 C-70.7381,-150.781 -78.0128,-158.144 -87.0618,-158.144 C-93.4494,-158.144 -99.1272,-154.418 -101.789,-148.918 C-104.361,-151.579 -107.91,-153.087 -111.725,-153.087 C-114.919,-153.087 -117.846,-152.023 -120.153,-150.249 C-122.459,-158.676 -130.089,-164.798 -139.227,-164.798 C-150.05,-164.798 -158.922,-155.926 -158.922,-145.103 C-158.922,-141.022 -157.68,-137.207 -155.639,-134.014 L-72.6899,-134.191 L-72.6899,-134.191 Z" fill="#e3e3e3" fill-opacity="1" />
		<path d="M8.56138,134.398 C8.56138,134.398 8.38203,134.069 8.14289,133.591 C7.99342,133.322 7.87385,132.993 7.72439,132.604 C7.57493,132.246 7.39557,131.797 7.276,131.289 C7.18632,131.05 7.09664,130.781 7.03686,130.512 C6.94718,130.243 6.8874,129.974 6.79772,129.705 C6.70804,129.436 6.64825,129.107 6.61836,128.838 C6.55858,128.509 6.4689,128.24 6.43901,127.881 C6.37922,127.552 6.34933,127.254 6.28954,126.925 C6.22976,126.596 6.19987,126.297 6.19987,125.938 C6.11019,125.251 6.11019,124.623 6.0504,123.906 C6.0504,123.577 6.0504,123.218 6.11019,122.859 C6.11019,122.68 6.11019,122.531 6.11019,122.351 C6.11019,122.172 6.16997,122.022 6.16997,121.843 C6.22976,121.514 6.22976,121.155 6.25965,120.857 C6.31944,120.528 6.34933,120.229 6.40911,119.9 C6.4689,119.721 6.4689,119.571 6.49879,119.392 C6.55858,119.242 6.58847,119.063 6.58847,118.943 C6.67815,118.615 6.73793,118.346 6.76782,118.077 C6.82761,117.807 6.91729,117.538 7.00697,117.269 C7.09664,117 7.15643,116.731 7.24611,116.492 C7.30589,116.253 7.42546,115.984 7.48525,115.805 C7.57493,115.566 7.63471,115.386 7.72439,115.177 C7.87385,114.758 7.99342,114.459 8.14289,114.19 C8.38203,113.652 8.5016,113.324 8.5016,113.324 L8.5016,113.324 C8.56138,113.234 8.5016,113.174 8.41192,113.144 C8.32224,113.084 8.26246,113.144 8.23256,113.204 C8.23256,113.204 8.05321,113.533 7.78417,114.011 C7.63471,114.28 7.45535,114.609 7.276,114.998 C7.09664,115.356 6.91729,115.805 6.73793,116.313 C6.64825,116.552 6.55858,116.821 6.49879,117.09 C6.40911,117.359 6.31944,117.628 6.25965,117.897 C6.11019,118.495 5.93083,119.063 5.90094,119.75 C5.84115,120.079 5.81126,120.378 5.75148,120.737 C5.69169,121.066 5.69169,121.424 5.6618,121.783 C5.60201,121.963 5.60201,122.112 5.60201,122.321 C5.60201,122.501 5.60201,122.65 5.54223,122.859 C5.54223,123.218 5.54223,123.547 5.54223,123.906 C5.60201,124.593 5.60201,125.311 5.69169,125.968 C5.75148,126.297 5.78137,126.656 5.84115,126.955 C5.90094,127.283 5.93083,127.642 6.02051,127.941 C6.08029,128.27 6.16997,128.569 6.19987,128.898 C6.28954,129.226 6.34933,129.495 6.43901,129.765 C6.52868,130.034 6.61836,130.362 6.67815,130.572 C6.76782,130.841 6.8575,131.11 6.94718,131.349 C7.12654,131.857 7.30589,132.305 7.48525,132.664 C7.6646,133.023 7.84396,133.382 7.99342,133.651 C8.14289,133.92 8.26246,134.099 8.35213,134.248 C8.44181,134.398 8.5016,134.488 8.5016,134.488 C8.56138,134.577 8.65106,134.577 8.68095,134.547 C8.56138,134.517 8.56138,134.428 8.56138,134.398 Z" fill="#5e985b" fill-opacity="1" />
		<path d="M5.72158,123.517 C5.72158,123.457 5.72158,123.457 5.6618,123.427 C4.34652,121.544 3.77856,119.003 3.77856,118.973 C3.71878,118.884 3.68889,118.824 3.59921,118.824 C3.50953,118.824 3.44974,118.914 3.44974,119.003 C3.50953,119.153 4.0476,121.664 5.39276,123.607 C5.45255,123.696 5.54223,123.696 5.63191,123.666 C5.72158,123.637 5.72158,123.547 5.72158,123.517 Z" fill="#5e985b" fill-opacity="1" />
		<path d="M6.4689,129.376 C6.4689,129.316 6.40911,129.286 6.37922,129.286 C4.67534,128.569 3.47964,126.536 3.47964,126.536 C3.41985,126.446 3.33017,126.446 3.2405,126.476 C3.15082,126.536 3.15082,126.626 3.18071,126.715 C3.2405,126.805 4.40631,128.838 6.19987,129.615 C6.28954,129.675 6.37922,129.615 6.37922,129.525 C6.4689,129.466 6.4689,129.406 6.4689,129.376 Z" fill="#5e985b" fill-opacity="1" />
		<path d="M9.12934,127.254 C9.12934,127.194 9.06956,127.104 9.03966,127.104 C8.94999,127.044 8.86031,127.104 8.86031,127.194 C8.86031,127.254 7.81407,129.765 6.91729,130.751 C6.8575,130.841 6.8575,130.93 6.91729,130.99 C7.00697,131.05 7.09664,131.05 7.15643,130.99 C8.14289,129.944 9.12934,127.433 9.18913,127.283 C9.12934,127.313 9.12934,127.313 9.12934,127.254 Z" fill="#5e985b" fill-opacity="1" />
		<path d="M8.77063,120.797 C8.77063,120.737 8.71085,120.707 8.68095,120.647 C8.59127,120.587 8.5016,120.647 8.44181,120.737 C8.38203,120.797 7.21621,123.457 5.78137,124.832 C5.69169,124.892 5.69169,125.012 5.78137,125.071 C5.84115,125.161 5.96072,125.161 6.02051,125.071 C7.51514,123.637 8.68095,120.976 8.77063,120.886 C8.77063,120.857 8.77063,120.797 8.77063,120.797 Z" fill="#5e985b" fill-opacity="1" />
		<path d="M7.276,115.476 C5.99062,114.968 5.06395,112.367 5.72158,111.769 C6.37922,111.171 7.21621,112.367 7.21621,112.367 C7.21621,112.367 7.84396,110.603 8.62117,110.842 C9.39838,111.082 9.12934,112.995 9.12934,112.995 C9.12934,112.995 10.7137,112.457 10.8332,113.264 C10.9827,114.071 8.92009,116.074 7.276,115.476 Z" fill="#5e985b" fill-opacity="1" />
		<path d="M3.44974,119.302 C2.19425,119.661 0.071878,117.987 0.251234,117.18 C0.430589,116.373 1.68608,116.821 1.68608,116.821 C1.68608,116.821 1.1779,115.027 1.92522,114.788 C2.67254,114.549 3.50953,116.283 3.50953,116.283 C3.50953,116.283 4.4362,114.968 4.94437,115.536 C5.51233,116.074 5.03405,118.854 3.44974,119.302 Z" fill="#5e985b" fill-opacity="1" />
		<path d="M3.44974,127.014 C2.49318,127.732 0.101771,126.745 0.0120928,125.938 C-0.13737,125.131 1.14801,125.221 1.14801,125.221 C1.14801,125.221 0.101771,123.637 0.639838,123.248 C1.1779,122.829 2.49318,124.204 2.49318,124.204 C2.49318,124.204 2.822,122.71 3.47964,123.069 C4.13727,123.338 4.61556,126.118 3.44974,127.014 Z" fill="#5e985b" fill-opacity="1" />
		<path d="M8.56138,121.155 C7.48525,120.617 7.30589,118.077 7.96353,117.598 C8.62117,117.12 9.12934,118.286 9.12934,118.286 C9.12934,118.286 10.0859,116.672 10.7137,116.97 C11.3414,117.24 10.7137,119.033 10.7137,119.033 C10.7137,119.033 12.2083,118.674 12.2083,119.392 C12.1186,120.139 9.84677,121.843 8.56138,121.155 Z" fill="#5e985b" fill-opacity="1" />
		<path d="M8.83042,127.403 C7.75428,126.895 7.51514,124.384 8.20267,123.846 C8.8902,123.308 9.36848,124.474 9.36848,124.474 C9.36848,124.474 10.2653,122.859 10.893,123.128 C11.5208,123.397 10.9528,125.191 10.9528,125.191 C10.9528,125.191 12.4474,124.772 12.4474,125.52 C12.3876,126.267 10.1158,128.031 8.83042,127.403 Z" fill="#5e985b" fill-opacity="1" />
		<path d="M-124.074,40.253 C-124.074,40.253 -124.254,39.9242 -124.493,39.4459 C-124.642,39.1769 -124.762,38.848 -124.911,38.4594 C-125.061,38.1007 -125.24,37.6523 -125.36,37.1442 C-125.449,36.905 -125.539,36.636 -125.599,36.367 C-125.688,36.0979 -125.748,35.8289 -125.838,35.5599 C-125.928,35.2908 -125.987,34.962 -126.017,34.693 C-126.077,34.3642 -126.167,34.0951 -126.197,33.7364 C-126.256,33.4076 -126.286,33.1087 -126.346,32.7798 C-126.406,32.451 -126.436,32.1521 -126.436,31.7934 C-126.525,31.1059 -126.525,30.4781 -126.585,29.7607 C-126.585,29.4319 -126.585,29.0732 -126.525,28.7144 C-126.525,28.5351 -126.525,28.3856 -126.525,28.2063 C-126.525,28.0269 -126.466,27.8775 -126.466,27.6981 C-126.406,27.3693 -126.406,27.0106 -126.376,26.7116 C-126.316,26.3828 -126.286,26.0839 -126.226,25.7551 C-126.167,25.5757 -126.167,25.4263 -126.137,25.2469 C-126.077,25.0974 -126.047,24.9181 -126.047,24.7985 C-125.957,24.4697 -125.898,24.2007 -125.868,23.9316 C-125.808,23.6626 -125.718,23.3936 -125.629,23.1245 C-125.539,22.8555 -125.479,22.5865 -125.389,22.3473 C-125.33,22.1082 -125.21,21.8391 -125.15,21.6598 C-125.061,21.4206 -125.001,21.2413 -124.911,21.032 C-124.762,20.6135 -124.642,20.3146 -124.493,20.0456 C-124.254,19.5075 -124.134,19.1787 -124.134,19.1787 L-124.134,19.1787 C-124.074,19.089 -124.134,19.0292 -124.224,18.9993 C-124.313,18.9396 -124.373,18.9993 -124.403,19.0591 C-124.403,19.0591 -124.582,19.3879 -124.851,19.8662 C-125.001,20.1353 -125.18,20.4641 -125.36,20.8527 C-125.539,21.2114 -125.718,21.6598 -125.898,22.168 C-125.987,22.4071 -126.077,22.6761 -126.137,22.9452 C-126.226,23.2142 -126.316,23.4832 -126.376,23.7523 C-126.525,24.3501 -126.705,24.9181 -126.735,25.6056 C-126.794,25.9344 -126.824,26.2334 -126.884,26.5921 C-126.944,26.9209 -126.944,27.2796 -126.974,27.6383 C-127.034,27.8177 -127.034,27.9671 -127.034,28.1764 C-127.034,28.3557 -127.034,28.5052 -127.093,28.7144 C-127.093,29.0732 -127.093,29.402 -127.093,29.7607 C-127.034,30.4482 -127.034,31.1656 -126.944,31.8233 C-126.884,32.1521 -126.854,32.5108 -126.794,32.8097 C-126.735,33.1386 -126.705,33.4973 -126.615,33.7962 C-126.555,34.125 -126.466,34.4239 -126.436,34.7528 C-126.346,35.0816 -126.286,35.3506 -126.197,35.6196 C-126.107,35.8887 -126.017,36.2175 -125.957,36.4267 C-125.868,36.6958 -125.778,36.9648 -125.688,37.204 C-125.509,37.7121 -125.33,38.1605 -125.15,38.5192 C-124.971,38.8779 -124.792,39.2366 -124.642,39.5057 C-124.493,39.7747 -124.373,39.9541 -124.283,40.1035 C-124.194,40.253 -124.134,40.3427 -124.134,40.3427 C-124.074,40.4324 -123.985,40.4324 -123.955,40.4025 C-124.074,40.3726 -124.074,40.2829 -124.074,40.253 Z" fill="#5e985b" fill-opacity="1" />
		<path d="M-126.914,29.3721 C-126.914,29.3123 -126.914,29.3123 -126.974,29.2824 C-128.289,27.3992 -128.857,24.8583 -128.857,24.8284 C-128.917,24.7387 -128.947,24.6789 -129.036,24.6789 C-129.126,24.6789 -129.186,24.7686 -129.186,24.8583 C-129.126,25.0078 -128.588,27.5187 -127.243,29.4618 C-127.183,29.5514 -127.093,29.5514 -127.004,29.5215 C-126.914,29.4917 -126.914,29.402 -126.914,29.3721 Z" fill="#5e985b" fill-opacity="1" />
		<path d="M-126.167,35.231 C-126.167,35.1713 -126.226,35.1414 -126.256,35.1414 C-127.96,34.4239 -129.156,32.3912 -129.156,32.3912 C-129.216,32.3016 -129.305,32.3016 -129.395,32.3315 C-129.485,32.3912 -129.485,32.4809 -129.455,32.5706 C-129.395,32.6603 -128.229,34.693 -126.436,35.4702 C-126.346,35.53 -126.256,35.4702 -126.256,35.3805 C-126.167,35.3207 -126.167,35.2609 -126.167,35.231 Z" fill="#5e985b" fill-opacity="1" />
		<path d="M-123.506,33.1087 C-123.506,33.0489 -123.566,32.9592 -123.596,32.9592 C-123.686,32.8994 -123.775,32.9592 -123.775,33.0489 C-123.775,33.1087 -124.822,35.6196 -125.718,36.6061 C-125.778,36.6958 -125.778,36.7855 -125.718,36.8452 C-125.629,36.905 -125.539,36.905 -125.479,36.8452 C-124.493,35.799 -123.506,33.288 -123.446,33.1386 C-123.506,33.1684 -123.506,33.1684 -123.506,33.1087 Z" fill="#5e985b" fill-opacity="1" />
		<path d="M-123.865,26.6519 C-123.865,26.5921 -123.925,26.5622 -123.955,26.5024 C-124.044,26.4426 -124.134,26.5024 -124.194,26.5921 C-124.254,26.6519 -125.419,29.3123 -126.854,30.6874 C-126.944,30.7471 -126.944,30.8667 -126.854,30.9265 C-126.794,31.0162 -126.675,31.0162 -126.615,30.9265 C-125.12,29.4917 -123.955,26.8312 -123.865,26.7415 C-123.865,26.7116 -123.865,26.6519 -123.865,26.6519 Z" fill="#5e985b" fill-opacity="1" />
		<path d="M-125.36,21.331 C-126.645,20.8228 -127.572,18.2221 -126.914,17.6243 C-126.256,17.0264 -125.419,18.2221 -125.419,18.2221 C-125.419,18.2221 -124.792,16.4585 -124.014,16.6976 C-123.237,16.9368 -123.506,18.8499 -123.506,18.8499 C-123.506,18.8499 -121.922,18.3118 -121.802,19.1189 C-121.653,19.926 -123.715,21.9288 -125.36,21.331 Z" fill="#5e985b" fill-opacity="1" />
		<path d="M-129.186,25.1572 C-130.441,25.5159 -132.564,23.842 -132.384,23.0348 C-132.205,22.2277 -130.95,22.6761 -130.95,22.6761 C-130.95,22.6761 -131.458,20.8826 -130.71,20.6434 C-129.963,20.4043 -129.126,22.1381 -129.126,22.1381 C-129.126,22.1381 -128.199,20.8228 -127.691,21.3908 C-127.123,21.9288 -127.602,24.7088 -129.186,25.1572 Z" fill="#5e985b" fill-opacity="1" />
		<path d="M-129.186,32.8695 C-130.142,33.5869 -132.534,32.6005 -132.623,31.7934 C-132.773,30.9863 -131.488,31.076 -131.488,31.076 C-131.488,31.076 -132.534,29.4917 -131.996,29.1031 C-131.458,28.6846 -130.142,30.0596 -130.142,30.0596 C-130.142,30.0596 -129.814,28.565 -129.156,28.9237 C-128.498,29.1927 -128.02,31.9727 -129.186,32.8695 Z" fill="#5e985b" fill-opacity="1" />
		<path d="M-124.074,27.0106 C-125.15,26.4725 -125.33,23.9316 -124.672,23.4533 C-124.014,22.9751 -123.506,24.1409 -123.506,24.1409 C-123.506,24.1409 -122.55,22.5267 -121.922,22.8256 C-121.294,23.0946 -121.922,24.8882 -121.922,24.8882 C-121.922,24.8882 -120.427,24.5295 -120.427,25.2469 C-120.517,25.9942 -122.789,27.6981 -124.074,27.0106 Z" fill="#5e985b" fill-opacity="1" />
		<path d="M-123.805,33.2581 C-124.881,32.75 -125.12,30.239 -124.433,29.7009 C-123.745,29.1628 -123.267,30.3286 -123.267,30.3286 C-123.267,30.3286 -122.37,28.7144 -121.743,28.9835 C-121.115,29.2525 -121.683,31.0461 -121.683,31.0461 C-121.683,31.0461 -120.188,30.6276 -120.188,31.3749 C-120.248,32.1222 -122.52,33.8859 -123.805,33.2581 Z" fill="#5e985b" fill-opacity="1" />
		<path d="M95.5786,4.15824 C95.5786,4.15824 95.3295,4.40733 94.9559,4.90551 C94.5823,5.43482 94.1152,6.11981 93.5859,7.02276 C93.0566,7.92571 92.5584,9.0466 92.1225,10.2609 C91.9357,10.8836 91.7489,11.5375 91.5932,12.2225 C91.4375,12.8763 91.4064,13.5925 91.3441,14.2775 C91.2819,14.9936 91.3441,15.6475 91.4375,16.3324 C91.4998,16.5193 91.4998,16.6749 91.4998,16.8618 C91.5621,17.0486 91.5621,17.2043 91.5932,17.3911 C91.6555,17.5779 91.6866,17.7336 91.6866,17.9204 C91.7489,18.0761 91.78,18.2629 91.8423,18.3874 C91.9046,18.5431 91.9357,18.7299 91.998,18.8545 C92.0603,19.0102 92.0914,19.1347 92.1537,19.2904 C92.2159,19.4461 92.2471,19.5706 92.3093,19.7263 C92.3716,19.882 92.4028,20.0065 92.4962,20.1622 C92.683,20.7226 92.9321,21.2519 93.2123,21.719 C93.4925,22.1549 93.7416,22.5597 93.9596,22.9333 C94.2086,23.2758 94.3955,23.5872 94.6134,23.8362 C94.987,24.3033 95.2361,24.5835 95.2361,24.5835 L95.2361,24.5835 C95.2984,24.6458 95.2984,24.7392 95.1739,24.7703 C95.1116,24.8326 95.0182,24.8326 94.987,24.7081 L94.987,24.7081 C94.987,24.7081 94.738,24.4278 94.3643,23.9608 C94.1775,23.7117 93.9907,23.4003 93.7105,23.0578 C93.4614,22.7153 93.2434,22.2483 92.9632,21.8435 C92.7141,21.3765 92.4339,20.8472 92.2159,20.2867 C92.1225,20.131 92.0603,20.0065 92.0291,19.8508 C91.998,19.6951 91.9357,19.5706 91.8423,19.4149 C91.78,19.2592 91.7489,19.1347 91.6866,18.9479 C91.6243,18.7922 91.5932,18.6054 91.5309,18.4808 C91.4687,18.294 91.4375,18.1383 91.3753,17.9515 C91.313,17.7647 91.313,17.609 91.2819,17.4222 C91.2507,17.2354 91.1884,17.0797 91.1884,16.8929 C91.1884,16.7061 91.1262,16.5504 91.1262,16.3636 C91.0328,15.6475 91.0328,14.9625 91.0639,14.2463 C91.1262,13.5302 91.2196,12.8452 91.3441,12.1291 C91.4998,11.4129 91.6866,10.7591 91.8734,10.1675 C92.0603,9.51365 92.3093,8.9532 92.5896,8.39275 C92.8387,7.8323 93.1189,7.30298 93.3991,6.83594 C94.4889,4.99891 95.4541,3.90915 95.4541,3.90915 L95.4541,3.90915 C95.5164,3.84688 95.6098,3.84688 95.6409,3.90915 C95.6098,4.06483 95.6098,4.1271 95.5786,4.15824 Z" fill="#5e985b" fill-opacity="1" />
		<path d="M90.5346,6.83594 C90.5346,6.83594 90.5346,7.02276 90.4723,7.30298 C90.4723,7.58321 90.41,8.01911 90.41,8.51729 C90.41,9.01547 90.41,9.63819 90.4723,10.2609 C90.5346,10.9148 90.5346,11.5686 90.628,12.2848 C90.6903,13.0009 90.7837,13.6547 90.8771,14.3086 C90.9394,14.6511 90.9705,14.9313 91.0328,15.2115 C91.095,15.4918 91.1262,15.772 91.1884,16.0211 C91.2819,16.5504 91.3753,16.924 91.4687,17.2354 C91.5621,17.5779 91.6243,17.7024 91.6243,17.7024 L91.6243,17.7024 C91.6243,17.7647 91.6243,17.7647 91.5621,17.7958 C91.4998,17.7958 91.4998,17.7958 91.4687,17.7336 C91.4687,17.7336 91.4064,17.5468 91.313,17.2977 C91.2196,17.0174 91.0639,16.5815 90.9705,16.0834 C90.8771,15.8343 90.8148,15.554 90.7837,15.2738 C90.7214,14.9936 90.628,14.6511 90.5969,14.3709 C90.5346,14.0284 90.4412,13.717 90.4412,13.3745 C90.3789,13.032 90.3478,12.6584 90.2855,12.347 C90.1921,11.6309 90.1298,10.977 90.1298,10.3232 C90.0675,9.66933 90.0675,9.0466 90.1298,8.54843 C90.1921,8.01911 90.1921,7.55207 90.2232,7.27185 C90.2855,6.99162 90.2855,6.80481 90.2855,6.80481 C90.2855,6.7114 90.3789,6.64913 90.4412,6.7114 C90.5035,6.7114 90.5346,6.80481 90.5346,6.83594 L90.5346,6.83594 Z" fill="#5e985b" fill-opacity="1" />
		<path d="M96.6061,9.85614 C96.6061,9.85614 96.2636,9.91842 95.7032,10.043 C95.423,10.1364 95.1427,10.1986 94.8002,10.292 C94.4577,10.3855 94.1464,10.5411 93.8039,10.6657 C93.6171,10.7591 93.4614,10.8214 93.3368,10.9148 C93.1812,11.0082 93.0566,11.1016 92.9009,11.1639 C92.7452,11.2573 92.6207,11.3507 92.5273,11.4441 C92.3716,11.5375 92.2782,11.6309 92.1848,11.7243 C92.0914,11.8177 91.998,11.9111 91.9357,11.9734 C91.8423,12.0668 91.78,12.1291 91.7489,12.2225 C91.6555,12.3782 91.5932,12.4093 91.5932,12.4093 L91.5932,12.4093 C91.5309,12.4716 91.5309,12.4716 91.4998,12.4093 C91.4375,12.347 91.4375,12.347 91.4375,12.3159 C91.4375,12.3159 91.4998,12.2225 91.5932,12.0668 C91.6555,11.9734 91.6866,11.88 91.7489,11.8177 C91.8423,11.7243 91.9046,11.6309 91.998,11.5375 C92.0914,11.4441 92.1848,11.3507 92.3405,11.195 C92.4962,11.1016 92.6207,11.0082 92.7141,10.8525 C92.9943,10.6657 93.3368,10.4789 93.7105,10.3232 C94.053,10.1675 94.4266,10.043 94.738,9.94955 C95.0805,9.85614 95.3918,9.76273 95.6409,9.70046 C96.2014,9.60705 96.5438,9.54478 96.5438,9.54478 C96.6373,9.54478 96.6995,9.60705 96.6995,9.70046 C96.7307,9.76273 96.6995,9.85614 96.6061,9.85614 Z" fill="#5e985b" fill-opacity="1" />
		<path d="M91.998,2.66371 C91.998,2.66371 92.2471,2.94393 92.4339,3.37984 C92.5896,3.62893 92.683,3.90915 92.8075,4.18938 C92.9009,4.4696 93.0566,4.84323 93.0877,5.18573 C93.15,5.37255 93.15,5.52823 93.1812,5.71504 C93.2434,5.90186 93.2434,6.05754 93.2434,6.24436 C93.3057,6.43117 93.2434,6.58685 93.2434,6.7114 C93.2434,6.86708 93.2434,6.99162 93.1812,7.1473 C93.1189,7.30298 93.1189,7.39639 93.1189,7.4898 C93.0566,7.58321 93.0566,7.67662 93.0566,7.77003 C92.9943,7.92571 92.9943,8.01911 92.9943,8.01911 C92.9943,8.11252 92.9009,8.11252 92.8387,8.11252 C92.7764,8.11252 92.7452,8.01911 92.7452,7.95684 L92.7452,7.95684 L92.7452,7.89457 C92.7452,7.89457 92.8075,7.80116 92.8075,7.64548 C92.8698,7.55207 92.8698,7.4898 92.8698,7.39639 C92.9321,7.30298 92.9321,7.1473 92.9321,7.0539 C92.9321,6.96049 92.9943,6.77367 92.9943,6.68026 C92.9943,6.52458 93.0566,6.40004 92.9943,6.24436 C92.9321,6.08868 92.9943,5.90186 92.9321,5.77732 C92.8698,5.5905 92.8698,5.43482 92.8387,5.248 C92.7764,4.90551 92.6518,4.59414 92.5584,4.31392 C92.465,4.0337 92.3093,3.75347 92.2159,3.50438 C91.9668,3.06848 91.78,2.78825 91.78,2.78825 C91.7178,2.72598 91.7178,2.69484 91.8423,2.63257 C91.9046,2.63257 91.9357,2.63257 91.998,2.66371 L91.998,2.66371 Z" fill="#5e985b" fill-opacity="1" />
		<path d="M94.8625,16.3947 C94.8625,16.3947 94.6757,16.7684 94.4889,17.3911 C94.3955,17.6713 94.2398,18.0449 94.1464,18.4186 C93.9907,18.7922 93.8973,19.1658 93.8661,19.6017 C93.8039,19.7886 93.7727,19.9754 93.7105,20.2245 C93.6482,20.4113 93.6482,20.5981 93.6171,20.8472 C93.6171,21.034 93.5548,21.2208 93.5548,21.4076 C93.5548,21.5944 93.5548,21.7501 93.5548,21.9369 C93.6171,22.0926 93.6171,22.2172 93.6171,22.3728 C93.6171,22.5285 93.6793,22.6219 93.6793,22.7153 C93.7416,22.9022 93.7416,22.9956 93.7416,22.9956 L93.7416,23.0578 C93.7416,23.1201 93.6793,23.1513 93.6482,23.1513 C93.5859,23.1513 93.5548,23.089 93.5548,23.089 C93.5548,23.089 93.4925,22.9956 93.4614,22.8088 C93.3991,22.7153 93.3991,22.6219 93.368,22.4663 C93.3057,22.3106 93.3057,22.186 93.3057,22.0304 C93.3057,21.8747 93.3057,21.6879 93.2434,21.501 C93.2434,21.3142 93.3057,21.1274 93.3057,20.9406 C93.368,20.7538 93.368,20.567 93.3991,20.3179 C93.4614,20.131 93.4925,19.882 93.4925,19.6951 C93.5859,19.2592 93.6793,18.8856 93.7727,18.4808 C93.8661,18.1072 94.0218,17.7647 94.1152,17.4533 C94.3643,16.8306 94.4889,16.457 94.4889,16.457 C94.5511,16.3947 94.5823,16.3636 94.6757,16.3947 C94.8625,16.239 94.9248,16.3013 94.8625,16.3947 L94.8625,16.3947 Z" fill="#5e985b" fill-opacity="1" />
		<path d="M91.998,19.9754 C91.998,19.9754 91.8112,19.882 91.5309,19.7263 C91.2507,19.5395 90.8771,19.3526 90.5346,19.0724 C90.3478,18.9167 90.1921,18.7922 90.0053,18.6365 C89.8496,18.4808 89.725,18.3563 89.6316,18.2629 C89.5382,18.1072 89.4448,18.0138 89.3826,17.9204 C89.3203,17.827 89.2891,17.7647 89.2891,17.7647 C89.2269,17.7024 89.2269,17.609 89.3514,17.5779 C89.4137,17.5156 89.5071,17.5156 89.5071,17.6402 L89.5071,17.6402 C89.5071,17.6402 89.5694,17.7024 89.6005,17.7336 C89.6628,17.827 89.7562,17.9204 89.8496,18.0138 C89.943,18.1695 90.0987,18.2629 90.2232,18.3874 C90.3789,18.5431 90.5035,18.6677 90.6903,18.8233 C91.0328,19.1036 91.3441,19.3838 91.5932,19.5706 C91.8423,19.7574 92.0291,19.8197 92.0291,19.8197 C92.0914,19.882 92.0291,19.9754 91.9668,20.0065 C92.0291,19.9754 92.0291,19.9754 91.998,19.9754 Z" fill="#5e985b" fill-opacity="1" />
		<path d="M90.3478,7.45866 C90.3478,7.45866 90.9082,6.55572 91.1884,6.15095 C91.6243,5.52823 91.5309,4.65642 90.7214,4.40733 C90.0053,4.22051 89.2269,5.12346 89.725,6.15095 C90.2544,7.17844 90.2544,7.17844 90.3478,7.45866 Z" fill="#5e985b" fill-opacity="1" />
		<path d="M96.0768,9.85614 C96.0768,9.85614 97.1666,10.1052 97.6336,10.2298 C98.3497,10.4789 99.1904,10.043 99.1281,9.20229 C99.0347,8.45502 98.0072,8.01911 97.1666,8.82865 C96.357,9.66933 96.3259,9.7316 96.0768,9.85614 Z" fill="#5e985b" fill-opacity="1" />
		<path d="M95.6098,5.49709 C95.6098,5.49709 96.6995,5.77732 97.1666,5.933 C97.8827,6.18208 98.7234,5.77732 98.6611,4.93664 C98.5988,4.18938 97.5402,3.72233 96.6995,4.50074 C95.89,5.31027 95.8589,5.31027 95.6098,5.49709 Z" fill="#5e985b" fill-opacity="1" />
		<path d="M95.205,9.0466 C95.205,9.0466 96.1079,8.6107 96.5127,8.42388 C97.1666,8.17479 97.5091,7.42753 96.9798,6.86708 C96.5127,6.33777 95.5164,6.68026 95.3918,7.70775 C95.2361,8.82865 95.2361,8.85979 95.205,9.0466 Z" fill="#5e985b" fill-opacity="1" />
		<path d="M93.5859,2.75712 C93.5859,2.75712 94.1464,1.94758 94.4889,1.63622 C94.9248,1.1069 94.8625,0.328501 94.2086,0.0482768 C93.5548,-0.200812 92.8387,0.546454 93.1812,1.54281 C93.5548,2.53916 93.5548,2.5703 93.5859,2.75712 Z" fill="#5e985b" fill-opacity="1" />
		<path d="M88.9778,7.55207 C88.9778,7.55207 88.6041,6.64913 88.4485,6.24436 C88.2928,5.5905 87.5767,5.21687 86.9539,5.68391 C86.4246,6.11981 86.6737,7.1473 87.7012,7.33412 C88.7598,7.52094 88.791,7.52094 88.9778,7.55207 Z" fill="#5e985b" fill-opacity="1" />
		<path d="M89.3514,10.6657 C89.3514,10.6657 89.0712,9.66933 88.8221,9.26456 C88.4796,8.64184 87.9192,8.2682 87.3276,8.73524 C86.7983,9.17115 87.0473,10.1986 88.0748,10.3855 C89.0712,10.5723 89.1335,10.5723 89.3514,10.6657 Z" fill="#5e985b" fill-opacity="1" />
		<path d="M93.3991,16.6749 C93.3991,16.6749 93.6482,15.6786 93.7727,15.305 C94.0218,14.6511 93.6171,13.935 92.8698,13.9972 C92.2159,14.0595 91.78,15.0247 92.4962,15.7409 C93.2123,16.4881 93.2746,16.4881 93.3991,16.6749 Z" fill="#5e985b" fill-opacity="1" />
		<path d="M95.5786,17.7958 C95.5786,17.7958 96.575,18.0449 96.9486,18.1695 C97.6025,18.4186 98.3186,18.0138 98.2563,17.2665 C98.1941,16.6127 97.2288,16.1768 96.5127,16.8929 C95.7966,17.6713 95.7654,17.6713 95.5786,17.7958 Z" fill="#5e985b" fill-opacity="1" />
		<path d="M95.89,11.1639 C95.89,11.1639 96.6373,11.9111 96.9798,12.347 C97.4468,12.9698 98.3497,13.0632 98.7545,12.2848 C99.097,11.6309 98.412,10.6968 97.2911,10.9148 C96.1702,11.1327 96.1391,11.1327 95.89,11.1639 Z" fill="#5e985b" fill-opacity="1" />
		<path d="M94.52,16.8618 C94.52,16.8618 95.5164,16.3324 95.9834,16.1456 C96.6995,15.8654 97.0732,15.0247 96.5127,14.4643 C95.9834,13.935 94.8625,14.2775 94.7691,15.4606 C94.5823,16.5193 94.5823,16.5815 94.52,16.8618 Z" fill="#5e985b" fill-opacity="1" />
		<path d="M95.3918,4.25165 C95.3918,4.25165 96.3882,3.72233 96.8552,3.59779 C97.5402,3.31757 97.9138,2.47689 97.3534,1.91644 C96.8241,1.35599 95.7032,1.72963 95.6098,2.85052 C95.423,3.97142 95.423,4.0337 95.3918,4.25165 Z" fill="#5e985b" fill-opacity="1" />
		<path d="M92.1848,3.03734 C92.1848,3.03734 92.1225,1.94758 92.1848,1.4494 C92.2471,0.702134 91.6243,-0.0139954 90.8771,0.266229 C90.161,0.515318 90.0364,1.63622 91.0328,2.29007 C91.9046,2.85052 91.9357,2.9128 92.1848,3.03734 Z" fill="#5e985b" fill-opacity="1" />
		<path d="M89.725,18.0449 C89.725,18.0449 89.3826,17.0174 89.2891,16.4881 C89.1023,15.7409 88.3551,15.2738 87.6389,15.7409 C87.0162,16.1768 87.203,17.3288 88.3551,17.609 C89.4448,17.9515 89.5071,17.9515 89.725,18.0449 Z" fill="#5e985b" fill-opacity="1" />
		<path d="M89.6005,18.9167 C89.6005,18.9167 88.6664,18.5742 88.2928,18.3874 C87.6701,18.1072 86.8917,18.4497 86.8917,19.1347 C86.8294,19.7886 87.7946,20.3179 88.6353,19.664 C89.3514,19.1036 89.4137,19.0724 89.6005,18.9167 Z" fill="#5e985b" fill-opacity="1" />
		<path d="M96.1391,17.7024 C96.1391,17.7024 95.9834,17.7647 95.7654,17.8581 C95.5164,17.9515 95.2361,18.0449 94.9559,18.2317 C94.6757,18.3874 94.3955,18.5742 94.2398,18.7611 C94.1464,18.8545 94.053,18.9167 94.053,18.9479 C93.9907,19.0102 93.9596,19.0413 93.9596,19.0413 L93.9596,19.0413 C93.8973,19.1036 93.8039,19.1036 93.7727,19.0413 C93.7105,18.979 93.7105,18.8856 93.7727,18.8545 L93.7727,18.8545 C93.7727,18.8545 93.835,18.7922 93.8661,18.7611 C93.9284,18.6988 94.0218,18.6054 94.1152,18.5742 C94.3021,18.3874 94.6445,18.2317 94.9248,18.0449 C95.205,17.8893 95.5475,17.7647 95.7654,17.7024 C96.0145,17.609 96.1391,17.609 96.1391,17.609 L96.1391,17.609 C96.2014,17.609 96.2325,17.6713 96.2325,17.6713 C96.2325,17.6713 96.1702,17.6713 96.1391,17.7024 Z" fill="#5e985b" fill-opacity="1" />
		<path d="M93.4614,16.3947 C93.4614,16.3947 93.5237,17.0486 93.6171,17.6713 C93.6793,18.0138 93.7105,18.3252 93.7727,18.512 C93.835,18.6677 93.835,18.6988 93.8661,18.7922 C93.9284,18.8545 93.9284,18.8856 93.9284,18.8856 L93.9284,18.8856 C93.9907,18.9479 93.9284,18.979 93.8661,18.979 C93.8039,19.0413 93.7727,18.979 93.7727,18.9167 C93.7727,18.9167 93.7105,18.8545 93.7105,18.7611 C93.6482,18.6677 93.6482,18.5742 93.6171,18.4808 C93.5548,18.2317 93.4614,17.9204 93.4302,17.6402 C93.3368,16.9863 93.2434,16.3636 93.2434,16.3636 C93.2434,16.2702 93.3057,16.2079 93.3368,16.2079 C93.368,16.3013 93.4614,16.3324 93.4614,16.3947 L93.4614,16.3947 Z" fill="#5e985b" fill-opacity="1" />
		<path d="M91.0016,19.3526 C91.0016,19.3526 90.8459,19.2904 90.7214,19.197 C90.5346,19.1036 90.2855,19.0413 90.0675,19.0102 C89.8185,18.9479 89.5382,18.9167 89.3514,18.9167 C89.258,18.9167 89.1646,18.9167 89.1023,18.9167 C89.0401,18.9167 89.0089,18.9167 89.0089,18.9167 L89.0089,18.9167 C88.9466,18.9167 88.9466,18.8545 88.9466,18.8545 C88.9466,18.7922 88.9466,18.7922 89.0089,18.7922 C89.0089,18.7922 89.0712,18.7922 89.1023,18.7299 C89.1646,18.7299 89.258,18.6677 89.3514,18.6677 C89.5382,18.6054 89.8185,18.6677 90.0675,18.7299 C90.3478,18.7922 90.5969,18.8233 90.7837,18.8856 C90.9705,18.9479 91.1262,18.979 91.1262,18.979 L91.1262,18.979 C91.2196,19.0413 91.2196,19.0724 91.2196,19.1347 C91.1573,19.3526 91.095,19.3838 91.0016,19.3526 C91.0016,19.3838 91.0016,19.3526 91.0016,19.3526 Z" fill="#5e985b" fill-opacity="1" />
		<path d="M90.3166,10.0118 C90.2544,10.0118 90.2232,9.94955 90.2232,9.91842 C89.7873,8.23707 88.2928,6.99162 88.2617,6.99162 C88.1994,6.92935 88.1994,6.89822 88.1994,6.83594 C88.2617,6.77367 88.2928,6.77367 88.3551,6.77367 C88.4485,6.83594 89.943,8.05025 90.3789,9.82501 C90.4412,9.91842 90.41,10.0118 90.3166,10.0118 C90.3478,10.0118 90.3478,10.0118 90.3166,10.0118 Z" fill="#5e985b" fill-opacity="1" />
		<path d="M93.835,2.10326 C93.835,2.10326 93.7727,2.29007 93.7416,2.53916 C93.6793,2.81939 93.5859,3.16188 93.4925,3.47325 C93.3991,3.78461 93.2746,4.1271 93.1812,4.34506 C93.0877,4.56301 92.9943,4.71869 92.9943,4.71869 L92.9943,4.71869 C92.9321,4.78096 92.9009,4.8121 92.8387,4.78096 C92.7764,4.71869 92.7764,4.68755 92.7764,4.62528 C92.7764,4.62528 92.8698,4.4696 92.9321,4.25165 C93.0255,4.00256 93.1189,3.6912 93.2123,3.3487 C93.3057,3.0062 93.3991,2.69484 93.3991,2.41462 C93.4614,2.19667 93.4925,2.00985 93.4925,2.00985 L93.4925,2.00985 C93.4925,1.91644 93.5859,1.85417 93.6482,1.85417 C93.7727,1.94758 93.835,2.00985 93.835,2.10326 L93.835,2.10326 Z" fill="#5e985b" fill-opacity="1" />
		<path d="M96.5127,11.3195 C96.4504,11.3195 96.4504,11.3195 96.5127,11.3195 C95.4852,11.1327 94.0218,10.5723 93.9596,10.51 C93.8973,10.4477 93.8661,10.4477 93.8661,10.4166 C93.8661,10.3543 93.9284,10.3232 93.9284,10.3232 C94.8625,9.60705 95.5786,8.20593 95.5786,8.20593 C95.6409,8.14366 95.672,8.11252 95.7343,8.14366 C95.7966,8.20593 95.8277,8.23707 95.7966,8.29934 C95.7343,8.36161 95.1427,9.60705 94.2398,10.3543 C94.6757,10.5411 95.7343,10.9148 96.4816,11.0704 C96.575,11.0704 96.575,11.1639 96.575,11.2261 C96.6061,11.2573 96.5438,11.3195 96.5127,11.3195 Z" fill="#5e985b" fill-opacity="1" />
		<path d="M94.053,6.24436 C93.9907,6.24436 93.9596,6.18208 93.9596,6.18208 C93.8973,6.11981 93.8973,6.0264 94.0218,6.0264 C94.8314,5.40368 96.357,5.12346 96.4504,5.12346 C96.5438,5.12346 96.6061,5.21687 96.6061,5.248 C96.6061,5.31027 96.5438,5.40368 96.5127,5.40368 C96.4193,5.34141 94.8625,5.68391 94.053,6.24436 C94.1152,6.18208 94.1152,6.24436 94.053,6.24436 Z" fill="#5e985b" fill-opacity="1" />
		<path d="M90.5035,12.9075 C90.4412,12.9075 90.41,12.8452 90.41,12.8141 C90.41,12.7518 89.8807,11.0704 88.6664,10.2298 C88.6041,10.1675 88.573,10.1364 88.6041,10.0741 C88.6664,10.0118 88.6976,9.98069 88.7598,10.0118 C90.0675,10.9148 90.5346,12.6584 90.5969,12.6895 C90.628,12.8141 90.5969,12.9075 90.5035,12.9075 C90.5035,12.8763 90.5035,12.9075 90.5035,12.9075 Z" fill="#5e985b" fill-opacity="1" />
		<path d="M-49.8911,28.9695 C-49.8911,28.9695 -50.1402,29.2186 -50.5138,29.7167 C-50.8875,30.246 -51.3545,30.931 -51.8838,31.834 C-52.4131,32.7369 -52.9113,33.8578 -53.3472,35.0721 C-53.534,35.6949 -53.7209,36.3487 -53.8765,37.0337 C-54.0322,37.6876 -54.0634,38.4037 -54.1256,39.0887 C-54.1879,39.8048 -54.1256,40.4587 -54.0322,41.1437 C-53.9699,41.3305 -53.9699,41.4862 -53.9699,41.673 C-53.9077,41.8598 -53.9077,42.0155 -53.8765,42.2023 C-53.8143,42.3891 -53.7831,42.5448 -53.7831,42.7316 C-53.7209,42.8873 -53.6897,43.0741 -53.6275,43.1987 C-53.5652,43.3543 -53.534,43.5412 -53.4718,43.6657 C-53.4095,43.8214 -53.3784,43.9459 -53.3161,44.1016 C-53.2538,44.2573 -53.2227,44.3818 -53.1604,44.5375 C-53.0981,44.6932 -53.067,44.8177 -52.9736,44.9734 C-52.7868,45.5339 -52.5377,46.0632 -52.2575,46.5302 C-51.9772,46.9661 -51.7282,47.3709 -51.5102,47.7445 C-51.2611,48.087 -51.0743,48.3984 -50.8563,48.6475 C-50.4827,49.1145 -50.2336,49.3947 -50.2336,49.3947 L-50.2336,49.3947 C-50.1713,49.457 -50.1713,49.5504 -50.2959,49.5816 C-50.3582,49.6438 -50.4516,49.6438 -50.4827,49.5193 L-50.4827,49.5193 C-50.4827,49.5193 -50.7318,49.2391 -51.1054,48.772 C-51.2922,48.5229 -51.4791,48.2116 -51.7593,47.8691 C-52.0084,47.5266 -52.2263,47.0595 -52.5066,46.6548 C-52.7556,46.1877 -53.0359,45.6584 -53.2538,45.098 C-53.3472,44.9423 -53.4095,44.8177 -53.4406,44.6621 C-53.4718,44.5064 -53.534,44.3818 -53.6275,44.2262 C-53.6897,44.0705 -53.7209,43.9459 -53.7831,43.7591 C-53.8454,43.6034 -53.8765,43.4166 -53.9388,43.2921 C-54.0011,43.1053 -54.0322,42.9496 -54.0945,42.7628 C-54.1568,42.5759 -54.1568,42.4203 -54.1879,42.2334 C-54.219,42.0466 -54.2813,41.8909 -54.2813,41.7041 C-54.2813,41.5173 -54.3436,41.3616 -54.3436,41.1748 C-54.437,40.4587 -54.437,39.7737 -54.4059,39.0576 C-54.3436,38.3414 -54.2502,37.6564 -54.1256,36.9403 C-53.9699,36.2242 -53.7831,35.5703 -53.5963,34.9787 C-53.4095,34.3249 -53.1604,33.7644 -52.8802,33.204 C-52.6311,32.6435 -52.3509,32.1142 -52.0706,31.6472 C-50.9809,29.8101 -50.0157,28.7204 -50.0157,28.7204 L-50.0157,28.7204 C-49.9534,28.6581 -49.86,28.6581 -49.8289,28.7204 C-49.86,28.8761 -49.86,28.9383 -49.8911,28.9695 Z" fill="#5e985b" fill-opacity="1" />
		<path d="M-54.9352,31.6472 C-54.9352,31.6472 -54.9352,31.834 -54.9974,32.1142 C-54.9974,32.3944 -55.0597,32.8303 -55.0597,33.3285 C-55.0597,33.8267 -55.0597,34.4494 -54.9974,35.0721 C-54.9352,35.726 -54.9352,36.3799 -54.8418,37.096 C-54.7795,37.8121 -54.6861,38.466 -54.5927,39.1198 C-54.5304,39.4623 -54.4993,39.7426 -54.437,40.0228 C-54.3747,40.303 -54.3436,40.5832 -54.2813,40.8323 C-54.1879,41.3616 -54.0945,41.7353 -54.0011,42.0466 C-53.9077,42.3891 -53.8454,42.5137 -53.8454,42.5137 L-53.8454,42.5137 C-53.8454,42.5759 -53.8454,42.5759 -53.9077,42.6071 C-53.9699,42.6071 -53.9699,42.6071 -54.0011,42.5448 C-54.0011,42.5448 -54.0634,42.358 -54.1568,42.1089 C-54.2502,41.8287 -54.4059,41.3928 -54.4993,40.8946 C-54.5927,40.6455 -54.6549,40.3653 -54.6861,40.0851 C-54.7484,39.8048 -54.8418,39.4623 -54.8729,39.1821 C-54.9352,38.8396 -55.0286,38.5282 -55.0286,38.1858 C-55.0908,37.8433 -55.122,37.4696 -55.1843,37.1583 C-55.2777,36.4421 -55.3399,35.7883 -55.3399,35.1344 C-55.4022,34.4806 -55.4022,33.8578 -55.3399,33.3597 C-55.2777,32.8303 -55.2777,32.3633 -55.2465,32.0831 C-55.1843,31.8029 -55.1843,31.616 -55.1843,31.616 C-55.1843,31.5226 -55.0908,31.4604 -55.0286,31.5226 C-54.9663,31.5226 -54.9352,31.616 -54.9352,31.6472 L-54.9352,31.6472 Z" fill="#5e985b" fill-opacity="1" />
		<path d="M-48.8636,34.6674 C-48.8636,34.6674 -49.2061,34.7296 -49.7666,34.8542 C-50.0468,34.9476 -50.327,35.0099 -50.6695,35.1033 C-51.012,35.1967 -51.3234,35.3524 -51.6659,35.4769 C-51.8527,35.5703 -52.0084,35.6326 -52.1329,35.726 C-52.2886,35.8194 -52.4131,35.9128 -52.5688,35.9751 C-52.7245,36.0685 -52.8491,36.1619 -52.9425,36.2553 C-53.0981,36.3487 -53.1915,36.4421 -53.285,36.5355 C-53.3784,36.6289 -53.4718,36.7224 -53.534,36.7846 C-53.6275,36.878 -53.6897,36.9403 -53.7209,37.0337 C-53.8143,37.1894 -53.8765,37.2205 -53.8765,37.2205 L-53.8765,37.2205 C-53.9388,37.2828 -53.9388,37.2828 -53.9699,37.2205 C-54.0322,37.1583 -54.0322,37.1583 -54.0322,37.1271 C-54.0322,37.1271 -53.9699,37.0337 -53.8765,36.878 C-53.8143,36.7846 -53.7831,36.6912 -53.7209,36.6289 C-53.6275,36.5355 -53.5652,36.4421 -53.4718,36.3487 C-53.3784,36.2553 -53.285,36.1619 -53.1293,36.0062 C-52.9736,35.9128 -52.8491,35.8194 -52.7556,35.6637 C-52.4754,35.4769 -52.1329,35.2901 -51.7593,35.1344 C-51.4168,34.9787 -51.0432,34.8542 -50.7318,34.7608 C-50.3893,34.6674 -50.0779,34.574 -49.8289,34.5117 C-49.2684,34.4183 -48.9259,34.356 -48.9259,34.356 C-48.8325,34.356 -48.7702,34.4183 -48.7702,34.5117 C-48.7391,34.574 -48.7702,34.6674 -48.8636,34.6674 Z" fill="#5e985b" fill-opacity="1" />
		<path d="M-53.4718,27.4749 C-53.4718,27.4749 -53.2227,27.7552 -53.0359,28.1911 C-52.8802,28.4402 -52.7868,28.7204 -52.6622,29.0006 C-52.5688,29.2808 -52.4131,29.6545 -52.382,29.997 C-52.3197,30.1838 -52.3197,30.3395 -52.2886,30.5263 C-52.2263,30.7131 -52.2263,30.8688 -52.2263,31.0556 C-52.1641,31.2424 -52.2263,31.3981 -52.2263,31.5226 C-52.2263,31.6783 -52.2263,31.8029 -52.2886,31.9585 C-52.3509,32.1142 -52.3509,32.2076 -52.3509,32.301 C-52.4131,32.3944 -52.4131,32.4878 -52.4131,32.5813 C-52.4754,32.7369 -52.4754,32.8303 -52.4754,32.8303 C-52.4754,32.9238 -52.5688,32.9238 -52.6311,32.9238 C-52.6934,32.9238 -52.7245,32.8303 -52.7245,32.7681 L-52.7245,32.7681 L-52.7245,32.7058 C-52.7245,32.7058 -52.6622,32.6124 -52.6622,32.4567 C-52.6,32.3633 -52.6,32.301 -52.6,32.2076 C-52.5377,32.1142 -52.5377,31.9585 -52.5377,31.8651 C-52.5377,31.7717 -52.4754,31.5849 -52.4754,31.4915 C-52.4754,31.3358 -52.4131,31.2113 -52.4754,31.0556 C-52.5377,30.8999 -52.4754,30.7131 -52.5377,30.5885 C-52.6,30.4017 -52.6,30.246 -52.6311,30.0592 C-52.6934,29.7167 -52.8179,29.4054 -52.9113,29.1252 C-53.0047,28.8449 -53.1604,28.5647 -53.2538,28.3156 C-53.5029,27.8797 -53.6897,27.5995 -53.6897,27.5995 C-53.752,27.5372 -53.752,27.5061 -53.6275,27.4438 C-53.5652,27.4438 -53.534,27.4438 -53.4718,27.4749 L-53.4718,27.4749 Z" fill="#5e985b" fill-opacity="1" />
		<path d="M-50.6073,41.206 C-50.6073,41.206 -50.7941,41.5796 -50.9809,42.2023 C-51.0743,42.4825 -51.23,42.8562 -51.3234,43.2298 C-51.4791,43.6034 -51.5725,43.9771 -51.6036,44.413 C-51.6659,44.5998 -51.697,44.7866 -51.7593,45.0357 C-51.8216,45.2225 -51.8216,45.4093 -51.8527,45.6584 C-51.8527,45.8452 -51.915,46.032 -51.915,46.2189 C-51.915,46.4057 -51.915,46.5614 -51.915,46.7482 C-51.8527,46.9039 -51.8527,47.0284 -51.8527,47.1841 C-51.8527,47.3398 -51.7904,47.4332 -51.7904,47.5266 C-51.7282,47.7134 -51.7282,47.8068 -51.7282,47.8068 L-51.7282,47.8691 C-51.7282,47.9313 -51.7904,47.9625 -51.8216,47.9625 C-51.8838,47.9625 -51.915,47.9002 -51.915,47.9002 C-51.915,47.9002 -51.9772,47.8068 -52.0084,47.62 C-52.0706,47.5266 -52.0706,47.4332 -52.1018,47.2775 C-52.1641,47.1218 -52.1641,46.9973 -52.1641,46.8416 C-52.1641,46.6859 -52.1641,46.4991 -52.2263,46.3123 C-52.2263,46.1255 -52.1641,45.9386 -52.1641,45.7518 C-52.1018,45.565 -52.1018,45.3782 -52.0706,45.1291 C-52.0084,44.9423 -51.9772,44.6932 -51.9772,44.5064 C-51.8838,44.0705 -51.7904,43.6968 -51.697,43.2921 C-51.6036,42.9184 -51.4479,42.5759 -51.3545,42.2646 C-51.1054,41.6419 -50.9809,41.2682 -50.9809,41.2682 C-50.9186,41.206 -50.8875,41.1748 -50.7941,41.206 C-50.6073,41.0503 -50.545,41.1125 -50.6073,41.206 L-50.6073,41.206 Z" fill="#5e985b" fill-opacity="1" />
		<path d="M-53.4718,44.7866 C-53.4718,44.7866 -53.6586,44.6932 -53.9388,44.5375 C-54.219,44.3507 -54.5927,44.1639 -54.9352,43.8837 C-55.122,43.728 -55.2777,43.6034 -55.4645,43.4477 C-55.6202,43.2921 -55.7447,43.1675 -55.8381,43.0741 C-55.9315,42.9184 -56.0249,42.825 -56.0872,42.7316 C-56.1495,42.6382 -56.1806,42.5759 -56.1806,42.5759 C-56.2429,42.5137 -56.2429,42.4203 -56.1183,42.3891 C-56.0561,42.3268 -55.9627,42.3268 -55.9627,42.4514 L-55.9627,42.4514 C-55.9627,42.4514 -55.9004,42.5137 -55.8693,42.5448 C-55.807,42.6382 -55.7136,42.7316 -55.6202,42.825 C-55.5268,42.9807 -55.3711,43.0741 -55.2465,43.1987 C-55.0908,43.3543 -54.9663,43.4789 -54.7795,43.6346 C-54.437,43.9148 -54.1256,44.195 -53.8765,44.3818 C-53.6275,44.5686 -53.4406,44.6309 -53.4406,44.6309 C-53.3784,44.6932 -53.4406,44.7866 -53.5029,44.8177 C-53.4406,44.7866 -53.4406,44.7866 -53.4718,44.7866 Z" fill="#5e985b" fill-opacity="1" />
		<path d="M-55.122,32.2699 C-55.122,32.2699 -54.5615,31.3669 -54.2813,30.9622 C-53.8454,30.3395 -53.9388,29.4676 -54.7484,29.2186 C-55.4645,29.0317 -56.2429,29.9347 -55.7447,30.9622 C-55.2154,31.9897 -55.2154,31.9897 -55.122,32.2699 Z" fill="#5e985b" fill-opacity="1" />
		<path d="M-49.3929,34.6674 C-49.3929,34.6674 -48.3032,34.9165 -47.8361,35.041 C-47.12,35.2901 -46.2793,34.8542 -46.3416,34.0135 C-46.435,33.2662 -47.4625,32.8303 -48.3032,33.6399 C-49.1127,34.4806 -49.1439,34.5428 -49.3929,34.6674 Z" fill="#5e985b" fill-opacity="1" />
		<path d="M-49.86,30.3083 C-49.86,30.3083 -48.7702,30.5885 -48.3032,30.7442 C-47.5871,30.9933 -46.7464,30.5885 -46.8087,29.7479 C-46.8709,29.0006 -47.9296,28.5336 -48.7702,29.312 C-49.5798,30.1215 -49.6109,30.1215 -49.86,30.3083 Z" fill="#5e985b" fill-opacity="1" />
		<path d="M-50.2648,33.8578 C-50.2648,33.8578 -49.3618,33.4219 -48.957,33.2351 C-48.3032,32.986 -47.9607,32.2388 -48.49,31.6783 C-48.957,31.149 -49.9534,31.4915 -50.0779,32.519 C-50.2336,33.6399 -50.2336,33.671 -50.2648,33.8578 Z" fill="#5e985b" fill-opacity="1" />
		<path d="M-51.8838,27.5683 C-51.8838,27.5683 -51.3234,26.7588 -50.9809,26.4474 C-50.545,25.9181 -50.6073,25.1397 -51.2611,24.8595 C-51.915,24.6104 -52.6311,25.3577 -52.2886,26.354 C-51.915,27.3504 -51.915,27.3815 -51.8838,27.5683 Z" fill="#5e985b" fill-opacity="1" />
		<path d="M-56.492,32.3633 C-56.492,32.3633 -56.8656,31.4604 -57.0213,31.0556 C-57.177,30.4017 -57.8931,30.0281 -58.5158,30.4951 C-59.0451,30.931 -58.796,31.9585 -57.7686,32.1454 C-56.7099,32.3322 -56.6788,32.3322 -56.492,32.3633 Z" fill="#5e985b" fill-opacity="1" />
		<path d="M-56.1183,35.4769 C-56.1183,35.4769 -56.3986,34.4806 -56.6477,34.0758 C-56.9902,33.4531 -57.5506,33.0794 -58.1422,33.5465 C-58.6715,33.9824 -58.4224,35.0099 -57.3949,35.1967 C-56.3986,35.3835 -56.3363,35.3835 -56.1183,35.4769 Z" fill="#5e985b" fill-opacity="1" />
		<path d="M-52.0706,41.4862 C-52.0706,41.4862 -51.8216,40.4898 -51.697,40.1162 C-51.4479,39.4623 -51.8527,38.7462 -52.6,38.8085 C-53.2538,38.8707 -53.6897,39.836 -52.9736,40.5521 C-52.2575,41.2994 -52.1952,41.2994 -52.0706,41.4862 Z" fill="#5e985b" fill-opacity="1" />
		<path d="M-49.8911,42.6071 C-49.8911,42.6071 -48.8948,42.8562 -48.5211,42.9807 C-47.8673,43.2298 -47.1511,42.825 -47.2134,42.0778 C-47.2757,41.4239 -48.2409,40.988 -48.957,41.7041 C-49.6732,42.4825 -49.7043,42.4825 -49.8911,42.6071 Z" fill="#5e985b" fill-opacity="1" />
		<path d="M-49.5798,35.9751 C-49.5798,35.9751 -48.8325,36.7224 -48.49,37.1583 C-48.023,37.781 -47.12,37.8744 -46.7152,37.096 C-46.3727,36.4421 -47.0577,35.508 -48.1786,35.726 C-49.2995,35.944 -49.3307,35.944 -49.5798,35.9751 Z" fill="#5e985b" fill-opacity="1" />
		<path d="M-50.9498,41.673 C-50.9498,41.673 -49.9534,41.1437 -49.4864,40.9569 C-48.7702,40.6766 -48.3966,39.836 -48.957,39.2755 C-49.4864,38.7462 -50.6073,39.0887 -50.7007,40.2719 C-50.8875,41.3305 -50.8875,41.3928 -50.9498,41.673 Z" fill="#5e985b" fill-opacity="1" />
		<path d="M-50.0779,29.0629 C-50.0779,29.0629 -49.0816,28.5336 -48.6145,28.409 C-47.9296,28.1288 -47.5559,27.2881 -48.1164,26.7277 C-48.6457,26.1672 -49.7666,26.5409 -49.86,27.6618 C-50.0468,28.7827 -50.0468,28.8449 -50.0779,29.0629 Z" fill="#5e985b" fill-opacity="1" />
		<path d="M-53.285,27.8486 C-53.285,27.8486 -53.3472,26.7588 -53.285,26.2606 C-53.2227,25.5134 -53.8454,24.7972 -54.5927,25.0775 C-55.3088,25.3265 -55.4333,26.4474 -54.437,27.1013 C-53.5652,27.6618 -53.534,27.724 -53.285,27.8486 Z" fill="#5e985b" fill-opacity="1" />
		<path d="M-55.7447,42.8562 C-55.7447,42.8562 -56.0872,41.8287 -56.1806,41.2994 C-56.3674,40.5521 -57.1147,40.0851 -57.8308,40.5521 C-58.4535,40.988 -58.2667,42.14 -57.1147,42.4203 C-56.0249,42.7628 -55.9627,42.7628 -55.7447,42.8562 Z" fill="#5e985b" fill-opacity="1" />
		<path d="M-55.8693,43.728 C-55.8693,43.728 -56.8033,43.3855 -57.177,43.1987 C-57.7997,42.9184 -58.5781,43.2609 -58.5781,43.9459 C-58.6404,44.5998 -57.6751,45.1291 -56.8345,44.4752 C-56.1183,43.9148 -56.0561,43.8837 -55.8693,43.728 Z" fill="#5e985b" fill-opacity="1" />
		<path d="M-49.3307,42.5137 C-49.3307,42.5137 -49.4864,42.5759 -49.7043,42.6693 C-49.9534,42.7628 -50.2336,42.8562 -50.5138,43.043 C-50.7941,43.1987 -51.0743,43.3855 -51.23,43.5723 C-51.3234,43.6657 -51.4168,43.728 -51.4168,43.7591 C-51.4791,43.8214 -51.5102,43.8525 -51.5102,43.8525 L-51.5102,43.8525 C-51.5725,43.9148 -51.6659,43.9148 -51.697,43.8525 C-51.7593,43.7902 -51.7593,43.6968 -51.697,43.6657 L-51.697,43.6657 C-51.697,43.6657 -51.6347,43.6034 -51.6036,43.5723 C-51.5413,43.51 -51.4479,43.4166 -51.3545,43.3855 C-51.1677,43.1987 -50.8252,43.043 -50.545,42.8562 C-50.2648,42.7005 -49.9223,42.5759 -49.7043,42.5137 C-49.4552,42.4203 -49.3307,42.4203 -49.3307,42.4203 L-49.3307,42.4203 C-49.2684,42.4203 -49.2373,42.4825 -49.2373,42.4825 C-49.2373,42.4825 -49.2995,42.4825 -49.3307,42.5137 Z" fill="#5e985b" fill-opacity="1" />
		<path d="M-52.0084,41.206 C-52.0084,41.206 -51.9461,41.8598 -51.8527,42.4825 C-51.7904,42.825 -51.7593,43.1364 -51.697,43.3232 C-51.6347,43.4789 -51.6347,43.51 -51.6036,43.6034 C-51.5413,43.6657 -51.5413,43.6968 -51.5413,43.6968 L-51.5413,43.6968 C-51.4791,43.7591 -51.5413,43.7902 -51.6036,43.7902 C-51.6659,43.8525 -51.697,43.7902 -51.697,43.728 C-51.697,43.728 -51.7593,43.6657 -51.7593,43.5723 C-51.8216,43.4789 -51.8216,43.3855 -51.8527,43.2921 C-51.915,43.043 -52.0084,42.7316 -52.0395,42.4514 C-52.1329,41.7975 -52.2263,41.1748 -52.2263,41.1748 C-52.2263,41.0814 -52.1641,41.0191 -52.1329,41.0191 C-52.1018,41.1125 -52.0084,41.1437 -52.0084,41.206 L-52.0084,41.206 Z" fill="#5e985b" fill-opacity="1" />
		<path d="M-54.4681,44.1639 C-54.4681,44.1639 -54.6238,44.1016 -54.7484,44.0082 C-54.9352,43.9148 -55.1843,43.8525 -55.4022,43.8214 C-55.6513,43.7591 -55.9315,43.728 -56.1183,43.728 C-56.2117,43.728 -56.3052,43.728 -56.3674,43.728 C-56.4297,43.728 -56.4608,43.728 -56.4608,43.728 L-56.4608,43.728 C-56.5231,43.728 -56.5231,43.6657 -56.5231,43.6657 C-56.5231,43.6034 -56.5231,43.6034 -56.4608,43.6034 C-56.4608,43.6034 -56.3986,43.6034 -56.3674,43.5412 C-56.3052,43.5412 -56.2117,43.4789 -56.1183,43.4789 C-55.9315,43.4166 -55.6513,43.4789 -55.4022,43.5412 C-55.122,43.6034 -54.8729,43.6346 -54.6861,43.6968 C-54.4993,43.7591 -54.3436,43.7902 -54.3436,43.7902 L-54.3436,43.7902 C-54.2502,43.8525 -54.2502,43.8837 -54.2502,43.9459 C-54.3124,44.1639 -54.3747,44.195 -54.4681,44.1639 C-54.4681,44.195 -54.4681,44.1639 -54.4681,44.1639 Z" fill="#5e985b" fill-opacity="1" />
		<path d="M-55.1531,34.8231 C-55.2154,34.8231 -55.2465,34.7608 -55.2465,34.7296 C-55.6824,33.0483 -57.177,31.8029 -57.2081,31.8029 C-57.2704,31.7406 -57.2704,31.7094 -57.2704,31.6472 C-57.2081,31.5849 -57.177,31.5849 -57.1147,31.5849 C-57.0213,31.6472 -55.5268,32.8615 -55.0908,34.6362 C-55.0286,34.7296 -55.0597,34.8231 -55.1531,34.8231 C-55.122,34.8231 -55.122,34.8231 -55.1531,34.8231 Z" fill="#5e985b" fill-opacity="1" />
		<path d="M-51.6347,26.9145 C-51.6347,26.9145 -51.697,27.1013 -51.7282,27.3504 C-51.7904,27.6306 -51.8838,27.9731 -51.9772,28.2845 C-52.0706,28.5958 -52.1952,28.9383 -52.2886,29.1563 C-52.382,29.3742 -52.4754,29.5299 -52.4754,29.5299 L-52.4754,29.5299 C-52.5377,29.5922 -52.5688,29.6233 -52.6311,29.5922 C-52.6934,29.5299 -52.6934,29.4988 -52.6934,29.4365 C-52.6934,29.4365 -52.6,29.2808 -52.5377,29.0629 C-52.4443,28.8138 -52.3509,28.5024 -52.2575,28.1599 C-52.1641,27.8174 -52.0706,27.5061 -52.0706,27.2258 C-52.0084,27.0079 -51.9772,26.8211 -51.9772,26.8211 L-51.9772,26.8211 C-51.9772,26.7277 -51.8838,26.6654 -51.8216,26.6654 C-51.697,26.7588 -51.6347,26.8211 -51.6347,26.9145 L-51.6347,26.9145 Z" fill="#5e985b" fill-opacity="1" />
		<path d="M-48.957,36.1308 C-49.0193,36.1308 -49.0193,36.1308 -48.957,36.1308 C-49.9845,35.944 -51.4479,35.3835 -51.5102,35.3212 C-51.5725,35.259 -51.6036,35.259 -51.6036,35.2278 C-51.6036,35.1656 -51.5413,35.1344 -51.5413,35.1344 C-50.6073,34.4183 -49.8911,33.0172 -49.8911,33.0172 C-49.8289,32.9549 -49.7977,32.9238 -49.7354,32.9549 C-49.6732,33.0172 -49.642,33.0483 -49.6732,33.1106 C-49.7354,33.1728 -50.327,34.4183 -51.23,35.1656 C-50.7941,35.3524 -49.7354,35.726 -48.9882,35.8817 C-48.8948,35.8817 -48.8948,35.9751 -48.8948,36.0374 C-48.8636,36.0685 -48.9259,36.1308 -48.957,36.1308 Z" fill="#5e985b" fill-opacity="1" />
		<path d="M-51.4168,31.0556 C-51.4791,31.0556 -51.5102,30.9933 -51.5102,30.9933 C-51.5725,30.931 -51.5725,30.8376 -51.4479,30.8376 C-50.6384,30.2149 -49.1127,29.9347 -49.0193,29.9347 C-48.9259,29.9347 -48.8636,30.0281 -48.8636,30.0592 C-48.8636,30.1215 -48.9259,30.2149 -48.957,30.2149 C-49.0504,30.1526 -50.6073,30.4951 -51.4168,31.0556 C-51.3545,30.9933 -51.3545,31.0556 -51.4168,31.0556 Z" fill="#5e985b" fill-opacity="1" />
		<path d="M-54.9663,37.7187 C-55.0286,37.7187 -55.0597,37.6564 -55.0597,37.6253 C-55.0597,37.563 -55.589,35.8817 -56.8033,35.041 C-56.8656,34.9787 -56.8967,34.9476 -56.8656,34.8853 C-56.8033,34.8231 -56.7722,34.7919 -56.7099,34.8231 C-55.4022,35.726 -54.9352,37.4696 -54.8729,37.5008 C-54.8418,37.6253 -54.8729,37.7187 -54.9663,37.7187 C-54.9663,37.6876 -54.9663,37.7187 -54.9663,37.7187 Z" fill="#5e985b" fill-opacity="1" />
		<path d="M-94.3721,51.6752 L-94.6457,50.8316 L-100.436,52.929 L-100.436,43.7188 L-97.769,42.1914 L-98.2249,41.3935 L-100.436,42.6702 L-100.436,37.3355 L-101.348,37.3355 L-101.348,50.2161 L-106.181,45.7478 L-106.82,46.4317 L-101.348,51.4472 L-101.348,57.3973 L-100.436,57.3973 L-100.436,53.8637 Z" fill="#5e985b" fill-opacity="1" />
		<path d="M-115.352,57.5543 C-118.982,56.0153 -120.312,58.1573 -126.436,52.145 C-128.751,49.8803 -132.411,51.2339 -133.845,53.718 C-135.266,56.1788 -133.983,58.6218 -132.055,60.9114 C-128.771,64.8196 -129.563,68.8194 -123.713,72.1971 C-119.65,74.5428 -114.074,73.0879 -111.729,69.0252 C-109.396,64.9857 -109.66,59.9737 -115.352,57.5543 Z" fill="#815c22" fill-opacity="1" />
		<path d="M-121.575,65.5079 C-123.167,62.7065 -129.154,57.3973 -129.154,57.3973 C-121.162,58.1623 -115.551,69.1948 -115.646,70.7656 C-115.741,72.3364 -117.978,73.6295 -118.399,73.2558 C-119.037,72.9216 -119.9,68.4495 -121.575,65.5079 Z" fill="#cca362" fill-opacity="1" />
		<path d="M-118.648,63.9469 C-119.403,60.8148 -123.69,54.0576 -123.69,54.0576 C-116.221,57.0016 -113.878,69.1551 -114.403,70.6385 C-114.928,72.1219 -117.435,72.7464 -117.737,72.2708 C-118.258,71.7733 -117.851,67.2368 -118.648,63.9469 Z" fill="#cca362" fill-opacity="1" />
		<path d="M-123.597,67.216 C-126.654,65.7141 -132.636,59.7327 -132.636,59.7327 C-131.322,68.1173 -119.325,73.339 -117.674,73.1394 C-116.023,72.9398 -114.8,70.4974 -115.221,70.0764 C-115.614,69.4242 -120.387,68.797 -123.597,67.216 Z" fill="#cca362" fill-opacity="1" />
		<path d="M-70.7387,-68.0725 C-70.7387,-56.0647 -80.4729,-46.3305 -92.4807,-46.3305 C-104.488,-46.3305 -114.223,-56.0647 -114.223,-68.0725 C-114.223,-80.0803 -104.488,-89.8145 -92.4807,-89.8145 C-80.4729,-89.8145 -70.7387,-80.0803 -70.7387,-68.0725 Z" fill="#fefcec" />
	</g>
</svg>