<?xml version="1.0" encoding="utf-8" ?>
<svg version="1.1" xmlns="http://www.w3.org/2000/svg" xmlns:xlink="http://www.w3.org/1999/xlink" width="300" height="168.75" viewBox="0 0 300 168.75">
	<g transform="matrix(1,0,0,1,150,84.375)">
		<path d="M53.6365,-43.5411 L58.2213,-54.1185 C29.0278,-66.7725 -4.93554,-53.3491 -17.5896,-24.1556 L-7.01219,-19.5708 C3.1202,-42.9468 30.2605,-53.6735 53.6365,-43.5411 Z" fill="#000" />
		<path d="M-2.02348,-33.4497 L-28.8639,-48.946 L-76.982,34.3971 L-50.1417,49.8934 L-23.3013,65.3897 L24.8169,-17.9534 L-2.02348,-33.4497 Z" fill="#e02200" fill-opacity="1" stroke-width="2" stroke="#000" />
		<path d="M-41.7066,54.6813 L-58.3176,45.0909 L-10.1994,-38.2522 L6.41157,-28.6619 L-41.7066,54.6813 Z" fill="#e00" stroke-width="2" stroke="#000" />
		<path d="M63.4692,-44.8212 C63.7542,-47.9692 64.4097,-50.522 65.6743,-54.7674 C63.2503,-52.4827 61.3184,-50.2576 59.8112,-47.377 C59.3438,-47.7761 58.8192,-48.1782 58.2976,-48.6378 C57.0595,-59.2588 69.2536,-63.0001 74.6623,-60.3786 C77.5762,-58.9559 81.2273,-55.7391 79.4737,-51.4914 C77.7503,-47.2708 73.388,-46.9025 71.8426,-49.1716 C70.2972,-51.4406 71.7254,-53.9229 74.7563,-54.1331 C68.7873,-57.5613 65.5901,-48.4165 71.3127,-45.7492 C82.423,-40.6054 89.5722,-56.8989 76.1664,-63.2019 C62.7001,-69.4508 51.3805,-58.4727 49.9233,-45.8692 C58.16,-40.7656 66.3431,-38.3968 74.4283,-41.6699 C70.4348,-41.7418 66.6482,-42.9816 63.4692,-44.8212 Z" fill="#fff" stroke-width="2" stroke="#f70" />
		<path d="M-53.8818,-6.65665 L-52.7962,-8.5369 L1.9757,23.0857 L0.890145,24.9659 L-53.8818,-6.65665 Z" fill="#000" />
	</g>
</svg>