<?xml version="1.0" encoding="utf-8" ?>
<svg version="1.1" xmlns="http://www.w3.org/2000/svg" xmlns:xlink="http://www.w3.org/1999/xlink" width="300" height="168.75" viewBox="0 0 300 168.75">
	<g transform="matrix(1,0,0,1,150,84.375)">
		<path d="M-44.1772,-11.3126 C-30.5712,1.52655 -8.50969,0.925962 3.88471,-14.1658 C-8.25769,-3.55787 -26.8687,-5.90783 -36.7271,-17.8761 C-43.635,-26.3937 -45.2318,-38.2195 -39.9392,-48.2468 C-34.7772,-57.712 -24.6906,-62.8728 -14.1368,-62.3952 C1.46294,-61.535 13.1648,-48.1509 12.8667,-32.4206 C15.4265,-46.8354 9.11898,-61.3358 -3.83247,-68.493 C-21.5383,-78.1374 -38.6488,-71.6464 -49.7052,-54.6637 C-55.8041,-45.4162 -57.4059,-35.1237 -59.4696,-24.5436 C-62.3738,-11.1963 -65.8877,4.77426 -79.9699,10.9815 C-67.1069,10.0208 -57.2394,-2.69579 -53.686,-16.2872 C-41.91,23.9735 17.6744,29.3277 11.4715,68.7678 C17.5123,50.4221 10.2111,35.0982 0.96753,26.4328 C26.0707,26.3415 51.4325,36.1852 66.6563,56.5101 C40.129,7.489 -23.522,21.3343 -44.1772,-11.3126 L-44.1772,-11.3126 Z" fill="#c2f5f4" />
	</g>
</svg>