<?xml version="1.0" encoding="utf-8" ?>
<!-- Generator: Assembly 1.0 - http://assemblyapp.co -->
<svg version="1.1" xmlns="http://www.w3.org/2000/svg" xmlns:xlink="http://www.w3.org/1999/xlink" width="300" height="300" viewBox="0 0 300 300">
	<rect x="0" y="0" width="300" height="300" fill="#111247" />
	<g id="widget" transform="matrix(1,0,0,1,150,150)">
		<path d="M-199.869,49.4043 L-170.507,20.3864 L-138.421,12.6211 L-105.427,-21.71 L-90.2922,-51.954 L-73.6438,-43.78 L-54.8765,-17.4186 L-19.7635,-1.0705 L30.787,5.06005 L71.3486,17.3211 L81.943,33.4649 L100.71,49.4043 Z" fill="#70552b" fill-opacity="1" />
		<path d="M-63.5351,49.4043 L-44.6501,28.1588 L-1.63438,12.4213 L12.7916,-7.51281 L52.6599,-7.51281 L80.2004,-31.6436 L88.5937,-29.8075 L98.8231,-44.2336 L127.15,-67.5775 L138.167,-67.5775 L153.38,-40.8238 L160.461,-37.6763 L181.182,2.19196 L196.92,49.4043 Z" fill="#70552b" fill-opacity="1" />
		<path d="M-150,150 L-150,33.0182 L150.579,33.0182 L150.579,150 L-150,150 Z" fill="#91793f" fill-opacity="1" />
		<path d="M115.271,33.0182 L100.71,33.0182 L100.71,3.20973 L115.271,3.20973 L115.271,33.0182 Z" fill="#000000" fill-opacity="1" />
		<path d="M95.7724,39.2178 L100.71,39.2178 L100.71,-2.98987 L95.7724,-2.98987 L95.7724,39.2178 Z" fill="#5a2e0a" fill-opacity="1" />
		<path d="M115.271,39.2178 L120.209,39.2178 L120.209,-2.98987 L115.271,-2.98987 L115.271,39.2178 Z" fill="#5a2e0a" fill-opacity="1" />
		<path d="M90.7628,1.95399e-14 L90.7628,4.9379 L125.218,4.9379 L125.218,3.28626e-14 L90.7628,1.95399e-14 Z" fill="#5a2e0a" fill-opacity="1" />
		<path d="M0.289563,15.6043 C-57.887,15.6043 -110.177,21.8043 -150,32.5043 C-110.523,42.8043 -57.5408,49.4043 0.289563,49.4043 C58.1199,49.4043 110.756,43.1043 150.579,32.5043 C111.102,22.2043 57.7736,15.6043 0.289563,15.6043 Z" fill="#91793f" fill-opacity="1" />
		<path d="M-157.006,41.864 C-159.125,44.3289 -155.874,57.1555 -152.251,57.2643 C-149.293,57.3832 -145.076,52.9515 -135.524,50.7724 C-127.697,48.9751 -115.32,49.5988 -99.3782,48.1339 C-88.642,47.1462 -77.8787,37.9703 -77.7888,35.4222 C-77.7154,32.8175 -84.4093,30.7776 -90.6616,37.9574 C-97.7151,46.1098 -118.529,35.7756 -130.357,33.8845 C-142.731,31.8452 -155.568,40.2132 -157.006,41.864 Z" fill="#12188e" fill-opacity="1" />
		<path d="M-54.388,18.7171 C-52.3342,28.0017 -76.8486,39.7669 -89.4369,43.498 C-94.0015,44.86 -98.0039,42.6275 -93.067,39.9158 C-85.1267,35.5549 -83.0509,31.6483 -81.1778,22.9461 C-79.3047,14.244 -55.4902,13.8753 -54.388,18.7171 Z" fill="#12188e" fill-opacity="1" />
		<path d="M21.5117,-105.429 C21.3621,-105.429 21.2409,-105.55 21.2409,-105.699 C21.2409,-105.849 21.3621,-105.97 21.5117,-105.97 C21.6612,-105.97 21.7824,-105.849 21.7824,-105.699 C21.7824,-105.55 21.6612,-105.429 21.5117,-105.429 Z" fill="#fefdf8" fill-opacity="1" />
		<path d="M-49.5793,-67.5775 C-49.7288,-67.5775 -49.85,-67.6987 -49.85,-67.8482 C-49.85,-67.9977 -49.7288,-68.1189 -49.5793,-68.1189 C-49.4298,-68.1189 -49.3085,-67.9977 -49.3085,-67.8482 C-49.3085,-67.6987 -49.4298,-67.5775 -49.5793,-67.5775 Z" fill="#fefdf8" fill-opacity="1" />
		<path d="M67.9244,-67.036 C67.7749,-67.036 67.6536,-67.1572 67.6536,-67.3067 C67.6536,-67.4562 67.7749,-67.5775 67.9244,-67.5775 C68.0739,-67.5775 68.1951,-67.4562 68.1951,-67.3067 C68.1951,-67.1572 68.0739,-67.036 67.9244,-67.036 Z" fill="#fefdf8" fill-opacity="1" />
		<path d="M37.5977,-68.1189 C37.4482,-68.1189 37.327,-68.2401 37.327,-68.3897 C37.327,-68.5392 37.4482,-68.6604 37.5977,-68.6604 C37.7473,-68.6604 37.8685,-68.5392 37.8685,-68.3897 C37.8685,-68.2401 37.7473,-68.1189 37.5977,-68.1189 Z" fill="#fefdf8" fill-opacity="1" />
		<path d="M1.2777,-51.4126 C1.12818,-51.4126 1.00696,-51.5338 1.00696,-51.6833 C1.00696,-51.8328 1.12818,-51.954 1.2777,-51.954 C1.42722,-51.954 1.54844,-51.8328 1.54844,-51.6833 C1.54844,-51.5338 1.42722,-51.4126 1.2777,-51.4126 Z" fill="#fefdf8" fill-opacity="1" />
		<path d="M-78.0589,-91.9111 C-78.2084,-91.9111 -78.3296,-92.0323 -78.3296,-92.1818 C-78.3296,-92.3314 -78.2084,-92.4526 -78.0589,-92.4526 C-77.9094,-92.4526 -77.7882,-92.3314 -77.7882,-92.1818 C-77.7882,-92.0323 -77.9094,-91.9111 -78.0589,-91.9111 Z" fill="#fefdf8" fill-opacity="1" />
		<path d="M-117.733,-116.594 C-117.883,-116.594 -118.004,-116.715 -118.004,-116.864 C-118.004,-117.014 -117.883,-117.135 -117.733,-117.135 C-117.584,-117.135 -117.462,-117.014 -117.462,-116.864 C-117.462,-116.715 -117.584,-116.594 -117.733,-116.594 Z" fill="#fefdf8" fill-opacity="1" />
		<path d="M100.981,-134.034 C100.831,-134.034 100.71,-134.155 100.71,-134.304 C100.71,-134.454 100.831,-134.575 100.981,-134.575 C101.131,-134.575 101.252,-134.454 101.252,-134.304 C101.252,-134.155 101.131,-134.034 100.981,-134.034 Z" fill="#fefdf8" fill-opacity="1" />
		<path d="M-117.192,-37.9643 C-117.341,-37.9643 -117.462,-38.0856 -117.462,-38.2351 C-117.462,-38.3846 -117.341,-38.5058 -117.192,-38.5058 C-117.042,-38.5058 -116.921,-38.3846 -116.921,-38.2351 C-116.921,-38.0856 -117.042,-37.9643 -117.192,-37.9643 Z" fill="#fefdf8" fill-opacity="1" />
		<path d="M37.0563,-50.8711 C36.9067,-50.8711 36.7855,-50.9923 36.7855,-51.1418 C36.7855,-51.2913 36.9067,-51.4126 37.0563,-51.4126 C37.2058,-51.4126 37.327,-51.2913 37.327,-51.1418 C37.327,-50.9923 37.2058,-50.8711 37.0563,-50.8711 Z" fill="#fefdf8" fill-opacity="1" />
		<path d="M-0.270739,-93.5355 C-0.420263,-93.5355 -0.541477,-93.6567 -0.541477,-93.8063 C-0.541477,-93.9558 -0.420263,-94.077 -0.270739,-94.077 C-0.121214,-94.077 1.67592e-14,-93.9558 1.67019e-14,-93.8063 C1.66447e-14,-93.6567 -0.121214,-93.5355 -0.270739,-93.5355 Z" fill="#fefdf8" fill-opacity="1" />
		<path d="M100.44,-67.036 C100.29,-67.036 100.169,-67.1572 100.169,-67.3067 C100.169,-67.4562 100.29,-67.5775 100.44,-67.5775 C100.589,-67.5775 100.71,-67.4562 100.71,-67.3067 C100.71,-67.1572 100.589,-67.036 100.44,-67.036 Z" fill="#fefdf8" fill-opacity="1" />
		<path d="M101.522,-125.314 C101.373,-125.314 101.252,-125.435 101.252,-125.584 C101.252,-125.734 101.373,-125.855 101.522,-125.855 C101.672,-125.855 101.793,-125.734 101.793,-125.584 C101.793,-125.435 101.672,-125.314 101.522,-125.314 Z" fill="#fefdf8" fill-opacity="1" />
		<path d="M-16.3254,-76.1524 C-16.4749,-76.1524 -16.5961,-76.2736 -16.5961,-76.4231 C-16.5961,-76.5726 -16.4749,-76.6938 -16.3254,-76.6938 C-16.1759,-76.6938 -16.0547,-76.5726 -16.0547,-76.4231 C-16.0547,-76.2736 -16.1759,-76.1524 -16.3254,-76.1524 Z" fill="#fefdf8" fill-opacity="1" />
		<path d="M67.3829,-134.575 C67.2334,-134.575 67.1122,-134.696 67.1122,-134.846 C67.1122,-134.995 67.2334,-135.117 67.3829,-135.117 C67.5324,-135.117 67.6536,-134.995 67.6536,-134.846 C67.6536,-134.696 67.5324,-134.575 67.3829,-134.575 Z" fill="#fefdf8" fill-opacity="1" />
		<path d="M-0.812216,-124.772 C-0.96174,-124.772 -1.08295,-124.893 -1.08295,-125.043 C-1.08295,-125.192 -0.96174,-125.314 -0.812216,-125.314 C-0.662691,-125.314 -0.541477,-125.192 -0.541477,-125.043 C-0.541477,-124.893 -0.662691,-124.772 -0.812216,-124.772 Z" fill="#fefdf8" fill-opacity="1" />
		<path d="M-77.5174,-135.117 C-77.6669,-135.117 -77.7882,-135.238 -77.7882,-135.387 C-77.7882,-135.537 -77.6669,-135.658 -77.5174,-135.658 C-77.3679,-135.658 -77.2467,-135.537 -77.2467,-135.387 C-77.2467,-135.238 -77.3679,-135.117 -77.5174,-135.117 Z" fill="#fefdf8" fill-opacity="1" />
		<path d="M-149.729,-94.6185 C-149.879,-94.6185 -150,-94.7397 -150,-94.8892 C-150,-95.0387 -149.879,-95.16 -149.729,-95.16 C-149.58,-95.16 -149.459,-95.0387 -149.459,-94.8892 C-149.459,-94.7397 -149.58,-94.6185 -149.729,-94.6185 Z" fill="#fefdf8" fill-opacity="1" />
		<path d="M-116.65,-124.231 C-116.8,-124.231 -116.921,-124.352 -116.921,-124.501 C-116.921,-124.651 -116.8,-124.772 -116.65,-124.772 C-116.501,-124.772 -116.379,-124.651 -116.379,-124.501 C-116.379,-124.352 -116.501,-124.231 -116.65,-124.231 Z" fill="#fefdf8" fill-opacity="1" />
		<path d="M-49.0378,-91.3696 C-49.1873,-91.3696 -49.3085,-91.4908 -49.3085,-91.6404 C-49.3085,-91.7899 -49.1873,-91.9111 -49.0378,-91.9111 C-48.8883,-91.9111 -48.7671,-91.7899 -48.7671,-91.6404 C-48.7671,-91.4908 -48.8883,-91.3696 -49.0378,-91.3696 Z" fill="#fefdf8" fill-opacity="1" />
		<path d="M66.3,-116.052 C66.1504,-116.052 66.0292,-116.173 66.0292,-116.323 C66.0292,-116.472 66.1504,-116.594 66.3,-116.594 C66.4495,-116.594 66.5707,-116.472 66.5707,-116.323 C66.5707,-116.173 66.4495,-116.052 66.3,-116.052 Z" fill="#fefdf8" fill-opacity="1" />
		<path d="M-28.266,-135.658 C-28.4155,-135.658 -28.5368,-135.779 -28.5368,-135.929 C-28.5368,-136.078 -28.4155,-136.2 -28.266,-136.2 C-28.1165,-136.2 -27.9953,-136.078 -27.9953,-135.929 C-27.9953,-135.779 -28.1165,-135.658 -28.266,-135.658 Z" fill="#fefdf8" fill-opacity="1" />
		<path d="M118.755,-133.492 C118.605,-133.492 118.484,-133.613 118.484,-133.763 C118.484,-133.913 118.605,-134.034 118.755,-134.034 C118.904,-134.034 119.025,-133.913 119.025,-133.763 C119.025,-133.613 118.904,-133.492 118.755,-133.492 Z" fill="#fefdf8" fill-opacity="1" />
		<path d="M-27.7245,-38.5058 C-27.8741,-38.5058 -27.9953,-38.627 -27.9953,-38.7766 C-27.9953,-38.9261 -27.8741,-39.0473 -27.7245,-39.0473 C-27.575,-39.0473 -27.4538,-38.9261 -27.4538,-38.7766 C-27.4538,-38.627 -27.575,-38.5058 -27.7245,-38.5058 Z" fill="#fefdf8" fill-opacity="1" />
		<path d="M-95.0647,-95.16 C-95.2142,-95.16 -95.3354,-95.2812 -95.3354,-95.4307 C-95.3354,-95.5802 -95.2142,-95.7014 -95.0647,-95.7014 C-94.9151,-95.7014 -94.7939,-95.5802 -94.7939,-95.4307 C-94.7939,-95.2812 -94.9151,-95.16 -95.0647,-95.16 Z" fill="#fefdf8" fill-opacity="1" />
		<path d="M-1.35369,-115.511 C-1.50322,-115.511 -1.62443,-115.632 -1.62443,-115.781 C-1.62443,-115.931 -1.50322,-116.052 -1.35369,-116.052 C-1.20417,-116.052 -1.08295,-115.931 -1.08295,-115.781 C-1.08295,-115.632 -1.20417,-115.511 -1.35369,-115.511 Z" fill="#fefdf8" fill-opacity="1" />
		<path d="M66.6924,-90.8281 C66.5429,-90.8281 66.4217,-90.9494 66.4217,-91.0989 C66.4217,-91.2484 66.5429,-91.3696 66.6924,-91.3696 C66.8419,-91.3696 66.9632,-91.2484 66.9632,-91.0989 C66.9632,-90.9494 66.8419,-90.8281 66.6924,-90.8281 Z" fill="#fefdf8" fill-opacity="1" />
		<path d="M-27.7245,-94.6185 C-27.8741,-94.6185 -27.9953,-94.7397 -27.9953,-94.8892 C-27.9953,-95.0387 -27.8741,-95.16 -27.7245,-95.16 C-27.575,-95.16 -27.4538,-95.0387 -27.4538,-94.8892 C-27.4538,-94.7397 -27.575,-94.6185 -27.7245,-94.6185 Z" fill="#fefdf8" fill-opacity="1" />
		<path d="M-74.801,-123.689 C-74.9505,-123.689 -75.0717,-123.81 -75.0717,-123.96 C-75.0717,-124.11 -74.9505,-124.231 -74.801,-124.231 C-74.6515,-124.231 -74.5303,-124.11 -74.5303,-123.96 C-74.5303,-123.81 -74.6515,-123.689 -74.801,-123.689 Z" fill="#fefdf8" fill-opacity="1" />
		<path d="M54.1336,-30.0766 C53.9841,-30.0766 53.8628,-30.1978 53.8628,-30.3474 C53.8628,-30.4969 53.9841,-30.6181 54.1336,-30.6181 C54.2831,-30.6181 54.4043,-30.4969 54.4043,-30.3474 C54.4043,-30.1978 54.2831,-30.0766 54.1336,-30.0766 Z" fill="#fefdf8" fill-opacity="1" />
		<path d="M168.097,104.984 C176.331,102.405 182.37,99.5004 178.023,92.8846 C175.282,88.6782 169.678,84.8616 165.486,80.9829 C161.764,77.7168 159.767,74.1636 155.77,70.8568 C146.034,62.7631 136.778,68.4475 117.305,52.2602 C108.802,45.2996 92.0072,39.4163 77.3866,35.8911 C68.9984,33.833 61.6093,32.6015 53.3958,33.1478 C45.1625,33.8268 40.9271,35.9129 31.7735,35.2341 C17.9157,34.1291 4.25357,33.5959 -7.6072,36.0441 C-30.7012,40.4906 -29.0651,55.9327 -26.7175,62.7949 C-24.3699,69.6571 -9.22783,84.795 17.9903,97.9237 C32.569,105.514 19.8062,108.371 34.834,118.607 C42.4752,123.811 123.367,160.777 157.954,146.907 C170.777,141.751 175.095,133.435 173.651,124.264 C172.557,118.402 171.64,111.345 168.097,104.984 Z M12.6226,64.1503 C7.11491,63.4692 2.33454,59.7747 2.45397,57.0783 C2.5734,54.3818 7.29853,52.7754 12.8062,53.4564 C18.3139,54.1374 25.4273,57.2279 25.2881,60.0572 C25.1884,62.6209 18.1302,64.8313 12.6226,64.1503 Z M56.0443,58.7825 C56.3607,54.7582 63.1838,52.2415 71.4552,53.1967 C79.7068,54.2846 87.4281,57.0581 87.3664,61.2559 C87.3048,65.4538 80.5788,69.2062 72.3075,68.2511 C63.7617,67.2553 55.7083,62.9397 56.0443,58.7825 Z M75.6025,123.566 C70.0948,122.885 65.7451,120.069 65.8645,117.373 C65.984,114.676 68.5139,112.744 74.0807,113.027 C81.0391,113.38 85.4479,115.798 86.7004,118.698 C88.3246,122.875 81.1102,124.247 75.6025,123.566 Z M92.1289,91.5469 C92.4465,85.6228 99.9366,82.3907 112.049,83.9156 C124.162,85.4404 131.411,91.4008 131.093,97.3249 C130.776,103.249 128.755,105.528 116.642,104.003 C104.824,102.386 91.8112,97.471 92.1289,91.5469 Z M127.641,130.062 C123.525,129.451 120.175,127.462 120.215,125.297 C120.236,123.264 124.707,121.484 129.117,122.002 C133.252,122.48 137.975,124.673 137.954,126.706 C137.933,128.738 134.521,130.946 127.641,130.062 Z" fill="#4e401c" fill-opacity="0.428044" />
	</g>
</svg>