<?xml version="1.0" encoding="utf-8" ?>
<svg version="1.1" xmlns="http://www.w3.org/2000/svg" xmlns:xlink="http://www.w3.org/1999/xlink" width="300" height="168.75" viewBox="0 0 300 168.75">
	<g transform="matrix(1,0,0,1,150,84.375)">
		<path d="M-129.92,-27.9266 C-129.92,-27.9266 -113.971,-42.0202 -99.1872,-41.1068 C-84.4039,-40.1935 -70.3102,-24.2436 -70.3102,-24.2436 C-70.3102,-24.2436 -56.2166,-8.29369 -41.4332,-7.3803 C-26.4115,-6.45219 -11.1769,-20.59 -11.1769,-20.59 C-11.1769,-20.59 4.77299,-34.6837 19.5563,-33.7703 C34.5781,-32.8422 48.4333,-16.907 48.4333,-16.907 C48.4333,-16.907 62.5269,-0.957158 77.3102,-0.0437754 C92.332,0.88434 107.567,-13.2535 107.567,-13.2535" fill="#000" fill-opacity="0" stroke-width="7" stroke="#ff419f" />
		<path d="M-127.799,-25.7985 C-127.799,-25.7985 -109.415,-36.5256 -95.0911,-32.758 C-80.7668,-28.9905 -70.0397,-10.6069 -70.0397,-10.6069 C-70.0397,-10.6069 -59.3126,7.77682 -44.9882,11.5443 C-30.4328,15.3726 -12.7423,4.46324 -12.7423,4.46324 C-12.7423,4.46324 5.64139,-6.26386 19.9657,-2.49633 C34.5211,1.33195 45.0171,19.6548 45.0171,19.6548 C45.0171,19.6548 55.7442,38.0385 70.0686,41.806 C84.624,45.6343 102.315,34.7249 102.315,34.7249" fill="#000" fill-opacity="0" stroke-width="7" stroke="#ff419f" />
		<path d="M76.4849,-30.0566 C77.3021,-27.0618 75.5369,-23.9716 72.5422,-23.1543 C69.5474,-22.3371 66.4572,-24.1023 65.6399,-27.097 C64.8227,-30.0918 66.5879,-33.182 69.5826,-33.9993 C72.5774,-34.8165 75.6676,-33.0513 76.4849,-30.0566 Z" fill="#fe9fe3" fill-opacity="1" />
		<path d="M-62.913,-51.9747 C-62.0958,-48.98 -63.861,-45.8897 -66.8557,-45.0725 C-69.8505,-44.2552 -72.9407,-46.0204 -73.758,-49.0152 C-74.5753,-52.01 -72.81,-55.1002 -69.8153,-55.9175 C-66.8205,-56.7347 -63.7303,-54.9695 -62.913,-51.9747 Z" fill="#fe9fe3" />
		<path d="M17.5963,22.2721 C18.4136,25.2669 16.6484,28.3571 13.6536,29.1744 C10.6589,29.9916 7.56863,28.2264 6.75137,25.2316 C5.93412,22.2369 7.69933,19.1466 10.6941,18.3294 C13.6888,17.5121 16.7791,19.2773 17.5963,22.2721 Z" fill="#fe9fe3" />
		<path d="M82.2804,58.4846 C83.0977,61.4794 81.3325,64.5696 78.3377,65.3869 C75.343,66.2041 72.2527,64.4389 71.4355,61.4442 C70.6182,58.4494 72.3834,55.3592 75.3782,54.5419 C78.3729,53.7246 81.4632,55.4899 82.2804,58.4846 Z" fill="#fe9fe3" />
		<path d="M-77.7065,5.1178 C-76.8893,8.11256 -78.6545,11.2028 -81.6492,12.0201 C-84.644,12.8373 -87.7342,11.0721 -88.5515,8.07734 C-89.3687,5.08259 -87.6035,1.99234 -84.6088,1.17509 C-81.614,0.357834 -78.5238,2.12305 -77.7065,5.1178 Z" fill="#fe9fe3" />
		<path d="M11.0447,-54.031 C11.8619,-51.0363 10.0967,-47.946 7.10195,-47.1288 C4.1072,-46.3115 1.01695,-48.0768 0.199697,-51.0715 C-0.617558,-54.0663 1.14766,-57.1565 4.14241,-57.9738 C7.13717,-58.791 10.2274,-57.0258 11.0447,-54.031 Z" fill="#fe9fe3" />
	</g>
</svg>