<?xml version="1.0" encoding="utf-8" ?>
<svg version="1.1" xmlns="http://www.w3.org/2000/svg" xmlns:xlink="http://www.w3.org/1999/xlink" width="300" height="168.75" viewBox="0 0 300 168.75">
	<g transform="matrix(1,0,0,1,150,84.375)">
		<path d="M58.6417,13.381 C58.6417,41.0646 107.46,24.0972 107.46,24.0972 C45.544,84.5249 -19.3487,27.6693 -45.8417,9.5112 C-78.2881,-12.5166 -117.879,2.96239 -117.879,2.96239 C-117.879,2.96239 -98.8276,-16.0887 -68.7625,-16.0887 C-68.7625,-16.0887 -45.544,-16.6841 -16.372,3.26006 C13.3953,23.5019 30.6604,-3.28875 19.6465,-14.005 C8.63255,-25.0189 -17.8604,-27.4003 -26.4929,-27.4003 C-26.4929,-27.4003 4.16745,-47.6421 56.8556,-30.6747 C56.8556,-30.6747 51.4975,-43.4747 22.6232,-49.7258 C28.8743,-50.6188 34.8278,-51.2142 41.3766,-51.2142 C101.507,-51.5118 119.069,-1.50271 119.069,-1.50271 C92.2787,-16.6841 58.6417,-7.75385 58.6417,13.381 Z" fill="#fc6" stroke-width="6" stroke="#e60" />
	</g>
</svg>