<?xml version="1.0" encoding="utf-8" ?>
<svg version="1.1" xmlns="http://www.w3.org/2000/svg" xmlns:xlink="http://www.w3.org/1999/xlink" width="300" height="168.75" viewBox="0 0 300 168.75">
	<g transform="matrix(1,0,0,1,150,84.375)">
		<path d="M-37.0861,-8.58392 L-39.1489,-21.9616 C35.4495,-33.4643 100.614,-12.8339 106.307,24.0883 L79.2787,28.256 C74.72,-1.30856 22.6466,-17.7944 -37.0861,-8.58392 Z" fill="#483523" stroke-width="47" stroke="#aaa" />
		<path d="M78.5806,10.7601 C81.2193,8.30745 85.3409,8.45806 87.7935,11.0968 C90.2462,13.7354 90.0955,17.857 87.4569,20.3096 L78.5806,10.7601 Z" fill="#8c8c8c" />
		<path d="M90.1367,19.7254 L92.9059,37.6846 L98.4895,36.8236 L95.5929,18.0385 L96.025,17.6013 L95.4358,17.0191 L95.3543,16.4909 L94.9624,16.5514 L69.0576,-9.04531 L69.1052,-9.1933 L68.8123,-9.28764 L68.341,-9.7533 L68.1058,-9.51519 L32.0604,-21.1243 L31.9881,-20.8998 L-6.44594,-19.9698 L-6.44594,-19.9698 L-6.4537,-20.0201 L-6.84253,-19.9602 L-6.86851,-19.9595 L-6.86842,-19.9562 L-44.9179,-14.0891 L-44.0569,-8.50554 L-6.34163,-14.3211 L31.8831,-15.2461 L65.799,-4.32278 L65.799,-4.32278 L90.1367,19.7254 Z" fill="#000" />
		<path d="M-62.8857,13.4381 L-60.2484,30.5418 L-44.9179,28.1779 L-47.5552,11.0742 L-47.1935,11.0184 L-52.8159,-25.4448 L-53.1777,-25.389 L-56.7784,-48.7407 L-72.1089,-46.3768 L-68.5082,-23.0251 L-144.026,-11.3805 L-138.404,25.0827 L-62.8857,13.4381 Z" fill="#483523" />
	</g>
</svg>