<?xml version="1.0" encoding="utf-8" ?>
<svg version="1.1" xmlns="http://www.w3.org/2000/svg" xmlns:xlink="http://www.w3.org/1999/xlink" width="300" height="168.75" viewBox="0 0 300 168.75">
	<g transform="matrix(1,0,0,1,150,84.375)">
		<path d="M0,11.8354 L0,-11.1222 L-114.788,-11.1222 L-114.788,11.8354 Z" fill="#4e371e" />
		<path d="M5.70608,38.1195 L5.84187,38.2229 L5.84187,38.0744 L120.183,0.130314 L5.84187,-37.8138 L5.84187,-38.2229 L5.46761,-37.938 L5.39465,-37.9622 L5.39465,-37.8825 L-44.3806,-6.82428e-07 L5.39465,37.8825 L5.39465,38.2229 L5.70608,38.1195 Z" fill="#bbb" />
		<path d="M-6.5445,-0.737114 L-6.5445,0.754256 L82.3466,0.754256 L82.3466,-0.737114 L-6.5445,-0.737114 Z" fill="#000" />
		<path d="M-105.593,-13.6098 L-105.593,13.6098 L-119.039,13.6098 L-119.039,-13.6098 Z" fill="#bbb" stroke-width="4" stroke="#000" />
	</g>
</svg>