<svg xmlns="http://www.w3.org/2000/svg" width="300" height="300"><path fill="#b30005" d="M0 0h300v300H0z"/><path d="M-24.6 304.4L27.8 116l9.8-15.8 43.2-29.7 60 66.6 15.5 18.7 24-2.5 26.5 12.6 62.5 63 19.6 75.6z" fill="#fff"/><path d="M26.7 304l47-90.5 22-13.5 49.5 12.3 25-19.5 23.6-76.5 8.8-3 27.6-30.8 8.5 3.8 25.5 49.7 14.4 18.8 18 19.7 22 129.5z" fill="#fff"/><path d="M128.3 182.7c0-.5-.5-1-1-1l-1.4.2-.2-.7h1.5c.8 0 1.5.5 1.6 1.3v1.5l-.7.2v-1.5z" fill="#820000" stroke-width=".1" stroke="#000" stroke-linecap="square"/><path d="M118 175l-1 .4 4 7.2 1-.5z" fill="#1e1f1f" stroke-width=".1" stroke="#000" stroke-linecap="square"/><path d="M119.8 181.4c-.5-.3-.4-1 0-1.3l.2.3c-.4.2-.4.7-.2 1z" fill="#020101" stroke-width=".1" stroke="#000" stroke-linecap="square"/><path d="M118 181.2v-.4c1-.2 1.8.3 2 1.2h-.2c-.2-.6-1-1-1.8-.8z" fill="#020101" stroke-width=".1" stroke="#000" stroke-linecap="square"/><path d="M125.7 184.7l-1 2 .6.4 1.2-2z" fill="#1e1f1f" stroke-width=".1" stroke="#000" stroke-linecap="square"/><path d="M125 186h.2l-.8-1.4.7 1.5zM127.8 193.3l1-.6 1-.6s.8 1.5 2.3 1.6l-2 1.2-2 1c.6-1.3-.2-2.5-.2-2.5z" fill="#1e1f1f" stroke-width=".1" stroke="#000" stroke-linecap="square"/><path d="M124 195.4l1-.6 1-.6s.7 1.4 2.3 1.5l-2 1.2-2.2 1c.7-1.3 0-2.6 0-2.6z" fill="#1e1f1f" stroke-width=".1" stroke="#000" stroke-linecap="square"/><path d="M127.6 189.4c0-.4 0-.8-.4-1l-1-.3v-.3l1 .4c.7.3 1 1 .8 1.5l-.4 1h-.4l.4-1z" fill="#820000" stroke-width=".1" stroke="#000" stroke-linecap="square"/><path d="M125.7 186.8l-.7.4 4 7.2.7-.4zM122 179.8l-.4.8 4 1.6.4-.8z" fill="#1e1f1f" stroke-width=".1" stroke="#000" stroke-linecap="square"/><path d="M125.8 181.3l-.7.8 4 3.4.7-.8z" fill="#1e1f1f" stroke-width=".1" stroke="#000" stroke-linecap="square"/><path d="M130.5 183.7l-.4-.3-2 2.6.3.3 2.2-2.6z" fill="#1e1f1f" stroke-width=".1" stroke="#000" stroke-linecap="square"/><path d="M127 182.6l.3-.2-.4-.4-.4.2.5.4zM128.5 186.2l.3-.3-.5-.6-.3.3.5.5zM129 185.6l-.4-.5v.2l.4.4z" fill="#8c8c8c" stroke-width=".1" stroke="#000" stroke-linecap="square"/><path d="M129.4 184.6l6 5.7-6.5-5z" fill="#3a0000" stroke-width=".1" stroke="#000" stroke-linecap="square"/><path d="M124.6 181.6l.3.2c-.2.2-.2.6 0 .7.4.2.7 0 1-.2l.2.2c-.3.5-.8.6-1.3.4-.5-.4-.7-1-.4-1.4z" fill="#820000" stroke-width=".1" stroke="#000" stroke-linecap="square"/><path d="M-52.3 304.5l32.8-63.4 36-17 37-75 16.8-66L89 101l21 57.5 39.2 35.7 56.6 13.4 45.4 26.8 12 35.3 21 34.8z" fill="#4d4d4d"/><path d="M342 303.5l-28.5-41.3-31-11-32.2-49-14.7-43-16 11.7-18.3 37.4-34 23.3-49.2 8.7L78.8 258l-10.3 22.8-18.2 22.7z" fill="#4d4d4d"/><path d="M137.8 207.8l-2 1.7-4.4-5.2 2-1.7 4.4 5.2z"/><path d="M130.4 220.4l-2-1.4 13.8-19 2 1.3-13.8 19z" fill="#480000"/><path d="M150.7 208l5.7-2.7-5.4-.5z"/><path d="M145.7 209l1.8 2 5.2-4-1.7-2.2-5.3 4.2z"/><path d="M150.8 222.4l2-1-9.5-21.3-2 1 9.5 21.4z" fill="#480000"/><path d="M134.3 212.2v-1.4l13.8 1.4v1.4l-13.7-1.4z" fill="#480000"/><path d="M141.6 211.8c-1.4-.2-2.5 0-2.6 0l-.6 6.6c0 .4 1 .8 2.4 1 1.4 0 2.5 0 2.6-.5l.6-6.6c0-.2-1-.5-2.4-.6z" fill="#373737"/><path d="M146.3 215.8l-3-6.6-.6 6.3zM136.6 215l4.2-6-.6 6.2z" fill="#480000"/><path d="M142.8 198.2l-2 3.7c1 .5 2.2.6 3.2.3l-1.2-4z"/><path d="M142.8 198.2l-2 3.7c1 .5 2.2.6 3.2.3l-1.2-4z"/><path d="M144.6 200.2c-.2.5-.5 1-1 1-.6.4-1.2.3-1.7 0v.2c.3.7 1 1 1.8.7.8-.2 1-1 .8-1.8z" fill="#361e00"/><path d="M140.6 199.8c0 .5.3 1 .8 1.3.5.4 1 .5 1.6.4-.5.7-1.4.8-2 .4-.7-.5-.8-1.4-.4-2z" fill="#361e00"/><path d="M157.4 206l-.5-2.5-6.2 1.3.5 2.4 6-1.3zM145 205.8l-1-2.3 5.5-3 1.2 2.3-5.6 3zM139 205.3l1.6-2-5-4-1.5 2 5 4z"/><path d="M134 201.4l2.4-1-2.6-6-2.3 1.2 2.6 5.8zM150.4 203l-2-1.6 3.7-5 2 1.4-3.6 5z"/><path d="M151 198.5l2-6 1 5.5zM134.4 196.8l-1-6.2-2 5z"/><path d="M152.6 194.4l2.8.3-1.6 2.3zM132.3 194.8l1.7-2.3-2.8-.3zM133 205.8l-5-3.7 5.4.7z"/><path d="M137 211.7c0 .3.4.5.7.4.2 0 .4-.2.3-.5l-1-1.8v2z" fill="#e8e8e8"/><path d="M139.3 208.7c0-.3-.3-.4-.5-.4-.3 0-.5.3-.4.6l.8 1.8.2-2z" fill="#bf9354"/><path d="M145.8 209.7c0-.3 0-.6-.2-.7-.2-.2-.5 0-.6 0v.2l-.8 1.8 1.5-1.2z" fill="#e8e8e8"/><path d="M140.3 212.3c0 .3.2.6.5.6.4 0 .6-.3.7-.6v-.2l-.4-2-.6 2z" fill="#bf9354"/><path d="M141.8 212.4c0 .4.2.6.5.7.4 0 .6 0 .7-.4v-.2l-.4-2-.7 2h-.2z" fill="#e8e8e8"/><path d="M141 211.5c0 .3.3.6.6.6.4.2.6 0 .7-.4l-.4-2.3-.8 2v.2z" fill="#e8e8e8"/><path d="M146 212.6c0 .2-.4.3-.6.2-.3 0-.4-.4-.3-.6.2 0 .2-.2.2-.2l1.2-1.5-.3 2z" fill="#bf9354"/><path d="M130.5 208c-2.4 1.2-4.2 3-5 5.4 2.2.7 4.8.7 7.2-.4 2.4-1 4-3 5-5.2-2.2-.8-4.8-.7-7.2.3z" fill="#4b0000"/><path d="M131.4 209c-1.2.4-2 1.2-2.7 2.2 1 .5 2.3.6 3.5.2 1.2-.4 2-1.2 2.7-2.2-1.2-.5-2.4-.6-3.6-.2z" fill="#272727"/><path d="M131.5 213c2 0 2-1 1.8-1 0-.2 0-.8.7-.8.8 0 .7-.5.7-.7 0-.4-.7-.6-2-.4-1.5.3-2 .5-2 .2s.4-.2.4-.4c0-.4-.6-.2-1.3 0-.7 0-3 .5-3 1.2.2.4 1.4-.2 1.4 0 .2.7-1 .7-1 1.4s1.3 0 2.3 0c.6 0-.7 1.3 2.2.7z" fill="#937f6b"/><path d="M131 210.4l-.7-.5.5.6zM131.7 209.7l-.6-.6.5.8zM133.3 210.5l-.7-.6.5.6z" fill="#613e22"/><path d="M134 209.4l-.7-.6.5.7zM132.5 209l-.6-.7.3.7z" fill="#fe9e10"/><path d="M132 211l-.6-.5.4.7z" fill="#613e22"/><path d="M132.8 216l-.7-2.6-6 1.8.6 2.5 6.2-1.8z" fill="#480000"/><path d="M133.6 217l-4.6-3.3c1.8-2.6 5.4-3 8-1.3l-3.4 4.6z" fill="#3b2300"/><path d="M131 216l-.4-1.7-4.3 1 .4 1.8 4.4-1z" fill="#ccc"/><path d="M134.4 219.6l-1.4 1-4.7-7 1.4-1 4.7 7z" fill="#3b2300"/><path d="M133.5 220.2l1.6.4 2.2-8.2-1.6-.5-2 8.2z" fill="#3b2300"/><path d="M132.6 217.7v-.2l1.7-.2-1.7.4z" fill="#3b2300"/><path d="M132.3 215.8l-1.3-1.6.8-2h2l1.3 1.5-.7 2z"/><path d="M132.5 215.5l-1-1.3.6-1.5 1.6-.3 1 1.3-.5 1.5z" fill="#272727"/><path d="M148.7 217.5l1-2.3 6 3-1.3 2.3-5.7-3z" fill="#480000"/><path d="M150.3 218l.7-1.7 4 2-.7 1.5-4-2z" fill="#ccc"/><path d="M126.7 202.4l1-2.3 5.7 2.6-1 2.3-5.7-2.6z"/><path d="M141.5 202c0 .6.3 1 .8 1s1-.2 1-.7v-.2l-.6-3.2-1 3c0 .2-.2.2-.2.3z" fill="#d7a84f"/><path d="M143 202l-.5-1-.6.8.3 1z" fill="#101a7f"/><path d="M152.7 210.8l-.5-1.7 8.3-2.7.6 1.7-8.3 2.8z" fill="#464646"/><path d="M148.8 212.2l-.6-2 4.7-1.5.5 2-4.7 1.5z" fill="#361e00"/><path d="M152.3 208h.7l1 3.2-.6.2-1-3.3z" fill="#fec304"/><path d="M159 208.7l-.7-1.6 13.3-4.4.6 1.6-13.3 4.5z" fill="#373737"/><path d="M165.6 205.7v-.3l2.2-.7v.2l-2.2.7z" fill="#373737"/><path d="M154 209.5l12.7-4.3" stroke-width="1.5" stroke="#373737" stroke-linecap="square" fill="none"/><path d="M153.4 209.8v-.3l2.2-.7v.2l-2.2.8zM155.6 209v-.2l2-.7.2.3-2.2.8z"/><path d="M157.6 208.4v-.3l2-.6.2.2-2.2.8z"/><path d="M159.7 207.7v-.3l2-.7.2.2-2.3.7z"/><path d="M161.7 207v-.2l2.2-.8v.2l-2.3.8z"/><path d="M163.6 206.3v-.2l2.2-.7v.3l-2.2.7z"/><path d="M165.6 205.7v-.3l2.2-.7v.2l-2.2.7z"/><path d="M167.7 205v-.3l2-.7.2.2-2.3.8zM171.4 203.7l.7-.4-.7.2z"/><path d="M146.2 213l-.6-1.8 4.7-1.6.6 2-4.8 1.5z" fill="#361e00"/><path d="M152 209.5l-.8 1h1l1-.7z" fill="#fe9e10"/><path d="M152 209.8l-.4.5h.7l.4-.4zM149.7 209.8v-.2l2.3 1.5-.2.3-2-1.5zM147.7 212.5h.2l.6-2.5h-.2l-.7 2.5z" fill="#c90000"/><path d="M145.7 211v.3l3 1v-.3l-3-1zM149.3 210h.2l1.4 1.3h-.2l-1.5-1.3zM150.6 211.6v-.2l-2-.3v.3l2 .3z" fill="#c90000"/><path d="M149.4 212.4c0 .3-.3.6-.4.5v-.8l.6-.5s0 .4-.2.7z" fill="#fed681"/><path d="M148.8 213.2l-.6.4s0-.3.3-.6.6-.4.6-.3c.2 0 0 .3-.2.5z" fill="#fed681"/><path d="M148.4 214c0 .4-.2.7-.3.7v-.7c0-.4.2-.7.3-.7v.7z" fill="#fed681"/><path d="M148 215l-.6.2s0-.3.3-.6c.3-.2.5-.4.6-.3 0 0 0 .3-.3.6z" fill="#fed681"/><path d="M147 215.2c-.3.2-.6.2-.7 0 0 0 .3 0 .6-.3.3-.2.6-.2.6 0l-.6.2z" fill="#fed681"/><path d="M146.4 215.5l-.7.2.5-.5.6-.2s0 .3-.4.5z" fill="#fed681"/><path d="M172.2 204.3L171 203l3-3 1.3 1.2-3 3z" fill="#373737"/><path d="M169.2 204.4v-.2l2-.7.2.2-2.2.7zM171.5 203.7l-.2-.2 1.8-1.6h.2l-1.7 1.7z"/><path d="M173 202.3v-.2l1.6-1.5.2.2-1.8 1.6z"/><path d="M175 200.3c0-.2-.4-.4-.6-.5v1c.3 0 .6.3 1 .4 0-.3 0-.6-.3-1z" fill="#373737"/><path d="M174.5 199.5l.3.3-.5.6-.4-.4.5-.5z" fill="#373737"/><path d="M151.7 218.3c1.3.6 1.4.3 1.4.2 0 0 .2-.2.7 0 .5.2.5 0 .6 0 0-.2-.3-.4-1.2-1l-1-.4h.3l-.8-.5c-.5-.2-2-.7-2-.4 0 .2.7.4.7.5 0 .3-1-.2-1 0 0 .4.8.5 1.4.8.4.2-.7.3 1 1z" fill="#937f6b"/><path d="M215.3 192.6l-3 .2-1.5-31.4 3-.2 1.5 31.4z" fill="#ffb220"/><path d="M200.8 195.7c-6.7.3-12.7 3.8-17 9.7 4.8 5.3 11 8.5 17.8 8.2 6.7-.3 12.7-4 17-9.7-4.8-5.4-11-8.6-17.8-8.3z" fill="#4c005d" stroke-width=".4" stroke="#000" stroke-linecap="square"/><path d="M194.5 204.5l-.3-7.4 9.6-.3c2 0 3.8 1.5 4 3.5 0 2-1.6 3.8-3.6 4l-9.7.3zM194.8 212.6l-.4-7.4 9.7-.4c2 0 3.8 1.4 4 3.5 0 2-1.6 3.7-3.6 3.8l-9.6.6z" fill="#f7f7f7" stroke-width=".4" stroke="#000" stroke-linecap="square"/><path d="M212 208.4c0-1.6-.8-3-1.8-4.2 1-1 1.5-2.6 1.4-4.3 0-3.6-3-6.3-6.6-6l-14.8.5.2 4.2 14.8-.6c1 0 2 1 2.2 2 0 1.3-1 2.3-2 2.3l-15 .7.3 4.2 14.8-.6c1.2 0 2.2.8 2.3 2 0 1-1 2-2 2.2l-15 .6.3 4.3 15-.7c3.4 0 6-3 6-6.6z" fill="#4c005d" stroke-width=".4" stroke="#000" stroke-linecap="square"/><path d="M200.3 208.6c-4.3.2-7.7.8-7.7 1.3l.7 15c0 1 3.5 1.8 7.8 1.6 4.4-.2 7.8-1 7.7-2L208 209c0-.5-3.4-.8-7.7-.6z" fill="#4c005d" stroke-width=".4" stroke="#000" stroke-linecap="square"/><path d="M195.3 215.5l-4.2.2-.8-21.2 4.2-.2 1 21.2zM216 209.4c-2 .6-3.7 1.4-3.6 1.8l3.2 10.6c.3.7 2.2.7 4.3 0 2-.6 3.6-1.7 3.4-2.4l-3.2-10.6c0-.3-2 0-4 .6zM186.8 210.5c2.2.4 4 1 3.8 1.5l-2.3 10.8c0 .7-2 1-4.2.4-2-.4-3.7-1.4-3.6-2l2.3-11c0-.2 2-.2 4 .3z" fill="#4c005d" stroke-width=".4" stroke="#000" stroke-linecap="square"/><path d="M215.2 227.3l-.2-4.2c0-1.6 1.3-3.2 3-3.2l4.2-.2c1.8 0 3.3 1.3 3.4 3l.2 4.2c0 1.8-1.3 3.3-3 3.4h-4.2c-1.8.2-3.3-1.2-3.4-3zM188.3 228.7c-1 0-1.7 0-1.7.2l-.3 4.3c0 .3.7.6 1.6.6 1 0 1.7-.2 1.7-.5l.3-4.4-1.7-.3zM182.6 229.4c-1-.4-1.6-.5-1.7-.4l-1.6 4c0 .4.5 1 1.4 1.2 1 .3 1.7.4 1.8 0l1.5-4c.2 0-.5-.5-1.4-.8z" fill="#4c005d" stroke-width=".4" stroke="#000" stroke-linecap="square"/><path d="M179.4 228.7l-.2-4.2c0-1.7 1.3-3.3 3-3.3l4.2-.2c1.8 0 3.3 1.3 3.4 3l.2 4.2c0 1.8-1.3 3.3-3 3.4l-4.2.2c-1.8 0-3.3-1.4-3.4-3zM211 212.2c3 2.8 7 3.2 9.3.8 2-2.3 1.3-6.4-1.7-9.2-3-2.8-7.3-3.2-9.4-1-2 2.4-1.4 6.6 1.7 9.4zM194.2 217.4c0 .8.6 1.3 1.4 1.3l4-.2c.8 0 1.3-.6 1.3-1.4 0-.6-.8-1.2-1.5-1.2l-4 .2c-.8 0-1.4.7-1.3 1.4zM201 217c0 1 .8 1.4 1.5 1.4l4-.2c.8 0 1.4-.6 1.3-1.4 0-.7-.6-1.3-1.4-1.3l-4 .2c-.8 0-1.3.7-1.3 1.4zM194.3 220.4c0 .8.7 1.3 1.4 1.3l4-.2c.8 0 1.4-.6 1.3-1.4 0-.6-.6-1.2-1.4-1.2l-4 .2c-.8 0-1.3.7-1.3 1.4zM201.2 220c0 1 .7 1.4 1.4 1.4l4-.2c.8 0 1.4-.6 1.4-1.4 0-.7-.7-1.3-1.5-1.3l-4 .2c-.7 0-1.3.7-1.3 1.4zM194.4 223.3c0 .8.7 1.4 1.4 1.3l4-.2c.8 0 1.4-.6 1.4-1.4 0-.7-.7-1.3-1.4-1.2h-4c-.8.2-1.4.8-1.4 1.5zM201.3 223c0 .8.7 1.4 1.5 1.3l4-.2c.7 0 1.3-.5 1.3-1.3 0-.7-.6-1.3-1.3-1.3l-4 .2c-.8 0-1.4.7-1.4 1.4z" fill="#4c005d" stroke-width=".4" stroke="#000" stroke-linecap="square"/><path d="M188.6 207.3l12-.5.2 4.8c.2 2.7-2.4 5-5.7 5-3.3.3-6-1.8-6.2-4.5l-.2-4.7z" fill="#4c005d" stroke-width=".4" stroke="#000" stroke-linecap="square"/><path d="M200.6 206.8l12-.6.3 5c0 2.6-2.6 5-6 5-3.3 0-6-2-6.2-4.6l-.2-4.8zM191.4 213c-2.8 3-7 3.8-9.2 1.7-2.3-2-2-6.3 1-9.3 2.7-3 6.8-4 9-1.8 2.4 2.2 2 6.4-.8 9.4zM216.3 218.7l4 .8c.5 0 .5.4 0 .6l-4 1.3c-.5 0-1.3 0-1.3-.3v-2c0-.2.7-.5 1.3-.3z" fill="#4c005d" stroke-width=".4" stroke="#000" stroke-linecap="square"/><path d="M221.5 218l-3.3 2.4c-.4.4-.3.7.3.6l4-.6c.6 0 1.2-.6 1-1l-.7-1.7c0-.2-.8 0-1.3.3zM187.6 219l-4 1c-.4.3-.4.7.2.8l4 .8c.5 0 1.2 0 1.2-.4v-2c0-.2-.8-.4-1.4-.2z" fill="#4c005d" stroke-width=".4" stroke="#000" stroke-linecap="square"/><path d="M182.4 218.8l3.4 2c.5.4.4.8-.2.7l-4-.3c-.7 0-1.3-.4-1.2-.7l.6-1.8c0-.3.8-.3 1.4 0zM217.3 227c-1 0-1.6-.2-1.7 0l-1.2 4.2c0 .3.6.7 1.5 1 .8.2 1.6.2 1.7 0l1.2-4.3c0-.3-.8-.6-1.7-1zM181 229.3c-1-.2-1.6-.3-1.7-.2l-1.2 4.4c0 .3.7.7 1.6 1 1 .2 1.7.2 1.8 0l1.2-4.3-1.6-.7z" fill="#4c005d" stroke-width=".4" stroke="#000" stroke-linecap="square"/><path d="M183.7 229.4c-1 0-1.7.2-1.7.3l.2 4.4c0 .4.8.6 1.7.6.8 0 1.6-.3 1.6-.6l-.2-4.4c0-.2-.8-.3-1.7-.2zM181 227.6l-1.7-.6-1.5 2.8s.5.6 1.4 1c.8.5 1.6.7 1.7.6l1.3-2.8s-.6-.6-1.4-1z" fill="#4c005d" stroke-width=".4" stroke="#000" stroke-linecap="square"/><path d="M178 230.4l2.5-2.7 2.2 2c.5.5.4 1.5-.3 2.2-.7.6-1.6 1-2 .4l-2.3-2zM186.7 229.2c-1 .2-1.7.5-1.6.6l1 4.4c0 .2 1 .3 1.8 0 1 0 1.6-.5 1.6-.8l-1-4.3-1.7.2zM216 231.3c-.7 0-1.4 0-1.4.3l.2 4c0 .2.7.4 1.5.4 1 0 1.6-.3 1.6-.6l-.3-4s-.7-.2-1.6 0zM221 227.2c-.8 0-1.5.2-1.5.4l.2 4c0 .2.7.4 1.6.4.8 0 1.5-.3 1.5-.6l-.2-4s-.7-.2-1.5-.2z" fill="#4c005d" stroke-width=".4" stroke="#000" stroke-linecap="square"/><path d="M221 231.2l-1.3.7 1.3 3.8c0 .2.8.2 1.6 0 .8-.3 1.4-.7 1.3-1l-1.3-3.8-1.6.2zM224.8 226c-.8.4-1.3 1-1.2 1l2 3.4c.3.2 1 0 1.7-.5s1.2-1 1-1.3l-2-3.4c-.2 0-.8.2-1.5.6z" fill="#4c005d" stroke-width=".4" stroke="#000" stroke-linecap="square"/><path d="M226.8 229.4c-.6.6-1 1.2-1 1.3l3 2.7c.3 0 1-.2 1.5-1 .6-.5 1-1.2.7-1.3l-3-2.6s-.6.3-1.2 1zM223.7 224.5l1.2-3.4 4.3 1.7c1 .3 1.4 1.3 1 2.2-.3 1-1.3 1.3-2.2 1l-4.3-1.5z" fill="#4c005d" stroke-width=".4" stroke="#000" stroke-linecap="square"/><path d="M200 195l.6 14-5.6-1-.5-11.3zM203 195l.6 14 4.4-1.6-.5-11.3z" fill="#a2fe19" stroke-width=".4" stroke="#000" stroke-linecap="square"/><path d="M200 193c.5.6-.4 2.3-2.3 3-2 .4-6.8-.8-9.2-4.2-2.3-3.4-3.6-7.6-.2-12 0 0-.7 6 3.8 9.6 4.7 3.5 7.2 2.7 8 3.7zM202 193c-.6.5.6 2.2 2.5 2.6 2 .4 6.7-1.3 8.7-5 2-3.4 3-7.7-.8-11.8 0 0 1.3 6-3 9.8-4.2 4-6.7 3.3-7.5 4.4z" fill="#acfe46"/><path d="M193 201.7l-.6-13 16.3-.8.6 13-16.3.7z" fill="#010201" stroke-width=".4" stroke="#000" stroke-linecap="square"/><path d="M218.8 199l-8 .4-.6-10 8-.4.6 10z" fill="#252525" stroke="#000" stroke-linecap="square"/><path d="M197.8 201.7c1.8-2 4.8-2 6.7-.3l5.8 5.3 2.2-2.3-6-5.4c-3-3-8-2.7-11 .5l-5.4 6 2.4 2 5.4-5.8z" fill="#020102" stroke-width=".4" stroke="#000" stroke-linecap="square"/><path d="M223.6 222.2l-3.6-5.4-1.6-6.3 2.5-1.2 3.5 5.5 1.7 6.3zM180 224.2l3-5.8 1-6.4-2.5-1-3 5.8-1.2 6.4z"/><path d="M221.2 200c-3.7-3-8.4-3.8-13.4-2.7 0 5 1.8 9.6 5.5 12.5 3.6 3 8.4 3.8 13.4 2.7 0-5-2-9.6-5.5-12.5z" fill="#252525" stroke-width=".7" stroke="#000" stroke-linecap="square"/><path d="M207.7 226.7L203 229c-1 .3-2 .3-2.8 0l-5-1.8c-1.5-.5-2.6-2.2-2.7-4v-1c0-2 1-3.7 2.4-4.5l4.6-2.2c1-.4 1.8-.4 2.7 0l5 1.7c1.5.6 2.6 2.2 2.7 4v1c.2 2-.8 3.8-2.3 4.5z" fill="#010201"/><path d="M210.3 220.4l-8.7 9.7-9.5-8.8-.6-15 18.3-1z" fill="#252525"/><path d="M180.4 201.8c3.4-3.2 8-4.5 13-4 .4 5-1 9.8-4.3 13-3.3 3.3-8 4.6-13 4-.4-5 1-9.8 4.4-13z" fill="#252525" stroke-width=".7" stroke="#000" stroke-linecap="square"/><path d="M214 198.8v13.6l-11 7.8v-13.6zM187 200l1 13.6 11.8 6.8-1-13.6z" fill="#252525" stroke-width=".8" stroke="#000" stroke-linecap="square"/><path d="M205 184.6c-1.8 0-3.4.8-4.5 2-1.3-1.2-2.8-1.7-4.6-1.6-3.8 0-6.6 3.3-6.5 7l.7 15.6 4.5-.2-.7-15.6c0-1.3 1-2.3 2-2.4 1.4 0 2.4 1 2.5 2.2l.6 15.6 4.6-.2-.7-15.6c0-1.3.8-2.3 2-2.4 1.3 0 2.3 1 2.4 2.2l.7 15.6 4.6-.2-.7-15.6c-.3-3.7-3.4-6.6-7-6.4z" fill="#252525" stroke-width=".4" stroke="#000" stroke-linecap="square"/><path d="M196.4 196c-.6 0-1-.4-1-1 0-.5.4-1 1-1 .5 0 1 .4 1 1 0 .5-.4 1-1 1zM205.7 195.6c-.6 0-1-.4-1-1 0-.5.3-1 1-1 .4 0 1 .4 1 1 0 .5-.5 1-1 1z" fill="#ef0a00" stroke-width=".4" stroke="#000" stroke-linecap="square"/><path d="M211.4 175l-.6-13.6 22.8-1 .6 13.7-22.8 1z" fill="#4d0008"/><path d="M211.4 175v-.5l22.8-1v.6l-22.8 1zM210.8 162v-.6l22.8-1v.6l-22.8 1zM218.3 172c-.2 0-.4-.2-.6 0l-1.2-2.2s.2-.4 0-.6c0-.2-.3-.2-.5 0-.2 0-.2.2 0 .4l1.5 3c.2 0 .4.2.6 0 .3 0 .4-.3.3-.5z" fill="#ff972d"/><path d="M213.6 173.4h.6l2.8-1.8-.6-1-2.8 1.6-.4.4h-.3c-.2 0-.2 0-.2.2l.5.8s.2.2.3 0v-.2zM232.2 162l-1.4-.2-14.2 8.2 1 1.6 14-8.2zM227 171.7c.2-.2.5-.3.7-.2l1-2.3c-.2 0-.3-.3-.2-.5 0-.2.4-.3.6-.2.3 0 .4.3.3.5l-1.4 3c-.2.3-.5.4-.7.3-.2-.2-.3-.4-.2-.6z" fill="#ff972d"/><path d="M231.8 172.6h-.5l-3-1.5.5-1 3 1.4.4.4s.2-.2.3 0l-.3 1h-.3c-.2 0-.2 0-.2-.2zM212.4 163l1.4-.5 14.8 7-.8 1.7-14.8-7z" fill="#ff972d"/><path d="M217.6 167.7c-.7 0-1.2-.3-1.6-.8-.6-.7-.7-1.5-.5-2.2.2-.6 1-1.4 1.8-1.5-.6.3-.8 1-.8 1-.2 1 .4 2 1.3 2 1 0 2.3-.4 3.4 0 .6.3 1.2 1 1 1.7-.2-1-1.8-1.3-2.4-.6-.2.3-.4.7 0 1 .2.3.7.3.7 0 0-.2-.2-.3-.3-.4.3-.2.8 0 1 .5 0 .4-.3.8-.7 1h-1.7c-.4 0-.6.3-.6.6 0 .4.2.6.4.6 0-.2.2-.3 0-.5.2 0 .3.3.3.4 0 .3-.3.5-.6.6-.5 0-1-.5-1.2-1 0-.5.2-1 .6-1.4-.6 0-1.2-.3-1.7-.8.6.2 1.2 0 1.6 0zM227.4 167.2c.7 0 1.2-.4 1.6-1 .5-.5.5-1.3.2-2-.2-.5-1-1.3-2-1.3.8 0 1 .7 1 1 .3.7-.2 1.7-1 2-1.2 0-2.4-.3-3.4.2-.7.2-1.2 1-1 1.7 0-1 1.8-1.5 2.4-.8.2.2.5.5 0 1 0 .2-.6.3-.6 0s0-.4.3-.5c-.5-.2-1 .3-1 .6 0 .4.2.8.7 1 .6 0 1-.3 1.7-.2.3 0 .6.4.6.7 0 .3-.2.6-.4.5 0 0-.2-.2 0-.4-.3 0-.3 0-.3.2 0 .3.3.5.6.6.4 0 1-.5 1-1 0-.6-.3-1-.7-1.4.6 0 1.2-.4 1.6-1-.6.3-1.2.3-1.6 0z" fill="#4f006c"/><path d="M234.2 174h-.6l-.6-13.6h.6l.6 13.7zM212 175h-.6l-.6-13.6h.6l.6 13.7z" fill="#ff972d"/><path d="M221.3 170.8l-2-1.8v-2.6l1.7-2h2.7l2 1.7v2.7l-1.7 2z" fill="#676767"/><path d="M221.6 165c1 0 1.8.6 1.8 1.3 0 .7-.7 1.3-1.7 1.3h-.7 1c1 0 2-.6 2-1.4 0-.7-1-1.3-2-1.3-.4 0-.8 0-1 .2h.6z" fill="#d7000b"/><path d="M221.7 167.6c1 0 1.8.5 1.8 1.2s-.7 1.3-1.7 1.4h-.7 1.2c1 0 2-.6 1.8-1.4 0-.7-1-1.3-2-1.3-.3 0-.7 0-1 .3.2 0 .5 0 .7-.2z" fill="#d7000b"/><path d="M221.3 165l.2 5.2h-.4V165z" fill="#d7000b"/><path d="M58.6 116.7L61 118c.6.2.8 1 .5 1.5-.3.6-1 .8-1.6.5l-3-1.4-2.5-1.5 1-2 2.8 1.5c.2 0 .2 0 .3.2z" fill="#f9fdfe" stroke-width="2" stroke="#d01700" stroke-linecap="square"/><path d="M61 124c.3-.8.3-1.5.2-2.2.6-.3 1.2-.8 1.6-1.5.8-1.4.2-3.3-1.3-4l-6.2-3.4-1 1.7 6.3 3.3c.5.3.7 1 .4 1.4-.3.5-1 .7-1.4.4l-6.2-3.3-1 1.8 6.3 3.3c.5.3.7 1 .4 1.4 0 .5-.8.6-1.3.4l-6.2-3.3-1 2L57 125c1.5.8 3.3.2 4-1.3z" fill="#feda8c"/><path d="M55.3 113l1.8 1-4.7 8.8-1.7-1z" fill="#feda8c"/><path d="M53 117l-2.8 5.4 6.6 3.4c1.4.7 3.2 0 4-1.5.7-1.5.2-3.3-1.2-4L53 117z" fill="#2494b9"/><path d="M39.2 115.7l.4-.7-6.5-3.7-.3.7 6.5 3.7z" fill="#020202" fill-opacity=".2"/><path d="M55 119.8c-.3 2 1.2 4 3 4.2M59 124.2c.5.4 1.5 0 2-.6" stroke-width=".5" stroke="#4f7899" stroke-linecap="square" fill="none"/><path d="M57.4 119.4l-15.6 2c-1-3.8 0-7.4 2.2-10.2l13.4 8.2z" fill="#a00011"/><path d="M57.4 119.4l-15.6 2c-1-3.8 0-7.4 2.2-10.2l13.4 8.2z" fill="#a00011"/><path d="M57 125.8l.5.2 1-2.4-.5-.2-1 2.4z" fill="#4f7899"/><path d="M57 121.4l1 3 2.7-1.2z" fill="#ffdf24"/><path d="M57 121.5l3.8 2v-1l-3-1.3z" fill="#ffdf24"/><path d="M58 124.6h.2l-1-3h-.4l1 3zM58 121.3l-.2-.4-1 .3v.4l1-.4zM60.4 122.6l.4-.2.4 1-.4.2-.4-1z" fill="#a00011"/><path d="M57.6 121.3l.2-.4 3 1.4-.2.4-3-1.5zM58 122v-.2l2 1-2-.8zM59.3 124H59l.7-1.2h.2l-.7 1.3z" fill="#a00011"/><path d="M59.8 123.2l-.2.3-2-1 .2-.2 2 1z" fill="#a00011"/><path d="M58 122h.2l-.2.6-.3-.2.3-.5zM57.7 122.4l.3.2-.3.5h-.2l.2-.6z" fill="#a00011"/><path d="M59.5 123.8v.2l-2-1v-.2l2 1z" fill="#a00011"/><path d="M59.3 125.5c-.2-.3 0-.8.2-1" stroke-width=".5" stroke="#4f7899" stroke-linecap="square" fill="none"/><path d="M58 124.6l-.3-.4 3-1v.4l-2.8 1zM61 123l.5-1-6.3-4.2-.6 1 6.3 4z" fill="#a00011"/><path d="M34.4 106.3l.4-.7-19.2-11-.4.8 19.2 11zM40 112.6l.3-.7L21 101l-.3.7 19.2 11z" fill="#020202" fill-opacity=".2"/><path d="M53.2 123.5c1.2-.4 2-1.8 1.5-3M54.5 124.3c.7-.3 1-1 1-1.8M55.8 125c.6-.2 1-1 .8-1.5" stroke-width=".5" stroke="#4f7899" stroke-linecap="square" fill="none"/><path d="M56 115.4l-1 2 3 1.4c1.7 1 3.2 1 3.5.6.3-.5-.8-1.6-2.5-2.5l-3-1.6z" fill="#d01700"/><path d="M55.7 112.3l.2-.5h.3s.2 0 .2.2c.2.5.7 1 1.4 1.4l2.5 1.6c2.4 1.4 3.5 3.7 2.3 4.8l-.3.2c-.6-.3.3-1.5-1.7-2.6-1-.7-2-.8-3-1.5-1.8-1-2.7-2.7-2-3.7z" fill="#020202"/><path d="M55 113.4c.2.5.5 1 1 1.6-1-.3-1 .6-1.6.3-.4-.2 0-1 .6-2z" fill="#020202"/><path d="M116.5 134c.7.3 1.3 1 1.3 1s.4-1-.3-1c-.8 0-1.3-.3-1-.8.5-.5 0-2 1-2 1 .4 1.7.7 2.3.5.7-.2 1-.5 1.7-.3 1 .2 2 0 1.8.5-.2.4-.4 1.4.2 1.7.6.4 1.4 1 1.6 1.4.2.6-1 .3-1 .3l1.4 2.3s.6.2 1-.6c.6-.8.5-1.3 1-1.7.6-.4.5-1.2 1.3-1.2.7 0 1.4-.5 1.8-1 .4-.3.5-.8 1.5 0 1 .6 1-1.5 1-1.5l-.7-1.2c-.8 0-1.3 0-1.3.7 0 .6 0 1.3-.8 1.8-.7.6-.7.8-1.5.5-1-.2-1.3-.3-1.3.6 0 .7-.7 1-1.2 1.2-.6.2-.5-.5-1-.8-.6-.4-1.6-1-1.5-1.7 0-.8.6-1.3-.3-1.4-1 0-1.7-.2-2-.7-.4-.5 0-1-.8-1.3-.7-.2-.7-1-.2-2 .4-1 .5-1.7 0-1l-1 2.4c0 .7.5.8 1 1 .3.3 0 .5-.2 1 0 .6-.6 1-1.3.7-.8-.2-2-.5-2.4 0-.4.7-.2 1.3-.6 1.6-.5.2-.2.7.5 1zm15.2 8.8c-.2-.6-.2-.6-.7-1.2-.5-.5-.7-.8-1-.8-.8 0-1-.3-1.2-1-.3-.6-.8-.5-1.5 0-.8.7-1.2 1.4-2.2 1.2-1 0-1.5-.3-2.2-.8-.7-.4-.5-1-.3-1.6.2-.7-.4-.5-.6.6-.3 1-.3 1 .2 1.5s.5 1 0 1.5-.3.6-1 .7c-1 0-1.7-.7-2.5-.3-.8.3-1 .2-1-.5-.4-.7-.7-1.7-1.2-1.5-.4 0-1 2-.3 2 .8 0 1 .8 1.7.7.6 0 1-.5 2.2-.2 1 .3 1.2.5 2.2-.4 1-1 1.3-1.3 2.2-1.2 1 0 1.4.3 2.2-.3l.8-.6 1 .3c1 .2 1.6.7 2 1 .5.3.7.4 1 1 .2.7.2.3 0-.2zm-14.5-3.4c0 .6.5-.4.8-.7l1-1c.7-.4 1-.3.3-1-.7-.6-1-.2-.6 0 .6.5.3.8-.2 1.2-.5.3-.6.6-1.4.2-.6-.4-1-.6-1-2.3-.4-1.8-.8-1.5-1-1.7-.5-.2-1.3 0-2 0-1.4 0-1 .8-1.4 1.4-.4.5-.8-.2-1.5-.5-.5-.3-.5 0 .3.5.8.4.7 1 1.6.2.7-1 .5-1.2 1-1.2.7 0 1.4-.2 2 0 .5.2.4 1.2.6 2.2.3 1 .5 1 1 1.4.8.3.7.5.6 1zm9 9.3c-.5-.4-1.2-.6-.6-1.8.6-1.3.4-1-.6-2-1-.8-.8-.6-.8-1 0-.7 0-1-.3-.2-.3 1-.3 1.2.4 1.5.7.3 1.3.5 1 1-.3.8-1.2 2-.2 2.3 1 .5 1.8.7 1 0z"/><path d="M116.3 134.2c.7.2 1.3 1 1.3 1s.4-1-.3-1c-.8-.2-1.3-.4-1-1 .5-.4.2-2 1-1.7 1 .2 1.7.6 2.4.4.6-.4.8-.7 1.6-.5 1 .2 2 .2 1.8.6 0 .5-.3 1.5.3 2 .6.2 1.4.7 1.6 1.2 0 .5-1.2.2-1.2.2l1.4 2.4s.6 0 1-.7c.6-.7.5-1.2 1-1.6.7-.3.5-1.2 1.3-1.2.7 0 1.4-.6 1.8-1 .5-.4.5-1 1.6-.2 1 .7.8-1.4.8-1.4l-.7-1.2c-.6 0-1.2 0-1.2.7 0 .8 0 1.4-.8 2-.6.5-.6.7-1.5.5-1-.2-1.3-.3-1.3.5s-.6 1-1.2 1.3c-.6.3-.5-.5-1-.8-.6-.3-1.6-1-1.5-1.7.2-.8.7-1.3-.3-1.3s-1.7-.2-2-.7c-.4-.6 0-1.2-.8-1.4-.7-.2-.7-.8-.2-2 .4-1 .5-1.6 0-1l-1 2.5c0 .6.5.7 1 1 .3.2 0 .3 0 1-.2.4-.8.8-1.5.5-.7-.2-2-.5-2.3 0-.3.7-.2 1.3-.6 1.6-.4.3-.2.8.5 1.2zm15.2 8.7c0-.7-.2-.7-.7-1.2-.5-.6-.7-1-1-1-.8 0-1-.2-1.2-.8-.2-.6-.8-.6-1.5 0s-1 1.3-2 1.2c-1 0-1.7-.4-2.4-.8s-.4-1-.3-1.7c.2-.7-.4-.4-.5.6-.2 1-.3 1 .2 1.5.5.6.6 1 0 1.5-.4.5-.3.7-1 .7-1 0-1.7-.6-2.5-.2-.7.4-.8.2-1-.5-.4-.6-.7-1.6-1-1.5-.6 0-1.3 2-.5 2s1 .8 1.8.7c.6 0 1.2-.5 2.2-.2 1 .3 1.2.5 2.3-.4 1-1 1.2-1.4 2.2-1.3 1 0 1.4.3 2.2-.3l.8-.6 1 .3c1 .3 1.5.8 2 1 .4.4.6.6.8 1.2.3.6.3.2.2-.3zm-14.5-3.5c0 .6.5-.3.8-.7l1-1c.7-.4 1-.3.3-1-.6-.5-1-.2-.4 0 .5.5.2.8-.3 1.2-.5.4-.6.7-1.3.3-.8-.4-1-.6-1.3-2.3-.3-1.7-.7-1.3-1-1.5-.3-.2-1.2 0-1.7 0-1.6 0-1.2.7-1.6 1.3-.3.6-.8 0-1.4-.4-.7-.4-.7 0 0 .5 1 .3 1 .8 1.7 0 .8-.8.6-1 1.2-1s1.2-.3 1.8 0c.5 0 .4 1.2.7 2 .2 1 .4 1.2 1 1.5.7.3.6.5.5 1zm9.2 9.4c-.6-.6-1.4-.7-.8-2 .6-1.2.4-.8-.6-1.7-1-1-.8-.8-.8-1.3s0-1-.3 0c-.2 1-.2 1 .5 1.4.7.3 1.3.5 1 1-.3.8-1.2 2-.2 2.4 1 .4 1.8.6 1.2 0z"/><path d="M140.5 137.5l.4-1.8-79.6-17-.4 1.8 79.5 17z" fill="#f9fdfe"/><path d="M140.6 136.7l.2-.6L61 119v.7l79.6 17z" fill="#f9fdfe" stroke-width=".3" stroke="#d01700" stroke-linecap="square"/><path d="M60.7 117.8c-.3 0-.8-.3-.8-.3h-.2c0-.3-.3-.4-.4-.4l-.7-.2v-.2l-.6-.3-.7-.4h.2c.2-.2 0-.5 0-.5H57c-.2 0-.3-.2-.3-.2l-.3-.3-.3-.3-1-1c-.3-.7 0-.8 0-.8l1-.6.4.3-.5.6.2.3.7.6c.6.5.2-.3.2-.3l2.2 2.2c1 1 1 .6 1.2.5l.4-.5s.3 0 .3.4l-.2 1c0 .3-.3.3-.6.2z" fill="#020202"/><path d="M57.6 115s.4-.4 0-.5c-.4 0-.8.4-1 .7 0 .3-.3.6-.5.5.2.2.5.3.8 0l.5-.5h.3z" fill="#020202"/><path d="M158.2 135.8l-1.5-.4-.6.5-.6.4.6 1.2-.7.3v1l-1-.5-1 .6-.5.6v1.6l2 1.4 1 3.6 1.5.3 1.7-2.2-.4-2h1.3l.6-1.3 1.6-1-.6-1-.5-1.7h-1l-1-.3z" fill="#6c6c6c" stroke-width=".3" stroke="#000" stroke-linecap="square"/><path d="M137 147h1l.7 3-.5 1-.5 1h-1v1.7l-2-.3-1.7-1.4-1 1.5h-1.4l-1.4-1.7 1-2 1.2-2.6h2l1.6-1.3 1 .2.8-.2z" fill="#6c6c6c" stroke-width=".5" stroke="#000" stroke-linecap="square"/><path d="M166.5 150.4l8.2-8 2.8 11.2z" fill="#b90012"/><path d="M161 158l-1.5-1.4 13-14.3 1.5 1.3-13 14.3z" fill="#de6b00"/><path d="M172 143.2l2-.6 5.7 18.4-1.8.6-6-18.4z" fill="#de6b00"/><path d="M175 152.6l2-.6 2.7 9-1.8.6-3-9z" fill="#4d4d4d"/><path d="M166 151l.3-2 9.8 2.2-.3 2-9.8-2.2z" fill="#de6b00"/><path d="M168 150.3l-1.6-1.3-7 7.6 1.5 1.3 7-7.7z" fill="#4d4d4d"/><path d="M174 144l.2-2c-4-.4-7.8 4-8.3 9.7l1.3.2c.5-4.7 3.5-8.2 6.7-8z" fill="#4d4d4d"/><path d="M173.2 144l1-2c3.6 1.8 4.4 7.5 1.8 12.7l-1.3-.7c2-4 1.4-8.7-1.5-10z" fill="#4d4d4d"/><path d="M166.8 151.2l.2-1 9.4 2-.2 1-9.4-2z" fill="#4d4d4d"/><path d="M168.2 152.3l-1 .8-4.4-5.3 1-1 4.4 5.6z" fill="#020102"/><path d="M165.4 144.5c-.6-.8-1.2-1.3-1.3-1.2l-4.4 3.5c-.3.3 0 1 .5 1.8.7.7 1.4 1.2 1.7 1l4.5-3.6s-.2-.8-.8-1.5z" fill="#fcbf00" stroke-width=".5" stroke="#000" stroke-linecap="square"/><path d="M168.4 152c-.2 0-.3-.2-.3 0l-1.2 1v.3c.2 0 .3.2.4 0l1.3-1v-.2z" fill="#fcbf00"/><path d="M178.5 155.7l-1 1-5-4.7 1-1 5 4.7z"/><path d="M173 147.6c1 0 2 .5 2 1.5.2 1-.6 2-1.6 2v1.2c2-.2 3.2-1.7 3-3.3-.2-1.7-2-2.8-3.7-2.6-1.8.3-3 1.8-2.8 3.4l1.2-.2c-.2-1 .6-2 1.7-2z"/><path d="M170 149.7l1.5 1.5-.3-1.7z"/><path d="M22.6 242l.5-18.6 4 17.8zM35.8 239.3l-8-16.8 3.7 17.8z" fill="#020201" fill-opacity=".7"/><path d="M26 224l-.5.8 3 1.6.4-.7-3-1.7z"/><path d="M19.5 220l-.4.5.3-.6c.2-.4.6-.5 1-.2.2.2.2.6 0 1l-.4.4-.3-.2.4-.5c.2 0 .2-.4 0-.5 0-.2-.4 0-.5 0z" fill="#020201"/><path d="M16.6 216.6l-.8.7 3.3 4 1-.6-3.4-4z" fill="#5d5f59"/><path d="M19.6 220.4l-.5 1L26 225l.5-.8-6.7-3.8z" fill="#5d5f59"/><path d="M16 215.8l3.5 4.3-4.6-2.4z" fill="#704111"/><path d="M29 226.3c.2-.3.2-.5 0-.6-.2 0-.4 0-.6.2v.5c.3 0 .5 0 .7-.2z"/><path d="M21 242.8l-2.2-.3 2.4-21.3 2 .2-2.2 21.4z" fill="#020201"/><path d="M25 228h-.7v-.6c.2-.2.4-.2.5 0 .2 0 .2.3 0 .5z" fill="#4b4b4b"/><path d="M25.6 228c-4-1-7.6-1.7-6-9.4" stroke-width="1.3" stroke="#4b4b4b" stroke-linecap="square" fill="none"/><path d="M19.5 214.4c-.4 0-.7.4-.7.7l2 8.8c0 .5.5 1 1 .8.3 0 .6-.6.5-1.2l-1.8-8.6c0-.3-.5-.5-1-.4z" fill="#4a2800"/><path d="M29 223l2-1 7.7 16.5-2 1L29 223z" fill="#020201"/><path d="M29.6 219.8l-8.4 1.7-.2-5 6.7-1.6z" fill="#bfbfbf"/><path d="M20.8 224.4l2.2.7 1-2.6-2.3-.7-1 2.7z" fill="#020201"/><path d="M26.6 223.3l.7.5-2 2.7-.7-.5 2-2.7z"/><path d="M31 217l.4.3.2-.2-.6-.2c-.3 0-.7 0-1 .3 0 .4 0 .8.4 1l.6.3v-.3l-.5-.3c-.2 0-.3-.3-.2-.5 0-.2.4-.3.6-.2z" fill="#020201"/><path d="M32 212.8l1 .2-1.3 5-1-.2 1.4-5z" fill="#5d5f59"/><path d="M31 217.5l.7.6-4.6 6.2-.7-.6 4.6-6z" fill="#5d5f59"/><path d="M32.4 211.8l-1.5 5.4 3-4.2z" fill="#704111"/><path d="M24.6 226.7c-.2-.2-.3-.5-.2-.6h.7c.3.2.4.5.2.7h-.6z"/><path d="M31.2 222.2l-1.7 1.6-2-2.2 1.7-1.5 2 2.2z" fill="#020201"/><path d="M23.4 226l-.7-3.5 6-1.2.7 3.6-6 1z" fill="#a8895d"/><path d="M28.8 226l-.8 7-3.5-6.2z" fill="#bfbfbf"/><path d="M28.2 218.4c0 .7-.3 1.4-1 1.5-.7 0-1.4-.4-1.5-1 0-.7.3-1.4 1-1.5.6-.2 1.3.3 1.5 1z" fill="#152f34" stroke-width=".4" stroke="#505050" stroke-linecap="square"/><path d="M24.6 219.2c0 .7-.3 1.4-1 1.5-.7 0-1.3-.3-1.5-1 0-.7.4-1.3 1-1.5.8 0 1.4.3 1.6 1z" fill="#eee" stroke-width=".4" stroke="#505050" stroke-linecap="square"/><path d="M23 224.3l6-1.3-6 1.3z"/><path d="M26.2 224.5c-.6 0-1.2.4-1.7.8h2c.6-.2 1.2-.4 1.6-.8-.4 0-1-.2-1.8 0z" fill="#2a2a2a"/><path d="M26.4 225.5l-.2-.8.2.8z"/><path d="M24.4 226l-.4.2-.2-1h.4l.2 1zM29 225l-.4.2-.3-1h.5l.2 1z" fill="#a8895d"/><path d="M24.5 227l2-.6 2.3-.4s-1-3.8.8-6.4l-4.2 1s-2.2.3-4.2.8c2.7 1.8 3.3 5.5 3.3 5.5z" fill="#bfbfbf"/><path d="M28 215.2l-7.2 1.5V213l5.7-1.2z" fill="#020201"/><path d="M30.6 215.5c0-.7-3-.6-6.3 0-3.3.8-5.8 2-5.7 2.5l12-2.5zM20.3 213l6.7-1.3-.3 1.8-5.4 1zM24.5 227c-.3 0-.4.3-.2.5l.6 1.4c0 .2.4.3.6 0 .3 0 .4-.3.3-.5L25 227c0-.2-.4-.3-.7 0zM41 235.5l-9.5-12 6.2 13.5zM17 241.5l3.7-14.8-.2 14.8z" fill="#020201"/><path d="M23.4 220.4h.2-.2zm0 0h.2-.2zm0 0l.2-.2h-.2zm.4-.2v.2-.2zm0 0v.2-.2zm-.2 0v.2-.2zm.3 0v.2zm0 0zm0 0zm.3 0zm0 0zm-.2 0h.2zm-1.6.5h.2-.2zm0 0l.2-.2h-.2zm0-.2h.2-.2zm.4 0zm0 0zm-.2 0v.2-.3zm.3 0zm0 0zm0 0v-.2zm.3-.2v.2-.2zm0 0v.2-.2zm-.2 0h.2v.2-.2zm1-.3h.3-.2zm0 0h.3-.2zm0 0l.3-.2H24zm-.2 0zm0 0h.2zm.2 0zm-.4 0h.2l-.2.2zm0 0h.2-.2zm0 0h.2-.2zm-.3 0v.2-.2zm0 0h.2v.2-.2zm.2 0v.2-.2zm-.4.2h.3-.2zm0 0h.3-.2zm0 0l.3-.2H23zm-.2 0zm0 0h.2zm.2 0zm-.4 0h.2v.2h-.2zm0 0h.2-.2zm0 0h.2-.2zm-.3 0v.2-.2zm0 0l.2.2v-.2zm.2 0v.2-.2zm.8-.3h.2-.2zm0-.2h.2-.2zm0 0h.2-.2zm.4 0zm0 0zm-.2 0zm.3 0h.2-.2zm0 0h.2-.2zm0 0l.2-.2h-.2zm.4-.2v.2-.2zm0 0v.2-.2zm-.2 0v.2-.2zm-1.7.5h.2v.2h-.2zm0 0h.2-.2zm0 0h.2-.2zm.4 0zm0 0zm-.2 0zm.3 0h.2-.2zm0 0h.2-.2zm0 0l.2-.2h-.2zm.4-.2v.2-.2zm0 0v.2-.2zm-.2 0v.2-.2zm1-.3h.2-.2zm0 0h.2-.2zm0-.2h.2-.2zm-.3 0v.3-.2zm0 0h.2v.3h-.2v-.2zm.2 0v.3-.2zm-.5.3h.2-.2zm0 0h.2-.2zm0 0l.2-.2h-.2zm-.3 0zm0 0h.2zm.2 0zm-.4 0h.2l-.2.2zm0 0h.2-.2zm0 0h.2-.2zm-.3 0v.2-.2zm0 0l.2.2h-.2v-.2zm.2 0v.2-.2zm-.5.2h.2-.2zm0 0h.2-.2zm0 0l.2-.2h-.2zm-.3 0zm0 0h.2zm.2 0zm.8-.4h.2-.2zm0 0h.2-.2zm0 0l.2-.2h-.2zm.4-.2v.2-.2zm0 0v.2-.2zm-.2 0v.2-.2zm.3 0h.2l-.3.2zm0 0h.2-.3zm0 0h.2-.3zm.4 0v-.2l.2.3v-.2zm0 0zm0 0zm-1.8.4h.2-.2zm0 0h.2-.2zm0 0l.2-.2h-.2zm.4-.2v.2-.2zm0 0v.2-.2zm-.2 0v.2-.2zm.3 0h.2l-.3.2zm0 0h.2-.3zm0 0h.2-.3zm.4 0h.2zm0 0zm0 0zm1-.4zm0 0zm0-.2zm-.4 0v.3zm0 0l.2.3zm.2 0v.3zm-.4.3h.2l-.2.2zm0 0h.2-.2zm0 0h.2-.2zm-.3 0h.2v.2-.2zm.2 0v.2-.2zm0 0l.2.2v-.2zm-.3.2zm0 0zm-.2 0l.3-.2h-.2zm-.2 0zm0 0h.2zm.2 0zm-.4 0h.2l-.2.2zm0 0h.2-.2zm0 0h.2-.2zm-.3 0l.2.2v-.2zm.2 0v.2-.2zm0 0l.2.2v-.2zm1-.3zm0-.2zm-.2 0h.3-.2zm.5 0v-.2.3-.3zm0 0zm-.2 0zm.3 0h.2-.2zm0 0h.2-.2zm0-.2h.2-.2zm.4 0v.2-.2zm0 0v.2-.2zm-.2 0v.2-.2zm-1.7.5h.3l-.2.2zm0 0h.3-.2zm0 0h.3-.3zm.5 0zm0 0zm-.2 0zm.3 0h.2-.2zm0 0h.2-.2zm0 0l.2-.2h-.2zm.4-.2v.2-.2zm0 0v.2-.2zm-.2 0v.2-.2zm1-.3h.2-.2zm0 0h.2-.2zm0-.2h.2-.2zm-.3 0v.3-.2zm0 0l.2.3v-.2zm.2 0v.3-.2zm-.4.3h.2-.2zm0 0h.2-.2zm0-.2h.2-.2zm-.3 0v.3-.2zm0 0l.2.3v-.2zm.2 0v.3-.2zm-.4.3h.2-.2zm0 0h.2-.2zm0-.2h.2-.2zm-.3 0v.3-.2zm0 0l.2.3v-.2zm.2 0v.3-.2zm-.4.3h.2-.2zm0 0h.2-.2zm0 0l.2-.2h-.3zm-.3 0zm0 0h.2zm.2 0z" fill="none"/><path d="M29 217l-2.6.5c-.3 0-.6.3-.7.7-.2-.3-.6-.4-1-.3-.2 0-.4.2-.6.5 0-.3-.4-.4-.7-.3l-2.6.5s-.2.2 0 .3v.2h.7v.6c.3 1 1 1.5 2 1.3.8 0 1.3-1 1-2 0-.3.2-.6.5-.7.2 0 .6.2.6.6.2.8 1 1.4 2 1.3.7-.2 1.2-1 1-2l-.2-.7h.6l.2-.4s0-.2-.2-.2zm-5.7 3.7c-.6 0-1.2-.3-1.4-1l-.2-.7 1.6-.3c.3 0 .6 0 .7.5.2.7 0 1.4-.7 1.5zm5-2.4c0 .7-.3 1.4-1 1.5-.5 0-1-.3-1.2-1 0-.4.2-.7.5-.8l1.6-.3.2.6z" fill="#020201"/><path d="M46 204c5-1.2 9.8 1.5 11.7 6 0-.5 0-1-.3-1.6-1.2-5.5-6.7-9-12.2-7.7-5.5 1.2-9 6.6-7.7 12l.5 1.7c-.2-5 3-9.4 8-10.5z" fill="#fcbf00"/><path d="M32.4 232.6l-1.7-.8 4-8.8 1.8.8-4 8.8z" fill="#020201"/><path d="M36.5 224l-2-.5 3.5-16.8 2 .4-3.5 17z" fill="#020201"/><path d="M204.4 119l6.3-3.7c.6-.3 1-.8.7-1l-1.7-3c0-.2-.7-.2-1.2 0l-6.3 3.8c-.6.4-1 1-.7 1l1.7 3c0 .3.7.2 1.2 0zM217.8 137l-2-8.4c0-.7 0-1.4.5-1.5l4.7-1c.4 0 1 .5 1 1.2l2 8.5c.2.7 0 1.4-.5 1.5l-4.7 1c-.4 0-.8-.4-1-1z" fill="#fefeff" stroke-width=".3" stroke="#000" stroke-linecap="square"/><path d="M218 140v-2.8c0-.2.2-.4.6-.4h5c.3 0 .6.2.6.4v3s-.3.3-.7.3h-5c-.3 0-.6-.2-.6-.4zM213.3 137l2-8.4c0-.7 0-1.4-.5-1.5l-4.7-1c-.3 0-.8.5-1 1.2l-2 8.5c0 .7 0 1.4.5 1.5l4.7 1c.4 0 1-.4 1-1z" fill="#fefeff" stroke-width=".3" stroke="#000" stroke-linecap="square"/><path d="M213.2 140v-2.8c0-.2-.4-.4-.8-.4h-4.8c-.4 0-.8.2-.8.4v3s.4.3.8.3h4.8c.4 0 .8-.2.8-.4zM226.4 119l-6.3-3.7c-.4-.3-.7-.8-.6-1l1.7-3c.2-.2.8-.2 1.4 0l6.2 3.8c.6.4 1 1 .8 1l-1.7 3c-.2.3-.7.2-1.3 0z" fill="#fefeff" stroke-width=".3" stroke="#000" stroke-linecap="square"/><path d="M218.2 129.7h-5.5c-2.4 0-4.4-3.2-4.4-7.2v-9c0-4 2-7.2 4.4-7.2h5.5c2.3 0 4.3 3.2 4.3 7v9.2c0 4-2 7.2-4.3 7.2z" fill="#fefeff" stroke-width=".3" stroke="#000" stroke-linecap="square"/><path d="M217 112h-3c-1.5 0-2.5-.3-2.5-.8V110c0-.4 1-.8 2.4-.8h3c1.3 0 2.3.4 2.3.8v1.2c0 .5-1 1-2.4 1zM211.6 126l3-11c.3-1.7 1.3-1.7 1.8 0l2.8 11c.4 1.6 0 3.6-1 3.6h-5.6c-1 0-1.4-2-1-3.7z" fill="#1df1fe" stroke-width=".3" stroke="#000" stroke-linecap="square"/><path d="M202.5 125.4l2-8.5c0-.8 0-1.5-.3-1.5l-3.3-.8c-.4 0-.7.5-1 1.2l-2 8.4c0 .7 0 1.4.3 1.5l3.3.6c.3 0 .7-.5 1-1.2z" fill="#fefeff" stroke-width=".3" stroke="#000" stroke-linecap="square"/><path d="M200 117l-.2-6.7 2.3 6z" fill="#fefeff" stroke-width=".4" stroke="#000" stroke-linecap="square"/><path d="M199 120.3v-6.6l2.2 5.8z" fill="#fefeff" stroke-width=".4" stroke="#000" stroke-linecap="square"/><path d="M198.4 123.5l-.2-6.6 2.3 5.7z" fill="#fefeff" stroke-width=".4" stroke="#000" stroke-linecap="square"/><path d="M228.2 125.4l-2-8.5c0-.8 0-1.5.3-1.5l3.3-.8c.3 0 .6.5.8 1.2l2 8.4c0 .7 0 1.4-.3 1.5l-3.3.6c-.2 0-.6-.5-.8-1.2z" fill="#fefeff" stroke-width=".3" stroke="#000" stroke-linecap="square"/><path d="M228 135.2l1.2-.4-1-.2z" fill="#f55700"/><path d="M228 134.8l1.3-.5-1-.2z" fill="#f55700"/><path d="M228 134.4l1.4-.5-1.2-.3z" fill="#f55700"/><path d="M228.2 134l1.2-.5-1-.2z" fill="#f55700"/><path d="M228.3 133.5l1.2-.4h-1zM228.3 133l1.3-.3-1-.2z" fill="#f55700"/><path d="M228.4 132.7l1.3-.4-1.2-.3z" fill="#f55700"/><path d="M228.5 132.3l1.2-.5-1-.2z" fill="#f55700"/><path d="M228.6 132l1.2-.6-1-.2z" fill="#f55700"/><path d="M228.6 131.4l1.3-.4-1.2-.2z" fill="#f55700"/><path d="M228.7 131l1.3-.4-1.2-.2z" fill="#f55700"/><path d="M228.8 130.6l1.2-.4-1-.2z" fill="#f55700"/><path d="M229.7 125.8l-1.7 9.4c-.6 0-.4-4.4.6-9.6l1 .2z" fill="#fefeff" stroke-width=".2" stroke="#000" stroke-linecap="square"/><path d="M229 130.2l1-.5-1-.2z" fill="#f55700"/><path d="M229 129.8l1.2-.5-1-.2z" fill="#f55700"/><path d="M229 129.3l1.3-.4-1.2-.3z" fill="#f55700"/><path d="M229 129l1.3-.5-1-.2z" fill="#f55700"/><path d="M229.2 128.5l1.2-.4h-1zM229.2 128l1.3-.4-1-.2z" fill="#f55700"/><path d="M229.3 127.7l1.3-.5-1.2-.2z" fill="#f55700"/><path d="M229.4 127.3l1.2-.5-1-.2z" fill="#f55700"/><path d="M229.5 127l1.2-.6-1-.2z" fill="#f55700"/><path d="M229.5 126.4l1.3-.4-1-.2zM237.5 132.7l-1.4.2 1-.8z" fill="#f55700"/><path d="M237.2 132.4l-1.3.2.8-.7z" fill="#f55700"/><path d="M237 132l-1.4.3 1-.8z" fill="#f55700"/><path d="M236.6 131.7l-1.3.2 1-.8z" fill="#f55700"/><path d="M236.4 131.4l-1.3.2 1-.7z" fill="#f55700"/><path d="M236 131l-1.2.3 1-.7z" fill="#f55700"/><path d="M235.8 130.7l-1.3.3 1-.8z" fill="#f55700"/><path d="M235.5 130.4l-1.3.2 1-.7z" fill="#f55700"/><path d="M235.3 130l-1.3.3.8-.7z" fill="#f55700"/><path d="M235 129.8l-1.3.2 1-.7z" fill="#f55700"/><path d="M234.7 129.4l-1.3.3 1-.8z" fill="#f55700"/><path d="M234.4 129l-1.3.3 1-.7z" fill="#f55700"/><path d="M231.3 125.4l6 7.3c.6-.4-1.8-4-5.2-8l-.7.7z" fill="#fefeff" stroke-width=".2" stroke="#000" stroke-linecap="square"/><path d="M234.2 128.8l-1.3.2.7-.7z" fill="#f55700"/><path d="M234 128.5l-1.4.2 1-.7z" fill="#f55700"/><path d="M233.6 128l-1.3.4 1-.8z" fill="#f55700"/><path d="M233.3 127.8l-1.3.2 1-.7z" fill="#f55700"/><path d="M233 127.5l-1.2.2.8-.7z" fill="#f55700"/><path d="M232.8 127.2l-1.3.2 1-.7z" fill="#f55700"/><path d="M232.5 126.8l-1.3.3 1-.7z" fill="#f55700"/><path d="M232.3 126.5l-1.3.2.8-.7z" fill="#f55700"/><path d="M232 126.2l-1.3.2 1-.7z" fill="#f55700"/><path d="M231.7 126h-1.3l1-.6zM205 119l.3 1.3-.8-.8z" fill="#f55700"/><path d="M204.7 119.3l.3 1.3-.8-.8z" fill="#f55700"/><path d="M204.4 119.6l.3 1.3-.8-1z" fill="#f55700"/><path d="M204 120l.4 1.2-.8-.8z" fill="#f55700"/><path d="M203.8 120.2l.3 1.3-.7-.8z" fill="#f55700"/><path d="M203.5 120.5l.3 1.3-.8-.8z" fill="#f55700"/><path d="M203.2 120.8l.3 1.3-.8-.7z" fill="#f55700"/><path d="M203 121l.2 1.4-.8-.8z" fill="#f55700"/><path d="M202.6 121.4l.3 1.3-1-.8z" fill="#f55700"/><path d="M202.3 121.7l.3 1.3-.8-.8z" fill="#f55700"/><path d="M202 122l.3 1.3-.8-.8z" fill="#f55700"/><path d="M201.7 122.3l.3 1.3-.8-.8z" fill="#f55700"/><path d="M198.3 125.8l6.7-6.7c-.4-.4-3.8 2.3-7.6 6l1 .8z" fill="#fefeff" stroke-width=".2" stroke="#000" stroke-linecap="square"/><path d="M201.4 122.6l.3 1.3-.8-1z" fill="#f55700"/><path d="M201 123l.4 1.2-.8-.8z" fill="#f55700"/><path d="M200.8 123.2l.3 1.3-.7-.8z" fill="#f55700"/><path d="M200.5 123.5l.3 1.3-.8-.8z" fill="#f55700"/><path d="M200.2 123.8l.3 1.3-.8-.7z" fill="#f55700"/><path d="M200 124.2l.2 1.2-.8-.8z" fill="#f55700"/><path d="M199.6 124.4l.3 1.3-1-.8z" fill="#f55700"/><path d="M199.3 124.7l.3 1.3-.8-.8z" fill="#f55700"/><path d="M199 125l.3 1.3-.8-.8z" fill="#f55700"/><path d="M198.7 125.3l.3 1.3-.8-.8zM207.2 128.8l-.2-1.3-.4 1z" fill="#f55700"/><path d="M206.8 128.7l-.2-1.4-.4 1z" fill="#f55700"/><path d="M206.4 128.5l-.2-1.3-.4 1z" fill="#f55700"/><path d="M206 128.3V127l-.6 1z" fill="#f55700"/><path d="M205.6 128.2V127l-.6 1z" fill="#f55700"/><path d="M205.3 128l-.2-1.3-.4 1z" fill="#f55700"/><path d="M205 128l-.3-1.5-.5 1z" fill="#f55700"/><path d="M204.5 127.7l-.2-1.3-.5 1z" fill="#f55700"/><path d="M204 127.5v-1.3l-.5 1z" fill="#f55700"/><path d="M203.7 127.4l-.2-1.3-.4 1z" fill="#f55700"/><path d="M203.3 127.2l-.2-1.3-.3 1z" fill="#f55700"/><path d="M203 127l-.3-1.3-.4 1z" fill="#f55700"/><path d="M198.4 125.2l8.8 3.6c-.2.6-4.4-.6-9.3-2.5l.4-1z" fill="#fefeff" stroke-width=".2" stroke="#000" stroke-linecap="square"/><path d="M202.5 127l-.2-1.4-.4 1z" fill="#f55700"/><path d="M202 126.7v-1.3l-.5 1z" fill="#f55700"/><path d="M201.7 126.6l-.2-1.3-.4 1z" fill="#f55700"/><path d="M201.3 126.4l-.2-1.3-.3 1.2z" fill="#f55700"/><path d="M201 126.3l-.3-1.3-.4 1z" fill="#f55700"/><path d="M200.5 126l-.2-1.2-.4 1z" fill="#f55700"/><path d="M200 126v-1.4l-.5 1z" fill="#f55700"/><path d="M199.7 125.8v-1.3l-.6 1z" fill="#f55700"/><path d="M199.3 125.6v-1.3l-.6 1z" fill="#f55700"/><path d="M199 125.5l-.2-1.3-.5 1z" fill="#f55700"/><path d="M231 117.8v-6.6l-2.2 5.8zM225.5 113l-2.3-6v6zM228 114.5l-2.3-6.2v6.2zM205.6 113l-.4-6.7 2.5 5.7zM203.8 114.7l-.5-6.6 2.5 5.8z" fill="#fefeff" stroke-width=".4" stroke="#000" stroke-linecap="square"/><path d="M231.8 121v-6.5l-2 5.8z" fill="#fefeff" stroke-width=".4" stroke="#000" stroke-linecap="square"/><path d="M232.5 124.3v-6.6l-2 5.8z" fill="#fefeff" stroke-width=".4" stroke="#000" stroke-linecap="square"/><path d="M119.7 114.7c0-.7-.2-1.3-.6-1.7.5-.5.7-1 .7-1.8 0-1.4-1-2.6-2.6-2.6h-6v1.8h6c.6 0 1 .4 1 .8 0 .5-.4 1-1 1h-6v1.6h6c.6 0 1 .4 1 1 0 .4-.4.8-1 .8h-6v1.7h6c1.6 0 2.7-1 2.7-2.6z" fill="#e7c18b"/><path d="M112.5 116.7H111v-7.5h1.5v7.5z" fill="#e7c18b"/><path d="M109.5 112.3h2.2c0-2 1.5-3.4 3.4-3.4 2 0 3.5 1.4 3.5 3.3h2.2c0-3-2.5-5.6-5.6-5.6-3 0-5.5 2.5-5.5 5.6z" fill="#604627"/><path d="M110 112c0 1 2.4 1.7 5.4 1.7 3 0 5.3-.7 5.3-1.6H110z" fill="#604627"/><path d="M119.2 112c0 .2 0 .5-.2.5s-.5 0-.5-.4c0-.2 0-.4.2-.5.2 0 .4 0 .5.4z" fill="#fefefe"/><path d="M119.2 111.3c0 .2 0 .5-.2.6-.2 0-.5-.2-.5-.5s0-.6.2-.6c.2-.2.4 0 .5.3z" fill="#fefefe"/><path d="M118.8 110.5c0 .3 0 .6-.3.6-.2.2-.4 0-.5-.3 0-.2 0-.5.2-.6.3 0 .5.2.6.5z" fill="#fefefe"/><path d="M118.4 109.8c0 .3 0 .6-.2.6-.3 0-.5 0-.6-.4 0-.2 0-.5.3-.6 0 0 .3 0 .4.4z" fill="#fefefe"/><path d="M117.8 109.5c0 .2 0 .5-.3.6-.2 0-.4 0-.5-.3 0-.3 0-.6.2-.6.3 0 .5.2.6.5z" fill="#fefefe"/><path d="M117.3 109c0 .3 0 .6-.3.7-.2 0-.4 0-.5-.4 0-.3 0-.6.2-.6s.5 0 .6.4z" fill="#fefefe"/><path d="M116.7 108.8c0 .2 0 .5-.3.6-.2 0-.4 0-.5-.4-.2-.3 0-.6 0-.6.4 0 .6 0 .7.4z" fill="#fefefe"/><path d="M115.3 108.6c0 .3 0 .5.2.6.3 0 .5 0 .6-.4.2-.3 0-.6-.2-.6s-.4 0-.5.4z" fill="#fefefe"/><path d="M114.7 108.8c0 .3 0 .5.2.6.2 0 .4 0 .5-.4 0-.3 0-.5-.3-.6-.2 0-.4 0-.5.4z" fill="#fefefe"/><path d="M114 108.8c0 .3 0 .6.3.6.2 0 .4 0 .5-.4 0-.3 0-.5-.2-.6-.2 0-.5 0-.5.4z" fill="#fefefe"/><path d="M113.4 109c0 .3 0 .6.2.7.3 0 .5-.2.6-.4 0-.3 0-.6-.3-.6s-.5 0-.6.3z" fill="#fefefe"/><path d="M112.8 109.4c0 .3 0 .6.3.7.3 0 .5 0 .6-.3 0-.3 0-.6-.2-.7-.3 0-.5.2-.6.4z" fill="#fefefe"/><path d="M112.4 110c0 .4 0 .6.2.7.2 0 .5 0 .5-.4.2-.3 0-.6 0-.6-.3 0-.5 0-.6.4z" fill="#fefefe"/><path d="M112 111c0 .2.2.5.4.5s.4-.3.4-.5c0-.3-.2-.6-.4-.6s-.4.3-.4.6z" fill="#fefefe"/><path d="M111.5 111.6c0 .3.2.5.4.5 0 0 .3 0 .3-.4 0-.3-.2-.5-.4-.5-.3 0-.5.3-.5.6z" fill="#fefefe"/><path d="M111 117.7V112h6.5c1.4 0 2.5 1.4 2.5 3 0 1.5-1 2.7-2.5 2.7H111z" fill="#604627"/><path d="M117.7 112.2c-1 0-2 .2-2 .3l.6 6.4h2c1 0 2-.3 2-.4l-.6-6.4h-2zM112.5 112l2 .5-1 6.3h-2l-1.8-.5 1-6.3h1.8z" fill="#4a2e0c"/><path d="M119.8 112.8l-2.3.6.2 2 2 1 1.2-2.2c2.7-2.6 5-5.2 5.8-6.8l-7 5.4z" fill="#6be1e6" stroke-width=".2" stroke="#000" stroke-linecap="square"/><path d="M182.7 53.7L177 75c-1 3-3 3-4 0l-5.7-21.3c-.8-3.2.3-7.2 2-7.2h11.5c1.7 0 2.8 4 2 7.2z" fill="#fea500"/><path d="M184 53.2l-6.8 21c-1 3-3.2 3-4-.2l-4.6-21.5c-.8-3.2.5-7 2.2-7l11.5.5c1.7 0 2.6 4 1.6 7.2z" fill="#fea500"/><path d="M176.3 51.8c-3.5-.4-.5-6.2-.5-6.2-8.6 6.7-2.6 15.7-.8 19.3 2.2 4.3-.4 9-.4 9s2.7-2 3.2-6c0 0 .4-2.7-1.5-6.7-2-4 1.6-5.7 2.7-4.2 1.2 1.7 1 5 1 6 0 0 3-3.4 1.7-10.2 0 0 1.5 1 1.8 4.6l.5-2.3c1-7.4-5-10.4-5-10.4 1.6 3.6 0 7.6-2.7 7.2z" fill="#aafeba" stroke-width="1.2" stroke="#41c75b" stroke-linecap="square"/><path d="M193 48.8l-2 9.4c0 1.4-.8 1.4-1 0l-2-9.4c0-1.4.2-3.2.7-3.2h3.6c.5 0 1 1.8.6 3.2z" fill="#fea500"/><path d="M192.8 51.6l-1.3 6.7c-.2 1-.8 1-1.2 0L188 52c-.3-1 0-2.3.5-2.3l3.5-.3c.6 0 1 1.2.8 2.2z" fill="#fea500"/><path d="M190.4 48.6c-1 0-.4-2.6-.4-2.6-2.3 3.3-.2 6.8.5 8.2.8 1.7.2 3.8.2 3.8s.8-1 .8-2.6c0 0 0-1.2-.7-2.8-.8-1.6.3-2.5.7-2 .4.7.5 2 .5 2.6 0 0 .8-1.6 0-4.4 0 0 .6.2 1 1.8v-1c0-3.2-2-4.2-2-4.2.6 1.5.2 3.3-.6 3.2z" fill="#aafeba" stroke-width=".4" stroke="#41c75b" stroke-linecap="square"/><path d="M161.2 48.8l1.8 9.4c.3 1.4 1 1.4 1.2 0l1.8-9.4c.3-1.4 0-3.2-.6-3.2h-3.6c-.5 0-.8 1.8-.6 3.2z" fill="#fea500"/><path d="M161.3 51.6l1.3 6.7c.2 1 1 1 1.2 0L166 52c.4-1 .2-2.3-.3-2.3l-3.6-.3c-.4 0-1 1.2-.7 2.2z" fill="#fea500"/><path d="M163.7 48.6c1 0 .4-2.6.4-2.6 2.5 3.3.3 6.8-.4 8.2-.8 1.7-.2 3.8-.2 3.8s-.7-1-.7-2.6c0 0 0-1.2.7-2.8.7-1.6-.3-2.5-.7-2-.4.7-.5 2-.5 2.6 0 0-.8-1.6-.2-4.4 0 0-.5.2-.7 1.8v-1c0-3.2 1.8-4.2 1.8-4.2-.5 1.5 0 3.3.7 3.2z" fill="#aafeba" stroke-width=".4" stroke="#41c75b" stroke-linecap="square"/><path d="M168.5 35.7h3.5c0-3 2.4-5.3 5.3-5.3 3 0 5.3 2.4 5.3 5.3h3.6c0-5-4-8.8-9-8.8-4.8 0-8.7 3.8-8.7 8.7z" fill="#fe5c01" stroke-width=".8" stroke="#000" stroke-linecap="square"/><path d="M172.5 33v2H169c-.4 0-.7.3-.7.7v1H166v-1.2c0-.6-.3-1-.8-1h-.4c-.8 0-1.5.4-1.8 1l-.5 1.3c-.6 1.4-1 3-1 4.4v5c-.3 0-.5 0-.5.4 0 .3.2.6.6.6h4.6c.3 0 .5-.3.5-.6s-.2-.5-.5-.5v-2h2v.3c0 .4.4.8.8.8h1v3.2c-.3 0-.6.3-.6.7v1.3c0 .4.3.8.7.8h7.4v-2.8h-6V45h1v1.4c0 .6.5 1 1 1h4V32.2h-4c-.5 0-1 .5-1 1zm-1 10.4h-2.2c-.3 0-.5-.2-.5-.5s.2-.6.5-.6h2c.4 0 .6.3.6.5s-.3.4-.6.4zm0-3h-2.2c-.3 0-.5-.2-.5-.4 0-.3.2-.5.5-.5h2c.4 0 .6.2.6.5 0 .2-.3.5-.6.5zm-2.2-4h2c.4 0 .6.4.6.6 0 .3-.3.5-.6.5h-2c-.4 0-.6-.2-.6-.5 0-.2.2-.5.5-.5zM176 33V46.7c-.3 0-.4 0-.4-.2V33c0-.3 0-.4.3-.4v.3z" fill="#9000c3"/><path d="M182.3 33v2h3.4c.4 0 .8.3.8.7v1h2v-1.2c0-.6.6-1 1-1h.4c.7 0 1.4.4 1.7 1l.5 1.3c.7 1.4 1 3 1 4.4v5c.3 0 .5 0 .5.4 0 .3-.2.6-.5.6h-4.6c-.3 0-.6-.3-.6-.6s.3-.5.6-.5v-2h-2v.3c0 .4-.4.8-.8.8h-1.2v3.2c.5 0 .8.3.8.7v1.3c0 .4-.3.8-.8.8h-7.2v-2.8h5.8V45h-1v1.4c0 .6-.4 1-1 1h-3.8V32.2h3.8c.6 0 1 .5 1 1zm1 10.4h2c.4 0 .6-.2.6-.5s-.3-.6-.6-.6h-2c-.3 0-.6.3-.6.5s.3.4.5.4zm0-3h2c.4 0 .6-.2.6-.4 0-.3-.3-.5-.6-.5h-2c-.3 0-.6.2-.6.5 0 .2.3.5.5.5zm2-4h-2c-.2 0-.5.4-.5.6 0 .3.3.5.5.5h2c.4 0 .6-.2.6-.5 0-.2-.3-.5-.6-.5zm-6.7-3.5v13.6l.3.2V33v-.4c-.2 0-.4.2-.4.3z" fill="#0001c3"/><path d="M186.3 45h-18.8l2-5.3h15z"/><path d="M165 52.3l-2.4-1.3 13.2-22.8 2.3 1.3-13 22.8z"/><path d="M175.4 29.5l2.3-1.3 13 23-2.2 1.2-13-23z"/><path d="M169.5 41.6V39H183v2.6h-13.5z"/><path d="M169.8 41.6V39h13.6v2.6h-13.6z" fill="#fdfdfd"/><path d="M188 44.3l-4.3 1.6-2.6-7.2 4.3-1.6 2.6 7zM166.2 44.6l4.3 1.2 2-7.2-4.3-1.3-2 7.3zM177.3 40c-.2.3-.6.3-.8 0-.2 0-.2-.4 0-.6.2-.3.6-.3.8 0 .2.2.2.5 0 .7zM177 40.7h-.2v-.2h.2v.2zM177 41.2h-.2V41h.2v.2zM177 41.6h-.2v-.2h.2v.2z"/><path d="M178 40.5l-1-.7 1-.6zM175.7 40.5l1-.7-1-.6zM172 53.7c-1.3 2-5 4-5 4s4-.2 6.6-3.8c2.7-3.7 2.8-10 2.8-10l-1.8.2c.3 2-1.4 7.4-2.6 9.5zM181.4 53.8c1.2 2 5 4 5 4s-4-.3-6.7-4c-2.7-3.5-2.7-10-2.7-10l1.8.4c-.3 2 1.3 7.4 2.6 9.6z"/><path d="M187 34.7h.7s.2 0 .2-.2V31l.2-.3v-.3l-.5-.5h-.3l-.4.4v4.3zM188.2 35h-1.6c-.2 0-.3 0-.3.3v8c0 .2 0 .4.3.4h1.6c.2 0 .4-.2.4-.3v-8c0-.3-.2-.4-.4-.4zm0 8h-.2v-7.3-.2c.2 0 .2 0 .2.2V43zM167.4 35h-.6-.2v-3.7l-.3-.3v-.2l.5-.5h.2l.5.4V35zM166.3 35.3h1.6s.2 0 .2.3v8c0 .3 0 .4-.3.4h-1.7c-.2 0-.4 0-.4-.3v-8c0-.3 0-.4.3-.4zm0 8v.2c.2 0 .3 0 .3-.2V36h-.2v7.3z" fill="#5d5f59"/><path d="M181.8 31.2h-1.3v-3c0-.4-.2-.6-.5-.6h-6.7c-.2 0-.4.2-.4.5v3.2h-1.4-.2v.2H181.8V31z" fill="#d50100" stroke-width=".2" stroke="#000" stroke-linecap="square"/><path d="M175 31.5h-1.2v-4h1v4z" fill="#f27200"/><path d="M176 31.5h-1v-4h1v4z" fill="#fedb00"/><path d="M177 31.5h-1v-4h1v4z" fill="#a8fe00"/><path d="M178 31.5h-1v-4h1v4z" fill="#00fee8"/><path d="M179 31.5h-1v-4h1v4z" fill="#0017fe"/><path d="M180 31.5h-1v-4h1v4z" fill="#b500fe"/><path d="M173 31h7.5-7.6z" fill="#020101"/><path d="M97.7 273.2l-.6 3-.6-3zM110.8 273.4l-.5 3-.6-3z" fill="#34006b"/><path d="M110.4 274l-.6 2-.5-2z" fill="#34006b"/><path d="M108.8 278H98.4l1-7.8h8.3z" fill="#101010"/><path d="M112.7 274.8H94l1.8-7.5h15z" fill="#34006b"/><path d="M97.3 276.8v-7.5h12.4v7.5H97.3z"/><path d="M109 271H97.6c-1 0-1.7-.8-1.7-1.7V258c0-1 .8-1.6 1.7-1.6H109c1 0 1.6.8 1.6 1.7v11.3c0 1-.8 1.7-1.7 1.7z"/><path d="M111.4 270.8l-6-8.2c-1-1.2-3.2-1.2-4 0l-6 8.2c-1 1.3 0 2.8 2 2.8h12c1.8 0 3-1.5 2-2.8z" fill="#020201"/><path d="M103.5 276.8h-.3v-5.3h.3v5.3z" fill="#1a1a1a"/><path d="M97.2 256.7h2.6v13h-2.6z" fill="#1e1f1f"/><path d="M109.6 265.8c0-1-.3-2-1-2.6.7-.6 1-1.6 1-2.6 0-2-1.6-4-3.7-4H97v2.7h8.7c.6 0 1 .6 1 1.3 0 .8-.4 1.3-1 1.3H97v2.5h8.7c.6 0 1 .6 1 1.3 0 .8-.4 1.3-1 1.3H97v2.8h8.7c2 0 3.6-1.8 3.6-4z" fill="#1e1f1f"/><path d="M105.6 265H101l.6-3.4h3.5z" fill="#101010"/><path d="M99.3 262.4V259h8.8v3.4h-8.7z" fill="#1e1f1f"/><path d="M101 264.3l.6-1.2.7 1.3zM104.4 264.3l.7-1.2 1 1.3z" fill="#101010"/><path d="M98.6 261c0 .5.7 1 1.7 1 1 .3 2 0 2-.6l-3.7-.5zM108.5 261c0 .5-.7 1-1.8 1-1 .3-2 0-2-.6l3.8-.5z" fill="#7c000d"/><path d="M102 261.7v-.4h3v.4h-3z" fill="#7c000d"/><path d="M98.4 259h-.8c0 1 1.8 2 4 2v-.5c-1.8 0-3.2-.6-3.2-1.4zM108.3 259h.8c0 1-1.6 2-3.7 2v-.5c1.7 0 3-.6 3-1.4z" fill="#a7a7a7"/><path d="M107.3 258.4h.8c0 1-1.6 2-3.7 2v-.5c1.7 0 3-.7 3-1.6z" fill="#a7a7a7"/><path d="M106.5 258h.7c0 1-1.6 1.7-3.5 1.7v-.3c1.5 0 2.8-.6 2.8-1.4zM100.5 258h-.7c0 1 1.5 1.7 3.4 1.7v-.3c-1.5 0-2.7-.6-2.7-1.4z" fill="#a7a7a7"/><path d="M99.5 258.4h-.8c0 1 1.7 2 3.8 2v-.5c-1.6 0-3-.7-3-1.6z" fill="#a7a7a7"/><path d="M104.4 260v.3h-2v-.4zM104.4 259.3v.4h-2v-.4zM105.4 260.5v.4h-4v-.5zM100.8 263l-.4-.3c-.2.4-.6.5-1 .3-.3-.2-.5-.7-.3-1l-.3-.3c-.3.6 0 1.4.5 1.7.5.4 1.3.2 1.6-.4zM106 263.4l.3-.3c.2.5.6.6 1 .4.3-.2.5-.6.3-1l.4-.2c.3.6 0 1.3-.5 1.6-.6.4-1.3.2-1.6-.4z" fill="#a7a7a7"/><path d="M99.6 262.5l.5.6h.3l-.5-.7c-.3-.3-.8-.3-1 0v.2h.8zM107 263l-.6.6-.2-.2.5-.6c.3-.3.8-.3 1 0v.2h-.8zM98.6 259.7l-.3-.2c-.7 1-.5 2.2.5 3l.2-.5c-.7-.5-1-1.5-.4-2.3zM108.2 260.2l.3-.3c.7.8.5 2-.5 2.8l-.2-.3c.7-.6 1-1.6.4-2.3z" fill="#a7a7a7"/><path d="M97.8 263.8l.3.2c.7-1 .4-2-.6-2.7l-.2.4c.8.4 1 1.4.6 2zM109 264l-.3.3c-.6-1-.3-2 .7-2.6l.2.3c-.8.4-1 1.4-.6 2z" fill="#a7a7a7"/><path d="M97.5 261.7h-.3l.7-2-.5 2zM109.2 262h.2l-.6-2h-.3l.7 2z" fill="#a7a7a7"/><path d="M107 264.4l2 1c.2.2.2.6 0 .7l-2 1.2c-.2.2-.5 0-.5-.4v-2c0-.4.3-.6.6-.4zM99.7 264.4l-2 1v.7l2 1.2c.2.2.6 0 .6-.4v-2c0-.4-.4-.6-.6-.4z" fill="#101010"/><path d="M98 264.4l2.5 1.5c.4.2.4.7 0 1l-2.6 1.5c-.5.2-1 0-1-.5v-3c0-.5.5-.8 1-.6z" fill="#1e1f1f"/><path d="M94.2 271.2l1.8-4.7c.3-.7 1.2-1 1.7-.3l3.2 4c.4.5 0 1.4-.7 1.6l-5 .8c-.8 0-1.4-.6-1-1.4z"/><path d="M94 267l2-3c0-.3.6-.2.7.3l1 3.3c0 .5-.3 1-.7 1l-2.6-.4c-.4 0-.5-.7-.3-1zM112.8 271.2l-1.8-4.7c-.3-.7-1.2-1-1.7-.3l-3.2 4c-.4.5 0 1.4.7 1.6l5 .8c.8 0 1.4-.6 1-1.4z"/><path d="M107.4 270.7l1-.5.3.4-1 .5c-.6.4-1.3 0-1.6-.5l.5-.2c.2.4.6.5 1 .4zM100 264.4l-2 1c-.2.2-.2.6 0 .7l2 1.2c.2.2.6 0 .6-.4v-2c0-.4-.4-.6-.7-.4z" fill="#101010"/><path d="M101.7 265.8l-1.6 3.5-2-3zM104.3 266.3l1.6 3.5 2-3.2zM105 262.8v.4h-3.2v-.4zM99.4 270.7l-1-.5-.2.4 1 .5c.6.4 1.3 0 1.6-.5l-.4-.2c-.2.4-.6.5-1 .4z" fill="#101010"/><path d="M99.6 264.3h7.5l-.7 7.6h-6z" fill="#101010"/><path d="M105 263.2l-1-.4c-.3.6 1.6 2 4.3 3.3-2-1-3.6-2.3-3.3-2.8zM101.7 263.2l1-.4c.2.6-1.7 2-4.4 3.3 2-1 3.6-2.3 3.4-2.8z" fill="#101010"/><path d="M110.4 270.5l-1.5-1 8-14c1.8-3 3.5-5.3 4-5 .4.2-.6 3-2.4 6l-8.2 14z" fill="#757575"/><path d="M104 252.2c-4.5-.2-8.3 3.2-8.6 7.7l-.5 7.5c1 0 1-.7 1-2l.4-5.6c0-1.8 1-2.6 2.7-2.5 1.8 0 2.3 1.7 4.4 1.8 2 .2 2.8-1.3 4.5-1.2 1.6.2 2.3 1 2.2 2.8l-.3 5.7c-.2 1.2-.4 2 .7 2l.5-7.6c.4-4.6-3-8.5-7.3-8.8z"/><path d="M97.6 257c-1 .7-1.8 1.5-2 2.6 1 .2 2 .2 3-.4 1-.5 2-1.4 2.3-2.4-1.2-.3-2.3-.2-3.4.3z"/><path d="M105 262.4l3.7 3.4c.2 0 .2.4 0 .5l-1 1.2h-.4l-2.6-5s.2-.2.3 0z" fill="#101010"/><path d="M110 270v-13.6h-9.7c5 0 9.6 7.2 9.6 13.7z"/><path d="M110.7 265.4L108 267l-7.7-13.4 2.7-1.5 7.7 13.4z"/><path d="M110.3 265.4l-2.7 1.6-7.7-13.4 2.6-1.5 7.7 13.4z"/><path d="M95 274.7l-.6 2-.5-2zM112.7 274.7l-.5 2-.6-2z" fill="#34006b"/><path d="M112.3 274.7l-.7 2.6-.8-2.6z" fill="#34006b"/><path d="M111.6 274.5l-.5 2-.5-2z" fill="#34006b"/><path d="M111.2 274.2l-.5 3-.5-3zM95.6 274.4l-.4 2-.4-2z" fill="#34006b"/><path d="M96 274l-.3 2-.4-2z" fill="#34006b"/><path d="M97 274l-.6 3.2-.7-3z" fill="#34006b"/><path d="M97.5 268c-.7-.7-1.6-1-2.6-1 0 .8.3 1.8 1 2.5.8.7 1.7 1 2.7 1.2 0-1-.4-2-1.2-2.7z"/><path d="M99.8 271l-.2.2c-2.4-1-4-2.4-3.6-3.4l.8.3c-.3 1 1 2 3 3zM107 271l.2.2c2.4-1 4-2.4 3.7-3.4l-1 .3c.3 1-1 2-3 3zM101.7 262.4l-3.8 3.4c-.2 0-.3.4 0 .5l1 1.2h.4l2.5-5s-.2-.2-.3 0z" fill="#101010"/><path d="M106 266.3V265.4h.4v-.2l.2.2.3.2-.3-.2h-.3v.2h-.4v.2z" fill="#9c9c9c"/><path d="M100.6 268.6h.4s.2-.2.3 0c.2 0 0 .2 0 .2h.5s0 .3-.2.3-.3 0-.4-.2c0 0 0-.2-.2-.2h-.4z" fill="#1d1d1d"/><path d="M111 271l.3-.3 1.3.7 1.2.8s-.7 0-1.4-.5l-1.3-.6z" fill="#f3f3f3" stroke-width=".2" stroke="#f90000" stroke-linecap="square"/><path d="M111 270.4l-1-.4 7.3-13.5c1.5-3 3-5 3-5 .3 0-.7 2.5-2.2 5.4l-7 13.4z" fill="#f1f1f1" stroke-width=".2" stroke="#f90006" stroke-linecap="round" stroke-linejoin="round"/><path d="M111 270.3c0-.2.2-.3.2-.3l-.8-.5s-.2 0-.3.3v.3l.8.6s.2 0 .2-.3zM108.5 275l-.8-.4 2-4 1 .4-2.2 4z" fill="#101010"/><path d="M109 274.2l-1-.4 1-2 1 .4-1 2z" fill="#101010"/><path d="M108.6 275l.6-1.5-.8 1.5zM107.5 274.5l1-1.4-.8 1.6z" fill="#1d1d1d"/><path d="M109 273.2v-.4.4zM109.4 273.2v-.3.2zM108.8 273v-.5.4z" fill="#4d4d4d"/><path d="M109.2 271.4v.5l.6.2.4-.2.8-1.6-1-.5-.8 1.4z" fill="#101010"/><path d="M109.4 272c.2 0 .2 0 0-.2v.3zM109.3 272.4v-.3.4zM109 273l.3-.7-.4.8z" fill="#bb0c00"/><path d="M109 273c-.2 0-.3.2-.2.4v-.3zM108.8 273.4V273.4zM108.5 274l.2-.5-.2.6z" fill="#bb0c00"/><path d="M108 274.7l.4-.7-.3.7z" fill="#212121"/><path d="M108.4 274l-.2.2h.2s.2-.2 0-.2z" fill="#bb0c00"/><path d="M108.3 274.3zM108.2 274.4z" fill="#110013"/><path d="M109.7 271l.7.2s.2 0 .2-.2c0 0 0-.2-.2-.2h-.8z" fill="#222"/><path d="M109.8 271h.2-.2zM109.8 271h.2-.2zM110 271v-.2h-.2.2zM110 271v-.2z" fill="#919191"/><path d="M109.7 271l.2-.3-.3.4zM110 271.2v-.5h.2l-.3.5z" fill="#101010"/><path d="M110.3 271.2l.2-.4-.2.4zM110 271l.4-.2-.3.3z" fill="#0001bb"/><path d="M110 271l.2-.2v.3z" fill="#919191"/><path d="M110.5 271zM110.5 271v.2zM110.5 271z" fill="#444"/><path d="M109.6 271.5c-.2 0-.2.2 0 .3v-.3z" fill="#c30000"/><path d="M109.6 271.5l.3-.4-.4.5z" fill="#c30000"/><path d="M110.4 270l.2.3-.2.4-.2-.2" fill="#212121"/><path d="M111.5 271v-.3l-.5-.3-.2.3v.3l.5.3.2-.3z" fill="#101010"/><path d="M111.3 271.2h.2v-.3l-.2.2z" fill="#101010"/><path d="M111.3 270.6c.2.2 0 .5-.2.6.2-.2.4-.4.3-.6zM111 270.5h.2c0 .2 0 .5-.3.5 0 0 .2-.3 0-.5z" fill="#212121"/><path d="M111.2 269v.5l-.3.2z" fill="#f3f3f3"/><path d="M111.7 271h.2z" fill="#f90000"/><path d="M111.6 271h.2v.2z" fill="#f3f3f3"/><path d="M112.3 271.2h.2v.2zM113 271.6h.2v.2z" fill="#f90000"/><path d="M112.2 271.3h.3v.2zM113 271.8h.2zM112.8 271.8h-.2v-.2z" fill="#f3f3f3"/><path d="M112.8 272h-.3v-.2zM112 271.6h-.2v-.2z" fill="#f90000"/><path d="M112 271.4h-.2z" fill="#f3f3f3"/><path d="M109.5 270.2l.2-.4-1.3-.6c-.7-.4-1.3-.6-1.4-.5l1.2.8 1.3.7z" fill="#f3f3f3" stroke-width=".2" stroke="#f90000" stroke-linecap="square"/><path d="M109.3 270c0-.3.2-.4.2-.4l.6.3v.2c0 .2-.2.3-.2.2l-.6-.3z" fill="#101010"/><path d="M110 270v-.2c-.3 0-.5.3-.4.6 0-.2.2-.5.4-.5z" fill="#212121"/><path d="M109.3 270.2l-.2-.2.4-.2v.4z" fill="#101010"/><path d="M109.8 269.8c-.3 0-.4.2-.4.5 0-.2.2-.5.4-.5z" fill="#212121"/><path d="M109.3 269.6v-.2h-.3z" fill="#f90000"/><path d="M109.2 269.8v-.2h-.3z" fill="#f3f3f3"/><path d="M108.7 269.3v-.2h-.3zM108 269v-.3h-.4z" fill="#f90000"/><path d="M108.6 269.4v-.2h-.3zM108 269h-.4zM108 269.2v.2h.3z" fill="#f3f3f3"/><path d="M108 269.3v.2h.2zM108.6 269.7v.2h.3z" fill="#f90000"/><path d="M108.6 269.6v.2h.4zM112.5 266.8v.5l-.4.2zM114.4 263.2v.5l-.4.2zM116 260.2v.4l-.3.2zM117.5 257.2v.5l-.3.2z" fill="#f3f3f3"/><path d="M118.3 256.5v.5l-.4.2zM117.8 257.4v.4l-.3.2zM116.3 260.3v.5l-.4.2zM114.7 261.2l-.4.2v.5zM113 264.4l-.5.2v.5zM111 268l-.3.3v.5zM114.7 263.4v.4l-.4.3zM112.8 267v.4l-.4.2zM111.6 269.2v.5l-.4.2z" fill="#f90000"/><path d="M118 256.3v.5l-.4.2zM119.3 254v.3l-.4.3zM111.4 268.3l-.4.2v.4zM113.3 264.6l-.5.2v.5zM115 261.3l-.4.3v.4zM116.6 258.4l-.5.2.2.4zM118 255.5l-.4.2v.5zM119.5 253l-.4.3v.5z" fill="#f3f3f3"/><path d="M117.2 259v-.3-.2s.2 0 0 0v.4zM115 263v-.4zM113 264.7v-.4l.2-.3v-.2l.2-.2.2-.2v.2h-.2v.2l-.2.2v.2l-.2.2zM115.5 260h-.2c0 .2 0 .2 0 0V260.2h.2zM113 266.2h.2v-.2.3c0-.2 0 0 0 0zM110.8 268.6l.2-.2v-.2.3c-.2 0 0-.2 0-.2h-.2v.2l-.2.3.2-.2zM111.7 267l.2-.2h-.2s-.2 0-.2.2zM117 257c0-.2 0-.2.2-.2h-.2v.2zM119.3 254.5v.4c0-.2-.2-.2-.2 0 0-.2.2-.2.2-.3v-.2zM114.3 262s-.2 0-.2.2c.3 0 .4-.2.4-.3v-.2.2h-.2zM118.8 255.5v-.2.3z" fill="#eee"/><path d="M264.4 166.7l1 1c-2.7 2.5-7 2.5-9.5 0l1-1c2 2 5.3 2 7.4 0z" fill="#6a0001"/><path d="M257.5 167l1.5-5.4 15 4-1.3 5.5-15.2-4z" fill="#464646"/><path d="M272 168.7l-.7-3.4 17-3.5.7 3.4-17 3.5z" fill="#464646"/><path d="M272.5 171.5l4.2 3.4-1.2.6-3.4-2.7z"/><path d="M272.5 171.8l1.8-2.3 3.8 3-1.7 2.3-3.8-3z"/><path d="M282.8 165.8l-.6.2c.6 1.7 2.4 2.6 4.2 2l-.3-.6c-1.2.4-2.7-.3-3.2-1.6z" fill="#6a0001"/><path d="M283.3 178.8l3.5.6 3.2-17-3.4-.7-3.3 17z" fill="#464646"/><path d="M287.2 174.2c-.4 0-.8 0-1 .2-.3-.3-.7-.5-1-.6-1 0-1.7.4-2 1.3l-.6 3.7 1 .2.7-3.7c0-.3.4-.5.6-.4.2 0 .4.2.4.5l-.7 3.6 1 .3.7-3.6c0-.3.3-.5.6-.4.3 0 .5.3.4.6l-.7 3.5 1 .2.8-3.6c0-.8-.4-1.6-1.3-1.8z" fill="#020101"/><path d="M288 179l-.3 1-5.5-1 .2-1z" fill="#888"/><path d="M292.7 162.2c-1-2.4-2.8-4.3-5-5.4-1 2.3-1 5 0 7.4 1 2.4 2.7 4.3 5 5.4.8-2.2 1-5 0-7.4z" fill="#737373"/><path d="M290.2 166.2c0-1.4-.6-2.6-1.5-3.5-.8 1-1.3 2.3-1.3 3.6 0 1.4.7 2.6 1.6 3.5.8-1 1.3-2.2 1.2-3.6z" fill="#888"/><path d="M289 170.8c0-1.3-.5-2.6-1.4-3.5-1 1-1.3 2.3-1.3 3.6 0 1.3.6 2.5 1.5 3.4.8-1 1.3-2.2 1.3-3.6z" fill="#888"/><path d="M286.2 172h-.6c0 1.6 1.3 3 3 3v-.6c-1.4 0-2.4-1.2-2.4-2.5zM279.7 173.5l-.6-.4c-1 2-.2 4 1.6 5l.3-.6c-1.5-.8-2-2.5-1.3-4z" fill="#6a0001"/><path d="M276 171l.4-3.3 16 2.6-.6 3.2-16-2.6z" fill="#464646"/><path d="M272 165.8l2.4-2 10.7 12-2.4 2-10.6-12z" fill="#464646"/><path d="M279 169.8l-1 1.2.5.4 1-1.2c.7-.7.6-1.7 0-2.3l-.5.4c.4.4.5 1 0 1.4z" fill="#232323"/><path d="M274.6 167.6l2.4-2.6 3.3 3-2.4 2.7-3.4-3z"/><path d="M264.6 154.2l.3 1c-3.2 1-6.4-1-7-4l1-.4c.6 2.5 3 4 5.6 3.4z" fill="#6a0001"/><path d="M266.7 163.6l4.5-1.7-5.7-15.2-4.5 1.7 5.7 15z" fill="#464646"/><path d="M253.2 159.7l-2.2-2.4 11.7-11 2.2 2.3-11.8 11z" fill="#464646"/><path d="M254.8 154.4c.3.3.4.6.4 1 .4 0 .7.2 1 .4.5.6.5 1.5 0 2l-2.6 2.4-.7-.7 2.4-2.3c.2-.2.2-.5 0-.7 0-.2-.5-.2-.7 0l-2.4 2.3-.7-.7 2.5-2.2c.3-.2.3-.5 0-.7h-.6l-2.5 2.4-.7-.7 2.4-2.4c.6-.5 1.6-.5 2 0z" fill="#020101"/><path d="M249.6 155l-.8.7 5.6 6 .8-.7z" fill="#36003d"/><path d="M262.7 144.5c2.5-.2 5 .6 6.7 2-1.7 1.8-4 3-6.4 3-2.5.2-5-.6-6.7-2 1.7-1.8 4-3 6.4-3z" fill="#737373"/><path d="M259.6 148c1-.6 2.3-.7 3.5-.5-.3 1-1 2-2 2.8-1.2.6-2.4.8-3.6.5.4-1 1-2 2.2-2.7z" fill="#888"/><path d="M256.6 151.3c1-.7 2.3-1 3.5-.6-.3 1-1 2-2 2.8-1.2.6-2.5.8-3.6.5.3-1 1-2 2.2-2.7z" fill="#888"/><path d="M275.5 167.7l-1-.8 4-5 1 .8-4 5z"/><path d="M253.4 173.7l2.6 1.3 6-11.6-2.7-1.3-6 11.7z" fill="#464646"/><path d="M258.6 160.2c2.2-.5 4.3-.2 6.2.8-1.2 1.7-3 3-5 3.6-2.3.5-4.4.2-6.3-.8 1.2-1.7 3-3 5-3.6z" fill="#737373"/><path d="M246.8 148.6l2.3-2.8 30.3 24.8-2.3 2.8-30.2-24.8z"/><path d="M282.4 183.4l2.7 1.7 8.6-13.7-2.7-1.7-8.6 13.8zM273.4 185.3l2.3 2 9.6-11.7-2.3-2-9.6 11.7z" fill="#464646"/><path d="M255.4 167.8c1-.7 2.4-.8 3.5-.6-.4 1-1.2 2-2.3 2.8-1 .6-2.3.8-3.5.5.4-1 1-2 2.2-2.7z" fill="#888"/><path d="M257.4 164.6c1-.7 2.3-.8 3.5-.6-.5 1.2-1.2 2.2-2.3 2.8-1 .6-2.3.8-3.5.6.4-1.2 1-2.2 2.2-2.8z" fill="#888"/><path d="M287.2 180.7c-.3-.2-.7-.2-1-.2 0-.3-.3-.6-.6-.8-.7-.4-1.6-.2-2 .5l-2 3 1 .4 1.8-3s.4-.2.6 0c.3 0 .3.4.2.6l-1.8 3 .8.4 1.8-3c.2 0 .5-.2.7 0 .2 0 .3.4.2.6l-2 3 1 .4 1.7-3c.4-.6.2-1.5-.5-2zM278.4 183l-1-.2c0-.3-.2-.7-.5-1-.7-.4-1.7-.3-2.2.3l-2 2.8.6.6 2.2-2.7c0-.2.5-.2.7 0 .2 0 .2.4 0 .6l-2 2.7.6.6 2-2.6c.3-.2.6-.3.8 0 .2 0 .2.4 0 .6l-2 2.6.6.6 2.2-2.6c.5-.6.4-1.5-.2-2zM257.8 171c-.3-.3-.6-.4-1-.4 0-.3-.2-.7-.5-1-.6-.4-1.5-.3-2 .3l-2.2 2.5 1 .7 2-2.7c.2-.2.5-.2.7 0 .2 0 .2.4 0 .6l-2 2.8.7.6 2-2.6c.3-.3.6-.3.8 0 .2 0 .2.4 0 .6l-2 2.6.7.6 2-2.6c.5-.6.5-1.6-.2-2z" fill="#020101"/><path d="M288 186.3l-.5 1-7.8-5 .5-.8zM278.7 188.6l-.7 1-7-6 .6-.7zM258 176.2l-.7.8-6.8-5.6.6-.8z" fill="#36003d"/><path d="M295.5 171c-.2-2.5-1.4-4.8-3.3-6.4-1.4 2-2.2 4.4-2 7 .3 2.6 1.5 5 3.3 6.6 1.5-2 2.3-4.5 2-7zM286.8 175c-.4-2.7-1.7-5-3.7-6.6-1.3 2-2 4.7-1.6 7.4.3 2.6 1.7 5 3.6 6.6 1.4-2 2.2-4.7 1.8-7.4z" fill="#737373"/><path d="M292.5 174.8c.4-1.2.3-2.5-.2-3.6-1 .6-1.8 1.5-2.3 2.7-.4 1-.3 2.4.2 3.5 1-.6 2-1.5 2.3-2.7zM283.4 178.8c.5-1.2.4-2.5 0-3.5-1 .5-2 1.5-2.4 2.7-.4 1.2-.3 2.4.2 3.5 1-.6 1.8-1.5 2.2-2.7z" fill="#888"/><path d="M290 178.4c.4-1.2.3-2.5-.2-3.6-1 .6-2 1.6-2.3 2.8-.4 1.2-.3 2.4.2 3.5 1-.5 2-1.4 2.3-2.6zM280.3 182c.4-1.3.4-2.6 0-3.7-1 .6-2 1.6-2.4 2.8-.5 1.3-.4 2.5 0 3.6 1-.6 2-1.5 2.3-2.7z" fill="#888"/><path d="M268 166l1-.4-.2-.4-1 .4c-.6 0-1 .7-.7 1.3.3.4.8.7 1.4.5l1-.3v-.4l-1 .4c-.5 0-.8 0-1-.5 0-.3.2-.6.5-.7z" fill="#ffb136"/><path d="M266 169l3-3.7 8 6.5-3.2 3.8-7.8-6.5z" fill="#232323"/><path d="M273.4 168v.4c-1 .2-2.3-.6-2.5-1.8h.3c.2 1 1 1.6 2 1.4z" fill="#ffb136"/><path d="M271 166.7h.3c-.4-1.2-1.7-1.8-2.8-1.4v.4c1-.3 2 0 2.4 1zM275.5 169.5l.4-.2c-.5-1-1.8-1.7-3-1.2l.3.5c1-.4 2 0 2.2 1z" fill="#ffb136"/><path d="M259.8 156h-1-.2v-.2h.7c.3 0 .5-.3.4-.6 0-.3-.2-.4-.5-.4h-1v.4h1.2v.2h-.7c-.3 0-.5.3-.4.6 0 .2.2.4.5.4h1v-.4z" fill="#ff6a07"/><path d="M260.5 156.2c.3 0 .5.2.5.4v.8h.4v-.8c0-.4-.5-.7-1-.7h-.7v.3h.8zM258.4 155h-.8c-.2-.2-.2-.4 0-.6l-.3-.2c-.2.3-.2.7 0 1 .4.2.8.2 1 0z" fill="#ff6a07"/><path d="M276.7 171.4v-.2l.7-1h.3v.3l-.8 1h-.3zm.7.4l.8-1v-.2h-.3l-1 1s0 .2.2.2h.2zm.5.4l.6-1v-.2h-.2l-.8 1v.2h.3z" fill="#ffb136"/><path d="M272 163l1-.4c0-.3 0-.6.2-1 .4-.4 1.3-.5 1.8 0l2.3 2-.5.5-2.3-1.8h-.6c-.3.3-.3.6 0 .7l2.3 1.8-.6.7-2.3-2h-.6c-.2.3-.2.6 0 .7l2.4 2-.6.6-2.3-2c-.6-.3-.7-1.2-.2-1.7z" fill="#cbcbcb"/><path d="M276.7 163l.7.5-2.8 3.3-.6-.5zM272.8 163v.4c-1.2 0-2.2-.8-2.2-2h.4c0 1 .8 1.7 1.8 1.6z" fill="#cbcbcb"/><path d="M273.5 162.8v.4c-1.2 0-2.2-.8-2.3-2h.5c0 1 .8 1.6 1.8 1.6z" fill="#cbcbcb"/><path d="M270 163l.6-2.3-2.2 1z" fill="#232323"/><path d="M269.5 160.7l.3-.5 1.4 1-.3.4-1.5-1z" fill="#232323"/><path d="M269.8 160.5l-.3.2-.3-.8.3-.2.3.7zM271 161.3v.3h.8v-.2h-.8z" fill="#232323"/><path d="M271.2 161.5v-.2.2z" fill="#710700"/><path d="M271.3 161.5z" fill="#00ce18"/><path d="M269.7 160.5l.2.2h-.2v-.2zM269.7 160.6h.2-.3z" fill="#001871"/><path d="M269.6 160.6l.2.2c0-.2-.2-.2-.2-.2zM270 160.8zM270 160.8h.2-.2zM270 160.7h.2-.2z" fill="#001871"/><path d="M270.5 161.2v-.2h-.3l.3.2z" fill="#60007e"/><path d="M269.3 160z" fill="#009d04"/><path d="M278 168.2l-1.2-1 .5-.5c.3-.3.7-.4 1 0 .3.2.4.7 0 1l-.4.5z" fill="#fe670e"/><path d="M276.5 174.3l-2.4-2-.2-.3h.4l1.4 1.2c.6.4 1.2.6 1.4.4 0-.2-.2-.7-.8-1.2l-2.4-1.8-.2.2 2.4 2c.2 0 .3.2.3.3 0 .2-.3 0-.5 0l-1.4-1c-.5-.6-1-.8-1.3-.6 0 .2.3.8 1 1.2l2.3 2 .2-.3z" fill="#cbcbcb"/><path d="M277.2 173.2l-.2.3c.2.2.3.5.2.7-.2.3-.5.4-.8.2v.3c.3.3.8 0 1-.3.3-.4.2-1-.2-1.2z" fill="#ffb136"/><path d="M274.6 174.6l-.7.6.6-.6zm-.2-.3h-.2l-.6.6.8-.7zm-.3-.2l-.7.7h.2l.6-.6zM273.7 174l-.7.6.7-.6zm-.3-.2v-.2l-.7.8.7-.6zm-.3-.3l-.6.6v.3l.7-.8zM275.6 175.3h-.2l-.6.6h.2l.6-.7zm-.3-.3h-.2l-.5.6.2.2.6-.8zm-.3-.2h-.2l-.5.6.7-.6z"/><path d="M268 167l.3.3-2 2zM268.5 167.5l.3.2-1.8 2.2-.3-.3zM269 168l.4.2-1.8 2.2-.3-.2zM269.7 168.4l.3.3-1.8 2.2-.3-.4zM270.3 169h.2l-1.8 2.3-.3-.2zM270.8 169.4l.3.2-1.7 2.2-.3-.2zM271.4 170h.3l-1.8 2.3-.4-.3zM272 170.3l.3.3-2 2z" fill="#ffb136"/><path d="M277 167.4l.4-.3v.2h.4v.4h.4v.2l-.3.4V167.6h-.2v-.4h-.4z" fill="#ff4304"/><path d="M276.8 167.2l.4-.3.4-.3-.2.3v.2l.3-.2-.2.2-.2.5.2-.4.2-.3h-.2l-.2.2.2-.4h-.2v.2zM277.2 167.7l.5-.3.3-.2v.3h.2l-.2.2-.3.5.3-.4v-.3l-.2.2.2-.4h-.2l-.2.2z" fill="#ff4304"/><path d="M283.2 164.3c-.4.5-1.6.2-2.6-.7l-6-4.7c-1-1-1.5-2-1-2.5.3-.5 1.5-.2 2.6.6l5.8 4.8c1 1 1.6 2 1.2 2.5zM278.5 170.2l1.4 1 2.7-4.8-1.4-1-2.8 4.8z"/><path d="M281.2 166l1.5.4.5-2.5-1.5-.4-.5 2.4z"/><path d="M276 164.2h2.7V163c0-.8-1-1.5-2.6-1.5h-2.7v1.4c0 .8 1.2 1.5 2.7 1.5z" fill="#f7f9fe"/><path d="M275 163l-3 2.5c-.8-1 0-2.8 1.5-4l1.5 1.6z" fill="#f7f9fe"/><path d="M273 163.8l-.2.6c1.4.8 3.2.3 4-1l-.5-.4c-.6 1.2-2 1.5-3.2.8z" fill="#ff6a07"/><path d="M277 163.6l.2-.4-1-.6-.3.4 1 .6zM273.2 163.8l-.4-.2-.6 1 .4.2.6-1z" fill="#464646"/><path d="M275.7 162.7l-.4-.2h.3v.2zM275.5 163l-.4-.2h.4v.2zM274.4 162.3h-.4v-.2l.3.2zM275.4 162h-.2l-.2-.2h.3v.2zM276 162.3h-.2l-.2-.2.3.2zM275 162.3h-.2v-.2l.3.3zM274.5 162h-.3v-.2h.3v.2zM274 161.7l-.4-.2h.3v.2z" fill="#ffea57"/><path d="M279.4 171.6c3.2-4 3-9.5-.7-12.3-3.5-3-9-2-12.2 2.2l13 10z" fill="#020101" fill-opacity=".4"/><path d="M280.2 161.5h.6l.6-3.3h-.6l-.6 3.3z"/><path d="M278.2 160.5l.5.5 2.5-3-.6-.4-2.4 3zM276.8 159.7l.6.5 2.6-3-.6-.6-2.6 3z"/><path d="M281 158.8l.4-.6-4.3-3.6-.4.6 4.3 3.6z"/><path d="M247.4 146.8c.4-.5 1-1 1.6-1 0 .7 0 1.3-.5 2-.5.4-1 .8-1.7 1 0-.8 0-1.4.6-2z" fill="#ffb136"/><path d="M277.2 154.4s.2.3 0 .4l-.4.6h-.4v-.4l.5-.6h.2z" fill="#020101"/><path d="M276.7 154.8c0-.2.3-.3.5-.3 0 .2 0 .4-.2.5-.2.2-.3.3-.5.3 0-.2 0-.4.2-.5z" fill="#ffb136"/><path d="M280 158.5h-.3c0-.3.2-.7.5-.8v.2c-.2 0-.4.2-.3.5zM279.3 159.2c.4 0 .6-.4.6-.7h-.3c0 .3 0 .6-.4.7z" fill="#737373"/><path d="M278.5 158.8c0 .5.6.6 1 .5l-.2-.2c-.2.3-.6 0-.8-.2zM280.4 158s-.2 0-.2-.2v-.2l.2.4z" fill="#737373"/><path d="M278.6 158.7v.2c-.2 0-.3 0-.3-.2h.3z" fill="#737373"/><path d="M270 160.5v-.3.3zM270.4 160.6v-.3.3z" fill="#020101"/><path d="M270 160.5z" fill="#2c2c2c"/><path d="M271 161zM271 161v.2zM270.8 161zM270.8 161zM270.7 161zM270.7 161zM270.6 160.8zM270.6 161zM271 161.2zM270.6 161zM270.6 161.2z" fill="#00cf37"/><path d="M271 161.5l-.3-.2.2.2z" fill="#d6c415"/><path d="M270.3 160.6h.2zM270.4 160.4zM271.8 161.6l-.4-.2.4.2z" fill="#2c2c2c"/><path d="M271.7 161.5zm0 0zm0 0zM271.7 161.5zm0 0zm0 0zM271.6 161.5zm0 0zm0 0zM271.6 161.5zm0 0zm0 0zM271.5 161.5zm0 0zm0 0zM271.5 161.5zm0 0zm0 0zM271.4 161.5zm0 0zm0 0zM271.4 161.4zm0 0zm0 0zM271.4 161.4zm0 0zm0 0z" fill="#020101"/><path d="M58.5 161.2l-.8.2c-1.2-4.5-.4-8.8 2-9.4l.3 1.7c-1.8.5-2.5 3.8-1.5 7.5z" fill="#0f0f0f"/><path d="M65.2 159.7l1-.2c-1.4-4.6-4.3-7.8-6.6-7.2l.5 1.7c2-.5 4.2 2 5.2 5.7z" fill="#0f0f0f"/><path d="M64 160.7h.5c0-3.4-1-6-2-6v1c.8 0 1.5 2.3 1.6 5zM68.4 164h.3c-2-5.6-4.3-10-5-9.6l.6 2c.7-.2 2.5 3.2 4 7.6zM58 167.3h-.3c-1-5.7-1.3-10.6-.5-10.7l.4 2c-.6.2-.5 4 .4 8.7z" fill="#0f0f0f"/><path d="M58.8 166h-.3c-1-5.8-1.4-10.6-.5-10.8l.4 2c-.7.3-.5 4 .4 8.7z" fill="#0f0f0f"/><path d="M59.2 164H59c-1.2-5.8-1.5-10.7-.6-10.8l.4 2c-.7.2-.5 4 .4 8.7z" fill="#0f0f0f"/><path d="M58 165.3H58c-.6-5.8-.4-10.7.5-10.7l.2 2c-.7.2-1 4-.4 8.7zM69 162.8l.2-.2c-2.7-5.2-5.5-9-6.3-8.7l1 1.8c.5-.4 2.7 2.8 5 7z" fill="#0f0f0f"/><path d="M60 162.6l-.4.2c-1.6-3-2.2-5.8-1.3-6.3l.6 1c-.8.5-.3 2.7 1 5z" fill="#0f0f0f"/><path d="M62.8 154l1-.2v.4h-1c-.5 0-1-.4-1-1h.4c0 .4.3.7.6.7z" fill="#29003b"/><path d="M60.7 172.4H59l.3-17H61l-.3 17z" fill="#fff1dd"/><path d="M59.6 167h-.3c-1.5-5.6-2-10.4-1.3-10.6l.5 2c-.6.2 0 4 1 8.6z" fill="#0f0f0f"/><path d="M69.3 170l1.5-1-9-14.3-1.4 1 9 14.2z" fill="#fff1dd"/><path d="M65.4 170.4s1.6-1.4 3-1.4c1.6 0 3 1.7 3 1.7s1.4 1.6 3 1.7c1.5 0 3-1.3 3-1.3s1.6-1.4 3-1.3c1.6 0 3 1.7 3 1.7s1.4 1.6 3 1.7c1.5.2 3-1.2 3-1.2" stroke-width="1.1" stroke="#ff419f" stroke-linecap="square" fill="none"/><path d="M65.4 171.2s2-1 3.3-.7c1.5.4 2.6 2.2 2.6 2.2s1 2 2.5 2.3c1.5.4 3.3-.8 3.3-.8s2-1 3.4-.7c1.5.4 2.5 2.3 2.5 2.3s1 1.8 2.5 2.2c1.4.4 3.2-.7 3.2-.7" stroke-width="1.1" stroke="#ff419f" stroke-linecap="square" fill="none"/><path d="M65.7 162.2l.4 1.2-6 1.7-.4-1z" fill="#fff3df"/><path d="M59.4 164.2L59 163l6.2-1.8.3 1.3-6 1.7z" fill="#fff1dd"/><path d="M68.5 173l-5.8 1.6-2.2-10L65 163z" fill="#ac0000"/><path d="M61.7 157l-.2-.6v.6zM60.5 157.3l-.2-.4v.4z" fill="#0f0f0f"/><path d="M60.4 157.3l-.2-.5v.5zM61.8 157l-.2-.6v.5z" fill="#0f0f0f"/><path d="M62 156.8l-.3-.5v.5zM62 156.7v-.6.7zM62 156.7v-.5.5z" fill="#0f0f0f"/><path d="M62.2 156.7c.4 0 .6.3.7.6 0-.5-.4-.8-.8-.8-.3 0-.6.3-.6.7 0-.2.3-.5.6-.5zM59.5 157.4c.3-.2.8-.2 1 .2v-.2c-.2-.4-.8-.5-1.2-.2-.4.2-.5.8-.3 1.2 0-.3 0-.8.5-1z" fill="#5a008f"/><path d="M60.8 152.2v-.3c-.3-1.2-1.2-2-2-1.7-.7.2-1 1.3-.8 2.4v.2c-.4.8-.5 2 0 3.2l1 4 2-5.3 2.8 3.7-1-4c-.4-1-1.2-2-2-2.5z" fill="#0f0f0f"/><path d="M58.2 153.5l-.4.3 1 .2v-.3c-.2 0-.5 0-.6-.2z" fill="#ffd92a"/><path d="M59 153.7l-.3.3h1v-.4H59zM59.8 153.6v.3l1-.6h-.3c-.2 0-.5 0-.7.2z" fill="#ffd92a"/><path d="M60.5 153.2l.3.2.7-.6H61s-.2.3-.5.4zM58 151.7v-.3l2.2-.6v.2l-2.2.7z" fill="#ffd92a"/><path d="M59.6 151.5l.2-.4-1.4.5.4.2z" fill="#ffd92a"/><path d="M58.6 151l-.2.5 1.5-.4h-.6zM59.3 151.7v-.2l-.3.2z" fill="#ffd92a"/><path d="M57.7 161.4l.4 1v-1zM58 161l.4 1v-1zM65.2 159.6l.6.5-.2-.5zM65.5 159.5l.7.6-.5-.7zM65.8 159.3l1 1-.8-1.2z" fill="#0f0f0f"/><path d="M60.2 155.3l-1.6-.2v.5l1.8.2 1.2-1v-.4z" fill="#ffd92a"/><path d="M65.5 154.3v.3l-1.8-.4v-.4z" fill="#29003b"/><path d="M66.4 155.8l-.3.2-.8-1.6h.3z" fill="#29003b"/><path d="M67.8 156.7l-.3.3-1.4-1 .3-.4z" fill="#29003b"/><path d="M69.5 157v.5l-2-.5v-.3z" fill="#29003b"/><path d="M69.4 157.5l1-.7-1.2.3z" fill="#29003b"/><path d="M61 164l-.6.3h1l.3-.2H61z" fill="#ffd92a"/><path d="M61.8 164l-.3.4c.4 0 1 0 1.4-.2l-.2-.3h-1zM63 164c.5 0 1-.2 1.3-.4H64c-.4 0-.7.2-1 .3zM64 163.5h.3c.4 0 .7-.3 1-.6h-.6c-.2 0-.4.3-.7.5z" fill="#ffd92a"/><path d="M69 174.4l-2.8 2.4-2.5-3 3-2.4 2.4 3z" fill="#cd0003"/><path d="M71.4 179l-3.3 1.7-2.3-4.7 3.3-1.7 2.4 4.6z" fill="#cd0003"/><path d="M74.4 182l-2.8 2.5-3.6-4 2.8-2.4 3.6 4z" fill="#cd0003"/><path d="M69.2 173.2l-7 2-.2-3.7 5.6-1.6z" fill="#ac0000"/><path d="M66.2 167.8c0 .4-.3.7-.6.8-.4 0-.7 0-.8-.4h-.2c0 .4-.2.8-.5 1-.3 0-.6-.2-.8-.5H63c0 .4 0 .7-.5.8-.3 0-.6 0-.8-.4-.2 0-.2 0-.2.2.2.4.7.6 1 .5.4 0 .7-.4.7-.7.3.2.6.3 1 .3.2 0 .5-.4.6-.7.2.2.5.3.8.2.5 0 .8-.5.7-1z" fill="#e900fe"/><path d="M60.4 166.2l.8 2.8c0 .5-.2 1.3-.6 1.5L58 172c-.3 0-.5-.4-.2-1l1.7-4.3c.3-.6.8-1 1-.5z" fill="#891b17"/><path d="M60.7 164.4v-.3l-.2.2v-.2c-.2 0-.3 0-.2.2H60c0 .2 0 .3.2.3v.2h.4c.2 0 .2 0 .2-.2zm-.2.2h-.2v-.3h.3v.3z" fill="#fffefb"/><path d="M66.4 164.5l.8 2.8c0 .4.8 1 1.2 1l3-.2c.3 0 .2-.4-.4-.8l-3.7-2.8c-.5-.4-1-.4-1 0z" fill="#891b17"/><path d="M69.7 166.2v.3c.6 0 1.2-.2 1.3-.8h-.2c0 .4-.6.7-1 .5z" fill="#96e2fe"/><path d="M70.8 165.6v.2c.7-.3 1-1 .6-1.5h-.2c.2.6 0 1-.4 1.3z" fill="#96e2fe"/><path d="M71.5 164l.4-.6h-.2l-.4.4c-.2.3-.3.6 0 .8v-.3-.4zM72.5 163c-.4-.2-.7 0-.8.4h.2c0-.3.2-.5.5-.4z" fill="#96e2fe"/><path d="M72.7 162.8h-.3v.2h.3c.2 0 .3-.2.2-.4h-.2v.2z" fill="#96e2fe"/><path d="M73.3 162.4c-.2 0-.4 0-.5.3l.5-.3zM73.3 162.3c.2.2.5 0 .5 0v-.2c0 .3-.3.4-.5.3zM58.3 169.7v.2c.6-.2 1-.8.8-1.4 0 .5-.3 1-.7 1z" fill="#96e2fe"/><path d="M59 168.7v.2c.7-.4 1-1 .6-1.6h-.2c.2.5 0 1-.4 1.3z" fill="#96e2fe"/><path d="M59.7 167l.4-.6-.4.5c-.2.2-.3.5 0 .6v-.2-.4zM60.7 166c-.3 0-.7 0-.7.4 0-.2.4-.4.7-.3z" fill="#96e2fe"/><path d="M61.4 165.5v-.2h-.2-.2c-.2 0-.3 0-.3.2h.2-.2v.3h.7v-.3zm-.3.2v-.3h.2v.3zM60.8 164.8v-.2h-.4s-.2 0-.2.2v.4h.5c.2 0 .2 0 .3-.2l-.2-.2zm-.2.2h-.2v-.2h.3v.2z" fill="#fffefb"/><path d="M61 166h-.3.2l.2-.3H61v.2zM61.6 165.5c-.2 0-.5 0-.5.2.2 0 .4-.3.6-.2z" fill="#96e2fe"/><path d="M61.6 165.4c0 .2.4 0 .4-.2 0 .2-.3.3-.4.2z" fill="#96e2fe"/><path d="M80.6 171.2c0 .3 0 .6-.4.7-.3 0-.6-.2-.7-.5 0-.3 0-.6.4-.7.2 0 .5 0 .6.4zM86.2 170c0 .4 0 .7-.3.8-.5 0-.8 0-.8-.4 0-.3 0-.6.3-.7.3 0 .7 0 .7.4zM75.7 168.7c0 .3 0 .6-.4.7-.3 0-.6 0-.7-.4 0-.3 0-.6.4-.7.3 0 .6 0 .7.4zM85.5 165.5c0 .3 0 .6-.4.7-.2 0-.5 0-.6-.4 0-.3 0-.6.4-.7.3 0 .6.2.7.5zM90.6 165.8c0 .3 0 .6-.4.7-.3 0-.6 0-.7-.4 0-.2 0-.5.4-.6.2 0 .5 0 .6.4zM84.5 168c0 .3 0 .6-.4.7-.2 0-.5 0-.6-.4 0-.3 0-.7.4-.7.3 0 .6 0 .7.4zM76 173.7c0 .3-.2.6-.5.7-.3 0-.6 0-.7-.4 0-.3 0-.6.4-.7.3 0 .6 0 .7.4zM72.2 168c0 .2 0 .5-.4.6-.3 0-.7 0-.7-.4 0-.3 0-.6.5-.7.3 0 .6 0 .7.4zM79.6 167.7c0 .3 0 .6-.4.7-.3 0-.6 0-.7-.4 0-.3 0-.6.4-.7.2 0 .5 0 .6.4z" fill="#fe9fe3"/><path d="M62.6 153.3c-.2.3-.5.4-.8.3-.3-.2-.4-.6-.3-1 .2-.2.6-.3 1 0 .2 0 .3.4 0 .7z" fill="#0acde0"/><path d="M66 165.7v-.2h-.3-.2c-.2 0-.2 0-.3.2h.2v.2h.2s0 .2 0 0h.4v-.3zm-.3.2s-.2 0-.2-.2v-.2h.3v.3zM62 166.8v-.2h-.2-.2c-.2 0-.3 0-.3.2v.2c.2.2.2.2.3 0 0 .2 0 .3.2.2v-.2h.3v-.2zm-.3.2h-.2v-.3h.3v.3zM61.6 166.3v-.3h-.2-.2c-.2 0-.2 0-.3.2v.4h.4c.2 0 .3 0 .3-.2zm-.2.2h-.2v-.3h.3v.3zM65.4 165.2s-.2-.2 0-.2v-.3h.5v.5h-.2v.3h-.2v-.2h-.2zm.3 0v-.2h-.2c0 .2 0 .2.2.2zM65.2 164.4s-.2 0 0-.2v-.3h.5v.4c0 .2 0 .3-.2.3h-.2c-.2-.2-.2-.2 0-.3zm.3 0v-.2c-.2 0-.2 0-.2.2h.2z" fill="#fffefb"/><path d="M64.8 163.7s-.2 0-.2-.2h.2v-.2h.6v.4c0 .2 0 .3-.2.3h-.3v-.3zm.3 0h.2c0-.2 0-.2-.2-.2v.2zM65 163c0-.2 0-.2.2-.2v-.2h.5v.5l-.2.2h-.2v-.2H65zm.4 0s.2 0 0 0v-.2s-.2 0-.2.2h.2zM59.7 171h.3l-1 4h-.4z" fill="#fffefb"/><path d="M58 175.6l1.3-2-.6 2.2zM60 170.8h.3l-1 4.5h-.4z" fill="#fffefb"/><path d="M58.3 175.8l1.3-2-.6 2.2z" fill="#fffefb"/><path d="M58.8 174.4h-.2c0 .3.4.4.8.3-.3 0-.6 0-.6-.3z" fill="#fe96ea"/></svg>
