<svg xmlns="http://www.w3.org/2000/svg" width="200" height="300"><path d="M68.5 203.5V178H134c7 0 12.7 5.7 12.7 12.7 0 7-5.8 12.8-12.8 12.8H68.4zm0-51.2v-25.6H134c7 0 12.7 5.8 12.7 12.8 0 7-5.8 12.8-12.8 12.8H68.4zm-24-51h-2V229H134c21 0 38.3-17 38.3-38.3 0-10-3.7-18.8-9.7-25.6 6-6.7 9.7-15.6 9.7-25.5 0-21.2-17.2-38.3-38.4-38.3H44.3z" fill="#fdf7e6" stroke="#e6d999"/><path d="M170.5 60.4c-1-3-4.6-3.4-6.4-1.2-3.8 5-12.2 12.7-28.7 20.5C124.5 63 121.8 38.2 121 27c0-3-3-5-6-4.4l-70.4 15c-3.3.5-5 4-3.4 7 10.8 21 11.5 42.8 11 53.5-17.2-.5-28.3-4.7-34.7-8.4-3-1.6-6.2 1-5.5 4.2 4 16.3 20.6 47 91.2 28.3 72.3-18.8 71.8-48.6 67.3-61.6zm-39.5 217c22.7 0 41.2-14.7 41.2-33v-42.2c0-18.3-18.5-33-41.2-33H78.5c-22.7 0-41 14.7-41 33v42.2c0 18.3 18.3 33 41 33H131z" fill="#555"/><path d="M103.6 168.8v108.4h5.6V168.8h-5.6zM97.8 231L77.5 170c-15.4-1-28.3 6.3-35 21.7L97.8 246v-15zm17 0v15l55.2-54.5c-6.7-15.4-19.5-22.7-35-21.7L114.7 231z" fill="#aaa"/><path d="M126.7 127.7h-11.4c-2.4 0-4.5 2-5.8 5.4H96c-1.2-3-3.4-5.3-5.7-5.3H79c-4.2 0-7.6 6-7.6 13.2v8c0 8.7 4 15.7 9 15.7h3.4c7.4 0 13.5-10.6 13.5-24 0-.4 0-1-.2-1.5h11v1.6c0 13.2 6 24 13.3 24h3.5c5 0 9-7.3 9-16v-8c.2-7-3-13-7-13z"/><path d="M85.4 141.5H90v-4.7c0-.7-.2-1.2-.6-1.7-.5-.3-1-.6-1.7-.6h-2.3V132h-4.7v2.4h-2.4c-.6 0-1.2.3-1.6.7-.5.6-.7 1-.7 1.8v9.5c0 .6.2 1 .7 1.6.4.3 1 .5 1.6.5h7v4.8h-4.6V151H76v4.6c0 .7.2 1.2.7 1.7.4.4 1 .7 1.6.7h2.4v2.3h4.7V158h2.3c.7 0 1.2-.3 1.7-.7.4-.5.7-1 .7-1.7v-9.4c0-.6-.2-1.2-.6-1.6-.5-.5-1-.7-1.7-.7h-7V139h4.7v2.3zm38.7-1.2h4.8v-4.7c0-.6-.2-1.2-.6-1.6-.5-.5-1-.7-1.7-.7H124V131h-4.6v2.3H117c-.6 0-1 .2-1.6.7-.5.4-.7 1-.7 1.6v9.5c0 .7.2 1.2.7 1.7.5.4 1 .7 1.7.7h7v4.7h-4.6v-2.3h-4.7v4.8c0 .6.2 1 .7 1.6.5.6 1 .8 1.7.8h2.4v2.3h4.7V157h2.5c.6 0 1.2-.2 1.7-.7.4-.4.6-1 .6-1.5V145c0-.6-.2-1.2-.6-1.6-.5-.5-1-.7-1.7-.7h-7V138h4.6v2.3z" fill="#8dd97f"/></svg>
