<?xml version="1.0" encoding="utf-8" ?>
<svg version="1.1" xmlns="http://www.w3.org/2000/svg" xmlns:xlink="http://www.w3.org/1999/xlink" width="200" height="300" viewBox="0 0 200 300">
	<g transform="matrix(1,0,0,1,100,150)">
		<path d="M-31.5335,53.485 L-31.5335,27.9026 L33.9081,27.9026 C40.9432,27.9026 46.6993,33.6586 46.6993,40.6938 C46.6993,47.7289 40.9432,53.485 33.9081,53.485 L-31.5335,53.485 Z M-31.5335,2.32023 L-31.5335,-23.2621 L33.9081,-23.2621 C40.9432,-23.2621 46.6993,-17.5061 46.6993,-10.471 C46.6993,-3.4358 40.9432,2.32023 33.9081,2.32023 L-31.5335,2.32023 Z M-55.6302,-48.8445 L-57.4894,-48.8445 L-57.4894,79.0674 L-55.6302,79.0674 L33.9081,79.0674 C55.1415,79.0674 72.2816,61.9272 72.2816,40.6938 C72.2816,30.8446 68.5722,21.8907 62.5603,15.1114 C68.7001,8.33209 72.2816,-0.621739 72.2816,-10.471 C72.2816,-31.7043 55.1415,-48.8445 33.9081,-48.8445 L-55.6302,-48.8445 Z" fill="#fdf7e6" stroke-width="1" stroke="#e6d999" />
		<path d="M70.5463,-89.6143 C69.6063,-92.4883 65.8758,-93.0319 64.1281,-90.7641 C60.171,-85.7821 51.8412,-78.0956 35.2828,-70.3339 C24.5067,-87.13 21.7697,-111.804 21.1021,-122.928 C20.9922,-125.921 18.1432,-128.053 15.1135,-127.382 L-55.4418,-112.542 C-58.6842,-111.929 -60.3485,-108.271 -58.8482,-105.361 C-48.0344,-84.4504 -47.2802,-62.5874 -47.7542,-51.8839 C-65.026,-52.5217 -76.0939,-56.7414 -82.5233,-60.4022 C-85.4084,-61.9733 -88.7384,-59.3314 -87.9903,-56.1668 C-84.0161,-39.9393 -67.3832,-9.26143 3.15534,-27.8683 C75.4888,-46.7922 75.0279,-76.557 70.5463,-89.6143 Z M31.0397,127.506 C53.7412,127.506 72.2032,112.658 72.2032,94.4 L72.2032,52.1648 C72.2032,33.9068 53.7412,19.0585 31.0397,19.0585 L-21.4745,19.0585 C-44.1759,19.0585 -62.6379,33.9068 -62.6379,52.1648 L-62.6379,94.4 C-62.6379,112.658 -44.1759,127.506 -21.4745,127.506 L31.0397,127.506 Z" fill="#555" />
		<path d="M3.59612,18.7853 L3.59612,127.233 L9.21795,127.233 L9.21795,18.7853 L3.59612,18.7853 Z M-2.1984,81.0531 L-22.4775,19.8079 C-37.9452,18.8004 -50.8119,26.0695 -57.4894,41.5082 L-2.1984,95.9157 L-2.1984,81.0531 Z M14.7102,81.0531 L14.7102,95.9157 L70.0012,41.5082 C63.3237,26.0695 50.457,18.8004 34.9893,19.8079 L14.7102,81.0531 Z" fill="#aaa" />
		<path d="M26.6986,-22.3385 L15.2867,-22.3385 C12.8546,-22.3385 10.7967,-20.3402 9.54954,-16.8987 L-3.98262,-16.8987 C-5.22983,-20.1182 -7.41243,-22.3385 -9.71977,-22.3385 L-21.1317,-22.3385 C-25.2474,-22.3385 -28.5525,-16.3436 -28.5525,-9.12762 L-28.5525,-1.13452 C-28.5525,7.74673 -24.4991,14.7407 -19.635,14.7407 L-16.2052,14.7407 C-8.78436,14.7407 -2.73542,4.08323 -2.73542,-9.23864 C-2.73542,-9.6827 -2.73542,-10.3488 -2.86015,-10.7929 L7.99053,-10.7929 C7.99053,-10.3488 7.86581,-9.6827 7.86581,-9.23864 C7.86581,3.9722 13.8524,14.7407 21.3356,14.7407 L24.7654,14.7407 C29.7542,14.7407 33.6829,7.52471 33.6829,-1.13452 L33.6829,-9.12762 C33.9947,-16.3436 30.6896,-22.3385 26.6986,-22.3385 Z" fill="#000" />
		<path d="M-14.6236,-8.50791 C-12.5378,-8.50791 -10.9734,-8.50791 -9.93054,-8.50791 C-9.93054,-10.5937 -9.93054,-12.1581 -9.93054,-13.201 C-9.93054,-13.8608 -10.154,-14.4141 -10.601,-14.8611 C-11.0692,-15.3293 -11.6226,-15.5635 -12.2611,-15.5635 C-13.3253,-15.5635 -14.1128,-15.5635 -14.6236,-15.5635 C-14.6236,-16.6064 -14.6236,-17.3939 -14.6236,-17.926 C-16.7094,-17.926 -18.2844,-17.926 -19.3486,-17.926 C-19.3486,-16.8618 -19.3486,-16.0743 -19.3486,-15.5635 C-20.3915,-15.5635 -21.1684,-15.5635 -21.6792,-15.5635 C-22.339,-15.5635 -22.8923,-15.3293 -23.3393,-14.8611 C-23.8075,-14.4141 -24.0417,-13.8608 -24.0417,-13.201 C-24.0417,-11.1152 -24.0417,-9.28477 -24.0417,-7.70977 C-24.0417,-6.15606 -24.0417,-4.84711 -24.0417,-3.78292 C-24.0417,-3.14441 -23.8075,-2.59104 -23.3393,-2.12279 C-22.8923,-1.67583 -22.339,-1.45236 -21.6792,-1.45236 C-18.5505,-1.45236 -16.1986,-1.45236 -14.6236,-1.45236 C-14.6236,0.654734 -14.6236,2.22973 -14.6236,3.27263 C-16.7094,3.27263 -18.2844,3.27263 -19.3486,3.27263 C-19.3486,2.22973 -19.3486,1.44223 -19.3486,0.910139 C-21.4344,0.910139 -22.9988,0.910139 -24.0417,0.910139 C-24.0417,3.01723 -24.0417,4.59222 -24.0417,5.63513 C-24.0417,6.27364 -23.8075,6.82702 -23.3393,7.29526 C-22.8923,7.74222 -22.339,7.9657 -21.6792,7.9657 C-20.6363,7.9657 -19.8594,7.9657 -19.3486,7.9657 C-19.3486,9.02988 -19.3486,9.81738 -19.3486,10.3282 C-17.2415,10.3282 -15.6665,10.3282 -14.6236,10.3282 C-14.6236,9.28529 -14.6236,8.49779 -14.6236,7.9657 C-13.5807,7.9657 -12.7932,7.9657 -12.2611,7.9657 C-11.6226,7.9657 -11.0692,7.74222 -10.601,7.29526 C-10.154,6.82702 -9.93054,6.27364 -9.93054,5.63513 C-9.93054,1.44223 -9.93054,-1.69712 -9.93054,-3.78292 C-9.93054,-4.44272 -10.154,-4.9961 -10.601,-5.44306 C-11.0692,-5.9113 -11.6226,-6.14542 -12.2611,-6.14542 C-15.4111,-6.14542 -17.7736,-6.14542 -19.3486,-6.14542 C-19.3486,-8.23122 -19.3486,-9.79558 -19.3486,-10.8385 C-17.2415,-10.8385 -15.6665,-10.8385 -14.6236,-10.8385 C-14.6236,-9.79558 -14.6236,-9.01872 -14.6236,-8.50791 Z M24.1282,-9.68916 C26.214,-9.68916 27.7784,-9.68916 28.8213,-9.68916 C28.8213,-11.775 28.8213,-13.3393 28.8213,-14.3822 C28.8213,-15.042 28.5978,-15.5954 28.1509,-16.0424 C27.6826,-16.5106 27.1292,-16.7447 26.4907,-16.7447 C25.4265,-16.7447 24.639,-16.7447 24.1282,-16.7447 C24.1282,-17.7876 24.1282,-18.5751 24.1282,-19.1072 C22.0424,-19.1072 20.4674,-19.1072 19.4032,-19.1072 C19.4032,-18.043 19.4032,-17.2555 19.4032,-16.7447 C18.3603,-16.7447 17.5835,-16.7447 17.0727,-16.7447 C16.4129,-16.7447 15.8595,-16.5106 15.4125,-16.0424 C14.9443,-15.5954 14.7102,-15.042 14.7102,-14.3822 C14.7102,-12.2964 14.7102,-10.466 14.7102,-8.89102 C14.7102,-7.33731 14.7102,-6.02836 14.7102,-4.96417 C14.7102,-4.32566 14.9443,-3.77228 15.4125,-3.30404 C15.8595,-2.85708 16.4129,-2.6336 17.0727,-2.6336 C20.2014,-2.6336 22.5532,-2.6336 24.1282,-2.6336 C24.1282,-0.526513 24.1282,1.04848 24.1282,2.09139 C22.0424,2.09139 20.4674,2.09139 19.4032,2.09139 C19.4032,1.04848 19.4032,0.260985 19.4032,-0.271108 C17.3174,-0.271108 15.7531,-0.271108 14.7102,-0.271108 C14.7102,1.83598 14.7102,3.41098 14.7102,4.45388 C14.7102,5.09239 14.9443,5.64577 15.4125,6.11401 C15.8595,6.56097 16.4129,6.78445 17.0727,6.78445 C18.1156,6.78445 18.8924,6.78445 19.4032,6.78445 C19.4032,7.84864 19.4032,8.63613 19.4032,9.14694 C21.5103,9.14694 23.0853,9.14694 24.1282,9.14694 C24.1282,8.10404 24.1282,7.31654 24.1282,6.78445 C25.1711,6.78445 25.9586,6.78445 26.4907,6.78445 C27.1292,6.78445 27.6826,6.56097 28.1509,6.11401 C28.5978,5.64577 28.8213,5.09239 28.8213,4.45388 C28.8213,0.260985 28.8213,-2.87837 28.8213,-4.96417 C28.8213,-5.62397 28.5978,-6.17734 28.1509,-6.6243 C27.6826,-7.09254 27.1292,-7.32667 26.4907,-7.32667 C23.3407,-7.32667 20.9782,-7.32667 19.4032,-7.32667 C19.4032,-9.41247 19.4032,-10.9768 19.4032,-12.0197 C21.5103,-12.0197 23.0853,-12.0197 24.1282,-12.0197 C24.1282,-10.9768 24.1282,-10.2 24.1282,-9.68916 Z" fill="#8dd97f" />
	</g>
</svg>