<?xml version="1.0" encoding="utf-8" ?>
<svg version="1.1" xmlns="http://www.w3.org/2000/svg" xmlns:xlink="http://www.w3.org/1999/xlink" width="300" height="168.75" viewBox="0 0 300 168.75">
	<g transform="matrix(1,0,0,1,150,84.375)">
		<path d="M59.0286,17.5704 L59.0286,17.5704 L50.075,23.9115 L68.6465,17.8263 C103.988,17.5383 132.45,3.85026 132.45,-12.9932 C132.45,-28.9574 106.882,-42.087 74.1223,-43.6595 L74.1223,-43.6595 L48.845,-50.7666 L59.9219,-43.6092 C41.522,-42.5928 25.4692,-37.9257 15.0631,-31.174 L15.0631,-31.174 L-8.99842,-44.9154 C-15.4143,-48.5442 -23.1911,-43.8901 -23.2423,-36.7434 L-22.9495,12.1514 C-22.9055,19.4856 -14.9796,24.0457 -8.70162,20.3408 L16.0752,5.82675 C26.3203,12.1257 41.5868,16.4906 59.0286,17.5704 Z" fill="#000" />
		<path d="M122.923,3.0873 C128.774,-1.44519 132.226,-6.75085 132.439,-12.4316 C132.444,-12.6702 132.448,-12.9096 132.449,-13.1497 C132.388,-18.9833 128.913,-24.4337 122.923,-29.0737 L122.923,3.0873 Z" fill="#fe1219" />
		<path d="M-29.3082,-32.5928 L-27.0839,-25.7885 L-131.314,8.28363 L-133.538,1.47935 Z" fill="#fe1219" />
		<path d="M-27.6306,-13.4276 L-25.4063,-6.62331 L-129.636,27.4488 L-131.86,20.6446 Z" fill="#fe1219" />
		<path d="M-27.3808,6.2065 L-25.1565,13.0108 L-129.386,47.0829 L-131.611,40.2786 Z" fill="#fe1219" />
	</g>
</svg>