<?xml version="1.0" encoding="utf-8" ?>
<svg version="1.1" xmlns="http://www.w3.org/2000/svg" xmlns:xlink="http://www.w3.org/1999/xlink" width="300" height="300" viewBox="0 0 300 300">
	<circle cx="150" cy="150" r="150" fill="#e6857b" />
	<g transform="matrix(1,0,0,1,150,150)">
		<path d="M72.1821,8.88677 L70.7033,12.091 L67.499,13.3234 L67.7455,17.0206 Q57.6399,23.9219 50.7385,23.9219L49.2597,23.9219 Q45.5625,26.1402 43.0977,26.1402L39.647,26.1402 L33.2386,29.8374 L31.5132,28.605 L28.309,29.8374 Q23.6259,29.8374 21.6541,31.5628Q23.3794,45.8585 23.3794,45.3655Q23.3794,46.8444 22.7633,50.1719Q22.1471,53.4993 22.1471,54.9782Q22.1471,56.95 24.6118,58.6754L22.8865,66.0697 L23.133,67.5486 L21.9006,70.0134 L23.133,72.7246 L22.3935,75.9288 L23.133,79.1331 L21.9006,81.8443 L22.8865,83.3232 L23.3794,88.2527 L23.3794,93.4288 L21.9006,94.4147 L24.3654,106.985 L20.4217,109.943 L16.4781,106.739 Q15.7386,105.999 15.2457,105.999Q14.7527,105.999 14.2598,106.739Q14.2598,107.971 13.2738,83.8161L12.2879,76.6683 L13.0274,70.2598 Q13.5203,69.2739 13.5203,69.0274Q13.5203,68.781 13.5203,68.781Q13.2738,68.5345 13.2738,68.288Q13.2738,66.0697 13.5203,64.8373L11.5485,64.8373 L12.2879,58.4289 L11.0555,51.5275 L12.7809,46.105 L11.302,44.1332 Q11.302,43.6402 11.302,42.4078Q11.0555,41.4219 11.0555,40.9289Q11.0555,40.1895 11.302,39.2036Q11.302,38.2177 11.302,37.7247L10.3161,33.0416 L9.82315,32.7952 L7.11189,34.274 Q6.61893,33.7811 6.37245,33.7811Q5.38654,33.7811 3.90767,34.5205L-0.282457,36.2458 Q-1.51485,36.7388 -3.24019,36.7388Q-4.71906,36.7388 -5.4585,36.4923L-8.41624,37.4782 Q-8.16976,38.4642 -8.16976,40.1895Q-8.16976,42.6543 -9.40215,44.6261L-8.16976,49.0627 L-10.1416,59.4148 L-9.15567,63.8514 L-10.1416,66.5627 L-8.41624,69.2739 L-9.89511,76.9147 L-8.41624,83.8161 L-9.89511,87.5133 L-9.64863,88.0063 L-8.41624,89.4851 L-7.43032,94.4147 L-7.6768,97.126 L-6.19793,100.084 Q-6.19793,101.563 -5.95145,103.041Q-5.95145,104.52 -5.95145,104.52Q-5.95145,108.217 -9.40215,108.217Q-11.8669,108.217 -13.8388,106.246Q-15.8106,104.274 -15.8106,101.439Q-15.8106,98.6048 -16.7965,96.3865L-18.5218,92.4429 L-18.7683,86.5274 L-18.5218,81.5978 L-18.5218,75.1894 L-19.7542,71.4922 L-20.4937,63.3584 L-19.2613,60.1542 Q-19.7542,59.1683 -19.7542,58.4289L-20.2472,50.2951 L-19.2613,46.3515 L-20.4937,41.1754 L-20.4937,39.2036 Q-21.9725,39.6965 -22.9584,39.6965Q-24.6838,39.6965 -26.4091,38.7106L-28.381,39.6965 L-34.7894,38.7106 L-38.2401,39.6965 L-43.4161,40.436 L-53.2753,39.2036 L-58.4513,39.6965 L-59.6837,38.7106 Q-62.1485,38.7106 -64.3668,38.4642L-68.8034,40.1895 L-71.5147,36.9853 L-75.7048,36.9853 L-79.6484,34.767 Q-81.1273,34.274 -84.085,32.5487Q-91.7259,31.3163 -91.7259,23.429Q-91.7259,16.7741 -85.071,15.7882L-80.3879,15.0487 L-79.6484,12.8304 L-67.8175,14.0628 L-63.8738,13.3234 Q-57.4654,13.3234 -57.4654,18.4994Q-57.4654,20.4712 -61.1626,23.1825L-59.4372,23.1825 Q-55.74,23.1825 -53.7682,24.6614L-41.9373,26.3867 Q-38.4866,25.4008 -36.2683,25.4008Q-33.0641,23.6755 -29.3669,23.6755L-19.7542,23.6755 L-20.2472,20.9642 L-19.2613,10.8586 L-20.4937,-2.94418 Q-19.7542,-3.93009 -18.5218,-5.40896L-18.7683,-6.1484 L-21.9725,-5.90192 L-24.6838,-6.88783 L-32.3246,-5.16249 L-34.05,-7.62727 L-41.6908,-10.092 L-43.6626,-11.8174 L-49.3316,-13.2963 L-51.5499,-16.0075 L-55.4936,-18.9653 L-55.9865,-25.6202 L-57.4654,-31.5357 L-55.74,-38.1906 L-52.5358,-42.3807 L-47.6063,-43.3666 L-49.0851,-44.599 Q-46.3739,-46.8173 -44.6485,-48.2962L-39.9654,-49.5286 L-32.3246,-52.4863 L-27.3951,-52.9793 L-22.219,-54.7046 L-19.7542,-54.7046 L-19.2613,-56.6764 L-19.7542,-58.1553 Q-19.0148,-61.8525 -18.0289,-69.0003L-20.2472,-73.9299 L-17.5359,-78.613 L-18.0289,-80.8313 L-18.0289,-87.7327 L-19.2613,-93.6482 L-19.0148,-97.5918 Q-18.2754,-98.5777 -15.8106,-99.8101Q-16.0571,-101.289 -16.0571,-103.507Q-16.0571,-110.902 -8.41624,-110.902Q-6.19793,-110.902 -2.74724,-106.465L0.2105,-101.535 L-1.51485,-99.0707 L-5.95145,-96.3594 Q-4.22611,-94.6341 -4.22611,-84.5285L-5.21202,-81.8172 L-4.47259,-81.0778 L-5.21202,-76.6412 L-3.73315,-74.1764 L-4.22611,-68.0144 L-5.70498,-66.2891 L-5.21202,-62.0989 L-6.44441,-58.4018 L-5.21202,-58.1553 L-2.74724,-60.6201 L3.41472,-59.8806 L6.86541,-61.113 L10.8091,-60.6201 L10.3161,-63.0849 L11.302,-67.0285 L10.3161,-74.1764 L11.302,-77.8735 L11.302,-82.3102 L11.5485,-87.4862 L14.2598,-96.1129 L12.7809,-98.8242 L12.7809,-101.535 L13.2738,-105.479 L12.5344,-111.395 L14.9992,-113.12 L20.1752,-112.38 L23.6259,-109.176 L27.0766,-109.176 L26.0907,-104.74 L27.3231,-101.535 L27.8161,-94.8805 L25.8442,-91.9228 L26.0907,-87.9792 L24.8583,-86.5003 L27.0766,-80.8313 Q25.8442,-80.0919 23.8724,-78.613L27.0766,-70.2327 L22.64,-66.0426 Q23.3794,-65.0567 23.3794,-64.5637Q23.133,-63.5778 22.3935,-63.0849L31.0203,-64.8102 L41.6188,-66.0426 L46.5484,-63.8243 L49.2597,-63.8243 L55.9146,-62.3454 Q57.8864,-61.113 57.8864,-59.3877Q64.7878,-57.4159 64.7878,-52.4863Q64.7878,-50.7609 63.5554,-48.7891L63.8019,-50.268 L61.5836,-46.8173 L58.6258,-45.3384 Q54.1892,-43.1201 51.2315,-43.1201Q50.2456,-43.1201 45.809,-44.106Q45.0695,-44.8455 43.5907,-46.5708L41.1259,-45.3384 L38.9076,-48.7891 L34.7174,-48.2962 L31.2668,-48.5426 L29.0484,-46.5708 L24.6118,-48.7891 L24.3654,-48.2962 Q23.8724,-43.8596 23.8724,-41.1483Q23.8724,-38.1906 24.1189,-36.7117Q24.1189,-32.2751 23.133,-27.592L24.8583,-23.4019 L23.133,-18.4723 L22.8865,-15.5146 L23.133,-14.5287 L24.1189,-14.0357 L24.8583,-14.2822 Q26.0907,-14.5287 30.2808,-15.5146L33.978,-11.3244 Q34.2245,-12.3104 35.2104,-13.7892Q35.4569,-13.7892 35.7034,-14.0357Q35.7034,-14.0357 35.9498,-14.0357Q37.1822,-14.0357 37.9217,-12.0639L44.0836,-13.0498 L44.8231,-11.078 L47.2878,-11.078 L49.9991,-9.35261 L53.4498,-10.092 L56.9005,-7.38079 L64.2948,-6.39488 L65.2807,-3.19066 L70.4568,2.97129 Z M12.0415,-38.437 L11.0555,-44.599 L11.5485,-46.8173 L7.35837,-46.8173 L3.90767,-46.0779 L-0.528935,-44.3525 L-4.96554,-45.092 L-5.95145,-44.599 L-5.4585,-40.4089 L-7.43032,-32.0286 L-5.4585,-20.1977 L-5.95145,-18.7188 L-2.25428,-18.4723 L3.16824,-17.7329 L5.14006,-17.2399 L7.11189,-17.7329 L11.302,-15.761 L11.302,-17.7329 L11.5485,-23.8948 L11.302,-29.0709 Z M51.7244,6.91495 L47.2878,5.1896 L42.8512,5.1896 L39.8935,1.98538 L33.2386,1.98538 L32.0062,0.506513 L27.8161,0.999469 L23.133,-0.972356 L24.1189,7.90086 Q21.6541,8.64029 21.6541,9.62621Q21.6541,9.87268 22.0238,10.4889Q22.3935,11.1051 22.3935,11.598L22.64,14.0628 L22.8865,14.8022 Q26.5837,14.0628 26.0907,14.0628Q26.5837,13.8163 31.2668,13.0769Q31.2668,13.0769 32.9921,13.3234Q36.4428,10.1192 41.6188,10.1192L42.8512,10.1192 Q42.8512,10.1192 51.7244,6.91495Z M-18.7683,-39.9159 L-18.7683,-40.4089 L-20.2472,-40.4089 Q-24.6838,-38.437 -27.3951,-38.437L-29.3669,-36.7117 L-30.8458,-35.4793 Q-32.5711,-34.4934 -36.0218,-32.768L-38.4866,-31.2892 L-42.1837,-27.099 L-41.1978,-26.8526 L-42.6767,-26.1131 L-35.7753,-25.6202 L-34.5429,-24.6343 Q-30.5993,-23.6483 -28.381,-21.923L-23.2049,-20.6906 L-19.5078,-21.6765 L-19.7542,-29.3173 L-19.2613,-29.8103 L-20.2472,-31.5357 Z M11.5485,0.752991 L11.302,-1.95827 L6.12598,-1.46531 L5.38654,-2.20475 L0.2105,-1.95827 Q-0.528935,-1.95827 -4.96554,-2.94418L-6.69089,-3.93009 L-8.41624,3.21777 L-7.43032,8.88677 L-8.66271,16.2811 L-9.15567,19.7318 L-8.90919,22.4431 L-5.21202,21.2107 L-0.282457,21.4572 L2.92176,19.7318 L5.14006,19.2389 L9.57667,18.9924 L10.8091,18.4994 L10.8091,17.76 L9.82315,17.0206 L10.3161,12.8304 L9.33019,8.39381 L11.302,5.1896 Z" fill="#a4413e" />
		<path d="M-64.0651,109.943 L-128.73,-1.29193 L-64.0651,-113.12 L64.374,-113.12 L128.742,-1.29193 L64.374,109.943 Z" fill-opacity="0" stroke-width="18" stroke="#a4413e" />
	</g>
</svg>