<?xml version="1.0" encoding="utf-8" ?>
<svg version="1.1" xmlns="http://www.w3.org/2000/svg" xmlns:xlink="http://www.w3.org/1999/xlink" width="300" height="168.75" viewBox="0 0 300 168.75">
	<g transform="matrix(1,0,0,1,150,84.375)">
		<path d="M-74.6631,24.4721 L-74.6631,24.4721 C-80.4475,31.9324 -91.1389,33.2853 -98.5992,27.5009 L-98.5992,27.5009 L-121.07,10.0782 L-128.039,19.0665 L-105.568,36.4892 L-105.568,36.4892 C-93.1644,46.1066 -75.2921,43.845 -65.6748,31.4412 L-65.6748,31.4412 L-48.2521,8.9704 L-57.2404,2.00132 L-74.6631,24.4721 Z" fill="#c42801" stroke="#000" />
		<path d="M-128.634,19.9864 L-130.832,0.36411 L-32.7203,-10.6247 L-30.5225,8.99759 Z" fill="#000" />
		<path d="M-27.8511,33.1127 L-37.556,34.0787 L-44.0102,-30.764 L-34.3053,-31.73 L-27.8511,33.1127 Z" fill="#000" />
		<path d="M-35.7795,5.81767 L123.531,-16.788 L-37.1322,-7.94417 Z" fill="#c42801" stroke="#000" />
	</g>
</svg>