<svg xmlns="http://www.w3.org/2000/svg" xmlns:xlink="http://www.w3.org/1999/xlink" version="1.1" width="300" height="300" viewBox="0 0 300 300">
  <g transform="matrix(1,0,0,1,150,150)">
    <path d="M112.883,-0.675004 C113.256,61.6686 63.0186,112.51 0.675004,112.883 C-61.6686,113.256 -112.51,63.0186 -112.883,0.675004 C-113.256,-61.6686 -63.0186,-112.51 -0.675004,-112.883 C61.6686,-113.256 112.51,-63.0186 112.883,-0.675004 Z" stroke-width="20" stroke="#333" fill="#444" />
    <path d="m 48.966747,-49.041991 c -12.664462,-12.806439 -30.253932,-20.68729 -49.67269806,-20.68729 -38.83756094,0 -70.21721694,31.523493 -70.21721694,70.36487422 0,38.84138078 31.379656,70.36487478 70.21721694,70.36487478 32.78674906,0 60.22632606,-22.375998 67.96568906,-52.773656 H 48.966747 C 41.790201,38.773384 22.230691,53.409249 -0.70595106,53.409249 -29.834109,53.409249 -53.474402,29.766697 -53.474402,0.63559322 c 0,-29.13110322 23.640293,-52.77365622 52.76845094,-52.77365622 14.63446206,0 27.58033206,6.051334 37.14894006,15.620984 L 8.0184287,-8.0896479 H 69.651981 V -69.729281 Z" fill="#f11" />
  </g>
</svg>
