<?xml version="1.0" encoding="utf-8" ?>
<svg version="1.1" xmlns="http://www.w3.org/2000/svg" xmlns:xlink="http://www.w3.org/1999/xlink" width="300" height="168.75" viewBox="0 0 300 168.75">
	<g transform="matrix(1,0,0,1,150,84.375)">
		<path d="M-1.00382,24.0705 C-17.8269,25.0103 -40.2124,13.678 -55.2644,1.14712e-06 L-57.611,3.18797 L-57.4564,37.4279 L-49.0531,42.0342 L-47.7095,53.3918 L-37.4116,53.5343 L-26.8073,60.1235 L-3.99548,50.3454 L18.9877,56.8316 L40.8757,31.6256 L46.3738,24.8081 L27.2554,36.1996 L-0.577569,24.7859 L-1.00382,24.0705 Z" fill="#bc6e41" />
		<path d="M-1.8193e-06,25.0305 L-26.4782,-19.4083 L-23.2076,-49.218 L-6.12149,-59.3985 C-31.4455,-62.8061 -65.9578,-46.7897 -70.3782,-29.3359 C-75.536,-8.97052 -29.3201,26.6685 -1.8193e-06,25.0305 Z" fill="#555" />
		<path d="M68.4755,-35.6128 L66.6151,13.2963 L27.1051,36.8377 L-0.727821,25.4241 L-27.6323,-19.7302 L-24.3617,-49.5399 L15.1483,-73.0813 L59.0469,-51.437 Z" fill="#b9503e" />
	</g>
</svg>