<?xml version="1.0" encoding="utf-8" ?>
<svg version="1.1" xmlns="http://www.w3.org/2000/svg" xmlns:xlink="http://www.w3.org/1999/xlink" width="300" height="168.75" viewBox="0 0 300 168.75">
	<g transform="matrix(1,0,0,1,150,84.375)">
		<path d="M-95.6141,20.405 L-93.2475,35.7974 C-91.9397,44.3037 -89.946,51.046 -88.791,50.8685 C-87.6359,50.6909 -87.7596,43.6611 -89.0674,35.1547 L-91.4339,19.7624 L-95.6141,20.405 Z M-98.4635,0.804032 L-94.2834,0.161355 L-96.6499,-15.231 C-97.9577,-23.7373 -99.9514,-30.4796 -101.106,-30.3021 C-102.262,-30.1245 -102.138,-23.0947 -100.83,-14.5883 L-98.4635,0.804032 Z" fill="#eee" stroke-width="2" stroke="#e00" />
		<path d="M-91.1598,14.2713 L-92.6494,4.58296 L70.2012,-20.4547 C104.663,-25.7531 132.926,-27.8827 133.337,-25.2118 L133.337,-25.2118 C133.748,-22.541 106.153,-16.0648 71.6908,-10.7663 L-91.1598,14.2713 Z" fill="#fff" stroke-width="2" stroke="#e00" stroke-linecap="round" stroke-linejoin="round" />
		<path d="M-97.203,16.7576 L-96.1925,23.3306 C-96.1566,23.5639 -94.7032,23.5299 -92.9509,23.2605 C-91.1985,22.991 -89.802,22.5869 -89.8379,22.3536 L-90.8918,15.4991 C-90.8978,15.4596 -90.9151,15.4226 -90.9428,15.3881 L-91.0077,14.9664 C-90.5576,14.9281 -90.0637,14.8693 -89.5476,14.79 C-87.5335,14.4803 -85.9347,13.9739 -85.9841,13.653 L-87.4337,4.22418 C-87.5273,3.61551 -89.24,3.38039 -91.2542,3.69006 C-91.699,3.75845 -92.1218,3.84776 -92.5097,3.95199 L-92.5097,3.95199 L-93.5341,-2.71123 C-93.57,-2.94454 -95.0234,-2.9105 -96.7757,-2.64109 C-98.528,-2.37168 -99.9245,-1.96755 -99.8887,-1.73424 L-98.9856,4.13972 L-111.279,6.02979 L-111.275,6.05244 L-113.014,7.51971 L-139.287,11.5591 L-137.793,21.2772 L-112.329,17.3623 L-112.329,17.3623 L-109.343,18.624 L-97.203,16.7576 Z" fill="#000" />
	</g>
</svg>