<?xml version="1.0" encoding="utf-8" ?>
<svg version="1.1" xmlns="http://www.w3.org/2000/svg" xmlns:xlink="http://www.w3.org/1999/xlink" width="300" height="168.75" viewBox="0 0 300 168.75">
	<g transform="matrix(1,0,0,1,150,84.375)">
		<path d="M-139.46,14.7123 L-135.202,27.799 L-69.5418,6.43876 L-73.7991,-6.64795 L-139.46,14.7123 Z" fill="#532" />
		<path d="M66.742,-30.9076 C87.0326,-29.637 133.702,-12.3608 133.702,-12.3608 C133.702,-12.3608 99.3837,-37.5904 75.4221,-41.0955 C51.4604,-44.6006 -69.4426,-8.41293 -74.116,-5.13037 C-80.7368,-0.480062 -73.7704,6.05804 -66.747,4.61437 C-52.4776,1.81142 45.4779,-31.4943 66.742,-30.9076 Z" fill="#ccc" />
		<path d="M-73.12,14.102 L-64.9705,11.4508 L-72.826,-12.6966 L-80.9754,-10.0454 L-73.12,14.102 L-73.12,14.102 Z" fill="#532" />
	</g>
</svg>