<?xml version="1.0" encoding="utf-8" ?>
<svg version="1.1" xmlns="http://www.w3.org/2000/svg" xmlns:xlink="http://www.w3.org/1999/xlink" width="300" height="168.75" viewBox="0 0 300 168.75">
	<g transform="matrix(1,0,0,1,150,84.375)">
		<path d="M-19.3761,36.5083 C-13.7246,38.836 -5.7257,40.5194 3.15504,41.0197 C6.44562,41.205 11.9543,41.0811 11.9543,41.0811 L130.818,37.3543 L13.1247,20.3029 C10.386,20.0866 7.46803,19.7982 4.36026,19.6231 C0.999959,19.4339 -2.23224,19.4256 -5.26647,19.5764 L-50.2081,-3.89453 C-63.5059,-10.8394 -69.5733,-26.1 -65.3524,-39.933 L-65.3524,-39.933 C-61.8128,-38.4405 -57.849,-37.0881 -53.619,-35.9733 C-50.432,-35.1334 -45.0099,-34.1529 -45.0099,-34.1529 L72.1966,-14.0261 L-39.7065,-54.2769 C-42.3466,-55.0367 -45.1479,-55.903 -48.1578,-56.6962 C-65.3322,-61.2222 -80.0195,-60.0967 -81.519,-54.4069 C-81.5467,-54.3017 -81.5698,-54.1958 -81.5883,-54.0891 C-94.1752,-29.2147 -84.4457,1.2645 -59.6621,14.2078 L-31.5543,28.8872 L-45.4631,51.2259 L-33.2675,58.8192 L-19.3761,36.5083 Z" fill="#000" stroke-width="4" stroke="#f25" />
		<path d="M-60.6418,58.2848 C-57.4727,63.1197 -44.7617,66.6375 -29.7246,66.6375 C-26.4288,66.6375 -20.9358,66.2039 -20.9358,66.2039 L97.53,55.7984 L-20.9358,45.3929 C-23.6823,45.3309 -26.6119,45.207 -29.7246,45.207 C-33.4845,45.207 -37.0721,45.4236 -40.3918,45.8207 L-85.129,22.4566 C-98.0029,15.7331 -104.1,1.21563 -100.646,-12.2549 L-100.646,-12.2549 C-97.2486,-10.854 -93.4776,-9.58352 -89.4674,-8.52668 C-86.2804,-7.6868 -80.8582,-6.70627 -80.8582,-6.70627 L36.3482,13.4205 L-75.5549,-26.8303 C-78.195,-27.5901 -80.9963,-28.4564 -84.0062,-29.2496 C-101.181,-33.7756 -115.868,-32.6501 -117.367,-26.9603 C-117.475,-26.5521 -117.513,-26.1322 -117.484,-25.7026 C-128.557,-1.22351 -118.695,27.9665 -94.583,40.5589 L-60.6418,58.2848 Z" fill="#000" stroke-width="4" stroke="#f25" />
	</g>
</svg>