<svg xmlns="http://www.w3.org/2000/svg" width="300" height="168.8" viewBox="0 0 300 168.75"><g stroke-width="4" stroke="#f25"><path d="M130.6 121c5.7 2.2 13.7 4 22.6 4.4 3.2.2 8.8 0 8.8 0l118.8-3.7-117.7-17-8.6-.7c-3.4-.2-6.6-.2-9.7 0l-45-23.5c-13.2-7-19.3-22.2-15-36 3.5 1.4 7.5 2.8 11.7 4L105 50l117.2 20-112-40c-2.5-1-5.3-1.7-8.4-2.5-17-4.5-31.8-3.4-33.3 2.3v.3c-12.7 25-3 55.3 21.8 68.3l28 14.7-13.8 22.3 12.2 7.6 14-22.3z"/><path d="M89.4 142.7c3 4.8 15.8 8.3 31 8.3 3.2 0 8.7-.4 8.7-.4l118.5-10.4L129 129.8l-8.7-.2c-3.8 0-7.4.2-10.7.6L65 106.8C52 100 46 85.6 49.3 72c3.4 1.5 7 2.8 11 3.8 3.3 1 8.7 2 8.7 2l117.3 20-112-40.3L66 55c-17.2-4.4-32-3.3-33.4 2.4v1.3c-11.2 24.5-1.3 53.6 22.8 66.2l34 17.7z"/></g></svg>
