<?xml version="1.0" encoding="utf-8" ?>
<svg version="1.1" xmlns="http://www.w3.org/2000/svg" xmlns:xlink="http://www.w3.org/1999/xlink" width="300" height="168.75" viewBox="0 0 300 168.75">
	<g transform="matrix(1,0,0,1,150,84.375)">
		<path d="M-24.5553,52.0624 C-37.4127,35.5449 -46.3759,11.3558 -44.5454,8.93481 C-37.843,20.9869 -23.1959,16.1937 -22.0157,0.163522 C-19.981,-27.012 -3.01424,-34.8433 19.8874,-37.2605 C34.6967,-38.9399 43.1754,-46.3174 39.2327,-63.305 C52.1838,-47.6887 40.0666,-30.4268 25.1222,-23.357 C12.4054,-17.2701 0.170099,-17.5701 -0.260832,-8.74901 C-1.03515,3.37626 8.73618,5.18116 13.1247,12.6206 C17.8939,21.0712 13.344,35.0509 1.72742,36.3941 L1.72742,36.3941 C2.01143,35.9986 5.9487,24.9915 -0.585455,20.6689 C-5.41098,17.4348 -11.8899,19.0083 -15.124,23.8338 C-17.3797,27.4251 -17.6725,33.1635 -15.8656,36.8126 C-12.8066,43.0208 -9.26138,46.3041 -2.82545,48.066 C15.5812,53.258 30.3317,31.1082 22.6714,11.9125 C18.659,2.02236 21.56,-3.68793 29.9231,-2.94025 C25.2663,13.8217 42.4448,22.6511 31.9932,44.3368 C24.2686,60.2334 10.7576,63.4444 0.0242305,63.3005 C-11.4839,63.0154 -19.4099,58.0624 -24.5553,52.0624 Z" fill="#6cf" stroke-width="4" stroke="#7912fe" />
	</g>
</svg>