<?xml version="1.0" encoding="utf-8" ?>
<svg version="1.1" xmlns="http://www.w3.org/2000/svg" xmlns:xlink="http://www.w3.org/1999/xlink" width="300" height="168.75" viewBox="0 0 300 168.75">
	<g transform="matrix(1,0,0,1,150,84.375)">
		<path d="M40.1794,-11.5416 L28.3796,-15.7227 L47.3215,-24.0398 L9.53356,-19.9209 L82.9436,-42.901 L67.0068,-43.7571 L106.099,-64.5729 L57.4289,-54.7605 L64.7725,-63.7768 L-4.87798,-36.4775 L20.6467,-54.685 L-0.443526,-48.8359 L0.389367,-60.1332 L-41.3676,-42.0072 L-54.3415,-41.6873 L-95.6812,-10.085 L-120.104,-2.86633 L-101.208,5.47472 L-99.4562,4.90832 L-97.4549,14.0206 L-96.75,23.3235 L-98.5905,23.285 L-114.289,36.7099 L-88.821,36.5968 L-40.1373,54.9697 L-27.6198,51.5435 L17.5865,56.8898 L13.5386,46.3098 L35.42,45.8439 L5.73618,35.7496 L80.2959,41.8564 L70.6688,35.3341 L120.104,30.7293 L76.6761,22.0404 L91.6929,16.6355 L14.7752,15.7468 L52.1505,8.82011 L31.6166,6.30417 L41.8621,-1.20288 L103.511,-15.5488 L40.1794,-11.5416 Z M-97.8574,4.39134 L-4.85448,-25.6817 L-87.3015,5.41975 L-97.8574,4.39134 L-97.8574,4.39134 Z M-95.0701,23.3586 L-85.2563,19.3368 L2.65276,25.4035 L-95.0701,23.3586 L-95.0701,23.3586 Z" fill="#000" />
	</g>
</svg>