<svg xmlns="http://www.w3.org/2000/svg" version="1.0" width="300" height="168.75" viewBox="0 0 7640 3810">
<g id="layer1">
 <path d="M1125 3786 c-300 -49 -567 -210 -767 -461 -241 -303 -348 -626 -335 -1010 8 -220 51 -425 122 -582 37 -80 125 -211 172 -254 56 -53 148 -110 203 -126 62 -18 186 -21 201 -6 7 7 -2 11 -31 11 -130 2 -233 72 -333 225 -102 156 -142 310 -154 597 -18 458 118 822 431 1147 90 95 183 167 271 211 165 82 320 114 451 92 43 -7 103 -13 133 -14 47 -1 56 2 73 25 25 33 17 83 -17 105 -66 43 -278 64 -420 40z"/>
 <path d="M2583 3756 c-46 -12 -103 -39 -103 -51 0 -2 19 3 43 12 28 10 77 15 147 16 97 0 112 -3 205 -37 55 -21 164 -71 243 -112 98 -52 139 -69 131 -55 -30 47 -299 201 -395 225 -73 19 -198 19 -271 2z"/>
 <path d="M2386 3679 c-34 -27 -142 -191 -226 -343 -64 -116 -65 -117 -95 -111 -61 15 -166 14 -218 -1 -192 -56 -503 -320 -659 -559 -100 -154 -175 -380 -199 -604 -29 -274 34 -490 181 -616 13 -11 1 8 -27 42 -97 122 -123 209 -124 411 0 151 21 280 73 442 50 155 91 243 161 343 125 179 372 410 522 489 73 39 87 42 170 46 51 2 102 -1 118 -7 l28 -11 -53 -102 c-50 -97 -57 -105 -118 -145 -199 -127 -358 -271 -479 -433 -150 -202 -232 -459 -230 -724 1 -166 15 -173 22 -11 12 273 91 512 232 704 63 85 194 220 285 294 85 68 179 131 186 124 3 -3 -8 -31 -24 -63 -136 -269 -368 -907 -473 -1299 -22 -82 -43 -157 -46 -165 -3 -8 -7 -24 -9 -35 -1 -11 -14 -76 -28 -145 -41 -205 -59 -421 -36 -435 6 -3 10 0 10 7 0 7 11 -9 25 -36 13 -27 43 -69 67 -93 199 -204 508 -306 972 -321 221 -8 263 -1 253 39 -4 15 11 50 46 110 28 48 53 86 55 84 2 -2 -4 -31 -14 -64 -9 -34 -14 -64 -11 -68 10 -9 47 81 106 254 73 215 87 247 109 238 9 -3 141 -46 293 -95 349 -112 611 -187 1214 -345 1098 -289 1452 -362 2125 -440 l115 -13 60 36 c33 20 94 59 135 87 70 49 110 73 336 206 50 30 161 90 247 134 100 51 156 85 156 95 0 10 -2 11 -6 3 -2 -7 -11 -13 -18 -13 -19 0 -203 -79 -360 -154 -128 -61 -267 -142 -315 -183 -29 -25 -177 -144 -195 -157 -9 -7 -26 2 -55 27 -74 63 -347 170 -705 277 -204 60 -1002 261 -1490 375 -421 98 -846 203 -1245 306 -598 154 -878 215 -1038 226 -51 3 -94 9 -97 12 -11 19 98 253 207 441 30 52 72 127 93 165 75 138 157 276 164 273 3 -2 53 -29 111 -60 249 -134 761 -308 1435 -487 452 -120 857 -197 1234 -236 219 -23 277 -8 216 55 -47 49 -440 193 -735 268 -85 22 -208 54 -272 71 -122 33 -240 61 -473 112 -77 17 -167 37 -200 44 -33 7 -134 29 -225 49 -91 19 -244 53 -340 75 -207 46 -506 106 -605 121 -103 15 -125 21 -125 30 0 5 22 47 49 92 112 191 246 482 286 623 10 33 20 63 24 67 3 4 33 -13 66 -38 349 -263 1246 -633 2181 -899 332 -95 871 -203 1242 -249 237 -30 566 -58 586 -50 25 10 30 44 10 65 -68 66 -647 242 -1219 370 -121 27 -582 146 -875 226 -372 101 -1602 487 -1632 512 -4 4 6 72 23 151 16 80 41 201 55 270 14 69 32 151 41 183 9 32 13 60 10 64 -7 7 -47 -81 -47 -104 0 -12 -8 -14 -37 -9 l-38 6 28 -15 c32 -19 33 -21 6 -132 -29 -124 -59 -300 -59 -350 0 -23 -4 -45 -10 -48 -5 -3 -52 8 -104 24 -52 17 -123 34 -158 38 -58 8 -63 10 -61 31 5 41 -15 64 -50 60 -29 -3 -36 -10 -66 -73 -46 -95 -152 -290 -284 -525 -255 -451 -305 -548 -378 -727 -62 -154 -109 -350 -109 -454 0 -31 -4 -38 -25 -43 -35 -9 -31 -19 13 -38 216 -93 475 -192 677 -260 83 -28 154 -54 158 -58 5 -4 -6 -45 -25 -91 -30 -76 -36 -84 -61 -85 -15 -1 -34 -10 -42 -20 -25 -31 -93 -175 -124 -260 -22 -59 -34 -80 -49 -82 -18 -3 -515 75 -637 100 -107 21 -363 101 -418 130 -83 45 -164 125 -173 173 -8 43 -18 9 149 490 174 498 209 588 431 1099 31 72 79 186 107 255 28 70 56 140 63 156 7 17 30 75 51 130 21 55 44 106 51 114 6 7 58 26 115 42 56 16 105 31 107 34 13 13 -11 11 -101 -9 -53 -13 -99 -21 -102 -18 -2 2 7 30 21 61 14 31 59 148 100 261 41 113 78 212 81 220 7 18 4 52 -6 63 -4 4 -20 -2 -35 -14z"/>
 <path d="M1197 3384 c-180 -39 -273 -92 -422 -239 -198 -195 -318 -415 -360 -659 -54 -317 56 -748 216 -840 l33 -20 -37 45 c-46 57 -81 133 -108 235 -18 67 -21 109 -22 274 -1 263 25 385 119 573 92 184 271 394 414 486 102 66 175 86 315 86 176 0 180 -5 58 -69 -136 -71 -250 -156 -354 -263 -106 -109 -166 -193 -224 -316 -92 -193 -116 -368 -97 -704 19 -330 30 -332 31 -8 1 306 11 416 47 545 84 296 348 597 662 754 86 43 118 53 227 70 l90 15 -82 -4 c-44 -3 -93 -9 -108 -15 -42 -16 -64 -13 -58 8 7 28 -16 41 -93 52 -93 13 -165 11 -247 -6z"/>
 <path d="M7103 1693 c11 -12 17 -36 17 -64 0 -51 37 -135 143 -321 78 -138 156 -292 226 -448 67 -148 124 -260 134 -260 33 0 -48 321 -139 552 -60 152 -180 416 -219 484 -29 49 -72 72 -105 54 -17 -9 -27 -8 -48 6 -27 17 -27 17 -9 -3z"/>
 
 
 </g>
<g xmlns="http://www.w3.org/2000/svg" id="layer2" fill="#fff">
 
 <path d="M2619 3780 c-62 -11 -147 -48 -164 -74 -8 -11 -15 -15 -15 -8 0 20 -37 13 -69 -14 -39 -32 -140 -186 -222 -335 l-64 -115 -30 8 c-45 13 -154 12 -205 -2 -198 -53 -529 -332 -685 -576 -133 -207 -221 -573 -195 -807 6 -51 13 -107 17 -126 9 -52 51 -149 84 -198 68 -99 169 -164 169 -108 0 7 -11 16 -24 19 -33 8 -100 91 -136 167 -109 235 -21 754 177 1046 133 196 390 439 539 510 76 36 171 51 236 36 l36 -8 -45 -90 c-45 -91 -68 -125 -85 -125 -26 0 -218 -140 -302 -221 -250 -239 -370 -446 -422 -729 -23 -124 -24 -330 -1 -421 30 -123 82 -213 141 -246 19 -10 19 -13 3 -84 -41 -178 -72 -435 -61 -496 4 -22 13 -37 25 -40 10 -3 21 -14 24 -24 17 -51 157 -179 266 -243 91 -52 275 -111 444 -141 117 -20 463 -40 538 -31 45 6 61 13 73 32 12 17 13 28 6 37 -8 9 -5 22 11 47 l22 35 3 -33 c2 -18 9 -32 17 -32 15 0 50 86 134 329 33 95 62 175 65 178 2 2 64 -16 137 -40 74 -25 181 -59 239 -76 58 -17 112 -35 120 -40 9 -5 31 -12 50 -16 38 -8 102 -27 190 -55 30 -10 71 -22 90 -25 19 -4 41 -11 50 -16 8 -4 35 -13 60 -18 25 -6 71 -17 102 -26 122 -33 175 -47 228 -60 30 -7 98 -25 150 -40 52 -14 120 -32 150 -40 30 -7 98 -25 150 -40 89 -24 124 -34 268 -69 31 -8 75 -20 97 -26 95 -27 386 -94 515 -120 25 -4 65 -14 90 -20 63 -16 409 -79 500 -90 41 -6 102 -14 135 -19 33 -4 119 -16 190 -25 72 -9 156 -20 188 -24 56 -8 61 -7 125 31 37 21 103 62 147 91 132 86 194 126 199 126 3 0 44 24 93 54 86 52 148 86 348 192 l100 53 -1 88 c-1 126 -67 352 -185 638 -77 185 -186 402 -210 419 -27 19 -80 21 -96 5 -9 -9 -21 -4 -50 20 -32 26 -37 36 -35 65 3 31 -1 38 -35 60 -21 13 -78 38 -128 55 -49 17 -99 35 -110 40 -25 11 -123 44 -195 66 -140 42 -205 61 -340 95 -41 10 -102 26 -135 35 -33 9 -98 25 -145 35 -47 10 -114 26 -150 35 -36 9 -103 24 -150 35 -47 10 -101 24 -120 30 -19 7 -62 18 -95 26 -33 8 -87 22 -120 30 -33 8 -85 21 -115 29 -30 7 -71 19 -90 25 -19 6 -60 18 -90 25 -114 28 -218 56 -300 81 -47 14 -119 36 -160 49 -41 12 -109 32 -150 44 -41 12 -100 30 -130 40 -30 10 -77 25 -105 34 -186 55 -755 240 -790 256 -11 5 -37 15 -58 21 -38 12 -38 12 -31 53 3 23 17 89 31 147 13 58 35 164 48 235 14 72 32 152 40 179 19 63 19 66 -6 66 -19 0 -29 -16 -60 -97 -8 -22 -8 -22 -56 -5 -26 10 -60 29 -75 43 -32 30 -202 137 -273 172 -102 50 -227 67 -346 47z m235 -26 c96 -24 365 -178 395 -225 8 -14 -33 3 -131 55 -79 41 -188 91 -243 112 -93 34 -108 37 -205 37 -70 -1 -119 -6 -147 -16 -49 -18 -55 -15 -17 9 64 42 238 56 348 28z m-423 -89 c1 -11 -1 -27 -4 -35 -3 -8 -40 -107 -81 -220 -41 -113 -86 -230 -100 -261 -14 -31 -23 -59 -21 -61 3 -3 49 5 102 18 90 20 114 22 101 9 -2 -3 -51 -18 -107 -34 -57 -16 -109 -35 -115 -42 -7 -8 -30 -59 -51 -114 -21 -55 -44 -113 -51 -130 -7 -16 -35 -86 -63 -156 -28 -69 -76 -183 -107 -255 -222 -511 -257 -601 -431 -1099 -167 -481 -157 -447 -149 -490 9 -48 90 -128 173 -173 55 -29 311 -109 418 -130 122 -25 619 -103 637 -100 15 2 27 23 49 82 31 85 99 229 124 260 8 10 27 19 42 20 25 1 31 9 61 85 19 46 30 87 25 91 -4 4 -75 30 -158 58 -202 68 -461 167 -677 260 -44 19 -48 29 -13 38 21 5 25 12 25 43 0 104 47 300 109 454 73 179 123 276 378 727 132 235 238 430 284 525 30 63 37 70 66 73 35 4 55 -19 50 -60 -2 -21 3 -23 61 -31 35 -4 106 -21 158 -38 52 -16 99 -27 104 -24 6 3 10 25 10 48 0 50 30 226 59 350 27 111 26 113 -6 132 l-28 15 38 -6 c29 -5 37 -3 37 9 0 23 40 111 47 104 3 -4 -1 -32 -10 -64 -9 -32 -27 -114 -41 -183 -14 -69 -39 -190 -55 -270 -17 -79 -27 -147 -23 -151 30 -25 1260 -411 1632 -512 293 -80 754 -199 875 -226 572 -128 1151 -304 1219 -370 20 -21 15 -55 -10 -65 -42 -16 -660 52 -980 109 -477 85 -848 180 -1394 357 -181 59 -687 248 -879 330 -294 125 -612 293 -756 402 -33 25 -63 42 -66 38 -4 -4 -14 -34 -24 -67 -40 -141 -174 -432 -286 -623 -27 -45 -49 -87 -49 -92 0 -9 22 -15 125 -30 99 -15 398 -75 605 -121 96 -22 249 -56 340 -75 91 -20 192 -42 225 -49 33 -7 123 -27 200 -44 233 -51 351 -79 473 -112 64 -17 187 -49 272 -71 295 -75 688 -219 735 -268 61 -63 3 -78 -216 -55 -377 39 -782 116 -1234 236 -674 179 -1186 353 -1435 487 -58 31 -108 58 -111 60 -7 3 -89 -135 -164 -273 -21 -38 -63 -113 -93 -165 -109 -188 -218 -422 -207 -441 3 -3 46 -9 97 -12 160 -11 440 -72 1038 -226 399 -103 824 -208 1245 -306 488 -114 1286 -315 1490 -375 358 -107 631 -214 705 -277 29 -25 46 -34 55 -27 18 13 166 132 195 157 48 41 187 122 315 183 157 75 341 154 360 154 7 0 16 6 18 13 4 8 6 7 6 -3 0 -10 -56 -44 -156 -95 -86 -44 -197 -104 -247 -134 -226 -133 -266 -157 -336 -206 -41 -28 -102 -67 -135 -87 l-60 -36 -115 13 c-673 78 -1027 151 -2125 440 -603 158 -865 233 -1214 345 -152 49 -284 92 -293 95 -22 9 -36 -23 -109 -238 -59 -173 -96 -263 -106 -254 -3 4 2 34 11 68 10 33 16 62 14 64 -2 2 -27 -36 -55 -84 -35 -60 -50 -95 -46 -110 10 -40 -32 -47 -253 -39 -464 15 -773 117 -972 321 -24 24 -54 66 -67 93 -14 27 -25 43 -25 36 0 -7 -4 -10 -10 -7 -23 14 -5 230 36 435 14 69 27 134 28 145 2 11 6 27 9 35 3 8 24 83 46 165 105 392 337 1030 473 1299 16 32 27 60 24 63 -7 7 -101 -56 -186 -124 -91 -74 -222 -209 -285 -294 -141 -192 -220 -431 -232 -704 -7 -162 -21 -155 -22 11 -1 189 40 376 119 539 110 228 313 441 590 618 61 40 68 48 118 145 l53 102 -28 11 c-16 6 -67 9 -118 7 -83 -4 -97 -7 -170 -46 -150 -79 -397 -310 -522 -489 -70 -100 -111 -188 -161 -343 -52 -162 -73 -291 -73 -442 1 -202 27 -289 124 -411 28 -34 40 -53 27 -42 -147 126 -210 342 -181 616 24 224 99 450 199 604 156 239 467 503 659 559 52 15 157 16 218 1 30 -6 31 -5 95 111 84 152 192 316 226 343 29 23 41 19 45 -14z m4729 -1975 c33 18 76 -5 105 -54 39 -68 159 -332 219 -484 91 -231 172 -552 139 -552 -10 0 -67 112 -134 260 -70 156 -148 310 -226 448 -106 186 -143 270 -143 321 0 28 -6 52 -17 64 -18 20 -18 20 9 3 21 -14 31 -15 48 -6z m-5921 -77 c0 -25 -1 -26 -9 -8 -12 27 -12 35 0 35 6 0 10 -12 9 -27z m19 -78 c-3 -3 -9 2 -12 12 -6 14 -5 15 5 6 7 -7 10 -15 7 -18z"/>
 
 </g>

</svg>