<?xml version="1.0" encoding="utf-8" ?>
<svg version="1.1" xmlns="http://www.w3.org/2000/svg" xmlns:xlink="http://www.w3.org/1999/xlink" width="300" height="168.75" viewBox="0 0 300 168.75">
	<g transform="matrix(1,0,0,1,150,84.375)">
		<path d="M-17.4186,-20.2512 L-16.5119,-22.9718 C-32.6088,-26.9977 -68.7891,-34.9278 -91.8095,-36.4627 C-91.8095,-36.4627 -56.6621,-30.1503 -43.3942,-27.0457 C-34.0382,-24.8581 -23.9673,-22.0161 -17.4186,-20.2512 Z" fill="#fff0dc" />
		<path d="M-0.681333,-1.39625 L-2.12891,1.11102 C2.65083,4.62771 13.5616,12.0026 23.0093,19.1745 C33.864,27.4118 61.1464,50.4522 61.1464,50.4522 C43.7467,32.0855 10.3301,6.43789 -0.681333,-1.39625 Z" fill="#fff0dc" />
		<path d="M-0.0659595,-6.99722 L-1.47215,-4.56162 C4.76834,-2.36359 13.0585,0.534457 20.6551,3.52754 C33.3338,8.52049 65.8326,23.3195 65.8326,23.3195 C47.4783,12.3563 16.7063,-0.51743 -0.0659595,-6.99722 Z" fill="#fff0dc" />
		<path d="M-15.7825,6.95869 L-18.2666,8.39287 C-15.4229,14.558 -11.048,23.7948 -7.40536,32.4616 C-2.12353,45.0226 9.98345,78.6173 9.98345,78.6173 C4.65372,56.3339 -9.06656,22.311 -15.7825,6.95869 Z" fill="#fff0dc" />
		<path d="M-3.59978,-30.2183 L-1.10998,-31.6558 C-14.0326,-43.9623 -39.1598,-66.5989 -57.1029,-78.6173 C-57.1029,-78.6173 -29.8206,-55.5769 -19.8825,-46.2543 C-14.1361,-40.8655 -8.1934,-34.8555 -3.59978,-30.2183 Z" fill="#fff0dc" />
		<path d="M13.8651,-33.2475 C13.8651,-33.2475 -6.61911,-37.5434 -15.0643,-29.1749 C-25.3159,-18.9733 -26.6871,-6.43901 -28.4849,4.35718 C-30.2022,14.4463 -29.2461,16.3732 -29.2461,16.3732 C-29.2461,16.3732 -10.7521,12.013 0.62451,-1.45806 C14.5056,-17.8948 13.8651,-33.2475 13.8651,-33.2475 Z" fill="#0b4" />
	</g>
</svg>