<?xml version="1.0" encoding="utf-8" ?>
<svg version="1.1" xmlns="http://www.w3.org/2000/svg" xmlns:xlink="http://www.w3.org/1999/xlink" width="300" height="168.75" viewBox="0 0 300 168.75">
	<g transform="matrix(1,0,0,1,150,84.375)">
		<path d="M-68.8691,1.71089 L-70.0875,-7.5062 L85.3209,-28.0495 L86.5393,-18.8324 L-68.8691,1.71089 Z" fill="#555" />
		<path d="M-131.085,-1.4521 L-128.915,14.2664 L-70.1887,6.16079 L-72.3582,-9.55768 L-131.085,-1.4521 L-131.085,-1.4521 Z" fill="#361e00" />
		<path d="M-66.4894,-3.76708 L-66.2299,-1.88701 L85.7789,-22.8676 L85.5194,-24.7476 L-66.4894,-3.76708 Z" fill="#000" />
		<path d="M-69.8049,11.5578 L-64.4132,10.6494 L-68.9711,-16.4028 L-74.3628,-15.4944 L-69.8049,11.5578 Z" fill="#fec304" />
		<path d="M85.3291,-27.9531 L82.0738,-19.2167 L115.165,-6.88635 L118.42,-15.6227 L85.3291,-27.9531 L85.3291,-27.9531 Z" fill="#555" />
		<path d="M83.8715,-24.5257 L83.2144,-22.7622 L116.489,-10.3635 L117.146,-12.127 L83.8715,-24.5257 Z" fill="#000" />
	</g>
</svg>