<svg xmlns="http://www.w3.org/2000/svg" onload="document.querySelector('svg').setAttribute('width','100%');document.querySelector('svg').setAttribute('height','100%')" width="1500px" height="1500px" viewBox="0 0 300 300"><path d="M37.65 42.47c36-27.73 95-36.27 155.87-12.15 78.56 30.9 120.02 100.83 98.28 163.82-21.74 63-75.85 67.25-108.86 52.67-42.58-18.84-45.36-77.46-118.96-88.5-42.95-6.56-56.95-27.66-59.02-56.85-1.17-17.7 9.43-41.2 32.7-58.98z" fill="#32e249" stroke-width="4.83" stroke="#ffefb4" stroke-linecap="square"/><path d="M115.95 55.85q-.54.8-1.34 1.54-.8.72-1.82 1.24-1.03.53-2.22.83-1.2.3-2.53.3-2.38 0-4.42-.84-2.03-.85-3.53-2.34-1.5-1.5-2.34-3.56-.85-2.06-.85-4.5 0-2.45.85-4.5.85-2.06 2.34-3.56 1.5-1.5 3.54-2.34 2.05-.84 4.43-.84 2 0 4 .78 2 .8 3.4 2.6l-1.9 1.42q-.33-.5-.9-1.03-.58-.5-1.32-.9-.73-.4-1.57-.64-.85-.24-1.7-.24-2.05 0-3.68.75-1.63.75-2.77 2.02-1.13 1.27-1.73 2.95-.6 1.67-.6 3.52 0 1.84.6 3.52.6 1.67 1.73 2.94 1.14 1.27 2.77 2.03 1.63.75 3.68.75.85 0 1.68-.15.84-.15 1.64-.5.8-.37 1.5-1 .72-.6 1.33-1.55zM131 52.16q0-1.18-.38-2.2-.38-1.03-1.07-1.8-.7-.74-1.68-1.18-.98-.44-2.22-.44-1.24 0-2.22.44-.98.44-1.66 1.2-.68.75-1.06 1.78-.37 1.02-.37 2.2 0 1.18.38 2.2.4 1.04 1.07 1.8.68.75 1.66 1.18.98.44 2.22.44 1.24 0 2.22-.44.98-.43 1.68-1.2.7-.74 1.07-1.77.38-1.03.38-2.2zm2.17 0q0 1.6-.56 2.96-.54 1.36-1.54 2.36-1 1-2.37 1.56-1.4.56-3.05.56-1.63 0-3-.56-1.38-.56-2.38-1.56t-1.55-2.36q-.56-1.36-.56-2.96 0-1.6.56-2.96.55-1.36 1.55-2.36 1-1 2.37-1.55 1.38-.57 3-.57 1.67 0 3.05.56 1.36.55 2.36 1.55 1 1 1.55 2.35.57 1.36.57 2.96zM137 49.5q0-.93-.03-1.9-.05-.97-.08-2.5h1.95v2.62h.06q.23-.57.62-1.1.4-.53.95-.95.56-.43 1.3-.68.74-.27 1.68-.27.84 0 1.48.18l-.4 1.98q-.4-.16-1.14-.16-1.16 0-1.98.44-.8.44-1.36 1.12-.54.68-.8 1.47-.25.78-.25 1.5v7.98h-2zM154.14 46.9h-4.08v8.34q0 .8.16 1.3.15.5.42.76.27.27.65.38.37.1.82.1.5 0 1.06-.15.54-.15 1-.4l.08 1.85q-1.1.52-2.7.52-.56 0-1.18-.16-.62-.15-1.13-.57-.52-.42-.85-1.15-.33-.72-.33-1.9v-8.9l-3-.02v-1.8h3v-4h2v4h4.07zM168.98 52.16q0-1.18-.38-2.2-.38-1.03-1.07-1.8-.7-.74-1.68-1.18-.98-.44-2.22-.44-1.24 0-2.22.44-.97.44-1.65 1.2-.68.75-1.06 1.78-.4 1.02-.4 2.2 0 1.18.4 2.2.37 1.04 1.05 1.8.68.75 1.66 1.18 1 .44 2.23.44 1.24 0 2.22-.44.98-.43 1.68-1.2.7-.74 1.07-1.77.38-1.03.38-2.2zm2.17 0q0 1.6-.55 2.96-.56 1.36-1.56 2.36-1 1-2.37 1.56-1.38.56-3.04.56-1.63 0-3-.56-1.38-.56-2.38-1.56t-1.55-2.36q-.56-1.36-.56-2.96 0-1.6.56-2.96.56-1.36 1.55-2.36 1-1 2.37-1.55 1.38-.57 3-.57 1.67 0 3.05.56 1.37.55 2.37 1.55t1.56 2.35q.55 1.36.55 2.96zM181.37 46.9H178v12.33h-1.98V46.9h-3v-1.8h3V41.2q0-2.8 1.3-4 1.3-1.2 3.44-1.2.43 0 .86.07.44.05.87.14l-.38 1.8q-.36-.08-.75-.14-.4-.06-.8-.06-.8 0-1.32.27-.5.28-.78.78t-.37 1.17q-.1.66-.1 1.42v3.62h3.37zM191.76 52.2q-.75 0-1.9.07-1.12.07-2.16.36-1.04.3-1.8.9-.73.6-.73 1.65 0 .7.3 1.2.28.5.76.8.5.33 1.07.47.6.13 1.2.13 1.1 0 1.9-.36.8-.36 1.33-.98.55-.62.8-1.45.26-.84.26-1.78V52.2zm1.03-1.64v-.36q0-3.66-3.64-3.66-2.47 0-4.32 1.66l-1.2-1.42q2-2.05 5.98-2.05 1.02 0 1.98.3.95.3 1.64.92.7.62 1.12 1.56.42.95.42 2.25v6.3q0 .83.08 1.72.07.9.16 1.46h-1.93q-.1-.5-.14-1.1-.05-.62-.05-1.2h-.05q-.88 1.43-2.07 2.05-1.2.62-2.92.62-.93 0-1.8-.26-.9-.26-1.57-.8-.7-.52-1.1-1.3-.4-.76-.4-1.78 0-1.73.9-2.7.88-1 2.23-1.47 1.34-.5 2.87-.62 1.52-.12 2.8-.12z" fill="#011534"/><path d="M198.83 454.72l-18.77.05-.63-211.4 18.77-.05.63 211.4z" fill="#fff92b"/><path d="M199.75 243.32l-9.92.03.03 10.2h-2.83l-.03-10.2-9.92.04.63 211.38 9.93-.03-.03-10.2h2.83l.03 10.2 9.92-.03-.63-211.4zm-12.63 40.28l-.06-19.3 2.83-.02.05 19.32h-2.83zm.1 30.05l-.07-19.3 2.83-.02.06 19.3-2.83.02zm.08 30.04l-.06-19.32h2.83l.06 19.3h-2.83zm.1 30.04l-.07-19.32h2.83l.06 19.3-2.83.02zm.08 30.04l-.06-19.3 2.83-.02.06 19.3-2.82.02zm.1 30.04l-.07-19.3 2.84-.02.06 19.3-2.83.02zM208.76 275.87h4.2l-2.1-5.1zm-1.45 3.45h-1.14l4.23-9.7h.95l4.23 9.7h-1.16l-1.07-2.55h-4.97zM221.93 274.4q-.23-.35-.65-.6-.42-.24-.95-.24-.57-.02-1 .18-.46.2-.77.53-.32.35-.5.82-.15.46-.15 1 0 .56.17 1.03.17.48.5.82.3.34.75.54.44.18 1 .16.54 0 .96-.24.42-.25.65-.6l.74.56q-.48.56-1.08.83-.62.27-1.27.3-.8 0-1.42-.25-.62-.26-1.07-.7-.44-.46-.67-1.1-.24-.6-.24-1.34 0-.72.24-1.34.23-.63.67-1.08.45-.45 1.08-.7.64-.26 1.43-.25.65.02 1.26.3.6.26 1.07.82zM225.87 270.43q0 .3-.2.47-.2.2-.46.2-.24 0-.44-.2-.2-.18-.2-.47 0-.3.2-.47.2-.2.45-.2.26 0 .46.2.2.18.2.47zm-.2 8.9h-.9v-6.43h.9zM231.86 273.72H230v3.8q0 .35.07.58.07.22.2.34.12.13.3.18.16.05.37.05.23 0 .48-.07.24-.07.45-.18l.04.84q-.5.23-1.2.23-.27 0-.55-.08-.3-.07-.52-.26-.23-.2-.38-.52-.15-.33-.15-.87v-4.05h-1.36v-.82h1.36v-1.8h.9v1.8h1.86zM238.42 279.32l-.04-.5v-.53h-.03q-.15.25-.4.47-.22.22-.5.38-.3.16-.62.25-.32.1-.64.1-1.24 0-1.83-.66-.6-.66-.6-1.86v-4.08h.9v3.55q0 .54.1.95.08.4.28.7.2.28.53.42.34.14.85.14l.38-.05q.33-.05.68-.3.35-.24.62-.73.27-.5.27-1.38v-3.3h.9v5q0 .27.03.67l.05.75zM245.5 274.42q-.2-.4-.55-.63-.34-.24-.84-.24-.22 0-.46.05-.24.07-.43.18-.2.12-.3.3-.12.18-.12.44 0 .45.32.66.3.2.94.35l.92.22q.68.16 1.12.62.45.46.45 1.14 0 .53-.22.9-.2.4-.55.63-.35.24-.8.35-.45.1-.92.1-.74 0-1.38-.27-.64-.27-1.1-.96l.8-.54q.27.44.68.7.42.27 1 .27.27 0 .55-.07.27-.06.5-.2.2-.12.33-.33.14-.2.14-.48 0-.5-.36-.7-.35-.2-.86-.34l-.88-.2q-.17-.04-.45-.14-.3-.1-.56-.3-.26-.18-.46-.5-.2-.3-.2-.75 0-.5.2-.86.2-.37.55-.6.33-.23.76-.35.4-.12.87-.12.67 0 1.25.27.57.26.9.9zM254.45 278.42h1.9q.53 0 1-.1.46-.12.8-.35.35-.23.55-.57.2-.34.2-.82 0-.96-.62-1.43t-1.8-.47h-2.03zm0-4.56h2q.34 0 .7-.1.34-.08.63-.28.28-.2.46-.53.17-.32.17-.8 0-.14-.05-.42-.06-.27-.27-.55-.22-.27-.63-.47-.4-.2-1.1-.2h-1.9zm-1-4.25h2.9q.6 0 1.17.13.56.12 1 .4.44.3.7.77.26.46.26 1.15 0 .8-.44 1.37-.45.56-1.27.76v.02q1.03.1 1.6.73.6.63.6 1.7 0 .24-.12.7-.12.44-.5.9-.36.43-1.06.76-.7.32-1.88.32h-2.96zM262.56 274.9l-.02-.86-.04-1.14h.9v1.2h.02q.1-.27.28-.5.18-.25.43-.44.25-.2.6-.3.33-.13.75-.13.4 0 .67.1l-.17.88q-.18-.06-.53-.06-.52 0-.9.2-.36.2-.6.5-.25.32-.37.67-.1.37-.1.7v3.62h-.92zM269.02 270.43q0 .3-.2.47-.2.2-.46.2-.24 0-.45-.2-.2-.18-.2-.47 0-.3.2-.47.22-.2.47-.2.24 0 .45.2.2.18.2.47zm-.2 8.9h-.9v-6.43h.9zM272.24 276.1q0 .55.17 1 .18.48.5.82.3.35.76.55.44.2 1 .2.55 0 1.03-.2.46-.2.8-.55.35-.34.54-.8.2-.47.2-1 0-.54-.2-1-.2-.48-.54-.82-.34-.34-.8-.54-.5-.2-1.03-.2-.57 0-1 .2-.46.2-.78.54t-.5.8q-.16.48-.16 1zm5.86 3.22h-.9v-1.07h-.04q-.22.33-.52.57-.3.23-.63.38-.32.15-.67.22-.35.07-.66.07-.76 0-1.4-.27-.6-.25-1.06-.7-.45-.46-.7-1.07-.25-.62-.25-1.35 0-.72.25-1.33.25-.62.7-1.07.46-.46 1.08-.7.63-.27 1.4-.27.3 0 .65.07.35.07.68.22.34.15.64.4.3.22.52.55h.03v-5.02h.9zM281.42 276.03q0 .5.18.95.2.45.5.8.33.32.77.52.43.2.94.2.5 0 .95-.18.44-.18.78-.5.35-.32.53-.78.2-.45.17-1 0-.52-.16-.96-.16-.45-.48-.8-.33-.32-.78-.52t-1-.2q-.52 0-.95.2-.44.2-.76.53-.3.33-.5.78-.18.44-.18.95zm-.17 4.58q.4.55 1.04.87.63.32 1.4.32.7 0 1.18-.2t.77-.55q.3-.34.43-.8t.13-.98v-1.15h-.02q-.44.65-1.07.93-.62.27-1.32.27-.7 0-1.3-.24-.62-.25-1.08-.68-.45-.44-.7-1.04-.27-.6-.27-1.3 0-.7.25-1.3.24-.6.68-1.06.43-.46 1.02-.7.6-.27 1.32-.27.28 0 .6.06.33.04.65.18.32.14.64.38.3.24.58.6h.03v-1.06h.9v6.37q0 .52-.12 1.1-.13.6-.5 1.1-.38.5-1.06.82-.67.32-1.75.32-.96 0-1.72-.32-.75-.3-1.37-.97zM294.83 275.62q0-.92-.55-1.5-.55-.56-1.54-.56-.44 0-.85.17-.42.17-.73.46-.3.28-.5.65-.18.37-.18.77zm-4.37.74q.04.48.24.9.2.43.5.74.32.3.73.5.4.16.9.16.72 0 1.25-.33.53-.34.8-.78l.7.58q-.57.73-1.27 1.04-.68.32-1.48.32-.7 0-1.32-.27-.6-.25-1.05-.7-.44-.46-.7-1.07-.25-.62-.25-1.35 0-.72.25-1.33.25-.62.68-1.07.44-.46 1.03-.7.6-.27 1.28-.27.73 0 1.3.27.58.26.97.7.4.42.6 1 .22.6.22 1.25v.4zM141.5 124.45q-.3.45-.76.85-.44.4-1 .7-.57.3-1.23.45-.65.17-1.38.17-1.32 0-2.45-.47-1.12-.46-1.95-1.3-.83-.82-1.3-1.95-.46-1.14-.46-2.5 0-1.34.47-2.47.46-1.14 1.3-1.96.82-.83 1.94-1.3 1.13-.46 2.45-.46 1.1 0 2.2.44t1.88 1.44l-1.05.78q-.18-.28-.5-.57-.32-.3-.72-.5-.4-.22-.88-.36-.47-.13-.93-.13-1.14 0-2.04.43-.9.4-1.53 1.1-.62.7-.96 1.64-.34.93-.34 1.94 0 1.03.33 1.96.33.92.95 1.62.63.7 1.53 1.12.9.42 2.04.42.46 0 .92-.1.46-.07.9-.27t.84-.54q.4-.33.72-.85zM144.7 115.5q0 .36-.24.58-.25.23-.55.23-.3 0-.55-.22-.25-.22-.25-.57 0-.34.25-.57.25-.22.56-.22.3 0 .56.23.25.23.25.58zm-.24 10.82h-1.1v-7.8h1.1zM151.14 119.5h-2.25v4.62q0 .43.08.7.08.28.23.43.16.15.37.2.2.07.46.07.28 0 .58-.1.3-.07.56-.2l.05 1.02q-.6.28-1.47.28-.32 0-.66-.08-.34-.1-.63-.32-.28-.23-.46-.64-.2-.4-.2-1.05v-4.92h-1.64v-1h1.65v-2.2h1.1v2.2h2.24zM157.08 122.43q-.4 0-1.04.04-.62.05-1.2.2-.58.16-.98.5-.4.33-.4.9 0 .4.15.67.16.28.43.45.27.17.6.24.32.08.65.08.6 0 1.04-.2.45-.2.75-.54.3-.35.44-.8.15-.46.15-.98v-.57zm.57-.9v-.2q0-2.02-2-2.02-1.37 0-2.4.93l-.65-.78q1.1-1.14 3.3-1.14.57 0 1.1.18.52.17.9.5.38.35.62.87.23.5.23 1.23v3.5q0 .44.04.93.04.5.1.82h-1.08q-.05-.28-.08-.62l-.02-.65h-.04q-.48.8-1.14 1.13-.66.34-1.6.34-.53 0-1-.14-.5-.14-.87-.44t-.6-.7q-.22-.44-.22-1 0-.96.5-1.5.48-.54 1.22-.8.74-.28 1.6-.34.83-.07 1.53-.07zM165.34 119.5h-2.25v4.62q0 .43.07.7.1.28.24.43.16.15.36.2.2.07.46.07.3 0 .6-.1.3-.07.54-.2l.05 1.02q-.6.28-1.48.28-.3 0-.66-.08-.34-.1-.62-.32-.3-.23-.47-.64-.18-.4-.18-1.05v-4.92h-1.66v-1H162v-2.2h1.1v2.2h2.24zM168.44 115.5q0 .36-.25.58-.26.23-.56.23-.3 0-.55-.22-.26-.22-.26-.57 0-.34.25-.57.24-.22.54-.22.3 0 .55.23.24.23.24.58zm-.25 10.82h-1.1v-7.8h1.1zM175.28 122.43q-.4 0-1.04.04-.63.05-1.2.2-.58.16-.98.5-.4.33-.4.9 0 .4.14.67.16.28.43.45.27.17.6.24.32.08.65.08.6 0 1.04-.2.45-.2.75-.54.3-.35.44-.8.15-.46.15-.98v-.57zm.57-.9v-.2q0-2.02-2-2.02-1.37 0-2.4.93l-.65-.78q1.1-1.14 3.3-1.14.57 0 1.1.18.52.17.9.5.38.35.62.87.23.5.23 1.23v3.5q0 .44.04.93.03.5.08.82h-1.06q-.05-.28-.08-.62l-.02-.65h-.04q-.48.8-1.14 1.13-.66.34-1.6.34-.53 0-1-.14-.5-.14-.87-.44t-.6-.7q-.22-.44-.22-1 0-.96.5-1.5.48-.54 1.22-.8.74-.28 1.6-.34.83-.07 1.53-.07zM180.55 118.5q.04.33.05.64v.62h.04q.18-.3.46-.58.3-.27.64-.46.35-.2.74-.3.4-.1.78-.1 1.5 0 2.22.78.7.8.7 2.26v4.96h-1.1V122q0-1.3-.44-2-.45-.7-1.67-.7-.08 0-.46.08-.38.07-.8.37-.43.3-.76.9-.34.6-.34 1.67v4h-1.1v-6.1l-.02-.8-.06-.9z"/><path d="M267.16 128.94l5.86-5.86c.25.2.56.17.84 0 .92 1.26 1.42 2.38 1.53 3.22.02.53-.34 1.22-.34 1.28-.03.03-.03.08 0 .17-.03.02 0 .05.02.08.03.08.12.1.23.1 4.03 0 6.3-2.25 7.04-3 .7-.7 1.26-1.43 1.7-2.2l-.25-.37c-.03-.1-.06-.17 0-.22.05 0 .08-.03.2-.03l.4.04.18-.34-.42-.47c-.06-.06-.1-.17-.06-.23.06-.05.1-.08.2-.08l.6-.06c.37-.97.54-2.04.54-3.1 0-.05-.05-.16-.1-.22-.18-.17-.34 0-.65.14-.18.1-.5.17-.85.17-.6-.1-1.28-.34-2.07-.78-.55-.34-1.14-.76-1.73-1.23.12-.28.1-.6-.14-.8l-.88-.9c-.22-.23-.53-.26-.8-.15-1.2-1.43-1.82-2.77-2-3.72-.1-.5.32-1.3.32-1.37.02 0 .02-.07 0-.15.02-.03 0-.06-.03-.1-.02-.07-.1-.1-.22-.1-4.02 0-6.28 2.26-7.03 3.02-.53.53-1.03 1.08-1.42 1.7l.44.56c.06.05.06.1.03.2l-.03.02c-.05.06-.1.06-.17.06l-.78-.05c-.72 1.4-1.1 2.9-1.1 4.52 0 .06.04.17.1.23.16.16.33 0 .64-.14.2-.1.6-.2.98-.14.44.1.92.25 1.34.44.6.28 1.2.65 1.8 1.1-.18.24-.18.58-.02.86l-5.9 5.9-5.84-5.82c.17-.28.17-.62-.03-.87.6-.44 1.2-.8 1.8-1.1.43-.18.9-.32 1.35-.43.4-.06.78.05.97.14.3.14.48.3.65.14.05-.06.1-.17.1-.23 0-1.62-.38-3.12-1.1-4.52l-.8.06c-.05 0-.1 0-.16-.07l-.02-.03c-.02-.08-.02-.14.03-.2l.46-.55c-.4-.62-.9-1.17-1.42-1.7-.76-.76-3.02-3.02-7.04-3.02-.1 0-.2.03-.22.1-.03.04-.06.07-.03.1-.03.08-.03.14 0 .16 0 .05.42.86.3 1.36-.16.95-.78 2.3-1.98 3.7-.28-.1-.58-.07-.8.15l-.9.9c-.22.23-.25.54-.14.82-.6.47-1.17.9-1.73 1.23-.78.44-1.48.7-2.07.78-.33 0-.67-.06-.83-.17-.3-.14-.48-.3-.65-.14-.05.06-.1.17-.1.22 0 1.06.16 2.13.52 3.1l.62.06c.1 0 .13.03.18.08.06.06 0 .17-.05.23l-.42.48.18.34.4-.03c.13 0 .15.02.2.02.07.05.04.13 0 .22l-.24.36c.45.78 1 1.5 1.7 2.2.76.76 3.02 3.02 7.04 3.02.1 0 .2-.03.22-.1.03-.04.06-.07.03-.1.03-.08.03-.13 0-.16 0-.06-.36-.75-.34-1.28.1-.84.6-1.96 1.53-3.22.28.17.6.2.84 0l5.77 5.78-10.78 10.78c-.17.17-.17.45-.06.67l1.4 1.4c.17.16.45.16.6 0l10.85-10.85 10.92 10.92c.17.17.45.17.62 0l1.38-1.4c.1-.22.1-.5-.05-.67l-10.87-10.86zM153.18 95.72l5.86-5.86c.25.2.55.17.83 0 .92 1.26 1.43 2.37 1.54 3.2.04.54-.33 1.24-.33 1.3-.02.02-.02.08 0 .16-.02.03 0 .06.03.1.03.07.1.1.22.1 4.03 0 6.3-2.26 7.04-3.02.7-.7 1.26-1.42 1.7-2.2l-.25-.37c-.02-.08-.04-.16 0-.22l.2-.02.43.03.16-.33-.43-.47c-.05-.06-.1-.17-.05-.22.05-.06.08-.1.2-.1l.6-.04c.37-.98.54-2.04.54-3.1 0-.06-.06-.17-.1-.22-.18-.17-.35 0-.65.13-.16.12-.5.17-.83.17-.6-.08-1.3-.33-2.07-.78-.56-.33-1.14-.75-1.73-1.23.1-.27.08-.57-.14-.8l-.9-.9c-.22-.2-.52-.24-.8-.13-1.2-1.42-1.82-2.76-1.98-3.7-.12-.52.3-1.33.3-1.38.03-.04.03-.1 0-.18.03-.03 0-.05-.02-.08-.03-.1-.12-.1-.23-.1-4.02 0-6.28 2.25-7.03 3-.53.53-1.04 1.1-1.43 1.7l.45.56c.05.06.05.1.02.2l-.03.03c-.07.05-.12.05-.18.05l-.78-.05c-.73 1.4-1.12 2.9-1.12 4.52 0 .05.06.17.12.22.16.17.33 0 .64-.14.2-.08.58-.2.97-.14.45.1.93.24 1.34.44.6.28 1.2.64 1.8 1.1-.2.24-.2.57-.02.85l-5.9 5.9-5.84-5.83c.17-.28.17-.6-.03-.86.62-.44 1.2-.8 1.82-1.08.42-.2.9-.34 1.34-.45.4-.05.8.06.98.14.3.15.48.32.64.15.06-.05.12-.17.12-.22 0-1.62-.4-3.13-1.12-4.52l-.78.06c-.06 0-.1 0-.17-.05l-.03-.02c-.03-.1-.03-.14.03-.2l.45-.56c-.4-.6-.9-1.17-1.43-1.7-.75-.75-3-3-7.03-3-.1 0-.2 0-.23.1-.03.03-.06.05-.03.08-.03.08-.03.14 0 .17 0 .05.4.86.3 1.37-.16.95-.78 2.3-1.98 3.7-.3-.1-.6-.07-.82.15l-.9.88c-.22.23-.24.53-.13.8-.6.5-1.17.9-1.73 1.24-.78.45-1.48.7-2.07.78-.33 0-.67-.05-.84-.17-.3-.13-.46-.3-.63-.13-.05.05-.1.16-.1.22 0 1.06.16 2.12.52 3.1l.6.05c.12 0 .14.03.2.1.06.04 0 .15-.06.2l-.4.5.15.32.4-.04c.12 0 .15.03.2.03.06.05.04.13 0 .2l-.24.38c.44.78 1 1.5 1.7 2.2.75.76 3 3.02 7.03 3.02.1 0 .2-.03.22-.1.03-.04.05-.07.03-.1.02-.08.02-.14 0-.17 0-.05-.37-.75-.34-1.28.12-.84.62-1.95 1.55-3.2.28.16.58.18.83 0l5.78 5.77-10.78 10.78c-.17.17-.17.45-.06.67l1.4 1.4c.16.16.44.16.6 0l10.85-10.84 10.92 10.9c.16.18.44.18.6 0l1.4-1.38c.1-.22.1-.5-.06-.67l-10.86-10.86zM39.46 84.77l5.32-5.32c.23.17.5.15.76 0 .84 1.14 1.3 2.15 1.4 2.9.03.5-.3 1.13-.3 1.18-.03.03-.03.08 0 .15-.03.03 0 .06.02.08.03.08.1.1.2.1 3.66 0 5.72-2.05 6.4-2.74.64-.63 1.14-1.3 1.55-2l-.22-.33c-.02-.1-.05-.17 0-.22.05 0 .08-.02.18-.02l.38.02.15-.3-.4-.43c-.04-.05-.1-.16-.04-.2.05-.06.08-.08.18-.08l.56-.05c.33-.9.48-1.86.48-2.82 0-.05-.05-.15-.1-.2-.15-.16-.3 0-.6.12-.14.1-.44.15-.75.15-.53-.07-1.17-.3-1.88-.7-.5-.3-1.04-.7-1.57-1.12.1-.26.08-.54-.13-.74l-.8-.8c-.2-.2-.5-.23-.75-.13-1.1-1.3-1.65-2.5-1.8-3.38-.1-.46.28-1.2.28-1.25.03-.03.03-.08 0-.15.03-.03 0-.05-.02-.08-.03-.07-.1-.1-.2-.1-3.66 0-5.72 2.06-6.4 2.74-.5.48-.94 1-1.3 1.55l.4.52c.06.05.06.1.03.18l-.03.02c-.05.05-.1.05-.16.05l-.7-.05c-.66 1.27-1 2.64-1 4.1 0 .06.04.17.1.22.14.15.3 0 .57-.13.18-.07.54-.17.9-.12.4.1.83.23 1.2.4.57.26 1.1.6 1.66 1-.18.23-.18.53-.03.8l-5.37 5.36-5.3-5.3c.15-.25.15-.56-.03-.8.56-.4 1.1-.72 1.65-.98.38-.18.8-.3 1.22-.4.36-.05.7.05.9.12.27.13.42.28.57.13.05-.04.1-.14.1-.2 0-1.47-.35-2.84-1-4.1l-.72.04c-.05 0-.1 0-.16-.05l-.02-.03c-.03-.08-.03-.13.02-.18l.4-.52c-.34-.56-.8-1.06-1.28-1.55-.7-.68-2.75-2.74-6.4-2.74-.1 0-.18.02-.2.1-.03.02-.06.05-.03.07-.03.08-.03.13 0 .15 0 .05.38.8.28 1.25-.15.86-.7 2.08-1.8 3.37-.26-.1-.54-.07-.74.13l-.82.8c-.2.22-.23.5-.13.75-.53.43-1.07.8-1.57 1.12-.7.4-1.35.63-1.88.7-.3 0-.6-.04-.76-.15-.28-.13-.44-.28-.6-.13-.04.05-.1.15-.1.2 0 .97.16 1.93.5 2.82l.55.04c.1 0 .12.02.17.08.05.05 0 .15-.05.2l-.38.43.15.3.37-.02c.1 0 .13.02.18.02.05.06.03.13 0 .2l-.23.34c.4.7.92 1.36 1.55 2 .68.68 2.74 2.74 6.4 2.74.1 0 .17-.03.2-.1.02-.03.05-.06.02-.08.02-.08.02-.13 0-.15 0-.05-.34-.68-.3-1.16.1-.76.55-1.78 1.4-2.92.24.15.52.18.75 0l5.25 5.25-9.8 9.8c-.16.16-.16.4-.06.62l1.27 1.25c.17.16.42.16.57 0l9.86-9.85 9.93 9.93c.15.15.4.15.56 0l1.27-1.27c.1-.2.1-.46-.07-.6l-9.87-9.9zM211.33 205.67l5.86-5.85c.24.2.54.17.82 0 .92 1.25 1.43 2.37 1.54 3.2.03.54-.34 1.24-.34 1.3-.02.02-.02.08 0 .16-.02.03 0 .06.03.08.03.1.1.12.22.12 4.03 0 6.3-2.27 7.04-3.02.7-.7 1.27-1.42 1.7-2.2l-.24-.37c-.03-.1-.05-.18 0-.23.06 0 .1-.03.2-.03l.42.03.16-.34-.42-.47c-.05-.06-.1-.17-.05-.22.05-.06.08-.1.2-.1l.6-.04c.37-.98.54-2.04.54-3.1 0-.06-.05-.17-.1-.23-.17-.16-.34 0-.64.14-.17.13-.5.18-.84.18-.6-.08-1.3-.33-2.07-.78-.56-.34-1.14-.75-1.73-1.23.1-.28.08-.6-.14-.8l-.9-.9c-.22-.23-.52-.25-.8-.14-1.2-1.43-1.82-2.77-1.98-3.7-.12-.52.3-1.33.3-1.38.03-.03.03-.1 0-.17.03-.03 0-.06-.02-.08-.03-.1-.12-.12-.23-.12-4.02 0-6.28 2.27-7.03 3.02-.53.53-1.04 1.1-1.43 1.7l.44.56c.06.06.06.1.03.2l-.03.02c-.06.06-.1.06-.17.06l-.78-.06c-.74 1.4-1.13 2.9-1.13 4.53 0 .06.06.17.12.23.15.17.32 0 .63-.14.2-.1.58-.2.97-.15.45.1.93.25 1.34.45.62.28 1.2.64 1.82 1.1-.2.24-.2.57-.03.85l-5.9 5.9-5.84-5.82c.16-.28.16-.6-.04-.86.6-.45 1.2-.8 1.8-1.1.43-.2.9-.33 1.35-.44.4-.05.8.06 1 .14.3.14.47.3.63.14.06-.05.12-.16.12-.2 0-1.63-.4-3.14-1.12-4.54l-.78.06c-.06 0-.1 0-.17-.06l-.03-.02c-.03-.1-.03-.14.03-.2l.45-.56c-.4-.6-.9-1.17-1.43-1.7-.75-.75-3-3.02-7.03-3.02-.1 0-.2.03-.23.12-.02.02-.05.05-.02.08-.03.08-.03.14 0 .17 0 .05.4.86.3 1.37-.16.94-.78 2.28-1.98 3.7-.28-.1-.6-.08-.8.15l-.9.9c-.23.2-.25.52-.14.8-.6.48-1.17.9-1.73 1.23-.78.45-1.48.7-2.07.78-.33 0-.67-.05-.84-.17-.3-.15-.47-.3-.64-.15-.05.06-.1.17-.1.23 0 1.06.16 2.12.52 3.1l.6.05c.13 0 .15.03.2.1.07.04 0 .15-.05.2l-.42.48.16.35.42-.03c.1 0 .14.03.2.03.05.05.03.14 0 .22l-.25.37c.45.78 1 1.5 1.7 2.2.76.75 3.02 3.02 7.04 3.02.12 0 .2-.03.23-.12.03-.02.05-.05.03-.08.02-.08.02-.14 0-.17 0-.06-.37-.76-.34-1.3.1-.83.6-1.95 1.54-3.2.28.17.58.2.83 0l5.78 5.77-10.77 10.8c-.17.15-.17.43-.06.66l1.4 1.4c.16.16.44.16.6 0l10.85-10.85 10.92 10.92c.17.17.45.17.6 0l1.4-1.4c.12-.22.12-.5-.05-.66l-10.87-10.87z" fill="#d03307"/><path d="M209.97 209.18l-7.12 4.94 2.5-8.27-6.9-5.24 8.7-.18 2.82-8.18 2.84 8.18 8.7.2-6.92 5.23 2.5 8.27zM70.85 39.53l-13.12 8.2c-.17.14-.27.27-.27.44V66.75h5.46V51.37c0-.2.14-.37.28-.44l7.68-4.78c.2-.14.4-.14.62 0l7.65 4.78c.13.1.23.24.23.44v15.37h5.47V48.16c0-.2-.14-.37-.27-.44l-13.12-8.2c-.24-.1-.48-.1-.6 0zM110.27 99.1l-13.1 8.2c-.18.13-.3.27-.3.44v18.59h5.48v-15.38c0-.2.14-.37.27-.44l7.7-4.77c.2-.14.4-.14.6 0l7.65 4.78c.14.1.24.25.24.45v15.37h5.47V107.74c0-.2-.13-.37-.27-.44l-13.1-8.2c-.25-.1-.5-.1-.63 0zM258.33 185.46l-13.1 8.2c-.18.13-.3.27-.3.44V212.68h5.48V197.3c0-.2.14-.36.28-.43l7.68-4.78c.2-.15.4-.15.62 0l7.65 4.77c.13.1.24.24.24.44v15.38h5.46V194.1c0-.2-.14-.37-.27-.44l-13.12-8.2c-.23-.1-.47-.1-.6 0zM221.45 59.57l-13.1 8.2c-.18.13-.28.27-.28.44V86.8h5.46V71.4c0-.2.14-.38.27-.44l7.7-4.78c.2-.14.4-.14.6 0l7.65 4.78c.14.1.24.24.24.44V86.8h5.45V68.2c0-.2-.13-.37-.27-.43l-13.1-8.2c-.25-.1-.5-.1-.63 0z"/><path d="M149.24 195.86v-12.4c.1-.06 12.56-12.6 12.56-12.6s12.46 12.54 12.55 12.6v12.4h-25.1z" fill="#b76418"/><path d="M146.58 180.26L160.7 166c.3-.3.72-.46 1.1-.46.4 0 .8.16 1.1.47l14.12 14.26c.6.6.6 1.6 0 2.23-.6.6-1.6.6-2.23 0l-13.03-13.13-13.03 13.12c-.6.62-1.6.62-2.23 0-.55-.64-.55-1.64.08-2.24z" fill="#b76418"/><path d="M193.44 234.37q-.4.6-1 1.13-.58.53-1.34.92-.75.4-1.63.6-.87.24-1.85.24-1.75 0-3.25-.63-1.5-.62-2.6-1.72-1.1-1.08-1.72-2.6-.62-1.5-.62-3.3 0-1.8.62-3.3.62-1.52 1.72-2.62t2.6-1.72q1.5-.62 3.25-.62 1.46 0 2.93.58 1.46.58 2.5 1.9l-1.4 1.05q-.23-.38-.66-.75-.43-.38-.97-.67-.55-.3-1.17-.47-.62-.17-1.24-.17-1.5 0-2.7.56-1.2.56-2.04 1.5-.83.92-1.28 2.15-.44 1.24-.44 2.6 0 1.35.44 2.58.45 1.24 1.28 2.17.83.93 2.03 1.5 1.2.54 2.72.54.62 0 1.23-.12.6-.1 1.2-.38.6-.26 1.1-.72.53-.45.98-1.14zM197.72 222.47q0 .47-.33.77-.35.3-.75.3t-.73-.3q-.33-.3-.33-.77 0-.46.32-.76.33-.3.73-.3.4 0 .74.3.32.3.32.77zm-.33 14.4h-1.48v-10.4h1.47zM205.75 227.8h-2.46v9.06h-1.48v-9.06h-2.2v-1.33h2.2v-2.84q0-2.07.96-2.94.95-.9 2.53-.9.32 0 .64.05l.63.1-.26 1.35q-.26-.07-.55-.1-.28-.06-.57-.06-.6 0-.98.2t-.58.57q-.2.37-.26.86-.07.5-.07 1.04v2.67h2.45zM212.86 227.8h-3v6.13q0 .57.1.94.12.37.32.57.2.2.48.27.28.1.6.1.4 0 .8-.12.4-.1.72-.3l.06 1.36q-.82.38-1.97.38-.42 0-.88-.1-.46-.12-.84-.43-.38-.32-.62-.85-.25-.54-.25-1.4v-6.55h-2.2v-1.33h2.2v-2.93h1.46v2.93h3zM216.98 222.47q0 .47-.33.77-.33.3-.73.3-.4 0-.73-.3-.35-.3-.35-.77 0-.46.34-.76.32-.3.72-.3.4 0 .73.3.33.3.33.77zm-.33 14.4h-1.46v-10.4h1.45zM226.08 231.68q-.55 0-1.38.06-.83.06-1.6.27-.77.22-1.3.66-.55.44-.55 1.22 0 .5.2.88.22.36.57.6.36.23.8.33.42.1.87.1.8 0 1.37-.28.6-.26 1-.72.4-.45.58-1.06.2-.6.2-1.3v-.76zm.76-1.2v-.26q0-2.7-2.66-2.7-1.82 0-3.18 1.23l-.9-1.04q1.48-1.5 4.4-1.5.76 0 1.46.22.7.23 1.2.68.52.46.83 1.14.3.7.3 1.65v4.63q0 .6.06 1.25t.12 1.08h-1.42q-.07-.38-.1-.83-.03-.44-.03-.86h-.05q-.64 1.04-1.52 1.5-.87.45-2.14.45-.7 0-1.33-.2-.65-.18-1.15-.56-.5-.4-.8-.96-.3-.56-.3-1.32 0-1.26.65-2 .66-.7 1.65-1.06.98-.36 2.1-.45 1.12-.08 2.06-.08zM233.1 226.47q.04.42.05.83.02.4.02.83h.04q.25-.42.63-.77.38-.36.84-.6.47-.27 1-.4.5-.16 1.02-.16 2 0 2.95 1.06.95 1.05.95 3v6.6h-1.46v-5.75q0-1.72-.6-2.65-.6-.92-2.22-.92-.1 0-.62.1-.52.08-1.08.48-.57.4-1 1.2-.45.8-.45 2.23v5.33h-1.47v-8.1q0-.43-.03-1.07l-.08-1.23zM71.8 85.67q-.3.45-.74.85-.44.4-1 .7-.57.28-1.23.45-.66.17-1.4.17-1.3 0-2.44-.47t-1.96-1.3q-.83-.82-1.3-1.95-.46-1.14-.46-2.5 0-1.34.47-2.47.46-1.14 1.3-1.96.8-.84 1.94-1.3 1.12-.47 2.43-.47 1.1 0 2.2.43t1.9 1.43l-1.06.78q-.18-.3-.5-.57-.32-.27-.73-.5-.4-.2-.87-.34-.47-.13-.94-.13-1.13 0-2.03.4-.9.43-1.53 1.13-.62.7-.96 1.63-.32.9-.32 1.93 0 1.02.33 1.94.35.93.97 1.63.63.7 1.53 1.12.9.42 2.03.42.47 0 .93-.1.46-.07.9-.27t.83-.54q.4-.35.72-.86zM75.02 76.73q0 .35-.25.57-.25.23-.55.23-.3 0-.55-.23-.25-.22-.25-.57t.25-.58q.25-.22.55-.22.3 0 .55.22.25.23.25.58zm-.25 10.8h-1.1v-7.8h1.1zM81.46 80.73H79.2v4.6q0 .44.1.7.08.3.23.44.15.15.36.2.2.07.45.07.28 0 .58-.1.3-.07.55-.2l.05 1q-.62.3-1.48.3-.32 0-.66-.1-.36-.07-.64-.3-.28-.24-.47-.64-.2-.4-.2-1.05v-4.92h-1.64v-1h1.65v-2.2h1.1v2.2h2.26zM89.65 83.63q0-.65-.2-1.2-.2-.58-.6-1-.38-.42-.92-.66-.54-.24-1.23-.24-.68 0-1.22.24-.55.24-.92.66-.38.42-.6.98-.2.58-.2 1.23t.2 1.22q.22.57.6.98.37.42.92.66.54.24 1.22.24.7 0 1.23-.25.54-.25.92-.67.4-.4.6-.98.2-.57.2-1.22zm1.2 0q0 .9-.3 1.64-.3.75-.86 1.3t-1.32.86q-.76.3-1.68.3-.9 0-1.66-.3-.76-.3-1.3-.86-.56-.55-.87-1.3-.3-.75-.3-1.64 0-.88.3-1.63.3-.75.86-1.3.55-.55 1.3-.86.77-.3 1.67-.3.92 0 1.68.3.76.3 1.3.86.56.55.87 1.3.3.75.3 1.63zM99.98 83.63q0-.65-.2-1.2-.22-.58-.6-1-.38-.42-.93-.66-.54-.24-1.22-.24-.7 0-1.25.24-.57.24-1 .66-.4.42-.64.98-.23.58-.23 1.23t.24 1.22q.23.57.65.98.4.42.98.66.56.24 1.25.24.68 0 1.22-.25.55-.25.93-.67.38-.4.6-.98.2-.57.2-1.22zm-7.12-3.9h1.1v1.3H94q.26-.4.63-.68.36-.3.76-.47.4-.18.82-.27.42-.07.8-.07.92 0 1.68.3.76.32 1.3.87.56.55.87 1.3.3.75.3 1.63 0 .9-.3 1.64-.3.75-.86 1.3-.54.55-1.3.86-.76.3-1.67.3-.4 0-.8-.08-.44-.08-.84-.26-.4-.2-.77-.48-.37-.28-.64-.68h-.04v6.1h-1.1zM104.65 76.73q0 .35-.25.57-.25.23-.55.23-.3 0-.55-.23-.25-.22-.25-.57t.25-.58q.25-.22.55-.22.3 0 .55.22.25.23.25.58zm-.25 10.8h-1.1v-7.8h1.1zM111.5 83.65q-.43 0-1.05.04-.63.03-1.2.2-.58.15-1 .48-.4.34-.4.92 0 .38.16.66.17.28.44.45.26.2.6.26.3.08.65.08.6 0 1.03-.2.44-.2.74-.55.3-.35.45-.8.14-.47.14-.98v-.57zm.56-.9v-.2q0-2.02-2-2.02-1.37 0-2.4.92l-.66-.8q1.1-1.12 3.3-1.12.57 0 1.1.17.52.16.9.5.4.35.62.86.24.52.24 1.24v3.48q0 .46.04.95.04.5.1.8h-1.08q-.05-.28-.07-.6-.03-.34-.03-.66h-.03q-.5.78-1.15 1.12-.66.34-1.6.34-.53 0-1-.15-.5-.15-.87-.44-.38-.3-.6-.72-.23-.42-.23-1 0-.94.5-1.48t1.23-.8q.74-.28 1.58-.34.85-.07 1.55-.07zM208.95 102.37q-.28.42-.7.8-.4.38-.95.65-.53.27-1.15.43-.62.16-1.3.16-1.25 0-2.3-.43-1.07-.44-1.85-1.22t-1.22-1.84q-.44-1.06-.44-2.33 0-1.28.44-2.35.44-1.06 1.22-1.84t1.84-1.22q1.06-.44 2.3-.44 1.03 0 2.07.4 1.05.42 1.8 1.36l-1 .74q-.18-.27-.47-.53-.3-.28-.7-.5-.37-.2-.8-.32-.45-.12-.9-.12-1.06 0-1.9.4-.86.38-1.45 1.04-.6.66-.9 1.54-.3.87-.3 1.83 0 .95.3 1.83.3.87.9 1.53.6.66 1.44 1.05.85.4 1.92.4.44 0 .87-.1.44-.06.86-.25.4-.2.78-.5.37-.34.7-.82zM216.2 99.88q0-1.05-.63-1.7-.63-.65-1.76-.65-.5 0-.97.2t-.82.52q-.34.33-.56.76-.2.43-.2.88zm-5 .85q.05.55.27 1.04.22.5.58.84.36.36.83.57.47.2 1.02.2.83 0 1.44-.38.6-.4.92-.9l.8.66q-.66.83-1.45 1.2-.8.35-1.7.35-.82 0-1.5-.28-.7-.3-1.22-.8-.5-.52-.8-1.23-.28-.72-.28-1.55 0-.83.28-1.54.3-.7.8-1.2.5-.53 1.17-.82.67-.3 1.46-.3.84 0 1.5.3t1.1.8q.46.5.7 1.16.23.67.23 1.42v.47zM219.32 99.07l-.02-1q-.03-.5-.04-1.3h1.02v1.37h.03q.12-.3.33-.57.2-.28.5-.5.28-.22.67-.35.38-.13.87-.13.44 0 .77.08l-.2 1.02q-.2-.08-.6-.08-.6 0-1.02.23-.43.23-.7.58-.3.36-.43.76-.14.4-.14.78v4.15h-1.04zM230.73 100.45q0-.6-.2-1.15-.2-.53-.56-.92-.36-.4-.87-.62-.5-.23-1.15-.23-.65 0-1.16.23-.52.22-.87.62-.36.4-.55.92-.2.54-.2 1.15 0 .6.2 1.15.2.53.55.92.35.4.86.62.5.23 1.15.23.64 0 1.15-.23.5-.22.87-.62.36-.4.56-.92.2-.54.2-1.15zm1.13 0q0 .83-.3 1.54-.28.7-.8 1.22-.52.5-1.24.8-.7.3-1.57.3-.85 0-1.57-.3-.7-.3-1.23-.8-.52-.52-.8-1.23-.3-.72-.3-1.55 0-.83.3-1.54.28-.7.8-1.2.52-.53 1.23-.82.72-.3 1.57-.3.86 0 1.57.3.72.3 1.24.8.52.52.8 1.23.3.72.3 1.55zM237.54 97.72h-2.12v4.33q0 .4.08.67.08.26.22.4t.34.2q.2.05.43.05.26 0 .54-.08t.52-.2l.05.95q-.57.26-1.4.26-.3 0-.6-.06-.33-.08-.6-.3-.27-.22-.44-.6-.17-.38-.17-1v-4.62h-1.57v-.95h1.56V94.7h1.02v2.07h2.12zM245.26 100.45q0-.6-.2-1.15-.2-.53-.56-.92-.36-.4-.87-.62-.5-.23-1.15-.23-.65 0-1.16.23-.5.22-.86.62t-.55.92q-.2.54-.2 1.15 0 .6.2 1.15.2.53.56.92.35.4.86.62.5.23 1.16.23.64 0 1.15-.23.5-.22.87-.62.36-.4.56-.92.2-.54.2-1.15zm1.13 0q0 .83-.3 1.54-.3.7-.8 1.22-.53.5-1.24.8-.72.3-1.58.3-.85 0-1.57-.3-.7-.3-1.22-.8-.52-.52-.8-1.23-.3-.72-.3-1.55 0-.83.3-1.54.28-.7.8-1.2.52-.53 1.23-.82.73-.3 1.58-.3.86 0 1.58.3.7.3 1.23.8.5.52.8 1.23.3.72.3 1.55zM254.98 100.45q0-.6-.2-1.15-.2-.53-.55-.92-.36-.4-.87-.62-.52-.23-1.16-.23-.64 0-1.18.23-.53.22-.92.62-.4.4-.62.92-.22.54-.22 1.15 0 .6.22 1.15.22.53.62.92.4.4.92.62.54.23 1.18.23.65 0 1.16-.23.5-.22.87-.62.36-.4.56-.92.18-.54.18-1.15zm-6.7-3.68h1.03V98h.04q.25-.38.6-.64.34-.27.72-.44.38-.18.78-.26.4-.07.76-.07.87 0 1.58.28.7.3 1.23.8.53.52.82 1.23.3.72.3 1.55 0 .83-.3 1.54-.3.7-.8 1.22-.53.5-1.24.8-.72.3-1.58.3-.36 0-.76-.08t-.78-.25q-.38-.2-.72-.45-.35-.27-.6-.65h-.03v5.75h-1.03zM259.38 93.95q0 .33-.24.54-.23.2-.5.2-.3 0-.53-.2-.23-.22-.23-.55 0-.33.24-.55.24-.2.53-.2.28 0 .5.2.25.22.25.55zm-.24 10.18h-1.03v-7.36h1.04zM265.54 98.52q-.24-.46-.63-.72-.38-.27-.95-.27-.27 0-.54.06-.27.05-.5.2-.2.12-.34.33-.13.2-.13.5 0 .52.36.75.35.24 1.07.4l1.05.26q.77.17 1.28.7.52.53.52 1.3 0 .6-.25 1.04-.24.43-.64.7-.4.28-.92.4-.5.13-1.04.13-.85 0-1.58-.3-.73-.33-1.25-1.1l.9-.63q.3.5.8.8.47.3 1.13.3.3 0 .62-.07t.56-.22q.25-.15.4-.38.14-.24.14-.55 0-.55-.4-.8-.4-.24-1-.38l-1-.24q-.2-.04-.5-.15-.33-.1-.64-.33-.3-.22-.52-.58-.22-.35-.22-.87 0-.56.22-1 .23-.4.62-.68.38-.27.87-.4.5-.13 1-.13.78 0 1.44.28.66.3 1.02 1.03z"/><path d="M32.22 141.52l-9.92-9.93v-13.94l9.92-9.92h14l9.86 9.92v13.93l-9.85 9.92z" stroke-width="2.8" stroke="#fee806" stroke-linecap="square"/><path d="M47.65 116.17h-3.38v16.91h3.38v-16.9zm-13.53 0h-3.4v16.91h3.4v-16.9z" fill="#fee806"/><path d="M47.65 122.94v3.38H30.73v-3.38z" fill="#fee806"/><path d="M53.57 149.14q-.17.26-.43.5-.25.23-.58.4-.33.17-.7.26-.4.1-.82.1-.76 0-1.42-.27-.65-.27-1.13-.75-.5-.48-.76-1.14-.27-.65-.27-1.44 0-.78.27-1.44.27-.65.75-1.13.47-.48 1.12-.75.66-.27 1.42-.27.64 0 1.28.26.63.25 1.1.83l-.62.45q-.1-.17-.3-.33-.17-.17-.4-.3-.25-.12-.52-.2-.27-.07-.54-.07-.66 0-1.18.24-.52.23-.88.64-.37.4-.56.94-.2.53-.2 1.12 0 .6.2 1.13.2.54.56.94.36.4.88.65.52.24 1.18.24.27 0 .54-.05.26-.03.52-.15t.48-.3q.23-.2.42-.5zM54.58 147.1l-.02-.6-.02-.8h.63v.84h.02q.06-.18.18-.35.13-.18.3-.3.18-.15.42-.23.24-.08.54-.08.27 0 .47.04l-.1.63q-.14-.05-.38-.05-.37 0-.63.14-.27.14-.44.36-.18.22-.26.47-.08.24-.08.47v2.56h-.64zM60.3 147.97q-.25 0-.6.03-.37.02-.7.1-.34.1-.58.3-.23.2-.23.53-.02.22.08.38.1.17.24.27.16.1.35.15.2.04.38.04.35 0 .6-.1.26-.13.43-.33.18-.2.26-.46.08-.27.08-.57v-.33zm.32-.52v-.1q0-1.18-1.16-1.18-.8 0-1.38.53l-.4-.46q.65-.65 1.93-.65.33 0 .64.08.3.1.53.3.22.2.35.5.14.3.14.7v2.03l.02.56.06.47h-.62l-.05-.36v-.38h-.03q-.28.45-.66.64-.38.2-.93.2-.3 0-.58-.08-.28-.08-.5-.25-.22-.16-.35-.4-.13-.25-.13-.58 0-.55.27-.87.3-.3.72-.47.42-.15.9-.2.5-.03.9-.03zM66.87 147.96q0-.37-.12-.7-.13-.33-.35-.57-.22-.25-.53-.4-.32-.13-.7-.13-.4 0-.74.14-.33.15-.57.4-.24.23-.38.56-.13.33-.13.7 0 .38.13.7.14.34.38.58.24.24.57.38.33.14.73.14.4 0 .7-.14.32-.14.54-.38.22-.24.35-.57.12-.33.12-.7zm-4.13-5.04h.64v3.54h.02q.15-.24.36-.4.22-.16.45-.27.24-.12.5-.17.23-.04.46-.04.53 0 .97.16.44.18.76.5.3.32.48.76.18.43.18.94 0 .52-.18.95-.17.45-.5.77-.3.3-.75.5-.44.17-.97.17-.23 0-.47-.05-.26-.05-.5-.16-.22-.1-.44-.27-.2-.17-.36-.4h-.02v.76h-.64zM72.77 147.96q0-.37-.12-.7-.12-.33-.34-.57-.2-.25-.53-.4-.3-.13-.7-.13-.4 0-.73.14-.33.15-.57.4-.24.23-.38.56-.15.33-.15.7 0 .38.14.7.13.34.37.58.24.24.57.38.33.14.72.14.4 0 .7-.14.33-.14.55-.38.23-.24.35-.57.12-.33.12-.7zm-4.12-5.04h.63v3.54h.02q.16-.24.37-.4.2-.16.45-.27.23-.12.47-.17.24-.04.46-.04.53 0 .97.16.44.18.76.5.3.32.5.76.17.43.17.94 0 .52-.18.95-.2.45-.5.77-.33.3-.77.5-.44.17-.97.17-.22 0-.47-.05-.25-.05-.48-.16-.24-.1-.45-.27-.2-.17-.37-.4h-.02v.76h-.63zM78.07 147.62q0-.65-.38-1.05-.4-.4-1.1-.4-.3 0-.6.12-.3.1-.5.3-.22.2-.35.47-.13.27-.13.55zm-3.07.52q.03.34.16.64.14.3.36.5.22.23.5.36.3.12.64.12.5 0 .88-.23.38-.24.57-.55l.5.4q-.4.52-.9.74-.48.22-1.04.22-.5 0-.93-.18-.43-.18-.74-.5-.32-.3-.5-.75-.18-.42-.18-.94 0-.5.17-.94.17-.44.48-.76.3-.32.72-.5.42-.17.9-.17.5 0 .92.17.4.18.68.5.28.3.42.7.15.4.15.88v.3zM83.75 147.8h2.96l-1.46-3.6zm-1.02 2.43h-.8l2.97-6.85h.67l2.98 6.85h-.8l-.76-1.8h-3.5zM90.18 143.96q0 .2-.15.34-.14.13-.32.13-.16 0-.3-.13-.15-.14-.15-.34t.14-.33q.14-.13.3-.13.2 0 .33.13.15.13.15.33zm-.15 6.27h-.64v-4.53h.63zM91.64 147.1l-.02-.6-.02-.8h.63v.84q.08-.18.2-.35.13-.18.3-.3.2-.15.43-.23.24-.08.53-.08.27 0 .47.04l-.13.63q-.12-.05-.36-.05-.37 0-.63.14t-.44.36q-.16.22-.24.47-.1.24-.1.47v2.56h-.62zM95.56 150.23h-.64v-7.3h.64zM98.03 143.96q0 .2-.15.34-.14.13-.32.13-.17 0-.32-.13-.14-.14-.14-.34t.14-.33q.15-.13.32-.13.18 0 .32.13.15.13.15.33zm-.15 6.27h-.64v-4.53h.64zM100.03 145.7l.02.36v.37h.03q.1-.2.27-.34.16-.17.36-.28.22-.1.44-.17.23-.06.45-.06.86 0 1.28.45.42.45.42 1.3v2.88h-.64v-2.5q0-.76-.26-1.16-.27-.4-.97-.4l-.27.03q-.22.04-.47.22-.26.17-.45.52-.2.35-.2.97v2.33h-.63v-3.53l-.02-.47q0-.28-.03-.53zM108.3 147.62q0-.65-.37-1.05-.4-.4-1.1-.4-.3 0-.6.12-.28.1-.5.3-.2.2-.34.47-.14.27-.14.55zm-3.06.52q.03.34.16.64.14.3.36.5.22.23.5.36.3.12.64.12.5 0 .9-.23.36-.24.55-.55l.5.4q-.4.52-.9.74-.5.22-1.05.22-.5 0-.93-.18-.43-.18-.74-.5-.3-.3-.5-.75-.17-.42-.17-.94 0-.5.18-.94.17-.44.48-.76.3-.32.72-.5.42-.17.9-.17.52 0 .92.17.4.18.68.5.28.3.42.7.15.4.15.88v.3zM112.57 146.78q-.15-.3-.4-.45-.23-.16-.58-.16-.17 0-.34.03-.17.04-.3.13-.14.08-.23.2-.08.13-.08.3 0 .33.22.48.23.15.67.26l.65.15q.46.12.78.44.3.33.3.8 0 .38-.14.64-.15.27-.4.44-.24.17-.56.25-.32.07-.65.07-.52 0-.97-.2-.45-.2-.77-.68l.54-.37q.2.3.5.48t.7.18q.2 0 .38-.04.2-.04.34-.14.15-.1.24-.23.1-.15.1-.34 0-.33-.26-.48-.25-.15-.6-.24l-.62-.14-.32-.1q-.2-.07-.38-.2-.2-.14-.33-.35-.14-.23-.14-.55 0-.35.14-.6.14-.27.37-.44.24-.15.54-.23.3-.08.63-.08.47 0 .88.17.4.18.64.63zM27.95 228.33q-.43.66-1.07 1.24-.65.58-1.47 1-.8.43-1.77.67-.96.24-2.02.24-1.9 0-3.54-.68-1.63-.67-2.83-1.87-1.2-1.2-1.88-2.85-.67-1.64-.67-3.6 0-1.96.67-3.6.68-1.66 1.88-2.85 1.2-1.2 2.83-1.88 1.64-.68 3.55-.68 1.6 0 3.2.63t2.74 2.08l-1.52 1.14q-.27-.4-.73-.82-.47-.4-1.06-.73-.6-.3-1.27-.5-.68-.2-1.36-.2-1.64 0-2.94.6t-2.22 1.63q-.9 1-1.4 2.36-.47 1.34-.47 2.82 0 1.47.48 2.82.48 1.34 1.4 2.36.9 1 2.2 1.62 1.3.6 2.96.6.7 0 1.35-.12.67-.12 1.3-.4.65-.3 1.22-.8t1.05-1.24zM30.47 223.25q0-.75-.04-1.52l-.06-2h1.58v2.1H32q.16-.47.48-.9.3-.4.76-.75.45-.34 1.04-.55.6-.2 1.35-.2.67 0 1.18.14l-.3 1.58q-.32-.13-.92-.13-.92 0-1.58.36-.65.35-1.1.9-.42.54-.63 1.17-.2.62-.2 1.2v6.4h-1.6zM42.55 229.1L46 219.7h1.95L42.28 234q-.5 1.3-1.3 2.08-.78.78-2.26.78-.36 0-.73-.03-.4-.02-.75-.14l.17-1.56q.5.26 1.2.26.85 0 1.34-.53.48-.53.85-1.5l.83-2.18-4.65-11.48h2zM59.7 225.38q0-.94-.3-1.77-.3-.8-.85-1.4-.56-.62-1.34-.97t-1.77-.35q-1 0-1.78.35-.8.35-1.33.96-.55.6-.85 1.4-.3.84-.3 1.78 0 .95.3 1.77.3.82.85 1.43.54.6 1.33.95.78.35 1.78.35t1.78-.35q.8-.35 1.35-.95.56-.6.86-1.43.3-.82.3-1.77zm1.75 0q0 1.28-.44 2.37-.44 1.1-1.24 1.9-.8.8-1.9 1.24-1.1.44-2.43.44-1.3 0-2.4-.45-1.1-.46-1.9-1.26-.8-.8-1.26-1.9-.45-1.08-.45-2.36 0-1.28.45-2.37.45-1.08 1.25-1.88.8-.8 1.9-1.25 1.1-.44 2.4-.44 1.34 0 2.44.44 1.1.45 1.9 1.25.8.8 1.25 1.9.45 1.08.45 2.36zM66.32 231.05h-1.6v-18.3h1.6zM78.98 224.5q0-1.6-.97-2.62-.96-1-2.7-1-.77 0-1.5.3t-1.27.8q-.55.52-.87 1.17-.33.66-.33 1.36zm-7.7 1.32q.08.84.4 1.6.35.75.9 1.3.57.53 1.3.85.72.3 1.57.3 1.28 0 2.2-.58.94-.6 1.43-1.38l1.23 1.02q-1 1.28-2.23 1.84-1.22.56-2.62.56-1.26 0-2.34-.45-1.07-.46-1.84-1.26-.78-.8-1.22-1.9-.45-1.08-.45-2.36 0-1.28.42-2.37.44-1.08 1.2-1.88.8-.8 1.83-1.25 1.04-.44 2.25-.44 1.28 0 2.3.46 1.02.45 1.7 1.2.7.77 1.06 1.8.36 1.03.36 2.2v.72zM103.6 217.05q-.87-.92-2.08-1.45-1.2-.53-2.8-.53-1.66 0-2.96.6t-2.22 1.63q-.9 1-1.4 2.36-.48 1.34-.48 2.82 0 1.47.5 2.82.47 1.34 1.38 2.36.9 1 2.22 1.62 1.3.6 2.95.6 1.34 0 2.56-.32 1.23-.33 2.2-.9v-5.72h-4.1v-1.6h5.84v8.4q-1.46.85-3.2 1.3-1.72.44-3.3.44-1.9 0-3.54-.68-1.63-.67-2.83-1.87-1.2-1.2-1.88-2.85-.67-1.64-.67-3.6 0-1.96.67-3.6.68-1.66 1.88-2.85 1.2-1.2 2.83-1.88 1.64-.68 3.55-.68 2.07 0 3.56.57 1.48.57 2.65 1.73zM117.37 231.05q-.05-.46-.06-.9v-.92h-.05q-.26.46-.68.85-.4.4-.92.66-.5.28-1.07.44-.57.16-1.13.16-2.18 0-3.22-1.15-1.04-1.16-1.04-3.3v-7.18h1.6V226q0 .93.13 1.66.15.72.5 1.22t.94.75q.6.25 1.5.25.1 0 .67-.1.56-.1 1.17-.53.63-.43 1.12-1.3.48-.87.48-2.42v-5.8h1.6v8.82q0 .46.03 1.16.04.72.1 1.35zM124.6 231.05H123v-18.3h1.6zM133.74 221.17h-2.7v9.88h-1.6v-9.88h-2.38v-1.45h2.4v-3.1q0-2.25 1.03-3.2 1.03-.96 2.75-.96.34 0 .7.04l.68.12-.3 1.46q-.28-.08-.6-.12-.3-.05-.62-.05-.65 0-1.06.23-.4.2-.63.6-.2.4-.28.94-.07.54-.07 1.14v2.92h2.7z"/><path d="M291 61.16V57.38h-2.96l-.12-2.93h-.18l-.12 2.93h-2.96V63.23h-11.98l-2.12-2.07h-8.08l5.56 5.7h25.82v-5.7H291zm-24.24 1.6c-.12 0-.2-.1-.2-.23 0-.12.08-.2.2-.2.12 0 .2.08.2.2 0 .12-.08.22-.2.22zm1.22 0c-.12 0-.22-.1-.22-.23 0-.12.1-.2.22-.2s.2.08.2.2c0 .12-.08.22-.2.22zm1.2 0c-.1 0-.2-.1-.2-.23 0-.12.1-.2.2-.2.13 0 .23.08.23.2 0 .12-.1.22-.2.22zm18.27-3.34h-1v-.64h1v.64zm.76 1.5h1.02v.64h-1v-.64zm0-1.5v-.64h1.02v.64h-1zm-1.75 1.5h1v.64h-1v-.64zM249.56 31.5V27.72h-2.96l-.12-2.93h-.18l-.12 2.92h-2.96v5.84h-11.98l-2.12-2.07h-8.08l5.56 5.7h25.8v-5.7h-2.84zm-24.24 1.6c-.12 0-.2-.1-.2-.23 0-.12.08-.2.2-.2.12 0 .2.08.2.2 0 .12-.08.22-.2.22zm1.22 0c-.12 0-.22-.1-.22-.23 0-.12.1-.2.22-.2.1 0 .2.08.2.2 0 .12-.1.22-.2.22zm1.2 0c-.1 0-.2-.1-.2-.23 0-.12.1-.2.2-.2.13 0 .23.08.23.2 0 .12-.1.22-.22.22zm18.27-3.34h-1v-.64h1v.64zm.77 1.5h1v.64h-1v-.64zm0-1.5v-.64h1v.64h-1zm-1.77 1.5h1v.64h-1v-.64z" fill="#0065cc"/><path d="M181.53 14.48q-.28.4-.68.78-.4.37-.92.63t-1.12.4q-.6.17-1.27.17-1.2 0-2.23-.43t-1.8-1.2q-.74-.74-1.17-1.78-.43-1.03-.43-2.27 0-1.25.43-2.3.43-1.02 1.18-1.78.77-.75 1.8-1.18 1.03-.43 2.23-.43 1 0 2.02.4 1 .4 1.72 1.32l-.96.72q-.16-.26-.45-.52-.3-.26-.66-.46-.4-.2-.8-.32-.44-.12-.87-.12-1.04 0-1.86.38-.82.38-1.4 1.02-.57.64-.87 1.5-.3.84-.3 1.77 0 .92.3 1.77.3.84.87 1.48.58.64 1.4 1.03.82.38 1.86.38.43 0 .85-.08.42-.07.82-.26.4-.18.76-.5.36-.3.67-.78zM182.6 11.28l-.02-.96-.03-1.27h1v1.33h.02q.1-.3.3-.56.2-.27.48-.48.3-.2.66-.34.38-.13.86-.13.42 0 .74.1l-.2.98q-.2-.08-.57-.08-.58 0-1 .22-.4.22-.68.56-.28.34-.4.74-.14.4-.14.76v4.03h-1zM191.12 12.63q-.4 0-.96.04-.57.04-1.1.2-.52.13-.9.44-.37.3-.37.85 0 .35.13.6.15.25.4.4.24.17.53.24.3.06.6.06.56 0 .96-.18.4-.2.68-.5.27-.3.4-.73.13-.42.13-.9v-.52zm.5-.82v-.17q0-1.85-1.82-1.85-1.25 0-2.18.84l-.6-.72q1-1.03 3-1.03.53 0 1 .15.5.15.84.46.35.32.57.8.2.46.2 1.12v3.2q0 .4.05.85l.08.74h-.97q-.06-.27-.08-.57l-.02-.6h-.04q-.44.72-1.04 1.03-.6.3-1.47.3-.48 0-.92-.12-.44-.13-.78-.4-.35-.26-.55-.65-.2-.4-.2-.92 0-.87.44-1.36.45-.5 1.13-.74.68-.25 1.45-.3.77-.07 1.4-.07zM194.77 9.05l1.65 5.8h.03l1.9-5.8h1.05l1.9 5.8h.03l1.65-5.8h1.2l-2.27 7.14h-1.12l-1.9-5.87h-.02l-1.9 5.86h-1.12l-2.26-7.15zM205.58 12.62q0 .6.2 1.1.2.53.54.9.35.4.84.62.5.22 1.13.22.6 0 1.12-.22.53-.23.9-.6.4-.4.6-.9.22-.52.22-1.12 0-.6-.2-1.1-.23-.53-.6-.9-.4-.4-.92-.62-.52-.22-1.13-.22-.64 0-1.14.22-.5.22-.84.6-.35.4-.54.9-.2.53-.2 1.12zm6.52 3.57h-1V15h-.04q-.24.37-.58.63-.33.25-.7.42-.37.17-.75.25-.4.07-.74.07-.85 0-1.55-.28-.7-.3-1.2-.8t-.78-1.18q-.28-.7-.28-1.5t.27-1.5q.28-.68.78-1.2.5-.5 1.2-.77.7-.28 1.54-.28.34 0 .73.07.38.08.75.25.37.15.7.4.34.27.58.64h.03V4.66h1zM217.85 12.63q-.38 0-.96.04t-1.1.2q-.53.13-.9.44-.38.3-.38.85 0 .35.15.6.14.25.38.4.25.17.55.24.3.06.6.06.55 0 .95-.18.4-.2.68-.5t.4-.73q.14-.42.14-.9v-.52zm.52-.82v-.17q0-1.85-1.84-1.85-1.25 0-2.18.84l-.6-.72q1-1.03 3-1.03.53 0 1 .15.5.15.84.46.35.32.56.8.2.46.2 1.12v3.2q0 .4.05.85.05.45.1.74h-.98q-.05-.27-.07-.57l-.02-.6h-.03q-.45.72-1.05 1.03-.6.3-1.47.3-.47 0-.92-.12-.44-.13-.78-.4-.35-.26-.55-.65-.2-.4-.2-.92 0-.87.44-1.36.45-.5 1.13-.74.68-.25 1.45-.3.77-.07 1.4-.07zM221.8 12.62q0 .6.2 1.1.2.53.54.9.35.4.85.62.48.22 1.1.22.62 0 1.15-.22.52-.23.9-.6.4-.4.6-.9.2-.52.2-1.12 0-.6-.2-1.1-.2-.53-.6-.9-.38-.4-.9-.62-.53-.22-1.14-.22-.62 0-1.1.22-.5.22-.86.6-.35.4-.54.9-.2.53-.2 1.12zm6.52 3.57h-1V15h-.03q-.26.37-.6.63-.33.25-.7.42-.36.17-.75.25-.4.07-.74.07-.83 0-1.52-.28-.7-.3-1.2-.8t-.8-1.18q-.27-.7-.27-1.5t.3-1.5q.27-.68.78-1.2.5-.5 1.2-.77.7-.28 1.53-.28.36 0 .75.07.4.08.75.25.37.15.7.4.34.27.6.64h.02V4.66h1zM239.22 7.17q-.7-1.05-2.1-1.05-.4 0-.83.1-.42.13-.75.37-.32.22-.52.6-.2.37-.2.87 0 .74.4 1.14.42.4 1.03.67.6.26 1.34.47.72.2 1.33.55.6.33 1.03.9.4.56.4 1.54 0 .73-.3 1.32-.32.58-.83.98-.5.4-1.14.6-.65.23-1.3.23-.98 0-1.87-.38-.9-.38-1.52-1.24l1-.7q.35.58.98.94.62.36 1.48.36.4 0 .82-.13.4-.13.74-.38.33-.26.54-.62.22-.37.22-.84 0-.57-.24-.95-.24-.37-.62-.62-.4-.26-.9-.42l-1-.33q-.54-.17-1.03-.38-.5-.23-.9-.55-.4-.33-.62-.83-.24-.5-.24-1.24 0-.78.3-1.36.3-.58.8-.96t1.1-.56q.64-.2 1.3-.2.9 0 1.66.3.74.3 1.38 1.03zM241.72 4.66h1v5.53h.04q.17-.3.42-.54.26-.24.58-.42.33-.18.68-.27.36-.1.7-.1 1.4 0 2.04.72.66.72.66 2.06v4.53h-1v-3.96q0-1.2-.42-1.83-.4-.62-1.53-.62-.08 0-.43.06t-.74.34q-.4.27-.7.82-.3.55-.3 1.53v3.66h-1zM251.16 6.3q0 .32-.23.53-.23.2-.5.2-.28 0-.5-.2-.24-.2-.24-.53 0-.32.22-.52.23-.2.5-.2.28 0 .5.2.24.2.24.52zm-.23 9.9h-1V9.04h1zM259.36 12.62q0-.6-.2-1.1-.18-.53-.53-.9-.35-.4-.85-.62-.5-.22-1.12-.22-.62 0-1.14.22-.52.22-.9.6-.38.4-.6.9-.2.53-.2 1.12 0 .6.2 1.1.22.53.6.9.38.4.9.62.52.22 1.14.22.63 0 1.12-.22.5-.23.85-.6.35-.4.54-.9.2-.52.2-1.12zm-6.5-3.57h1v1.2h.03q.23-.38.57-.64.33-.25.7-.4.36-.18.75-.26.4-.07.74-.07.84 0 1.54.28.7.28 1.2.78t.78 1.2q.28.68.28 1.5 0 .8-.28 1.5-.28.67-.8 1.18-.5.5-1.18.8-.7.27-1.54.27-.35 0-.74-.07-.4-.08-.75-.25-.37-.17-.7-.43-.34-.25-.58-.62h-.05v5.58h-1zM261.66 10.64l-.02-.8-.05-.8h1.07v1.1h.03q.37-.63 1-.95.66-.33 1.3-.33.3 0 .62.06.33.06.63.22t.58.45q.26.3.45.75.3-.7.97-1.1.66-.38 1.38-.38 1.37 0 2.03.72.65.72.65 2.06v4.53h-1v-4.17q0-1.1-.38-1.67-.38-.58-1.42-.58-.56 0-.94.22-.38.22-.62.6-.24.36-.34.82-.1.47-.1.97v3.8h-1.02v-4.17q0-1.1-.38-1.67-.38-.58-1.42-.58-.1 0-.42.06-.33.06-.68.34-.35.27-.63.82-.28.55-.28 1.53v3.66h-1zM279.7 12.07q0-1.02-.6-1.66-.6-.62-1.7-.62-.5 0-.96.2-.46.18-.8.5t-.55.74q-.22.4-.22.85zm-4.84.82q.04.53.25 1 .23.47.58.82.35.34.8.54.47.2 1 .2.8 0 1.4-.38.58-.37.9-.86l.77.64q-.64.8-1.4 1.16-.8.35-1.67.35-.8 0-1.47-.28-.67-.3-1.16-.8-.5-.5-.77-1.18-.28-.7-.28-1.5t.26-1.5q.28-.68.76-1.2.5-.5 1.15-.77.65-.28 1.42-.28.8 0 1.44.3.64.28 1.07.76.45.48.68 1.13.23.64.23 1.38v.45zM283.1 9.05l.03.57v.57h.03q.17-.3.43-.54.25-.24.57-.42.32-.18.68-.27.36-.1.7-.1 1.38 0 2.04.72.65.72.65 2.06v4.53h-1v-3.96q0-1.2-.42-1.83-.4-.62-1.53-.62-.08 0-.43.06t-.74.34q-.38.27-.7.82-.3.55-.3 1.53v3.66h-1V10.6l-.02-.73-.05-.85zM293.8 9.97h-2.07v4.2q0 .4.08.65.1.26.23.4.13.13.32.18.2.06.42.06.26 0 .54-.08.28-.07.5-.2l.06.93q-.57.27-1.36.27-.3 0-.6-.07-.32-.08-.58-.3-.26-.2-.42-.57-.17-.37-.17-.96v-4.5h-1.5v-.92h1.5V7.03h1v2.02h2.07z"/><path d="M235.45 153.9H192.8v-27.28h42.65v27.3z" fill="#f8ff20"/><path d="M192.8 126.62v27.3h42.65v-27.3H192.8zm36.9 2.25h3c.4 0 .84.27.84.54v.8c0 .26-.43.54-.85.54h-3c-.4 0-.84-.28-.84-.55v-.8c0-.26.37-.53.85-.53zm-8.55 2.58h2.98c.42 0 .85.27.85.55v5.4c0 .28-.43.55-.85.55h-2.98c-.42 0-.85-.27-.85-.54v-5.44c.05-.3.37-.5.85-.5zm-8.5 0h2.97c.43 0 .85.27.85.55v5.4c0 .28-.42.55-.85.55h-2.98c-.42 0-.85-.27-.85-.54V132c0-.34.37-.55.84-.55zm-8.5 0h2.97c.42 0 .85.27.85.55v5.4c0 .28-.43.55-.85.55h-2.98c-.43 0-.85-.27-.85-.54V132c-.07-.34.36-.55.84-.55zm-8.52 0h2.98c.43 0 .86.27.86.55v5.4c0 .28-.43.55-.85.55h-2.97c-.42 0-.85-.27-.85-.54V132c-.05-.34.37-.55.85-.55zm0 11.06h2.98c.43 0 .86.28.86.56v.78c0 .27-.43.54-.85.54h-2.97c-.42 0-.85-.27-.85-.54v-.78c-.05-.24.37-.55.85-.55zm7.6.56c0-.28.43-.55.85-.55h2.98c.43 0 .85.28.85.56v.78c0 .27-.4.54-.84.54h-2.98c-.42 0-.85-.27-.85-.54v-.78zm8.56 0c0-.28.42-.55.84-.55h2.98c.43 0 .85.28.85.56v.78c0 .27-.42.54-.85.54h-2.98c-.42 0-.85-.27-.85-.54v-.78zm8.55 0c0-.28.43-.55.85-.55h2.98c.43 0 .85.28.85.56v.78c0 .27-.42.54-.85.54h-2.98c-.42 0-.85-.27-.85-.54v-.78zm8.5 0c0-.28.44-.55.86-.55h3c.4 0 .84.28.84.56v.78c0 .27-.43.54-.85.54h-3c-.4 0-.84-.27-.84-.54v-.78zm3.8-5.07h-3c-.42 0-.84-.3-.84-.56V132c0-.28.43-.55.86-.55h2.98c.42 0 .85.27.85.55v5.44c.04.24-.33.55-.86.55zm-11.5-9.13h2.98c.42 0 .85.27.85.54v.8c0 .26-.43.54-.85.54h-2.98c-.42 0-.85-.28-.85-.55v-.8c.05-.26.37-.53.85-.53zm-8.5 0h2.97c.43 0 .85.27.85.54v.8c0 .26-.42.54-.85.54h-2.98c-.42 0-.85-.28-.85-.55v-.8c0-.26.37-.53.84-.53zm-8.5 0h2.97c.42 0 .85.27.85.54v.8c0 .26-.43.54-.85.54h-2.98c-.43 0-.85-.28-.85-.55v-.8c-.07-.26.36-.53.84-.53zm-8.52 0h2.98c.43 0 .86.27.86.54v.8c0 .26-.43.54-.85.54h-2.97c-.42 0-.85-.28-.85-.55v-.8c-.05-.26.37-.53.85-.53zm2.92 22.76h-2.97c-.43 0-.85-.27-.85-.54v-5.46c0-.27.42-.54.85-.54h2.97c.43 0 .86.27.86.54v5.45c0 .26-.37.53-.85.53zm8.57 0h-2.98c-.43 0-.85-.27-.85-.54v-5.46c0-.27.4-.54.84-.54h2.98c.42 0 .85.27.85.54v5.45c-.06.26-.38.53-.85.53zm8.5 0h-2.98c-.42 0-.85-.27-.85-.54v-5.46c0-.27.42-.54.84-.54h2.98c.43 0 .85.27.85.54v5.45c0 .26-.37.53-.85.53zm8.5 0h-2.97c-.42 0-.85-.27-.85-.54v-5.46c0-.27.43-.54.85-.54h2.98c.42 0 .85.27.85.54v5.45c.05.26-.37.53-.85.53zm8.52 0h-2.98c-.43 0-.85-.27-.85-.54v-5.46c0-.27.43-.54.86-.54h2.98c.42 0 .85.27.85.54v5.45c.04.26-.33.53-.86.53z" fill="#aefeb0"/><path d="M216.22 166.17q-.25.38-.62.72-.38.33-.86.58-.47.24-1.03.4-.55.13-1.17.13-1.1 0-2.06-.4-.96-.38-1.65-1.08-.7-.7-1.1-1.66-.4-.96-.4-2.1 0-1.14.4-2.1.4-.96 1.1-1.65.7-.7 1.65-1.1.95-.38 2.06-.38.93 0 1.86.37.92.35 1.58 1.2l-.88.66q-.16-.24-.43-.48-.26-.24-.6-.42-.35-.2-.75-.3-.4-.1-.8-.1-.95 0-1.7.34-.77.35-1.3.95t-.8 1.37q-.3.78-.3 1.64 0 .86.3 1.64.27.8.8 1.38.53.6 1.3.94.75.36 1.7.36.4 0 .8-.07.38-.06.75-.23.38-.17.7-.46.34-.28.62-.72zM216.42 157.1h.93v5.1h.03q.15-.25.4-.48.23-.23.53-.4.3-.15.63-.24.33-.1.66-.1 1.26 0 1.86.68.6.67.6 1.9v4.2h-.92v-3.66q0-1.1-.38-1.68-.38-.6-1.4-.6-.08 0-.4.07-.33.04-.7.3-.35.25-.63.76-.28.5-.28 1.4v3.4h-.93zM224.43 158.62q0 .3-.2.48-.22.2-.47.2-.26 0-.47-.2-.22-.2-.22-.48 0-.3.2-.5.22-.18.48-.18.25 0 .46.2.2.18.2.48zm-.2 9.13h-.94v-6.6h.92zM229.4 166.82h1.93q.55 0 1.03-.1.48-.12.83-.36.35-.23.55-.58.2-.35.2-.85 0-.98-.63-1.46t-1.86-.48h-2.07zm0-4.68h2.03q.37 0 .73-.1.36-.08.65-.3.3-.2.48-.54.18-.33.18-.8 0-.16-.06-.44-.07-.28-.28-.57-.22-.3-.65-.5-.42-.2-1.14-.2h-1.94zm-1.03-4.37h2.98q.62 0 1.2.13.57.13 1.02.42.45.3.72.78.26.48.26 1.18 0 .82-.46 1.4-.46.6-1.3.8 1.06.1 1.65.75.6.66.6 1.76 0 .23-.12.7-.12.46-.5.92t-1.1.8q-.72.33-1.9.33h-3.06zM239.5 164.47q-.36 0-.9.03-.52.04-1 .17-.5.14-.84.42-.34.27-.34.76 0 .33.13.56.13.23.36.38.24.15.5.2.3.08.57.08.5 0 .88-.17.37-.16.63-.45.25-.3.37-.68.12-.4.12-.82v-.48zm.47-.76v-.16q0-1.7-1.7-1.7-1.15 0-2 .77l-.57-.66q.93-.95 2.8-.95.47 0 .9.13.46.14.78.43.32.3.52.72.2.44.2 1.05v2.94q0 .38.03.8l.08.68h-.9l-.05-.52-.02-.55H240q-.4.66-.97.95-.56.3-1.36.3-.44 0-.84-.13-.4-.12-.73-.36-.32-.25-.5-.6-.2-.37-.2-.85 0-.8.42-1.27.4-.46 1.04-.68.63-.23 1.34-.3.7-.04 1.3-.04zM242.77 161.16q.03.26.03.52v.53h.04q.16-.25.4-.48.23-.23.53-.4.3-.15.63-.24.33-.1.65-.1 1.27 0 1.88.68.6.67.6 1.9v4.2h-.93v-3.66q0-1.1-.38-1.68-.38-.6-1.4-.6-.08 0-.4.07-.33.04-.68.3-.36.25-.65.76-.3.5-.3 1.4v3.4h-.92v-5.15l-.02-.67-.05-.77zM249.47 164.13l3.12-2.97h1.4l-3.3 3 3.64 3.6h-1.44l-3.43-3.47v3.45h-.93V157.1h.93z"/></svg>