<svg xmlns="http://www.w3.org/2000/svg" style="isolation:isolate" width="300" height="300"><defs><clipPath id="a"><path d="M0 0h300v300H0z"/></clipPath></defs><g clip-path="url(#a)"><clipPath id="b"><path d="M0 0h300v300H0V0z" fill="#FFF"/></clipPath><g clip-path="url(#b)"><path d="M0 0h300v300H0V0z" fill="#C4ECFF"/><path d="M271.2 168.6c-.2-17.5-51-31.5-113.9-31.5-62.6 0-113.5 14-113.9 31.5H0V300h300V168.6h-28.8z" fill="#FFF"/><path d="M132 195.5c-.2.3-.2.8 0 1.2.5.3 1 .3 1.3 0l.5-.5c.4-.5 1-.5 1.5 0 .4.3.4 1 0 1.4l-1.3 1.3a1 1 0 0 0 0 1.4c.4.5 1 .5 1.5 0l2-2h.6c.2.3.2.6 0 .7l-.3.4c-.2.2-.2.5 0 .7h.6l4.3-4.3c.2 0 .2-.4 0-.6 0-.2-.5-.2-.7 0l-.7.8h-.6c-.3-.2-.3-.5 0-.6l1.3-1.5c.9-.8.9-2 0-3-.8-.9-2-.9-3 0v.1h-.7v-.7l.4-.3v-.6h-.6l-6 6.3-.1-.2zm10.2-11.3c-.4 0-.5.6-.3 1 .3.5 1 .6 1.4.4l.6-.4c.4-.3 1 0 1.3.4.3.5 0 1.2-.4 1.4l-1.7 1c-.6.2-.7 1-.3 1.4.2.5 1 .6 1.4.4l2.4-1.5c.2 0 .5 0 .6.3v.6h-.5c-.3.2-.4.5-.3.7 0 .2.4.3.6.2l5.2-3c.2-.3.3-.5.2-.7-.2-.2-.4-.3-.6-.2l-.8.6c-.2.2-.5 0-.6 0v-.7l2-1c1-.7 1.3-2 .7-3-.6-1-2-1.3-3-.7h-.6c0-.3 0-.6.2-.7l.2-.2c.3-.2.3-.4.2-.6 0-.2-.4-.3-.6-.2L142 184l.2.2zm11 2.8c-.4.2-.6.8-.3 1.2.2.4.7.5 1.2.3l.5-.4c.5-.3 1.2-.2 1.5.3.3.5 0 1.2-.4 1.5l-1.6 1c-.5.2-.7.8-.4 1.4.3.6 1 .8 1.5.5l2.4-1.5c.2 0 .5 0 .6.2 0 .2 0 .6-.2.7l-.3.2c-.2 0-.2.4 0 .6 0 .2.3.3.5.2l5.3-3c.2-.3.3-.5 0-.7 0-.2-.2-.3-.4-.2l-1 .6c-.2 0-.4 0-.6-.2 0-.2 0-.5.2-.6l1.8-1c1-.6 1.3-2 .7-3-.4-1-1.7-1.2-2.7-.6-.3.2-.6 0-.7 0v-.7l.5-.2c.3 0 .4-.4.3-.6 0-.2-.4-.3-.6-.2l-7.5 4.3-.3-.1zm-11 11c-.4.5-.4 1 0 1.4.3.4.9.4 1.3 0l.5-.4c.5-.4 1-.4 1.5 0 .4.4.4 1 0 1.5l-1.2 1.3c-.5.5-.5 1 0 1.5.4.4 1 .4 1.4 0l2-2h.6c.2.2.2.5 0 .6l-.3.4c-.2 0-.2.4 0 .6h.6l4.3-4.3v-.5c-.3-.2-.6-.2-.7 0l-.8.7c0 .2-.4.2-.6 0-.3 0-.3-.4 0-.6l1.4-1.4c.8-.8.8-2 0-3-1-.8-2.2-.8-3 0-.3.3-.5.3-.7 0-.2 0-.2-.3 0-.5l.3-.3c.2-.2.2-.4 0-.6-.2-.2-.4-.2-.6 0l-6 6v-.4zm12.7-26.5c-.3.2-.5.8-.2 1.2.2.4.7.5 1 .3l.7-.4c.5-.3 1.2-.2 1.5.3.2.4 0 1-.4 1.4l-1.6 1c-.5.3-.7.9-.4 1.4.3.5 1 .7 1.4.4l2.6-1.3c.2-.2.5 0 .6 0 .2.3 0 .6 0 .7l-.5.2c-.3.2-.3.4 0 .6 0 .2.3.3.5.2l5.2-3c.2 0 .2-.5 0-.7 0-.2-.3-.3-.5-.2l-1 .6s-.3 0-.5-.2c0-.2 0-.5.2-.6l1.8-1c1-.6 1.3-2 .7-3-.6-1-2-1.2-3-.6-.3.2-.5 0-.6 0-.2-.3 0-.6 0-.7h.5c0-.2.2-.5 0-.7 0-.2-.3-.3-.5-.2l-7.5 4.4v-.1zm10 5.7c-.5.3-.6.8-.4 1.2.3.4.8.6 1.2.3l.6-.3c.5-.3 1 0 1.4.4.3.5 0 1-.4 1.4l-1.5 1c-.5.2-.7.8-.4 1.3.3.5 1 .7 1.4.4l2.5-1.4c.2 0 .4 0 .6.2 0 .2 0 .4-.3.6l-.4.3c-.2 0-.3.4 0 .6h.4l5.2-3s.2-.4 0-.6c0-.2-.3-.2-.5 0l-1 .4s-.4 0-.5-.2c0-.2 0-.4.2-.5l1.7-1c1-.5 1.3-1.8.7-2.8-.6-1-1.8-1.5-2.8-.9h-.3c-.2.2-.4 0-.6 0 0-.3 0-.5.3-.7l.4-.2c.2 0 .3-.4 0-.6 0-.3-.2-.3-.4-.2l-7 4.3h-.1zm2.9-14.1c-.5.3-.8.7-.6 1.2 0 .4.5.7 1 .6l.7-.2c.4 0 1 .2 1 .8.3.5 0 1-.6 1.2l-1.8.5c-.5.3-.8.8-.7 1.4 0 .5.6 1 1.2.7l2.7-.6c.2 0 .4 0 .5.3 0 .2 0 .5-.4.5h-.3c-.2.2-.4.4-.3.7l.5.2 5.8-1.6c.3 0 .4-.3.3-.5 0 0-.3-.3-.5-.2l-1 .3c-.3 0-.6 0-.6-.3 0-.2 0-.4.3-.5l2-.5c1-.3 1.8-1.5 1.5-2.6a2 2 0 0 0-2.6-1.3h-.2c-.2 0-.5 0-.5-.3 0-.2 0-.5.3-.5l.4-.3c.4 0 .5-.2.4-.5 0-.2-.4-.3-.6-.3l-8.2 2 .3-.2zm9.5 5.6c-.5 0-.8.6-.6 1 0 .5.6.7 1 .6l.7-.2c.5 0 1 .2 1.3.8 0 .5-.2 1-.8 1.3l-1.7.5c-.5.2-.8.8-.7 1.3.2.6.7 1 1.3.8l2.7-.8c.3 0 .5 0 .6.3 0 .4-.2.6-.4.7h-.5l-.2.7c0 .2.3.4.5.3l5.8-1.7c.4 0 .5-.3.4-.5 0-.2-.2-.3-.5-.3l-1 .3c-.3 0-.6 0-.6-.3 0-.2 0-.5.3-.5l2-.6a2 2 0 0 0 1.4-2.4 2 2 0 0 0-2.4-1.5h-.2c-.2.2-.4 0-.5-.2-.2-.2 0-.4.2-.5h.4c.3-.2.4-.4.4-.6 0-.3-.3-.4-.6-.3l-8.2 2.2-.1-.4zm3-10.7c-.5.2-.6.9-.4 1.3.3.4.8.5 1.2.3l.6-.3c.5-.3 1-.2 1.4.3.3.5 0 1.2-.4 1.5l-1.5 1c-.4.2-.6.8-.3 1.3s1 .7 1.4.4l2.6-1.4h.6c0 .3 0 .6-.2.7l-.4.2c-.2.2-.3.4 0 .6 0 .2.2.3.4.2l5.2-3c.2 0 .3-.4.2-.6 0-.2-.4-.3-.6-.2l-1 .6s-.4 0-.5-.2c0-.2 0-.5.2-.6l1.7-1c1-.6 1.4-2 .8-3a2 2 0 0 0-2.8-.7h-.2c-.2.2-.4 0-.6 0 0-.3 0-.6.2-.7l.4-.2c.2 0 .3-.4 0-.6 0-.3-.2-.4-.4-.3l-7.4 4.3-.2.1zm9 5.3c-.5.2-.6.8-.4 1.2.3.4.8.5 1.2.3l.6-.3c.5-.3 1-.2 1.4.3.3.5 0 1.2-.4 1.5l-1.5 1c-.4.2-.6.8-.3 1.3s1 .7 1.4.4l2.7-1.5c.2-.2.4 0 .6 0 0 .3 0 .6-.2.7l-.4.2c-.2.2-.3.4 0 .6 0 .2.2.3.4.2l5.2-3c.2 0 .3-.4.2-.6 0-.2-.4-.3-.6-.2l-1 .6s-.4 0-.5-.2c0-.2 0-.5.2-.6l1.7-1c1-.6 1.4-2 .8-3-.6-1-1.8-1.2-2.8-.6h-.2c-.2.2-.4 0-.6 0 0-.3 0-.6.2-.7l.4-.3c.2 0 .3-.4 0-.6 0 0-.2-.2-.4 0l-7.5 4.2-.2.1zm12.5-7.8c-.5 0-.7.6-.6 1 0 .5.6.8 1 .7l.7-.2c.6-.2 1 .2 1.3.7 0 .6-.2 1.3-.8 1.4l-1.7.5c-.6 0-1 .7-.8 1.3.2.5.8.8 1.3.7l2.8-.7c.2 0 .4 0 .5.3 0 .3 0 .5-.3.6h-.5l-.3.6c0 .3.3.4.6.3l5.9-1.5c.2 0 .3-.3.3-.5-.2-.3-.4-.4-.7-.3l-1 .2c-.3 0-.5 0-.6-.3 0 0 0-.3.3-.4l2-.5c1.3-.2 2-1.5 1.7-2.6-.3-1-1.5-1.8-2.6-1.5-.4 0-.7 0-.8-.2 0-.3 0-.5.4-.6h.5c.3 0 .4-.4.4-.6 0-.2-.3-.4-.6-.3l-8.3 2.2-.1-.3zm-9.2-6c-.5 0-.8.6-.6 1 0 .5.5.8 1 .7l.7-.2c.5 0 1 .2 1.3.7 0 .6-.3 1.2-1 1.3l-1.7.5c-.6 0-1 .7-.8 1.3.2.5.7 1 1.3.7l2.7-.7c.3 0 .5 0 .6.3 0 .3 0 .6-.3.6h-.6a1 1 0 0 0-.3.7l.6.3 5.8-1.6c.3 0 .4-.3.3-.5 0-.2-.2-.4-.5-.3l-1 .2c-.2 0-.5 0-.5-.3 0 0 0-.3.3-.4l2-.5c1-.2 1.7-1.4 1.4-2.5a2 2 0 0 0-2.5-1.4h-.3c-.2.2-.4 0-.5-.2 0-.2 0-.5.3-.5l.4-.2c.2 0 .3-.2.3-.4s-.3-.3-.6-.3L192 150l.6-.5zM90.5 274c-.2.4 0 1 .5 1 .4.3 1 0 1-.4l.5-.7c0-.5.7-.8 1.2-.5.6.2.8.8.6 1.4l-.8 1.7c-.2.5 0 1.2.6 1.4.5.2 1 0 1.4-.6l1-2.6c.2-.2.4-.3.7-.2.2 0 .3.4.2.6l-.3.4c0 .2 0 .6.2.7 0 0 .4 0 .5-.2l2.4-5.7c0-.2 0-.4-.3-.5-.3 0-.5 0-.6.3l-.3 1c0 .2-.4.3-.6.2 0 0-.2-.4 0-.6l.7-2c.5-1 0-2.2-1-2.7s-2.4 0-2.8 1l-.2.2c0 .2-.3.3-.6.2-.2 0-.3-.3-.2-.5l.2-.4c0-.3 0-.5-.2-.6-.2 0-.5 0-.6.2l-3.5 8 .3-.1zm5.4-14.3c-.3.4-.3 1 0 1.3.5.3 1 .2 1.3-.2l.4-.4c.4-.4 1-.5 1.5-.2.5.4.5 1 .2 1.5L98 263c-.3.5-.2 1 .2 1.5.5.4 1 .3 1.5-.2l1.7-2.2c0-.2.4-.2.6 0 0 0 .2.4 0 .5l-.3.3v.6c.3 0 .6 0 .7-.2l3.7-4.8c.2 0 .2-.3 0-.5h-.6l-.6 1h-.6c-.2-.2-.2-.4 0-.6l1.2-1.7c.7-1 .6-2.2-.3-3-1-.7-2.2-.5-3 .4-.2.3-.5.3-.6.2 0-.3-.2-.5 0-.7l.3-.4v-.7h-.7l-5.3 6.9v.3zm11.2-1.3c-.3.4-.3 1 0 1.3.5.3 1 .2 1.3 0l.4-.8c.5-.4 1-.5 1.6 0 .4.3.5 1 .2 1.4l-1.3 1.5c-.4.5-.4 1.2.2 1.5.4.4 1 .3 1.4 0l1.7-2.4h.7c.2.2.3.5 0 .7l-.2.3v.6c.3.2.5.2.7 0l3.7-4.8v-.7c-.3-.2-.6-.2-.7 0l-.7 1h-.6a.5.5 0 0 1 0-.7l1.2-1.6c.7-1 .6-2.2-.3-3-1-.6-2.3-.5-3 .4h-.2c0 .3-.4.4-.6.2 0 0-.2-.4 0-.6l.3-.4v-.6h-.7l-5.4 6.8.3-.1zm-6.2 14.3c-.2.5 0 1 .5 1.2.4.2 1 0 1-.4l.4-.7c.2-.4.8-.6 1.4-.4.5.2.7.8.5 1.4l-.6 1.6a1 1 0 0 0 .5 1.5c.4.2 1 0 1.3-.5l1-2.7c.2-.3.5-.4.7-.3.2 0 .3.3.2.5l-.2.4c0 .3 0 .5.2.6.3 0 .5 0 .6-.2l2.5-5.5c0-.2 0-.5-.2-.6-.2-.2-.5 0-.6 0l-.4 1c0 .3-.3.4-.6.3-.3 0-.4-.3-.3-.5l.9-2c.5-1 0-2.2-1-2.7-1-.3-2.4.2-2.9 1.2v.2c-.2.2-.4.3-.6.2-.2 0-.3-.4-.2-.6v-.4c.2-.2 0-.5 0-.6-.3 0-.6 0-.7.2l-3.4 8v-.2zm.7-24.4c-.3.5 0 1 .4 1.2.4 0 1-.2 1-.6l.4-.6c.2-.5.8-.8 1.3-.6.7.3 1 1 .7 1.4l-.8 1.7c-.3.5 0 1 .5 1.4.5.2 1 0 1.4-.6l1-2.5c0-.2.3-.3.6-.2.2 0 .3.3.2.6l-.2.3c0 .2 0 .5.2.5s.5 0 .6-.2l2.5-5.5s0-.4-.2-.5c-.3 0-.5 0-.6.3l-.4 1c0 .2-.4.3-.6.2-.2 0-.3-.4-.2-.6l.8-2a2 2 0 0 0-1-2.7c-1-.5-2.5 0-2.9 1v.2c-.2.2-.4.3-.7.2 0 0-.2-.3 0-.5v-.5c.2-.2 0-.4 0-.5-.3 0-.6 0-.7.2l-3.4 7.8.1.1zm11-1.3c0 .5 0 1 .7 1.2.4.2 1 0 1-.5l.4-.5c.2-.5.8-.8 1.3-.5.6.2.8.8.6 1.3l-.8 1.7c-.3.5 0 1.2.5 1.4.5.2 1 0 1.4-.6l1.2-2.6c0-.2.4-.3.6-.2.2 0 .3.4.2.6l-.2.4c0 .2 0 .5.2.6.2 0 .5 0 .6-.2l2.4-5.6c0-.2 0-.4-.2-.5-.2 0-.5 0-.6.2l-.4 1c0 .2-.4.3-.6.2-.2 0-.3-.4-.2-.6l.8-1.9c.5-1 0-2.2-1-2.7s-2.4 0-2.8 1v.2c-.2.2-.4.3-.6.2-.3-.2-.4-.4-.3-.6l.3-.4c0-.3 0-.5-.2-.6 0 0-.4 0-.5.2l-3.4 7.9-.4-.1zm-5.8-13c-.3.4-.3 1 0 1.2.5.3 1 .3 1.3 0l.4-.6c.3-.4 1-.5 1.5 0 .5.3.5 1 .2 1.4l-1.3 1.4c-.3.4-.2 1 .3 1.5.5.3 1 .2 1.5-.2l1.8-2c.2-.3.5-.3.7-.2 0 .2.2.4 0 .6l-.3.4v.6h.7l3.6-4.8c.2-.2.2-.5 0-.6h-.6l-.7 1h-.6c-.2-.2-.2-.5 0-.6l1.2-1.6c.6-1 .5-2.3-.4-3-1-.7-2.2-.5-3 .4-.2.3-.5.3-.6 0-.2 0-.3-.3 0-.5l.2-.3v-.6c-.3-.2-.6 0-.7 0l-5.4 6.7.2-.2zm10.9-1.2c-.3.4-.3 1 0 1.2.5.3 1 .2 1.3 0l.4-.7c.4-.4 1-.5 1.5 0 .5.2.5 1 .2 1.3l-1.2 1.6c-.3.4-.2 1 .2 1.4.5.4 1 .3 1.5 0l1.6-2.3c.2-.2.5-.3.7 0 0 0 .2.3 0 .5l-.3.3v.6c.3.3.6.3.7 0l3.9-4.6v-.6c-.3-.2-.6 0-.7 0l-.7 1h-.5a.5.5 0 0 1 0-.7l1.2-1.5c.7-1 .6-2.2-.3-3-1-.6-2.3-.5-3 .4-.3.2-.6.3-.7 0-.2 0-.3-.3 0-.5l.2-.3v-.6c-.3-.2-.6-.2-.7 0l-5.3 6.7v-.2zm-4-10.4c0 .5 0 1 .5 1.2.5.2 1 0 1.2-.5l.2-.6c.2-.4.8-.7 1.3-.4.6.2.8.8.6 1.3l-1 1.6c0 .6.2 1.3.7 1.5.5.2 1 0 1.4-.6l1.2-2.7c0-.2.3-.3.6-.2.2 0 .3.4.2.6l-.2.4c0 .2 0 .5.2.6.2 0 .5 0 .6-.3l2.4-5.6c0-.2 0-.4-.2-.5-.3-.2-.5 0-.6 0l-.4 1c0 .3-.4.4-.6.3-.2 0-.3-.4-.2-.6l.8-2c.5-1 0-2-1-2.6-1-.4-2.4 0-2.8 1.2-.2.3-.4.4-.7.3-.2 0-.3-.3-.2-.5l.3-.4c0-.3 0-.5-.2-.6 0 0-.4 0-.5.2l-3.6 8v-.1zm10.4-1c-.2.3 0 .8.5 1 .3.2.8 0 1-.4l.4-.7c.2-.6.8-.8 1.3-.6.6.2.8.8.6 1.4l-.7 1.6a1 1 0 0 0 .5 1.4c.5.2 1.2 0 1.4-.5l1-2.6c.2-.2.5-.3.7-.3.3 0 .4.4.3.6l-.2.4c0 .2 0 .5.3.6.3 0 .5 0 .6-.2l2.3-5.5c0-.3 0-.5-.2-.6 0 0-.4 0-.5.2l-.4 1s-.3.2-.5 0c-.2 0-.3-.2-.2-.5l.8-1.8c.6-1 0-2.3-1-2.8s-2.2 0-2.7 1c-.2.4-.4.5-.6.4-.3 0-.4-.4-.3-.6l.2-.4c0-.2 0-.5-.2-.6-.2 0-.5 0-.6.2l-3.5 8-.3.3zm9-14.7a1 1 0 0 0-.3 1.2c.2.4.8.5 1.2.3l.6-.4c.5-.3 1 0 1.4.4.3.6 0 1-.4 1.5l-1.6 1c-.5.2-.6.8-.4 1.3.3.5 1 .7 1.5.4l2.4-1.3h.6v.7l-.5.3c-.2 0-.3.3-.2.5 0 .2.4.3.6.2l5.3-3c.2 0 .3-.4.2-.6-.2-.2-.4-.3-.6-.2l-1 .6c-.3 0-.5 0-.6-.2-.2-.2 0-.4 0-.6l2-1c1-.7 1.3-1.9.8-2.9-.6-1-2-1.4-3-.8-.3.2-.6 0-.7 0v-.7h.5c.3-.2.4-.5.3-.7 0-.2-.4-.3-.6-.2l-7.4 4.4-.1-.2zm-10.4-3.4c-.5.2-.6.8-.4 1.2.3.4.8.5 1.2.3l.6-.3c.5-.3 1-.2 1.4.3.4.5 0 1.2-.4 1.5l-1.5 1c-.6.2-.8.8-.5 1.3.3.6 1 .8 1.4.5l2.5-1.5h.6c0 .3 0 .6-.2.7l-.4.2c-.2.3-.3.5-.2.7.2.2.4.3.6.2l5.2-3c.2 0 .3-.5.2-.7 0-.2-.4-.3-.6-.2l-1 .6s-.4 0-.5-.2c0-.2 0-.5.3-.6l1.7-1c1-.6 1.4-2 .8-3-.6-1-2-1.2-3-.6-.2.2-.5 0-.6 0 0-.3 0-.6.2-.7l.4-.2c.2 0 .3-.4 0-.6 0-.3-.2-.4-.5-.3l-7.3 4.4zm-26 96.7v-1.3c0-.3-.2-.5-.4-.5-.3 0-.5.2-.5.4v1l-.2.4h1.1zm-1.7 0l-.1-.3v-2c0-1.2-1-2-2-2-1.4 0-2.3.8-2.3 2 0 .3-.2.5-.4.5-.4 0-.6-.2-.6-.4v-.5c0-.3-.2-.5-.4-.5s-.4.2-.4.5v2.7H95zm5 0c0-.5.4-1 1-1 .5 0 1 .5 1 1h2v-1s.3-.3.5-.3c0 0 .3.2.3.4v.6c0 .1 0 .2.2.3h.6l.1-.3v-6c0-.3-.2-.5-.4-.5-.3 0-.5.3-.5.5v1c0 .3-.2.5-.4.5-.3 0-.5-.2-.5-.4v-2c0-1.3-1-2-2-2-1.3 0-2.2.7-2.2 2 0 .3-.2.5-.4.5-.4 0-.6 0-.6-.3v-.5c0-.3-.2-.5-.4-.5s-.4.2-.4.5v7.5h2.1zm-2.4-14c0 .4.3 1 .7 1 .5 0 1 0 1-.6l.2-.6c0-.6.7-1 1.2-.8.6.2 1 .7.8 1.3l-.5 1.8c-.2.5.2 1 .7 1.2.6.2 1.2 0 1.3-.7l.7-2.7c0-.2.3-.3.6-.2.2 0 .3.3.3.5v.4c0 .3 0 .5.3.5.2 0 .4 0 .5-.3l1.5-6s0-.3-.3-.4c-.2 0-.4 0-.5.3l-.3 1c0 .2-.3.3-.5.2-.2 0-.4-.3-.3-.5l.5-2c.2-1-.4-2.2-1.5-2.5-1.2-.3-2.3.3-2.6 1.5-.2.3-.4.5-.7.4-.2 0-.3-.2-.3-.4l.2-.5s0-.3-.4-.4c-.2 0-.4 0-.5.3l-2.1 8v.2zm-9.7 4.8c0 .5 0 1 .6 1 .4.3 1 0 1-.5l.2-.6c.2-.7.7-1 1.3-1 .5.3 1 1 .7 1.4l-.4 1.9c-.2.5 0 1 .7 1.2.7.2 1 0 1.4-.7l.7-2.8c0-.3.3-.4.5-.3.3 0 .4.3.3.5v.4c0 .3 0 .5.2.6.3 0 .5 0 .6-.3l1.6-6c0-.2 0-.4-.3-.5-.2 0-.5 0-.5.3l-.3 1c0 .3-.3.4-.5.4-.3 0-.4-.3-.3-.6l.5-2c.3-1-.4-2.2-1.5-2.5-1-.2-2.3.5-2.6 1.6 0 .3-.4.5-.6.4-.2 0-.4-.3-.3-.5v-.4c.2-.2 0-.4-.2-.5 0 0-.4 0-.4.3l-2.2 8.3H88l-.1-.1z" fill-rule="evenodd" fill="#DDD"/><path d="M27.4 258.4H21v-31.3h6.4v31.3h-.1z" fill="#2E1803"/><path d="M26.4 222.3s2 2 4.6 2.6c-5-4.3-6-15.5-6-15.5s2 2.2 3.4 2.4c-4-3.8-4.2-6.5-4.2-9.5 0 3-.2 5.7-4 9.5 1.2-.2 3.3-2.5 3.3-2.5s-1 11.3-6 15.6c2.4-.5 4.5-2.5 4.5-2.5s-2.1 11.4-8.4 16.9c2.5 0 6.8 0 10.5-2.2a20 20 0 0 0 10.6 2.3c-6.3-5.4-8.5-16.8-8.5-16.8l.2-.3z" fill="#031"/><path d="M22.8 216.5c0 1 .8.8 1 2.3.3 1.6.9 3.4 1.7 3.5.8.3 1.3-.2 1.3-1.3 0-.9-1-.9-1.3-3.5-.2-1.1.6-5-1-5.2-1.4 0-1.8 3.2-1.8 4.3l.1-.1z" fill="#FFF"/><path d="M238.2 291.2h-10.8v-53.7h11v53.7h-.2z" fill="#2E1803"/><path d="M236.4 229.3s3.6 3.5 7.9 4.4C235.6 226.3 234 207 234 207s3.6 3.8 6 4c-7-6.3-7-11-7-16 0 5-.5 9.7-7.4 16 2.6-.1 6-4 6-4s-1.5 19.2-10.3 26.7c4.2-1 7.9-4.4 7.9-4.4s-3.7 19.6-14.5 29.1c4.3 0 11.7 0 18-4 6.6 4 14 4 18.4 4-11-9.5-14.6-29.1-14.6-29.1h-.1z" fill="#031"/><path d="M224.5 246.6c5-3.2 13.8 2.5 17.1 6 1.2 1.3.4 3.3-1.6 2.2-3.2-1.7-5.5-1.4-10.5 0-4.9 1.7-7.5-6.7-4.9-8.3l-.1.1z" fill="#FFF"/><g><path d="M234.8 153.7h-4V134h4v19.8-.1z" fill="#2E1803"/><path d="M234.2 130.9s1.3 1.3 2.8 1.6c-3-2.7-3.7-9.8-3.7-9.8s1.2 1.3 2 1.4c-2.4-2.4-2.5-4-2.5-6 0 2-.2 3.6-2.7 6 1 0 2.2-1.5 2.2-1.5s-.6 7-3.7 9.7c1-.3 2-.8 2.8-1.6 0 0-1.2 7.2-5.3 10.6 1.7 0 4.4 0 6.8-1.4 2.3 1.4 5 1.4 6.6 1.4-4-3.4-5.2-10.6-5.2-10.6l-.1.2z" fill="#031"/><path d="M234.4 138h1c.3.1.7.5.8 1 .2.3 0 .5-.5.4l-1-.7c-.3-.2-.5-.2-.6 0 0 0 0 .2.5.7l.6 1s0 .2-.3 0c-.2 0-.5 0-.7-.4l-.4-.8c0-.2-.2-.3-.3-.4v.7h-.5l-.2-.5c0-.2.2-.3.3-.5v-.2c-.2 0-.3-.2-.6 0h-.6c-.3 0-.7-.3-.8-.5 0-.2-.2-.5 0-.5.3 0 .6 0 1 .3l.6.2c.2 0 0-.3-.3-.5l-.6-.5c-.2-.2-.3-.3-.2-.5h.4l.4.5.4.6s.3 0 0-.2c0-.3-.4-.8-.5-1-.2-.4 0-.6.5-.4.3.2.6.6.6 1 .2 0 0 .5.2.8.2.3.5.5.8.5v-.1z" fill="#FFF"/></g><g><path d="M29.7 179.8h-4v-20.3h4v20.3z" fill="#2E1803"/><path d="M29 156.3s1.3 1.3 3 1.6c-3.3-3-4-10-4-10s1.4 1.3 2.3 1.4c-2.5-2.4-2.6-4.2-2.6-6 0 1.8 0 3.6-2.8 6 1 0 2.4-1.5 2.4-1.5s-.6 7-4 10c1.6-.4 3-1.7 3-1.7s-1.4 7.4-5.5 11.1c1.6 0 4.5 0 6.9-1.6 2.5 1.5 5.3 1.5 7 1.5-4.2-3.6-5.6-11-5.6-11l-.1.2z" fill="#031"/><path d="M28.7 162.9c.8 1.5 1.2 1.2 1.3 1 0 0 .4 0 .7.4.4.6.6.4.7.4.2-.2 0-.7-.5-1.7-.6-1-1-1.4-.7-1.5.2 0 .2.3.4.2.2 0-.2-.6-.5-1-.4-.6-1.5-2-2-2 0 .2.7 1 .5 1-.3.3-.7-.7-1-.5-.5.3.3 1 .7 1.7.2.4-1-.2.3 1.8l.1.2zm-2.2-9.9c.4-.7 1-1.2 1.4-1 .4.3.3 1 0 1.8-.6.8-1.8 2.3-2.2 2-.3-.2.3-2 .8-2.7v-.1z" fill="#FFF"/></g></g></g></svg>
