<svg xmlns="http://www.w3.org/2000/svg" width="300" height="300"><path fill="#4155a5" d="M0 0h300v300H0z"/><path d="M172.98 252.67s-5.2-.9-8.8.86c.6.45 1.2 1 1.87 1.6 12.37 12.26-.27 36.7-21.28 39.7 0 0 12.63-12.17 11.05-25.65-.53-3.92-2.38-6.74-4.06-8.27-1.68-1.52-3.93-2.8-2.37-6.74 1.6-3.97 12.15-10.77 23.58-1.5z" fill="#3db63a" stroke-width="2.48" stroke="#000" stroke-linecap="square"/><path d="M193.4 249.24s-5.22.7-8.15 3.45c.7.25 1.47.6 2.28.97 15.46 8 10.7 35.1-8.46 44.23 0 0 8.42-15.38 2.88-27.77-1.67-3.6-4.28-5.73-6.34-6.7-2.04-.94-4.58-1.5-4.26-5.72.33-4.26 8.4-13.9 22.07-8.46z" fill="#3db63a" stroke-width="2.48" stroke="#000" stroke-linecap="square"/><path d="M100.7 262.4c1.12-.1 2.5 2.17 1.4 4.4-1.07 2.24-7.7 5.98-14.57 5.57-6.9-.4-13.85-2.5-16.42-9.18 0 0 7.36 5.37 16.7 3.84 9.28-1.56 10.66-4.62 12.9-4.63z" fill="#3eb73a" stroke-width="1.24" stroke="#000" stroke-linecap="square"/><path d="M132.77 271.12s-3.05-1.97-5.82-1.8c.26.43.5.96.77 1.5 4.56 11.1-10 23.2-24.1 19.5 0 0 11.25-4.35 13.85-13.32.72-2.63.3-4.9-.36-6.33-.64-1.42-1.73-2.83.3-4.9 2.1-2.1 10.6-3.6 15.37 5.35z" fill="#3db63a" stroke-width="2.48" stroke="#000" stroke-linecap="square"/><path d="M116.42 275.78s-2.74-3.18-5.85-3.92c.14.58.24 1.24.35 1.94 1.4 13.78-18.7 22.42-33.14 13.65 0 0 13.9-1.1 19.74-10.18 1.66-2.68 1.95-5.35 1.7-7.14-.27-1.8-1-3.7 1.94-5.35 3-1.63 12.92-.48 15.26 11z" fill="#3db63a" stroke-width="2.48" stroke="#000" stroke-linecap="square"/><path d="M168.2 269.53l-13.03-13.46 21.05-20.38 13.03 13.45-21.06 20.38zM111.15 278.42l-2.25-21.14 45.8-4.88 2.26 21.14-45.8 4.88z" fill="#3db63a"/><path d="M87.2 261.97l12.18-17.9 24.14 16.4-12.2 17.93-24.13-16.43zM145.64 275.42l-5.77-17.82 27.87-9.02 5.77 17.82-27.86 9.02zM205.03 235.8l7.73 3 4.55 6.92z" fill="#3db63a"/><path d="M204.2 234.44l11.56 10-12.18-.84z" fill="#3db63a"/><path d="M205.67 244.54l-14.86 1.58-1.08-10.2 14.86-1.58 1.1 10.2z" fill="#3db63a"/><path d="M215.58 244.5l-6.6-1.35c-.32-.06-.55-.38-.42-.58l2.68-4.14c.15-.23.57-.22.9.02 2.15 1.57 3.56 3.62 4 5.58.08.33-.2.54-.56.46z" fill="#368b1a" fill-opacity=".31"/><path d="M216.38 245.23l-6.6-1.34c-.32-.07-.55-.4-.42-.6l2.67-4.13c.16-.24.58-.23.92.02 2.13 1.56 3.55 3.6 4 5.57.07.33-.2.54-.57.46z" fill="#368b1a" fill-opacity=".31"/><path d="M202.7 235.46l.75-1.66 8.3 3.7-.73 1.64-8.3-3.68z" fill="#010102"/><path d="M210.55 238.76l1.14-1.4 4.1 3.3-1.14 1.42-4.1-3.32z" fill="#010102"/><path d="M214.14 241.4l1.65-.75 2.16 4.8-1.65.76-2.16-4.8z" fill="#010102"/><path d="M211.28 244.88l.45-1.76 5.1 1.33-.44 1.75-5.12-1.32z" fill="#010102"/><path d="M206.35 244.5l.15-1.8 5.26.43-.14 1.8-5.27-.42z" fill="#010102"/><path d="M201.96 245.9l-.5-1.74 5.07-1.46.5 1.74-5.07 1.46z" fill="#010102"/><path d="M193.57 244.52l16.87 9.42-16.72.25z" fill="#3db63a"/><path d="M198.22 252.6l-18.94 2.03-1-9.47c-.57-5.23 3.22-9.92 8.45-10.48 5.23-.56 9.92 3.23 10.48 8.46l1.02 9.47z" fill="#3db63a"/><path d="M194.78 246.7l.74-1.65 6.6 2.94-.73 1.64-6.62-2.93z" fill="#010102"/><path d="M194.78 246.67l-.2-1.8 7.2-.77.2 1.8-7.2.77z" fill="#010102"/><path d="M214.05 250.2l-6.42 3.8-6.22-4.13z" fill="#3db63a"/><path d="M213.35 251.06l-4.58 3.3c-.22.14-.55.1-.6-.1l-1-4c-.07-.2.18-.47.52-.54 2.17-.4 4.23-.1 5.7.73.23.15.2.43-.05.6z" fill="#368b1a" fill-opacity=".31"/><path d="M201.38 249.64l.33-1.78 7.12 1.3-.32 1.78-7.12-1.3z" fill="#010102"/><path d="M208.37 250.95l-.2-1.8 7.2-.76.2 1.8-7.2.75z" fill="#010102"/><path d="M209.7 254.5l-1.08-1.47 5.85-4.25 1.06 1.46-5.84 4.26z" fill="#010102"/><path d="M202.64 255.25l-.2-1.78 7.13-.76.2 1.8-7.13.75z" fill="#010102"/><path d="M193.7 254.8l.08-1.8 9 .45-.1 1.8-9-.46z" fill="#010102"/><path d="M191.66 234.32l1.78-.2 2.14 20.03-1.8.2-2.12-20.03zM198.57 235.23l.1-1.66 4.8.25-.07 1.65-4.83-.24z" fill="#010102"/><path d="M192.82 235.86l-.18-1.65 6.03-.63.17 1.65-6.02.64z" fill="#010102"/><path d="M192.47 236.25l1.03-1.62c-4.47-2.84-10.4-1.5-13.23 2.95l1.62 1.03c2.26-3.57 7-4.62 10.57-2.35zM193.68 254.78l1.03-1.62c-4.46-2.83-10.38-1.5-13.22 2.96l1.62 1.03c2.27-3.58 7-4.64 10.58-2.37z" fill="#010102"/><path d="M129.6 225.15c-18.5 4.14-33.3 15.82-42.88 32.4 15.5 10.42 34.23 15.12 52.6 11 18.36-4.1 33.26-15.94 42.86-32.4-15.5-10.4-34.34-15.1-52.6-11z" fill="#00c584"/><path d="M155.02 274.1l-.2-2-43.84 4.68.2 2 43.84-4.68z"/><path d="M109.8 270.15l.55-5.17 25.94 2.7-.55 5.18-25.94-2.7z" fill="#fee52c"/><path d="M135.53 272.88l-1.93-4.83 24.22-9.68 1.93 4.82-24.22 9.68z" fill="#fee52c"/><path d="M159.7 263.26l-3.38-3.95 19.82-16.95 3.38 3.95-19.82 16.96z" fill="#fee52c"/><path d="M179.7 246.3l-4.42-1.4 3.63-11.46 4.45 1.4-3.64 11.47z" fill="#fee52c"/><path d="M126.63 235.7l4.02-9.66 7.52 7.28 3.46 16.82-4.06 9.62-7.5-7.25z" fill="#48b085" stroke-width=".19" stroke="#000" stroke-linecap="square"/><path d="M137.16 233.65l4.02-9.65 7.53 7.28 3.46 16.82-4.05 9.62-7.48-7.25z" fill="#48b085" stroke-width=".19" stroke="#000" stroke-linecap="square"/><path d="M146.78 232.75l2.46-9.3 7.76 5.7 5.24 14.9-2.5 9.28-7.73-5.68z" fill="#48b085" stroke-width=".19" stroke="#000" stroke-linecap="square"/><path d="M156.95 233.63l1.5-7.34 6.3 4.08 4.74 11.37-1.54 7.33-6.27-4.08z" fill="#48b085" stroke-width=".19" stroke="#000" stroke-linecap="square"/><path d="M163.68 233.53l-.04-5.92 5.53 2.14 5.52 8v5.9l-5.5-2.12zM117.5 236.8l5.16-9.1 6.6 8.15 1.4 17.12-5.2 9.06-6.56-8.1z" fill="#48b085" stroke-width=".19" stroke="#000" stroke-linecap="square"/><path d="M108.26 239.66l5.28-7.7 5.24 7.74-.05 15.34-5.3 7.66-5.23-7.7z" fill="#48b085" stroke-width=".19" stroke="#000" stroke-linecap="square"/><path d="M101.17 241.05l5.46-5.46 3.1 7.1-2.4 12.45-5.48 5.43-3.07-7.06z" fill="#48b085" stroke-width=".19" stroke="#000" stroke-linecap="square"/><path d="M164.45 271.25l-.86-1.82 9.12-4.27.85 1.82-9.12 4.27z"/><path d="M173.28 266.97l-1.23-1.2 9.9-10.03 1.23 1.22-9.9 10zM155 274.1l-.56-1.92 9.66-2.87.57 1.94-9.66 2.86zM101.95 274.7l.8-1.84 9.22 4.08-.8 1.84-9.22-4.1z"/><path d="M85.65 261.6l1.26-1.56 16.5 13.32-1.26 1.56-16.5-13.32z"/><path d="M85.32 260.8l1.84-4.85 24.4 9.23-1.84 4.86-24.4-9.23z" fill="#fee52c"/><path d="M198.05 239.24c-.85-.12-1.46-.73-1.38-1.37.1-.64.85-1.07 1.7-.96.85.13 1.46.74 1.38 1.38-.1.64-.85 1.07-1.7.96z" fill="#010102"/><path d="M198.63 237.8c.03.26-.15.48-.4.5-.24.03-.46-.15-.48-.4-.03-.24.15-.45.4-.48.23-.03.45.15.48.4z" fill="#fefefe"/><path d="M196.85 239.42l-.36.27c.72 1 2.12 1.2 3.12.48l-.26-.36c-.8.58-1.92.4-2.5-.4zM199.63 236.72l.36-.26c-.74-1-2.15-1.23-3.15-.5l.27.37c.8-.6 1.92-.4 2.5.4z" fill="#010102" fill-opacity=".1"/><path d="M154.16 254.23c.34.27.4.76.12 1.1-.28.33-.77.4-1.1.12-.34-.28-.4-.77-.12-1.1.27-.34.76-.4 1.1-.12zM133.22 224.36c.34.27.4.76.12 1.1-.27.33-.77.4-1.1.1-.34-.26-.4-.75-.12-1.1.27-.32.76-.38 1.1-.1zM133 258.33c.33.28.4.77.1 1.1-.26.34-.75.4-1.1.12-.32-.27-.38-.76-.1-1.1.27-.33.76-.4 1.1-.1zM117.7 231.7c.34.28.4.77.12 1.1-.27.34-.77.4-1.1.12-.34-.27-.4-.76-.12-1.1.27-.34.76-.4 1.1-.12z" fill="#fefefe"/><path d="M211.06 239.8c.18.26.23.54.1.63-.1.1-.36-.05-.55-.3-.17-.26-.23-.54-.1-.63.12-.1.37.05.56.3z" fill="#010102"/><path d="M-276.43 300.64l518.15.03c0-66.57-232.32-120.7-518.14-120.7v120.67z" fill="#edd3a3"/><path d="M118.39 265.47c-5.63 13.26-7.47 24.92-7.47 24.92-.03.06 9.94-8.8 15.73-22.43 5.77-13.56 5.35-25.8 5.35-25.8-.02.05-7.82 9.98-13.6 23.3zM106.48 233.65c-.12-.05-4.6 12.1-4.14 27.3.47 15.2 5.07 28.24 5.2 28.3-.07.12 5.1-12.98 4.7-28.5-.5-15.54-5.76-27.1-5.76-27.1zM98.12 266.8c-3.74-10.2-10.66-17.12-10.63-17.18-.07.12-1.2 9.14 2.46 19.02 3.7 9.98 10.8 17.65 10.8 17.65s1.1-9.27-2.64-19.5z" fill="#b868ab"/><path d="M8.3 266.17c-1.68 4.16-3.6 12.42 1.83 13.24 2.35.37 5.44-.06 8.82-1.1.6.64 1.34.8 2.06.63 1.24.08 2.35-.5 2.55-2.15l.12-.26c4.83-2.12 9.86-5.22 14.02-8.84 6.03-5.27.77-6.73 2.96-8.82 5.47-5.25 10-1.95 14.2-5.33 9.24-7.6 1.75-6.53 8.52-13.18 5.03-4.9 4.67-10.17-.2-9.7-4.2.4-10.46 5.7-11.12 3.9-.38-1.02-.3-4.17-4.25-3.78.36-.62.63-1.32.76-2.1 1.93-9.47-5.9-7.44-6.48-10.36-.34-1.6.6-4.7 1.36-6.05 2.1-3.6-1-9.43-4.8-10.73-3.2-1.35-6.58.73-8.73 3.83-1.64 2.2-2.8 3.9-3.96 3.94-2.62.2-7.32-1.62-10.55 2.47-4.06 5.2 1 7.96-.96 11.47-.98 1.8-2.33 2.46-3.75 3.07-1.4-.04-2.74-.24-4.17-1.38-3.15-2.5.48-7-5.25-10.24-4.54-2.55-8.2.9-10.7 1.73-1.1.42-2.8-.7-5.17-2.12-3.16-2.04-7.08-2.67-9.52-.2-3.02 2.65-3.65 9.22-.35 11.75 1.22.94 3.28 3.46 3.57 5.08.58 2.93-7.42 4.04-2.04 12.05 3.54 5.6 12.87 2.2 11.93 6.06-.6 2.15-1.4 6.9 2.66 9.57 4.05 2.7 7.9-3 11.76-1.98 3.44 1.07-.22 4.53 1.96 7.23 1 1.24 1.98 1.96 2.92 2.34zm28.12-15.52c.76 0 1.5-.04 2.17-.22.07.08.12.2.13.33-.18 1.15-2.37 3.42-4.16 4.48-1.9 1.08-3.26 1.17-3.15.07-.06-1 1.47-2.72 3.36-3.8.55-.34 1.12-.63 1.64-.85zm-20.58 3.08c.05-.52.12-1.06.2-1.6l.45.8c-.24.26-.45.53-.66.8zM7.76 241.2c.47.87.73 1.82.52 3-3.96-4.9-8.75-9.57-14.46-13.36 5.8 3.05 10.35 6.67 13.94 10.35zm11.86-2.7c1.92-4.7 4.72-9.7 8.83-14.64-3.85 5.7-6.5 11.9-8.3 17.97-.67-1.13-.7-2.22-.53-3.33z" fill="#fd773c"/><path d="M-24.75 246.98c1.74-2.8 9.08-4.92 12.7 2.5 4.68-2.24 10.96-3.78 12.9 5.03 3.17 9.5 5.5 15.2 19.3 21.6-10.45-1.03-27.54-.22-40.6-16.24 11.55 15.7 22.4 19.22 41.02 17.78-3.5 3.72-43.73 14.86-40.55-4.1 0 0 .68-1.45-3.37-1.65-17-2.57-6.4-26.35-22.13-29.7 8.57-2.57 23.04-5.45 20.73 4.78z" fill="#fd773c"/><path d="M270.76 241.1c-.34.23-.8.14-1.04-.2-.24-.35-.14-.82.2-1.05.35-.23.82-.14 1.05.2.23.35.14.82-.2 1.05zM109.8 216.6c-.15.1-.35.04-.45-.12-.1-.16-.04-.37.13-.46.16-.1.36-.04.46.12.1.17.04.37-.13.47zM264.68 122.62c-.34.23-.8.14-1.04-.2-.23-.35-.14-.82.2-1.05.35-.23.82-.14 1.05.2.22.35.13.82-.22 1.05zM237.6 120.8c-.15.1-.36.03-.45-.13-.1-.16-.04-.37.12-.46.16-.1.37-.03.46.13.1.16.04.37-.12.46zM34.17 138.14c-.17.1-.37.04-.47-.13-.1-.15-.03-.35.13-.45.16-.1.37-.04.46.13.08.16.03.37-.13.46zM149.75 149.88c-.16.1-.37.04-.46-.13-.1-.16-.05-.37.12-.46.16-.1.36-.05.46.12.1.16.04.36-.13.46zM209.47 64.06c-.17.1-.37.04-.47-.12-.1-.16-.03-.37.13-.46.16-.1.37-.04.46.12.08.16.03.37-.13.46zM180.58 85.4c-.17.08-.37.03-.47-.13-.08-.16-.02-.37.14-.46.16-.1.37-.03.46.13.1.16.04.37-.12.46zM179.82 89.6c-.16.1-.37.03-.46-.13-.1-.16-.04-.37.12-.46.17-.1.37-.03.47.13.1.16.03.37-.13.46zM173.15 87.94c-.17.1-.37.04-.47-.12-.1-.16-.03-.37.13-.46.17-.1.38-.04.47.12.1.16.04.37-.12.46zM224.82 60.63c-.16.1-.37.04-.46-.12-.1-.15-.04-.36.12-.45.17-.1.37-.04.47.12.1.16.03.37-.13.46zM224 67.88c-.17.1-.38.04-.47-.12-.1-.17-.04-.37.12-.47.16-.1.37-.04.46.12.1.16.05.37-.1.46zM217.8 63.98c-.17.1-.38.04-.47-.12-.1-.16-.04-.37.13-.46.16-.1.36-.04.46.12.1.16.04.37-.13.46zM270.35 68.75c-.16.1-.37.03-.46-.13-.1-.16-.05-.37.1-.46.17-.1.38-.04.47.12.1.17.04.37-.12.47zM274.88 70.9c-.16.1-.36.05-.46-.1-.1-.17-.04-.38.13-.47.16-.1.36-.04.46.12.1.16.05.37-.12.46zM268.73 73.86c-.17.1-.37.03-.47-.13-.1-.16-.03-.37.13-.46.15-.1.36-.04.45.12.1.16.04.36-.12.46zM260.33 71.67c-.16.1-.36.03-.46-.13-.1-.16-.03-.37.13-.46.16-.1.37-.04.46.12.1.17.04.37-.13.47zM95.75 54.54c-.16.1-.37.04-.46-.13-.1-.15-.05-.36.1-.45.17-.1.38-.04.47.13.1.16.04.36-.12.46zM265.5 18.12c-.15.1-.35.04-.45-.12-.1-.17-.04-.37.13-.47.16-.1.37-.03.46.13.1.16.04.37-.12.46zM258.23 217.44c-.16.1-.37.04-.46-.13-.1-.15-.04-.35.12-.45.16-.1.36-.04.46.13.1.16.03.36-.13.46zM20.33 207.9c-.16.1-.37.05-.46-.1-.1-.17-.04-.38.12-.47.15-.1.36-.04.45.12.1.16.04.37-.12.46zM95.75 160c-.16.1-.37.04-.46-.12-.1-.16-.05-.37.1-.46.17-.1.38-.04.47.12.1.16.04.37-.12.46zM33.33 80.44c-.16.1-.36.04-.46-.12-.1-.16-.04-.37.13-.46.16-.1.36-.04.46.12.1.16.04.37-.13.46zM21.16 18.95c-.16.1-.37.04-.46-.12-.1-.17-.04-.37.12-.46.16-.1.37-.04.46.12.1.15.04.36-.12.45zM210.3 27.64c-.16.1-.37.03-.46-.13-.1-.15-.04-.36.12-.45.16-.1.37-.04.46.12.1.16.04.37-.12.47z" fill="#fff8f8" fill-opacity=".11" stroke-width=".16" stroke="#fff8f8" stroke-linecap="square"/><path d="M187.36 85.85l-.54-.54.67-.67.53.54-.67.68z" fill="#949494"/><path d="M186.94 86.14l-.45-.45.56-.6.45.47-.56.57z" fill="#949494"/><path d="M187.2 86.3l-.37-.16.24-.55.36.15-.24.55z" fill="#949494"/><path d="M193.17 83.68c-.14.14-.23.3-.27.5-.06.3 0 .58.2.83.24-.15.42-.4.48-.68.02-.07.03-.15.02-.22l.02-.16.06-.55-.44-.06-.02.2-.05.14z" fill="#949494" stroke-width=".06" stroke="#000" stroke-linecap="square"/><path d="M199.3 81.45c.03.07-.05.2-.05.2s.14-.1.12-.25c-.02-.14-.25-.23-.25-.23l-.06.06c.1.02.2.15.24.22zM199.6 81.33c0 .07-.07.2-.07.2s.15-.12.13-.25c-.02-.14-.25-.24-.25-.24l-.05.06c.1.02.2.15.24.23zM198.93 81.6c.03.07-.05.2-.05.2s.15-.12.12-.25c-.02-.14-.25-.24-.25-.24l-.06.07c.08.02.2.15.23.23zM198.6 81.68c.03.07-.05.22-.05.22s.15-.13.13-.27c-.02-.14-.25-.23-.25-.23l-.06.06c.1.02.2.15.24.22zM198.18 81.77c.02.07-.05.2-.05.2s.14-.1.12-.25c-.02-.14-.25-.24-.25-.24l-.06.06c.1.02.2.16.24.23zM197.67 81.84c.02.07-.06.2-.06.2s.16-.1.14-.25c-.02-.15-.25-.24-.25-.24l-.07.06c.1.02.2.15.24.22zM197.28 81.92c.02.07-.06.2-.06.2s.15-.1.13-.25c-.03-.14-.25-.23-.25-.23l-.06.06c.08.02.2.15.24.22zM196.84 82.04c.02.07-.06.2-.06.2s.15-.12.13-.25c0-.15-.24-.25-.24-.25l-.06.06c.1.03.2.16.24.24zM199 82.54c.02-.08-.08-.22-.08-.22s.17.12.16.27c0 .14-.24.27-.24.27l-.07-.06c.1-.02.2-.18.23-.26zM198.65 82.45c.02-.08-.08-.22-.08-.22s.17.12.17.27c0 .15-.25.28-.25.28l-.08-.06c.1-.03.2-.2.23-.27zM198.14 82.52c0-.08-.1-.22-.1-.22s.2.12.18.27c0 .15-.25.28-.25.28l-.07-.06c.1-.04.2-.2.24-.28zM197.67 82.56c.02-.08-.08-.23-.08-.23s.16.12.15.27c0 .16-.24.3-.24.3l-.06-.07c.1-.03.2-.2.23-.27zM197.33 82.57c.02-.08-.1-.22-.1-.22s.2.12.18.27c0 .15-.23.28-.23.28l-.07-.06c.1-.03.2-.2.23-.27zM197.04 82.55c.02-.08-.08-.23-.08-.23s.17.13.17.28c0 .15-.25.28-.25.28l-.07-.06c.1-.03.22-.2.24-.27z" fill="#f0db9e"/><path d="M199.17 81.2l-4.36 1.17-.15-.6 4.37-1.15.15.58zM198.58 83.27l-4.5-.3.04-.6 4.5.3-.04.6z" fill="#949494"/><path d="M199 83.05l-.74.2-.1-.38.74-.2.1.38z" fill="#949494"/><path d="M199.54 81.05l-.73.2-.1-.38.74-.2.1.38z" fill="#2f2310"/><path d="M194 83.6l-4.93 1.33-.54-2.04 4.92-1.32.54 2.03z" fill="#949494"/><path d="M194.93 83.33l-2.24.6-.5-1.78 2.25-.6.48 1.78z" fill="#949494"/><path d="M195.62 83.14l-2.08.56-.45-1.66 2.08-.56.44 1.66zM189.7 84.63l-1.27.34-.5-1.82 1.28-.34.5 1.83z" fill="#949494"/><path d="M188.73 84.87l-1.26.34-.5-1.8 1.28-.35.48 1.82z" fill="#949494"/><path d="M187.75 84.95l-1 .27-.42-1.6 1-.27.42 1.6z" fill="#949494"/><path d="M186.98 85.1l-1.6.43-.37-1.37 1.6-.43.38 1.37z" fill="#949494"/><path d="M185.5 85.56l-1.62.43-.36-1.38 1.6-.43.37 1.36z" fill="#949494"/><path d="M182.7 85.6l.34-1.04 1.08-.12z" fill="#949494"/><path d="M184.8 85.7l-1.18.85-.86-1.18 1.18-.86.86 1.2z" fill="#949494"/><path d="M185.17 85.6l-1.18.85-.25-.33 1.17-.86.25.33z" fill="#949494"/><path d="M191.94 82.7l-.1-.7 3.56-.48.1.7-3.56.48z" fill="#2f2310"/><path d="M195 82.3l-.16-.55 4.37-1.17.16.55L195 82.3z" fill="#2f2310"/><path d="M194.86 81.73l-.03-.25 1.23-.13.03.24-1.24.13z"/><path d="M193.62 81.78v-.25l1.23-.05v.25l-1.23.05z"/><path d="M189.02 83.5l-.2-.7 3.48-.92.18.7-3.46.92z" fill="#2f2310"/><path d="M184.92 84.96l-.24-.67 4.17-1.5.24.68-4.18 1.48z" fill="#2f2310"/><path d="M182.9 85.1l-.04-.65 2.02-.13.04.64-2.02.13z" fill="#2f2310"/><path d="M191.92 82.1l-.05-.25 1.74-.32.05.25-1.73.32z"/><path d="M189.2 82.82l-.05-.24 2.76-.74.08.24-2.77.74zM196.07 81.6l-.07-.24 2.56-.7.07.25-2.56.7z"/><path d="M198.6 80.9l-.04-.23.5-.1.06.24-.5.1z"/><path d="M199.07 80.82v-.25h.72v.25h-.73z"/><path d="M199.47 81.24l-.2-.15.32-.43.2.15-.33.42z"/><path d="M199.02 81.45l-.1-.2.45-.22.1.2-.45.22z"/><path d="M198.14 81.7l-.06-.24.88-.23.06.22-.88.24z"/><path d="M197.27 81.86l-.04-.23.9-.18.03.23-.9.18z"/><path d="M188.42 83.7l-.1-.6 5.6-1.03.1.6-5.6 1.04z" fill="#2f2310"/><path d="M192.96 82.56l.05-.48 2.4.26-.06.48-2.38-.26z" fill="#2f2310"/><path d="M195.34 82.82l.04-.43 2.13.17-.02.43-2.14-.18z" fill="#2f2310"/><path d="M197.47 83v-.35l1.5.03-.02.35-1.48-.03z" fill="#2f2310"/><path d="M195.05 82.45l-.06-.22 2.23-.6.06.22-2.25.6z"/><path d="M195.06 82.48l.03-.23 1.9.24-.03.22-1.9-.24z"/><path d="M196.97 82.73v-.24l1.9.06v.23l-1.9-.07z"/><path d="M198.7 82.74l.17-.18.33.3-.15.18-.34-.3z"/><path d="M199.2 82.87l.07.22-.84.22-.06-.23.84-.23z"/><path d="M198.45 83.08v.23l-2.2-.04.02-.23 2.18.05z"/><path d="M196.28 83.02v.24l-1.2.07v-.24l1.2-.08z"/><path d="M195.1 83.1l.08.2-1.12.44-.1-.22 1.14-.43z"/><path d="M194 83.5l.07.23-4.07 1.1-.06-.23 4.07-1.1z"/><path d="M190 84.58l.04.23-2.57.4-.04-.22 2.57-.4z"/><path d="M187.45 84.98l.03.23-1.83.28-.03-.23 1.83-.27zM185.8 83.75l.1.2-1.04.53-.1-.2 1.05-.53zM184.93 85.68l.12.2-1.36.78-.13-.2 1.36-.78z"/><path d="M185.63 85.24l.12.2-.7.45-.13-.2.7-.46zM183.85 86.5l-.17.16-1.1-1.1.16-.17 1.1 1.1z"/><path d="M182.8 85.6l-.23-.04.3-1.17.22.05-.3 1.16z"/><path d="M184.84 84.25l.02.23-1.97.14-.03-.23 1.97-.15zM189.2 82.57l.08.22-3.4 1.17-.08-.22 3.4-1.18z"/><path d="M186.1 82.96l-.18.73 1.43.37.2-.73-1.44-.38z" fill="#2f2310"/><path d="M194.72 82.33c-.06.05-.15.05-.2 0-.07-.06-.07-.16 0-.2.05-.07.14-.07.2 0 .06.04.06.14 0 .2z"/><path d="M194.65 82.26c-.02.02-.05.02-.07 0-.02-.02-.02-.06 0-.08h.07c.02.02.02.06 0 .08z" fill="#fefefe"/><path d="M192.2 82.9c0 .02 0 .02.02.02.06 0 .13.03.14.1.02.06 0 .13-.07.15-.02 0-.03.02-.03.03l.03.02c.06 0 .12.03.14.1.02.05 0 .12-.07.15 0 0-.02 0-.02.02h.03c.06 0 .12.04.14.1.02.07-.02.13-.08.16v.02s0 .02.02 0c.08-.02.12-.1.1-.2-.02-.05-.07-.1-.13-.1.05-.05.07-.12.05-.18-.02-.06-.07-.1-.13-.13.05-.04.07-.1.05-.16-.02-.08-.1-.13-.2-.12v.03zM189.8 82.95c.07 0 .14.04.15.1.02.07 0 .14-.07.16 0 .02-.02.03 0 .04v.02c.07 0 .13.03.15.1.02.06 0 .12-.07.15l-.02.03.03.02c.06 0 .12.03.14.1.03.06 0 .12-.07.15v.02s0 .02.02.02c.08-.04.12-.12.1-.2-.02-.07-.07-.12-.13-.13.05-.03.07-.1.05-.16-.02-.06-.07-.1-.13-.12.05-.05.07-.1.05-.17-.03-.1-.1-.14-.2-.13 0 0-.02.02 0 .03zM193 82.35h.02c.06 0 .13.04.14.1.02.07 0 .14-.07.16l-.03.04.03.02c.06 0 .12.03.14.1.02.06 0 .12-.08.15v.03s0 .02.02.02c.06 0 .12.03.14.1.02.06-.02.12-.08.15v.02s0 .02.02.02c.08-.04.12-.12.1-.2-.02-.07-.07-.12-.13-.13.05-.03.07-.1.05-.16-.02-.06-.07-.1-.13-.12.05-.05.07-.1.05-.17-.02-.1-.1-.14-.2-.13v.03zM188.32 83.67h.02c.06 0 .13.04.14.1.02.07 0 .14-.07.16v.03s0 .02.02.02c.06 0 .12.03.14.1.02.06 0 .12-.07.15-.02 0-.03 0-.03.02l.03.02c.06 0 .12.03.14.1.02.06-.02.12-.08.15v.02s0 .02.02.02c.08-.04.12-.12.1-.2-.02-.07-.07-.12-.13-.13.05-.04.07-.1.05-.17-.02-.06-.07-.1-.13-.12.05-.05.07-.1.05-.17-.02-.1-.1-.14-.2-.13v.03zM186.1 83.93l.04.02c.06 0 .12.03.14.1.02.06-.02.12-.08.15v.04c.08 0 .14.03.16.1 0 .06-.02.13-.08.15v.02c.08 0 .14.04.16.1 0 .07-.02.14-.08.16 0 0-.02.02 0 .03v.02c.1-.03.14-.12.1-.2 0-.07-.05-.1-.1-.13.03-.05.05-.1.04-.18-.02-.06-.07-.1-.13-.12.04-.04.06-.1.05-.17-.02-.08-.1-.14-.2-.13v.03zM187.62 84.38h.02c.07 0 .13.04.15.1 0 .07-.03.14-.1.16v.03s0 .02.02.02c.06-.02.13.02.14.08.02.07 0 .13-.07.16-.02 0-.03 0-.02.02 0 0 0 .02.02.02.06 0 .13.03.14.1.02.06 0 .12-.07.15 0 0-.02 0-.02.02l.03.02c.08-.04.12-.12.1-.2-.02-.07-.07-.12-.13-.13.05-.04.07-.1.05-.17 0-.06-.06-.1-.12-.12.04-.05.06-.1.04-.17-.02-.1-.1-.14-.18-.13-.02 0-.02.02-.02.03zM184.7 84.52s0 .02.03.02c.06 0 .12.03.14.1.02.06-.02.12-.08.15h-.02v.02h.02c.07 0 .13.04.15.1 0 .07-.02.14-.08.16v.04c.08 0 .14.03.16.1 0 .06-.02.13-.08.15 0 0-.02.02 0 .03.1-.02.14-.1.12-.2-.02-.06-.07-.1-.13-.12.04-.04.06-.1.05-.17-.03-.05-.08-.1-.14-.1.04-.05.07-.12.05-.18 0-.08-.1-.14-.18-.13 0 0-.02 0-.02.02zM189.3 83.48v.02c.08 0 .14.03.16.1 0 .06-.02.12-.08.15v.04c.08-.02.14.02.16.1 0 .05-.02.12-.08.14 0 0-.02 0 0 .02v.02c.07 0 .14.03.15.1.03.06 0 .13-.06.15 0 0-.02.02 0 .03.1-.02.14-.1.1-.2 0-.06-.05-.1-.1-.12.03-.04.05-.1.03-.17 0-.06-.06-.1-.12-.12.04-.04.06-.1.05-.17-.03-.08-.1-.14-.2-.13v.03zM191.1 83h.03c.06 0 .12.04.14.1.02.07-.02.14-.08.16-.02 0-.02.02-.02.03h.02c.07 0 .13.04.15.1 0 .06-.02.13-.08.15v.05c.08 0 .14.03.16.1 0 .06-.02.12-.08.15 0 0-.02 0 0 .02 0 0 0 .02 0 0 .1-.02.14-.1.12-.2-.02-.05-.07-.1-.13-.1.04-.05.06-.12.05-.18-.03-.07-.08-.12-.14-.14.04-.04.06-.1.05-.17 0-.1-.1-.14-.18-.13l-.02.03z" fill-opacity=".23"/><path d="M194.87 82.74c-.2.1-.47.02-.58-.2-.12-.2-.04-.47.18-.58.05-.03.1-.04.16-.05-.1 0-.18.02-.26.06-.23.12-.33.4-.2.64.1.24.4.33.63.2.1-.03.16-.1.2-.17-.03.05-.08.08-.13.1z" fill-opacity=".24"/><path d="M194.5 83.22c-.3.15-.68-.03-.87-.4-.2-.37-.1-.8.2-.95.07-.03.14-.05.23-.05-.13-.03-.26 0-.38.05-.32.16-.4.62-.2 1.03.2.4.63.6.95.43.1-.06.2-.16.26-.27-.06.07-.12.12-.2.16z" fill-opacity=".24"/><path d="M193.36 83.68c-.1.15-.2.33-.2.53-.03.3.08.6.28.8.23-.18.4-.44.4-.74.02-.07 0-.15 0-.22V83.32h-.45v.22l-.04.14zM190.1 84.6c-.17.07-.33.2-.44.35-.17.25-.2.54-.15.84.3-.06.57-.2.74-.45l.1-.2.08-.14.27-.47-.4-.22-.1.2-.1.1z" fill="#949494" stroke-width=".06" stroke="#000" stroke-linecap="square"/><path d="M186.56 85.82l-.14-.1.3-.48.14.08-.3.5zM187.58 85.7l-.1-.12.55-.56.12.1-.57.57z"/><path d="M187.3 86.36l-.15-.07.33-.73.14.06-.32.73zM186.98 86.2l-.1.1-.46-.57.1-.08.46.56z"/><path d="M186.87 86.3l.02-.14.4.06v.14l-.43-.06z"/><path d="M185.66 82.9l-.22.73.9.27.2-.72-.88-.27z" fill="#2f2310"/><path d="M185.82 82.62l-.28.36.55.43.27-.35-.55-.43z" fill="#2f2310"/><path d="M185.44 83.46l-.1.16.6.34.08-.16-.58-.34zM186.56 83.02l-.05.17.9.25.04-.17-.88-.26z"/><path d="M185.9 82.5l-.1.14.72.56.1-.14-.72-.56zM185.65 82.82l-.16-.02-.15.82.16.02.15-.82z"/><path d="M185.5 82.8l.1.13.4-.3-.1-.14-.4.3zM187.4 83.45l-.08-.18.24-.1.07.2-.24.08z"/><path d="M184.55 85.1l.33-.05c-.02-.24-.8-.36-1.73-.26v.08c.76-.08 1.38 0 1.4.2z" fill-opacity=".24"/><path d="M184.55 85.26l.32-.12c-.08-.22-.86-.15-1.74.16l.03.08c.7-.25 1.33-.3 1.4-.12z" fill-opacity=".24"/><path d="M184.7 85.35l.28-.2c-.14-.2-.88.06-1.66.58l.05.07c.63-.4 1.22-.62 1.33-.45z" fill-opacity=".24"/><path d="M184.87 85.44l.22-.25c-.2-.17-.84.26-1.46.96l.06.06c.5-.56 1.02-.9 1.17-.78z" fill-opacity=".24"/><path d="M233.6 59.1l-.53-.53.68-.68.54.53-.7.68z" fill="#949494"/><path d="M233.2 59.4l-.46-.45.57-.57.47.45-.57.57z" fill="#949494"/><path d="M233.44 59.56l-.36-.16.24-.55.36.16-.24.56z" fill="#949494"/><path d="M239.42 56.94c-.13.14-.23.3-.27.5-.06.3.02.6.2.83.24-.16.43-.4.5-.7v-.2l.02-.17.07-.55-.44-.05-.02.2-.06.14z" fill="#949494" stroke-width=".06" stroke="#000" stroke-linecap="square"/><path d="M245.56 54.7c.02.08-.06.23-.06.23s.15-.13.13-.27c-.02-.14-.25-.23-.25-.23l-.06.06c.1 0 .2.14.24.2zM245.84 54.6c.02.06-.05.2-.05.2s.13-.12.1-.26c0-.14-.24-.23-.24-.23l-.06.07c.1.02.2.15.24.22zM245.2 54.86c0 .07-.07.2-.07.2s.15-.1.13-.25c-.02-.13-.25-.23-.25-.23l-.05.07c.1.02.2.15.24.22zM244.86 54.95c.02.07-.05.2-.05.2s.15-.12.13-.25c-.02-.14-.25-.24-.25-.24l-.06.06c.1.02.2.15.24.23zM244.44 55.03c.02.07-.06.2-.06.2s.15-.1.13-.25c-.02-.14-.24-.23-.24-.23l-.06.06c.08.03.2.16.24.23zM243.92 55.1c.02.07-.05.22-.05.22s.14-.13.12-.27c-.03-.14-.26-.23-.26-.23l-.06.06c.1.02.2.15.24.22zM243.53 55.18c.02.07-.06.2-.06.2s.15-.1.13-.25c-.02-.14-.25-.23-.25-.23l-.06.06c.08.02.2.15.23.22zM243.1 55.3c.02.07-.06.2-.06.2s.14-.1.12-.25c-.02-.14-.25-.23-.25-.23l-.05.06c.1.02.22.15.24.22zM245.26 55.8c0-.07-.1-.22-.1-.22s.2.12.18.27c0 .16-.25.3-.25.3l-.08-.07c.1-.04.2-.2.24-.27zM244.9 55.7c.03-.07-.08-.2-.08-.2s.18.1.17.26c-.02.15-.25.28-.25.28l-.08-.05c.1-.05.22-.2.24-.3zM244.4 55.78c0-.07-.1-.22-.1-.22s.18.12.17.27c0 .16-.24.3-.24.3l-.07-.07c.1-.04.2-.2.23-.28zM243.93 55.82c0-.08-.1-.23-.1-.23s.2.1.18.27c0 .15-.24.28-.24.28l-.07-.06c.1-.04.2-.2.23-.28zM243.58 55.83c.02-.08-.08-.22-.08-.22s.17.13.17.28c0 .15-.25.28-.25.28l-.07-.05c.1-.03.2-.18.23-.27zM243.3 55.8c0-.07-.1-.2-.1-.2s.2.1.18.26c0 .15-.25.28-.25.28l-.07-.06c.1-.03.22-.18.24-.27z" fill="#f0db9e"/><path d="M245.43 54.46l-4.37 1.17-.15-.58 4.37-1.17.16.58zM244.84 56.54l-4.5-.3.03-.6 4.5.3-.03.6z" fill="#949494"/><path d="M245.25 56.32l-.73.2-.1-.4.73-.18.1.38z" fill="#949494"/><path d="M245.8 54.32l-.74.2-.1-.4.74-.18.1.38z" fill="#2f2310"/><path d="M240.25 56.87l-4.92 1.32-.55-2.04 4.92-1.32.55 2.03z" fill="#949494"/><path d="M241.2 56.6l-2.26.6-.47-1.8 2.24-.6.5 1.8z" fill="#949494"/><path d="M241.88 56.4l-2.1.56-.43-1.66 2.08-.56.45 1.66zM235.95 57.9l-1.26.33-.5-1.82 1.26-.33.5 1.82z" fill="#949494"/><path d="M235 58.13l-1.28.34-.48-1.82 1.26-.34.5 1.83z" fill="#949494"/><path d="M234 58.2l-1 .28-.42-1.6 1-.27.42 1.6z" fill="#949494"/><path d="M233.23 58.36l-1.6.43-.37-1.37 1.6-.43.37 1.36z" fill="#949494"/><path d="M231.74 58.82l-1.6.43-.37-1.36 1.6-.44.37 1.36z" fill="#949494"/><path d="M228.96 58.85l.34-1.03 1.08-.12z" fill="#949494"/><path d="M231.06 58.95l-1.18.86-.86-1.17 1.18-.86.86 1.18z" fill="#949494"/><path d="M231.42 58.85l-1.18.86-.24-.32 1.18-.86.24.33z" fill="#949494"/><path d="M238.2 55.96l-.1-.7 3.56-.48.1.7-3.56.48z" fill="#2f2310"/><path d="M241.25 55.56l-.15-.55 4.36-1.16.15.56-4.35 1.16z" fill="#2f2310"/><path d="M241.1 55l-.02-.25 1.23-.14.04.25-1.23.14z"/><path d="M239.87 55.04v-.25l1.23-.05V55l-1.23.04z"/><path d="M235.27 56.76l-.18-.7 3.45-.9.2.68-3.48.92z" fill="#2f2310"/><path d="M231.17 58.23l-.24-.68 4.18-1.48.25.67-4.18 1.5z" fill="#2f2310"/><path d="M229.16 58.36l-.05-.65 2.04-.12.04.64-2.02.14z" fill="#2f2310"/><path d="M238.17 55.36l-.05-.24 1.74-.32.05.24-1.73.32z"/><path d="M235.47 56.08l-.07-.23 2.77-.74.06.24-2.76.74zM242.32 54.86l-.06-.24 2.56-.7.06.25-2.56.7z"/><path d="M244.87 54.18l-.05-.25.5-.1.05.24-.5.1z"/><path d="M245.33 54.08v-.25h.72v.25h-.72z"/><path d="M245.73 54.5l-.2-.15.32-.42.2.15-.32.42z"/><path d="M245.28 54.7l-.1-.2.45-.2.1.2-.45.2z"/><path d="M244.4 54.95l-.06-.23.88-.23.06.2-.88.25z"/><path d="M243.52 55.12l-.04-.23.9-.2.04.24-.9.18z"/><path d="M234.68 56.97l-.1-.6 5.6-1.04.1.6-5.6 1.04z" fill="#2f2310"/><path d="M239.2 55.82l.06-.47 2.4.25-.06.48-2.4-.26z" fill="#2f2310"/><path d="M241.6 56.08l.03-.43 2.14.18-.04.43-2.14-.18z" fill="#2f2310"/><path d="M243.73 56.26v-.35l1.48.04v.36l-1.47-.04z" fill="#2f2310"/><path d="M241.3 55.7l-.06-.2 2.24-.6.07.2-2.25.6z"/><path d="M241.3 55.74l.04-.23 1.92.25-.03.24-1.92-.26z"/><path d="M243.23 56v-.25l1.9.07-.02.23-1.87-.06z"/><path d="M244.96 56l.16-.17.34.3-.16.17-.34-.3z"/><path d="M245.46 56.13l.06.22-.84.23-.06-.23.84-.22z"/><path d="M244.7 56.34v.23l-2.18-.05v-.23l2.18.04z"/><path d="M242.53 56.3l.02.22-1.2.07-.02-.24 1.2-.07z"/><path d="M241.36 56.35l.08.22-1.13.43-.07-.22 1.13-.43z"/><path d="M240.27 56.77l.06.22-4.08 1.1-.06-.24 4.07-1.1z"/><path d="M236.26 57.84l.03.23-2.58.4-.03-.23 2.56-.4z"/><path d="M233.7 58.24l.04.23-1.83.28-.03-.24 1.83-.26zM232.06 57l.1.22-1.05.52-.1-.2 1.06-.53zM231.2 58.94l.1.2-1.36.78-.1-.2 1.35-.78z"/><path d="M231.88 58.5l.13.2-.7.45-.13-.2.7-.44zM230.1 59.76l-.16.17-1.1-1.1.15-.18 1.1 1.1z"/><path d="M229.06 58.87l-.23-.05.3-1.17.22.06-.3 1.17z"/><path d="M231.1 57.5v.24l-1.96.14-.02-.23 1.98-.14zM235.46 55.83l.08.22-3.4 1.18-.08-.22 3.4-1.17z"/><path d="M232.37 56.22l-.2.73 1.43.38.2-.73-1.43-.38z" fill="#2f2310"/><path d="M240.98 55.6c-.06.05-.16.05-.2 0-.07-.07-.07-.16 0-.22.04-.06.14-.06.2 0 .05.06.05.15 0 .2z"/><path d="M240.9 55.52c0 .02-.05.02-.07 0-.02-.02-.02-.05 0-.07.02-.02.06-.02.08 0 .03.02.03.05 0 .07z" fill="#fefefe"/><path d="M238.45 56.17h.02c.07 0 .13.04.15.1 0 .07-.02.14-.08.16v.05c.08 0 .14.03.16.1 0 .06-.02.12-.08.15 0 0-.02 0 0 .02v.02c.07 0 .14.03.15.1.02.06 0 .12-.07.15 0 0-.02 0 0 .02v.02c.1-.04.14-.12.1-.2 0-.07-.05-.12-.1-.13.03-.04.05-.1.03-.17 0-.06-.06-.1-.12-.12.05-.05.07-.1.06-.17-.03-.1-.1-.14-.2-.13v.03zM236.04 56.2c0 .02 0 .03.02.02.07 0 .13.04.15.1.03.07 0 .13-.07.16v.04c.08 0 .14.03.16.1 0 .06-.03.12-.1.15v.02h.02c.06 0 .13.04.14.1.02.07 0 .13-.07.16-.02 0-.03 0-.02.02 0 .02 0 .02.02.02.08-.04.13-.12.1-.2 0-.07-.06-.12-.12-.13.04-.04.06-.1.05-.17-.02-.06-.07-.1-.13-.12.04-.04.06-.1.05-.17-.03-.08-.1-.13-.2-.12v.03zM239.25 55.6c0 .02 0 .03.02.02.07 0 .13.04.15.1 0 .07-.02.13-.08.16v.04c.07 0 .14.03.16.1 0 .06-.02.12-.08.15 0 0-.02 0 0 .02.07 0 .14.04.15.1.02.07 0 .13-.07.16 0 0-.02 0 0 .02v.02c.1-.04.14-.12.1-.2 0-.07-.05-.12-.1-.13.03-.04.05-.1.03-.17 0-.06-.06-.1-.12-.12.05-.04.07-.1.06-.17-.03-.08-.1-.13-.2-.12v.03zM234.57 56.93s0 .02.03.02c.06 0 .12.03.14.1.02.06-.02.12-.08.15v.04c.08 0 .14.03.16.1 0 .06-.02.12-.08.15v.02c.07 0 .14.04.15.1 0 .07-.02.14-.08.16 0 0-.02 0 0 .02v.02c.1-.04.14-.12.1-.2 0-.07-.05-.12-.1-.13.03-.05.05-.12.04-.18-.02-.06-.07-.1-.13-.12.04-.04.06-.1.05-.17-.03-.1-.1-.14-.2-.13v.03zM232.37 57.2h.02c.05 0 .12.04.13.1.02.07 0 .13-.07.16 0 0-.02 0-.02.02s.02.02.03.02c.06 0 .12.03.14.1.03.06 0 .13-.06.15l-.02.03.03.02c.06 0 .12.03.14.1 0 .05-.03.12-.1.14v.03s.02.02.03 0c.08-.02.12-.1.1-.2-.02-.06-.07-.1-.13-.1.05-.06.07-.12.05-.18-.02-.08-.07-.12-.13-.14.05-.04.07-.1.05-.17-.02-.1-.1-.14-.2-.13v.02zM233.87 57.64l.03.02c.06 0 .12.03.14.1.02.06-.02.12-.08.15v.03s0 .02.02.02c.06 0 .12.03.14.1.02.06-.02.12-.08.15v.04c.08 0 .14.03.16.1 0 .06-.02.13-.08.15 0 .03 0 .03.02.03.07-.04.12-.12.1-.2-.02-.07-.07-.12-.13-.13.05-.04.07-.1.06-.17-.02-.06-.07-.1-.13-.12.04-.03.07-.1.05-.16-.02-.1-.1-.14-.2-.13v.04zM230.96 57.78s0 .02.02.02c.06 0 .13.03.14.1.02.06 0 .12-.07.15 0 0-.02 0 0 .02v.02c.07-.02.14.02.15.1.02.05 0 .12-.07.14l-.02.03c.02 0 .03.02.04 0 .06 0 .12.05.14.1.02.07-.02.14-.08.16v.03s0 .02.02 0c.08-.02.12-.1.1-.2-.02-.06-.07-.1-.13-.1.04-.06.06-.12.04-.18-.02-.07-.07-.1-.13-.13.06-.04.08-.1.06-.17-.02-.08-.1-.13-.2-.12v.02zM235.55 56.74s0 .02.02.02c.06 0 .12.03.14.1.03.06 0 .12-.06.15l-.02.03c0 .02.02.02.03.02.06 0 .12.03.14.1 0 .06-.03.13-.1.15v.03s0 .02.03 0c.06 0 .12.05.14.1.02.07-.02.14-.08.16-.02 0-.02 0-.02.02 0 0 .02.02.03 0 .1-.02.13-.1.1-.2 0-.06-.06-.1-.12-.12.04-.04.07-.1.05-.16-.02-.07-.07-.1-.13-.13.05-.03.07-.1.05-.16-.02-.08-.1-.13-.2-.12v.02zM237.36 56.26h.02c.06 0 .13.04.14.1.02.07 0 .14-.07.16 0 0-.02.02 0 .03v.02c.07 0 .13.03.15.1.02.06 0 .12-.07.15 0 0-.02 0-.02.02l.04.02c.06 0 .12.03.14.1.02.06-.02.12-.08.15v.03s0 .02.02.02c.08-.04.12-.12.1-.2-.02-.07-.07-.12-.13-.13.04-.04.06-.1.04-.17-.02-.06-.07-.1-.13-.12.06-.05.08-.1.06-.17-.02-.1-.1-.14-.2-.13v.03z" fill-opacity=".23"/><path d="M241.13 56c-.22.1-.48.02-.6-.2-.1-.2 0-.47.2-.58.06-.02.1-.04.16-.04-.1 0-.18 0-.27.05-.23.12-.32.4-.2.63.12.24.4.33.63.2.1-.03.15-.1.2-.17l-.13.1z" fill-opacity=".24"/><path d="M240.76 56.48c-.3.15-.7-.03-.88-.4-.18-.37-.1-.8.2-.94.07-.04.15-.06.23-.06-.12-.02-.25 0-.36.05-.33.16-.42.62-.2 1.03.2.4.62.6.94.43.12-.07.2-.16.26-.28-.05.07-.1.13-.18.16z" fill-opacity=".24"/><path d="M239.62 56.94c-.12.15-.2.33-.2.53-.03.3.07.58.28.8.23-.2.38-.45.4-.74V56.6h-.45v.2l-.03.14zM236.36 57.86c-.18.07-.33.2-.45.35-.15.26-.2.55-.13.85.3-.05.55-.2.72-.44l.1-.2.07-.13.28-.48-.4-.23-.1.18-.1.1z" fill="#949494" stroke-width=".06" stroke="#000" stroke-linecap="square"/><path d="M232.8 59.08l-.12-.08.3-.5.13.08-.3.5zM233.84 58.95l-.1-.1.55-.57.1.1-.56.57z"/><path d="M233.55 59.62l-.14-.06.33-.73.15.07-.33.72zM233.23 59.47l-.1.1-.45-.57.1-.1.45.57z"/><path d="M233.12 59.56l.03-.14.42.06-.02.15-.43-.07z"/><path d="M231.9 56.17l-.2.72.9.26.2-.72-.9-.27z" fill="#2f2310"/><path d="M232.07 55.88l-.28.36.54.43.28-.36-.55-.42z" fill="#2f2310"/><path d="M231.7 56.72l-.1.16.6.34.08-.16-.58-.34zM232.8 56.28l-.04.18.88.26.05-.18-.9-.26z"/><path d="M232.15 55.76l-.1.14.72.56.1-.14-.72-.56zM231.9 56.1l-.15-.04-.15.82.17.03.14-.8z"/><path d="M231.75 56.06l.1.13.4-.3-.1-.14-.4.3zM233.65 56.72l-.07-.2.23-.08.08.2-.23.08z"/><path d="M230.8 58.35l.34-.03c-.03-.25-.8-.37-1.73-.27l.02.1c.74-.1 1.36 0 1.38.2z" fill-opacity=".24"/><path d="M230.8 58.52l.32-.1c-.08-.24-.86-.17-1.74.14l.03.1c.72-.27 1.34-.32 1.4-.14z" fill-opacity=".24"/><path d="M230.95 58.6l.28-.18c-.13-.2-.87.05-1.65.57l.05.07c.62-.42 1.2-.63 1.32-.46z" fill-opacity=".24"/><path d="M231.12 58.7l.23-.25c-.18-.16-.84.27-1.46.97l.06.06c.5-.56 1.02-.9 1.16-.78z" fill-opacity=".24"/><path d="M280.63 69.47l-.54-.55.67-.67.54.54-.67.67z" fill="#949494"/><path d="M280.22 69.76l-.46-.46.58-.57.45.46-.58.56z" fill="#949494"/><path d="M280.47 69.92l-.37-.16.25-.55.36.17-.23.55z" fill="#949494"/><path d="M286.45 67.3c-.14.14-.23.3-.27.5-.06.3 0 .58.2.83.23-.16.42-.4.48-.7.02-.07.02-.14.02-.2l.02-.18.06-.54-.44-.04-.02.2-.05.14z" fill="#949494" stroke-width=".06" stroke="#000" stroke-linecap="square"/><path d="M292.58 65.07c.02.07-.06.2-.06.2s.15-.1.13-.25c-.02-.14-.25-.23-.25-.23l-.06.05c.1.02.2.15.24.22zM292.86 64.94c.03.07-.05.22-.05.22s.16-.13.13-.27c-.02-.14-.25-.24-.25-.24l-.05.06c.08.02.2.15.23.22zM292.2 65.2c.03.08-.04.23-.04.23s.14-.13.12-.27c-.02-.13-.25-.23-.25-.23l-.06.06c.1 0 .2.14.24.2zM291.9 65.3c0 .07-.07.22-.07.22s.15-.13.13-.27c-.03-.14-.25-.23-.25-.23l-.05.06c.08.02.2.15.24.22zM291.46 65.4c.02.06-.06.2-.06.2s.15-.13.13-.26c-.02-.14-.25-.24-.25-.24l-.06.06c.1.02.2.15.24.23zM290.94 65.46c.03.07-.05.2-.05.2s.14-.1.12-.25c-.03-.13-.25-.22-.25-.22l-.06.06c.1.02.22.15.25.22zM290.55 65.54c.03.07-.05.2-.05.2s.14-.1.12-.25c-.02-.15-.25-.25-.25-.25l-.06.07c.1.02.22.15.25.22zM290.12 65.65c.02.07-.06.22-.06.22s.15-.13.13-.27c-.04-.13-.26-.23-.26-.23l-.06.06c.08.02.2.15.24.22zM292.28 66.16c.02-.08-.1-.23-.1-.23s.2.12.18.28c0 .16-.24.3-.24.3l-.08-.07c.1-.03.22-.2.24-.27zM291.93 66.07c.02-.08-.08-.23-.08-.23s.17.12.16.28c0 .15-.23.28-.23.28l-.07-.06c.1-.03.2-.2.23-.27zM291.4 66.14c.03-.08-.07-.23-.07-.23s.17.13.17.3c0 .14-.25.27-.25.27l-.07-.06c.1-.02.2-.18.23-.26zM290.95 66.18c.02-.08-.1-.23-.1-.23s.2.12.18.27c0 .16-.24.3-.24.3l-.08-.07c.1-.04.2-.2.23-.27zM290.6 66.2c.02-.1-.08-.24-.08-.24s.18.12.17.28c-.02.15-.26.28-.26.28l-.07-.06c.1-.03.22-.2.24-.27zM290.32 66.17c.02-.08-.1-.23-.1-.23s.2.12.18.28c0 .15-.24.28-.24.28l-.07-.06c.08-.03.2-.2.22-.27z" fill="#f0db9e"/><path d="M292.45 64.82L288.1 66l-.17-.6 4.36-1.17.15.6zM291.86 66.9l-4.5-.3.03-.6 4.5.3-.04.6z" fill="#949494"/><path d="M292.28 66.67l-.74.2-.1-.38.74-.2.1.37z" fill="#949494"/><path d="M292.82 64.67l-.73.2-.12-.38.74-.2.1.37z" fill="#2f2310"/><path d="M287.27 67.23l-4.92 1.32-.54-2.04 4.93-1.3.54 2.03z" fill="#949494"/><path d="M288.2 66.95l-2.23.6-.48-1.8 2.23-.6.48 1.8z" fill="#949494"/><path d="M288.9 66.76l-2.08.56-.45-1.66 2.1-.56.43 1.66zM282.98 68.25l-1.27.34-.48-1.83 1.27-.34.48 1.82z" fill="#949494"/><path d="M282 68.5l-1.25.33-.5-1.82 1.27-.33.5 1.82z" fill="#949494"/><path d="M281.02 68.57l-.98.27-.44-1.6 1-.28.42 1.6z" fill="#949494"/><path d="M280.26 68.72l-1.6.42-.37-1.36 1.6-.43.36 1.37z" fill="#949494"/><path d="M278.76 69.18l-1.6.43-.36-1.36 1.6-.43.37 1.38z" fill="#949494"/><path d="M275.98 69.2l.34-1.02 1.08-.12z" fill="#949494"/><path d="M278.08 69.3l-1.18.87-.86-1.18 1.18-.87.86 1.18z" fill="#949494"/><path d="M278.45 69.2l-1.18.87-.25-.34 1.18-.85.25.33z" fill="#949494"/><path d="M285.22 66.32l-.1-.7 3.56-.48.1.7-3.56.48z" fill="#2f2310"/><path d="M288.27 65.92l-.15-.55 4.37-1.17.13.55-4.36 1.17z" fill="#2f2310"/><path d="M288.13 65.35l-.02-.25 1.24-.14.03.25-1.24.15z"/><path d="M286.9 65.4v-.25l1.22-.05v.25l-1.22.05z"/><path d="M282.3 67.12l-.2-.7 3.47-.92.2.7-3.47.92z" fill="#2f2310"/><path d="M278.2 68.58l-.24-.67 4.17-1.47.24.67-4.17 1.48z" fill="#2f2310"/><path d="M276.18 68.7l-.04-.63 2.02-.14.04.65-2.02.13z" fill="#2f2310"/><path d="M285.2 65.72l-.05-.25 1.73-.32.05.24-1.74.32z"/><path d="M282.5 66.44l-.07-.24 2.76-.74.05.24-2.76.74zM289.34 65.22l-.06-.24 2.56-.7.07.25-2.56.7z"/><path d="M291.9 64.53l-.06-.24.5-.1.06.23-.5.1z"/><path d="M292.35 64.43v-.24h.72v.24h-.72z"/><path d="M292.75 64.85l-.2-.14.32-.4.2.13-.32.42z"/><path d="M292.3 65.07l-.1-.2.45-.23.1.22-.45.2z"/><path d="M291.42 65.3l-.06-.22.88-.24.06.23-.88.24z"/><path d="M290.55 65.48l-.05-.23.9-.18.04.23-.9.18z"/><path d="M281.7 67.33l-.1-.6 5.6-1.04.1.6-5.6 1.03z" fill="#2f2310"/><path d="M286.23 66.18l.05-.48 2.4.26-.06.48-2.4-.26z" fill="#2f2310"/><path d="M288.62 66.44l.03-.43 2.14.2-.05.42-2.13-.18z" fill="#2f2310"/><path d="M290.75 66.62v-.36l1.5.04-.02.35-1.48-.03z" fill="#2f2310"/><path d="M288.33 66.07l-.06-.22 2.24-.6.07.22-2.24.6z"/><path d="M288.33 66.1l.03-.23 1.92.24-.03.24-1.92-.24z"/><path d="M290.25 66.34v-.23l1.9.08v.23l-1.9-.06z"/><path d="M292 66.36l.14-.18.34.3-.15.18-.34-.3z"/><path d="M292.48 66.48l.06.23-.83.23-.05-.22.83-.22z"/><path d="M291.73 66.7v.23l-2.2-.05v-.24l2.2.06z"/><path d="M289.56 66.64v.24l-1.2.07v-.24l1.2-.06z"/><path d="M288.38 66.7l.08.22-1.13.43-.08-.2 1.13-.45z"/><path d="M287.3 67.13l.05.22-4.07 1.1-.06-.23 4.07-1.1z"/><path d="M283.28 68.2l.04.23-2.57.4-.04-.23 2.58-.4z"/><path d="M280.72 68.6l.04.23-1.83.27-.03-.23 1.82-.27zM279.08 67.37l.1.2-1.04.53-.1-.2 1.04-.53zM278.2 69.3l.13.2-1.36.78-.12-.2 1.36-.78z"/><path d="M278.9 68.86l.13.2-.7.45-.13-.2.7-.44zM277.13 70.12l-.17.16-1.1-1.1.16-.17 1.1 1.12z"/><path d="M276.08 69.23l-.23-.06.3-1.16.22.07-.3 1.16z"/><path d="M278.12 67.87l.02.23-1.98.14V68l1.96-.13zM282.5 66.2l.06.2-3.4 1.2-.08-.23 3.4-1.18z"/><path d="M279.4 66.58l-.2.73 1.42.4.2-.74-1.43-.38z" fill="#2f2310"/><path d="M288 65.94c-.06.06-.15.06-.2 0-.07-.05-.07-.15 0-.2.05-.06.14-.06.2 0 .06.05.06.15 0 .2z"/><path d="M287.93 65.87c-.02.02-.05.02-.07 0-.02-.02-.02-.05 0-.07.02-.02.05-.02.07 0 .02.02.02.06 0 .07z" fill="#fefefe"/><path d="M285.48 66.53h.02c.06 0 .12.04.14.1.02.07 0 .14-.08.16v.02h.02c.06 0 .12.04.14.1.02.07-.02.14-.08.16v.06c.08 0 .14.03.16.1 0 .05-.02.12-.08.15v.02s0 .02.02 0c.08-.02.12-.1.1-.2-.02-.05-.07-.1-.13-.1.05-.06.08-.12.06-.18-.02-.07-.07-.1-.13-.13.05-.05.07-.1.05-.18-.02-.08-.1-.13-.2-.12v.03zM283.06 66.57h.03c.05 0 .1.04.13.1.02.07-.02.14-.08.16v.03s0 .02.02.02c.06 0 .12.03.14.1.03.05 0 .12-.07.14v.03s0 .02.02.02c.06 0 .12.03.14.1 0 .06-.03.12-.1.15v.02s.02.02.03 0c.08-.02.12-.1.1-.2-.02-.05-.07-.1-.13-.1.04-.06.07-.12.05-.18-.02-.06-.07-.1-.13-.13.05-.04.07-.1.05-.17-.02-.08-.1-.13-.2-.12v.03zM286.27 65.97h.03c.06 0 .12.04.14.1.02.07-.02.14-.08.16v.03s0 .02.02.02c.06 0 .12.03.14.1.02.05-.02.12-.08.14v.05c.08 0 .14.03.16.1 0 .06-.02.12-.08.15v.02s0 .02.02 0c.07-.02.12-.1.1-.2-.02-.05-.07-.1-.13-.1.05-.06.07-.12.06-.18-.02-.06-.07-.1-.13-.13.05-.04.07-.1.05-.17-.02-.08-.1-.13-.2-.12v.03zM281.6 67.3h.02c.06 0 .12.03.14.1.02.06 0 .13-.07.15-.02 0-.03.02-.03.03l.03.02c.06 0 .12.03.14.1.02.05-.02.12-.08.14v.03s0 .02.02.02c.06-.02.12.02.14.08.02.07-.02.13-.08.16v.02s0 .02.02 0c.08-.02.12-.1.1-.2-.02-.05-.07-.1-.13-.1.05-.05.07-.12.05-.18-.02-.06-.07-.1-.13-.13.05-.04.07-.1.05-.16-.02-.1-.1-.15-.2-.14v.03zM279.4 67.55v.02c.08 0 .14.03.16.1 0 .06-.02.12-.08.15v.04c.07 0 .14.03.16.1 0 .06-.02.12-.08.15 0 0-.02.02 0 .03v.02c.07 0 .14.03.15.1.03.06 0 .13-.06.15 0 0-.02 0 0 .02v.02c.1-.03.14-.12.1-.2 0-.07-.05-.1-.1-.13.03-.03.05-.1.03-.16 0-.06-.06-.1-.12-.12.04-.04.06-.1.05-.17-.03-.08-.1-.14-.2-.13v.03zM280.9 68h.02c.06 0 .13.04.14.1.02.07 0 .14-.07.16-.02 0-.03.02-.03.03h.03c.06 0 .12.04.14.1.02.06 0 .13-.07.15l-.02.03s0 .02.03.02c.06 0 .12.03.14.1.02.06-.02.12-.08.15v.02s0 .02.02 0c.08-.02.12-.1.1-.2-.02-.05-.07-.1-.13-.1.05-.05.07-.12.05-.18-.02-.07-.07-.12-.13-.14.05-.04.07-.1.05-.17-.02-.1-.1-.14-.2-.13V68zM277.98 68.14s0 .02.02.02c.07 0 .13.03.15.1 0 .06-.02.12-.08.15v.05c.08 0 .14.03.16.1 0 .06-.02.12-.08.15 0 0-.02 0 0 .02v.02c.07 0 .14.03.15.1.02.06 0 .13-.07.15 0 0-.02 0 0 0v.03c.1-.03.14-.12.1-.2 0-.07-.05-.1-.1-.13.03-.04.05-.1.03-.17 0-.06-.06-.1-.12-.12.04-.03.06-.1.05-.16-.04-.08-.12-.14-.2-.13l-.02.04zM282.57 67.1s0 .02.02.02c.05 0 .12.03.13.1.02.06 0 .12-.07.15 0 0-.02 0 0 .02.07 0 .14.04.15.1.03.07 0 .13-.06.16 0 0-.02 0-.02.02s.02.02.03.02c.06 0 .12.03.14.1 0 .06-.02.13-.1.15v.02c0 .02.02.02.03.02.08-.05.12-.13.1-.22-.02-.06-.07-.1-.13-.12.05-.04.07-.1.05-.17 0-.07-.07-.12-.12-.13.04-.04.06-.1.04-.17-.02-.1-.1-.14-.2-.13v.03zM284.38 66.62h.02c.07 0 .13.04.15.1 0 .07-.02.14-.08.16v.04c.07 0 .14.03.15.1.02.06 0 .13-.07.15 0 0-.02.02 0 .03v.02c.07 0 .14.03.15.1.02.05 0 .12-.07.15 0 0-.02 0-.02.02h.04c.08-.03.12-.12.1-.2 0-.06-.07-.1-.12-.12.04-.05.06-.1.04-.17 0-.06-.06-.1-.12-.12.04-.04.06-.1.05-.17-.04-.07-.12-.12-.2-.1 0 0-.02 0-.02.02z" fill-opacity=".23"/><path d="M288.15 66.36c-.2.1-.48.02-.6-.2-.1-.2 0-.47.2-.58.06-.03.1-.04.17-.05-.1 0-.18 0-.26.05-.24.12-.33.4-.2.64.1.23.4.33.63.2.07-.03.14-.1.18-.17-.04.05-.08.08-.13.1z" fill-opacity=".24"/><path d="M287.8 66.84c-.3.15-.7-.03-.9-.4-.18-.37-.1-.8.2-.95.08-.04.15-.06.23-.06-.13-.03-.25 0-.37.04-.32.17-.42.63-.2 1.03.2.42.63.6.95.45.12-.06.2-.16.26-.27-.04.07-.1.12-.17.16z" fill-opacity=".24"/><path d="M286.64 67.3c-.12.15-.2.33-.2.53-.03.3.08.57.28.8.23-.2.38-.45.4-.75.02-.07 0-.15 0-.22V66.94h-.45v.22l-.03.14zM283.38 68.2c-.17.1-.33.2-.44.37-.17.24-.22.54-.15.83.28-.04.55-.2.7-.43.06-.07.1-.13.12-.2l.08-.15.27-.48-.38-.2-.12.17-.1.1z" fill="#949494" stroke-width=".06" stroke="#000" stroke-linecap="square"/><path d="M279.84 69.43l-.14-.08.3-.5.13.1-.3.48zM280.86 69.3l-.1-.1.55-.56.12.1-.56.57z"/><path d="M280.58 69.98l-.15-.07.33-.7.14.05-.32.73zM280.26 69.83l-.12.1-.44-.58.1-.1.46.58z"/><path d="M280.15 69.92l.02-.14.42.06-.03.14-.42-.06z"/><path d="M278.93 66.53l-.2.72.9.27.2-.72-.9-.27z" fill="#2f2310"/><path d="M279.1 66.24l-.28.36.55.42.28-.36-.55-.42z" fill="#2f2310"/><path d="M278.72 67.08l-.1.16.6.34.08-.16-.58-.34zM279.84 66.64l-.06.17.9.27.04-.17-.88-.26z"/><path d="M279.18 66.1l-.12.16.73.56.1-.15-.73-.56zM278.93 66.44l-.16-.03-.14.83.16.03.13-.82z"/><path d="M278.77 66.4l.1.15.4-.3-.1-.14-.4.3zM280.67 67.07l-.07-.2.23-.07.07.18-.23.1z"/><path d="M277.82 68.7l.34-.03c-.02-.24-.8-.36-1.73-.26v.1c.75-.08 1.37 0 1.4.2z" fill-opacity=".24"/><path d="M277.83 68.88l.32-.12c-.08-.23-.87-.16-1.75.16l.03.08c.7-.25 1.33-.3 1.4-.12z" fill-opacity=".24"/><path d="M277.97 68.96l.3-.18c-.15-.2-.9.05-1.67.57l.05.07c.62-.4 1.22-.62 1.32-.46z" fill-opacity=".24"/><path d="M278.14 69.06l.23-.25c-.18-.16-.83.28-1.46.98l.08.06c.5-.56 1.02-.9 1.16-.78z" fill-opacity=".24"/></svg>
