<svg xmlns="http://www.w3.org/2000/svg" width="300" height="168.8" viewBox="0 0 300 168.75"><path fill="#343838" d="M0 0h300v168.8H0z"/><path d="M271.8 76.7h-.6c-.4 0-.6 0-.8-.4l-2.4-4h-.3c.7-.6 1-1.5 1-2.6 0-2-1.4-3.4-3.3-3.4-2 0-3.5 1.5-3.5 3.4 0 2 1.4 3.4 3.3 3.5l3 5.4c-.2.6-.5 1.2-.5 2-.2.3-.2.7-.2 1 0 1.5.8 2.7 2 3.2L267 95.3h-.4c-.7.2-1 0-1.3-.6l-3.7-6.3v-1c1-1.2 1.3-2.6.7-4.2-.4-.8-1-1-1.8-.6l-5 3c-1 .4-1 1-.5 1.7 1 1.4 2.4 2 4 1.8.4 0 .6 0 .8.5l3.8 6.5c.2.3.2.6 0 1-1.3 1.6-1.2 4 .2 5.3 1.4 1.5 4 1.7 5.5.5 2-1.3 2.5-5 0-6.7h-.4c.8-3.7 1.8-7.2 2.7-10.7l.4-.3c3.2-.2 4.6-3.6 3.6-5.8-.3-.7-.7-1.3-1.4-1.7l2.6-4.3h.5c2 0 3.4-1.5 3.4-3.4 0-2-1.5-3.5-3.4-3.5-2 0-3.5 1.6-3.5 3.5 0 .8.3 1.5.8 2l-2.8 5zm-90 9.3h5.7v-6c0-.7.4-1 1-1 .5 0 1 .4 1 1v6h13v-6c0-.7.4-1 1-1 .4 0 1 .4 1 1v6h6.4c.5 0 1-.7.7-1.2l-7-16.6c0-.3-.4-.5-.7-.5h-15c-.5 0-.7.2-1 .5l-7 16.6c-.2.5.2 1.2.8 1.2zm34.2 16.6l-5-8.2c1-.4 1.7-1.4 1.7-2.5 0-1.6-1.2-2.8-2.7-2.8h-9c-1.4 0-2.7 1.2-2.7 2.7 0 1 1 2 2 2.4v8.2H216zm-25-13.4h-9c-1.4 0-2.6 1.2-2.6 2.7 0 1 .7 2 1.8 2.4l-5.2 8.3h15.7v-8.3c1.2-.3 2-1.3 2-2.5 0-1.7-1.2-2.8-2.7-2.8zm-51-17c-3-3.3-7.4-5.3-12.3-5.3-9.6 0-17.4 7.7-17.4 17.4 0 9.6 7.8 17.5 17.4 17.5 8.2 0 15-5.7 17-13.2H140c-1.7 5-6.6 8.7-12.3 8.7-7.2 0-13-6-13-13 0-7.3 5.8-13.2 13-13.2 3.7 0 7 1.5 9.3 4l-7 7H145V66.8l-5 5zm13 12.7c-1.7.6-3 2.3-3 4.4 0 2 1.2 3.7 3 4.5l2.5 8h6.6l-3-9.8c.4-.8.7-1.8.7-2.8 0-1-.3-2-.8-2.7l2.4-6 8 2.6c.5.2 1 .2 1.3.2 1.8 0 3.4-1 4-2.8l1-3.7c.8-2.2-.4-4.5-2.5-5.2l-14.5-4.6c-.5-.2-1-.3-1.7-.3-2.5 0-4.6 1.5-5.4 3.8l-.3 1c-.8 3 1 6 3.8 7h.6l-2.5 6zM28 79c-4.4.6-7.8 4.4-7.8 9 0 4.4 3.4 8 7.7 8.7v25c3.2 2 7 3 11 3 12 0 21.7-9.7 21.7-21.6 0-9-5.6-16.8-13.4-20 4-3.3 6.3-8.2 6.3-13.8 0-10-8-18.2-18-18.2-2.8 0-5.4.5-7.7 1.6V79zm-3 18.7l-2 5.5 1 .4 2-5.6-1-.3zm-3.2-2l-3.8 4.5.8.7 3.8-4.6-.8-.7zm-1.7-2l-.4-1-5 3 .4 1 5-3zM18.7 90l-.2-1-5.8 1 .2 1 5.8-1zm0-3.7v-1l-5.8-1-.2 1 6 1zm1-3.5l.6-1-5.2-3-.5 1 5 3zm2.2-3l.7-.6-3.7-4.5-.8.5 3.8 4.5zm3-2l1-.3-2-5.6-1 .5 2 5.5zm206.4-.3h4.7c.3 0 .7 0 1-.4l4.6-4.6c.6-.6.6-1.6 0-2.3L237 66c-.6-.7-1.6-.7-2.2 0-10.7 10.5-10.7 27.8 0 38.5.6.6 1.6.6 2.3 0l4.6-4.6c.6-.7.6-1.7 0-2.4L237 93c-.3-.2-.7-.4-1-.4H231c-1.6-4.8-1.6-10 0-15zm-128.5 4.8l3.2-2c-.6-2.3-1.5-4.5-2.8-6.5l-3.6.8c-1-1.3-2.2-2.5-3.5-3.5l1-3.7c-2-1.3-4.3-2.2-6.6-2.7l-2 3c-1.6-.2-3.3-.2-5 0l-2-3c-2.2.4-4.4 1.3-6.5 2.6l.8 3.6c-1.3 1-2.5 2.2-3.5 3.5l-3.7-.8c-1.3 2-2.2 4.2-2.7 6.5l3 2c-.2 1.6-.2 3.3 0 5l-3 1.8c.4 2.4 1.3 4.6 2.6 6.6l3.6-1c1 1.4 2.2 2.6 3.5 3.6l-.8 3.6c2 1.3 4 2.2 6.4 2.7l2-3.2c1.7.2 3.4.2 5 0l2 3c2.2-.4 4.4-1.3 6.5-2.6l-1-3.6c1.3-1 2.5-2 3.5-3.5l3.6 1c1.5-2 2.4-4.3 3-6.6l-3.3-2c.3-1.6.3-3.3 0-5zm-10 5.3c-1.5 3.8-6 5.6-9.7 4-3.8-1.6-5.6-6-4-9.7 1.6-3.7 6-5.5 9.8-4 3.8 1.6 5.6 6 4 9.8z" fill="#008c9f"/></svg>
