<svg xmlns="http://www.w3.org/2000/svg" width="300" height="168.8" viewBox="0 0 300 168.75"><path d="M203.6 40.8l4.6-10.5c-29.2-12.7-63 .7-75.8 30l10.6 4.5c10-23.4 37.3-34 60.6-24z"/><path d="M148 51l-27-15.6-48 83.4 27 15.5 26.7 15.5 48-83.4L148 51z" fill="#e02200" stroke-width="2" stroke="#000"/><path d="M108.3 139l-16.6-9.5 48-83.4 16.7 9.7-48 83.4z" fill="#e00" stroke-width="2" stroke="#000"/><path d="M213.5 39.6c.3-3.2 1-5.7 2.2-10-2.4 2.3-4.4 4.5-6 7.4l-1.4-1.3C207 25 219.3 21.4 224.7 24c3 1.4 6.5 4.6 4.8 9-1.7 4-6 4.5-7.7 2.2-1.5-2.3 0-4.7 3-5-6-3.4-9.2 5.8-3.5 8.4 11 5.2 18.3-11 5-17.4-13.6-6.3-25 4.7-26.4 17.3 8.2 5 16.3 7.5 24.4 4.2-4 0-7.8-1.3-11-3z" fill="#fff" stroke-width="2" stroke="#f70"/><path d="M96 77.7l1.2-2 54.8 31.8-1 1.8-55-31.6z"/></svg>
