<svg xmlns="http://www.w3.org/2000/svg" width="300" height="168.8" viewBox="0 0 300 168.75"><path d="M20 56.4s16-14 30.8-13c14.8.8 29 16.7 29 16.7s14 16 28.8 17c15 1 30.2-13.2 30.2-13.2s16-14 30.8-13.2c15 1 28.8 17 28.8 17s14 15.8 29 16.7c15 1 30.2-13.2 30.2-13.2" stroke-width="7" stroke="#ff419f" fill="none"/><path d="M22.2 58.6s18.4-10.8 32.7-7C69 55.4 80 73.8 80 73.8s10.7 18.4 25 22c14.6 4 32.3-7 32.3-7s18.3-10.7 32.7-7c14.5 4 25 22.2 25 22.2s10.7 18.4 25 22.2c14.6 3.8 32.3-7 32.3-7" stroke-width="7" stroke="#ff419f" fill="none"/><path d="M226.5 54.3c.8 3-1 6-4 7-3 .7-6-1-7-4-.7-3 1-6 4-7 3-.7 6.2 1 7 4zM87 32.4c1 3-1 6-4 7-3 .7-6-1-6.8-4-.8-3 1-6 4-7 3-.8 6 1 7 4zM167.6 106.6c.8 3-1 6-4 7-3 .8-6-1-6.8-4-1-3 1-6 4-7 3-.7 6 1 6.8 4zM232.3 143c.8 3-1 6-4 6.8-3 .8-6-1-7-4-.7-3 1-6 4-7 3-.7 6.2 1 7 4zM72.3 89.5c.8 3-1 6-4 7-3 .7-6-1-7-4-.7-3 1-6 4-7 3-.8 6.2 1 7 4zM161 30.3c1 3-1 6-4 7-3 .8-6-1-6.8-4-.8-3 1-6 4-7 3-.7 6 1 6.8 4z" fill="#fe9fe3"/></svg>
