<svg xmlns="http://www.w3.org/2000/svg" width="300" height="168.75"><path d="M112.914 75.79l-2.063-13.377c74.6-11.502 139.764 9.128 145.457 46.05l-27.028 4.168c-4.56-29.564-56.633-46.05-116.366-36.84z" fill="#483523" stroke-width="47" stroke="#aaa"/><path d="M228.58 95.135c2.64-2.453 6.76-2.302 9.213.337 2.453 2.638 2.302 6.76-.336 9.213l-8.876-9.55z" fill="#8c8c8c"/><path d="M240.137 104.1l2.77 17.96 5.583-.86-2.897-18.786.432-.438-.59-.582-.08-.528-.393.06-25.904-25.596.047-.148-.293-.095-.47-.465-.236.238-36.046-11.61-.072.225-38.434.93-.008-.05-.39.06h-.025l.002.004-38.05 5.866.86 5.583 37.716-5.816 38.225-.925L215.8 80.05l24.337 24.048z"/><path d="M87.114 97.813l2.638 17.104 15.33-2.364-2.637-17.104.362-.057-5.623-36.463-.362.056-3.6-23.352-15.33 2.364 3.6 23.352L5.974 72.994l5.622 36.464 75.518-11.645z" fill="#483523"/></svg>
