<svg xmlns="http://www.w3.org/2000/svg" width="300" height="168.8" viewBox="0 0 300 168.75"><path d="M209 102l-9 6.3 18.6-6c35.4-.4 63.8-14 63.8-31 0-16-25.5-29-58.3-30.6l-25.2-7 11 7c-18.3 1-34.3 5.7-44.7 12.5l-24-13.7c-6.4-3.7-14.2 1-14.2 8l.3 49c0 7.4 8 12 14.3 8.2L166 90.2c10.3 6.3 25.6 10.7 43 11.7z"/><path d="M273 87.5c5.8-4.6 9.2-10 9.4-15.6V71c0-5.8-3.5-11.3-9.5-16v32.3zM120.7 51.8l2.2 6.8-104.3 34-2.2-6.7zM122.4 71l2.2 6.8-104.2 34L18 105zM122.6 90.6l2.2 6.8-104.2 34-2.2-6.7z" fill="#fe1219"/></svg>
