<svg xmlns="http://www.w3.org/2000/svg" width="300" height="168.8" viewBox="0 0 300 168.75"><path d="M54.4 104.8l2.4 15.4c1.3 8.5 3.3 15.2 4.4 15 1.2 0 1-7.2-.3-15.7L58.5 104l-4.2.8zm-3-19.6l4.3-.7L53.4 69C52 60.7 50 54 49 54c-1.3.3-1 7.3.2 15.8l2.3 15.4z" fill="#eee" stroke-width="2" stroke="#e00"/><path d="M58.8 98.6L57.4 89l162.8-25c34.5-5.4 62.7-7.5 63-4.8.5 2.6-27 9-61.5 14.4l-163 25z" fill="#fff" stroke-width="2" stroke="#e00" stroke-linecap="round" stroke-linejoin="round"/><path d="M52.8 101l1 6.7c0 .2 1.5.2 3.2 0 1.8-.3 3.2-.7 3.2-1l-1-6.8v-.2l-.2-.5h1.5c2-.4 3.6-1 3.5-1.3l-1.4-9.4c0-.6-1.8-.8-4-.5l-1 .3-1-6.6c-.2-.3-1.6-.2-3.4 0-1.7.3-3 .7-3 1l.8 5.8-12.3 2-1.7 1.4-26.3 4 1.5 9.7 25.5-4 3 1.3 12-2z"/></svg>
