<svg xmlns="http://www.w3.org/2000/svg" width="300" height="168.8" viewBox="0 0 300 168.75"><path d="M218.7 65.2c-.5.7-1 1.2-1 1 0 0 0 .4-.5 1l-1 1-.6.7c-.6.6-2.4 2.4-2.6 2.4l-1 .8-.7.7c0-.2-.5.2-1 .8l-1.6 1.2c-.2 0-.4.2-.5.4 0 .2-.6.5-1 .8l-1 .8-3 2c-.5.4-1 .8-1 1l-.6.2s-.3 0-.5.2c-.8 1-1.5 1.4-2 1.6-.4 0-.8.3-1 .5-.3.5-1.6 1.4-1.8 1.3l-.7.5c-.7.7-2 1.5-2 1.3l-.6.5-.7.6s-.2 0-.4.3l-.6.3c-.2 0-.6.3-1 .7-.2.4-.6.7-.8.7 0 0-.4.4-.6 1-.3.7-1 1.6-1.5 1.6 0 0-.3 0-.6.3-.4.3-.6.4-.7.3 0-.2 0 0-.3 0 0 .3-.3.4-.3.4s-.2.2-.2.6c0 .5-.2.7-.7.8h-1.2c-.7-.3-.8-.3-1.3.2-.3.2-.6.6-.6 1 0 .3-1.7 2.2-2.2 2.4 0 0-.3 0-.4.3-.3.4-2 1.6-2 1.4l-.2.3c-.2 0-.3.2-.4 0l-.4.4c-.6.6-1.6 1.2-2 1.2-.4 0-.7 0-1.5 1.2L171 104c-.4.2-1 .6-1.2 1-1 1-1.2 1-2 .4-.6-.4-.8-.5-1.6-.3-.6.2-1 .4-1.4 1-.6.6-2 1.4-2.2 1.2 0-.2-.8 0-1 .4l-1.3.4c-1 .3-1.6 1-1.6 1.6 0 .3-1.2 2.3-2 3.3-1.2 1.6-1.4 1.8-1.7 2l-.7.5c-.6.7-2 1.4-3.3 1.6-.8.2-1 0-1.7-.3l-1-.5c-.2 0-.6.4-1 1-.4.3-.8.7-1 .7-.3 0-1-.7-1-1-.2-.4.8-2 1-2 0 0 .2 0 .3-.2 0 0 .3-.3.5-.3.4 0 .4-.2.2-.5l-.4-.5-1 1c-.4.3-.7.6-.8.5-.3-.3-.5 0-.8.8 0 .5-.3 1-.4 1 0 0-.2 0 0 .2l-.2.6c-.2.4-.3.7 0 1 0 .4 0 .6-.5 1l-1.5.5c-1 .2-2.4.4-2.8.6-.2 0-.3.2-.4.4 0 .2 0 .2-.5 0-.5-.4-.7-.4-1.2-.2l-1 .4c-.2 0-.6.4-.8.7-.4.6-1 .8-1 .6-.2 0-.5 0-.8.4-.5.6-.6.6-1 .4-.3-.2-.4-.2-1 .4l-1 1-1 .7-.7.7c-.5 0-1 .4-1.8 1.2-.7.6-1.2.8-1.8 1-.6 0-1 .3-1.5.8-.4.4-.8.8-1 .8 0 0-.2 0-.2.2l-.8 1c-1 1-4.2 5.4-4 5.7l-.6.7-.6.7c0 .3-.8 2-1 2v.2c.2.2-.2 1.5-.5 1.7-.5.2-1.5 0-1.6-.2l-.2-.4c0-.2-.5.2-1 1l-1.3 2-.6 1-.8 1.3c-.8 1-1.5 2.4-1.8 3.3l-.7 1c-.2.5-.5 1-.6 1.6-.2 1.5-.7 2-1.6 1.2-.5-.4-.5-.5-.3-1l.2-.4s0-.5.3-1l.8-2.7.4-1c0-.4.3-1 .3-1l.4-1.4c.3-.6.5-1 .5-1.3 0-.4 1.3-3.8 1.6-4.3l.3-.5c-.2-.3.6-2 .7-2l.4-.8c.2-.4.4-1 .6-1l.3-.5s0-.6.4-1l.5-.8c-.2 0 0-.3.3-.7.8-1 1.7-2 1.7-2.3 0 0 1.4-2 2-2.5l1-1 2.2-2.8c1-1 2-2.5 2.5-3.2.5-.7 1-1.4 1-1.7.2-.2.3-.5.2-.6 0 0 0-.6.4-1.2.3-.5.5-1.3.6-1.6.2-1.5 1.3-1.5 1.7 0 0 .6.3.8.3.7 0-.2.2-.3.3-.2 0 0 .3 0 .3-.2l1.2-1.2c1.6-1.4 2.2-2.3 2.2-3.3 0-.7 0-1 1-2s1-1 1.7-.7c.3.3.4.3.6 0l.7-.5c.2 0 .6-.3.8-.6.2-.4.4-.5.4-.4l.2-.3.3-.2c0 .2.2 0 .4-.2l.5-.3s.3 0 .5-.2c.3-.3 1.5-1 2.4-1.2l1-.4c.6 0 1-.3 1.3-.2l1-.5 1.2-.8 1.2-.6 1.2-.4c.3 0 .5 0 .6-.2l.7-.4 1.5-.8 1.7-.7c.2 0 .6 0 1-.3.5-.5 1.5-1 2-1.4.2 0 .6-.4 1-.6l.4-.4.3-.2.4-.3h.3s.2 0 .3-.2c.2 0 .6-.3 1-.7.4-.3.7-.6.8-.5 0 0 .2 0 .3-.3 0-.2.4-.4.7-.4.3 0 .6-.2.6-.3.2-.3 1.6-1.4 2-1.6.3 0 .5-.3.6-.5 0-.2.2-.3.4-.4l1-1 .8-1 1.5-.3c1.5-.3 1.6-.3 2.2-1 .3-.5.7-1 .7-1.3.2-.3.2-.3 1.3-.2 2.2.2 4.5-.4 7-1.8l1-.6c.3 0 .7-.3 1-.5.7-.4 3-1.4 3.4-1.2l.7-.6c.3-.4.6-.7.7-.6l.3-.5c.2 0 .4-.3.6-.2l.8-.5 2-1c.8-.2 1.2-.4 1.4-.7 0-.2.4-.8.7-1.2.5-.8.6-.8 1-.7.6.2.8.2 1.3-.2.6-.2.8-.5 1-1v-1.8c-.2-1.2 0-1.7 1-2.8 1.3-1.2 1.8-1.3 2.3-.8.3.2.4.2.5 0 .4-.4 1.2-.5 1.5-.2h2.3c.8 0 1-.2 1.6-1l.7-1 .8.4c.6.2.8.2 1.2 0 .5-.4 1.4-1.6 1.2-1.7 0 0 0-.3.3-.6.4-.4.5-.5.8-.4.4 0 .5.3.6 1.2 0 1 .2 1 .4 1 .6 0 2-.8 2.3-1 0-.2.4-.5.6-.6l1-.6.6-.3.5-.2c1-.8 2.4-1.4 4-1.8 2-.5 2.5 0 1.2 2zm-25-49.2l-4.6 6.3-.7 1c-.4.5-.8 1-1 1l-.7.6c-.3.3-.7.7-1 .7l-1 1-1 1c-.2 0-.6.2-1 .6-.4.4-1 1-1.3 1-.4.2-.8.6-1 1-.6.4-1 .7-1.5.8 0 .2-.7.6-1.3 1-.6.5-1.2 1-1.5 1-.2 0-.6.2-.7.4l-.3.2s-.2 0-.5.3c-.5.4-1.3 1-1.5 1 0-.2-.3 0-.4 0l-.3.2-.3.2c-.4.5-1.6 1.2-1.8 1.2 0 0-.4 0-.6.4-.2.2-.4.4-.5.3l-.2.3-.3.2s-.2 0-.3.2l-.5.4c-.3 0-1 .7-2 1.7-.8 1.3-1.4 1.8-1.8 1.7l-.7.4c-.4.5-1.7 1.5-2 1.5l-.8 1.2c-.4.7-1 1.2-1 1.2-1.8.2-2.5.6-3.5 2-.4.4-.7.7-.8.6 0 0-.2 0-.2.2 0 .3-1.7 1.5-2.5 1.7-.4 0-.8.4-1 .6l-.5.5c-.3 0-1.6 1-1.8 1.6l-.6.8s-.5.3-.8.7c-.4.4-.8.7-1.2.7-.3 0-.7.2-1 .4-.4.4-1 .2-1.8-.7l-1-1c-.2 0-.5.3-.7.6-.2.4-.4.5-.8.5-.3 0-.8.3-1 .5l-1 .6c-1.3.6-2 1-2 1.6v.6c.3.4-.7 2.5-1.2 2.6l-1 1c-.2.4-.8 1-1 1l-.6.6c0 .2-1 1-1.3 1.3l-.6.5c-.5.5-1.6 1-2.6 1.3-.7 0-1 0-1.4-.3l-.6-.2h-.2c-.2-.2-.5 0-1 .5-.7.8-.7.8-1.2.6-.3 0-.6-.2-.6-.3-.2-.3.2-1 .7-1.4l.4-.5c0-.2 0-.6.3-1 .6-1 .5-1.2-.2-1.4-.4 0-.6 0-1 .3l-.7.7c-.2 0-.5.6-.7 1l-.7 1.7c-.3.3-.4.6-.4.7v1.6c.2.3.2.6-.2 1l-.4.5-.7-.3-1.3-.7c-.4-.3-.8-.3-1.7 0-1 0-1.3.2-1.7.7-.3.4-.7.7-.8.7l-.6.6c-.4.7-1 .8-1.6.4-.4-.3-.4-.3-1 .5l-1 .7c-.2 0-.3 0-.3.3l-.2.2s-.3 0-.5.4l-.8.7-1 .7c-.2.4-.2.5 0 .8.4.4 0 1.6-.6 1.4 0 0-.2 0-.4.4-.2.3-.7.7-1.2 1l-1.2.8-2 1.5-1 .7c-.3.4-.8.7-1 .8l-1.4 2c-1.4 2-4 5.6-4.2 5.6l-.6.6-1 1c-.4.2-.7.5-.8.7 0 .3 0 .4-.2.4l-2.3 3.3c-.2.4-.5 1-.7 1l-.3.6c0 .2 0 .5-.3.7l-1 1.7-.4 1c-.3.3-.5.7-.4.7 0 0 0 .3-.4.7l-.4 1-.8 1.7-.6 1.5c-.4 1-.4 1.3 0 1.6.3.4.3.4 0 1-.4.3-.8.5-1.4.6-.4 0-1 .3-1.2.5-.3.3-.4.3-.8 0-.6-.6-.6-2 .2-4.2l.2-1c-.2-.2.5-2.5.7-2.5.2 0 .3 0 .2-.2l.5-1 .6-1.2.6-1.2.3-.8.5-.8.5-1c0-.2.2-.7.5-1l.6-1c0-.3 2-4.3 2.6-5l.5-1s1.7-3.3 2.5-4.5l.6-1 .4-.7c0-.2.7-1.2 1.2-2l1.7-3c.4-.6 1-1.7 1.7-2.5 1.2-1.8 3.6-4.7 4.2-5l1-1.7.8-1.4.6.2c.4.2.5.2 1-.3l1-.4c.2 0 1.3-1.7 1.3-2 0 0 0-.3.2-.4v-.6-.3l.4-1c.2-.8 1-1 1.4-.2.3.5.4.6.8.4.3 0 .5-.2.6-.4l.5-.2c.2 0 .4-.6.7-1.3.3-1 .4-1.2 1-1.3.2 0 .7-.4 1-.6 0-.3.4-.4.4-.4s.3 0 .4-.2c0-.2.3-.4.4-.4l1-.5 1.8-.6c.5 0 1.2-.4 1.7-.7l1.4-.7c.3 0 .8-.4 1-.5l1-.3c.2 0 .4 0 .6-.2.5-.5 2.7-1.8 3-1.7l.2-.3c.4-.4 2.5-1.5 3-1.6.4 0 .7-.2.8-.3h.4s.2 0 .3-.2c0-.2 2.6-1.5 2.8-1.5 0 0 .3 0 .5-.3s.7-.7 1-.8l.4-.2c0-.2.4-.3.5-.4l.5-.6c0-.3.3-.6.5-.6l.4-.3s.5-.3 1.2-.4c1 0 1 0 1.3-1 0-.4.3-.8.2-1l.2-.6c.2-.6.4-.7.8-.8h1.3c.5.2 2.4-.2 2.5-.4.3-.2 0-.5-.2-1-.6-.5-.6-.6-.3-1 .4-.3 1-.3 2-.2h.7l.8.2c.8.2 2.4 0 4.2-1l1.6-.6c.3 0 .5-.4.6-.5 0-.2.4-.7 1-1 .6-.5 1-.6 2-.7 1.3 0 1.3-.2 1.7-.8l.5-.5s.3 0 .4-.2c0-.2.6-.5 1.2-.7l3.3-1c.2-.2.3-.5.3-.7 0 0 0-.7.4-1 .4-.6.6-.8 1-.8s.6 0 .8-.3c0-.3.5-.6.8-.8l.5-.4-.3-1.2c-.3-1.3-.3-1.3.2-2l1-1.2.8-.5c0-.2.2-.5.5-.8l.5-.5.4.4c.5.4.5.5.3 1-.2.6 0 .7.4.2.3-.4.8-.5 1.2-.2h.4c.3-.5.6-.5 1.3-.2.4.3.6.3 1 0 .7-.2.7-.3.6-1-.2-.4 0-.6 0-1 .6-.2 1.3 0 1.4.4 0 .4.8.3 2.6-.3.6-.3 1.5-.6 2-.6.8-.2 2-1 2-1.2 0-.2 0-.5.2-.7l.4-.5 1.2.2c1.4.2 2.6 0 3-.7l.4-.2.2-.2.4-.3c.2 0 .4-.2.4-.5 0-.2.3-.4.4-.4l.7-.4c0-.2.3-.2.6 0 .7.4.7.7 0 1.6zM191 51c-.3 0-.4.2-.3.2.4 0-3 4.7-3.8 5.3l-1 1-1 1-1 .5c0 .3-1 .7-1.8 1l-1.6.8c-.4.2-1 .8-1.8 1.7l-2 2c-.8 1-1 1-2.2 1.3-1 .2-1.4.4-1.7.7l-.6.4s-.3 0-.4.2c0 0-.3.3-.5.3s-.4.2-.5.4c-.2 0-.5.4-.8.6l-1 1.2c-.4.5-.8 1-1 1 0 0-1.3 1.4-2 2.4-.5.6-1 1-1.8 1-.7.2-1.6 1-2.2 2-.7 1-1.4 1.3-2 .8-.6-.2-.6-.2-1.8.7-.6.5-1.4 1-1.7 1.4l-.6.6-.7.8-1 1-.7.7c-.6 1-1.2 1.3-1.5 1 0-.3-.5 0-1.5 1l-1 .8c-.2 0-.4 0-.5.3-.2.3-1.3 1.2-2 1.6-.3.2-1 .7-1 1l-.4.2s-.2 0-.3.2c0 0-.5.4-1 .5-.3 0-.7.3-1 .5-.3.3-.6.4-2 1H140c-.5-.2-1-.2-1.4 0-.4 0-1 .3-1 .4l-.6.2h-.6c-.4-.4-.4-.3-.8.3-.2.2-.3.6-.2.6l-.3 1.8c0 .7-.6.8-1.3.5-.8-.5-1.3-.5-1.2 0 0 .6-.4 2-.8 2-.2 0-.6-.3-1-.6-.5-.4-.8-.5-1.2-.4l-1.6.6-.6.2c-.5 0-2 .6-2.2 1v.3c.2.6-.5 1-2.2 1.6-1.7.5-1.8.6-2.6 1.6-.5.5-1 1-1 1.2 0 0 0 .5-.4 1-.4.3-.5.6-.5.6v.3c-.3.2-.4.4-.3.4 0 0 0 .3-.3.7-.4.4-.8 1-1 1.6l-.3.8.5.5c.3.4.6 1 .8 1.8.2 1.2.2 1.3-.3 2-.7 1-1.2 1-2 .7-.4-.4-.5-.4-2 .2-.2 0-1.4 1.4-2 2-.5 1-.7 1-1.4.7-.4-.2-.6-.2-.8 0V115.3c-.3.4-.4.7-.4 1v.4c-.2 0-.3.3-.2.4 0 0 0 .3-.3.5-.2.4-.4.4-.7.3-.5-.2-.5-.2-.2 1 .3.8.3 1 0 1.3 0 .2-.2.2-.5 0-.6-.3-1.2-.5-1.6-.4-1 0-2.6 1.8-3 3 0 .5-.8.7-1.4.3l-.5-.3.2-1.3.5-1.6v-.8c0-.6.6-2.7.8-3 0 0 .2-.2 0-.2 0-.2.5-2 .8-2.4v-.3s.4-1.5.7-2c0 0 .2-.2 0-.3 0 0 0-.2.2-.3.2 0 .2-.3.2-.4-.2 0 0-.7.3-1.3l.6-1.2c-.2 0 .2-.8 1.7-3.6.7-1.4 5.2-8 5.4-8 .2 0 .7-.6 1.4-1.5 1-1.6 1.2-1.6 1-2.6 0-.6 0-1 .3-1.3.2-.3.5-.6.7-.6.2 0 .6-.3 1-.6 0-.4.6-.8 1-1 0-.2.5-.4.6-.5 0-.2.4-.3.6-.2.3 0 .5 0 1-.8l.5-1c0-.3 2.2-3.2 2.8-3.6.3-.3.8-.6 1-.6.4 0 .6-.2.7-.4l.6-1c.8-.4 2-2 1.8-2 0 0 0-.3.3-.6.4-.4.7-.6 1-.6 1.4-.2 1.6-.3 2-1.2.5-.8.6-1 1-1s.8 0 1 .2c.4.3.4.3 0 1 0 .3-.2.6 0 .5h.3c.2 0 .4 0 .8-.4.7-.6.7-.6 1-.3.4.2.7.2 1.3 0l1-.2c.2 0 .2 0 0-.2v-1-1c0-.2.2-.5.5-.7l.5-.7.8-.8 1-.8s.2-.5.6-.8c.4-.5.7-.7.7-.6l.7-.7c.8-.7 1.8-1.3 2.5-1.2l1.4.5c.6.4 1 .5 1.5.4 1 0 1.3 0 1.4.7 0 .4-.2.7-.7 1-.6.4-.7.6-.5 1 .2.7.5 1 .8.5.2 0 .2-.3 0-.4 0 0 .7-.7 1-.8.5 0 .7 0 1 1.2l.3-.3v-.5c-.2 0 .6-1.4 1-1.5l.7.5c.3.3 1 .5 1.2.5h.7c.6.3 2.4-.2 3-.7.2-.4.4-.5.7-.4.2 0 .3 0 .2-.3 0-.5.2-1 .5-1s.8.2 1.3.5c1 .8 1.5.7 2.8-.2.7-.5 1.7-1.2 2-1.2l.8-.8 1-1 .6-.7c.3-.4.7-.7.8-.7 0 0 .3-.2.3-.4 0-.3 0-.3-.8 0-.5 0-1.2.3-1.5.4-.3 0-.7.2-.7.3 0 0-1.3-.6-1.4-.8 0-.4 1-1.5 1.6-1.5l.8-.4s.5-.3.8-.3c.2 0 .5-.3.6-.4 0-.2.3-.3.4-.4l.8-.5c.3-.3.7-.6 1-.6l.5-.5c.2-.3.5-.6.7-.6 0-.2.5-.6.7-1l.4-.7 1.3 1 1.2 1 .8-.8c.4-.5 1-.8 1-.8h.4c0-.2.3-.3.7-.3l1.2-.4c.4-.3 1.2-.6 1.7-.7.6-.2 1-.5 1.5-1 1-1.2 1.4-1.6 2-1.7l.8-.3 1.2-.5c.3 0 1-.4 1.7-.7l1.6-.6c.2 0 .6-.4.7-.6.3-.4.4-.4.8-.2.8.4 1 .8.6 1.3z"/></svg>
