<svg xmlns="http://www.w3.org/2000/svg" width="300" height="168.8" viewBox="0 0 300 168.75"><path d="M132.6 64l1-2.6C117.3 57.4 81 49.4 58 48c0 0 35 6.2 48.4 9.3 9.4 2.2 19.4 5 26 6.8zM149.3 83l-1.4 2.5c4.7 3.5 15.6 11 25 18 11 8.3 38 31.3 38 31.3-17.3-18.3-50.7-44-61.7-51.8zM150 77.4l-1.5 2.4c6.3 2.2 14.6 5 22.2 8 12.6 5 45 20 45 20-18.2-11-49-24-65.8-30.4zM134.2 91.3l-2.5 1.5c3 6 7.3 15.4 11 24C147.8 129.4 160 163 160 163c-5.3-22.3-19-56.3-25.8-71.7zM146.4 54.2l2.5-1.5c-13-12.3-38.2-35-56-47 0 0 27.2 23 37 32.4 6 5.5 11.8 11.5 16.4 16.2z" fill="#fff0dc"/><path d="M164 51s-20.6-4.2-29 4.2c-10.3 10.2-11.7 22.7-13.5 33.5-1.7 10-.7 12-.7 12s18.4-4.3 29.8-17.8c14-16.5 13.3-32 13.3-32z" fill="#0b4"/></svg>
